G04 #@! TF.GenerationSoftware,KiCad,Pcbnew,(5.1.4)-1*
G04 #@! TF.CreationDate,2019-10-04T17:51:03+08:00*
G04 #@! TF.ProjectId,arduino-sss,61726475-696e-46f2-9d73-73732e6b6963,rev?*
G04 #@! TF.SameCoordinates,Original*
G04 #@! TF.FileFunction,Copper,L2,Bot*
G04 #@! TF.FilePolarity,Positive*
%FSLAX46Y46*%
G04 Gerber Fmt 4.6, Leading zero omitted, Abs format (unit mm)*
G04 Created by KiCad (PCBNEW (5.1.4)-1) date 2019-10-04 17:51:03*
%MOMM*%
%LPD*%
G04 APERTURE LIST*
%ADD10O,2.400000X2.400000*%
%ADD11C,2.400000*%
%ADD12C,1.500000*%
%ADD13O,1.600000X1.600000*%
%ADD14R,1.600000X1.600000*%
%ADD15R,1.500000X1.500000*%
%ADD16C,4.000000*%
%ADD17C,1.600000*%
%ADD18C,2.000000*%
%ADD19C,1.200000*%
%ADD20O,1.727200X2.032000*%
%ADD21C,4.064000*%
%ADD22O,2.200000X2.200000*%
%ADD23R,2.200000X2.200000*%
%ADD24C,1.800000*%
%ADD25R,1.800000X1.800000*%
%ADD26R,1.700000X1.700000*%
%ADD27O,1.700000X1.700000*%
%ADD28R,3.500000X3.500000*%
%ADD29C,0.100000*%
%ADD30C,3.000000*%
%ADD31C,3.500000*%
%ADD32R,1.905000X2.000000*%
%ADD33O,1.905000X2.000000*%
%ADD34C,0.600000*%
%ADD35C,0.250000*%
%ADD36C,0.254000*%
G04 APERTURE END LIST*
D10*
X158115000Y-115506000D03*
D11*
X173355000Y-115506000D03*
D12*
X148218000Y-91441000D03*
X153098000Y-91441000D03*
D13*
X169418000Y-107315000D03*
X136398000Y-99695000D03*
X166878000Y-107315000D03*
X138938000Y-99695000D03*
X164338000Y-107315000D03*
X141478000Y-99695000D03*
X161798000Y-107315000D03*
X144018000Y-99695000D03*
X159258000Y-107315000D03*
X146558000Y-99695000D03*
X156718000Y-107315000D03*
X149098000Y-99695000D03*
X154178000Y-107315000D03*
X151638000Y-99695000D03*
X151638000Y-107315000D03*
X154178000Y-99695000D03*
X149098000Y-107315000D03*
X156718000Y-99695000D03*
X146558000Y-107315000D03*
X159258000Y-99695000D03*
X144018000Y-107315000D03*
X161798000Y-99695000D03*
X141478000Y-107315000D03*
X164338000Y-99695000D03*
X138938000Y-107315000D03*
X166878000Y-99695000D03*
X136398000Y-107315000D03*
D14*
X169418000Y-99695000D03*
D15*
X129286000Y-113856000D03*
D12*
X124206000Y-113856000D03*
X126746000Y-113856000D03*
D15*
X136652000Y-113856000D03*
D12*
X131572000Y-113856000D03*
X134112000Y-113856000D03*
D16*
X114150000Y-101702000D03*
X114150000Y-76702000D03*
D17*
X112730000Y-85047000D03*
X112730000Y-87817000D03*
X112730000Y-90587000D03*
X112730000Y-93357000D03*
X115570000Y-83662000D03*
X115570000Y-86432000D03*
X115570000Y-89202000D03*
X115570000Y-91972000D03*
D14*
X115570000Y-94742000D03*
D18*
X147034000Y-111690000D03*
X147034000Y-119190000D03*
X153226000Y-119190000D03*
X153226000Y-111690000D03*
D17*
X145709000Y-96202500D03*
X148209000Y-96202500D03*
X155598000Y-96202500D03*
X153098000Y-96202500D03*
D18*
X140843000Y-111690000D03*
X140843000Y-119190000D03*
D19*
X129858000Y-109696000D03*
X129858000Y-107696000D03*
X122238000Y-107946000D03*
X122238000Y-109446000D03*
D18*
X128086000Y-102362000D03*
X120586000Y-102362000D03*
D19*
X114618000Y-109696000D03*
X114618000Y-107696000D03*
D20*
X138938000Y-123825000D03*
X141478000Y-123825000D03*
X144018000Y-123825000D03*
X146558000Y-123825000D03*
X149098000Y-123825000D03*
X151638000Y-123825000D03*
X154178000Y-123825000D03*
X156718000Y-123825000D03*
X161798000Y-123825000D03*
X164338000Y-123825000D03*
X166878000Y-123825000D03*
X169418000Y-123825000D03*
X171958000Y-123825000D03*
X174498000Y-123825000D03*
X129794000Y-75565000D03*
X132334000Y-75565000D03*
X134874000Y-75565000D03*
X137414000Y-75565000D03*
X139954000Y-75565000D03*
X142494000Y-75565000D03*
X145034000Y-75565000D03*
X147574000Y-75565000D03*
X150114000Y-75565000D03*
X152654000Y-75565000D03*
X156718000Y-75565000D03*
X159258000Y-75565000D03*
X161798000Y-75565000D03*
X164338000Y-75565000D03*
X166878000Y-75565000D03*
X169418000Y-75565000D03*
X171958000Y-75565000D03*
X174498000Y-75565000D03*
D21*
X124968000Y-123825000D03*
X177038000Y-118745000D03*
X126238000Y-75565000D03*
X177038000Y-90805000D03*
D22*
X125735000Y-119761000D03*
D23*
X135895000Y-119761000D03*
D13*
X170815000Y-120206000D03*
D14*
X160655000Y-120206000D03*
X160655000Y-110883000D03*
D13*
X170815000Y-110883000D03*
D24*
X136832000Y-90551000D03*
D25*
X136832000Y-93091000D03*
D24*
X131931000Y-90551000D03*
D25*
X131931000Y-93091000D03*
X129540000Y-123825000D03*
D24*
X132080000Y-123825000D03*
D25*
X141732000Y-93091000D03*
D24*
X141732000Y-90551000D03*
D26*
X177175000Y-105283000D03*
D27*
X177175000Y-107823000D03*
X177175000Y-110363000D03*
D28*
X121539000Y-118745000D03*
D29*
G36*
X116362513Y-116998611D02*
G01*
X116435318Y-117009411D01*
X116506714Y-117027295D01*
X116576013Y-117052090D01*
X116642548Y-117083559D01*
X116705678Y-117121398D01*
X116764795Y-117165242D01*
X116819330Y-117214670D01*
X116868758Y-117269205D01*
X116912602Y-117328322D01*
X116950441Y-117391452D01*
X116981910Y-117457987D01*
X117006705Y-117527286D01*
X117024589Y-117598682D01*
X117035389Y-117671487D01*
X117039000Y-117745000D01*
X117039000Y-119745000D01*
X117035389Y-119818513D01*
X117024589Y-119891318D01*
X117006705Y-119962714D01*
X116981910Y-120032013D01*
X116950441Y-120098548D01*
X116912602Y-120161678D01*
X116868758Y-120220795D01*
X116819330Y-120275330D01*
X116764795Y-120324758D01*
X116705678Y-120368602D01*
X116642548Y-120406441D01*
X116576013Y-120437910D01*
X116506714Y-120462705D01*
X116435318Y-120480589D01*
X116362513Y-120491389D01*
X116289000Y-120495000D01*
X114789000Y-120495000D01*
X114715487Y-120491389D01*
X114642682Y-120480589D01*
X114571286Y-120462705D01*
X114501987Y-120437910D01*
X114435452Y-120406441D01*
X114372322Y-120368602D01*
X114313205Y-120324758D01*
X114258670Y-120275330D01*
X114209242Y-120220795D01*
X114165398Y-120161678D01*
X114127559Y-120098548D01*
X114096090Y-120032013D01*
X114071295Y-119962714D01*
X114053411Y-119891318D01*
X114042611Y-119818513D01*
X114039000Y-119745000D01*
X114039000Y-117745000D01*
X114042611Y-117671487D01*
X114053411Y-117598682D01*
X114071295Y-117527286D01*
X114096090Y-117457987D01*
X114127559Y-117391452D01*
X114165398Y-117328322D01*
X114209242Y-117269205D01*
X114258670Y-117214670D01*
X114313205Y-117165242D01*
X114372322Y-117121398D01*
X114435452Y-117083559D01*
X114501987Y-117052090D01*
X114571286Y-117027295D01*
X114642682Y-117009411D01*
X114715487Y-116998611D01*
X114789000Y-116995000D01*
X116289000Y-116995000D01*
X116362513Y-116998611D01*
X116362513Y-116998611D01*
G37*
D30*
X115539000Y-118745000D03*
D29*
G36*
X119499765Y-121699213D02*
G01*
X119584704Y-121711813D01*
X119667999Y-121732677D01*
X119748848Y-121761605D01*
X119826472Y-121798319D01*
X119900124Y-121842464D01*
X119969094Y-121893616D01*
X120032718Y-121951282D01*
X120090384Y-122014906D01*
X120141536Y-122083876D01*
X120185681Y-122157528D01*
X120222395Y-122235152D01*
X120251323Y-122316001D01*
X120272187Y-122399296D01*
X120284787Y-122484235D01*
X120289000Y-122570000D01*
X120289000Y-124320000D01*
X120284787Y-124405765D01*
X120272187Y-124490704D01*
X120251323Y-124573999D01*
X120222395Y-124654848D01*
X120185681Y-124732472D01*
X120141536Y-124806124D01*
X120090384Y-124875094D01*
X120032718Y-124938718D01*
X119969094Y-124996384D01*
X119900124Y-125047536D01*
X119826472Y-125091681D01*
X119748848Y-125128395D01*
X119667999Y-125157323D01*
X119584704Y-125178187D01*
X119499765Y-125190787D01*
X119414000Y-125195000D01*
X117664000Y-125195000D01*
X117578235Y-125190787D01*
X117493296Y-125178187D01*
X117410001Y-125157323D01*
X117329152Y-125128395D01*
X117251528Y-125091681D01*
X117177876Y-125047536D01*
X117108906Y-124996384D01*
X117045282Y-124938718D01*
X116987616Y-124875094D01*
X116936464Y-124806124D01*
X116892319Y-124732472D01*
X116855605Y-124654848D01*
X116826677Y-124573999D01*
X116805813Y-124490704D01*
X116793213Y-124405765D01*
X116789000Y-124320000D01*
X116789000Y-122570000D01*
X116793213Y-122484235D01*
X116805813Y-122399296D01*
X116826677Y-122316001D01*
X116855605Y-122235152D01*
X116892319Y-122157528D01*
X116936464Y-122083876D01*
X116987616Y-122014906D01*
X117045282Y-121951282D01*
X117108906Y-121893616D01*
X117177876Y-121842464D01*
X117251528Y-121798319D01*
X117329152Y-121761605D01*
X117410001Y-121732677D01*
X117493296Y-121711813D01*
X117578235Y-121699213D01*
X117664000Y-121695000D01*
X119414000Y-121695000D01*
X119499765Y-121699213D01*
X119499765Y-121699213D01*
G37*
D31*
X118539000Y-123445000D03*
D26*
X169228000Y-96266000D03*
D27*
X169228000Y-93726000D03*
D26*
X174625000Y-95885000D03*
D27*
X177165000Y-95885000D03*
X174625000Y-98425000D03*
X177165000Y-98425000D03*
X174625000Y-100965000D03*
X177165000Y-100965000D03*
D17*
X159248000Y-89408000D03*
D13*
X159248000Y-79248000D03*
D17*
X145568000Y-79692500D03*
D13*
X155728000Y-79692500D03*
D17*
X162552000Y-89408000D03*
D13*
X162552000Y-79248000D03*
X165857000Y-89408000D03*
D17*
X165857000Y-79248000D03*
D13*
X141732000Y-83216800D03*
D17*
X131572000Y-83216800D03*
D13*
X169162000Y-89408000D03*
D17*
X169162000Y-79248000D03*
X131572000Y-86741000D03*
D13*
X141732000Y-86741000D03*
X141732000Y-79692500D03*
D17*
X131572000Y-79692500D03*
X145568000Y-83216800D03*
D13*
X155728000Y-83216800D03*
D17*
X172466000Y-79248000D03*
D13*
X172466000Y-89408000D03*
X155728000Y-86741000D03*
D17*
X145568000Y-86741000D03*
D18*
X159258000Y-96575000D03*
X159258000Y-92075000D03*
X165758000Y-96575000D03*
X165758000Y-92075000D03*
D32*
X121666000Y-97917000D03*
D33*
X124206000Y-97917000D03*
X126746000Y-97917000D03*
D34*
X150453500Y-104432500D03*
X149410400Y-101261400D03*
X139628100Y-94550700D03*
X163247000Y-94685500D03*
X132952600Y-89032900D03*
X161266600Y-97001200D03*
X172090700Y-95046800D03*
X174290500Y-88540500D03*
X119888000Y-84455000D03*
X122428000Y-84455000D03*
X124968000Y-84455000D03*
X127508000Y-84455000D03*
X119888000Y-86995000D03*
X122428000Y-86995000D03*
X124968000Y-86995000D03*
X127508000Y-86995000D03*
X119888000Y-89535000D03*
X122428000Y-89535000D03*
X124968000Y-89535000D03*
X127508000Y-89535000D03*
X119888000Y-92075000D03*
X122428000Y-92075000D03*
X124968000Y-92075000D03*
X127508000Y-92075000D03*
X121158000Y-85725000D03*
X123698000Y-85725000D03*
X126238000Y-85725000D03*
X128778000Y-85725000D03*
X121158000Y-88265000D03*
X123698000Y-88265000D03*
X126238000Y-88265000D03*
X128778000Y-88265000D03*
X121158000Y-90805000D03*
X123698000Y-90805000D03*
X126238000Y-90805000D03*
X128778000Y-90805000D03*
X121158000Y-93345000D03*
X123698000Y-93345000D03*
X126238000Y-93345000D03*
X128778000Y-93345000D03*
X132991600Y-105217100D03*
X171359500Y-94384000D03*
X130705600Y-91322900D03*
X167453200Y-81370500D03*
D35*
X150453500Y-104432500D02*
X150342300Y-104432500D01*
X150342300Y-104432500D02*
X147828000Y-106946800D01*
X147828000Y-106946800D02*
X147828000Y-107916400D01*
X147828000Y-107916400D02*
X144018000Y-111726400D01*
X144018000Y-111726400D02*
X144018000Y-123825000D01*
X172466000Y-90533300D02*
X172466000Y-92220000D01*
X172466000Y-92220000D02*
X169595300Y-95090700D01*
X169595300Y-95090700D02*
X169228000Y-95090700D01*
X172466000Y-89408000D02*
X172466000Y-90533300D01*
X169418000Y-99695000D02*
X168292700Y-99695000D01*
X165758000Y-96575000D02*
X168292700Y-99109700D01*
X168292700Y-99109700D02*
X168292700Y-99695000D01*
X169228000Y-96266000D02*
X169228000Y-95090700D01*
X177165000Y-94709700D02*
X174680700Y-92225400D01*
X174680700Y-92225400D02*
X174680700Y-89034700D01*
X174680700Y-89034700D02*
X174915800Y-88799600D01*
X174915800Y-88799600D02*
X174915800Y-81697800D01*
X174915800Y-81697800D02*
X172466000Y-79248000D01*
X177175000Y-110363000D02*
X177175000Y-109187700D01*
X177175000Y-109187700D02*
X177542300Y-109187700D01*
X177542300Y-109187700D02*
X178353700Y-108376300D01*
X178353700Y-108376300D02*
X178353700Y-97881700D01*
X178353700Y-97881700D02*
X177532300Y-97060300D01*
X177532300Y-97060300D02*
X177165000Y-97060300D01*
X173355000Y-115506000D02*
X177175000Y-111686000D01*
X177175000Y-111686000D02*
X177175000Y-110363000D01*
X177165000Y-95885000D02*
X177165000Y-97060300D01*
X154178000Y-99695000D02*
X154178000Y-100820300D01*
X154178000Y-100820300D02*
X155304100Y-101946400D01*
X155304100Y-101946400D02*
X155304100Y-117111900D01*
X155304100Y-117111900D02*
X153226000Y-119190000D01*
X177165000Y-95885000D02*
X177165000Y-94709700D01*
X121666000Y-97917000D02*
X121666000Y-99242300D01*
X121666000Y-99242300D02*
X120586000Y-100322300D01*
X120586000Y-100322300D02*
X120586000Y-102362000D01*
X114618000Y-107696000D02*
X119952000Y-102362000D01*
X119952000Y-102362000D02*
X120586000Y-102362000D01*
X161798000Y-123825000D02*
X161798000Y-116567300D01*
X161798000Y-116567300D02*
X156718000Y-111487300D01*
X156718000Y-111487300D02*
X156718000Y-107315000D01*
X163149100Y-123825000D02*
X163149100Y-116963300D01*
X163149100Y-116963300D02*
X159258000Y-113072200D01*
X159258000Y-113072200D02*
X159258000Y-107315000D01*
X164338000Y-123825000D02*
X163149100Y-123825000D01*
X161798000Y-107315000D02*
X161798000Y-108440300D01*
X166878000Y-123825000D02*
X165689100Y-123825000D01*
X165689100Y-123825000D02*
X165689100Y-122636100D01*
X165689100Y-122636100D02*
X163887600Y-120834600D01*
X163887600Y-120834600D02*
X163887600Y-110529900D01*
X163887600Y-110529900D02*
X161798000Y-108440300D01*
X168229100Y-123825000D02*
X168229100Y-121362300D01*
X168229100Y-121362300D02*
X164338000Y-117471200D01*
X164338000Y-117471200D02*
X164338000Y-107315000D01*
X169418000Y-123825000D02*
X168229100Y-123825000D01*
X134874000Y-75565000D02*
X136062900Y-75565000D01*
X149410400Y-101261400D02*
X149410400Y-102355100D01*
X149410400Y-102355100D02*
X151638000Y-104582700D01*
X151638000Y-104582700D02*
X151638000Y-107315000D01*
X136062900Y-75565000D02*
X136062900Y-76085100D01*
X136062900Y-76085100D02*
X137622600Y-77644800D01*
X137622600Y-77644800D02*
X141280500Y-77644800D01*
X141280500Y-77644800D02*
X142864600Y-79228900D01*
X142864600Y-79228900D02*
X142864600Y-87220400D01*
X142864600Y-87220400D02*
X139628100Y-90456900D01*
X139628100Y-90456900D02*
X139628100Y-94550700D01*
X132334000Y-75565000D02*
X132334000Y-76906300D01*
X166878000Y-107315000D02*
X166878000Y-106189700D01*
X166878000Y-106189700D02*
X163158900Y-102470600D01*
X163158900Y-102470600D02*
X163158900Y-94773600D01*
X163158900Y-94773600D02*
X163247000Y-94685500D01*
X132334000Y-76906300D02*
X132952600Y-77524900D01*
X132952600Y-77524900D02*
X132952600Y-89032900D01*
X170769100Y-123825000D02*
X170769100Y-121999200D01*
X170769100Y-121999200D02*
X166878000Y-118108100D01*
X166878000Y-118108100D02*
X166878000Y-107315000D01*
X171958000Y-123825000D02*
X170769100Y-123825000D01*
X169418000Y-107315000D02*
X169418000Y-117076800D01*
X169418000Y-117076800D02*
X174498000Y-122156800D01*
X174498000Y-122156800D02*
X174498000Y-123825000D01*
X136398000Y-106189700D02*
X135272700Y-105064400D01*
X135272700Y-105064400D02*
X135272700Y-99173400D01*
X135272700Y-99173400D02*
X138552100Y-95894000D01*
X138552100Y-95894000D02*
X141826000Y-95894000D01*
X141826000Y-95894000D02*
X144142900Y-93577100D01*
X144142900Y-93577100D02*
X144142900Y-90400400D01*
X144142900Y-90400400D02*
X147294000Y-87249300D01*
X147294000Y-87249300D02*
X147294000Y-78385000D01*
X147294000Y-78385000D02*
X148925100Y-76753900D01*
X148925100Y-76753900D02*
X148925100Y-75565000D01*
X136398000Y-107315000D02*
X136398000Y-106189700D01*
X150114000Y-75565000D02*
X148925100Y-75565000D01*
X137523300Y-99695000D02*
X137523300Y-99484000D01*
X137523300Y-99484000D02*
X140495100Y-96512200D01*
X140495100Y-96512200D02*
X141844700Y-96512200D01*
X141844700Y-96512200D02*
X144593200Y-93763700D01*
X144593200Y-93763700D02*
X144593200Y-90587000D01*
X144593200Y-90587000D02*
X148671600Y-86508600D01*
X148671600Y-86508600D02*
X148671600Y-79547400D01*
X148671600Y-79547400D02*
X151465100Y-76753900D01*
X151465100Y-76753900D02*
X151465100Y-75565000D01*
X136398000Y-99695000D02*
X137523300Y-99695000D01*
X152654000Y-75565000D02*
X151465100Y-75565000D01*
X156718000Y-75565000D02*
X155529100Y-75565000D01*
X138938000Y-99695000D02*
X140063300Y-99695000D01*
X140063300Y-99695000D02*
X140063300Y-98936600D01*
X140063300Y-98936600D02*
X145719000Y-93280900D01*
X145719000Y-93280900D02*
X145719000Y-90098100D01*
X145719000Y-90098100D02*
X149995700Y-85821400D01*
X149995700Y-85821400D02*
X149995700Y-81098400D01*
X149995700Y-81098400D02*
X155529100Y-75565000D01*
X141478000Y-99695000D02*
X141478000Y-98165000D01*
X141478000Y-98165000D02*
X146169300Y-93473700D01*
X146169300Y-93473700D02*
X146169300Y-90284700D01*
X146169300Y-90284700D02*
X150896400Y-85557600D01*
X150896400Y-85557600D02*
X150896400Y-82915000D01*
X150896400Y-82915000D02*
X155682700Y-78128700D01*
X155682700Y-78128700D02*
X156062000Y-78128700D01*
X156062000Y-78128700D02*
X158069100Y-76121600D01*
X158069100Y-76121600D02*
X158069100Y-75565000D01*
X159258000Y-75565000D02*
X158069100Y-75565000D01*
X144018000Y-98569700D02*
X144018000Y-96261900D01*
X144018000Y-96261900D02*
X146619600Y-93660300D01*
X146619600Y-93660300D02*
X146619600Y-90471300D01*
X146619600Y-90471300D02*
X157647400Y-79443500D01*
X157647400Y-79443500D02*
X157647400Y-79178500D01*
X157647400Y-79178500D02*
X160609100Y-76216800D01*
X160609100Y-76216800D02*
X160609100Y-75565000D01*
X144018000Y-99695000D02*
X144018000Y-98569700D01*
X161798000Y-75565000D02*
X160609100Y-75565000D01*
X156718000Y-99695000D02*
X156718000Y-98569700D01*
X164338000Y-75565000D02*
X163149100Y-75565000D01*
X163149100Y-75565000D02*
X163149100Y-76753900D01*
X163149100Y-76753900D02*
X160601700Y-79301300D01*
X160601700Y-79301300D02*
X160601700Y-85333600D01*
X160601700Y-85333600D02*
X158107800Y-87827500D01*
X158107800Y-87827500D02*
X158107800Y-89871500D01*
X158107800Y-89871500D02*
X158769700Y-90533400D01*
X158769700Y-90533400D02*
X159682400Y-90533400D01*
X159682400Y-90533400D02*
X160601900Y-91452900D01*
X160601900Y-91452900D02*
X160601900Y-92618400D01*
X160601900Y-92618400D02*
X157100400Y-96119900D01*
X157100400Y-96119900D02*
X157100400Y-98187300D01*
X157100400Y-98187300D02*
X156718000Y-98569700D01*
X161266600Y-97001200D02*
X161502500Y-96765300D01*
X161502500Y-96765300D02*
X161502500Y-90854600D01*
X161502500Y-90854600D02*
X161384500Y-90736600D01*
X161384500Y-90736600D02*
X161384500Y-82773100D01*
X161384500Y-82773100D02*
X164495700Y-79661900D01*
X164495700Y-79661900D02*
X164495700Y-77947300D01*
X164495700Y-77947300D02*
X165689100Y-76753900D01*
X165689100Y-76753900D02*
X165689100Y-75565000D01*
X166878000Y-75565000D02*
X165689100Y-75565000D01*
X161798000Y-99695000D02*
X161798000Y-98569700D01*
X169418000Y-75565000D02*
X169418000Y-77278600D01*
X169418000Y-77278600D02*
X163887600Y-82809000D01*
X163887600Y-82809000D02*
X163887600Y-93113000D01*
X163887600Y-93113000D02*
X162264300Y-94736300D01*
X162264300Y-94736300D02*
X162264300Y-98103400D01*
X162264300Y-98103400D02*
X161798000Y-98569700D01*
X164338000Y-98569700D02*
X164338000Y-83601100D01*
X164338000Y-83601100D02*
X168691100Y-79248000D01*
X168691100Y-79248000D02*
X169162000Y-79248000D01*
X164338000Y-99695000D02*
X164338000Y-98569700D01*
X171958000Y-76906300D02*
X171503700Y-76906300D01*
X171503700Y-76906300D02*
X169162000Y-79248000D01*
X171958000Y-75565000D02*
X171958000Y-76906300D01*
X141732000Y-90551000D02*
X141732000Y-89061300D01*
X141732000Y-89061300D02*
X143315000Y-87478300D01*
X143315000Y-87478300D02*
X143315000Y-78754000D01*
X143315000Y-78754000D02*
X141142900Y-76581900D01*
X141142900Y-76581900D02*
X141142900Y-75565000D01*
X139954000Y-75565000D02*
X141142900Y-75565000D01*
X174625000Y-97249700D02*
X173816900Y-97249700D01*
X173816900Y-97249700D02*
X172090800Y-95523600D01*
X172090800Y-95523600D02*
X172090800Y-95046800D01*
X172090800Y-95046800D02*
X172090700Y-95046800D01*
X174625000Y-98425000D02*
X174625000Y-97249700D01*
X137812700Y-107315000D02*
X137812700Y-107552100D01*
X137812700Y-107552100D02*
X136924500Y-108440300D01*
X136924500Y-108440300D02*
X135931800Y-108440300D01*
X135931800Y-108440300D02*
X134772200Y-107280700D01*
X134772200Y-107280700D02*
X134772200Y-99037000D01*
X134772200Y-99037000D02*
X138633200Y-95176000D01*
X138633200Y-95176000D02*
X141907100Y-95176000D01*
X141907100Y-95176000D02*
X143692600Y-93390500D01*
X143692600Y-93390500D02*
X143692600Y-90213800D01*
X143692600Y-90213800D02*
X146843700Y-87062700D01*
X146843700Y-87062700D02*
X146843700Y-77636600D01*
X146843700Y-77636600D02*
X147574000Y-76906300D01*
X147574000Y-75565000D02*
X147574000Y-76906300D01*
X138938000Y-107315000D02*
X137812700Y-107315000D01*
X142494000Y-75565000D02*
X143682900Y-75565000D01*
X174625000Y-95885000D02*
X174625000Y-94709700D01*
X174625000Y-94709700D02*
X173665100Y-93749800D01*
X173665100Y-93749800D02*
X173665100Y-83212800D01*
X173665100Y-83212800D02*
X171334300Y-80882000D01*
X171334300Y-80882000D02*
X171334300Y-78252300D01*
X171334300Y-78252300D02*
X173153600Y-76433000D01*
X173153600Y-76433000D02*
X173153600Y-74908000D01*
X173153600Y-74908000D02*
X172450400Y-74204800D01*
X172450400Y-74204800D02*
X144523000Y-74204800D01*
X144523000Y-74204800D02*
X143682900Y-75044900D01*
X143682900Y-75044900D02*
X143682900Y-75565000D01*
X177165000Y-98425000D02*
X175800400Y-97060400D01*
X175800400Y-97060400D02*
X175800400Y-94840400D01*
X175800400Y-94840400D02*
X174230300Y-93270300D01*
X174230300Y-93270300D02*
X174230300Y-88600700D01*
X174230300Y-88600700D02*
X174290500Y-88540500D01*
X159258000Y-92075000D02*
X155728000Y-88545000D01*
X155728000Y-88545000D02*
X155728000Y-86741000D01*
X159258000Y-92075000D02*
X155598000Y-95735000D01*
X155598000Y-95735000D02*
X155598000Y-96202500D01*
X148344300Y-119190000D02*
X151638000Y-122483700D01*
X147034000Y-119190000D02*
X148344300Y-119190000D01*
X153226000Y-111690000D02*
X148344300Y-116571700D01*
X148344300Y-116571700D02*
X148344300Y-119190000D01*
X154178000Y-107315000D02*
X154178000Y-110738000D01*
X154178000Y-110738000D02*
X153226000Y-111690000D01*
X151638000Y-123825000D02*
X151638000Y-122483700D01*
X177175000Y-105283000D02*
X177175000Y-104107700D01*
X177175000Y-104107700D02*
X177165000Y-104097700D01*
X177165000Y-104097700D02*
X177165000Y-100965000D01*
X151638000Y-100820300D02*
X151638000Y-103649700D01*
X151638000Y-103649700D02*
X154178000Y-106189700D01*
X128086000Y-107924000D02*
X129858000Y-109696000D01*
X128086000Y-102362000D02*
X128086000Y-107924000D01*
X128086000Y-107924000D02*
X122260000Y-107924000D01*
X122260000Y-107924000D02*
X122238000Y-107946000D01*
X115539000Y-118745000D02*
X115539000Y-120445000D01*
X115539000Y-120445000D02*
X118539000Y-123445000D01*
X114618000Y-109696000D02*
X114618000Y-117824000D01*
X114618000Y-117824000D02*
X115539000Y-118745000D01*
X114962700Y-109351300D02*
X113682600Y-108071300D01*
X113682600Y-108071300D02*
X113682600Y-102169400D01*
X113682600Y-102169400D02*
X114150000Y-101702000D01*
X114962700Y-109351300D02*
X116368000Y-107946000D01*
X116368000Y-107946000D02*
X122238000Y-107946000D01*
X114618000Y-109696000D02*
X114962700Y-109351300D01*
X154178000Y-107315000D02*
X154178000Y-106189700D01*
X129540000Y-123825000D02*
X129540000Y-122599700D01*
X129540000Y-122599700D02*
X131572000Y-120567700D01*
X131572000Y-120567700D02*
X131572000Y-113856000D01*
X151638000Y-99695000D02*
X151638000Y-100820300D01*
X124206000Y-97917000D02*
X128086000Y-101797000D01*
X128086000Y-101797000D02*
X128086000Y-102362000D01*
X140843000Y-119190000D02*
X142748000Y-121095000D01*
X142748000Y-121095000D02*
X142748000Y-124440500D01*
X142748000Y-124440500D02*
X143506000Y-125198500D01*
X143506000Y-125198500D02*
X174973000Y-125198500D01*
X174973000Y-125198500D02*
X175698600Y-124472900D01*
X175698600Y-124472900D02*
X175698600Y-122083700D01*
X175698600Y-122083700D02*
X171801000Y-118186100D01*
X171801000Y-118186100D02*
X171801000Y-114158400D01*
X171801000Y-114158400D02*
X171940400Y-114019000D01*
X171940400Y-114019000D02*
X171940400Y-99492400D01*
X171940400Y-99492400D02*
X170138100Y-97690100D01*
X170138100Y-97690100D02*
X168447700Y-97690100D01*
X168447700Y-97690100D02*
X168009300Y-97251700D01*
X168009300Y-97251700D02*
X168009300Y-94944700D01*
X168009300Y-94944700D02*
X169228000Y-93726000D01*
X140843000Y-111690000D02*
X138522600Y-111690000D01*
X138522600Y-111690000D02*
X134321800Y-107489200D01*
X134321800Y-107489200D02*
X134321800Y-106547300D01*
X134321800Y-106547300D02*
X132991600Y-105217100D01*
X149098000Y-99695000D02*
X150223300Y-99695000D01*
X153098000Y-96202500D02*
X150223300Y-99077200D01*
X150223300Y-99077200D02*
X150223300Y-99695000D01*
X148209000Y-96202500D02*
X146558000Y-97853500D01*
X146558000Y-97853500D02*
X146558000Y-98569700D01*
X148218000Y-91441000D02*
X148218000Y-96193500D01*
X148218000Y-96193500D02*
X148209000Y-96202500D01*
X146558000Y-99695000D02*
X146558000Y-98569700D01*
X149098000Y-107315000D02*
X149098000Y-108440300D01*
X147034000Y-111690000D02*
X147034000Y-110504300D01*
X147034000Y-110504300D02*
X149098000Y-108440300D01*
X159248000Y-79248000D02*
X159248000Y-81573600D01*
X159248000Y-81573600D02*
X154519000Y-86302600D01*
X154519000Y-86302600D02*
X154519000Y-92679300D01*
X154519000Y-92679300D02*
X147828000Y-99370300D01*
X147828000Y-99370300D02*
X147828000Y-100128500D01*
X147828000Y-100128500D02*
X145288000Y-102668500D01*
X145288000Y-102668500D02*
X145288000Y-109819500D01*
X145288000Y-109819500D02*
X139725900Y-115381600D01*
X139725900Y-115381600D02*
X135580600Y-115381600D01*
X135580600Y-115381600D02*
X134112000Y-113913000D01*
X134112000Y-113913000D02*
X134112000Y-113856000D01*
X160655000Y-109757700D02*
X160601900Y-109704600D01*
X160601900Y-109704600D02*
X160601900Y-93255400D01*
X160601900Y-93255400D02*
X161052200Y-92805100D01*
X161052200Y-92805100D02*
X161052200Y-91212200D01*
X161052200Y-91212200D02*
X159248000Y-89408000D01*
X160655000Y-110883000D02*
X160655000Y-109757700D01*
X131572000Y-79692500D02*
X131054700Y-79175200D01*
X131054700Y-79175200D02*
X122554600Y-79175200D01*
X122554600Y-79175200D02*
X117214600Y-84515200D01*
X117214600Y-84515200D02*
X117214600Y-87557400D01*
X117214600Y-87557400D02*
X115570000Y-89202000D01*
X141732000Y-86741000D02*
X140606700Y-86741000D01*
X140606700Y-86741000D02*
X140606700Y-86776300D01*
X140606700Y-86776300D02*
X136832000Y-90551000D01*
X131931000Y-90551000D02*
X132318900Y-90551000D01*
X132318900Y-90551000D02*
X141732000Y-81137900D01*
X141732000Y-81137900D02*
X141732000Y-80817800D01*
X141732000Y-79692500D02*
X141732000Y-80817800D01*
X155728000Y-83216800D02*
X154602700Y-83216800D01*
X154602700Y-83216800D02*
X147083600Y-90735900D01*
X147083600Y-90735900D02*
X147083600Y-96423900D01*
X147083600Y-96423900D02*
X145288000Y-98219500D01*
X145288000Y-98219500D02*
X145288000Y-100820400D01*
X145288000Y-100820400D02*
X142863300Y-103245100D01*
X142863300Y-103245100D02*
X142863300Y-111544200D01*
X142863300Y-111544200D02*
X139476200Y-114931300D01*
X139476200Y-114931300D02*
X135767200Y-114931300D01*
X135767200Y-114931300D02*
X135576700Y-114740800D01*
X135576700Y-114740800D02*
X135576700Y-113752900D01*
X135576700Y-113752900D02*
X134597500Y-112773700D01*
X134597500Y-112773700D02*
X133607000Y-112773700D01*
X133607000Y-112773700D02*
X133033300Y-113347400D01*
X133033300Y-113347400D02*
X133033300Y-122871700D01*
X133033300Y-122871700D02*
X132080000Y-123825000D01*
X141732000Y-91865700D02*
X142191500Y-91865700D01*
X142191500Y-91865700D02*
X143225100Y-90832100D01*
X143225100Y-90832100D02*
X143225100Y-89083900D01*
X143225100Y-89083900D02*
X145568000Y-86741000D01*
X141732000Y-93091000D02*
X141732000Y-91865700D01*
X177175000Y-107823000D02*
X177175000Y-106647700D01*
X171359500Y-94384000D02*
X171359500Y-95535000D01*
X171359500Y-95535000D02*
X172760900Y-96936400D01*
X172760900Y-96936400D02*
X172760900Y-103041600D01*
X172760900Y-103041600D02*
X176367000Y-106647700D01*
X176367000Y-106647700D02*
X177175000Y-106647700D01*
X162552000Y-89408000D02*
X162552000Y-82553000D01*
X162552000Y-82553000D02*
X165857000Y-79248000D01*
X129482400Y-94567800D02*
X130791800Y-95877200D01*
X130791800Y-95877200D02*
X130791800Y-111274900D01*
X130791800Y-111274900D02*
X129286000Y-112780700D01*
X131572000Y-86741000D02*
X129736100Y-88576900D01*
X129736100Y-88576900D02*
X129736100Y-94314100D01*
X129736100Y-94314100D02*
X129482400Y-94567800D01*
X129286000Y-113856000D02*
X129286000Y-112780700D01*
X129482400Y-94567800D02*
X118165800Y-94567800D01*
X118165800Y-94567800D02*
X115570000Y-91972000D01*
X141732000Y-84342100D02*
X141169400Y-84342100D01*
X141169400Y-84342100D02*
X133156300Y-92355200D01*
X133156300Y-92355200D02*
X133156300Y-104168100D01*
X133156300Y-104168100D02*
X132366300Y-104958100D01*
X132366300Y-104958100D02*
X132366300Y-105476100D01*
X132366300Y-105476100D02*
X132753600Y-105863400D01*
X132753600Y-105863400D02*
X132753700Y-105863400D01*
X132753700Y-105863400D02*
X132753700Y-108882400D01*
X132753700Y-108882400D02*
X136652000Y-112780700D01*
X136652000Y-113856000D02*
X136652000Y-112780700D01*
X141732000Y-83216800D02*
X141732000Y-84342100D01*
X126746000Y-113856000D02*
X127822400Y-114932400D01*
X127822400Y-114932400D02*
X130170900Y-114932400D01*
X130170900Y-114932400D02*
X130361400Y-114741900D01*
X130361400Y-114741900D02*
X130361400Y-113366400D01*
X130361400Y-113366400D02*
X131286000Y-112441800D01*
X131286000Y-112441800D02*
X131286000Y-95413600D01*
X131286000Y-95413600D02*
X130705600Y-94833200D01*
X130705600Y-94833200D02*
X130705600Y-91322900D01*
X170815000Y-110883000D02*
X170815000Y-99003900D01*
X170815000Y-99003900D02*
X170176500Y-98365400D01*
X170176500Y-98365400D02*
X168474200Y-98365400D01*
X168474200Y-98365400D02*
X167453200Y-97344400D01*
X167453200Y-97344400D02*
X167453200Y-81370500D01*
D36*
G36*
X124166406Y-73864887D02*
G01*
X123874536Y-74301702D01*
X123673492Y-74787065D01*
X123571000Y-75302323D01*
X123571000Y-75827677D01*
X123673492Y-76342935D01*
X123874536Y-76828298D01*
X124166406Y-77265113D01*
X124537887Y-77636594D01*
X124974702Y-77928464D01*
X125460065Y-78129508D01*
X125975323Y-78232000D01*
X126500677Y-78232000D01*
X127015935Y-78129508D01*
X127501298Y-77928464D01*
X127938113Y-77636594D01*
X128309594Y-77265113D01*
X128601464Y-76828298D01*
X128657001Y-76694219D01*
X128729203Y-76782197D01*
X128957395Y-76969469D01*
X129217737Y-77108625D01*
X129500224Y-77194316D01*
X129794000Y-77223251D01*
X130087777Y-77194316D01*
X130370264Y-77108625D01*
X130630606Y-76969469D01*
X130858797Y-76782197D01*
X131046069Y-76554006D01*
X131064000Y-76520459D01*
X131081931Y-76554006D01*
X131269203Y-76782197D01*
X131497395Y-76969469D01*
X131580944Y-77014127D01*
X131584998Y-77055286D01*
X131597530Y-77096599D01*
X131628454Y-77198546D01*
X131699026Y-77330576D01*
X131761992Y-77407299D01*
X131794000Y-77446301D01*
X131822998Y-77470099D01*
X132192600Y-77839702D01*
X132192600Y-78396329D01*
X131990574Y-78312647D01*
X131713335Y-78257500D01*
X131430665Y-78257500D01*
X131153426Y-78312647D01*
X130905841Y-78415200D01*
X122591922Y-78415200D01*
X122554599Y-78411524D01*
X122517276Y-78415200D01*
X122517267Y-78415200D01*
X122405614Y-78426197D01*
X122262353Y-78469654D01*
X122130324Y-78540226D01*
X122130322Y-78540227D01*
X122130323Y-78540227D01*
X122043596Y-78611401D01*
X122043592Y-78611405D01*
X122014599Y-78635199D01*
X121990805Y-78664192D01*
X117007454Y-83647545D01*
X117010217Y-83591488D01*
X116968787Y-83311870D01*
X116873603Y-83045708D01*
X116806671Y-82920486D01*
X116562702Y-82848903D01*
X115749605Y-83662000D01*
X115763748Y-83676143D01*
X115584143Y-83855748D01*
X115570000Y-83841605D01*
X114756903Y-84654702D01*
X114828486Y-84898671D01*
X115083996Y-85019571D01*
X115186289Y-85045212D01*
X115151426Y-85052147D01*
X114890273Y-85160320D01*
X114655241Y-85317363D01*
X114455363Y-85517241D01*
X114298320Y-85752273D01*
X114190147Y-86013426D01*
X114135000Y-86290665D01*
X114135000Y-86573335D01*
X114190147Y-86850574D01*
X114298320Y-87111727D01*
X114455363Y-87346759D01*
X114655241Y-87546637D01*
X114890273Y-87703680D01*
X115151426Y-87811853D01*
X115177301Y-87817000D01*
X115151426Y-87822147D01*
X114890273Y-87930320D01*
X114655241Y-88087363D01*
X114455363Y-88287241D01*
X114298320Y-88522273D01*
X114190147Y-88783426D01*
X114135000Y-89060665D01*
X114135000Y-89343335D01*
X114190147Y-89620574D01*
X114298320Y-89881727D01*
X114455363Y-90116759D01*
X114655241Y-90316637D01*
X114890273Y-90473680D01*
X115151426Y-90581853D01*
X115177301Y-90587000D01*
X115151426Y-90592147D01*
X114890273Y-90700320D01*
X114655241Y-90857363D01*
X114455363Y-91057241D01*
X114298320Y-91292273D01*
X114190147Y-91553426D01*
X114135000Y-91830665D01*
X114135000Y-92113335D01*
X114190147Y-92390574D01*
X114298320Y-92651727D01*
X114455363Y-92886759D01*
X114655241Y-93086637D01*
X114890273Y-93243680D01*
X115035725Y-93303928D01*
X114770000Y-93303928D01*
X114645518Y-93316188D01*
X114525820Y-93352498D01*
X114415506Y-93411463D01*
X114318815Y-93490815D01*
X114239463Y-93587506D01*
X114180498Y-93697820D01*
X114144188Y-93817518D01*
X114131928Y-93942000D01*
X114131928Y-95542000D01*
X114144188Y-95666482D01*
X114180498Y-95786180D01*
X114239463Y-95896494D01*
X114318815Y-95993185D01*
X114415506Y-96072537D01*
X114525820Y-96131502D01*
X114645518Y-96167812D01*
X114770000Y-96180072D01*
X116370000Y-96180072D01*
X116494482Y-96167812D01*
X116614180Y-96131502D01*
X116724494Y-96072537D01*
X116821185Y-95993185D01*
X116900537Y-95896494D01*
X116959502Y-95786180D01*
X116995812Y-95666482D01*
X117008072Y-95542000D01*
X117008072Y-94484874D01*
X117602000Y-95078802D01*
X117625799Y-95107801D01*
X117671124Y-95144998D01*
X117741524Y-95202774D01*
X117873553Y-95273346D01*
X118016814Y-95316803D01*
X118165800Y-95331477D01*
X118203133Y-95327800D01*
X129167599Y-95327800D01*
X130031800Y-96192002D01*
X130031801Y-106471376D01*
X129979637Y-106461000D01*
X129736363Y-106461000D01*
X129497764Y-106508460D01*
X129273008Y-106601557D01*
X129070733Y-106736713D01*
X128898713Y-106908733D01*
X128763557Y-107111008D01*
X128670460Y-107335764D01*
X128623000Y-107574363D01*
X128623000Y-107817637D01*
X128670460Y-108056236D01*
X128763557Y-108280992D01*
X128898713Y-108483267D01*
X129070733Y-108655287D01*
X129208733Y-108747496D01*
X129187841Y-108846236D01*
X129858000Y-109516395D01*
X129872143Y-109502253D01*
X130031801Y-109661911D01*
X130031801Y-109730089D01*
X129872143Y-109889748D01*
X129858000Y-109875605D01*
X129187841Y-110545764D01*
X129235148Y-110769348D01*
X129456516Y-110870237D01*
X129693313Y-110926000D01*
X129936438Y-110934495D01*
X130031801Y-110918966D01*
X130031801Y-110960097D01*
X128774998Y-112216901D01*
X128746000Y-112240699D01*
X128722202Y-112269697D01*
X128722201Y-112269698D01*
X128651026Y-112356424D01*
X128591425Y-112467928D01*
X128536000Y-112467928D01*
X128411518Y-112480188D01*
X128291820Y-112516498D01*
X128181506Y-112575463D01*
X128084815Y-112654815D01*
X128005463Y-112751506D01*
X127946498Y-112861820D01*
X127910188Y-112981518D01*
X127899555Y-113089483D01*
X127821799Y-112973114D01*
X127628886Y-112780201D01*
X127402043Y-112628629D01*
X127149989Y-112524225D01*
X126882411Y-112471000D01*
X126609589Y-112471000D01*
X126342011Y-112524225D01*
X126089957Y-112628629D01*
X125863114Y-112780201D01*
X125670201Y-112973114D01*
X125518629Y-113199957D01*
X125476000Y-113302873D01*
X125433371Y-113199957D01*
X125281799Y-112973114D01*
X125088886Y-112780201D01*
X124862043Y-112628629D01*
X124609989Y-112524225D01*
X124342411Y-112471000D01*
X124069589Y-112471000D01*
X123802011Y-112524225D01*
X123549957Y-112628629D01*
X123323114Y-112780201D01*
X123130201Y-112973114D01*
X122978629Y-113199957D01*
X122874225Y-113452011D01*
X122821000Y-113719589D01*
X122821000Y-113992411D01*
X122874225Y-114259989D01*
X122978629Y-114512043D01*
X123130201Y-114738886D01*
X123323114Y-114931799D01*
X123549957Y-115083371D01*
X123802011Y-115187775D01*
X124069589Y-115241000D01*
X124342411Y-115241000D01*
X124609989Y-115187775D01*
X124862043Y-115083371D01*
X125088886Y-114931799D01*
X125281799Y-114738886D01*
X125433371Y-114512043D01*
X125476000Y-114409127D01*
X125518629Y-114512043D01*
X125670201Y-114738886D01*
X125863114Y-114931799D01*
X126089957Y-115083371D01*
X126342011Y-115187775D01*
X126609589Y-115241000D01*
X126882411Y-115241000D01*
X127027364Y-115212167D01*
X127258605Y-115443408D01*
X127282399Y-115472401D01*
X127311392Y-115496195D01*
X127311396Y-115496199D01*
X127382085Y-115554211D01*
X127398124Y-115567374D01*
X127530153Y-115637946D01*
X127673414Y-115681403D01*
X127785067Y-115692400D01*
X127785076Y-115692400D01*
X127822399Y-115696076D01*
X127859722Y-115692400D01*
X130133578Y-115692400D01*
X130170900Y-115696076D01*
X130208222Y-115692400D01*
X130208233Y-115692400D01*
X130319886Y-115681403D01*
X130463147Y-115637946D01*
X130595176Y-115567374D01*
X130710901Y-115472401D01*
X130734704Y-115443397D01*
X130872398Y-115305703D01*
X130901401Y-115281901D01*
X130996374Y-115166176D01*
X131017905Y-115125896D01*
X131107116Y-115167760D01*
X131371960Y-115233250D01*
X131644492Y-115245812D01*
X131914238Y-115204965D01*
X132170832Y-115112277D01*
X132273300Y-115057506D01*
X132273301Y-122298378D01*
X132231184Y-122290000D01*
X131928816Y-122290000D01*
X131632257Y-122348989D01*
X131352905Y-122464701D01*
X131101495Y-122632688D01*
X131035056Y-122699127D01*
X131029502Y-122680820D01*
X130970537Y-122570506D01*
X130891185Y-122473815D01*
X130794494Y-122394463D01*
X130684180Y-122335498D01*
X130564482Y-122299188D01*
X130440000Y-122286928D01*
X129825750Y-122290000D01*
X129667000Y-122448750D01*
X129667000Y-123698000D01*
X129687000Y-123698000D01*
X129687000Y-123952000D01*
X129667000Y-123952000D01*
X129667000Y-125201250D01*
X129825750Y-125360000D01*
X130440000Y-125363072D01*
X130564482Y-125350812D01*
X130684180Y-125314502D01*
X130794494Y-125255537D01*
X130891185Y-125176185D01*
X130970537Y-125079494D01*
X131029502Y-124969180D01*
X131035056Y-124950873D01*
X131101495Y-125017312D01*
X131352905Y-125185299D01*
X131632257Y-125301011D01*
X131928816Y-125360000D01*
X132231184Y-125360000D01*
X132527743Y-125301011D01*
X132807095Y-125185299D01*
X133058505Y-125017312D01*
X133272312Y-124803505D01*
X133440299Y-124552095D01*
X133556011Y-124272743D01*
X133615000Y-123976184D01*
X133615000Y-123673816D01*
X133564327Y-123419066D01*
X133573301Y-123411701D01*
X133668274Y-123295976D01*
X133738846Y-123163947D01*
X133782303Y-123020686D01*
X133793300Y-122909033D01*
X133793300Y-122909025D01*
X133796976Y-122871700D01*
X133793300Y-122834375D01*
X133793300Y-118661000D01*
X134156928Y-118661000D01*
X134156928Y-120861000D01*
X134169188Y-120985482D01*
X134205498Y-121105180D01*
X134264463Y-121215494D01*
X134343815Y-121312185D01*
X134440506Y-121391537D01*
X134550820Y-121450502D01*
X134670518Y-121486812D01*
X134795000Y-121499072D01*
X136995000Y-121499072D01*
X137119482Y-121486812D01*
X137239180Y-121450502D01*
X137349494Y-121391537D01*
X137446185Y-121312185D01*
X137525537Y-121215494D01*
X137584502Y-121105180D01*
X137620812Y-120985482D01*
X137633072Y-120861000D01*
X137633072Y-118661000D01*
X137620812Y-118536518D01*
X137584502Y-118416820D01*
X137525537Y-118306506D01*
X137446185Y-118209815D01*
X137349494Y-118130463D01*
X137239180Y-118071498D01*
X137119482Y-118035188D01*
X136995000Y-118022928D01*
X134795000Y-118022928D01*
X134670518Y-118035188D01*
X134550820Y-118071498D01*
X134440506Y-118130463D01*
X134343815Y-118209815D01*
X134264463Y-118306506D01*
X134205498Y-118416820D01*
X134169188Y-118536518D01*
X134156928Y-118661000D01*
X133793300Y-118661000D01*
X133793300Y-115204740D01*
X133975589Y-115241000D01*
X134248411Y-115241000D01*
X134345822Y-115221624D01*
X135016801Y-115892603D01*
X135040599Y-115921601D01*
X135069597Y-115945399D01*
X135156323Y-116016574D01*
X135271242Y-116078000D01*
X135288353Y-116087146D01*
X135431614Y-116130603D01*
X135543267Y-116141600D01*
X135543276Y-116141600D01*
X135580599Y-116145276D01*
X135617922Y-116141600D01*
X139688578Y-116141600D01*
X139725900Y-116145276D01*
X139763222Y-116141600D01*
X139763233Y-116141600D01*
X139874886Y-116130603D01*
X140018147Y-116087146D01*
X140150176Y-116016574D01*
X140265901Y-115921601D01*
X140289704Y-115892597D01*
X143258000Y-112924301D01*
X143258001Y-120530199D01*
X142409177Y-119681375D01*
X142415168Y-119666912D01*
X142478000Y-119351033D01*
X142478000Y-119028967D01*
X142415168Y-118713088D01*
X142291918Y-118415537D01*
X142112987Y-118147748D01*
X141885252Y-117920013D01*
X141617463Y-117741082D01*
X141319912Y-117617832D01*
X141004033Y-117555000D01*
X140681967Y-117555000D01*
X140366088Y-117617832D01*
X140068537Y-117741082D01*
X139800748Y-117920013D01*
X139573013Y-118147748D01*
X139394082Y-118415537D01*
X139270832Y-118713088D01*
X139208000Y-119028967D01*
X139208000Y-119351033D01*
X139270832Y-119666912D01*
X139394082Y-119964463D01*
X139573013Y-120232252D01*
X139800748Y-120459987D01*
X140068537Y-120638918D01*
X140366088Y-120762168D01*
X140681967Y-120825000D01*
X141004033Y-120825000D01*
X141319912Y-120762168D01*
X141334375Y-120756177D01*
X141988000Y-121409802D01*
X141988000Y-122261275D01*
X141771776Y-122195684D01*
X141478000Y-122166749D01*
X141184223Y-122195684D01*
X140901736Y-122281375D01*
X140641394Y-122420531D01*
X140413203Y-122607803D01*
X140225931Y-122835995D01*
X140208000Y-122869541D01*
X140190069Y-122835994D01*
X140002797Y-122607803D01*
X139774605Y-122420531D01*
X139514263Y-122281375D01*
X139231776Y-122195684D01*
X138938000Y-122166749D01*
X138644223Y-122195684D01*
X138361736Y-122281375D01*
X138101394Y-122420531D01*
X137873203Y-122607803D01*
X137685931Y-122835995D01*
X137546775Y-123096337D01*
X137461084Y-123378824D01*
X137439400Y-123598982D01*
X137439400Y-124051019D01*
X137461084Y-124271177D01*
X137546775Y-124553664D01*
X137685931Y-124814006D01*
X137873203Y-125042197D01*
X138101395Y-125229469D01*
X138361737Y-125368625D01*
X138644224Y-125454316D01*
X138938000Y-125483251D01*
X139231777Y-125454316D01*
X139514264Y-125368625D01*
X139774606Y-125229469D01*
X140002797Y-125042197D01*
X140190069Y-124814006D01*
X140208000Y-124780459D01*
X140225931Y-124814006D01*
X140413203Y-125042197D01*
X140641395Y-125229469D01*
X140901737Y-125368625D01*
X141184224Y-125454316D01*
X141478000Y-125483251D01*
X141771777Y-125454316D01*
X142054264Y-125368625D01*
X142314606Y-125229469D01*
X142395654Y-125162955D01*
X142887698Y-125655000D01*
X126909707Y-125655000D01*
X127039594Y-125525113D01*
X127331464Y-125088298D01*
X127481947Y-124725000D01*
X128001928Y-124725000D01*
X128014188Y-124849482D01*
X128050498Y-124969180D01*
X128109463Y-125079494D01*
X128188815Y-125176185D01*
X128285506Y-125255537D01*
X128395820Y-125314502D01*
X128515518Y-125350812D01*
X128640000Y-125363072D01*
X129254250Y-125360000D01*
X129413000Y-125201250D01*
X129413000Y-123952000D01*
X128163750Y-123952000D01*
X128005000Y-124110750D01*
X128001928Y-124725000D01*
X127481947Y-124725000D01*
X127532508Y-124602935D01*
X127635000Y-124087677D01*
X127635000Y-123562323D01*
X127532508Y-123047065D01*
X127481948Y-122925000D01*
X128001928Y-122925000D01*
X128005000Y-123539250D01*
X128163750Y-123698000D01*
X129413000Y-123698000D01*
X129413000Y-122448750D01*
X129254250Y-122290000D01*
X128640000Y-122286928D01*
X128515518Y-122299188D01*
X128395820Y-122335498D01*
X128285506Y-122394463D01*
X128188815Y-122473815D01*
X128109463Y-122570506D01*
X128050498Y-122680820D01*
X128014188Y-122800518D01*
X128001928Y-122925000D01*
X127481948Y-122925000D01*
X127331464Y-122561702D01*
X127039594Y-122124887D01*
X126668113Y-121753406D01*
X126231298Y-121461536D01*
X126178317Y-121439590D01*
X126402168Y-121371686D01*
X126703578Y-121210579D01*
X126967766Y-120993766D01*
X127184579Y-120729578D01*
X127345686Y-120428168D01*
X127444895Y-120101119D01*
X127478394Y-119761000D01*
X127444895Y-119420881D01*
X127345686Y-119093832D01*
X127184579Y-118792422D01*
X126967766Y-118528234D01*
X126703578Y-118311421D01*
X126402168Y-118150314D01*
X126075119Y-118051105D01*
X125820225Y-118026000D01*
X125649775Y-118026000D01*
X125394881Y-118051105D01*
X125067832Y-118150314D01*
X124766422Y-118311421D01*
X124502234Y-118528234D01*
X124285421Y-118792422D01*
X124124314Y-119093832D01*
X124025105Y-119420881D01*
X123991606Y-119761000D01*
X124025105Y-120101119D01*
X124124314Y-120428168D01*
X124285421Y-120729578D01*
X124502234Y-120993766D01*
X124702933Y-121158475D01*
X124190065Y-121260492D01*
X123704702Y-121461536D01*
X123267887Y-121753406D01*
X122896406Y-122124887D01*
X122604536Y-122561702D01*
X122403492Y-123047065D01*
X122301000Y-123562323D01*
X122301000Y-124087677D01*
X122403492Y-124602935D01*
X122604536Y-125088298D01*
X122896406Y-125525113D01*
X123026293Y-125655000D01*
X120729444Y-125655000D01*
X120740185Y-125646185D01*
X120819537Y-125549494D01*
X120878502Y-125439180D01*
X120914812Y-125319482D01*
X120927072Y-125195000D01*
X120924000Y-123730750D01*
X120765250Y-123572000D01*
X118666000Y-123572000D01*
X118666000Y-123592000D01*
X118412000Y-123592000D01*
X118412000Y-123572000D01*
X116312750Y-123572000D01*
X116154000Y-123730750D01*
X116150928Y-125195000D01*
X116163188Y-125319482D01*
X116199498Y-125439180D01*
X116258463Y-125549494D01*
X116337815Y-125646185D01*
X116348556Y-125655000D01*
X111708000Y-125655000D01*
X111708000Y-120495000D01*
X113400928Y-120495000D01*
X113413188Y-120619482D01*
X113449498Y-120739180D01*
X113508463Y-120849494D01*
X113587815Y-120946185D01*
X113684506Y-121025537D01*
X113794820Y-121084502D01*
X113914518Y-121120812D01*
X114039000Y-121133072D01*
X115253250Y-121130000D01*
X115412000Y-120971250D01*
X115412000Y-118872000D01*
X115666000Y-118872000D01*
X115666000Y-120971250D01*
X115824750Y-121130000D01*
X116495805Y-121131698D01*
X116434506Y-121164463D01*
X116337815Y-121243815D01*
X116258463Y-121340506D01*
X116199498Y-121450820D01*
X116163188Y-121570518D01*
X116150928Y-121695000D01*
X116154000Y-123159250D01*
X116312750Y-123318000D01*
X118412000Y-123318000D01*
X118412000Y-121218750D01*
X118666000Y-121218750D01*
X118666000Y-123318000D01*
X120765250Y-123318000D01*
X120924000Y-123159250D01*
X120927072Y-121695000D01*
X120914812Y-121570518D01*
X120878502Y-121450820D01*
X120819537Y-121340506D01*
X120740185Y-121243815D01*
X120643494Y-121164463D01*
X120584767Y-121133072D01*
X123289000Y-121133072D01*
X123413482Y-121120812D01*
X123533180Y-121084502D01*
X123643494Y-121025537D01*
X123740185Y-120946185D01*
X123819537Y-120849494D01*
X123878502Y-120739180D01*
X123914812Y-120619482D01*
X123927072Y-120495000D01*
X123927072Y-116995000D01*
X123914812Y-116870518D01*
X123878502Y-116750820D01*
X123819537Y-116640506D01*
X123740185Y-116543815D01*
X123643494Y-116464463D01*
X123533180Y-116405498D01*
X123413482Y-116369188D01*
X123289000Y-116356928D01*
X119789000Y-116356928D01*
X119664518Y-116369188D01*
X119544820Y-116405498D01*
X119434506Y-116464463D01*
X119337815Y-116543815D01*
X119258463Y-116640506D01*
X119199498Y-116750820D01*
X119163188Y-116870518D01*
X119150928Y-116995000D01*
X119150928Y-120495000D01*
X119163188Y-120619482D01*
X119199498Y-120739180D01*
X119258463Y-120849494D01*
X119337815Y-120946185D01*
X119434506Y-121025537D01*
X119496345Y-121058591D01*
X118824750Y-121060000D01*
X118666000Y-121218750D01*
X118412000Y-121218750D01*
X118253250Y-121060000D01*
X117332633Y-121058069D01*
X117393494Y-121025537D01*
X117490185Y-120946185D01*
X117569537Y-120849494D01*
X117628502Y-120739180D01*
X117664812Y-120619482D01*
X117677072Y-120495000D01*
X117674000Y-119030750D01*
X117515250Y-118872000D01*
X115666000Y-118872000D01*
X115412000Y-118872000D01*
X113562750Y-118872000D01*
X113404000Y-119030750D01*
X113400928Y-120495000D01*
X111708000Y-120495000D01*
X111708000Y-116995000D01*
X113400928Y-116995000D01*
X113404000Y-118459250D01*
X113562750Y-118618000D01*
X115412000Y-118618000D01*
X115412000Y-116518750D01*
X115666000Y-116518750D01*
X115666000Y-118618000D01*
X117515250Y-118618000D01*
X117674000Y-118459250D01*
X117677072Y-116995000D01*
X117664812Y-116870518D01*
X117628502Y-116750820D01*
X117569537Y-116640506D01*
X117490185Y-116543815D01*
X117393494Y-116464463D01*
X117283180Y-116405498D01*
X117163482Y-116369188D01*
X117039000Y-116356928D01*
X115824750Y-116360000D01*
X115666000Y-116518750D01*
X115412000Y-116518750D01*
X115253250Y-116360000D01*
X114039000Y-116356928D01*
X113914518Y-116369188D01*
X113794820Y-116405498D01*
X113684506Y-116464463D01*
X113587815Y-116543815D01*
X113508463Y-116640506D01*
X113449498Y-116750820D01*
X113413188Y-116870518D01*
X113400928Y-116995000D01*
X111708000Y-116995000D01*
X111708000Y-110545764D01*
X113947841Y-110545764D01*
X113995148Y-110769348D01*
X114216516Y-110870237D01*
X114453313Y-110926000D01*
X114696438Y-110934495D01*
X114936549Y-110895395D01*
X115164418Y-110810202D01*
X115240852Y-110769348D01*
X115288159Y-110545764D01*
X114618000Y-109875605D01*
X113947841Y-110545764D01*
X111708000Y-110545764D01*
X111708000Y-109774438D01*
X113379505Y-109774438D01*
X113418605Y-110014549D01*
X113503798Y-110242418D01*
X113544652Y-110318852D01*
X113768236Y-110366159D01*
X114438395Y-109696000D01*
X114797605Y-109696000D01*
X115467764Y-110366159D01*
X115691348Y-110318852D01*
X115792237Y-110097484D01*
X115848000Y-109860687D01*
X115856495Y-109617562D01*
X115817395Y-109377451D01*
X115732202Y-109149582D01*
X115691348Y-109073148D01*
X115467764Y-109025841D01*
X114797605Y-109696000D01*
X114438395Y-109696000D01*
X113768236Y-109025841D01*
X113544652Y-109073148D01*
X113443763Y-109294516D01*
X113388000Y-109531313D01*
X113379505Y-109774438D01*
X111708000Y-109774438D01*
X111708000Y-107574363D01*
X113383000Y-107574363D01*
X113383000Y-107817637D01*
X113430460Y-108056236D01*
X113523557Y-108280992D01*
X113658713Y-108483267D01*
X113830733Y-108655287D01*
X113968733Y-108747496D01*
X113947841Y-108846236D01*
X114618000Y-109516395D01*
X115288159Y-108846236D01*
X115267267Y-108747496D01*
X115405267Y-108655287D01*
X115577287Y-108483267D01*
X115712443Y-108280992D01*
X115805540Y-108056236D01*
X115811864Y-108024438D01*
X120999505Y-108024438D01*
X121038605Y-108264549D01*
X121123798Y-108492418D01*
X121164652Y-108568852D01*
X121332979Y-108604467D01*
X121278713Y-108658733D01*
X121143557Y-108861008D01*
X121050460Y-109085764D01*
X121003000Y-109324363D01*
X121003000Y-109567637D01*
X121050460Y-109806236D01*
X121143557Y-110030992D01*
X121278713Y-110233267D01*
X121450733Y-110405287D01*
X121653008Y-110540443D01*
X121877764Y-110633540D01*
X122116363Y-110681000D01*
X122359637Y-110681000D01*
X122598236Y-110633540D01*
X122822992Y-110540443D01*
X123025267Y-110405287D01*
X123197287Y-110233267D01*
X123332443Y-110030992D01*
X123425540Y-109806236D01*
X123431864Y-109774438D01*
X128619505Y-109774438D01*
X128658605Y-110014549D01*
X128743798Y-110242418D01*
X128784652Y-110318852D01*
X129008236Y-110366159D01*
X129678395Y-109696000D01*
X129008236Y-109025841D01*
X128784652Y-109073148D01*
X128683763Y-109294516D01*
X128628000Y-109531313D01*
X128619505Y-109774438D01*
X123431864Y-109774438D01*
X123473000Y-109567637D01*
X123473000Y-109324363D01*
X123425540Y-109085764D01*
X123332443Y-108861008D01*
X123197287Y-108658733D01*
X123143021Y-108604467D01*
X123311348Y-108568852D01*
X123412237Y-108347484D01*
X123468000Y-108110687D01*
X123476495Y-107867562D01*
X123437395Y-107627451D01*
X123352202Y-107399582D01*
X123311348Y-107323148D01*
X123087764Y-107275841D01*
X122417605Y-107946000D01*
X122431748Y-107960143D01*
X122252143Y-108139748D01*
X122238000Y-108125605D01*
X122223858Y-108139748D01*
X122044253Y-107960143D01*
X122058395Y-107946000D01*
X121388236Y-107275841D01*
X121164652Y-107323148D01*
X121063763Y-107544516D01*
X121008000Y-107781313D01*
X120999505Y-108024438D01*
X115811864Y-108024438D01*
X115853000Y-107817637D01*
X115853000Y-107574363D01*
X115846602Y-107542199D01*
X116292565Y-107096236D01*
X121567841Y-107096236D01*
X122238000Y-107766395D01*
X122908159Y-107096236D01*
X122860852Y-106872652D01*
X122639484Y-106771763D01*
X122402687Y-106716000D01*
X122159562Y-106707505D01*
X121919451Y-106746605D01*
X121691582Y-106831798D01*
X121615148Y-106872652D01*
X121567841Y-107096236D01*
X116292565Y-107096236D01*
X119671472Y-103717330D01*
X119811537Y-103810918D01*
X120109088Y-103934168D01*
X120424967Y-103997000D01*
X120747033Y-103997000D01*
X121062912Y-103934168D01*
X121360463Y-103810918D01*
X121628252Y-103631987D01*
X121762826Y-103497413D01*
X127130192Y-103497413D01*
X127225956Y-103761814D01*
X127515571Y-103902704D01*
X127827108Y-103984384D01*
X128148595Y-104003718D01*
X128467675Y-103959961D01*
X128772088Y-103854795D01*
X128946044Y-103761814D01*
X129041808Y-103497413D01*
X128086000Y-102541605D01*
X127130192Y-103497413D01*
X121762826Y-103497413D01*
X121855987Y-103404252D01*
X122034918Y-103136463D01*
X122158168Y-102838912D01*
X122221000Y-102523033D01*
X122221000Y-102424595D01*
X126444282Y-102424595D01*
X126488039Y-102743675D01*
X126593205Y-103048088D01*
X126686186Y-103222044D01*
X126950587Y-103317808D01*
X127906395Y-102362000D01*
X128265605Y-102362000D01*
X129221413Y-103317808D01*
X129485814Y-103222044D01*
X129626704Y-102932429D01*
X129708384Y-102620892D01*
X129727718Y-102299405D01*
X129683961Y-101980325D01*
X129578795Y-101675912D01*
X129485814Y-101501956D01*
X129221413Y-101406192D01*
X128265605Y-102362000D01*
X127906395Y-102362000D01*
X126950587Y-101406192D01*
X126686186Y-101501956D01*
X126545296Y-101791571D01*
X126463616Y-102103108D01*
X126444282Y-102424595D01*
X122221000Y-102424595D01*
X122221000Y-102200967D01*
X122158168Y-101885088D01*
X122034918Y-101587537D01*
X121855987Y-101319748D01*
X121762826Y-101226587D01*
X127130192Y-101226587D01*
X128086000Y-102182395D01*
X129041808Y-101226587D01*
X128946044Y-100962186D01*
X128656429Y-100821296D01*
X128344892Y-100739616D01*
X128023405Y-100720282D01*
X127704325Y-100764039D01*
X127399912Y-100869205D01*
X127225956Y-100962186D01*
X127130192Y-101226587D01*
X121762826Y-101226587D01*
X121628252Y-101092013D01*
X121360463Y-100913082D01*
X121346000Y-100907091D01*
X121346000Y-100637101D01*
X122177003Y-99806099D01*
X122206001Y-99782301D01*
X122300974Y-99666576D01*
X122360575Y-99555072D01*
X122618500Y-99555072D01*
X122742982Y-99542812D01*
X122862680Y-99506502D01*
X122972994Y-99447537D01*
X123069685Y-99368185D01*
X123149037Y-99271494D01*
X123198059Y-99179781D01*
X123339077Y-99292969D01*
X123614906Y-99436571D01*
X123833020Y-99507563D01*
X124079000Y-99387594D01*
X124079000Y-98044000D01*
X124059000Y-98044000D01*
X124059000Y-97790000D01*
X124079000Y-97790000D01*
X124079000Y-96446406D01*
X124333000Y-96446406D01*
X124333000Y-97790000D01*
X124353000Y-97790000D01*
X124353000Y-98044000D01*
X124333000Y-98044000D01*
X124333000Y-99387594D01*
X124578980Y-99507563D01*
X124797094Y-99436571D01*
X125072923Y-99292969D01*
X125315437Y-99098315D01*
X125470837Y-98913101D01*
X125618037Y-99092463D01*
X125859766Y-99290845D01*
X126135552Y-99438255D01*
X126434797Y-99529030D01*
X126746000Y-99559681D01*
X127057204Y-99529030D01*
X127356449Y-99438255D01*
X127632235Y-99290845D01*
X127873963Y-99092463D01*
X128072345Y-98850734D01*
X128219755Y-98574948D01*
X128310530Y-98275703D01*
X128333500Y-98042485D01*
X128333500Y-97791514D01*
X128310530Y-97558296D01*
X128219755Y-97259051D01*
X128072345Y-96983265D01*
X127873963Y-96741537D01*
X127632234Y-96543155D01*
X127356448Y-96395745D01*
X127057203Y-96304970D01*
X126746000Y-96274319D01*
X126434796Y-96304970D01*
X126135551Y-96395745D01*
X125859765Y-96543155D01*
X125618037Y-96741537D01*
X125470838Y-96920900D01*
X125315437Y-96735685D01*
X125072923Y-96541031D01*
X124797094Y-96397429D01*
X124578980Y-96326437D01*
X124333000Y-96446406D01*
X124079000Y-96446406D01*
X123833020Y-96326437D01*
X123614906Y-96397429D01*
X123339077Y-96541031D01*
X123198059Y-96654219D01*
X123149037Y-96562506D01*
X123069685Y-96465815D01*
X122972994Y-96386463D01*
X122862680Y-96327498D01*
X122742982Y-96291188D01*
X122618500Y-96278928D01*
X120713500Y-96278928D01*
X120589018Y-96291188D01*
X120469320Y-96327498D01*
X120359006Y-96386463D01*
X120262315Y-96465815D01*
X120182963Y-96562506D01*
X120123998Y-96672820D01*
X120087688Y-96792518D01*
X120075428Y-96917000D01*
X120075428Y-98917000D01*
X120087688Y-99041482D01*
X120123998Y-99161180D01*
X120182963Y-99271494D01*
X120262315Y-99368185D01*
X120359006Y-99447537D01*
X120376572Y-99456926D01*
X120075002Y-99758496D01*
X120045999Y-99782299D01*
X120013418Y-99822000D01*
X119951026Y-99898024D01*
X119915370Y-99964731D01*
X119880454Y-100030054D01*
X119836997Y-100173315D01*
X119826000Y-100284968D01*
X119826000Y-100284978D01*
X119822324Y-100322300D01*
X119826000Y-100359623D01*
X119826000Y-100907091D01*
X119811537Y-100913082D01*
X119543748Y-101092013D01*
X119316013Y-101319748D01*
X119137082Y-101587537D01*
X119013832Y-101885088D01*
X118951000Y-102200967D01*
X118951000Y-102288198D01*
X114771801Y-106467398D01*
X114739637Y-106461000D01*
X114496363Y-106461000D01*
X114257764Y-106508460D01*
X114033008Y-106601557D01*
X113830733Y-106736713D01*
X113658713Y-106908733D01*
X113523557Y-107111008D01*
X113430460Y-107335764D01*
X113383000Y-107574363D01*
X111708000Y-107574363D01*
X111708000Y-103549499D01*
X112482106Y-103549499D01*
X112698228Y-103916258D01*
X113158105Y-104156938D01*
X113656098Y-104303275D01*
X114173071Y-104349648D01*
X114689159Y-104294273D01*
X115184526Y-104139279D01*
X115601772Y-103916258D01*
X115817894Y-103549499D01*
X114150000Y-101881605D01*
X112482106Y-103549499D01*
X111708000Y-103549499D01*
X111708000Y-102721437D01*
X111712721Y-102736526D01*
X111935742Y-103153772D01*
X112302501Y-103369894D01*
X113970395Y-101702000D01*
X114329605Y-101702000D01*
X115997499Y-103369894D01*
X116364258Y-103153772D01*
X116604938Y-102693895D01*
X116751275Y-102195902D01*
X116797648Y-101678929D01*
X116742273Y-101162841D01*
X116587279Y-100667474D01*
X116364258Y-100250228D01*
X115997499Y-100034106D01*
X114329605Y-101702000D01*
X113970395Y-101702000D01*
X112302501Y-100034106D01*
X111935742Y-100250228D01*
X111708000Y-100685384D01*
X111708000Y-99854501D01*
X112482106Y-99854501D01*
X114150000Y-101522395D01*
X115817894Y-99854501D01*
X115601772Y-99487742D01*
X115141895Y-99247062D01*
X114643902Y-99100725D01*
X114126929Y-99054352D01*
X113610841Y-99109727D01*
X113115474Y-99264721D01*
X112698228Y-99487742D01*
X112482106Y-99854501D01*
X111708000Y-99854501D01*
X111708000Y-94364396D01*
X111815241Y-94471637D01*
X112050273Y-94628680D01*
X112311426Y-94736853D01*
X112588665Y-94792000D01*
X112871335Y-94792000D01*
X113148574Y-94736853D01*
X113409727Y-94628680D01*
X113644759Y-94471637D01*
X113844637Y-94271759D01*
X114001680Y-94036727D01*
X114109853Y-93775574D01*
X114165000Y-93498335D01*
X114165000Y-93215665D01*
X114109853Y-92938426D01*
X114001680Y-92677273D01*
X113844637Y-92442241D01*
X113644759Y-92242363D01*
X113409727Y-92085320D01*
X113148574Y-91977147D01*
X113122699Y-91972000D01*
X113148574Y-91966853D01*
X113409727Y-91858680D01*
X113644759Y-91701637D01*
X113844637Y-91501759D01*
X114001680Y-91266727D01*
X114109853Y-91005574D01*
X114165000Y-90728335D01*
X114165000Y-90445665D01*
X114109853Y-90168426D01*
X114001680Y-89907273D01*
X113844637Y-89672241D01*
X113644759Y-89472363D01*
X113409727Y-89315320D01*
X113148574Y-89207147D01*
X113122699Y-89202000D01*
X113148574Y-89196853D01*
X113409727Y-89088680D01*
X113644759Y-88931637D01*
X113844637Y-88731759D01*
X114001680Y-88496727D01*
X114109853Y-88235574D01*
X114165000Y-87958335D01*
X114165000Y-87675665D01*
X114109853Y-87398426D01*
X114001680Y-87137273D01*
X113844637Y-86902241D01*
X113644759Y-86702363D01*
X113409727Y-86545320D01*
X113148574Y-86437147D01*
X113122699Y-86432000D01*
X113148574Y-86426853D01*
X113409727Y-86318680D01*
X113644759Y-86161637D01*
X113844637Y-85961759D01*
X114001680Y-85726727D01*
X114109853Y-85465574D01*
X114165000Y-85188335D01*
X114165000Y-84905665D01*
X114109853Y-84628426D01*
X114001680Y-84367273D01*
X113844637Y-84132241D01*
X113644759Y-83932363D01*
X113409727Y-83775320D01*
X113306380Y-83732512D01*
X114129783Y-83732512D01*
X114171213Y-84012130D01*
X114266397Y-84278292D01*
X114333329Y-84403514D01*
X114577298Y-84475097D01*
X115390395Y-83662000D01*
X114577298Y-82848903D01*
X114333329Y-82920486D01*
X114212429Y-83175996D01*
X114143700Y-83450184D01*
X114129783Y-83732512D01*
X113306380Y-83732512D01*
X113148574Y-83667147D01*
X112871335Y-83612000D01*
X112588665Y-83612000D01*
X112311426Y-83667147D01*
X112050273Y-83775320D01*
X111815241Y-83932363D01*
X111708000Y-84039604D01*
X111708000Y-82669298D01*
X114756903Y-82669298D01*
X115570000Y-83482395D01*
X116383097Y-82669298D01*
X116311514Y-82425329D01*
X116056004Y-82304429D01*
X115781816Y-82235700D01*
X115499488Y-82221783D01*
X115219870Y-82263213D01*
X114953708Y-82358397D01*
X114828486Y-82425329D01*
X114756903Y-82669298D01*
X111708000Y-82669298D01*
X111708000Y-78549499D01*
X112482106Y-78549499D01*
X112698228Y-78916258D01*
X113158105Y-79156938D01*
X113656098Y-79303275D01*
X114173071Y-79349648D01*
X114689159Y-79294273D01*
X115184526Y-79139279D01*
X115601772Y-78916258D01*
X115817894Y-78549499D01*
X114150000Y-76881605D01*
X112482106Y-78549499D01*
X111708000Y-78549499D01*
X111708000Y-77721437D01*
X111712721Y-77736526D01*
X111935742Y-78153772D01*
X112302501Y-78369894D01*
X113970395Y-76702000D01*
X114329605Y-76702000D01*
X115997499Y-78369894D01*
X116364258Y-78153772D01*
X116604938Y-77693895D01*
X116751275Y-77195902D01*
X116797648Y-76678929D01*
X116742273Y-76162841D01*
X116587279Y-75667474D01*
X116364258Y-75250228D01*
X115997499Y-75034106D01*
X114329605Y-76702000D01*
X113970395Y-76702000D01*
X112302501Y-75034106D01*
X111935742Y-75250228D01*
X111708000Y-75685384D01*
X111708000Y-74854501D01*
X112482106Y-74854501D01*
X114150000Y-76522395D01*
X115817894Y-74854501D01*
X115601772Y-74487742D01*
X115141895Y-74247062D01*
X114643902Y-74100725D01*
X114126929Y-74054352D01*
X113610841Y-74109727D01*
X113115474Y-74264721D01*
X112698228Y-74487742D01*
X112482106Y-74854501D01*
X111708000Y-74854501D01*
X111708000Y-73735000D01*
X124296293Y-73735000D01*
X124166406Y-73864887D01*
X124166406Y-73864887D01*
G37*
X124166406Y-73864887D02*
X123874536Y-74301702D01*
X123673492Y-74787065D01*
X123571000Y-75302323D01*
X123571000Y-75827677D01*
X123673492Y-76342935D01*
X123874536Y-76828298D01*
X124166406Y-77265113D01*
X124537887Y-77636594D01*
X124974702Y-77928464D01*
X125460065Y-78129508D01*
X125975323Y-78232000D01*
X126500677Y-78232000D01*
X127015935Y-78129508D01*
X127501298Y-77928464D01*
X127938113Y-77636594D01*
X128309594Y-77265113D01*
X128601464Y-76828298D01*
X128657001Y-76694219D01*
X128729203Y-76782197D01*
X128957395Y-76969469D01*
X129217737Y-77108625D01*
X129500224Y-77194316D01*
X129794000Y-77223251D01*
X130087777Y-77194316D01*
X130370264Y-77108625D01*
X130630606Y-76969469D01*
X130858797Y-76782197D01*
X131046069Y-76554006D01*
X131064000Y-76520459D01*
X131081931Y-76554006D01*
X131269203Y-76782197D01*
X131497395Y-76969469D01*
X131580944Y-77014127D01*
X131584998Y-77055286D01*
X131597530Y-77096599D01*
X131628454Y-77198546D01*
X131699026Y-77330576D01*
X131761992Y-77407299D01*
X131794000Y-77446301D01*
X131822998Y-77470099D01*
X132192600Y-77839702D01*
X132192600Y-78396329D01*
X131990574Y-78312647D01*
X131713335Y-78257500D01*
X131430665Y-78257500D01*
X131153426Y-78312647D01*
X130905841Y-78415200D01*
X122591922Y-78415200D01*
X122554599Y-78411524D01*
X122517276Y-78415200D01*
X122517267Y-78415200D01*
X122405614Y-78426197D01*
X122262353Y-78469654D01*
X122130324Y-78540226D01*
X122130322Y-78540227D01*
X122130323Y-78540227D01*
X122043596Y-78611401D01*
X122043592Y-78611405D01*
X122014599Y-78635199D01*
X121990805Y-78664192D01*
X117007454Y-83647545D01*
X117010217Y-83591488D01*
X116968787Y-83311870D01*
X116873603Y-83045708D01*
X116806671Y-82920486D01*
X116562702Y-82848903D01*
X115749605Y-83662000D01*
X115763748Y-83676143D01*
X115584143Y-83855748D01*
X115570000Y-83841605D01*
X114756903Y-84654702D01*
X114828486Y-84898671D01*
X115083996Y-85019571D01*
X115186289Y-85045212D01*
X115151426Y-85052147D01*
X114890273Y-85160320D01*
X114655241Y-85317363D01*
X114455363Y-85517241D01*
X114298320Y-85752273D01*
X114190147Y-86013426D01*
X114135000Y-86290665D01*
X114135000Y-86573335D01*
X114190147Y-86850574D01*
X114298320Y-87111727D01*
X114455363Y-87346759D01*
X114655241Y-87546637D01*
X114890273Y-87703680D01*
X115151426Y-87811853D01*
X115177301Y-87817000D01*
X115151426Y-87822147D01*
X114890273Y-87930320D01*
X114655241Y-88087363D01*
X114455363Y-88287241D01*
X114298320Y-88522273D01*
X114190147Y-88783426D01*
X114135000Y-89060665D01*
X114135000Y-89343335D01*
X114190147Y-89620574D01*
X114298320Y-89881727D01*
X114455363Y-90116759D01*
X114655241Y-90316637D01*
X114890273Y-90473680D01*
X115151426Y-90581853D01*
X115177301Y-90587000D01*
X115151426Y-90592147D01*
X114890273Y-90700320D01*
X114655241Y-90857363D01*
X114455363Y-91057241D01*
X114298320Y-91292273D01*
X114190147Y-91553426D01*
X114135000Y-91830665D01*
X114135000Y-92113335D01*
X114190147Y-92390574D01*
X114298320Y-92651727D01*
X114455363Y-92886759D01*
X114655241Y-93086637D01*
X114890273Y-93243680D01*
X115035725Y-93303928D01*
X114770000Y-93303928D01*
X114645518Y-93316188D01*
X114525820Y-93352498D01*
X114415506Y-93411463D01*
X114318815Y-93490815D01*
X114239463Y-93587506D01*
X114180498Y-93697820D01*
X114144188Y-93817518D01*
X114131928Y-93942000D01*
X114131928Y-95542000D01*
X114144188Y-95666482D01*
X114180498Y-95786180D01*
X114239463Y-95896494D01*
X114318815Y-95993185D01*
X114415506Y-96072537D01*
X114525820Y-96131502D01*
X114645518Y-96167812D01*
X114770000Y-96180072D01*
X116370000Y-96180072D01*
X116494482Y-96167812D01*
X116614180Y-96131502D01*
X116724494Y-96072537D01*
X116821185Y-95993185D01*
X116900537Y-95896494D01*
X116959502Y-95786180D01*
X116995812Y-95666482D01*
X117008072Y-95542000D01*
X117008072Y-94484874D01*
X117602000Y-95078802D01*
X117625799Y-95107801D01*
X117671124Y-95144998D01*
X117741524Y-95202774D01*
X117873553Y-95273346D01*
X118016814Y-95316803D01*
X118165800Y-95331477D01*
X118203133Y-95327800D01*
X129167599Y-95327800D01*
X130031800Y-96192002D01*
X130031801Y-106471376D01*
X129979637Y-106461000D01*
X129736363Y-106461000D01*
X129497764Y-106508460D01*
X129273008Y-106601557D01*
X129070733Y-106736713D01*
X128898713Y-106908733D01*
X128763557Y-107111008D01*
X128670460Y-107335764D01*
X128623000Y-107574363D01*
X128623000Y-107817637D01*
X128670460Y-108056236D01*
X128763557Y-108280992D01*
X128898713Y-108483267D01*
X129070733Y-108655287D01*
X129208733Y-108747496D01*
X129187841Y-108846236D01*
X129858000Y-109516395D01*
X129872143Y-109502253D01*
X130031801Y-109661911D01*
X130031801Y-109730089D01*
X129872143Y-109889748D01*
X129858000Y-109875605D01*
X129187841Y-110545764D01*
X129235148Y-110769348D01*
X129456516Y-110870237D01*
X129693313Y-110926000D01*
X129936438Y-110934495D01*
X130031801Y-110918966D01*
X130031801Y-110960097D01*
X128774998Y-112216901D01*
X128746000Y-112240699D01*
X128722202Y-112269697D01*
X128722201Y-112269698D01*
X128651026Y-112356424D01*
X128591425Y-112467928D01*
X128536000Y-112467928D01*
X128411518Y-112480188D01*
X128291820Y-112516498D01*
X128181506Y-112575463D01*
X128084815Y-112654815D01*
X128005463Y-112751506D01*
X127946498Y-112861820D01*
X127910188Y-112981518D01*
X127899555Y-113089483D01*
X127821799Y-112973114D01*
X127628886Y-112780201D01*
X127402043Y-112628629D01*
X127149989Y-112524225D01*
X126882411Y-112471000D01*
X126609589Y-112471000D01*
X126342011Y-112524225D01*
X126089957Y-112628629D01*
X125863114Y-112780201D01*
X125670201Y-112973114D01*
X125518629Y-113199957D01*
X125476000Y-113302873D01*
X125433371Y-113199957D01*
X125281799Y-112973114D01*
X125088886Y-112780201D01*
X124862043Y-112628629D01*
X124609989Y-112524225D01*
X124342411Y-112471000D01*
X124069589Y-112471000D01*
X123802011Y-112524225D01*
X123549957Y-112628629D01*
X123323114Y-112780201D01*
X123130201Y-112973114D01*
X122978629Y-113199957D01*
X122874225Y-113452011D01*
X122821000Y-113719589D01*
X122821000Y-113992411D01*
X122874225Y-114259989D01*
X122978629Y-114512043D01*
X123130201Y-114738886D01*
X123323114Y-114931799D01*
X123549957Y-115083371D01*
X123802011Y-115187775D01*
X124069589Y-115241000D01*
X124342411Y-115241000D01*
X124609989Y-115187775D01*
X124862043Y-115083371D01*
X125088886Y-114931799D01*
X125281799Y-114738886D01*
X125433371Y-114512043D01*
X125476000Y-114409127D01*
X125518629Y-114512043D01*
X125670201Y-114738886D01*
X125863114Y-114931799D01*
X126089957Y-115083371D01*
X126342011Y-115187775D01*
X126609589Y-115241000D01*
X126882411Y-115241000D01*
X127027364Y-115212167D01*
X127258605Y-115443408D01*
X127282399Y-115472401D01*
X127311392Y-115496195D01*
X127311396Y-115496199D01*
X127382085Y-115554211D01*
X127398124Y-115567374D01*
X127530153Y-115637946D01*
X127673414Y-115681403D01*
X127785067Y-115692400D01*
X127785076Y-115692400D01*
X127822399Y-115696076D01*
X127859722Y-115692400D01*
X130133578Y-115692400D01*
X130170900Y-115696076D01*
X130208222Y-115692400D01*
X130208233Y-115692400D01*
X130319886Y-115681403D01*
X130463147Y-115637946D01*
X130595176Y-115567374D01*
X130710901Y-115472401D01*
X130734704Y-115443397D01*
X130872398Y-115305703D01*
X130901401Y-115281901D01*
X130996374Y-115166176D01*
X131017905Y-115125896D01*
X131107116Y-115167760D01*
X131371960Y-115233250D01*
X131644492Y-115245812D01*
X131914238Y-115204965D01*
X132170832Y-115112277D01*
X132273300Y-115057506D01*
X132273301Y-122298378D01*
X132231184Y-122290000D01*
X131928816Y-122290000D01*
X131632257Y-122348989D01*
X131352905Y-122464701D01*
X131101495Y-122632688D01*
X131035056Y-122699127D01*
X131029502Y-122680820D01*
X130970537Y-122570506D01*
X130891185Y-122473815D01*
X130794494Y-122394463D01*
X130684180Y-122335498D01*
X130564482Y-122299188D01*
X130440000Y-122286928D01*
X129825750Y-122290000D01*
X129667000Y-122448750D01*
X129667000Y-123698000D01*
X129687000Y-123698000D01*
X129687000Y-123952000D01*
X129667000Y-123952000D01*
X129667000Y-125201250D01*
X129825750Y-125360000D01*
X130440000Y-125363072D01*
X130564482Y-125350812D01*
X130684180Y-125314502D01*
X130794494Y-125255537D01*
X130891185Y-125176185D01*
X130970537Y-125079494D01*
X131029502Y-124969180D01*
X131035056Y-124950873D01*
X131101495Y-125017312D01*
X131352905Y-125185299D01*
X131632257Y-125301011D01*
X131928816Y-125360000D01*
X132231184Y-125360000D01*
X132527743Y-125301011D01*
X132807095Y-125185299D01*
X133058505Y-125017312D01*
X133272312Y-124803505D01*
X133440299Y-124552095D01*
X133556011Y-124272743D01*
X133615000Y-123976184D01*
X133615000Y-123673816D01*
X133564327Y-123419066D01*
X133573301Y-123411701D01*
X133668274Y-123295976D01*
X133738846Y-123163947D01*
X133782303Y-123020686D01*
X133793300Y-122909033D01*
X133793300Y-122909025D01*
X133796976Y-122871700D01*
X133793300Y-122834375D01*
X133793300Y-118661000D01*
X134156928Y-118661000D01*
X134156928Y-120861000D01*
X134169188Y-120985482D01*
X134205498Y-121105180D01*
X134264463Y-121215494D01*
X134343815Y-121312185D01*
X134440506Y-121391537D01*
X134550820Y-121450502D01*
X134670518Y-121486812D01*
X134795000Y-121499072D01*
X136995000Y-121499072D01*
X137119482Y-121486812D01*
X137239180Y-121450502D01*
X137349494Y-121391537D01*
X137446185Y-121312185D01*
X137525537Y-121215494D01*
X137584502Y-121105180D01*
X137620812Y-120985482D01*
X137633072Y-120861000D01*
X137633072Y-118661000D01*
X137620812Y-118536518D01*
X137584502Y-118416820D01*
X137525537Y-118306506D01*
X137446185Y-118209815D01*
X137349494Y-118130463D01*
X137239180Y-118071498D01*
X137119482Y-118035188D01*
X136995000Y-118022928D01*
X134795000Y-118022928D01*
X134670518Y-118035188D01*
X134550820Y-118071498D01*
X134440506Y-118130463D01*
X134343815Y-118209815D01*
X134264463Y-118306506D01*
X134205498Y-118416820D01*
X134169188Y-118536518D01*
X134156928Y-118661000D01*
X133793300Y-118661000D01*
X133793300Y-115204740D01*
X133975589Y-115241000D01*
X134248411Y-115241000D01*
X134345822Y-115221624D01*
X135016801Y-115892603D01*
X135040599Y-115921601D01*
X135069597Y-115945399D01*
X135156323Y-116016574D01*
X135271242Y-116078000D01*
X135288353Y-116087146D01*
X135431614Y-116130603D01*
X135543267Y-116141600D01*
X135543276Y-116141600D01*
X135580599Y-116145276D01*
X135617922Y-116141600D01*
X139688578Y-116141600D01*
X139725900Y-116145276D01*
X139763222Y-116141600D01*
X139763233Y-116141600D01*
X139874886Y-116130603D01*
X140018147Y-116087146D01*
X140150176Y-116016574D01*
X140265901Y-115921601D01*
X140289704Y-115892597D01*
X143258000Y-112924301D01*
X143258001Y-120530199D01*
X142409177Y-119681375D01*
X142415168Y-119666912D01*
X142478000Y-119351033D01*
X142478000Y-119028967D01*
X142415168Y-118713088D01*
X142291918Y-118415537D01*
X142112987Y-118147748D01*
X141885252Y-117920013D01*
X141617463Y-117741082D01*
X141319912Y-117617832D01*
X141004033Y-117555000D01*
X140681967Y-117555000D01*
X140366088Y-117617832D01*
X140068537Y-117741082D01*
X139800748Y-117920013D01*
X139573013Y-118147748D01*
X139394082Y-118415537D01*
X139270832Y-118713088D01*
X139208000Y-119028967D01*
X139208000Y-119351033D01*
X139270832Y-119666912D01*
X139394082Y-119964463D01*
X139573013Y-120232252D01*
X139800748Y-120459987D01*
X140068537Y-120638918D01*
X140366088Y-120762168D01*
X140681967Y-120825000D01*
X141004033Y-120825000D01*
X141319912Y-120762168D01*
X141334375Y-120756177D01*
X141988000Y-121409802D01*
X141988000Y-122261275D01*
X141771776Y-122195684D01*
X141478000Y-122166749D01*
X141184223Y-122195684D01*
X140901736Y-122281375D01*
X140641394Y-122420531D01*
X140413203Y-122607803D01*
X140225931Y-122835995D01*
X140208000Y-122869541D01*
X140190069Y-122835994D01*
X140002797Y-122607803D01*
X139774605Y-122420531D01*
X139514263Y-122281375D01*
X139231776Y-122195684D01*
X138938000Y-122166749D01*
X138644223Y-122195684D01*
X138361736Y-122281375D01*
X138101394Y-122420531D01*
X137873203Y-122607803D01*
X137685931Y-122835995D01*
X137546775Y-123096337D01*
X137461084Y-123378824D01*
X137439400Y-123598982D01*
X137439400Y-124051019D01*
X137461084Y-124271177D01*
X137546775Y-124553664D01*
X137685931Y-124814006D01*
X137873203Y-125042197D01*
X138101395Y-125229469D01*
X138361737Y-125368625D01*
X138644224Y-125454316D01*
X138938000Y-125483251D01*
X139231777Y-125454316D01*
X139514264Y-125368625D01*
X139774606Y-125229469D01*
X140002797Y-125042197D01*
X140190069Y-124814006D01*
X140208000Y-124780459D01*
X140225931Y-124814006D01*
X140413203Y-125042197D01*
X140641395Y-125229469D01*
X140901737Y-125368625D01*
X141184224Y-125454316D01*
X141478000Y-125483251D01*
X141771777Y-125454316D01*
X142054264Y-125368625D01*
X142314606Y-125229469D01*
X142395654Y-125162955D01*
X142887698Y-125655000D01*
X126909707Y-125655000D01*
X127039594Y-125525113D01*
X127331464Y-125088298D01*
X127481947Y-124725000D01*
X128001928Y-124725000D01*
X128014188Y-124849482D01*
X128050498Y-124969180D01*
X128109463Y-125079494D01*
X128188815Y-125176185D01*
X128285506Y-125255537D01*
X128395820Y-125314502D01*
X128515518Y-125350812D01*
X128640000Y-125363072D01*
X129254250Y-125360000D01*
X129413000Y-125201250D01*
X129413000Y-123952000D01*
X128163750Y-123952000D01*
X128005000Y-124110750D01*
X128001928Y-124725000D01*
X127481947Y-124725000D01*
X127532508Y-124602935D01*
X127635000Y-124087677D01*
X127635000Y-123562323D01*
X127532508Y-123047065D01*
X127481948Y-122925000D01*
X128001928Y-122925000D01*
X128005000Y-123539250D01*
X128163750Y-123698000D01*
X129413000Y-123698000D01*
X129413000Y-122448750D01*
X129254250Y-122290000D01*
X128640000Y-122286928D01*
X128515518Y-122299188D01*
X128395820Y-122335498D01*
X128285506Y-122394463D01*
X128188815Y-122473815D01*
X128109463Y-122570506D01*
X128050498Y-122680820D01*
X128014188Y-122800518D01*
X128001928Y-122925000D01*
X127481948Y-122925000D01*
X127331464Y-122561702D01*
X127039594Y-122124887D01*
X126668113Y-121753406D01*
X126231298Y-121461536D01*
X126178317Y-121439590D01*
X126402168Y-121371686D01*
X126703578Y-121210579D01*
X126967766Y-120993766D01*
X127184579Y-120729578D01*
X127345686Y-120428168D01*
X127444895Y-120101119D01*
X127478394Y-119761000D01*
X127444895Y-119420881D01*
X127345686Y-119093832D01*
X127184579Y-118792422D01*
X126967766Y-118528234D01*
X126703578Y-118311421D01*
X126402168Y-118150314D01*
X126075119Y-118051105D01*
X125820225Y-118026000D01*
X125649775Y-118026000D01*
X125394881Y-118051105D01*
X125067832Y-118150314D01*
X124766422Y-118311421D01*
X124502234Y-118528234D01*
X124285421Y-118792422D01*
X124124314Y-119093832D01*
X124025105Y-119420881D01*
X123991606Y-119761000D01*
X124025105Y-120101119D01*
X124124314Y-120428168D01*
X124285421Y-120729578D01*
X124502234Y-120993766D01*
X124702933Y-121158475D01*
X124190065Y-121260492D01*
X123704702Y-121461536D01*
X123267887Y-121753406D01*
X122896406Y-122124887D01*
X122604536Y-122561702D01*
X122403492Y-123047065D01*
X122301000Y-123562323D01*
X122301000Y-124087677D01*
X122403492Y-124602935D01*
X122604536Y-125088298D01*
X122896406Y-125525113D01*
X123026293Y-125655000D01*
X120729444Y-125655000D01*
X120740185Y-125646185D01*
X120819537Y-125549494D01*
X120878502Y-125439180D01*
X120914812Y-125319482D01*
X120927072Y-125195000D01*
X120924000Y-123730750D01*
X120765250Y-123572000D01*
X118666000Y-123572000D01*
X118666000Y-123592000D01*
X118412000Y-123592000D01*
X118412000Y-123572000D01*
X116312750Y-123572000D01*
X116154000Y-123730750D01*
X116150928Y-125195000D01*
X116163188Y-125319482D01*
X116199498Y-125439180D01*
X116258463Y-125549494D01*
X116337815Y-125646185D01*
X116348556Y-125655000D01*
X111708000Y-125655000D01*
X111708000Y-120495000D01*
X113400928Y-120495000D01*
X113413188Y-120619482D01*
X113449498Y-120739180D01*
X113508463Y-120849494D01*
X113587815Y-120946185D01*
X113684506Y-121025537D01*
X113794820Y-121084502D01*
X113914518Y-121120812D01*
X114039000Y-121133072D01*
X115253250Y-121130000D01*
X115412000Y-120971250D01*
X115412000Y-118872000D01*
X115666000Y-118872000D01*
X115666000Y-120971250D01*
X115824750Y-121130000D01*
X116495805Y-121131698D01*
X116434506Y-121164463D01*
X116337815Y-121243815D01*
X116258463Y-121340506D01*
X116199498Y-121450820D01*
X116163188Y-121570518D01*
X116150928Y-121695000D01*
X116154000Y-123159250D01*
X116312750Y-123318000D01*
X118412000Y-123318000D01*
X118412000Y-121218750D01*
X118666000Y-121218750D01*
X118666000Y-123318000D01*
X120765250Y-123318000D01*
X120924000Y-123159250D01*
X120927072Y-121695000D01*
X120914812Y-121570518D01*
X120878502Y-121450820D01*
X120819537Y-121340506D01*
X120740185Y-121243815D01*
X120643494Y-121164463D01*
X120584767Y-121133072D01*
X123289000Y-121133072D01*
X123413482Y-121120812D01*
X123533180Y-121084502D01*
X123643494Y-121025537D01*
X123740185Y-120946185D01*
X123819537Y-120849494D01*
X123878502Y-120739180D01*
X123914812Y-120619482D01*
X123927072Y-120495000D01*
X123927072Y-116995000D01*
X123914812Y-116870518D01*
X123878502Y-116750820D01*
X123819537Y-116640506D01*
X123740185Y-116543815D01*
X123643494Y-116464463D01*
X123533180Y-116405498D01*
X123413482Y-116369188D01*
X123289000Y-116356928D01*
X119789000Y-116356928D01*
X119664518Y-116369188D01*
X119544820Y-116405498D01*
X119434506Y-116464463D01*
X119337815Y-116543815D01*
X119258463Y-116640506D01*
X119199498Y-116750820D01*
X119163188Y-116870518D01*
X119150928Y-116995000D01*
X119150928Y-120495000D01*
X119163188Y-120619482D01*
X119199498Y-120739180D01*
X119258463Y-120849494D01*
X119337815Y-120946185D01*
X119434506Y-121025537D01*
X119496345Y-121058591D01*
X118824750Y-121060000D01*
X118666000Y-121218750D01*
X118412000Y-121218750D01*
X118253250Y-121060000D01*
X117332633Y-121058069D01*
X117393494Y-121025537D01*
X117490185Y-120946185D01*
X117569537Y-120849494D01*
X117628502Y-120739180D01*
X117664812Y-120619482D01*
X117677072Y-120495000D01*
X117674000Y-119030750D01*
X117515250Y-118872000D01*
X115666000Y-118872000D01*
X115412000Y-118872000D01*
X113562750Y-118872000D01*
X113404000Y-119030750D01*
X113400928Y-120495000D01*
X111708000Y-120495000D01*
X111708000Y-116995000D01*
X113400928Y-116995000D01*
X113404000Y-118459250D01*
X113562750Y-118618000D01*
X115412000Y-118618000D01*
X115412000Y-116518750D01*
X115666000Y-116518750D01*
X115666000Y-118618000D01*
X117515250Y-118618000D01*
X117674000Y-118459250D01*
X117677072Y-116995000D01*
X117664812Y-116870518D01*
X117628502Y-116750820D01*
X117569537Y-116640506D01*
X117490185Y-116543815D01*
X117393494Y-116464463D01*
X117283180Y-116405498D01*
X117163482Y-116369188D01*
X117039000Y-116356928D01*
X115824750Y-116360000D01*
X115666000Y-116518750D01*
X115412000Y-116518750D01*
X115253250Y-116360000D01*
X114039000Y-116356928D01*
X113914518Y-116369188D01*
X113794820Y-116405498D01*
X113684506Y-116464463D01*
X113587815Y-116543815D01*
X113508463Y-116640506D01*
X113449498Y-116750820D01*
X113413188Y-116870518D01*
X113400928Y-116995000D01*
X111708000Y-116995000D01*
X111708000Y-110545764D01*
X113947841Y-110545764D01*
X113995148Y-110769348D01*
X114216516Y-110870237D01*
X114453313Y-110926000D01*
X114696438Y-110934495D01*
X114936549Y-110895395D01*
X115164418Y-110810202D01*
X115240852Y-110769348D01*
X115288159Y-110545764D01*
X114618000Y-109875605D01*
X113947841Y-110545764D01*
X111708000Y-110545764D01*
X111708000Y-109774438D01*
X113379505Y-109774438D01*
X113418605Y-110014549D01*
X113503798Y-110242418D01*
X113544652Y-110318852D01*
X113768236Y-110366159D01*
X114438395Y-109696000D01*
X114797605Y-109696000D01*
X115467764Y-110366159D01*
X115691348Y-110318852D01*
X115792237Y-110097484D01*
X115848000Y-109860687D01*
X115856495Y-109617562D01*
X115817395Y-109377451D01*
X115732202Y-109149582D01*
X115691348Y-109073148D01*
X115467764Y-109025841D01*
X114797605Y-109696000D01*
X114438395Y-109696000D01*
X113768236Y-109025841D01*
X113544652Y-109073148D01*
X113443763Y-109294516D01*
X113388000Y-109531313D01*
X113379505Y-109774438D01*
X111708000Y-109774438D01*
X111708000Y-107574363D01*
X113383000Y-107574363D01*
X113383000Y-107817637D01*
X113430460Y-108056236D01*
X113523557Y-108280992D01*
X113658713Y-108483267D01*
X113830733Y-108655287D01*
X113968733Y-108747496D01*
X113947841Y-108846236D01*
X114618000Y-109516395D01*
X115288159Y-108846236D01*
X115267267Y-108747496D01*
X115405267Y-108655287D01*
X115577287Y-108483267D01*
X115712443Y-108280992D01*
X115805540Y-108056236D01*
X115811864Y-108024438D01*
X120999505Y-108024438D01*
X121038605Y-108264549D01*
X121123798Y-108492418D01*
X121164652Y-108568852D01*
X121332979Y-108604467D01*
X121278713Y-108658733D01*
X121143557Y-108861008D01*
X121050460Y-109085764D01*
X121003000Y-109324363D01*
X121003000Y-109567637D01*
X121050460Y-109806236D01*
X121143557Y-110030992D01*
X121278713Y-110233267D01*
X121450733Y-110405287D01*
X121653008Y-110540443D01*
X121877764Y-110633540D01*
X122116363Y-110681000D01*
X122359637Y-110681000D01*
X122598236Y-110633540D01*
X122822992Y-110540443D01*
X123025267Y-110405287D01*
X123197287Y-110233267D01*
X123332443Y-110030992D01*
X123425540Y-109806236D01*
X123431864Y-109774438D01*
X128619505Y-109774438D01*
X128658605Y-110014549D01*
X128743798Y-110242418D01*
X128784652Y-110318852D01*
X129008236Y-110366159D01*
X129678395Y-109696000D01*
X129008236Y-109025841D01*
X128784652Y-109073148D01*
X128683763Y-109294516D01*
X128628000Y-109531313D01*
X128619505Y-109774438D01*
X123431864Y-109774438D01*
X123473000Y-109567637D01*
X123473000Y-109324363D01*
X123425540Y-109085764D01*
X123332443Y-108861008D01*
X123197287Y-108658733D01*
X123143021Y-108604467D01*
X123311348Y-108568852D01*
X123412237Y-108347484D01*
X123468000Y-108110687D01*
X123476495Y-107867562D01*
X123437395Y-107627451D01*
X123352202Y-107399582D01*
X123311348Y-107323148D01*
X123087764Y-107275841D01*
X122417605Y-107946000D01*
X122431748Y-107960143D01*
X122252143Y-108139748D01*
X122238000Y-108125605D01*
X122223858Y-108139748D01*
X122044253Y-107960143D01*
X122058395Y-107946000D01*
X121388236Y-107275841D01*
X121164652Y-107323148D01*
X121063763Y-107544516D01*
X121008000Y-107781313D01*
X120999505Y-108024438D01*
X115811864Y-108024438D01*
X115853000Y-107817637D01*
X115853000Y-107574363D01*
X115846602Y-107542199D01*
X116292565Y-107096236D01*
X121567841Y-107096236D01*
X122238000Y-107766395D01*
X122908159Y-107096236D01*
X122860852Y-106872652D01*
X122639484Y-106771763D01*
X122402687Y-106716000D01*
X122159562Y-106707505D01*
X121919451Y-106746605D01*
X121691582Y-106831798D01*
X121615148Y-106872652D01*
X121567841Y-107096236D01*
X116292565Y-107096236D01*
X119671472Y-103717330D01*
X119811537Y-103810918D01*
X120109088Y-103934168D01*
X120424967Y-103997000D01*
X120747033Y-103997000D01*
X121062912Y-103934168D01*
X121360463Y-103810918D01*
X121628252Y-103631987D01*
X121762826Y-103497413D01*
X127130192Y-103497413D01*
X127225956Y-103761814D01*
X127515571Y-103902704D01*
X127827108Y-103984384D01*
X128148595Y-104003718D01*
X128467675Y-103959961D01*
X128772088Y-103854795D01*
X128946044Y-103761814D01*
X129041808Y-103497413D01*
X128086000Y-102541605D01*
X127130192Y-103497413D01*
X121762826Y-103497413D01*
X121855987Y-103404252D01*
X122034918Y-103136463D01*
X122158168Y-102838912D01*
X122221000Y-102523033D01*
X122221000Y-102424595D01*
X126444282Y-102424595D01*
X126488039Y-102743675D01*
X126593205Y-103048088D01*
X126686186Y-103222044D01*
X126950587Y-103317808D01*
X127906395Y-102362000D01*
X128265605Y-102362000D01*
X129221413Y-103317808D01*
X129485814Y-103222044D01*
X129626704Y-102932429D01*
X129708384Y-102620892D01*
X129727718Y-102299405D01*
X129683961Y-101980325D01*
X129578795Y-101675912D01*
X129485814Y-101501956D01*
X129221413Y-101406192D01*
X128265605Y-102362000D01*
X127906395Y-102362000D01*
X126950587Y-101406192D01*
X126686186Y-101501956D01*
X126545296Y-101791571D01*
X126463616Y-102103108D01*
X126444282Y-102424595D01*
X122221000Y-102424595D01*
X122221000Y-102200967D01*
X122158168Y-101885088D01*
X122034918Y-101587537D01*
X121855987Y-101319748D01*
X121762826Y-101226587D01*
X127130192Y-101226587D01*
X128086000Y-102182395D01*
X129041808Y-101226587D01*
X128946044Y-100962186D01*
X128656429Y-100821296D01*
X128344892Y-100739616D01*
X128023405Y-100720282D01*
X127704325Y-100764039D01*
X127399912Y-100869205D01*
X127225956Y-100962186D01*
X127130192Y-101226587D01*
X121762826Y-101226587D01*
X121628252Y-101092013D01*
X121360463Y-100913082D01*
X121346000Y-100907091D01*
X121346000Y-100637101D01*
X122177003Y-99806099D01*
X122206001Y-99782301D01*
X122300974Y-99666576D01*
X122360575Y-99555072D01*
X122618500Y-99555072D01*
X122742982Y-99542812D01*
X122862680Y-99506502D01*
X122972994Y-99447537D01*
X123069685Y-99368185D01*
X123149037Y-99271494D01*
X123198059Y-99179781D01*
X123339077Y-99292969D01*
X123614906Y-99436571D01*
X123833020Y-99507563D01*
X124079000Y-99387594D01*
X124079000Y-98044000D01*
X124059000Y-98044000D01*
X124059000Y-97790000D01*
X124079000Y-97790000D01*
X124079000Y-96446406D01*
X124333000Y-96446406D01*
X124333000Y-97790000D01*
X124353000Y-97790000D01*
X124353000Y-98044000D01*
X124333000Y-98044000D01*
X124333000Y-99387594D01*
X124578980Y-99507563D01*
X124797094Y-99436571D01*
X125072923Y-99292969D01*
X125315437Y-99098315D01*
X125470837Y-98913101D01*
X125618037Y-99092463D01*
X125859766Y-99290845D01*
X126135552Y-99438255D01*
X126434797Y-99529030D01*
X126746000Y-99559681D01*
X127057204Y-99529030D01*
X127356449Y-99438255D01*
X127632235Y-99290845D01*
X127873963Y-99092463D01*
X128072345Y-98850734D01*
X128219755Y-98574948D01*
X128310530Y-98275703D01*
X128333500Y-98042485D01*
X128333500Y-97791514D01*
X128310530Y-97558296D01*
X128219755Y-97259051D01*
X128072345Y-96983265D01*
X127873963Y-96741537D01*
X127632234Y-96543155D01*
X127356448Y-96395745D01*
X127057203Y-96304970D01*
X126746000Y-96274319D01*
X126434796Y-96304970D01*
X126135551Y-96395745D01*
X125859765Y-96543155D01*
X125618037Y-96741537D01*
X125470838Y-96920900D01*
X125315437Y-96735685D01*
X125072923Y-96541031D01*
X124797094Y-96397429D01*
X124578980Y-96326437D01*
X124333000Y-96446406D01*
X124079000Y-96446406D01*
X123833020Y-96326437D01*
X123614906Y-96397429D01*
X123339077Y-96541031D01*
X123198059Y-96654219D01*
X123149037Y-96562506D01*
X123069685Y-96465815D01*
X122972994Y-96386463D01*
X122862680Y-96327498D01*
X122742982Y-96291188D01*
X122618500Y-96278928D01*
X120713500Y-96278928D01*
X120589018Y-96291188D01*
X120469320Y-96327498D01*
X120359006Y-96386463D01*
X120262315Y-96465815D01*
X120182963Y-96562506D01*
X120123998Y-96672820D01*
X120087688Y-96792518D01*
X120075428Y-96917000D01*
X120075428Y-98917000D01*
X120087688Y-99041482D01*
X120123998Y-99161180D01*
X120182963Y-99271494D01*
X120262315Y-99368185D01*
X120359006Y-99447537D01*
X120376572Y-99456926D01*
X120075002Y-99758496D01*
X120045999Y-99782299D01*
X120013418Y-99822000D01*
X119951026Y-99898024D01*
X119915370Y-99964731D01*
X119880454Y-100030054D01*
X119836997Y-100173315D01*
X119826000Y-100284968D01*
X119826000Y-100284978D01*
X119822324Y-100322300D01*
X119826000Y-100359623D01*
X119826000Y-100907091D01*
X119811537Y-100913082D01*
X119543748Y-101092013D01*
X119316013Y-101319748D01*
X119137082Y-101587537D01*
X119013832Y-101885088D01*
X118951000Y-102200967D01*
X118951000Y-102288198D01*
X114771801Y-106467398D01*
X114739637Y-106461000D01*
X114496363Y-106461000D01*
X114257764Y-106508460D01*
X114033008Y-106601557D01*
X113830733Y-106736713D01*
X113658713Y-106908733D01*
X113523557Y-107111008D01*
X113430460Y-107335764D01*
X113383000Y-107574363D01*
X111708000Y-107574363D01*
X111708000Y-103549499D01*
X112482106Y-103549499D01*
X112698228Y-103916258D01*
X113158105Y-104156938D01*
X113656098Y-104303275D01*
X114173071Y-104349648D01*
X114689159Y-104294273D01*
X115184526Y-104139279D01*
X115601772Y-103916258D01*
X115817894Y-103549499D01*
X114150000Y-101881605D01*
X112482106Y-103549499D01*
X111708000Y-103549499D01*
X111708000Y-102721437D01*
X111712721Y-102736526D01*
X111935742Y-103153772D01*
X112302501Y-103369894D01*
X113970395Y-101702000D01*
X114329605Y-101702000D01*
X115997499Y-103369894D01*
X116364258Y-103153772D01*
X116604938Y-102693895D01*
X116751275Y-102195902D01*
X116797648Y-101678929D01*
X116742273Y-101162841D01*
X116587279Y-100667474D01*
X116364258Y-100250228D01*
X115997499Y-100034106D01*
X114329605Y-101702000D01*
X113970395Y-101702000D01*
X112302501Y-100034106D01*
X111935742Y-100250228D01*
X111708000Y-100685384D01*
X111708000Y-99854501D01*
X112482106Y-99854501D01*
X114150000Y-101522395D01*
X115817894Y-99854501D01*
X115601772Y-99487742D01*
X115141895Y-99247062D01*
X114643902Y-99100725D01*
X114126929Y-99054352D01*
X113610841Y-99109727D01*
X113115474Y-99264721D01*
X112698228Y-99487742D01*
X112482106Y-99854501D01*
X111708000Y-99854501D01*
X111708000Y-94364396D01*
X111815241Y-94471637D01*
X112050273Y-94628680D01*
X112311426Y-94736853D01*
X112588665Y-94792000D01*
X112871335Y-94792000D01*
X113148574Y-94736853D01*
X113409727Y-94628680D01*
X113644759Y-94471637D01*
X113844637Y-94271759D01*
X114001680Y-94036727D01*
X114109853Y-93775574D01*
X114165000Y-93498335D01*
X114165000Y-93215665D01*
X114109853Y-92938426D01*
X114001680Y-92677273D01*
X113844637Y-92442241D01*
X113644759Y-92242363D01*
X113409727Y-92085320D01*
X113148574Y-91977147D01*
X113122699Y-91972000D01*
X113148574Y-91966853D01*
X113409727Y-91858680D01*
X113644759Y-91701637D01*
X113844637Y-91501759D01*
X114001680Y-91266727D01*
X114109853Y-91005574D01*
X114165000Y-90728335D01*
X114165000Y-90445665D01*
X114109853Y-90168426D01*
X114001680Y-89907273D01*
X113844637Y-89672241D01*
X113644759Y-89472363D01*
X113409727Y-89315320D01*
X113148574Y-89207147D01*
X113122699Y-89202000D01*
X113148574Y-89196853D01*
X113409727Y-89088680D01*
X113644759Y-88931637D01*
X113844637Y-88731759D01*
X114001680Y-88496727D01*
X114109853Y-88235574D01*
X114165000Y-87958335D01*
X114165000Y-87675665D01*
X114109853Y-87398426D01*
X114001680Y-87137273D01*
X113844637Y-86902241D01*
X113644759Y-86702363D01*
X113409727Y-86545320D01*
X113148574Y-86437147D01*
X113122699Y-86432000D01*
X113148574Y-86426853D01*
X113409727Y-86318680D01*
X113644759Y-86161637D01*
X113844637Y-85961759D01*
X114001680Y-85726727D01*
X114109853Y-85465574D01*
X114165000Y-85188335D01*
X114165000Y-84905665D01*
X114109853Y-84628426D01*
X114001680Y-84367273D01*
X113844637Y-84132241D01*
X113644759Y-83932363D01*
X113409727Y-83775320D01*
X113306380Y-83732512D01*
X114129783Y-83732512D01*
X114171213Y-84012130D01*
X114266397Y-84278292D01*
X114333329Y-84403514D01*
X114577298Y-84475097D01*
X115390395Y-83662000D01*
X114577298Y-82848903D01*
X114333329Y-82920486D01*
X114212429Y-83175996D01*
X114143700Y-83450184D01*
X114129783Y-83732512D01*
X113306380Y-83732512D01*
X113148574Y-83667147D01*
X112871335Y-83612000D01*
X112588665Y-83612000D01*
X112311426Y-83667147D01*
X112050273Y-83775320D01*
X111815241Y-83932363D01*
X111708000Y-84039604D01*
X111708000Y-82669298D01*
X114756903Y-82669298D01*
X115570000Y-83482395D01*
X116383097Y-82669298D01*
X116311514Y-82425329D01*
X116056004Y-82304429D01*
X115781816Y-82235700D01*
X115499488Y-82221783D01*
X115219870Y-82263213D01*
X114953708Y-82358397D01*
X114828486Y-82425329D01*
X114756903Y-82669298D01*
X111708000Y-82669298D01*
X111708000Y-78549499D01*
X112482106Y-78549499D01*
X112698228Y-78916258D01*
X113158105Y-79156938D01*
X113656098Y-79303275D01*
X114173071Y-79349648D01*
X114689159Y-79294273D01*
X115184526Y-79139279D01*
X115601772Y-78916258D01*
X115817894Y-78549499D01*
X114150000Y-76881605D01*
X112482106Y-78549499D01*
X111708000Y-78549499D01*
X111708000Y-77721437D01*
X111712721Y-77736526D01*
X111935742Y-78153772D01*
X112302501Y-78369894D01*
X113970395Y-76702000D01*
X114329605Y-76702000D01*
X115997499Y-78369894D01*
X116364258Y-78153772D01*
X116604938Y-77693895D01*
X116751275Y-77195902D01*
X116797648Y-76678929D01*
X116742273Y-76162841D01*
X116587279Y-75667474D01*
X116364258Y-75250228D01*
X115997499Y-75034106D01*
X114329605Y-76702000D01*
X113970395Y-76702000D01*
X112302501Y-75034106D01*
X111935742Y-75250228D01*
X111708000Y-75685384D01*
X111708000Y-74854501D01*
X112482106Y-74854501D01*
X114150000Y-76522395D01*
X115817894Y-74854501D01*
X115601772Y-74487742D01*
X115141895Y-74247062D01*
X114643902Y-74100725D01*
X114126929Y-74054352D01*
X113610841Y-74109727D01*
X113115474Y-74264721D01*
X112698228Y-74487742D01*
X112482106Y-74854501D01*
X111708000Y-74854501D01*
X111708000Y-73735000D01*
X124296293Y-73735000D01*
X124166406Y-73864887D01*
G36*
X151765000Y-99568000D02*
G01*
X151785000Y-99568000D01*
X151785000Y-99822000D01*
X151765000Y-99822000D01*
X151765000Y-100964915D01*
X151987039Y-101086904D01*
X152121087Y-101046246D01*
X152375420Y-100926037D01*
X152601414Y-100758519D01*
X152790385Y-100550131D01*
X152905421Y-100358318D01*
X152979068Y-100496101D01*
X153158392Y-100714608D01*
X153376899Y-100893932D01*
X153424059Y-100919140D01*
X153428998Y-100969286D01*
X153434878Y-100988671D01*
X153472454Y-101112546D01*
X153543026Y-101244576D01*
X153597889Y-101311426D01*
X153638000Y-101360301D01*
X153666998Y-101384099D01*
X154544100Y-102261202D01*
X154544100Y-105928271D01*
X154527039Y-105923096D01*
X154305000Y-106045085D01*
X154305000Y-107188000D01*
X154325000Y-107188000D01*
X154325000Y-107442000D01*
X154305000Y-107442000D01*
X154305000Y-108584915D01*
X154527039Y-108706904D01*
X154544100Y-108701729D01*
X154544101Y-110800360D01*
X154361413Y-110734192D01*
X153405605Y-111690000D01*
X154361413Y-112645808D01*
X154544101Y-112579640D01*
X154544101Y-116797097D01*
X153717376Y-117623823D01*
X153702912Y-117617832D01*
X153387033Y-117555000D01*
X153064967Y-117555000D01*
X152749088Y-117617832D01*
X152451537Y-117741082D01*
X152183748Y-117920013D01*
X151956013Y-118147748D01*
X151777082Y-118415537D01*
X151653832Y-118713088D01*
X151591000Y-119028967D01*
X151591000Y-119351033D01*
X151653832Y-119666912D01*
X151777082Y-119964463D01*
X151956013Y-120232252D01*
X152183748Y-120459987D01*
X152451537Y-120638918D01*
X152749088Y-120762168D01*
X153064967Y-120825000D01*
X153387033Y-120825000D01*
X153702912Y-120762168D01*
X154000463Y-120638918D01*
X154268252Y-120459987D01*
X154495987Y-120232252D01*
X154674918Y-119964463D01*
X154798168Y-119666912D01*
X154861000Y-119351033D01*
X154861000Y-119028967D01*
X154798168Y-118713088D01*
X154792177Y-118698624D01*
X155815103Y-117675699D01*
X155844101Y-117651901D01*
X155939074Y-117536176D01*
X156009646Y-117404147D01*
X156053103Y-117260886D01*
X156064100Y-117149233D01*
X156064100Y-117149224D01*
X156067776Y-117111901D01*
X156064100Y-117074578D01*
X156064100Y-111876168D01*
X156083026Y-111911576D01*
X156113651Y-111948892D01*
X156177999Y-112027301D01*
X156207003Y-112051104D01*
X157844648Y-113688750D01*
X157755277Y-113697552D01*
X157409378Y-113802479D01*
X157090596Y-113972871D01*
X156811181Y-114202181D01*
X156581871Y-114481596D01*
X156411479Y-114800378D01*
X156306552Y-115146277D01*
X156271122Y-115506000D01*
X156306552Y-115865723D01*
X156411479Y-116211622D01*
X156581871Y-116530404D01*
X156811181Y-116809819D01*
X157090596Y-117039129D01*
X157409378Y-117209521D01*
X157755277Y-117314448D01*
X158024861Y-117341000D01*
X158205139Y-117341000D01*
X158474723Y-117314448D01*
X158820622Y-117209521D01*
X159139404Y-117039129D01*
X159418819Y-116809819D01*
X159648129Y-116530404D01*
X159818521Y-116211622D01*
X159923448Y-115865723D01*
X159932250Y-115776352D01*
X161038001Y-116882103D01*
X161038001Y-118767928D01*
X159855000Y-118767928D01*
X159730518Y-118780188D01*
X159610820Y-118816498D01*
X159500506Y-118875463D01*
X159403815Y-118954815D01*
X159324463Y-119051506D01*
X159265498Y-119161820D01*
X159229188Y-119281518D01*
X159216928Y-119406000D01*
X159216928Y-121006000D01*
X159229188Y-121130482D01*
X159265498Y-121250180D01*
X159324463Y-121360494D01*
X159403815Y-121457185D01*
X159500506Y-121536537D01*
X159610820Y-121595502D01*
X159730518Y-121631812D01*
X159855000Y-121644072D01*
X161038000Y-121644072D01*
X161038000Y-122379584D01*
X160961394Y-122420531D01*
X160733203Y-122607803D01*
X160545931Y-122835995D01*
X160406775Y-123096337D01*
X160321084Y-123378824D01*
X160299400Y-123598982D01*
X160299400Y-124051019D01*
X160321084Y-124271177D01*
X160371841Y-124438500D01*
X158144159Y-124438500D01*
X158194916Y-124271176D01*
X158216600Y-124051018D01*
X158216600Y-123598981D01*
X158194916Y-123378823D01*
X158109225Y-123096336D01*
X157970069Y-122835994D01*
X157782797Y-122607803D01*
X157554605Y-122420531D01*
X157294263Y-122281375D01*
X157011776Y-122195684D01*
X156718000Y-122166749D01*
X156424223Y-122195684D01*
X156141736Y-122281375D01*
X155881394Y-122420531D01*
X155653203Y-122607803D01*
X155465931Y-122835995D01*
X155444576Y-122875947D01*
X155296486Y-122673271D01*
X155080035Y-122474267D01*
X154828919Y-122321314D01*
X154552789Y-122220291D01*
X154537026Y-122217642D01*
X154305000Y-122338783D01*
X154305000Y-123698000D01*
X154325000Y-123698000D01*
X154325000Y-123952000D01*
X154305000Y-123952000D01*
X154305000Y-123972000D01*
X154051000Y-123972000D01*
X154051000Y-123952000D01*
X151765000Y-123952000D01*
X151765000Y-123972000D01*
X151511000Y-123972000D01*
X151511000Y-123952000D01*
X151491000Y-123952000D01*
X151491000Y-123698000D01*
X151511000Y-123698000D01*
X151511000Y-122338783D01*
X151765000Y-122338783D01*
X151765000Y-123698000D01*
X154051000Y-123698000D01*
X154051000Y-122338783D01*
X153818974Y-122217642D01*
X153803211Y-122220291D01*
X153527081Y-122321314D01*
X153275965Y-122474267D01*
X153059514Y-122673271D01*
X152908000Y-122880633D01*
X152756486Y-122673271D01*
X152540035Y-122474267D01*
X152288919Y-122321314D01*
X152012789Y-122220291D01*
X151997026Y-122217642D01*
X151765000Y-122338783D01*
X151511000Y-122338783D01*
X151278974Y-122217642D01*
X151263211Y-122220291D01*
X150987081Y-122321314D01*
X150735965Y-122474267D01*
X150519514Y-122673271D01*
X150371424Y-122875947D01*
X150350069Y-122835994D01*
X150162797Y-122607803D01*
X149934605Y-122420531D01*
X149674263Y-122281375D01*
X149391776Y-122195684D01*
X149098000Y-122166749D01*
X148804223Y-122195684D01*
X148521736Y-122281375D01*
X148261394Y-122420531D01*
X148033203Y-122607803D01*
X147845931Y-122835995D01*
X147828000Y-122869541D01*
X147810069Y-122835994D01*
X147622797Y-122607803D01*
X147394605Y-122420531D01*
X147134263Y-122281375D01*
X146851776Y-122195684D01*
X146558000Y-122166749D01*
X146264223Y-122195684D01*
X145981736Y-122281375D01*
X145721394Y-122420531D01*
X145493203Y-122607803D01*
X145305931Y-122835995D01*
X145288000Y-122869541D01*
X145270069Y-122835994D01*
X145082797Y-122607803D01*
X144854605Y-122420531D01*
X144778000Y-122379585D01*
X144778000Y-120325413D01*
X146078192Y-120325413D01*
X146173956Y-120589814D01*
X146463571Y-120730704D01*
X146775108Y-120812384D01*
X147096595Y-120831718D01*
X147415675Y-120787961D01*
X147720088Y-120682795D01*
X147894044Y-120589814D01*
X147989808Y-120325413D01*
X147034000Y-119369605D01*
X146078192Y-120325413D01*
X144778000Y-120325413D01*
X144778000Y-119252595D01*
X145392282Y-119252595D01*
X145436039Y-119571675D01*
X145541205Y-119876088D01*
X145634186Y-120050044D01*
X145898587Y-120145808D01*
X146854395Y-119190000D01*
X147213605Y-119190000D01*
X148169413Y-120145808D01*
X148433814Y-120050044D01*
X148574704Y-119760429D01*
X148656384Y-119448892D01*
X148675718Y-119127405D01*
X148631961Y-118808325D01*
X148526795Y-118503912D01*
X148433814Y-118329956D01*
X148169413Y-118234192D01*
X147213605Y-119190000D01*
X146854395Y-119190000D01*
X145898587Y-118234192D01*
X145634186Y-118329956D01*
X145493296Y-118619571D01*
X145411616Y-118931108D01*
X145392282Y-119252595D01*
X144778000Y-119252595D01*
X144778000Y-118054587D01*
X146078192Y-118054587D01*
X147034000Y-119010395D01*
X147989808Y-118054587D01*
X147894044Y-117790186D01*
X147604429Y-117649296D01*
X147292892Y-117567616D01*
X146971405Y-117548282D01*
X146652325Y-117592039D01*
X146347912Y-117697205D01*
X146173956Y-117790186D01*
X146078192Y-118054587D01*
X144778000Y-118054587D01*
X144778000Y-112041201D01*
X145426007Y-111393195D01*
X145399000Y-111528967D01*
X145399000Y-111851033D01*
X145461832Y-112166912D01*
X145585082Y-112464463D01*
X145764013Y-112732252D01*
X145991748Y-112959987D01*
X146259537Y-113138918D01*
X146557088Y-113262168D01*
X146872967Y-113325000D01*
X147195033Y-113325000D01*
X147510912Y-113262168D01*
X147808463Y-113138918D01*
X148076252Y-112959987D01*
X148210826Y-112825413D01*
X152270192Y-112825413D01*
X152365956Y-113089814D01*
X152655571Y-113230704D01*
X152967108Y-113312384D01*
X153288595Y-113331718D01*
X153607675Y-113287961D01*
X153912088Y-113182795D01*
X154086044Y-113089814D01*
X154181808Y-112825413D01*
X153226000Y-111869605D01*
X152270192Y-112825413D01*
X148210826Y-112825413D01*
X148303987Y-112732252D01*
X148482918Y-112464463D01*
X148606168Y-112166912D01*
X148669000Y-111851033D01*
X148669000Y-111752595D01*
X151584282Y-111752595D01*
X151628039Y-112071675D01*
X151733205Y-112376088D01*
X151826186Y-112550044D01*
X152090587Y-112645808D01*
X153046395Y-111690000D01*
X152090587Y-110734192D01*
X151826186Y-110829956D01*
X151685296Y-111119571D01*
X151603616Y-111431108D01*
X151584282Y-111752595D01*
X148669000Y-111752595D01*
X148669000Y-111528967D01*
X148606168Y-111213088D01*
X148482918Y-110915537D01*
X148303987Y-110647748D01*
X148210826Y-110554587D01*
X152270192Y-110554587D01*
X153226000Y-111510395D01*
X154181808Y-110554587D01*
X154086044Y-110290186D01*
X153796429Y-110149296D01*
X153484892Y-110067616D01*
X153163405Y-110048282D01*
X152844325Y-110092039D01*
X152539912Y-110197205D01*
X152365956Y-110290186D01*
X152270192Y-110554587D01*
X148210826Y-110554587D01*
X148134670Y-110478431D01*
X149609003Y-109004099D01*
X149638001Y-108980301D01*
X149732974Y-108864576D01*
X149803546Y-108732547D01*
X149847003Y-108589286D01*
X149851942Y-108539139D01*
X149899101Y-108513932D01*
X150117608Y-108334608D01*
X150296932Y-108116101D01*
X150368000Y-107983142D01*
X150439068Y-108116101D01*
X150618392Y-108334608D01*
X150836899Y-108513932D01*
X151086192Y-108647182D01*
X151356691Y-108729236D01*
X151567508Y-108750000D01*
X151708492Y-108750000D01*
X151919309Y-108729236D01*
X152189808Y-108647182D01*
X152439101Y-108513932D01*
X152657608Y-108334608D01*
X152836932Y-108116101D01*
X152910579Y-107978318D01*
X153025615Y-108170131D01*
X153214586Y-108378519D01*
X153440580Y-108546037D01*
X153694913Y-108666246D01*
X153828961Y-108706904D01*
X154051000Y-108584915D01*
X154051000Y-107442000D01*
X154031000Y-107442000D01*
X154031000Y-107188000D01*
X154051000Y-107188000D01*
X154051000Y-106045085D01*
X153828961Y-105923096D01*
X153694913Y-105963754D01*
X153440580Y-106083963D01*
X153214586Y-106251481D01*
X153025615Y-106459869D01*
X152910579Y-106651682D01*
X152836932Y-106513899D01*
X152657608Y-106295392D01*
X152439101Y-106116068D01*
X152398000Y-106094099D01*
X152398000Y-104620022D01*
X152401676Y-104582699D01*
X152398000Y-104545376D01*
X152398000Y-104545367D01*
X152387003Y-104433714D01*
X152343546Y-104290453D01*
X152300060Y-104209097D01*
X152272974Y-104158423D01*
X152201799Y-104071697D01*
X152178001Y-104042699D01*
X152149004Y-104018902D01*
X150170400Y-102040299D01*
X150170400Y-101806935D01*
X150238986Y-101704289D01*
X150309468Y-101534129D01*
X150345400Y-101353489D01*
X150345400Y-101169311D01*
X150309468Y-100988671D01*
X150238986Y-100818511D01*
X150146245Y-100679714D01*
X150296932Y-100496101D01*
X150322139Y-100448942D01*
X150372286Y-100444003D01*
X150414320Y-100431252D01*
X150485615Y-100550131D01*
X150674586Y-100758519D01*
X150900580Y-100926037D01*
X151154913Y-101046246D01*
X151288961Y-101086904D01*
X151511000Y-100964915D01*
X151511000Y-99822000D01*
X151491000Y-99822000D01*
X151491000Y-99568000D01*
X151511000Y-99568000D01*
X151511000Y-99548000D01*
X151765000Y-99548000D01*
X151765000Y-99568000D01*
X151765000Y-99568000D01*
G37*
X151765000Y-99568000D02*
X151785000Y-99568000D01*
X151785000Y-99822000D01*
X151765000Y-99822000D01*
X151765000Y-100964915D01*
X151987039Y-101086904D01*
X152121087Y-101046246D01*
X152375420Y-100926037D01*
X152601414Y-100758519D01*
X152790385Y-100550131D01*
X152905421Y-100358318D01*
X152979068Y-100496101D01*
X153158392Y-100714608D01*
X153376899Y-100893932D01*
X153424059Y-100919140D01*
X153428998Y-100969286D01*
X153434878Y-100988671D01*
X153472454Y-101112546D01*
X153543026Y-101244576D01*
X153597889Y-101311426D01*
X153638000Y-101360301D01*
X153666998Y-101384099D01*
X154544100Y-102261202D01*
X154544100Y-105928271D01*
X154527039Y-105923096D01*
X154305000Y-106045085D01*
X154305000Y-107188000D01*
X154325000Y-107188000D01*
X154325000Y-107442000D01*
X154305000Y-107442000D01*
X154305000Y-108584915D01*
X154527039Y-108706904D01*
X154544100Y-108701729D01*
X154544101Y-110800360D01*
X154361413Y-110734192D01*
X153405605Y-111690000D01*
X154361413Y-112645808D01*
X154544101Y-112579640D01*
X154544101Y-116797097D01*
X153717376Y-117623823D01*
X153702912Y-117617832D01*
X153387033Y-117555000D01*
X153064967Y-117555000D01*
X152749088Y-117617832D01*
X152451537Y-117741082D01*
X152183748Y-117920013D01*
X151956013Y-118147748D01*
X151777082Y-118415537D01*
X151653832Y-118713088D01*
X151591000Y-119028967D01*
X151591000Y-119351033D01*
X151653832Y-119666912D01*
X151777082Y-119964463D01*
X151956013Y-120232252D01*
X152183748Y-120459987D01*
X152451537Y-120638918D01*
X152749088Y-120762168D01*
X153064967Y-120825000D01*
X153387033Y-120825000D01*
X153702912Y-120762168D01*
X154000463Y-120638918D01*
X154268252Y-120459987D01*
X154495987Y-120232252D01*
X154674918Y-119964463D01*
X154798168Y-119666912D01*
X154861000Y-119351033D01*
X154861000Y-119028967D01*
X154798168Y-118713088D01*
X154792177Y-118698624D01*
X155815103Y-117675699D01*
X155844101Y-117651901D01*
X155939074Y-117536176D01*
X156009646Y-117404147D01*
X156053103Y-117260886D01*
X156064100Y-117149233D01*
X156064100Y-117149224D01*
X156067776Y-117111901D01*
X156064100Y-117074578D01*
X156064100Y-111876168D01*
X156083026Y-111911576D01*
X156113651Y-111948892D01*
X156177999Y-112027301D01*
X156207003Y-112051104D01*
X157844648Y-113688750D01*
X157755277Y-113697552D01*
X157409378Y-113802479D01*
X157090596Y-113972871D01*
X156811181Y-114202181D01*
X156581871Y-114481596D01*
X156411479Y-114800378D01*
X156306552Y-115146277D01*
X156271122Y-115506000D01*
X156306552Y-115865723D01*
X156411479Y-116211622D01*
X156581871Y-116530404D01*
X156811181Y-116809819D01*
X157090596Y-117039129D01*
X157409378Y-117209521D01*
X157755277Y-117314448D01*
X158024861Y-117341000D01*
X158205139Y-117341000D01*
X158474723Y-117314448D01*
X158820622Y-117209521D01*
X159139404Y-117039129D01*
X159418819Y-116809819D01*
X159648129Y-116530404D01*
X159818521Y-116211622D01*
X159923448Y-115865723D01*
X159932250Y-115776352D01*
X161038001Y-116882103D01*
X161038001Y-118767928D01*
X159855000Y-118767928D01*
X159730518Y-118780188D01*
X159610820Y-118816498D01*
X159500506Y-118875463D01*
X159403815Y-118954815D01*
X159324463Y-119051506D01*
X159265498Y-119161820D01*
X159229188Y-119281518D01*
X159216928Y-119406000D01*
X159216928Y-121006000D01*
X159229188Y-121130482D01*
X159265498Y-121250180D01*
X159324463Y-121360494D01*
X159403815Y-121457185D01*
X159500506Y-121536537D01*
X159610820Y-121595502D01*
X159730518Y-121631812D01*
X159855000Y-121644072D01*
X161038000Y-121644072D01*
X161038000Y-122379584D01*
X160961394Y-122420531D01*
X160733203Y-122607803D01*
X160545931Y-122835995D01*
X160406775Y-123096337D01*
X160321084Y-123378824D01*
X160299400Y-123598982D01*
X160299400Y-124051019D01*
X160321084Y-124271177D01*
X160371841Y-124438500D01*
X158144159Y-124438500D01*
X158194916Y-124271176D01*
X158216600Y-124051018D01*
X158216600Y-123598981D01*
X158194916Y-123378823D01*
X158109225Y-123096336D01*
X157970069Y-122835994D01*
X157782797Y-122607803D01*
X157554605Y-122420531D01*
X157294263Y-122281375D01*
X157011776Y-122195684D01*
X156718000Y-122166749D01*
X156424223Y-122195684D01*
X156141736Y-122281375D01*
X155881394Y-122420531D01*
X155653203Y-122607803D01*
X155465931Y-122835995D01*
X155444576Y-122875947D01*
X155296486Y-122673271D01*
X155080035Y-122474267D01*
X154828919Y-122321314D01*
X154552789Y-122220291D01*
X154537026Y-122217642D01*
X154305000Y-122338783D01*
X154305000Y-123698000D01*
X154325000Y-123698000D01*
X154325000Y-123952000D01*
X154305000Y-123952000D01*
X154305000Y-123972000D01*
X154051000Y-123972000D01*
X154051000Y-123952000D01*
X151765000Y-123952000D01*
X151765000Y-123972000D01*
X151511000Y-123972000D01*
X151511000Y-123952000D01*
X151491000Y-123952000D01*
X151491000Y-123698000D01*
X151511000Y-123698000D01*
X151511000Y-122338783D01*
X151765000Y-122338783D01*
X151765000Y-123698000D01*
X154051000Y-123698000D01*
X154051000Y-122338783D01*
X153818974Y-122217642D01*
X153803211Y-122220291D01*
X153527081Y-122321314D01*
X153275965Y-122474267D01*
X153059514Y-122673271D01*
X152908000Y-122880633D01*
X152756486Y-122673271D01*
X152540035Y-122474267D01*
X152288919Y-122321314D01*
X152012789Y-122220291D01*
X151997026Y-122217642D01*
X151765000Y-122338783D01*
X151511000Y-122338783D01*
X151278974Y-122217642D01*
X151263211Y-122220291D01*
X150987081Y-122321314D01*
X150735965Y-122474267D01*
X150519514Y-122673271D01*
X150371424Y-122875947D01*
X150350069Y-122835994D01*
X150162797Y-122607803D01*
X149934605Y-122420531D01*
X149674263Y-122281375D01*
X149391776Y-122195684D01*
X149098000Y-122166749D01*
X148804223Y-122195684D01*
X148521736Y-122281375D01*
X148261394Y-122420531D01*
X148033203Y-122607803D01*
X147845931Y-122835995D01*
X147828000Y-122869541D01*
X147810069Y-122835994D01*
X147622797Y-122607803D01*
X147394605Y-122420531D01*
X147134263Y-122281375D01*
X146851776Y-122195684D01*
X146558000Y-122166749D01*
X146264223Y-122195684D01*
X145981736Y-122281375D01*
X145721394Y-122420531D01*
X145493203Y-122607803D01*
X145305931Y-122835995D01*
X145288000Y-122869541D01*
X145270069Y-122835994D01*
X145082797Y-122607803D01*
X144854605Y-122420531D01*
X144778000Y-122379585D01*
X144778000Y-120325413D01*
X146078192Y-120325413D01*
X146173956Y-120589814D01*
X146463571Y-120730704D01*
X146775108Y-120812384D01*
X147096595Y-120831718D01*
X147415675Y-120787961D01*
X147720088Y-120682795D01*
X147894044Y-120589814D01*
X147989808Y-120325413D01*
X147034000Y-119369605D01*
X146078192Y-120325413D01*
X144778000Y-120325413D01*
X144778000Y-119252595D01*
X145392282Y-119252595D01*
X145436039Y-119571675D01*
X145541205Y-119876088D01*
X145634186Y-120050044D01*
X145898587Y-120145808D01*
X146854395Y-119190000D01*
X147213605Y-119190000D01*
X148169413Y-120145808D01*
X148433814Y-120050044D01*
X148574704Y-119760429D01*
X148656384Y-119448892D01*
X148675718Y-119127405D01*
X148631961Y-118808325D01*
X148526795Y-118503912D01*
X148433814Y-118329956D01*
X148169413Y-118234192D01*
X147213605Y-119190000D01*
X146854395Y-119190000D01*
X145898587Y-118234192D01*
X145634186Y-118329956D01*
X145493296Y-118619571D01*
X145411616Y-118931108D01*
X145392282Y-119252595D01*
X144778000Y-119252595D01*
X144778000Y-118054587D01*
X146078192Y-118054587D01*
X147034000Y-119010395D01*
X147989808Y-118054587D01*
X147894044Y-117790186D01*
X147604429Y-117649296D01*
X147292892Y-117567616D01*
X146971405Y-117548282D01*
X146652325Y-117592039D01*
X146347912Y-117697205D01*
X146173956Y-117790186D01*
X146078192Y-118054587D01*
X144778000Y-118054587D01*
X144778000Y-112041201D01*
X145426007Y-111393195D01*
X145399000Y-111528967D01*
X145399000Y-111851033D01*
X145461832Y-112166912D01*
X145585082Y-112464463D01*
X145764013Y-112732252D01*
X145991748Y-112959987D01*
X146259537Y-113138918D01*
X146557088Y-113262168D01*
X146872967Y-113325000D01*
X147195033Y-113325000D01*
X147510912Y-113262168D01*
X147808463Y-113138918D01*
X148076252Y-112959987D01*
X148210826Y-112825413D01*
X152270192Y-112825413D01*
X152365956Y-113089814D01*
X152655571Y-113230704D01*
X152967108Y-113312384D01*
X153288595Y-113331718D01*
X153607675Y-113287961D01*
X153912088Y-113182795D01*
X154086044Y-113089814D01*
X154181808Y-112825413D01*
X153226000Y-111869605D01*
X152270192Y-112825413D01*
X148210826Y-112825413D01*
X148303987Y-112732252D01*
X148482918Y-112464463D01*
X148606168Y-112166912D01*
X148669000Y-111851033D01*
X148669000Y-111752595D01*
X151584282Y-111752595D01*
X151628039Y-112071675D01*
X151733205Y-112376088D01*
X151826186Y-112550044D01*
X152090587Y-112645808D01*
X153046395Y-111690000D01*
X152090587Y-110734192D01*
X151826186Y-110829956D01*
X151685296Y-111119571D01*
X151603616Y-111431108D01*
X151584282Y-111752595D01*
X148669000Y-111752595D01*
X148669000Y-111528967D01*
X148606168Y-111213088D01*
X148482918Y-110915537D01*
X148303987Y-110647748D01*
X148210826Y-110554587D01*
X152270192Y-110554587D01*
X153226000Y-111510395D01*
X154181808Y-110554587D01*
X154086044Y-110290186D01*
X153796429Y-110149296D01*
X153484892Y-110067616D01*
X153163405Y-110048282D01*
X152844325Y-110092039D01*
X152539912Y-110197205D01*
X152365956Y-110290186D01*
X152270192Y-110554587D01*
X148210826Y-110554587D01*
X148134670Y-110478431D01*
X149609003Y-109004099D01*
X149638001Y-108980301D01*
X149732974Y-108864576D01*
X149803546Y-108732547D01*
X149847003Y-108589286D01*
X149851942Y-108539139D01*
X149899101Y-108513932D01*
X150117608Y-108334608D01*
X150296932Y-108116101D01*
X150368000Y-107983142D01*
X150439068Y-108116101D01*
X150618392Y-108334608D01*
X150836899Y-108513932D01*
X151086192Y-108647182D01*
X151356691Y-108729236D01*
X151567508Y-108750000D01*
X151708492Y-108750000D01*
X151919309Y-108729236D01*
X152189808Y-108647182D01*
X152439101Y-108513932D01*
X152657608Y-108334608D01*
X152836932Y-108116101D01*
X152910579Y-107978318D01*
X153025615Y-108170131D01*
X153214586Y-108378519D01*
X153440580Y-108546037D01*
X153694913Y-108666246D01*
X153828961Y-108706904D01*
X154051000Y-108584915D01*
X154051000Y-107442000D01*
X154031000Y-107442000D01*
X154031000Y-107188000D01*
X154051000Y-107188000D01*
X154051000Y-106045085D01*
X153828961Y-105923096D01*
X153694913Y-105963754D01*
X153440580Y-106083963D01*
X153214586Y-106251481D01*
X153025615Y-106459869D01*
X152910579Y-106651682D01*
X152836932Y-106513899D01*
X152657608Y-106295392D01*
X152439101Y-106116068D01*
X152398000Y-106094099D01*
X152398000Y-104620022D01*
X152401676Y-104582699D01*
X152398000Y-104545376D01*
X152398000Y-104545367D01*
X152387003Y-104433714D01*
X152343546Y-104290453D01*
X152300060Y-104209097D01*
X152272974Y-104158423D01*
X152201799Y-104071697D01*
X152178001Y-104042699D01*
X152149004Y-104018902D01*
X150170400Y-102040299D01*
X150170400Y-101806935D01*
X150238986Y-101704289D01*
X150309468Y-101534129D01*
X150345400Y-101353489D01*
X150345400Y-101169311D01*
X150309468Y-100988671D01*
X150238986Y-100818511D01*
X150146245Y-100679714D01*
X150296932Y-100496101D01*
X150322139Y-100448942D01*
X150372286Y-100444003D01*
X150414320Y-100431252D01*
X150485615Y-100550131D01*
X150674586Y-100758519D01*
X150900580Y-100926037D01*
X151154913Y-101046246D01*
X151288961Y-101086904D01*
X151511000Y-100964915D01*
X151511000Y-99822000D01*
X151491000Y-99822000D01*
X151491000Y-99568000D01*
X151511000Y-99568000D01*
X151511000Y-99548000D01*
X151765000Y-99548000D01*
X151765000Y-99568000D01*
G36*
X170942000Y-120079000D02*
G01*
X170962000Y-120079000D01*
X170962000Y-120333000D01*
X170942000Y-120333000D01*
X170942000Y-120353000D01*
X170688000Y-120353000D01*
X170688000Y-120333000D01*
X170668000Y-120333000D01*
X170668000Y-120079000D01*
X170688000Y-120079000D01*
X170688000Y-120059000D01*
X170942000Y-120059000D01*
X170942000Y-120079000D01*
X170942000Y-120079000D01*
G37*
X170942000Y-120079000D02*
X170962000Y-120079000D01*
X170962000Y-120333000D01*
X170942000Y-120333000D01*
X170942000Y-120353000D01*
X170688000Y-120353000D01*
X170688000Y-120333000D01*
X170668000Y-120333000D01*
X170668000Y-120079000D01*
X170688000Y-120079000D01*
X170688000Y-120059000D01*
X170942000Y-120059000D01*
X170942000Y-120079000D01*
G36*
X131765748Y-113841858D02*
G01*
X131751605Y-113856000D01*
X131765748Y-113870143D01*
X131586143Y-114049748D01*
X131572000Y-114035605D01*
X131557858Y-114049748D01*
X131378253Y-113870143D01*
X131392395Y-113856000D01*
X131378253Y-113841858D01*
X131557858Y-113662253D01*
X131572000Y-113676395D01*
X131586143Y-113662253D01*
X131765748Y-113841858D01*
X131765748Y-113841858D01*
G37*
X131765748Y-113841858D02*
X131751605Y-113856000D01*
X131765748Y-113870143D01*
X131586143Y-114049748D01*
X131572000Y-114035605D01*
X131557858Y-114049748D01*
X131378253Y-113870143D01*
X131392395Y-113856000D01*
X131378253Y-113841858D01*
X131557858Y-113662253D01*
X131572000Y-113676395D01*
X131586143Y-113662253D01*
X131765748Y-113841858D01*
G36*
X177292000Y-100838000D02*
G01*
X177312000Y-100838000D01*
X177312000Y-101092000D01*
X177292000Y-101092000D01*
X177292000Y-102285814D01*
X177521891Y-102406481D01*
X177593701Y-102381008D01*
X177593700Y-103797276D01*
X177460750Y-103798000D01*
X177302000Y-103956750D01*
X177302000Y-105156000D01*
X177322000Y-105156000D01*
X177322000Y-105410000D01*
X177302000Y-105410000D01*
X177302000Y-105430000D01*
X177048000Y-105430000D01*
X177048000Y-105410000D01*
X177028000Y-105410000D01*
X177028000Y-105156000D01*
X177048000Y-105156000D01*
X177048000Y-103956750D01*
X176889250Y-103798000D01*
X176325000Y-103794928D01*
X176200518Y-103807188D01*
X176080820Y-103843498D01*
X175970506Y-103902463D01*
X175873815Y-103981815D01*
X175794463Y-104078506D01*
X175735498Y-104188820D01*
X175699188Y-104308518D01*
X175686928Y-104433000D01*
X175689445Y-104895344D01*
X173520900Y-102726799D01*
X173520900Y-101960469D01*
X173569866Y-102020134D01*
X173795986Y-102205706D01*
X174053966Y-102343599D01*
X174333889Y-102428513D01*
X174552050Y-102450000D01*
X174697950Y-102450000D01*
X174916111Y-102428513D01*
X175196034Y-102343599D01*
X175454014Y-102205706D01*
X175680134Y-102020134D01*
X175865706Y-101794014D01*
X175896584Y-101736244D01*
X176067412Y-101965269D01*
X176283645Y-102160178D01*
X176533748Y-102309157D01*
X176808109Y-102406481D01*
X177038000Y-102285814D01*
X177038000Y-101092000D01*
X177018000Y-101092000D01*
X177018000Y-100838000D01*
X177038000Y-100838000D01*
X177038000Y-100818000D01*
X177292000Y-100818000D01*
X177292000Y-100838000D01*
X177292000Y-100838000D01*
G37*
X177292000Y-100838000D02*
X177312000Y-100838000D01*
X177312000Y-101092000D01*
X177292000Y-101092000D01*
X177292000Y-102285814D01*
X177521891Y-102406481D01*
X177593701Y-102381008D01*
X177593700Y-103797276D01*
X177460750Y-103798000D01*
X177302000Y-103956750D01*
X177302000Y-105156000D01*
X177322000Y-105156000D01*
X177322000Y-105410000D01*
X177302000Y-105410000D01*
X177302000Y-105430000D01*
X177048000Y-105430000D01*
X177048000Y-105410000D01*
X177028000Y-105410000D01*
X177028000Y-105156000D01*
X177048000Y-105156000D01*
X177048000Y-103956750D01*
X176889250Y-103798000D01*
X176325000Y-103794928D01*
X176200518Y-103807188D01*
X176080820Y-103843498D01*
X175970506Y-103902463D01*
X175873815Y-103981815D01*
X175794463Y-104078506D01*
X175735498Y-104188820D01*
X175699188Y-104308518D01*
X175686928Y-104433000D01*
X175689445Y-104895344D01*
X173520900Y-102726799D01*
X173520900Y-101960469D01*
X173569866Y-102020134D01*
X173795986Y-102205706D01*
X174053966Y-102343599D01*
X174333889Y-102428513D01*
X174552050Y-102450000D01*
X174697950Y-102450000D01*
X174916111Y-102428513D01*
X175196034Y-102343599D01*
X175454014Y-102205706D01*
X175680134Y-102020134D01*
X175865706Y-101794014D01*
X175896584Y-101736244D01*
X176067412Y-101965269D01*
X176283645Y-102160178D01*
X176533748Y-102309157D01*
X176808109Y-102406481D01*
X177038000Y-102285814D01*
X177038000Y-101092000D01*
X177018000Y-101092000D01*
X177018000Y-100838000D01*
X177038000Y-100838000D01*
X177038000Y-100818000D01*
X177292000Y-100818000D01*
X177292000Y-100838000D01*
G36*
X140712392Y-87760608D02*
G01*
X140930899Y-87939932D01*
X141021721Y-87988477D01*
X139117103Y-89893096D01*
X139088099Y-89916899D01*
X139052885Y-89959808D01*
X138993126Y-90032624D01*
X138955372Y-90103257D01*
X138922554Y-90164654D01*
X138879097Y-90307915D01*
X138868100Y-90419568D01*
X138868100Y-90419578D01*
X138864424Y-90456900D01*
X138868100Y-90494223D01*
X138868101Y-94005163D01*
X138799514Y-94107811D01*
X138729032Y-94277971D01*
X138701576Y-94416000D01*
X138670533Y-94416000D01*
X138633200Y-94412323D01*
X138595867Y-94416000D01*
X138484214Y-94426997D01*
X138340953Y-94470454D01*
X138208924Y-94541026D01*
X138093199Y-94635999D01*
X138069401Y-94664997D01*
X134261198Y-98473201D01*
X134232200Y-98496999D01*
X134208402Y-98525997D01*
X134208401Y-98525998D01*
X134137226Y-98612724D01*
X134066654Y-98744754D01*
X134044602Y-98817453D01*
X134023198Y-98888014D01*
X134013825Y-98983176D01*
X134008524Y-99037000D01*
X134012201Y-99074332D01*
X134012200Y-105162899D01*
X133914753Y-105065451D01*
X133890668Y-104944371D01*
X133820186Y-104774211D01*
X133740239Y-104654562D01*
X133791274Y-104592376D01*
X133861846Y-104460347D01*
X133905303Y-104317086D01*
X133916300Y-104205433D01*
X133916300Y-104205425D01*
X133919976Y-104168100D01*
X133916300Y-104130775D01*
X133916300Y-93991000D01*
X135293928Y-93991000D01*
X135306188Y-94115482D01*
X135342498Y-94235180D01*
X135401463Y-94345494D01*
X135480815Y-94442185D01*
X135577506Y-94521537D01*
X135687820Y-94580502D01*
X135807518Y-94616812D01*
X135932000Y-94629072D01*
X136546250Y-94626000D01*
X136705000Y-94467250D01*
X136705000Y-93218000D01*
X136959000Y-93218000D01*
X136959000Y-94467250D01*
X137117750Y-94626000D01*
X137732000Y-94629072D01*
X137856482Y-94616812D01*
X137976180Y-94580502D01*
X138086494Y-94521537D01*
X138183185Y-94442185D01*
X138262537Y-94345494D01*
X138321502Y-94235180D01*
X138357812Y-94115482D01*
X138370072Y-93991000D01*
X138367000Y-93376750D01*
X138208250Y-93218000D01*
X136959000Y-93218000D01*
X136705000Y-93218000D01*
X135455750Y-93218000D01*
X135297000Y-93376750D01*
X135293928Y-93991000D01*
X133916300Y-93991000D01*
X133916300Y-92670001D01*
X135423814Y-91162487D01*
X135471701Y-91278095D01*
X135639688Y-91529505D01*
X135706127Y-91595944D01*
X135687820Y-91601498D01*
X135577506Y-91660463D01*
X135480815Y-91739815D01*
X135401463Y-91836506D01*
X135342498Y-91946820D01*
X135306188Y-92066518D01*
X135293928Y-92191000D01*
X135297000Y-92805250D01*
X135455750Y-92964000D01*
X136705000Y-92964000D01*
X136705000Y-92944000D01*
X136959000Y-92944000D01*
X136959000Y-92964000D01*
X138208250Y-92964000D01*
X138367000Y-92805250D01*
X138370072Y-92191000D01*
X138357812Y-92066518D01*
X138321502Y-91946820D01*
X138262537Y-91836506D01*
X138183185Y-91739815D01*
X138086494Y-91660463D01*
X137976180Y-91601498D01*
X137957873Y-91595944D01*
X138024312Y-91529505D01*
X138192299Y-91278095D01*
X138308011Y-90998743D01*
X138367000Y-90702184D01*
X138367000Y-90399816D01*
X138315731Y-90142070D01*
X140705541Y-87752260D01*
X140712392Y-87760608D01*
X140712392Y-87760608D01*
G37*
X140712392Y-87760608D02*
X140930899Y-87939932D01*
X141021721Y-87988477D01*
X139117103Y-89893096D01*
X139088099Y-89916899D01*
X139052885Y-89959808D01*
X138993126Y-90032624D01*
X138955372Y-90103257D01*
X138922554Y-90164654D01*
X138879097Y-90307915D01*
X138868100Y-90419568D01*
X138868100Y-90419578D01*
X138864424Y-90456900D01*
X138868100Y-90494223D01*
X138868101Y-94005163D01*
X138799514Y-94107811D01*
X138729032Y-94277971D01*
X138701576Y-94416000D01*
X138670533Y-94416000D01*
X138633200Y-94412323D01*
X138595867Y-94416000D01*
X138484214Y-94426997D01*
X138340953Y-94470454D01*
X138208924Y-94541026D01*
X138093199Y-94635999D01*
X138069401Y-94664997D01*
X134261198Y-98473201D01*
X134232200Y-98496999D01*
X134208402Y-98525997D01*
X134208401Y-98525998D01*
X134137226Y-98612724D01*
X134066654Y-98744754D01*
X134044602Y-98817453D01*
X134023198Y-98888014D01*
X134013825Y-98983176D01*
X134008524Y-99037000D01*
X134012201Y-99074332D01*
X134012200Y-105162899D01*
X133914753Y-105065451D01*
X133890668Y-104944371D01*
X133820186Y-104774211D01*
X133740239Y-104654562D01*
X133791274Y-104592376D01*
X133861846Y-104460347D01*
X133905303Y-104317086D01*
X133916300Y-104205433D01*
X133916300Y-104205425D01*
X133919976Y-104168100D01*
X133916300Y-104130775D01*
X133916300Y-93991000D01*
X135293928Y-93991000D01*
X135306188Y-94115482D01*
X135342498Y-94235180D01*
X135401463Y-94345494D01*
X135480815Y-94442185D01*
X135577506Y-94521537D01*
X135687820Y-94580502D01*
X135807518Y-94616812D01*
X135932000Y-94629072D01*
X136546250Y-94626000D01*
X136705000Y-94467250D01*
X136705000Y-93218000D01*
X136959000Y-93218000D01*
X136959000Y-94467250D01*
X137117750Y-94626000D01*
X137732000Y-94629072D01*
X137856482Y-94616812D01*
X137976180Y-94580502D01*
X138086494Y-94521537D01*
X138183185Y-94442185D01*
X138262537Y-94345494D01*
X138321502Y-94235180D01*
X138357812Y-94115482D01*
X138370072Y-93991000D01*
X138367000Y-93376750D01*
X138208250Y-93218000D01*
X136959000Y-93218000D01*
X136705000Y-93218000D01*
X135455750Y-93218000D01*
X135297000Y-93376750D01*
X135293928Y-93991000D01*
X133916300Y-93991000D01*
X133916300Y-92670001D01*
X135423814Y-91162487D01*
X135471701Y-91278095D01*
X135639688Y-91529505D01*
X135706127Y-91595944D01*
X135687820Y-91601498D01*
X135577506Y-91660463D01*
X135480815Y-91739815D01*
X135401463Y-91836506D01*
X135342498Y-91946820D01*
X135306188Y-92066518D01*
X135293928Y-92191000D01*
X135297000Y-92805250D01*
X135455750Y-92964000D01*
X136705000Y-92964000D01*
X136705000Y-92944000D01*
X136959000Y-92944000D01*
X136959000Y-92964000D01*
X138208250Y-92964000D01*
X138367000Y-92805250D01*
X138370072Y-92191000D01*
X138357812Y-92066518D01*
X138321502Y-91946820D01*
X138262537Y-91836506D01*
X138183185Y-91739815D01*
X138086494Y-91660463D01*
X137976180Y-91601498D01*
X137957873Y-91595944D01*
X138024312Y-91529505D01*
X138192299Y-91278095D01*
X138308011Y-90998743D01*
X138367000Y-90702184D01*
X138367000Y-90399816D01*
X138315731Y-90142070D01*
X140705541Y-87752260D01*
X140712392Y-87760608D01*
G36*
X132058000Y-92964000D02*
G01*
X132078000Y-92964000D01*
X132078000Y-93218000D01*
X132058000Y-93218000D01*
X132058000Y-94467250D01*
X132216750Y-94626000D01*
X132396300Y-94626898D01*
X132396301Y-103853297D01*
X132046000Y-104203599D01*
X132046000Y-95450933D01*
X132049677Y-95413600D01*
X132035003Y-95264614D01*
X131991546Y-95121353D01*
X131920974Y-94989324D01*
X131881902Y-94941715D01*
X131826001Y-94873599D01*
X131797002Y-94849800D01*
X131573560Y-94626359D01*
X131645250Y-94626000D01*
X131804000Y-94467250D01*
X131804000Y-93218000D01*
X131784000Y-93218000D01*
X131784000Y-92964000D01*
X131804000Y-92964000D01*
X131804000Y-92944000D01*
X132058000Y-92944000D01*
X132058000Y-92964000D01*
X132058000Y-92964000D01*
G37*
X132058000Y-92964000D02*
X132078000Y-92964000D01*
X132078000Y-93218000D01*
X132058000Y-93218000D01*
X132058000Y-94467250D01*
X132216750Y-94626000D01*
X132396300Y-94626898D01*
X132396301Y-103853297D01*
X132046000Y-104203599D01*
X132046000Y-95450933D01*
X132049677Y-95413600D01*
X132035003Y-95264614D01*
X131991546Y-95121353D01*
X131920974Y-94989324D01*
X131881902Y-94941715D01*
X131826001Y-94873599D01*
X131797002Y-94849800D01*
X131573560Y-94626359D01*
X131645250Y-94626000D01*
X131804000Y-94467250D01*
X131804000Y-93218000D01*
X131784000Y-93218000D01*
X131784000Y-92964000D01*
X131804000Y-92964000D01*
X131804000Y-92944000D01*
X132058000Y-92944000D01*
X132058000Y-92964000D01*
G36*
X159841701Y-85018797D02*
G01*
X157596803Y-87263696D01*
X157567799Y-87287499D01*
X157533482Y-87329315D01*
X157472826Y-87403224D01*
X157420563Y-87501000D01*
X157402254Y-87535254D01*
X157358797Y-87678515D01*
X157347800Y-87790168D01*
X157347800Y-87790178D01*
X157344124Y-87827500D01*
X157347800Y-87864823D01*
X157347801Y-89834168D01*
X157344124Y-89871500D01*
X157347801Y-89908833D01*
X157358798Y-90020486D01*
X157366848Y-90047024D01*
X157402254Y-90163746D01*
X157472826Y-90295776D01*
X157544001Y-90382502D01*
X157567800Y-90411501D01*
X157596798Y-90435299D01*
X158085970Y-90924472D01*
X158006917Y-91003525D01*
X158122585Y-91119193D01*
X157858186Y-91214956D01*
X157717296Y-91504571D01*
X157635616Y-91816108D01*
X157616282Y-92137595D01*
X157660039Y-92456675D01*
X157765205Y-92761088D01*
X157858186Y-92935044D01*
X158122587Y-93030808D01*
X159078395Y-92075000D01*
X159064253Y-92060858D01*
X159243858Y-91881253D01*
X159258000Y-91895395D01*
X159272143Y-91881253D01*
X159451748Y-92060858D01*
X159437605Y-92075000D01*
X159451748Y-92089143D01*
X159272143Y-92268748D01*
X159258000Y-92254605D01*
X158302192Y-93210413D01*
X158397956Y-93474814D01*
X158581429Y-93564069D01*
X156718576Y-95426923D01*
X156590702Y-95389403D01*
X155777605Y-96202500D01*
X155791748Y-96216643D01*
X155612143Y-96396248D01*
X155598000Y-96382105D01*
X154784903Y-97195202D01*
X154856486Y-97439171D01*
X155111996Y-97560071D01*
X155386184Y-97628800D01*
X155668512Y-97642717D01*
X155948130Y-97601287D01*
X156214292Y-97506103D01*
X156339514Y-97439171D01*
X156340401Y-97436149D01*
X156340401Y-97872498D01*
X156206998Y-98005901D01*
X156178000Y-98029699D01*
X156154202Y-98058697D01*
X156154201Y-98058698D01*
X156083026Y-98145424D01*
X156012454Y-98277454D01*
X155994608Y-98336287D01*
X155968998Y-98420714D01*
X155964059Y-98470860D01*
X155916899Y-98496068D01*
X155698392Y-98675392D01*
X155519068Y-98893899D01*
X155448000Y-99026858D01*
X155376932Y-98893899D01*
X155197608Y-98675392D01*
X154979101Y-98496068D01*
X154729808Y-98362818D01*
X154459309Y-98280764D01*
X154248492Y-98260000D01*
X154107508Y-98260000D01*
X153896691Y-98280764D01*
X153626192Y-98362818D01*
X153376899Y-98496068D01*
X153158392Y-98675392D01*
X152979068Y-98893899D01*
X152905421Y-99031682D01*
X152790385Y-98839869D01*
X152601414Y-98631481D01*
X152375420Y-98463963D01*
X152121087Y-98343754D01*
X152052385Y-98322916D01*
X152774114Y-97601188D01*
X152956665Y-97637500D01*
X153239335Y-97637500D01*
X153516574Y-97582353D01*
X153777727Y-97474180D01*
X154012759Y-97317137D01*
X154212637Y-97117259D01*
X154346692Y-96916631D01*
X154361329Y-96944014D01*
X154605298Y-97015597D01*
X155418395Y-96202500D01*
X154605298Y-95389403D01*
X154361329Y-95460986D01*
X154347676Y-95489841D01*
X154212637Y-95287741D01*
X154134694Y-95209798D01*
X154784903Y-95209798D01*
X155598000Y-96022895D01*
X156411097Y-95209798D01*
X156339514Y-94965829D01*
X156084004Y-94844929D01*
X155809816Y-94776200D01*
X155527488Y-94762283D01*
X155247870Y-94803713D01*
X154981708Y-94898897D01*
X154856486Y-94965829D01*
X154784903Y-95209798D01*
X154134694Y-95209798D01*
X154012759Y-95087863D01*
X153777727Y-94930820D01*
X153516574Y-94822647D01*
X153461425Y-94811677D01*
X155030003Y-93243099D01*
X155059001Y-93219301D01*
X155105862Y-93162201D01*
X155153974Y-93103577D01*
X155224546Y-92971547D01*
X155243019Y-92910647D01*
X155268003Y-92828286D01*
X155279000Y-92716633D01*
X155279000Y-92716623D01*
X155282676Y-92679300D01*
X155279000Y-92641977D01*
X155279000Y-88097114D01*
X155378960Y-88132909D01*
X155601000Y-88011624D01*
X155601000Y-86868000D01*
X155855000Y-86868000D01*
X155855000Y-88011624D01*
X156077040Y-88132909D01*
X156341881Y-88038070D01*
X156583131Y-87893385D01*
X156791519Y-87704414D01*
X156959037Y-87478420D01*
X157079246Y-87224087D01*
X157119904Y-87090039D01*
X156997915Y-86868000D01*
X155855000Y-86868000D01*
X155601000Y-86868000D01*
X155581000Y-86868000D01*
X155581000Y-86614000D01*
X155601000Y-86614000D01*
X155601000Y-86594000D01*
X155855000Y-86594000D01*
X155855000Y-86614000D01*
X156997915Y-86614000D01*
X157119904Y-86391961D01*
X157079246Y-86257913D01*
X156959037Y-86003580D01*
X156791519Y-85777586D01*
X156583131Y-85588615D01*
X156411012Y-85485390D01*
X159759003Y-82137399D01*
X159788001Y-82113601D01*
X159831993Y-82059997D01*
X159841700Y-82048168D01*
X159841701Y-85018797D01*
X159841701Y-85018797D01*
G37*
X159841701Y-85018797D02*
X157596803Y-87263696D01*
X157567799Y-87287499D01*
X157533482Y-87329315D01*
X157472826Y-87403224D01*
X157420563Y-87501000D01*
X157402254Y-87535254D01*
X157358797Y-87678515D01*
X157347800Y-87790168D01*
X157347800Y-87790178D01*
X157344124Y-87827500D01*
X157347800Y-87864823D01*
X157347801Y-89834168D01*
X157344124Y-89871500D01*
X157347801Y-89908833D01*
X157358798Y-90020486D01*
X157366848Y-90047024D01*
X157402254Y-90163746D01*
X157472826Y-90295776D01*
X157544001Y-90382502D01*
X157567800Y-90411501D01*
X157596798Y-90435299D01*
X158085970Y-90924472D01*
X158006917Y-91003525D01*
X158122585Y-91119193D01*
X157858186Y-91214956D01*
X157717296Y-91504571D01*
X157635616Y-91816108D01*
X157616282Y-92137595D01*
X157660039Y-92456675D01*
X157765205Y-92761088D01*
X157858186Y-92935044D01*
X158122587Y-93030808D01*
X159078395Y-92075000D01*
X159064253Y-92060858D01*
X159243858Y-91881253D01*
X159258000Y-91895395D01*
X159272143Y-91881253D01*
X159451748Y-92060858D01*
X159437605Y-92075000D01*
X159451748Y-92089143D01*
X159272143Y-92268748D01*
X159258000Y-92254605D01*
X158302192Y-93210413D01*
X158397956Y-93474814D01*
X158581429Y-93564069D01*
X156718576Y-95426923D01*
X156590702Y-95389403D01*
X155777605Y-96202500D01*
X155791748Y-96216643D01*
X155612143Y-96396248D01*
X155598000Y-96382105D01*
X154784903Y-97195202D01*
X154856486Y-97439171D01*
X155111996Y-97560071D01*
X155386184Y-97628800D01*
X155668512Y-97642717D01*
X155948130Y-97601287D01*
X156214292Y-97506103D01*
X156339514Y-97439171D01*
X156340401Y-97436149D01*
X156340401Y-97872498D01*
X156206998Y-98005901D01*
X156178000Y-98029699D01*
X156154202Y-98058697D01*
X156154201Y-98058698D01*
X156083026Y-98145424D01*
X156012454Y-98277454D01*
X155994608Y-98336287D01*
X155968998Y-98420714D01*
X155964059Y-98470860D01*
X155916899Y-98496068D01*
X155698392Y-98675392D01*
X155519068Y-98893899D01*
X155448000Y-99026858D01*
X155376932Y-98893899D01*
X155197608Y-98675392D01*
X154979101Y-98496068D01*
X154729808Y-98362818D01*
X154459309Y-98280764D01*
X154248492Y-98260000D01*
X154107508Y-98260000D01*
X153896691Y-98280764D01*
X153626192Y-98362818D01*
X153376899Y-98496068D01*
X153158392Y-98675392D01*
X152979068Y-98893899D01*
X152905421Y-99031682D01*
X152790385Y-98839869D01*
X152601414Y-98631481D01*
X152375420Y-98463963D01*
X152121087Y-98343754D01*
X152052385Y-98322916D01*
X152774114Y-97601188D01*
X152956665Y-97637500D01*
X153239335Y-97637500D01*
X153516574Y-97582353D01*
X153777727Y-97474180D01*
X154012759Y-97317137D01*
X154212637Y-97117259D01*
X154346692Y-96916631D01*
X154361329Y-96944014D01*
X154605298Y-97015597D01*
X155418395Y-96202500D01*
X154605298Y-95389403D01*
X154361329Y-95460986D01*
X154347676Y-95489841D01*
X154212637Y-95287741D01*
X154134694Y-95209798D01*
X154784903Y-95209798D01*
X155598000Y-96022895D01*
X156411097Y-95209798D01*
X156339514Y-94965829D01*
X156084004Y-94844929D01*
X155809816Y-94776200D01*
X155527488Y-94762283D01*
X155247870Y-94803713D01*
X154981708Y-94898897D01*
X154856486Y-94965829D01*
X154784903Y-95209798D01*
X154134694Y-95209798D01*
X154012759Y-95087863D01*
X153777727Y-94930820D01*
X153516574Y-94822647D01*
X153461425Y-94811677D01*
X155030003Y-93243099D01*
X155059001Y-93219301D01*
X155105862Y-93162201D01*
X155153974Y-93103577D01*
X155224546Y-92971547D01*
X155243019Y-92910647D01*
X155268003Y-92828286D01*
X155279000Y-92716633D01*
X155279000Y-92716623D01*
X155282676Y-92679300D01*
X155279000Y-92641977D01*
X155279000Y-88097114D01*
X155378960Y-88132909D01*
X155601000Y-88011624D01*
X155601000Y-86868000D01*
X155855000Y-86868000D01*
X155855000Y-88011624D01*
X156077040Y-88132909D01*
X156341881Y-88038070D01*
X156583131Y-87893385D01*
X156791519Y-87704414D01*
X156959037Y-87478420D01*
X157079246Y-87224087D01*
X157119904Y-87090039D01*
X156997915Y-86868000D01*
X155855000Y-86868000D01*
X155601000Y-86868000D01*
X155581000Y-86868000D01*
X155581000Y-86614000D01*
X155601000Y-86614000D01*
X155601000Y-86594000D01*
X155855000Y-86594000D01*
X155855000Y-86614000D01*
X156997915Y-86614000D01*
X157119904Y-86391961D01*
X157079246Y-86257913D01*
X156959037Y-86003580D01*
X156791519Y-85777586D01*
X156583131Y-85588615D01*
X156411012Y-85485390D01*
X159759003Y-82137399D01*
X159788001Y-82113601D01*
X159831993Y-82059997D01*
X159841700Y-82048168D01*
X159841701Y-85018797D01*
G36*
X145902748Y-96188358D02*
G01*
X145888605Y-96202500D01*
X145902748Y-96216643D01*
X145723143Y-96396248D01*
X145709000Y-96382105D01*
X145694858Y-96396248D01*
X145515253Y-96216643D01*
X145529395Y-96202500D01*
X145515253Y-96188358D01*
X145694858Y-96008753D01*
X145709000Y-96022895D01*
X145723143Y-96008753D01*
X145902748Y-96188358D01*
X145902748Y-96188358D01*
G37*
X145902748Y-96188358D02*
X145888605Y-96202500D01*
X145902748Y-96216643D01*
X145723143Y-96396248D01*
X145709000Y-96382105D01*
X145694858Y-96396248D01*
X145515253Y-96216643D01*
X145529395Y-96202500D01*
X145515253Y-96188358D01*
X145694858Y-96008753D01*
X145709000Y-96022895D01*
X145723143Y-96008753D01*
X145902748Y-96188358D01*
G36*
X130192147Y-80111074D02*
G01*
X130300320Y-80372227D01*
X130457363Y-80607259D01*
X130657241Y-80807137D01*
X130892273Y-80964180D01*
X131153426Y-81072353D01*
X131430665Y-81127500D01*
X131713335Y-81127500D01*
X131990574Y-81072353D01*
X132192600Y-80988671D01*
X132192600Y-81920629D01*
X131990574Y-81836947D01*
X131713335Y-81781800D01*
X131430665Y-81781800D01*
X131153426Y-81836947D01*
X130892273Y-81945120D01*
X130657241Y-82102163D01*
X130457363Y-82302041D01*
X130300320Y-82537073D01*
X130192147Y-82798226D01*
X130137000Y-83075465D01*
X130137000Y-83358135D01*
X130192147Y-83635374D01*
X130300320Y-83896527D01*
X130457363Y-84131559D01*
X130657241Y-84331437D01*
X130892273Y-84488480D01*
X131153426Y-84596653D01*
X131430665Y-84651800D01*
X131713335Y-84651800D01*
X131990574Y-84596653D01*
X132192601Y-84512971D01*
X132192601Y-85444829D01*
X131990574Y-85361147D01*
X131713335Y-85306000D01*
X131430665Y-85306000D01*
X131153426Y-85361147D01*
X130892273Y-85469320D01*
X130657241Y-85626363D01*
X130457363Y-85826241D01*
X130300320Y-86061273D01*
X130192147Y-86322426D01*
X130137000Y-86599665D01*
X130137000Y-86882335D01*
X130173312Y-87064886D01*
X129225103Y-88013096D01*
X129196099Y-88036899D01*
X129146037Y-88097900D01*
X129101126Y-88152624D01*
X129051226Y-88245980D01*
X129030554Y-88284654D01*
X128987097Y-88427915D01*
X128976100Y-88539568D01*
X128976100Y-88539578D01*
X128972424Y-88576900D01*
X128976100Y-88614223D01*
X128976101Y-93807800D01*
X118480602Y-93807800D01*
X116968688Y-92295886D01*
X117005000Y-92113335D01*
X117005000Y-91830665D01*
X116949853Y-91553426D01*
X116841680Y-91292273D01*
X116684637Y-91057241D01*
X116484759Y-90857363D01*
X116249727Y-90700320D01*
X115988574Y-90592147D01*
X115962699Y-90587000D01*
X115988574Y-90581853D01*
X116249727Y-90473680D01*
X116484759Y-90316637D01*
X116684637Y-90116759D01*
X116841680Y-89881727D01*
X116949853Y-89620574D01*
X117005000Y-89343335D01*
X117005000Y-89060665D01*
X116968688Y-88878114D01*
X117725603Y-88121199D01*
X117754601Y-88097401D01*
X117849574Y-87981676D01*
X117920146Y-87849647D01*
X117963603Y-87706386D01*
X117974600Y-87594733D01*
X117978277Y-87557400D01*
X117974600Y-87520067D01*
X117974600Y-84830001D01*
X121838070Y-80966533D01*
X121809461Y-81257000D01*
X121855510Y-81724542D01*
X121991887Y-82174116D01*
X122213351Y-82588446D01*
X122511391Y-82951609D01*
X122874554Y-83249649D01*
X123288884Y-83471113D01*
X123738458Y-83607490D01*
X124088843Y-83642000D01*
X124323157Y-83642000D01*
X124673542Y-83607490D01*
X125123116Y-83471113D01*
X125537446Y-83249649D01*
X125900609Y-82951609D01*
X126198649Y-82588446D01*
X126420113Y-82174116D01*
X126556490Y-81724542D01*
X126602539Y-81257000D01*
X126556490Y-80789458D01*
X126420113Y-80339884D01*
X126203805Y-79935200D01*
X130157163Y-79935200D01*
X130192147Y-80111074D01*
X130192147Y-80111074D01*
G37*
X130192147Y-80111074D02*
X130300320Y-80372227D01*
X130457363Y-80607259D01*
X130657241Y-80807137D01*
X130892273Y-80964180D01*
X131153426Y-81072353D01*
X131430665Y-81127500D01*
X131713335Y-81127500D01*
X131990574Y-81072353D01*
X132192600Y-80988671D01*
X132192600Y-81920629D01*
X131990574Y-81836947D01*
X131713335Y-81781800D01*
X131430665Y-81781800D01*
X131153426Y-81836947D01*
X130892273Y-81945120D01*
X130657241Y-82102163D01*
X130457363Y-82302041D01*
X130300320Y-82537073D01*
X130192147Y-82798226D01*
X130137000Y-83075465D01*
X130137000Y-83358135D01*
X130192147Y-83635374D01*
X130300320Y-83896527D01*
X130457363Y-84131559D01*
X130657241Y-84331437D01*
X130892273Y-84488480D01*
X131153426Y-84596653D01*
X131430665Y-84651800D01*
X131713335Y-84651800D01*
X131990574Y-84596653D01*
X132192601Y-84512971D01*
X132192601Y-85444829D01*
X131990574Y-85361147D01*
X131713335Y-85306000D01*
X131430665Y-85306000D01*
X131153426Y-85361147D01*
X130892273Y-85469320D01*
X130657241Y-85626363D01*
X130457363Y-85826241D01*
X130300320Y-86061273D01*
X130192147Y-86322426D01*
X130137000Y-86599665D01*
X130137000Y-86882335D01*
X130173312Y-87064886D01*
X129225103Y-88013096D01*
X129196099Y-88036899D01*
X129146037Y-88097900D01*
X129101126Y-88152624D01*
X129051226Y-88245980D01*
X129030554Y-88284654D01*
X128987097Y-88427915D01*
X128976100Y-88539568D01*
X128976100Y-88539578D01*
X128972424Y-88576900D01*
X128976100Y-88614223D01*
X128976101Y-93807800D01*
X118480602Y-93807800D01*
X116968688Y-92295886D01*
X117005000Y-92113335D01*
X117005000Y-91830665D01*
X116949853Y-91553426D01*
X116841680Y-91292273D01*
X116684637Y-91057241D01*
X116484759Y-90857363D01*
X116249727Y-90700320D01*
X115988574Y-90592147D01*
X115962699Y-90587000D01*
X115988574Y-90581853D01*
X116249727Y-90473680D01*
X116484759Y-90316637D01*
X116684637Y-90116759D01*
X116841680Y-89881727D01*
X116949853Y-89620574D01*
X117005000Y-89343335D01*
X117005000Y-89060665D01*
X116968688Y-88878114D01*
X117725603Y-88121199D01*
X117754601Y-88097401D01*
X117849574Y-87981676D01*
X117920146Y-87849647D01*
X117963603Y-87706386D01*
X117974600Y-87594733D01*
X117978277Y-87557400D01*
X117974600Y-87520067D01*
X117974600Y-84830001D01*
X121838070Y-80966533D01*
X121809461Y-81257000D01*
X121855510Y-81724542D01*
X121991887Y-82174116D01*
X122213351Y-82588446D01*
X122511391Y-82951609D01*
X122874554Y-83249649D01*
X123288884Y-83471113D01*
X123738458Y-83607490D01*
X124088843Y-83642000D01*
X124323157Y-83642000D01*
X124673542Y-83607490D01*
X125123116Y-83471113D01*
X125537446Y-83249649D01*
X125900609Y-82951609D01*
X126198649Y-82588446D01*
X126420113Y-82174116D01*
X126556490Y-81724542D01*
X126602539Y-81257000D01*
X126556490Y-80789458D01*
X126420113Y-80339884D01*
X126203805Y-79935200D01*
X130157163Y-79935200D01*
X130192147Y-80111074D01*
G36*
X165951748Y-92060858D02*
G01*
X165937605Y-92075000D01*
X165951748Y-92089143D01*
X165772143Y-92268748D01*
X165758000Y-92254605D01*
X165743858Y-92268748D01*
X165564253Y-92089143D01*
X165578395Y-92075000D01*
X165564253Y-92060858D01*
X165743858Y-91881253D01*
X165758000Y-91895395D01*
X165772143Y-91881253D01*
X165951748Y-92060858D01*
X165951748Y-92060858D01*
G37*
X165951748Y-92060858D02*
X165937605Y-92075000D01*
X165951748Y-92089143D01*
X165772143Y-92268748D01*
X165758000Y-92254605D01*
X165743858Y-92268748D01*
X165564253Y-92089143D01*
X165578395Y-92075000D01*
X165564253Y-92060858D01*
X165743858Y-91881253D01*
X165758000Y-91895395D01*
X165772143Y-91881253D01*
X165951748Y-92060858D01*
G36*
X143419507Y-74233491D02*
G01*
X143330605Y-74160531D01*
X143070263Y-74021375D01*
X142787776Y-73935684D01*
X142494000Y-73906749D01*
X142200223Y-73935684D01*
X141917736Y-74021375D01*
X141657394Y-74160531D01*
X141429203Y-74347803D01*
X141241931Y-74575995D01*
X141224000Y-74609541D01*
X141206069Y-74575994D01*
X141018797Y-74347803D01*
X140790605Y-74160531D01*
X140530263Y-74021375D01*
X140247776Y-73935684D01*
X139954000Y-73906749D01*
X139660223Y-73935684D01*
X139377736Y-74021375D01*
X139117394Y-74160531D01*
X138889203Y-74347803D01*
X138701931Y-74575995D01*
X138680576Y-74615947D01*
X138532486Y-74413271D01*
X138316035Y-74214267D01*
X138064919Y-74061314D01*
X137788789Y-73960291D01*
X137773026Y-73957642D01*
X137541000Y-74078783D01*
X137541000Y-75438000D01*
X137561000Y-75438000D01*
X137561000Y-75692000D01*
X137541000Y-75692000D01*
X137541000Y-75712000D01*
X137287000Y-75712000D01*
X137287000Y-75692000D01*
X137267000Y-75692000D01*
X137267000Y-75438000D01*
X137287000Y-75438000D01*
X137287000Y-74078783D01*
X137054974Y-73957642D01*
X137039211Y-73960291D01*
X136763081Y-74061314D01*
X136511965Y-74214267D01*
X136295514Y-74413271D01*
X136147424Y-74615947D01*
X136126069Y-74575994D01*
X135938797Y-74347803D01*
X135710605Y-74160531D01*
X135450263Y-74021375D01*
X135167776Y-73935684D01*
X134874000Y-73906749D01*
X134580223Y-73935684D01*
X134297736Y-74021375D01*
X134037394Y-74160531D01*
X133809203Y-74347803D01*
X133621931Y-74575995D01*
X133604000Y-74609541D01*
X133586069Y-74575994D01*
X133398797Y-74347803D01*
X133170605Y-74160531D01*
X132910263Y-74021375D01*
X132627776Y-73935684D01*
X132334000Y-73906749D01*
X132040223Y-73935684D01*
X131757736Y-74021375D01*
X131497394Y-74160531D01*
X131269203Y-74347803D01*
X131081931Y-74575995D01*
X131064000Y-74609541D01*
X131046069Y-74575994D01*
X130858797Y-74347803D01*
X130630605Y-74160531D01*
X130370263Y-74021375D01*
X130087776Y-73935684D01*
X129794000Y-73906749D01*
X129500223Y-73935684D01*
X129217736Y-74021375D01*
X128957394Y-74160531D01*
X128729203Y-74347803D01*
X128657001Y-74435781D01*
X128601464Y-74301702D01*
X128309594Y-73864887D01*
X128179707Y-73735000D01*
X143917998Y-73735000D01*
X143419507Y-74233491D01*
X143419507Y-74233491D01*
G37*
X143419507Y-74233491D02*
X143330605Y-74160531D01*
X143070263Y-74021375D01*
X142787776Y-73935684D01*
X142494000Y-73906749D01*
X142200223Y-73935684D01*
X141917736Y-74021375D01*
X141657394Y-74160531D01*
X141429203Y-74347803D01*
X141241931Y-74575995D01*
X141224000Y-74609541D01*
X141206069Y-74575994D01*
X141018797Y-74347803D01*
X140790605Y-74160531D01*
X140530263Y-74021375D01*
X140247776Y-73935684D01*
X139954000Y-73906749D01*
X139660223Y-73935684D01*
X139377736Y-74021375D01*
X139117394Y-74160531D01*
X138889203Y-74347803D01*
X138701931Y-74575995D01*
X138680576Y-74615947D01*
X138532486Y-74413271D01*
X138316035Y-74214267D01*
X138064919Y-74061314D01*
X137788789Y-73960291D01*
X137773026Y-73957642D01*
X137541000Y-74078783D01*
X137541000Y-75438000D01*
X137561000Y-75438000D01*
X137561000Y-75692000D01*
X137541000Y-75692000D01*
X137541000Y-75712000D01*
X137287000Y-75712000D01*
X137287000Y-75692000D01*
X137267000Y-75692000D01*
X137267000Y-75438000D01*
X137287000Y-75438000D01*
X137287000Y-74078783D01*
X137054974Y-73957642D01*
X137039211Y-73960291D01*
X136763081Y-74061314D01*
X136511965Y-74214267D01*
X136295514Y-74413271D01*
X136147424Y-74615947D01*
X136126069Y-74575994D01*
X135938797Y-74347803D01*
X135710605Y-74160531D01*
X135450263Y-74021375D01*
X135167776Y-73935684D01*
X134874000Y-73906749D01*
X134580223Y-73935684D01*
X134297736Y-74021375D01*
X134037394Y-74160531D01*
X133809203Y-74347803D01*
X133621931Y-74575995D01*
X133604000Y-74609541D01*
X133586069Y-74575994D01*
X133398797Y-74347803D01*
X133170605Y-74160531D01*
X132910263Y-74021375D01*
X132627776Y-73935684D01*
X132334000Y-73906749D01*
X132040223Y-73935684D01*
X131757736Y-74021375D01*
X131497394Y-74160531D01*
X131269203Y-74347803D01*
X131081931Y-74575995D01*
X131064000Y-74609541D01*
X131046069Y-74575994D01*
X130858797Y-74347803D01*
X130630605Y-74160531D01*
X130370263Y-74021375D01*
X130087776Y-73935684D01*
X129794000Y-73906749D01*
X129500223Y-73935684D01*
X129217736Y-74021375D01*
X128957394Y-74160531D01*
X128729203Y-74347803D01*
X128657001Y-74435781D01*
X128601464Y-74301702D01*
X128309594Y-73864887D01*
X128179707Y-73735000D01*
X143917998Y-73735000D01*
X143419507Y-74233491D01*
M02*
