M48
; DRILL file {KiCad (5.1.4)-1} date 2019/10/4 星期五 17:51:19
; FORMAT={-:-/ absolute / inch / decimal}
; #@! TF.CreationDate,2019-10-04T17:51:19+08:00
; #@! TF.GenerationSoftware,Kicad,Pcbnew,(5.1.4)-1
; #@! TF.FileFunction,Plated,1,2,PTH
FMAT,2
INCH
T1C0.0157
T2C0.0236
T3C0.0315
T4C0.0354
T5C0.0394
T6C0.0400
T7C0.0433
T8C0.0472
T9C0.1200
T10C0.1260
%
G90
G05
T1
X4.72Y-3.325
X4.72Y-3.425
X4.72Y-3.525
X4.72Y-3.625
X4.77Y-3.375
X4.77Y-3.475
X4.77Y-3.575
X4.77Y-3.675
X4.82Y-3.325
X4.82Y-3.425
X4.82Y-3.525
X4.82Y-3.625
X4.87Y-3.375
X4.87Y-3.475
X4.87Y-3.575
X4.87Y-3.675
X4.92Y-3.325
X4.92Y-3.425
X4.92Y-3.525
X4.92Y-3.625
X4.97Y-3.375
X4.97Y-3.475
X4.97Y-3.575
X4.97Y-3.675
X5.02Y-3.325
X5.02Y-3.425
X5.02Y-3.525
X5.02Y-3.625
X5.07Y-3.375
X5.07Y-3.475
X5.07Y-3.575
X5.07Y-3.675
X5.1459Y-3.5954
X5.2344Y-3.5052
X5.2359Y-4.1424
X5.4972Y-3.7225
X5.8823Y-3.9867
X5.9234Y-4.1115
X6.3491Y-3.8189
X6.427Y-3.7278
X6.5926Y-3.2036
X6.7464Y-3.7159
X6.7752Y-3.742
X6.8618Y-3.4858
T2
X4.5125Y-4.24
X4.5125Y-4.3187
X4.8125Y-4.2498
X4.8125Y-4.3089
X5.1125Y-4.24
X5.1125Y-4.3187
T3
X5.731Y-3.415
X6.131Y-3.415
X4.89Y-4.4825
X4.99Y-4.4825
X5.09Y-4.4825
X5.18Y-4.4825
X5.28Y-4.4825
X5.38Y-4.4825
X5.18Y-3.415
X5.58Y-3.415
X5.18Y-3.1375
X5.58Y-3.1375
X6.79Y-3.12
X6.79Y-3.52
X6.6599Y-3.12
X6.6599Y-3.52
X5.37Y-3.925
X5.37Y-4.225
X5.47Y-3.925
X5.47Y-4.225
X5.57Y-3.925
X5.57Y-4.225
X5.67Y-3.925
X5.67Y-4.225
X5.77Y-3.925
X5.77Y-4.225
X5.87Y-3.925
X5.87Y-4.225
X5.97Y-3.925
X5.97Y-4.225
X6.07Y-3.925
X6.07Y-4.225
X6.17Y-3.925
X6.17Y-4.225
X6.27Y-3.925
X6.27Y-4.225
X6.37Y-3.925
X6.37Y-4.225
X6.47Y-3.925
X6.47Y-4.225
X6.57Y-3.925
X6.57Y-4.225
X6.67Y-3.925
X6.67Y-4.225
X5.731Y-3.1375
X6.131Y-3.1375
X6.325Y-4.7325
X6.725Y-4.7325
X5.8354Y-3.6
X6.0275Y-3.6
X5.18Y-3.2763
X5.58Y-3.2763
X6.5298Y-3.12
X6.5298Y-3.52
X6.0275Y-3.7875
X6.1259Y-3.7875
X5.7366Y-3.7875
X5.835Y-3.7875
X6.3997Y-3.12
X6.3997Y-3.52
X6.325Y-4.3655
X6.725Y-4.3655
X6.2696Y-3.12
X6.2696Y-3.52
X5.731Y-3.2763
X6.131Y-3.2763
T4
X5.1941Y-3.565
X5.1941Y-3.665
X5.3871Y-3.565
X5.3871Y-3.665
X5.1Y-4.875
X5.2Y-4.875
X5.58Y-3.565
X5.58Y-3.665
T5
X4.4382Y-3.3483
X4.4382Y-3.4574
X4.4382Y-3.5664
X4.4382Y-3.6755
X4.55Y-3.2938
X4.55Y-3.4028
X4.55Y-3.5119
X4.55Y-3.6209
X4.55Y-3.73
X5.545Y-4.3972
X5.545Y-4.6925
X6.0325Y-4.3972
X6.0325Y-4.6925
X5.7887Y-4.3972
X5.7887Y-4.6925
X4.7475Y-4.03
X5.0428Y-4.03
X6.9754Y-4.145
X6.9754Y-4.245
X6.9754Y-4.345
X6.6625Y-3.69
X6.6625Y-3.79
X6.875Y-3.775
X6.875Y-3.875
X6.875Y-3.975
X6.975Y-3.775
X6.975Y-3.875
X6.975Y-3.975
T6
X5.11Y-2.975
X5.21Y-2.975
X5.31Y-2.975
X5.41Y-2.975
X5.51Y-2.975
X5.61Y-2.975
X5.71Y-2.975
X5.81Y-2.975
X5.91Y-2.975
X6.01Y-2.975
X6.37Y-4.875
X6.47Y-4.875
X6.57Y-4.875
X6.67Y-4.875
X6.77Y-4.875
X6.87Y-4.875
X6.17Y-2.975
X6.27Y-2.975
X6.37Y-2.975
X6.47Y-2.975
X6.57Y-2.975
X6.67Y-2.975
X6.77Y-2.975
X6.87Y-2.975
X5.47Y-4.875
X5.57Y-4.875
X5.67Y-4.875
X5.77Y-4.875
X5.87Y-4.875
X5.97Y-4.875
X6.07Y-4.875
X6.17Y-4.875
T7
X6.27Y-3.625
X6.27Y-3.8022
X6.5259Y-3.625
X6.5259Y-3.8022
X4.9502Y-4.715
X5.3502Y-4.715
X4.79Y-3.855
X4.89Y-3.855
X4.99Y-3.855
T8
X6.225Y-4.5475
X6.825Y-4.5475
T9
X4.97Y-2.975
X6.97Y-4.675
X4.92Y-4.875
X6.97Y-3.575
T10
X4.4941Y-3.0198
X4.4941Y-4.004
T5
G00X4.5488Y-4.6356
M15
G01X4.5488Y-4.7144
M16
G05
G00X4.6275Y-4.86
M15
G01X4.7063Y-4.86
M16
G05
G00X4.785Y-4.6356
M15
G01X4.785Y-4.7144
M16
G05
T0
M30
