G04 #@! TF.GenerationSoftware,KiCad,Pcbnew,(5.1.4)-1*
G04 #@! TF.CreationDate,2019-10-03T21:02:00+08:00*
G04 #@! TF.ProjectId,arduino-sss,61726475-696e-46f2-9d73-73732e6b6963,rev?*
G04 #@! TF.SameCoordinates,Original*
G04 #@! TF.FileFunction,Soldermask,Bot*
G04 #@! TF.FilePolarity,Negative*
%FSLAX46Y46*%
G04 Gerber Fmt 4.6, Leading zero omitted, Abs format (unit mm)*
G04 Created by KiCad (PCBNEW (5.1.4)-1) date 2019-10-03 21:02:00*
%MOMM*%
%LPD*%
G04 APERTURE LIST*
%ADD10C,0.100000*%
G04 APERTURE END LIST*
D10*
G36*
X125560711Y-121871088D02*
G01*
X125930511Y-122024264D01*
X125930513Y-122024265D01*
X126019727Y-122083876D01*
X126263324Y-122246642D01*
X126546358Y-122529676D01*
X126656792Y-122694953D01*
X126741346Y-122821496D01*
X126768736Y-122862489D01*
X126921912Y-123232289D01*
X127000000Y-123624864D01*
X127000000Y-124025136D01*
X126921912Y-124417711D01*
X126904598Y-124459510D01*
X126768735Y-124787513D01*
X126546357Y-125120325D01*
X126263325Y-125403357D01*
X125930513Y-125625735D01*
X125930512Y-125625736D01*
X125930511Y-125625736D01*
X125560711Y-125778912D01*
X125168136Y-125857000D01*
X124767864Y-125857000D01*
X124375289Y-125778912D01*
X124005489Y-125625736D01*
X124005488Y-125625736D01*
X124005487Y-125625735D01*
X123672675Y-125403357D01*
X123389643Y-125120325D01*
X123167265Y-124787513D01*
X123031402Y-124459510D01*
X123014088Y-124417711D01*
X122936000Y-124025136D01*
X122936000Y-123624864D01*
X123014088Y-123232289D01*
X123167264Y-122862489D01*
X123194655Y-122821496D01*
X123279208Y-122694953D01*
X123389642Y-122529676D01*
X123672676Y-122246642D01*
X123916273Y-122083876D01*
X124005487Y-122024265D01*
X124005489Y-122024264D01*
X124375289Y-121871088D01*
X124767864Y-121793000D01*
X125168136Y-121793000D01*
X125560711Y-121871088D01*
X125560711Y-121871088D01*
G37*
G36*
X119634891Y-121711205D02*
G01*
X119787202Y-121757408D01*
X119927565Y-121832433D01*
X120050597Y-121933403D01*
X120151567Y-122056435D01*
X120226592Y-122196798D01*
X120272795Y-122349109D01*
X120289000Y-122513640D01*
X120289000Y-124376360D01*
X120272795Y-124540891D01*
X120226592Y-124693202D01*
X120151567Y-124833565D01*
X120050597Y-124956597D01*
X119927565Y-125057567D01*
X119787202Y-125132592D01*
X119634891Y-125178795D01*
X119470360Y-125195000D01*
X117607640Y-125195000D01*
X117443109Y-125178795D01*
X117290798Y-125132592D01*
X117150435Y-125057567D01*
X117027403Y-124956597D01*
X116926433Y-124833565D01*
X116851408Y-124693202D01*
X116805205Y-124540891D01*
X116789000Y-124376360D01*
X116789000Y-122513640D01*
X116805205Y-122349109D01*
X116851408Y-122196798D01*
X116926433Y-122056435D01*
X117027403Y-121933403D01*
X117150435Y-121832433D01*
X117290798Y-121757408D01*
X117443109Y-121711205D01*
X117607640Y-121695000D01*
X119470360Y-121695000D01*
X119634891Y-121711205D01*
X119634891Y-121711205D01*
G37*
G36*
X141647294Y-122821496D02*
G01*
X141767726Y-122858029D01*
X141810087Y-122870879D01*
X141960107Y-122951066D01*
X141960110Y-122951068D01*
X141960111Y-122951069D01*
X142091612Y-123058988D01*
X142199531Y-123190488D01*
X142199533Y-123190492D01*
X142199534Y-123190493D01*
X142279721Y-123340513D01*
X142279722Y-123340516D01*
X142329104Y-123503305D01*
X142329104Y-123503307D01*
X142341600Y-123630179D01*
X142341600Y-124019820D01*
X142341076Y-124025136D01*
X142329104Y-124146694D01*
X142297369Y-124251310D01*
X142279721Y-124309488D01*
X142221874Y-124417711D01*
X142199531Y-124459512D01*
X142091612Y-124591012D01*
X141960112Y-124698931D01*
X141960108Y-124698933D01*
X141960107Y-124698934D01*
X141810087Y-124779121D01*
X141810084Y-124779122D01*
X141647295Y-124828504D01*
X141478000Y-124845178D01*
X141308706Y-124828504D01*
X141145917Y-124779122D01*
X141145914Y-124779121D01*
X140995894Y-124698934D01*
X140995893Y-124698933D01*
X140995889Y-124698931D01*
X140864388Y-124591012D01*
X140756469Y-124459512D01*
X140734126Y-124417711D01*
X140676279Y-124309487D01*
X140658631Y-124251310D01*
X140626896Y-124146695D01*
X140618565Y-124062112D01*
X140614400Y-124019821D01*
X140614400Y-123630180D01*
X140626896Y-123503308D01*
X140626896Y-123503306D01*
X140676278Y-123340517D01*
X140676279Y-123340513D01*
X140756466Y-123190493D01*
X140756470Y-123190488D01*
X140864388Y-123058988D01*
X140995888Y-122951069D01*
X140995892Y-122951067D01*
X140995893Y-122951066D01*
X141145913Y-122870879D01*
X141173571Y-122862489D01*
X141308705Y-122821496D01*
X141478000Y-122804822D01*
X141647294Y-122821496D01*
X141647294Y-122821496D01*
G37*
G36*
X139107294Y-122821496D02*
G01*
X139227726Y-122858029D01*
X139270087Y-122870879D01*
X139420107Y-122951066D01*
X139420110Y-122951068D01*
X139420111Y-122951069D01*
X139551612Y-123058988D01*
X139659531Y-123190488D01*
X139659533Y-123190492D01*
X139659534Y-123190493D01*
X139739721Y-123340513D01*
X139739722Y-123340516D01*
X139789104Y-123503305D01*
X139789104Y-123503307D01*
X139801600Y-123630179D01*
X139801600Y-124019820D01*
X139801076Y-124025136D01*
X139789104Y-124146694D01*
X139757369Y-124251310D01*
X139739721Y-124309488D01*
X139681874Y-124417711D01*
X139659531Y-124459512D01*
X139551612Y-124591012D01*
X139420112Y-124698931D01*
X139420108Y-124698933D01*
X139420107Y-124698934D01*
X139270087Y-124779121D01*
X139270084Y-124779122D01*
X139107295Y-124828504D01*
X138938000Y-124845178D01*
X138768706Y-124828504D01*
X138605917Y-124779122D01*
X138605914Y-124779121D01*
X138455894Y-124698934D01*
X138455893Y-124698933D01*
X138455889Y-124698931D01*
X138324388Y-124591012D01*
X138216469Y-124459512D01*
X138194126Y-124417711D01*
X138136279Y-124309487D01*
X138118631Y-124251310D01*
X138086896Y-124146695D01*
X138078565Y-124062112D01*
X138074400Y-124019821D01*
X138074400Y-123630180D01*
X138086896Y-123503308D01*
X138086896Y-123503306D01*
X138136278Y-123340517D01*
X138136279Y-123340513D01*
X138216466Y-123190493D01*
X138216470Y-123190488D01*
X138324388Y-123058988D01*
X138455888Y-122951069D01*
X138455892Y-122951067D01*
X138455893Y-122951066D01*
X138605913Y-122870879D01*
X138633571Y-122862489D01*
X138768705Y-122821496D01*
X138938000Y-122804822D01*
X139107294Y-122821496D01*
X139107294Y-122821496D01*
G37*
G36*
X144187294Y-122821496D02*
G01*
X144307726Y-122858029D01*
X144350087Y-122870879D01*
X144500107Y-122951066D01*
X144500110Y-122951068D01*
X144500111Y-122951069D01*
X144631612Y-123058988D01*
X144739531Y-123190488D01*
X144739533Y-123190492D01*
X144739534Y-123190493D01*
X144819721Y-123340513D01*
X144819722Y-123340516D01*
X144869104Y-123503305D01*
X144869104Y-123503307D01*
X144881600Y-123630179D01*
X144881600Y-124019820D01*
X144881076Y-124025136D01*
X144869104Y-124146694D01*
X144837369Y-124251310D01*
X144819721Y-124309488D01*
X144761874Y-124417711D01*
X144739531Y-124459512D01*
X144631612Y-124591012D01*
X144500112Y-124698931D01*
X144500108Y-124698933D01*
X144500107Y-124698934D01*
X144350087Y-124779121D01*
X144350084Y-124779122D01*
X144187295Y-124828504D01*
X144018000Y-124845178D01*
X143848706Y-124828504D01*
X143685917Y-124779122D01*
X143685914Y-124779121D01*
X143535894Y-124698934D01*
X143535893Y-124698933D01*
X143535889Y-124698931D01*
X143404388Y-124591012D01*
X143296469Y-124459512D01*
X143274126Y-124417711D01*
X143216279Y-124309487D01*
X143198631Y-124251310D01*
X143166896Y-124146695D01*
X143158565Y-124062112D01*
X143154400Y-124019821D01*
X143154400Y-123630180D01*
X143166896Y-123503308D01*
X143166896Y-123503306D01*
X143216278Y-123340517D01*
X143216279Y-123340513D01*
X143296466Y-123190493D01*
X143296470Y-123190488D01*
X143404388Y-123058988D01*
X143535888Y-122951069D01*
X143535892Y-122951067D01*
X143535893Y-122951066D01*
X143685913Y-122870879D01*
X143713571Y-122862489D01*
X143848705Y-122821496D01*
X144018000Y-122804822D01*
X144187294Y-122821496D01*
X144187294Y-122821496D01*
G37*
G36*
X146727294Y-122821496D02*
G01*
X146847726Y-122858029D01*
X146890087Y-122870879D01*
X147040107Y-122951066D01*
X147040110Y-122951068D01*
X147040111Y-122951069D01*
X147171612Y-123058988D01*
X147279531Y-123190488D01*
X147279533Y-123190492D01*
X147279534Y-123190493D01*
X147359721Y-123340513D01*
X147359722Y-123340516D01*
X147409104Y-123503305D01*
X147409104Y-123503307D01*
X147421600Y-123630179D01*
X147421600Y-124019820D01*
X147421076Y-124025136D01*
X147409104Y-124146694D01*
X147377369Y-124251310D01*
X147359721Y-124309488D01*
X147301874Y-124417711D01*
X147279531Y-124459512D01*
X147171612Y-124591012D01*
X147040112Y-124698931D01*
X147040108Y-124698933D01*
X147040107Y-124698934D01*
X146890087Y-124779121D01*
X146890084Y-124779122D01*
X146727295Y-124828504D01*
X146558000Y-124845178D01*
X146388706Y-124828504D01*
X146225917Y-124779122D01*
X146225914Y-124779121D01*
X146075894Y-124698934D01*
X146075893Y-124698933D01*
X146075889Y-124698931D01*
X145944388Y-124591012D01*
X145836469Y-124459512D01*
X145814126Y-124417711D01*
X145756279Y-124309487D01*
X145738631Y-124251310D01*
X145706896Y-124146695D01*
X145698565Y-124062112D01*
X145694400Y-124019821D01*
X145694400Y-123630180D01*
X145706896Y-123503308D01*
X145706896Y-123503306D01*
X145756278Y-123340517D01*
X145756279Y-123340513D01*
X145836466Y-123190493D01*
X145836470Y-123190488D01*
X145944388Y-123058988D01*
X146075888Y-122951069D01*
X146075892Y-122951067D01*
X146075893Y-122951066D01*
X146225913Y-122870879D01*
X146253571Y-122862489D01*
X146388705Y-122821496D01*
X146558000Y-122804822D01*
X146727294Y-122821496D01*
X146727294Y-122821496D01*
G37*
G36*
X149267294Y-122821496D02*
G01*
X149387726Y-122858029D01*
X149430087Y-122870879D01*
X149580107Y-122951066D01*
X149580110Y-122951068D01*
X149580111Y-122951069D01*
X149711612Y-123058988D01*
X149819531Y-123190488D01*
X149819533Y-123190492D01*
X149819534Y-123190493D01*
X149899721Y-123340513D01*
X149899722Y-123340516D01*
X149949104Y-123503305D01*
X149949104Y-123503307D01*
X149961600Y-123630179D01*
X149961600Y-124019820D01*
X149961076Y-124025136D01*
X149949104Y-124146694D01*
X149917369Y-124251310D01*
X149899721Y-124309488D01*
X149841874Y-124417711D01*
X149819531Y-124459512D01*
X149711612Y-124591012D01*
X149580112Y-124698931D01*
X149580108Y-124698933D01*
X149580107Y-124698934D01*
X149430087Y-124779121D01*
X149430084Y-124779122D01*
X149267295Y-124828504D01*
X149098000Y-124845178D01*
X148928706Y-124828504D01*
X148765917Y-124779122D01*
X148765914Y-124779121D01*
X148615894Y-124698934D01*
X148615893Y-124698933D01*
X148615889Y-124698931D01*
X148484388Y-124591012D01*
X148376469Y-124459512D01*
X148354126Y-124417711D01*
X148296279Y-124309487D01*
X148278631Y-124251310D01*
X148246896Y-124146695D01*
X148238565Y-124062112D01*
X148234400Y-124019821D01*
X148234400Y-123630180D01*
X148246896Y-123503308D01*
X148246896Y-123503306D01*
X148296278Y-123340517D01*
X148296279Y-123340513D01*
X148376466Y-123190493D01*
X148376470Y-123190488D01*
X148484388Y-123058988D01*
X148615888Y-122951069D01*
X148615892Y-122951067D01*
X148615893Y-122951066D01*
X148765913Y-122870879D01*
X148793571Y-122862489D01*
X148928705Y-122821496D01*
X149098000Y-122804822D01*
X149267294Y-122821496D01*
X149267294Y-122821496D01*
G37*
G36*
X151807294Y-122821496D02*
G01*
X151927726Y-122858029D01*
X151970087Y-122870879D01*
X152120107Y-122951066D01*
X152120110Y-122951068D01*
X152120111Y-122951069D01*
X152251612Y-123058988D01*
X152359531Y-123190488D01*
X152359533Y-123190492D01*
X152359534Y-123190493D01*
X152439721Y-123340513D01*
X152439722Y-123340516D01*
X152489104Y-123503305D01*
X152489104Y-123503307D01*
X152501600Y-123630179D01*
X152501600Y-124019820D01*
X152501076Y-124025136D01*
X152489104Y-124146694D01*
X152457369Y-124251310D01*
X152439721Y-124309488D01*
X152381874Y-124417711D01*
X152359531Y-124459512D01*
X152251612Y-124591012D01*
X152120112Y-124698931D01*
X152120108Y-124698933D01*
X152120107Y-124698934D01*
X151970087Y-124779121D01*
X151970084Y-124779122D01*
X151807295Y-124828504D01*
X151638000Y-124845178D01*
X151468706Y-124828504D01*
X151305917Y-124779122D01*
X151305914Y-124779121D01*
X151155894Y-124698934D01*
X151155893Y-124698933D01*
X151155889Y-124698931D01*
X151024388Y-124591012D01*
X150916469Y-124459512D01*
X150894126Y-124417711D01*
X150836279Y-124309487D01*
X150818631Y-124251310D01*
X150786896Y-124146695D01*
X150778565Y-124062112D01*
X150774400Y-124019821D01*
X150774400Y-123630180D01*
X150786896Y-123503308D01*
X150786896Y-123503306D01*
X150836278Y-123340517D01*
X150836279Y-123340513D01*
X150916466Y-123190493D01*
X150916470Y-123190488D01*
X151024388Y-123058988D01*
X151155888Y-122951069D01*
X151155892Y-122951067D01*
X151155893Y-122951066D01*
X151305913Y-122870879D01*
X151333571Y-122862489D01*
X151468705Y-122821496D01*
X151638000Y-122804822D01*
X151807294Y-122821496D01*
X151807294Y-122821496D01*
G37*
G36*
X154347294Y-122821496D02*
G01*
X154467726Y-122858029D01*
X154510087Y-122870879D01*
X154660107Y-122951066D01*
X154660110Y-122951068D01*
X154660111Y-122951069D01*
X154791612Y-123058988D01*
X154899531Y-123190488D01*
X154899533Y-123190492D01*
X154899534Y-123190493D01*
X154979721Y-123340513D01*
X154979722Y-123340516D01*
X155029104Y-123503305D01*
X155029104Y-123503307D01*
X155041600Y-123630179D01*
X155041600Y-124019820D01*
X155041076Y-124025136D01*
X155029104Y-124146694D01*
X154997369Y-124251310D01*
X154979721Y-124309488D01*
X154921874Y-124417711D01*
X154899531Y-124459512D01*
X154791612Y-124591012D01*
X154660112Y-124698931D01*
X154660108Y-124698933D01*
X154660107Y-124698934D01*
X154510087Y-124779121D01*
X154510084Y-124779122D01*
X154347295Y-124828504D01*
X154178000Y-124845178D01*
X154008706Y-124828504D01*
X153845917Y-124779122D01*
X153845914Y-124779121D01*
X153695894Y-124698934D01*
X153695893Y-124698933D01*
X153695889Y-124698931D01*
X153564388Y-124591012D01*
X153456469Y-124459512D01*
X153434126Y-124417711D01*
X153376279Y-124309487D01*
X153358631Y-124251310D01*
X153326896Y-124146695D01*
X153318565Y-124062112D01*
X153314400Y-124019821D01*
X153314400Y-123630180D01*
X153326896Y-123503308D01*
X153326896Y-123503306D01*
X153376278Y-123340517D01*
X153376279Y-123340513D01*
X153456466Y-123190493D01*
X153456470Y-123190488D01*
X153564388Y-123058988D01*
X153695888Y-122951069D01*
X153695892Y-122951067D01*
X153695893Y-122951066D01*
X153845913Y-122870879D01*
X153873571Y-122862489D01*
X154008705Y-122821496D01*
X154178000Y-122804822D01*
X154347294Y-122821496D01*
X154347294Y-122821496D01*
G37*
G36*
X156887294Y-122821496D02*
G01*
X157007726Y-122858029D01*
X157050087Y-122870879D01*
X157200107Y-122951066D01*
X157200110Y-122951068D01*
X157200111Y-122951069D01*
X157331612Y-123058988D01*
X157439531Y-123190488D01*
X157439533Y-123190492D01*
X157439534Y-123190493D01*
X157519721Y-123340513D01*
X157519722Y-123340516D01*
X157569104Y-123503305D01*
X157569104Y-123503307D01*
X157581600Y-123630179D01*
X157581600Y-124019820D01*
X157581076Y-124025136D01*
X157569104Y-124146694D01*
X157537369Y-124251310D01*
X157519721Y-124309488D01*
X157461874Y-124417711D01*
X157439531Y-124459512D01*
X157331612Y-124591012D01*
X157200112Y-124698931D01*
X157200108Y-124698933D01*
X157200107Y-124698934D01*
X157050087Y-124779121D01*
X157050084Y-124779122D01*
X156887295Y-124828504D01*
X156718000Y-124845178D01*
X156548706Y-124828504D01*
X156385917Y-124779122D01*
X156385914Y-124779121D01*
X156235894Y-124698934D01*
X156235893Y-124698933D01*
X156235889Y-124698931D01*
X156104388Y-124591012D01*
X155996469Y-124459512D01*
X155974126Y-124417711D01*
X155916279Y-124309487D01*
X155898631Y-124251310D01*
X155866896Y-124146695D01*
X155858565Y-124062112D01*
X155854400Y-124019821D01*
X155854400Y-123630180D01*
X155866896Y-123503308D01*
X155866896Y-123503306D01*
X155916278Y-123340517D01*
X155916279Y-123340513D01*
X155996466Y-123190493D01*
X155996470Y-123190488D01*
X156104388Y-123058988D01*
X156235888Y-122951069D01*
X156235892Y-122951067D01*
X156235893Y-122951066D01*
X156385913Y-122870879D01*
X156413571Y-122862489D01*
X156548705Y-122821496D01*
X156718000Y-122804822D01*
X156887294Y-122821496D01*
X156887294Y-122821496D01*
G37*
G36*
X161967294Y-122821496D02*
G01*
X162087726Y-122858029D01*
X162130087Y-122870879D01*
X162280107Y-122951066D01*
X162280110Y-122951068D01*
X162280111Y-122951069D01*
X162411612Y-123058988D01*
X162519531Y-123190488D01*
X162519533Y-123190492D01*
X162519534Y-123190493D01*
X162599721Y-123340513D01*
X162599722Y-123340516D01*
X162649104Y-123503305D01*
X162649104Y-123503307D01*
X162661600Y-123630179D01*
X162661600Y-124019820D01*
X162661076Y-124025136D01*
X162649104Y-124146694D01*
X162617369Y-124251310D01*
X162599721Y-124309488D01*
X162541874Y-124417711D01*
X162519531Y-124459512D01*
X162411612Y-124591012D01*
X162280112Y-124698931D01*
X162280108Y-124698933D01*
X162280107Y-124698934D01*
X162130087Y-124779121D01*
X162130084Y-124779122D01*
X161967295Y-124828504D01*
X161798000Y-124845178D01*
X161628706Y-124828504D01*
X161465917Y-124779122D01*
X161465914Y-124779121D01*
X161315894Y-124698934D01*
X161315893Y-124698933D01*
X161315889Y-124698931D01*
X161184388Y-124591012D01*
X161076469Y-124459512D01*
X161054126Y-124417711D01*
X160996279Y-124309487D01*
X160978631Y-124251310D01*
X160946896Y-124146695D01*
X160938565Y-124062112D01*
X160934400Y-124019821D01*
X160934400Y-123630180D01*
X160946896Y-123503308D01*
X160946896Y-123503306D01*
X160996278Y-123340517D01*
X160996279Y-123340513D01*
X161076466Y-123190493D01*
X161076470Y-123190488D01*
X161184388Y-123058988D01*
X161315888Y-122951069D01*
X161315892Y-122951067D01*
X161315893Y-122951066D01*
X161465913Y-122870879D01*
X161493571Y-122862489D01*
X161628705Y-122821496D01*
X161798000Y-122804822D01*
X161967294Y-122821496D01*
X161967294Y-122821496D01*
G37*
G36*
X164507294Y-122821496D02*
G01*
X164627726Y-122858029D01*
X164670087Y-122870879D01*
X164820107Y-122951066D01*
X164820110Y-122951068D01*
X164820111Y-122951069D01*
X164951612Y-123058988D01*
X165059531Y-123190488D01*
X165059533Y-123190492D01*
X165059534Y-123190493D01*
X165139721Y-123340513D01*
X165139722Y-123340516D01*
X165189104Y-123503305D01*
X165189104Y-123503307D01*
X165201600Y-123630179D01*
X165201600Y-124019820D01*
X165201076Y-124025136D01*
X165189104Y-124146694D01*
X165157369Y-124251310D01*
X165139721Y-124309488D01*
X165081874Y-124417711D01*
X165059531Y-124459512D01*
X164951612Y-124591012D01*
X164820112Y-124698931D01*
X164820108Y-124698933D01*
X164820107Y-124698934D01*
X164670087Y-124779121D01*
X164670084Y-124779122D01*
X164507295Y-124828504D01*
X164338000Y-124845178D01*
X164168706Y-124828504D01*
X164005917Y-124779122D01*
X164005914Y-124779121D01*
X163855894Y-124698934D01*
X163855893Y-124698933D01*
X163855889Y-124698931D01*
X163724388Y-124591012D01*
X163616469Y-124459512D01*
X163594126Y-124417711D01*
X163536279Y-124309487D01*
X163518631Y-124251310D01*
X163486896Y-124146695D01*
X163478565Y-124062112D01*
X163474400Y-124019821D01*
X163474400Y-123630180D01*
X163486896Y-123503308D01*
X163486896Y-123503306D01*
X163536278Y-123340517D01*
X163536279Y-123340513D01*
X163616466Y-123190493D01*
X163616470Y-123190488D01*
X163724388Y-123058988D01*
X163855888Y-122951069D01*
X163855892Y-122951067D01*
X163855893Y-122951066D01*
X164005913Y-122870879D01*
X164033571Y-122862489D01*
X164168705Y-122821496D01*
X164338000Y-122804822D01*
X164507294Y-122821496D01*
X164507294Y-122821496D01*
G37*
G36*
X167047294Y-122821496D02*
G01*
X167167726Y-122858029D01*
X167210087Y-122870879D01*
X167360107Y-122951066D01*
X167360110Y-122951068D01*
X167360111Y-122951069D01*
X167491612Y-123058988D01*
X167599531Y-123190488D01*
X167599533Y-123190492D01*
X167599534Y-123190493D01*
X167679721Y-123340513D01*
X167679722Y-123340516D01*
X167729104Y-123503305D01*
X167729104Y-123503307D01*
X167741600Y-123630179D01*
X167741600Y-124019820D01*
X167741076Y-124025136D01*
X167729104Y-124146694D01*
X167697369Y-124251310D01*
X167679721Y-124309488D01*
X167621874Y-124417711D01*
X167599531Y-124459512D01*
X167491612Y-124591012D01*
X167360112Y-124698931D01*
X167360108Y-124698933D01*
X167360107Y-124698934D01*
X167210087Y-124779121D01*
X167210084Y-124779122D01*
X167047295Y-124828504D01*
X166878000Y-124845178D01*
X166708706Y-124828504D01*
X166545917Y-124779122D01*
X166545914Y-124779121D01*
X166395894Y-124698934D01*
X166395893Y-124698933D01*
X166395889Y-124698931D01*
X166264388Y-124591012D01*
X166156469Y-124459512D01*
X166134126Y-124417711D01*
X166076279Y-124309487D01*
X166058631Y-124251310D01*
X166026896Y-124146695D01*
X166018565Y-124062112D01*
X166014400Y-124019821D01*
X166014400Y-123630180D01*
X166026896Y-123503308D01*
X166026896Y-123503306D01*
X166076278Y-123340517D01*
X166076279Y-123340513D01*
X166156466Y-123190493D01*
X166156470Y-123190488D01*
X166264388Y-123058988D01*
X166395888Y-122951069D01*
X166395892Y-122951067D01*
X166395893Y-122951066D01*
X166545913Y-122870879D01*
X166573571Y-122862489D01*
X166708705Y-122821496D01*
X166878000Y-122804822D01*
X167047294Y-122821496D01*
X167047294Y-122821496D01*
G37*
G36*
X169587294Y-122821496D02*
G01*
X169707726Y-122858029D01*
X169750087Y-122870879D01*
X169900107Y-122951066D01*
X169900110Y-122951068D01*
X169900111Y-122951069D01*
X170031612Y-123058988D01*
X170139531Y-123190488D01*
X170139533Y-123190492D01*
X170139534Y-123190493D01*
X170219721Y-123340513D01*
X170219722Y-123340516D01*
X170269104Y-123503305D01*
X170269104Y-123503307D01*
X170281600Y-123630179D01*
X170281600Y-124019820D01*
X170281076Y-124025136D01*
X170269104Y-124146694D01*
X170237369Y-124251310D01*
X170219721Y-124309488D01*
X170161874Y-124417711D01*
X170139531Y-124459512D01*
X170031612Y-124591012D01*
X169900112Y-124698931D01*
X169900108Y-124698933D01*
X169900107Y-124698934D01*
X169750087Y-124779121D01*
X169750084Y-124779122D01*
X169587295Y-124828504D01*
X169418000Y-124845178D01*
X169248706Y-124828504D01*
X169085917Y-124779122D01*
X169085914Y-124779121D01*
X168935894Y-124698934D01*
X168935893Y-124698933D01*
X168935889Y-124698931D01*
X168804388Y-124591012D01*
X168696469Y-124459512D01*
X168674126Y-124417711D01*
X168616279Y-124309487D01*
X168598631Y-124251310D01*
X168566896Y-124146695D01*
X168558565Y-124062112D01*
X168554400Y-124019821D01*
X168554400Y-123630180D01*
X168566896Y-123503308D01*
X168566896Y-123503306D01*
X168616278Y-123340517D01*
X168616279Y-123340513D01*
X168696466Y-123190493D01*
X168696470Y-123190488D01*
X168804388Y-123058988D01*
X168935888Y-122951069D01*
X168935892Y-122951067D01*
X168935893Y-122951066D01*
X169085913Y-122870879D01*
X169113571Y-122862489D01*
X169248705Y-122821496D01*
X169418000Y-122804822D01*
X169587294Y-122821496D01*
X169587294Y-122821496D01*
G37*
G36*
X172127294Y-122821496D02*
G01*
X172247726Y-122858029D01*
X172290087Y-122870879D01*
X172440107Y-122951066D01*
X172440110Y-122951068D01*
X172440111Y-122951069D01*
X172571612Y-123058988D01*
X172679531Y-123190488D01*
X172679533Y-123190492D01*
X172679534Y-123190493D01*
X172759721Y-123340513D01*
X172759722Y-123340516D01*
X172809104Y-123503305D01*
X172809104Y-123503307D01*
X172821600Y-123630179D01*
X172821600Y-124019820D01*
X172821076Y-124025136D01*
X172809104Y-124146694D01*
X172777369Y-124251310D01*
X172759721Y-124309488D01*
X172701874Y-124417711D01*
X172679531Y-124459512D01*
X172571612Y-124591012D01*
X172440112Y-124698931D01*
X172440108Y-124698933D01*
X172440107Y-124698934D01*
X172290087Y-124779121D01*
X172290084Y-124779122D01*
X172127295Y-124828504D01*
X171958000Y-124845178D01*
X171788706Y-124828504D01*
X171625917Y-124779122D01*
X171625914Y-124779121D01*
X171475894Y-124698934D01*
X171475893Y-124698933D01*
X171475889Y-124698931D01*
X171344388Y-124591012D01*
X171236469Y-124459512D01*
X171214126Y-124417711D01*
X171156279Y-124309487D01*
X171138631Y-124251310D01*
X171106896Y-124146695D01*
X171098565Y-124062112D01*
X171094400Y-124019821D01*
X171094400Y-123630180D01*
X171106896Y-123503308D01*
X171106896Y-123503306D01*
X171156278Y-123340517D01*
X171156279Y-123340513D01*
X171236466Y-123190493D01*
X171236470Y-123190488D01*
X171344388Y-123058988D01*
X171475888Y-122951069D01*
X171475892Y-122951067D01*
X171475893Y-122951066D01*
X171625913Y-122870879D01*
X171653571Y-122862489D01*
X171788705Y-122821496D01*
X171958000Y-122804822D01*
X172127294Y-122821496D01*
X172127294Y-122821496D01*
G37*
G36*
X174667294Y-122821496D02*
G01*
X174787726Y-122858029D01*
X174830087Y-122870879D01*
X174980107Y-122951066D01*
X174980110Y-122951068D01*
X174980111Y-122951069D01*
X175111612Y-123058988D01*
X175219531Y-123190488D01*
X175219533Y-123190492D01*
X175219534Y-123190493D01*
X175299721Y-123340513D01*
X175299722Y-123340516D01*
X175349104Y-123503305D01*
X175349104Y-123503307D01*
X175361600Y-123630179D01*
X175361600Y-124019820D01*
X175361076Y-124025136D01*
X175349104Y-124146694D01*
X175317369Y-124251310D01*
X175299721Y-124309488D01*
X175241874Y-124417711D01*
X175219531Y-124459512D01*
X175111612Y-124591012D01*
X174980112Y-124698931D01*
X174980108Y-124698933D01*
X174980107Y-124698934D01*
X174830087Y-124779121D01*
X174830084Y-124779122D01*
X174667295Y-124828504D01*
X174498000Y-124845178D01*
X174328706Y-124828504D01*
X174165917Y-124779122D01*
X174165914Y-124779121D01*
X174015894Y-124698934D01*
X174015893Y-124698933D01*
X174015889Y-124698931D01*
X173884388Y-124591012D01*
X173776469Y-124459512D01*
X173754126Y-124417711D01*
X173696279Y-124309487D01*
X173678631Y-124251310D01*
X173646896Y-124146695D01*
X173638565Y-124062112D01*
X173634400Y-124019821D01*
X173634400Y-123630180D01*
X173646896Y-123503308D01*
X173646896Y-123503306D01*
X173696278Y-123340517D01*
X173696279Y-123340513D01*
X173776466Y-123190493D01*
X173776470Y-123190488D01*
X173884388Y-123058988D01*
X174015888Y-122951069D01*
X174015892Y-122951067D01*
X174015893Y-122951066D01*
X174165913Y-122870879D01*
X174193571Y-122862489D01*
X174328705Y-122821496D01*
X174498000Y-122804822D01*
X174667294Y-122821496D01*
X174667294Y-122821496D01*
G37*
G36*
X132299702Y-122951069D02*
G01*
X132342520Y-122959586D01*
X132506310Y-123027430D01*
X132653717Y-123125924D01*
X132779076Y-123251283D01*
X132838697Y-123340513D01*
X132877571Y-123398692D01*
X132945414Y-123562480D01*
X132980000Y-123736356D01*
X132980000Y-123913644D01*
X132958880Y-124019820D01*
X132945414Y-124087520D01*
X132877570Y-124251310D01*
X132779076Y-124398717D01*
X132653717Y-124524076D01*
X132506310Y-124622570D01*
X132506309Y-124622571D01*
X132506308Y-124622571D01*
X132342520Y-124690414D01*
X132168644Y-124725000D01*
X131991356Y-124725000D01*
X131817480Y-124690414D01*
X131653692Y-124622571D01*
X131653691Y-124622571D01*
X131653690Y-124622570D01*
X131506283Y-124524076D01*
X131380924Y-124398717D01*
X131282430Y-124251310D01*
X131214586Y-124087520D01*
X131201120Y-124019820D01*
X131180000Y-123913644D01*
X131180000Y-123736356D01*
X131214586Y-123562480D01*
X131282429Y-123398692D01*
X131321303Y-123340513D01*
X131380924Y-123251283D01*
X131506283Y-123125924D01*
X131653690Y-123027430D01*
X131817480Y-122959586D01*
X131860298Y-122951069D01*
X131991356Y-122925000D01*
X132168644Y-122925000D01*
X132299702Y-122951069D01*
X132299702Y-122951069D01*
G37*
G36*
X130440000Y-124725000D02*
G01*
X128640000Y-124725000D01*
X128640000Y-122925000D01*
X130440000Y-122925000D01*
X130440000Y-124725000D01*
X130440000Y-124725000D01*
G37*
G36*
X172036471Y-119980859D02*
G01*
X172114827Y-119988576D01*
X172265628Y-120034321D01*
X172265630Y-120034322D01*
X172404605Y-120108606D01*
X172526422Y-120208578D01*
X172626394Y-120330395D01*
X172700678Y-120469370D01*
X172700679Y-120469372D01*
X172746424Y-120620173D01*
X172761870Y-120777000D01*
X172746424Y-120933827D01*
X172724946Y-121004630D01*
X172700678Y-121084630D01*
X172626394Y-121223605D01*
X172526422Y-121345422D01*
X172404605Y-121445394D01*
X172329714Y-121485424D01*
X172265628Y-121519679D01*
X172114827Y-121565424D01*
X172036471Y-121573141D01*
X171997294Y-121577000D01*
X171918706Y-121577000D01*
X171879529Y-121573141D01*
X171801173Y-121565424D01*
X171650372Y-121519679D01*
X171586286Y-121485424D01*
X171511395Y-121445394D01*
X171389578Y-121345422D01*
X171289606Y-121223605D01*
X171215322Y-121084630D01*
X171191054Y-121004630D01*
X171169576Y-120933827D01*
X171154130Y-120777000D01*
X171169576Y-120620173D01*
X171215321Y-120469372D01*
X171215322Y-120469370D01*
X171289606Y-120330395D01*
X171389578Y-120208578D01*
X171511395Y-120108606D01*
X171650370Y-120034322D01*
X171650372Y-120034321D01*
X171801173Y-119988576D01*
X171879529Y-119980859D01*
X171918706Y-119977000D01*
X171997294Y-119977000D01*
X172036471Y-119980859D01*
X172036471Y-119980859D01*
G37*
G36*
X167739471Y-119980859D02*
G01*
X167817827Y-119988576D01*
X167968628Y-120034321D01*
X167968630Y-120034322D01*
X168107605Y-120108606D01*
X168229422Y-120208578D01*
X168329394Y-120330395D01*
X168403678Y-120469370D01*
X168403679Y-120469372D01*
X168449424Y-120620173D01*
X168464870Y-120777000D01*
X168449424Y-120933827D01*
X168427946Y-121004630D01*
X168403678Y-121084630D01*
X168329394Y-121223605D01*
X168229422Y-121345422D01*
X168107605Y-121445394D01*
X168032714Y-121485424D01*
X167968628Y-121519679D01*
X167817827Y-121565424D01*
X167739471Y-121573141D01*
X167700294Y-121577000D01*
X167621706Y-121577000D01*
X167582529Y-121573141D01*
X167504173Y-121565424D01*
X167353372Y-121519679D01*
X167289286Y-121485424D01*
X167214395Y-121445394D01*
X167092578Y-121345422D01*
X166992606Y-121223605D01*
X166918322Y-121084630D01*
X166894054Y-121004630D01*
X166872576Y-120933827D01*
X166857130Y-120777000D01*
X166872576Y-120620173D01*
X166918321Y-120469372D01*
X166918322Y-120469370D01*
X166992606Y-120330395D01*
X167092578Y-120208578D01*
X167214395Y-120108606D01*
X167353370Y-120034322D01*
X167353372Y-120034321D01*
X167504173Y-119988576D01*
X167582529Y-119980859D01*
X167621706Y-119977000D01*
X167700294Y-119977000D01*
X167739471Y-119980859D01*
X167739471Y-119980859D01*
G37*
G36*
X162892471Y-119900859D02*
G01*
X162970827Y-119908576D01*
X163121628Y-119954321D01*
X163121630Y-119954322D01*
X163260605Y-120028606D01*
X163382422Y-120128578D01*
X163482394Y-120250395D01*
X163525155Y-120330395D01*
X163556679Y-120389372D01*
X163602424Y-120540173D01*
X163617870Y-120697000D01*
X163602424Y-120853827D01*
X163578156Y-120933827D01*
X163556678Y-121004630D01*
X163482394Y-121143605D01*
X163382422Y-121265422D01*
X163260605Y-121365394D01*
X163121630Y-121439678D01*
X163121628Y-121439679D01*
X162970827Y-121485424D01*
X162892471Y-121493141D01*
X162853294Y-121497000D01*
X162774706Y-121497000D01*
X162735529Y-121493141D01*
X162657173Y-121485424D01*
X162506372Y-121439679D01*
X162506370Y-121439678D01*
X162367395Y-121365394D01*
X162245578Y-121265422D01*
X162145606Y-121143605D01*
X162071322Y-121004630D01*
X162049844Y-120933827D01*
X162025576Y-120853827D01*
X162010130Y-120697000D01*
X162025576Y-120540173D01*
X162071321Y-120389372D01*
X162102845Y-120330395D01*
X162145606Y-120250395D01*
X162245578Y-120128578D01*
X162367395Y-120028606D01*
X162506370Y-119954322D01*
X162506372Y-119954321D01*
X162657173Y-119908576D01*
X162735529Y-119900859D01*
X162774706Y-119897000D01*
X162853294Y-119897000D01*
X162892471Y-119900859D01*
X162892471Y-119900859D01*
G37*
G36*
X139738000Y-120861000D02*
G01*
X138138000Y-120861000D01*
X138138000Y-119261000D01*
X139738000Y-119261000D01*
X139738000Y-120861000D01*
X139738000Y-120861000D01*
G37*
G36*
X149176471Y-119264859D02*
G01*
X149254827Y-119272576D01*
X149405628Y-119318321D01*
X149405630Y-119318322D01*
X149544605Y-119392606D01*
X149544607Y-119392607D01*
X149544606Y-119392607D01*
X149666422Y-119492578D01*
X149766393Y-119614394D01*
X149840679Y-119753372D01*
X149886424Y-119904173D01*
X149901870Y-120061000D01*
X149886424Y-120217827D01*
X149840679Y-120368628D01*
X149840678Y-120368630D01*
X149766394Y-120507605D01*
X149666422Y-120629422D01*
X149544605Y-120729394D01*
X149445844Y-120782183D01*
X149405628Y-120803679D01*
X149254827Y-120849424D01*
X149176471Y-120857141D01*
X149137294Y-120861000D01*
X149058706Y-120861000D01*
X149019529Y-120857141D01*
X148941173Y-120849424D01*
X148790372Y-120803679D01*
X148750156Y-120782183D01*
X148651395Y-120729394D01*
X148529578Y-120629422D01*
X148429606Y-120507605D01*
X148355322Y-120368630D01*
X148355321Y-120368628D01*
X148309576Y-120217827D01*
X148294130Y-120061000D01*
X148309576Y-119904173D01*
X148355321Y-119753372D01*
X148429607Y-119614394D01*
X148529578Y-119492578D01*
X148651394Y-119392607D01*
X148651393Y-119392607D01*
X148651395Y-119392606D01*
X148790370Y-119318322D01*
X148790372Y-119318321D01*
X148941173Y-119272576D01*
X149019529Y-119264859D01*
X149058706Y-119261000D01*
X149137294Y-119261000D01*
X149176471Y-119264859D01*
X149176471Y-119264859D01*
G37*
G36*
X137117000Y-120861000D02*
G01*
X134917000Y-120861000D01*
X134917000Y-118661000D01*
X137117000Y-118661000D01*
X137117000Y-120861000D01*
X137117000Y-120861000D01*
G37*
G36*
X125991837Y-118668958D02*
G01*
X126072638Y-118676916D01*
X126226034Y-118723449D01*
X126279992Y-118739817D01*
X126471084Y-118841957D01*
X126638581Y-118979419D01*
X126776043Y-119146916D01*
X126878183Y-119338008D01*
X126878184Y-119338012D01*
X126941084Y-119545362D01*
X126962322Y-119761000D01*
X126941084Y-119976638D01*
X126913178Y-120068630D01*
X126878183Y-120183992D01*
X126776043Y-120375084D01*
X126638581Y-120542581D01*
X126471084Y-120680043D01*
X126279992Y-120782183D01*
X126226034Y-120798551D01*
X126072638Y-120845084D01*
X125991837Y-120853042D01*
X125911038Y-120861000D01*
X125802962Y-120861000D01*
X125722163Y-120853042D01*
X125641362Y-120845084D01*
X125487966Y-120798551D01*
X125434008Y-120782183D01*
X125242916Y-120680043D01*
X125075419Y-120542581D01*
X124937957Y-120375084D01*
X124835817Y-120183992D01*
X124800822Y-120068630D01*
X124772916Y-119976638D01*
X124751678Y-119761000D01*
X124772916Y-119545362D01*
X124835816Y-119338012D01*
X124835817Y-119338008D01*
X124937957Y-119146916D01*
X125075419Y-118979419D01*
X125242916Y-118841957D01*
X125434008Y-118739817D01*
X125487966Y-118723449D01*
X125641362Y-118676916D01*
X125722163Y-118668958D01*
X125802962Y-118661000D01*
X125911038Y-118661000D01*
X125991837Y-118668958D01*
X125991837Y-118668958D01*
G37*
G36*
X177630711Y-116791088D02*
G01*
X177630714Y-116791089D01*
X177630713Y-116791089D01*
X178000513Y-116944265D01*
X178076443Y-116995000D01*
X178333324Y-117166642D01*
X178616358Y-117449676D01*
X178838736Y-117782489D01*
X178991912Y-118152289D01*
X179070000Y-118544864D01*
X179070000Y-118945136D01*
X178991912Y-119337711D01*
X178838736Y-119707511D01*
X178616358Y-120040324D01*
X178333324Y-120323358D01*
X178234530Y-120389370D01*
X178000513Y-120545735D01*
X178000512Y-120545736D01*
X178000511Y-120545736D01*
X177630711Y-120698912D01*
X177238136Y-120777000D01*
X176837864Y-120777000D01*
X176445289Y-120698912D01*
X176075489Y-120545736D01*
X176075488Y-120545736D01*
X176075487Y-120545735D01*
X175841470Y-120389370D01*
X175742676Y-120323358D01*
X175459642Y-120040324D01*
X175237264Y-119707511D01*
X175084088Y-119337711D01*
X175006000Y-118945136D01*
X175006000Y-118544864D01*
X175084088Y-118152289D01*
X175237264Y-117782489D01*
X175459642Y-117449676D01*
X175742676Y-117166642D01*
X175999557Y-116995000D01*
X176075487Y-116944265D01*
X176445287Y-116791089D01*
X176445286Y-116791089D01*
X176445289Y-116791088D01*
X176837864Y-116713000D01*
X177238136Y-116713000D01*
X177630711Y-116791088D01*
X177630711Y-116791088D01*
G37*
G36*
X159196471Y-118964859D02*
G01*
X159274827Y-118972576D01*
X159425628Y-119018321D01*
X159425630Y-119018322D01*
X159564605Y-119092606D01*
X159686422Y-119192578D01*
X159786394Y-119314395D01*
X159822561Y-119382058D01*
X159860679Y-119453372D01*
X159906424Y-119604173D01*
X159921870Y-119761000D01*
X159906424Y-119917827D01*
X159862993Y-120061000D01*
X159860678Y-120068630D01*
X159786394Y-120207605D01*
X159686422Y-120329422D01*
X159564605Y-120429394D01*
X159441865Y-120495000D01*
X159425628Y-120503679D01*
X159274827Y-120549424D01*
X159196471Y-120557141D01*
X159157294Y-120561000D01*
X159078706Y-120561000D01*
X159039529Y-120557141D01*
X158961173Y-120549424D01*
X158810372Y-120503679D01*
X158794135Y-120495000D01*
X158671395Y-120429394D01*
X158549578Y-120329422D01*
X158449606Y-120207605D01*
X158375322Y-120068630D01*
X158373007Y-120061000D01*
X158329576Y-119917827D01*
X158314130Y-119761000D01*
X158329576Y-119604173D01*
X158375321Y-119453372D01*
X158413439Y-119382058D01*
X158449606Y-119314395D01*
X158549578Y-119192578D01*
X158671395Y-119092606D01*
X158810370Y-119018322D01*
X158810372Y-119018321D01*
X158961173Y-118972576D01*
X159039529Y-118964859D01*
X159078706Y-118961000D01*
X159157294Y-118961000D01*
X159196471Y-118964859D01*
X159196471Y-118964859D01*
G37*
G36*
X151851351Y-118991743D02*
G01*
X151996941Y-119052048D01*
X152127970Y-119139599D01*
X152239401Y-119251030D01*
X152326952Y-119382059D01*
X152387257Y-119527649D01*
X152418000Y-119682206D01*
X152418000Y-119839794D01*
X152387257Y-119994351D01*
X152326952Y-120139941D01*
X152239401Y-120270970D01*
X152127970Y-120382401D01*
X151996941Y-120469952D01*
X151851351Y-120530257D01*
X151696794Y-120561000D01*
X151539206Y-120561000D01*
X151384649Y-120530257D01*
X151239059Y-120469952D01*
X151108030Y-120382401D01*
X150996599Y-120270970D01*
X150909048Y-120139941D01*
X150848743Y-119994351D01*
X150818000Y-119839794D01*
X150818000Y-119682206D01*
X150848743Y-119527649D01*
X150909048Y-119382059D01*
X150996599Y-119251030D01*
X151108030Y-119139599D01*
X151239059Y-119052048D01*
X151384649Y-118991743D01*
X151539206Y-118961000D01*
X151696794Y-118961000D01*
X151851351Y-118991743D01*
X151851351Y-118991743D01*
G37*
G36*
X116485505Y-117008803D02*
G01*
X116614366Y-117047893D01*
X116733117Y-117111367D01*
X116837209Y-117196791D01*
X116922633Y-117300883D01*
X116986107Y-117419634D01*
X117025197Y-117548495D01*
X117039000Y-117688640D01*
X117039000Y-119801360D01*
X117025197Y-119941505D01*
X116986107Y-120070366D01*
X116922633Y-120189117D01*
X116837209Y-120293209D01*
X116733117Y-120378633D01*
X116614366Y-120442107D01*
X116485505Y-120481197D01*
X116345360Y-120495000D01*
X114732640Y-120495000D01*
X114592495Y-120481197D01*
X114463634Y-120442107D01*
X114344883Y-120378633D01*
X114240791Y-120293209D01*
X114155367Y-120189117D01*
X114091893Y-120070366D01*
X114052803Y-119941505D01*
X114039000Y-119801360D01*
X114039000Y-117688640D01*
X114052803Y-117548495D01*
X114091893Y-117419634D01*
X114155367Y-117300883D01*
X114240791Y-117196791D01*
X114344883Y-117111367D01*
X114463634Y-117047893D01*
X114592495Y-117008803D01*
X114732640Y-116995000D01*
X116345360Y-116995000D01*
X116485505Y-117008803D01*
X116485505Y-117008803D01*
G37*
G36*
X123289000Y-120495000D02*
G01*
X119789000Y-120495000D01*
X119789000Y-116995000D01*
X123289000Y-116995000D01*
X123289000Y-120495000D01*
X123289000Y-120495000D01*
G37*
G36*
X139738000Y-116264000D02*
G01*
X138138000Y-116264000D01*
X138138000Y-114664000D01*
X139738000Y-114664000D01*
X139738000Y-116264000D01*
X139738000Y-116264000D01*
G37*
G36*
X149176471Y-114667859D02*
G01*
X149254827Y-114675576D01*
X149405628Y-114721321D01*
X149405630Y-114721322D01*
X149544605Y-114795606D01*
X149666422Y-114895578D01*
X149766394Y-115017395D01*
X149829366Y-115135207D01*
X149840679Y-115156372D01*
X149886424Y-115307173D01*
X149901870Y-115464000D01*
X149886424Y-115620827D01*
X149840679Y-115771628D01*
X149840678Y-115771630D01*
X149766394Y-115910605D01*
X149666422Y-116032422D01*
X149544605Y-116132394D01*
X149405630Y-116206678D01*
X149405628Y-116206679D01*
X149254827Y-116252424D01*
X149176471Y-116260141D01*
X149137294Y-116264000D01*
X149058706Y-116264000D01*
X149019529Y-116260141D01*
X148941173Y-116252424D01*
X148790372Y-116206679D01*
X148790370Y-116206678D01*
X148651395Y-116132394D01*
X148529578Y-116032422D01*
X148429606Y-115910605D01*
X148355322Y-115771630D01*
X148355321Y-115771628D01*
X148309576Y-115620827D01*
X148294130Y-115464000D01*
X148309576Y-115307173D01*
X148355321Y-115156372D01*
X148366634Y-115135207D01*
X148429606Y-115017395D01*
X148529578Y-114895578D01*
X148651395Y-114795606D01*
X148790370Y-114721322D01*
X148790372Y-114721321D01*
X148941173Y-114675576D01*
X149019529Y-114667859D01*
X149058706Y-114664000D01*
X149137294Y-114664000D01*
X149176471Y-114667859D01*
X149176471Y-114667859D01*
G37*
G36*
X151696471Y-114417859D02*
G01*
X151774827Y-114425576D01*
X151925628Y-114471321D01*
X151925630Y-114471322D01*
X152064605Y-114545606D01*
X152186422Y-114645578D01*
X152286394Y-114767395D01*
X152360678Y-114906370D01*
X152360679Y-114906372D01*
X152406424Y-115057173D01*
X152421870Y-115214000D01*
X152406424Y-115370827D01*
X152378160Y-115464000D01*
X152360678Y-115521630D01*
X152286394Y-115660605D01*
X152186422Y-115782422D01*
X152064605Y-115882394D01*
X151925630Y-115956678D01*
X151925628Y-115956679D01*
X151774827Y-116002424D01*
X151696471Y-116010141D01*
X151657294Y-116014000D01*
X151578706Y-116014000D01*
X151539529Y-116010141D01*
X151461173Y-116002424D01*
X151310372Y-115956679D01*
X151310370Y-115956678D01*
X151171395Y-115882394D01*
X151049578Y-115782422D01*
X150949606Y-115660605D01*
X150875322Y-115521630D01*
X150857840Y-115464000D01*
X150829576Y-115370827D01*
X150814130Y-115214000D01*
X150829576Y-115057173D01*
X150875321Y-114906372D01*
X150875322Y-114906370D01*
X150949606Y-114767395D01*
X151049578Y-114645578D01*
X151171395Y-114545606D01*
X151310370Y-114471322D01*
X151310372Y-114471321D01*
X151461173Y-114425576D01*
X151539529Y-114417859D01*
X151578706Y-114414000D01*
X151657294Y-114414000D01*
X151696471Y-114417859D01*
X151696471Y-114417859D01*
G37*
G36*
X159351351Y-114444743D02*
G01*
X159496941Y-114505048D01*
X159627970Y-114592599D01*
X159739401Y-114704030D01*
X159826952Y-114835059D01*
X159887257Y-114980649D01*
X159918000Y-115135206D01*
X159918000Y-115292794D01*
X159887257Y-115447351D01*
X159826952Y-115592941D01*
X159739401Y-115723970D01*
X159627970Y-115835401D01*
X159496941Y-115922952D01*
X159351351Y-115983257D01*
X159196794Y-116014000D01*
X159039206Y-116014000D01*
X158884649Y-115983257D01*
X158739059Y-115922952D01*
X158608030Y-115835401D01*
X158496599Y-115723970D01*
X158409048Y-115592941D01*
X158348743Y-115447351D01*
X158318000Y-115292794D01*
X158318000Y-115135206D01*
X158348743Y-114980649D01*
X158409048Y-114835059D01*
X158496599Y-114704030D01*
X158608030Y-114592599D01*
X158739059Y-114505048D01*
X158884649Y-114444743D01*
X159039206Y-114414000D01*
X159196794Y-114414000D01*
X159351351Y-114444743D01*
X159351351Y-114444743D01*
G37*
G36*
X127356919Y-113938596D02*
G01*
X127455880Y-113968616D01*
X127535307Y-114011071D01*
X127547086Y-114017367D01*
X127567909Y-114034456D01*
X127627028Y-114082972D01*
X127675544Y-114142091D01*
X127692633Y-114162914D01*
X127741383Y-114254119D01*
X127754384Y-114296978D01*
X127754384Y-114296979D01*
X127763762Y-114319617D01*
X127777376Y-114339992D01*
X127794703Y-114357319D01*
X127815077Y-114370932D01*
X127837716Y-114380310D01*
X127861749Y-114385090D01*
X127886253Y-114385090D01*
X127910287Y-114380310D01*
X127932925Y-114370932D01*
X127953300Y-114357318D01*
X127970627Y-114339991D01*
X127984240Y-114319617D01*
X127993618Y-114296978D01*
X127999000Y-114260693D01*
X127999000Y-113931000D01*
X129049000Y-113931000D01*
X129049000Y-115431000D01*
X127999000Y-115431000D01*
X127999000Y-115101307D01*
X127996598Y-115076921D01*
X127989485Y-115053472D01*
X127977934Y-115031861D01*
X127962389Y-115012919D01*
X127943447Y-114997374D01*
X127921836Y-114985823D01*
X127898387Y-114978710D01*
X127874001Y-114976308D01*
X127849615Y-114978710D01*
X127826166Y-114985823D01*
X127804555Y-114997374D01*
X127785613Y-115012919D01*
X127770068Y-115031861D01*
X127754385Y-115065019D01*
X127741383Y-115107881D01*
X127692633Y-115199086D01*
X127680393Y-115214000D01*
X127627028Y-115279027D01*
X127610252Y-115292794D01*
X127547086Y-115344633D01*
X127498084Y-115370825D01*
X127455879Y-115393384D01*
X127356918Y-115423404D01*
X127254000Y-115433540D01*
X127151081Y-115423404D01*
X127052120Y-115393384D01*
X126960916Y-115344634D01*
X126960914Y-115344633D01*
X126915269Y-115307173D01*
X126880973Y-115279028D01*
X126857386Y-115250286D01*
X126815367Y-115199086D01*
X126781223Y-115135206D01*
X126766616Y-115107879D01*
X126738616Y-115015576D01*
X126729239Y-114992937D01*
X126715625Y-114972563D01*
X126698298Y-114955236D01*
X126677924Y-114941622D01*
X126655285Y-114932245D01*
X126631252Y-114927465D01*
X126606747Y-114927465D01*
X126582714Y-114932246D01*
X126560075Y-114941623D01*
X126539701Y-114955237D01*
X126522374Y-114972564D01*
X126508760Y-114992938D01*
X126499383Y-115015576D01*
X126471383Y-115107881D01*
X126422633Y-115199086D01*
X126410393Y-115214000D01*
X126357028Y-115279027D01*
X126340252Y-115292794D01*
X126277086Y-115344633D01*
X126228084Y-115370825D01*
X126185879Y-115393384D01*
X126086918Y-115423404D01*
X125984000Y-115433540D01*
X125881081Y-115423404D01*
X125782120Y-115393384D01*
X125690916Y-115344634D01*
X125690914Y-115344633D01*
X125645269Y-115307173D01*
X125610973Y-115279028D01*
X125587386Y-115250286D01*
X125545367Y-115199086D01*
X125511223Y-115135206D01*
X125496616Y-115107879D01*
X125466596Y-115008918D01*
X125459000Y-114931791D01*
X125459000Y-114430208D01*
X125466596Y-114353081D01*
X125496616Y-114254120D01*
X125545366Y-114162916D01*
X125610973Y-114082973D01*
X125655848Y-114046146D01*
X125690915Y-114017367D01*
X125702694Y-114011071D01*
X125782121Y-113968616D01*
X125881082Y-113938596D01*
X125984000Y-113928460D01*
X126086919Y-113938596D01*
X126185880Y-113968616D01*
X126265307Y-114011071D01*
X126277086Y-114017367D01*
X126297909Y-114034456D01*
X126357028Y-114082972D01*
X126405544Y-114142091D01*
X126422633Y-114162914D01*
X126422634Y-114162916D01*
X126471384Y-114254120D01*
X126499384Y-114346423D01*
X126508761Y-114369062D01*
X126522375Y-114389436D01*
X126539702Y-114406763D01*
X126560076Y-114420377D01*
X126582715Y-114429754D01*
X126606748Y-114434534D01*
X126631253Y-114434534D01*
X126655286Y-114429753D01*
X126677925Y-114420376D01*
X126698299Y-114406762D01*
X126715626Y-114389435D01*
X126729240Y-114369061D01*
X126738616Y-114346423D01*
X126766616Y-114254120D01*
X126815366Y-114162916D01*
X126880973Y-114082973D01*
X126925848Y-114046146D01*
X126960915Y-114017367D01*
X126972694Y-114011071D01*
X127052121Y-113968616D01*
X127151082Y-113938596D01*
X127254000Y-113928460D01*
X127356919Y-113938596D01*
X127356919Y-113938596D01*
G37*
G36*
X133452919Y-113938596D02*
G01*
X133551880Y-113968616D01*
X133631307Y-114011071D01*
X133643086Y-114017367D01*
X133663909Y-114034456D01*
X133723028Y-114082972D01*
X133771544Y-114142091D01*
X133788633Y-114162914D01*
X133837383Y-114254119D01*
X133850384Y-114296978D01*
X133850384Y-114296979D01*
X133859762Y-114319617D01*
X133873376Y-114339992D01*
X133890703Y-114357319D01*
X133911077Y-114370932D01*
X133933716Y-114380310D01*
X133957749Y-114385090D01*
X133982253Y-114385090D01*
X134006287Y-114380310D01*
X134028925Y-114370932D01*
X134049300Y-114357318D01*
X134066627Y-114339991D01*
X134080240Y-114319617D01*
X134089618Y-114296978D01*
X134095000Y-114260693D01*
X134095000Y-113931000D01*
X135145000Y-113931000D01*
X135145000Y-115431000D01*
X134095000Y-115431000D01*
X134095000Y-115101307D01*
X134092598Y-115076921D01*
X134085485Y-115053472D01*
X134073934Y-115031861D01*
X134058389Y-115012919D01*
X134039447Y-114997374D01*
X134017836Y-114985823D01*
X133994387Y-114978710D01*
X133970001Y-114976308D01*
X133945615Y-114978710D01*
X133922166Y-114985823D01*
X133900555Y-114997374D01*
X133881613Y-115012919D01*
X133866068Y-115031861D01*
X133850385Y-115065019D01*
X133837383Y-115107881D01*
X133788633Y-115199086D01*
X133776393Y-115214000D01*
X133723028Y-115279027D01*
X133706252Y-115292794D01*
X133643086Y-115344633D01*
X133594084Y-115370825D01*
X133551879Y-115393384D01*
X133452918Y-115423404D01*
X133350000Y-115433540D01*
X133247081Y-115423404D01*
X133148120Y-115393384D01*
X133056916Y-115344634D01*
X133056914Y-115344633D01*
X133011269Y-115307173D01*
X132976973Y-115279028D01*
X132953386Y-115250286D01*
X132911367Y-115199086D01*
X132877223Y-115135206D01*
X132862616Y-115107879D01*
X132834616Y-115015576D01*
X132825239Y-114992937D01*
X132811625Y-114972563D01*
X132794298Y-114955236D01*
X132773924Y-114941622D01*
X132751285Y-114932245D01*
X132727252Y-114927465D01*
X132702747Y-114927465D01*
X132678714Y-114932246D01*
X132656075Y-114941623D01*
X132635701Y-114955237D01*
X132618374Y-114972564D01*
X132604760Y-114992938D01*
X132595383Y-115015576D01*
X132567383Y-115107881D01*
X132518633Y-115199086D01*
X132506393Y-115214000D01*
X132453028Y-115279027D01*
X132436252Y-115292794D01*
X132373086Y-115344633D01*
X132324084Y-115370825D01*
X132281879Y-115393384D01*
X132182918Y-115423404D01*
X132080000Y-115433540D01*
X131977081Y-115423404D01*
X131878120Y-115393384D01*
X131786916Y-115344634D01*
X131786914Y-115344633D01*
X131741269Y-115307173D01*
X131706973Y-115279028D01*
X131683386Y-115250286D01*
X131641367Y-115199086D01*
X131607223Y-115135206D01*
X131592616Y-115107879D01*
X131562596Y-115008918D01*
X131555000Y-114931791D01*
X131555000Y-114430208D01*
X131562596Y-114353081D01*
X131592616Y-114254120D01*
X131641366Y-114162916D01*
X131706973Y-114082973D01*
X131751848Y-114046146D01*
X131786915Y-114017367D01*
X131798694Y-114011071D01*
X131878121Y-113968616D01*
X131977082Y-113938596D01*
X132080000Y-113928460D01*
X132182919Y-113938596D01*
X132281880Y-113968616D01*
X132361307Y-114011071D01*
X132373086Y-114017367D01*
X132393909Y-114034456D01*
X132453028Y-114082972D01*
X132501544Y-114142091D01*
X132518633Y-114162914D01*
X132518634Y-114162916D01*
X132567384Y-114254120D01*
X132595384Y-114346423D01*
X132604761Y-114369062D01*
X132618375Y-114389436D01*
X132635702Y-114406763D01*
X132656076Y-114420377D01*
X132678715Y-114429754D01*
X132702748Y-114434534D01*
X132727253Y-114434534D01*
X132751286Y-114429753D01*
X132773925Y-114420376D01*
X132794299Y-114406762D01*
X132811626Y-114389435D01*
X132825240Y-114369061D01*
X132834616Y-114346423D01*
X132862616Y-114254120D01*
X132911366Y-114162916D01*
X132976973Y-114082973D01*
X133021848Y-114046146D01*
X133056915Y-114017367D01*
X133068694Y-114011071D01*
X133148121Y-113968616D01*
X133247082Y-113938596D01*
X133350000Y-113928460D01*
X133452919Y-113938596D01*
X133452919Y-113938596D01*
G37*
G36*
X118657627Y-110541299D02*
G01*
X118737742Y-110565602D01*
X118817855Y-110589903D01*
X118817857Y-110589904D01*
X118965518Y-110668831D01*
X119094949Y-110775051D01*
X119156745Y-110850351D01*
X119201168Y-110904481D01*
X119280097Y-111052145D01*
X119298740Y-111113605D01*
X119328701Y-111212373D01*
X119345112Y-111379000D01*
X119328701Y-111545627D01*
X119280096Y-111705857D01*
X119201169Y-111853518D01*
X119094949Y-111982949D01*
X118965518Y-112089169D01*
X118817857Y-112168096D01*
X118817855Y-112168097D01*
X118737742Y-112192398D01*
X118657627Y-112216701D01*
X118532752Y-112229000D01*
X118449248Y-112229000D01*
X118324373Y-112216701D01*
X118244258Y-112192398D01*
X118164145Y-112168097D01*
X118164143Y-112168096D01*
X118016482Y-112089169D01*
X117887051Y-111982949D01*
X117780831Y-111853518D01*
X117701904Y-111705857D01*
X117653299Y-111545627D01*
X117636888Y-111379000D01*
X117653299Y-111212373D01*
X117683260Y-111113605D01*
X117701903Y-111052145D01*
X117780832Y-110904481D01*
X117825255Y-110850351D01*
X117887051Y-110775051D01*
X118016482Y-110668831D01*
X118164143Y-110589904D01*
X118164145Y-110589903D01*
X118244258Y-110565602D01*
X118324373Y-110541299D01*
X118449248Y-110529000D01*
X118532752Y-110529000D01*
X118657627Y-110541299D01*
X118657627Y-110541299D01*
G37*
G36*
X116117627Y-110541299D02*
G01*
X116197742Y-110565602D01*
X116277855Y-110589903D01*
X116277857Y-110589904D01*
X116425518Y-110668831D01*
X116554949Y-110775051D01*
X116616745Y-110850351D01*
X116661168Y-110904481D01*
X116740097Y-111052145D01*
X116758740Y-111113605D01*
X116788701Y-111212373D01*
X116805112Y-111379000D01*
X116788701Y-111545627D01*
X116740096Y-111705857D01*
X116661169Y-111853518D01*
X116554949Y-111982949D01*
X116425518Y-112089169D01*
X116277857Y-112168096D01*
X116277855Y-112168097D01*
X116197742Y-112192398D01*
X116117627Y-112216701D01*
X115992752Y-112229000D01*
X115909248Y-112229000D01*
X115784373Y-112216701D01*
X115704258Y-112192398D01*
X115624145Y-112168097D01*
X115624143Y-112168096D01*
X115476482Y-112089169D01*
X115347051Y-111982949D01*
X115240831Y-111853518D01*
X115161904Y-111705857D01*
X115113299Y-111545627D01*
X115096888Y-111379000D01*
X115113299Y-111212373D01*
X115143260Y-111113605D01*
X115161903Y-111052145D01*
X115240832Y-110904481D01*
X115285255Y-110850351D01*
X115347051Y-110775051D01*
X115476482Y-110668831D01*
X115624143Y-110589904D01*
X115624145Y-110589903D01*
X115704258Y-110565602D01*
X115784373Y-110541299D01*
X115909248Y-110529000D01*
X115992752Y-110529000D01*
X116117627Y-110541299D01*
X116117627Y-110541299D01*
G37*
G36*
X114261000Y-112229000D02*
G01*
X112561000Y-112229000D01*
X112561000Y-110529000D01*
X114261000Y-110529000D01*
X114261000Y-112229000D01*
X114261000Y-112229000D01*
G37*
G36*
X163047351Y-109927743D02*
G01*
X163192941Y-109988048D01*
X163323970Y-110075599D01*
X163435401Y-110187030D01*
X163522952Y-110318059D01*
X163583257Y-110463649D01*
X163614000Y-110618206D01*
X163614000Y-110775794D01*
X163583257Y-110930351D01*
X163522952Y-111075941D01*
X163435401Y-111206970D01*
X163323970Y-111318401D01*
X163192941Y-111405952D01*
X163047351Y-111466257D01*
X162892794Y-111497000D01*
X162735206Y-111497000D01*
X162580649Y-111466257D01*
X162435059Y-111405952D01*
X162304030Y-111318401D01*
X162192599Y-111206970D01*
X162105048Y-111075941D01*
X162044743Y-110930351D01*
X162014000Y-110775794D01*
X162014000Y-110618206D01*
X162044743Y-110463649D01*
X162105048Y-110318059D01*
X162192599Y-110187030D01*
X162304030Y-110075599D01*
X162435059Y-109988048D01*
X162580649Y-109927743D01*
X162735206Y-109897000D01*
X162892794Y-109897000D01*
X163047351Y-109927743D01*
X163047351Y-109927743D01*
G37*
G36*
X151851351Y-109897743D02*
G01*
X151996941Y-109958048D01*
X152127970Y-110045599D01*
X152239401Y-110157030D01*
X152326952Y-110288059D01*
X152387257Y-110433649D01*
X152418000Y-110588206D01*
X152418000Y-110745794D01*
X152387257Y-110900351D01*
X152326952Y-111045941D01*
X152239401Y-111176970D01*
X152127970Y-111288401D01*
X151996941Y-111375952D01*
X151851351Y-111436257D01*
X151696794Y-111467000D01*
X151539206Y-111467000D01*
X151384649Y-111436257D01*
X151239059Y-111375952D01*
X151108030Y-111288401D01*
X150996599Y-111176970D01*
X150909048Y-111045941D01*
X150848743Y-110900351D01*
X150818000Y-110745794D01*
X150818000Y-110588206D01*
X150848743Y-110433649D01*
X150909048Y-110288059D01*
X150996599Y-110157030D01*
X151108030Y-110045599D01*
X151239059Y-109958048D01*
X151384649Y-109897743D01*
X151539206Y-109867000D01*
X151696794Y-109867000D01*
X151851351Y-109897743D01*
X151851351Y-109897743D01*
G37*
G36*
X159196471Y-109870859D02*
G01*
X159274827Y-109878576D01*
X159425628Y-109924321D01*
X159425630Y-109924322D01*
X159564605Y-109998606D01*
X159686422Y-110098578D01*
X159786394Y-110220395D01*
X159822561Y-110288058D01*
X159860679Y-110359372D01*
X159906424Y-110510173D01*
X159921870Y-110667000D01*
X159906424Y-110823827D01*
X159874110Y-110930351D01*
X159860678Y-110974630D01*
X159786394Y-111113605D01*
X159686422Y-111235422D01*
X159564605Y-111335394D01*
X159432603Y-111405951D01*
X159425628Y-111409679D01*
X159274827Y-111455424D01*
X159196471Y-111463141D01*
X159157294Y-111467000D01*
X159078706Y-111467000D01*
X159039529Y-111463141D01*
X158961173Y-111455424D01*
X158810372Y-111409679D01*
X158803397Y-111405951D01*
X158671395Y-111335394D01*
X158549578Y-111235422D01*
X158449606Y-111113605D01*
X158375322Y-110974630D01*
X158361890Y-110930351D01*
X158329576Y-110823827D01*
X158314130Y-110667000D01*
X158329576Y-110510173D01*
X158375321Y-110359372D01*
X158413439Y-110288058D01*
X158449606Y-110220395D01*
X158549578Y-110098578D01*
X158671395Y-109998606D01*
X158810370Y-109924322D01*
X158810372Y-109924321D01*
X158961173Y-109878576D01*
X159039529Y-109870859D01*
X159078706Y-109867000D01*
X159157294Y-109867000D01*
X159196471Y-109870859D01*
X159196471Y-109870859D01*
G37*
G36*
X149176471Y-109820859D02*
G01*
X149254827Y-109828576D01*
X149405628Y-109874321D01*
X149405630Y-109874322D01*
X149544605Y-109948606D01*
X149666422Y-110048578D01*
X149766394Y-110170395D01*
X149802561Y-110238058D01*
X149840679Y-110309372D01*
X149886424Y-110460173D01*
X149901870Y-110617000D01*
X149886424Y-110773827D01*
X149846790Y-110904482D01*
X149840678Y-110924630D01*
X149766394Y-111063605D01*
X149666422Y-111185422D01*
X149544605Y-111285394D01*
X149451062Y-111335394D01*
X149405628Y-111359679D01*
X149254827Y-111405424D01*
X149176471Y-111413141D01*
X149137294Y-111417000D01*
X149058706Y-111417000D01*
X149019529Y-111413141D01*
X148941173Y-111405424D01*
X148790372Y-111359679D01*
X148744938Y-111335394D01*
X148651395Y-111285394D01*
X148529578Y-111185422D01*
X148429606Y-111063605D01*
X148355322Y-110924630D01*
X148349210Y-110904482D01*
X148309576Y-110773827D01*
X148294130Y-110617000D01*
X148309576Y-110460173D01*
X148355321Y-110309372D01*
X148393439Y-110238058D01*
X148429606Y-110170395D01*
X148529578Y-110048578D01*
X148651395Y-109948606D01*
X148790370Y-109874322D01*
X148790372Y-109874321D01*
X148941173Y-109828576D01*
X149019529Y-109820859D01*
X149058706Y-109817000D01*
X149137294Y-109817000D01*
X149176471Y-109820859D01*
X149176471Y-109820859D01*
G37*
G36*
X167894351Y-109847743D02*
G01*
X168039941Y-109908048D01*
X168170970Y-109995599D01*
X168282401Y-110107030D01*
X168369952Y-110238059D01*
X168430257Y-110383649D01*
X168461000Y-110538206D01*
X168461000Y-110695794D01*
X168430257Y-110850351D01*
X168369952Y-110995941D01*
X168282401Y-111126970D01*
X168170970Y-111238401D01*
X168039941Y-111325952D01*
X167894351Y-111386257D01*
X167739794Y-111417000D01*
X167582206Y-111417000D01*
X167427649Y-111386257D01*
X167282059Y-111325952D01*
X167151030Y-111238401D01*
X167039599Y-111126970D01*
X166952048Y-110995941D01*
X166891743Y-110850351D01*
X166861000Y-110695794D01*
X166861000Y-110538206D01*
X166891743Y-110383649D01*
X166952048Y-110238059D01*
X167039599Y-110107030D01*
X167151030Y-109995599D01*
X167282059Y-109908048D01*
X167427649Y-109847743D01*
X167582206Y-109817000D01*
X167739794Y-109817000D01*
X167894351Y-109847743D01*
X167894351Y-109847743D01*
G37*
G36*
X172191351Y-109847743D02*
G01*
X172336941Y-109908048D01*
X172467970Y-109995599D01*
X172579401Y-110107030D01*
X172666952Y-110238059D01*
X172727257Y-110383649D01*
X172758000Y-110538206D01*
X172758000Y-110695794D01*
X172727257Y-110850351D01*
X172666952Y-110995941D01*
X172579401Y-111126970D01*
X172467970Y-111238401D01*
X172336941Y-111325952D01*
X172191351Y-111386257D01*
X172036794Y-111417000D01*
X171879206Y-111417000D01*
X171724649Y-111386257D01*
X171579059Y-111325952D01*
X171448030Y-111238401D01*
X171336599Y-111126970D01*
X171249048Y-110995941D01*
X171188743Y-110850351D01*
X171158000Y-110695794D01*
X171158000Y-110538206D01*
X171188743Y-110383649D01*
X171249048Y-110238059D01*
X171336599Y-110107030D01*
X171448030Y-109995599D01*
X171579059Y-109908048D01*
X171724649Y-109847743D01*
X171879206Y-109817000D01*
X172036794Y-109817000D01*
X172191351Y-109847743D01*
X172191351Y-109847743D01*
G37*
G36*
X139171351Y-109847743D02*
G01*
X139316941Y-109908048D01*
X139447970Y-109995599D01*
X139559401Y-110107030D01*
X139646952Y-110238059D01*
X139707257Y-110383649D01*
X139738000Y-110538206D01*
X139738000Y-110695794D01*
X139707257Y-110850351D01*
X139646952Y-110995941D01*
X139559401Y-111126970D01*
X139447970Y-111238401D01*
X139316941Y-111325952D01*
X139171351Y-111386257D01*
X139016794Y-111417000D01*
X138859206Y-111417000D01*
X138704649Y-111386257D01*
X138559059Y-111325952D01*
X138428030Y-111238401D01*
X138316599Y-111126970D01*
X138229048Y-110995941D01*
X138168743Y-110850351D01*
X138138000Y-110695794D01*
X138138000Y-110538206D01*
X138168743Y-110383649D01*
X138229048Y-110238059D01*
X138316599Y-110107030D01*
X138428030Y-109995599D01*
X138559059Y-109908048D01*
X138704649Y-109847743D01*
X138859206Y-109817000D01*
X139016794Y-109817000D01*
X139171351Y-109847743D01*
X139171351Y-109847743D01*
G37*
G36*
X131215013Y-108897057D02*
G01*
X131324206Y-108942286D01*
X131422477Y-109007949D01*
X131506051Y-109091523D01*
X131571714Y-109189794D01*
X131616943Y-109298987D01*
X131640000Y-109414904D01*
X131640000Y-109533096D01*
X131616943Y-109649013D01*
X131571714Y-109758206D01*
X131506051Y-109856477D01*
X131422477Y-109940051D01*
X131324206Y-110005714D01*
X131215013Y-110050943D01*
X131099096Y-110074000D01*
X130980904Y-110074000D01*
X130864987Y-110050943D01*
X130755794Y-110005714D01*
X130657523Y-109940051D01*
X130573949Y-109856477D01*
X130508286Y-109758206D01*
X130463057Y-109649013D01*
X130440000Y-109533096D01*
X130440000Y-109414904D01*
X130463057Y-109298987D01*
X130508286Y-109189794D01*
X130573949Y-109091523D01*
X130657523Y-109007949D01*
X130755794Y-108942286D01*
X130864987Y-108897057D01*
X130980904Y-108874000D01*
X131099096Y-108874000D01*
X131215013Y-108897057D01*
X131215013Y-108897057D01*
G37*
G36*
X129715013Y-108897057D02*
G01*
X129824206Y-108942286D01*
X129922477Y-109007949D01*
X130006051Y-109091523D01*
X130071714Y-109189794D01*
X130116943Y-109298987D01*
X130140000Y-109414904D01*
X130140000Y-109533096D01*
X130116943Y-109649013D01*
X130071714Y-109758206D01*
X130006051Y-109856477D01*
X129922477Y-109940051D01*
X129824206Y-110005714D01*
X129715013Y-110050943D01*
X129599096Y-110074000D01*
X129480904Y-110074000D01*
X129364987Y-110050943D01*
X129255794Y-110005714D01*
X129157523Y-109940051D01*
X129073949Y-109856477D01*
X129008286Y-109758206D01*
X128963057Y-109649013D01*
X128940000Y-109533096D01*
X128940000Y-109414904D01*
X128963057Y-109298987D01*
X129008286Y-109189794D01*
X129073949Y-109091523D01*
X129157523Y-109007949D01*
X129255794Y-108942286D01*
X129364987Y-108897057D01*
X129480904Y-108874000D01*
X129599096Y-108874000D01*
X129715013Y-108897057D01*
X129715013Y-108897057D01*
G37*
G36*
X149176471Y-106518859D02*
G01*
X149254827Y-106526576D01*
X149405628Y-106572321D01*
X149405630Y-106572322D01*
X149544605Y-106646606D01*
X149666422Y-106746578D01*
X149697526Y-106784478D01*
X149766393Y-106868394D01*
X149840679Y-107007372D01*
X149886424Y-107158173D01*
X149901870Y-107315000D01*
X149886424Y-107471827D01*
X149840679Y-107622628D01*
X149840678Y-107622630D01*
X149766394Y-107761605D01*
X149666422Y-107883422D01*
X149544605Y-107983394D01*
X149405630Y-108057678D01*
X149405628Y-108057679D01*
X149254827Y-108103424D01*
X149176471Y-108111141D01*
X149137294Y-108115000D01*
X149058706Y-108115000D01*
X149019529Y-108111141D01*
X148941173Y-108103424D01*
X148790372Y-108057679D01*
X148790370Y-108057678D01*
X148651395Y-107983394D01*
X148529578Y-107883422D01*
X148429606Y-107761605D01*
X148355322Y-107622630D01*
X148355321Y-107622628D01*
X148309576Y-107471827D01*
X148294130Y-107315000D01*
X148309576Y-107158173D01*
X148355321Y-107007372D01*
X148429607Y-106868394D01*
X148498475Y-106784478D01*
X148529578Y-106746578D01*
X148651395Y-106646606D01*
X148790370Y-106572322D01*
X148790372Y-106572321D01*
X148941173Y-106526576D01*
X149019529Y-106518859D01*
X149058706Y-106515000D01*
X149137294Y-106515000D01*
X149176471Y-106518859D01*
X149176471Y-106518859D01*
G37*
G36*
X164416471Y-106518859D02*
G01*
X164494827Y-106526576D01*
X164645628Y-106572321D01*
X164645630Y-106572322D01*
X164784605Y-106646606D01*
X164906422Y-106746578D01*
X164937526Y-106784478D01*
X165006393Y-106868394D01*
X165080679Y-107007372D01*
X165126424Y-107158173D01*
X165141870Y-107315000D01*
X165126424Y-107471827D01*
X165080679Y-107622628D01*
X165080678Y-107622630D01*
X165006394Y-107761605D01*
X164906422Y-107883422D01*
X164784605Y-107983394D01*
X164645630Y-108057678D01*
X164645628Y-108057679D01*
X164494827Y-108103424D01*
X164416471Y-108111141D01*
X164377294Y-108115000D01*
X164298706Y-108115000D01*
X164259529Y-108111141D01*
X164181173Y-108103424D01*
X164030372Y-108057679D01*
X164030370Y-108057678D01*
X163891395Y-107983394D01*
X163769578Y-107883422D01*
X163669606Y-107761605D01*
X163595322Y-107622630D01*
X163595321Y-107622628D01*
X163549576Y-107471827D01*
X163534130Y-107315000D01*
X163549576Y-107158173D01*
X163595321Y-107007372D01*
X163669607Y-106868394D01*
X163738475Y-106784478D01*
X163769578Y-106746578D01*
X163891395Y-106646606D01*
X164030370Y-106572322D01*
X164030372Y-106572321D01*
X164181173Y-106526576D01*
X164259529Y-106518859D01*
X164298706Y-106515000D01*
X164377294Y-106515000D01*
X164416471Y-106518859D01*
X164416471Y-106518859D01*
G37*
G36*
X166956471Y-106518859D02*
G01*
X167034827Y-106526576D01*
X167185628Y-106572321D01*
X167185630Y-106572322D01*
X167324605Y-106646606D01*
X167446422Y-106746578D01*
X167477526Y-106784478D01*
X167546393Y-106868394D01*
X167620679Y-107007372D01*
X167666424Y-107158173D01*
X167681870Y-107315000D01*
X167666424Y-107471827D01*
X167620679Y-107622628D01*
X167620678Y-107622630D01*
X167546394Y-107761605D01*
X167446422Y-107883422D01*
X167324605Y-107983394D01*
X167185630Y-108057678D01*
X167185628Y-108057679D01*
X167034827Y-108103424D01*
X166956471Y-108111141D01*
X166917294Y-108115000D01*
X166838706Y-108115000D01*
X166799529Y-108111141D01*
X166721173Y-108103424D01*
X166570372Y-108057679D01*
X166570370Y-108057678D01*
X166431395Y-107983394D01*
X166309578Y-107883422D01*
X166209606Y-107761605D01*
X166135322Y-107622630D01*
X166135321Y-107622628D01*
X166089576Y-107471827D01*
X166074130Y-107315000D01*
X166089576Y-107158173D01*
X166135321Y-107007372D01*
X166209607Y-106868394D01*
X166278475Y-106784478D01*
X166309578Y-106746578D01*
X166431395Y-106646606D01*
X166570370Y-106572322D01*
X166570372Y-106572321D01*
X166721173Y-106526576D01*
X166799529Y-106518859D01*
X166838706Y-106515000D01*
X166917294Y-106515000D01*
X166956471Y-106518859D01*
X166956471Y-106518859D01*
G37*
G36*
X161876471Y-106518859D02*
G01*
X161954827Y-106526576D01*
X162105628Y-106572321D01*
X162105630Y-106572322D01*
X162244605Y-106646606D01*
X162366422Y-106746578D01*
X162397526Y-106784478D01*
X162466393Y-106868394D01*
X162540679Y-107007372D01*
X162586424Y-107158173D01*
X162601870Y-107315000D01*
X162586424Y-107471827D01*
X162540679Y-107622628D01*
X162540678Y-107622630D01*
X162466394Y-107761605D01*
X162366422Y-107883422D01*
X162244605Y-107983394D01*
X162105630Y-108057678D01*
X162105628Y-108057679D01*
X161954827Y-108103424D01*
X161876471Y-108111141D01*
X161837294Y-108115000D01*
X161758706Y-108115000D01*
X161719529Y-108111141D01*
X161641173Y-108103424D01*
X161490372Y-108057679D01*
X161490370Y-108057678D01*
X161351395Y-107983394D01*
X161229578Y-107883422D01*
X161129606Y-107761605D01*
X161055322Y-107622630D01*
X161055321Y-107622628D01*
X161009576Y-107471827D01*
X160994130Y-107315000D01*
X161009576Y-107158173D01*
X161055321Y-107007372D01*
X161129607Y-106868394D01*
X161198475Y-106784478D01*
X161229578Y-106746578D01*
X161351395Y-106646606D01*
X161490370Y-106572322D01*
X161490372Y-106572321D01*
X161641173Y-106526576D01*
X161719529Y-106518859D01*
X161758706Y-106515000D01*
X161837294Y-106515000D01*
X161876471Y-106518859D01*
X161876471Y-106518859D01*
G37*
G36*
X169496471Y-106518859D02*
G01*
X169574827Y-106526576D01*
X169725628Y-106572321D01*
X169725630Y-106572322D01*
X169864605Y-106646606D01*
X169986422Y-106746578D01*
X170017526Y-106784478D01*
X170086393Y-106868394D01*
X170160679Y-107007372D01*
X170206424Y-107158173D01*
X170221870Y-107315000D01*
X170206424Y-107471827D01*
X170160679Y-107622628D01*
X170160678Y-107622630D01*
X170086394Y-107761605D01*
X169986422Y-107883422D01*
X169864605Y-107983394D01*
X169725630Y-108057678D01*
X169725628Y-108057679D01*
X169574827Y-108103424D01*
X169496471Y-108111141D01*
X169457294Y-108115000D01*
X169378706Y-108115000D01*
X169339529Y-108111141D01*
X169261173Y-108103424D01*
X169110372Y-108057679D01*
X169110370Y-108057678D01*
X168971395Y-107983394D01*
X168849578Y-107883422D01*
X168749606Y-107761605D01*
X168675322Y-107622630D01*
X168675321Y-107622628D01*
X168629576Y-107471827D01*
X168614130Y-107315000D01*
X168629576Y-107158173D01*
X168675321Y-107007372D01*
X168749607Y-106868394D01*
X168818475Y-106784478D01*
X168849578Y-106746578D01*
X168971395Y-106646606D01*
X169110370Y-106572322D01*
X169110372Y-106572321D01*
X169261173Y-106526576D01*
X169339529Y-106518859D01*
X169378706Y-106515000D01*
X169457294Y-106515000D01*
X169496471Y-106518859D01*
X169496471Y-106518859D01*
G37*
G36*
X159336471Y-106518859D02*
G01*
X159414827Y-106526576D01*
X159565628Y-106572321D01*
X159565630Y-106572322D01*
X159704605Y-106646606D01*
X159826422Y-106746578D01*
X159857526Y-106784478D01*
X159926393Y-106868394D01*
X160000679Y-107007372D01*
X160046424Y-107158173D01*
X160061870Y-107315000D01*
X160046424Y-107471827D01*
X160000679Y-107622628D01*
X160000678Y-107622630D01*
X159926394Y-107761605D01*
X159826422Y-107883422D01*
X159704605Y-107983394D01*
X159565630Y-108057678D01*
X159565628Y-108057679D01*
X159414827Y-108103424D01*
X159336471Y-108111141D01*
X159297294Y-108115000D01*
X159218706Y-108115000D01*
X159179529Y-108111141D01*
X159101173Y-108103424D01*
X158950372Y-108057679D01*
X158950370Y-108057678D01*
X158811395Y-107983394D01*
X158689578Y-107883422D01*
X158589606Y-107761605D01*
X158515322Y-107622630D01*
X158515321Y-107622628D01*
X158469576Y-107471827D01*
X158454130Y-107315000D01*
X158469576Y-107158173D01*
X158515321Y-107007372D01*
X158589607Y-106868394D01*
X158658475Y-106784478D01*
X158689578Y-106746578D01*
X158811395Y-106646606D01*
X158950370Y-106572322D01*
X158950372Y-106572321D01*
X159101173Y-106526576D01*
X159179529Y-106518859D01*
X159218706Y-106515000D01*
X159297294Y-106515000D01*
X159336471Y-106518859D01*
X159336471Y-106518859D01*
G37*
G36*
X156796471Y-106518859D02*
G01*
X156874827Y-106526576D01*
X157025628Y-106572321D01*
X157025630Y-106572322D01*
X157164605Y-106646606D01*
X157286422Y-106746578D01*
X157317526Y-106784478D01*
X157386393Y-106868394D01*
X157460679Y-107007372D01*
X157506424Y-107158173D01*
X157521870Y-107315000D01*
X157506424Y-107471827D01*
X157460679Y-107622628D01*
X157460678Y-107622630D01*
X157386394Y-107761605D01*
X157286422Y-107883422D01*
X157164605Y-107983394D01*
X157025630Y-108057678D01*
X157025628Y-108057679D01*
X156874827Y-108103424D01*
X156796471Y-108111141D01*
X156757294Y-108115000D01*
X156678706Y-108115000D01*
X156639529Y-108111141D01*
X156561173Y-108103424D01*
X156410372Y-108057679D01*
X156410370Y-108057678D01*
X156271395Y-107983394D01*
X156149578Y-107883422D01*
X156049606Y-107761605D01*
X155975322Y-107622630D01*
X155975321Y-107622628D01*
X155929576Y-107471827D01*
X155914130Y-107315000D01*
X155929576Y-107158173D01*
X155975321Y-107007372D01*
X156049607Y-106868394D01*
X156118475Y-106784478D01*
X156149578Y-106746578D01*
X156271395Y-106646606D01*
X156410370Y-106572322D01*
X156410372Y-106572321D01*
X156561173Y-106526576D01*
X156639529Y-106518859D01*
X156678706Y-106515000D01*
X156757294Y-106515000D01*
X156796471Y-106518859D01*
X156796471Y-106518859D01*
G37*
G36*
X151716471Y-106518859D02*
G01*
X151794827Y-106526576D01*
X151945628Y-106572321D01*
X151945630Y-106572322D01*
X152084605Y-106646606D01*
X152206422Y-106746578D01*
X152237526Y-106784478D01*
X152306393Y-106868394D01*
X152380679Y-107007372D01*
X152426424Y-107158173D01*
X152441870Y-107315000D01*
X152426424Y-107471827D01*
X152380679Y-107622628D01*
X152380678Y-107622630D01*
X152306394Y-107761605D01*
X152206422Y-107883422D01*
X152084605Y-107983394D01*
X151945630Y-108057678D01*
X151945628Y-108057679D01*
X151794827Y-108103424D01*
X151716471Y-108111141D01*
X151677294Y-108115000D01*
X151598706Y-108115000D01*
X151559529Y-108111141D01*
X151481173Y-108103424D01*
X151330372Y-108057679D01*
X151330370Y-108057678D01*
X151191395Y-107983394D01*
X151069578Y-107883422D01*
X150969606Y-107761605D01*
X150895322Y-107622630D01*
X150895321Y-107622628D01*
X150849576Y-107471827D01*
X150834130Y-107315000D01*
X150849576Y-107158173D01*
X150895321Y-107007372D01*
X150969607Y-106868394D01*
X151038475Y-106784478D01*
X151069578Y-106746578D01*
X151191395Y-106646606D01*
X151330370Y-106572322D01*
X151330372Y-106572321D01*
X151481173Y-106526576D01*
X151559529Y-106518859D01*
X151598706Y-106515000D01*
X151677294Y-106515000D01*
X151716471Y-106518859D01*
X151716471Y-106518859D01*
G37*
G36*
X146636471Y-106518859D02*
G01*
X146714827Y-106526576D01*
X146865628Y-106572321D01*
X146865630Y-106572322D01*
X147004605Y-106646606D01*
X147126422Y-106746578D01*
X147157526Y-106784478D01*
X147226393Y-106868394D01*
X147300679Y-107007372D01*
X147346424Y-107158173D01*
X147361870Y-107315000D01*
X147346424Y-107471827D01*
X147300679Y-107622628D01*
X147300678Y-107622630D01*
X147226394Y-107761605D01*
X147126422Y-107883422D01*
X147004605Y-107983394D01*
X146865630Y-108057678D01*
X146865628Y-108057679D01*
X146714827Y-108103424D01*
X146636471Y-108111141D01*
X146597294Y-108115000D01*
X146518706Y-108115000D01*
X146479529Y-108111141D01*
X146401173Y-108103424D01*
X146250372Y-108057679D01*
X146250370Y-108057678D01*
X146111395Y-107983394D01*
X145989578Y-107883422D01*
X145889606Y-107761605D01*
X145815322Y-107622630D01*
X145815321Y-107622628D01*
X145769576Y-107471827D01*
X145754130Y-107315000D01*
X145769576Y-107158173D01*
X145815321Y-107007372D01*
X145889607Y-106868394D01*
X145958475Y-106784478D01*
X145989578Y-106746578D01*
X146111395Y-106646606D01*
X146250370Y-106572322D01*
X146250372Y-106572321D01*
X146401173Y-106526576D01*
X146479529Y-106518859D01*
X146518706Y-106515000D01*
X146597294Y-106515000D01*
X146636471Y-106518859D01*
X146636471Y-106518859D01*
G37*
G36*
X144096471Y-106518859D02*
G01*
X144174827Y-106526576D01*
X144325628Y-106572321D01*
X144325630Y-106572322D01*
X144464605Y-106646606D01*
X144586422Y-106746578D01*
X144617526Y-106784478D01*
X144686393Y-106868394D01*
X144760679Y-107007372D01*
X144806424Y-107158173D01*
X144821870Y-107315000D01*
X144806424Y-107471827D01*
X144760679Y-107622628D01*
X144760678Y-107622630D01*
X144686394Y-107761605D01*
X144586422Y-107883422D01*
X144464605Y-107983394D01*
X144325630Y-108057678D01*
X144325628Y-108057679D01*
X144174827Y-108103424D01*
X144096471Y-108111141D01*
X144057294Y-108115000D01*
X143978706Y-108115000D01*
X143939529Y-108111141D01*
X143861173Y-108103424D01*
X143710372Y-108057679D01*
X143710370Y-108057678D01*
X143571395Y-107983394D01*
X143449578Y-107883422D01*
X143349606Y-107761605D01*
X143275322Y-107622630D01*
X143275321Y-107622628D01*
X143229576Y-107471827D01*
X143214130Y-107315000D01*
X143229576Y-107158173D01*
X143275321Y-107007372D01*
X143349607Y-106868394D01*
X143418475Y-106784478D01*
X143449578Y-106746578D01*
X143571395Y-106646606D01*
X143710370Y-106572322D01*
X143710372Y-106572321D01*
X143861173Y-106526576D01*
X143939529Y-106518859D01*
X143978706Y-106515000D01*
X144057294Y-106515000D01*
X144096471Y-106518859D01*
X144096471Y-106518859D01*
G37*
G36*
X141556471Y-106518859D02*
G01*
X141634827Y-106526576D01*
X141785628Y-106572321D01*
X141785630Y-106572322D01*
X141924605Y-106646606D01*
X142046422Y-106746578D01*
X142077526Y-106784478D01*
X142146393Y-106868394D01*
X142220679Y-107007372D01*
X142266424Y-107158173D01*
X142281870Y-107315000D01*
X142266424Y-107471827D01*
X142220679Y-107622628D01*
X142220678Y-107622630D01*
X142146394Y-107761605D01*
X142046422Y-107883422D01*
X141924605Y-107983394D01*
X141785630Y-108057678D01*
X141785628Y-108057679D01*
X141634827Y-108103424D01*
X141556471Y-108111141D01*
X141517294Y-108115000D01*
X141438706Y-108115000D01*
X141399529Y-108111141D01*
X141321173Y-108103424D01*
X141170372Y-108057679D01*
X141170370Y-108057678D01*
X141031395Y-107983394D01*
X140909578Y-107883422D01*
X140809606Y-107761605D01*
X140735322Y-107622630D01*
X140735321Y-107622628D01*
X140689576Y-107471827D01*
X140674130Y-107315000D01*
X140689576Y-107158173D01*
X140735321Y-107007372D01*
X140809607Y-106868394D01*
X140878475Y-106784478D01*
X140909578Y-106746578D01*
X141031395Y-106646606D01*
X141170370Y-106572322D01*
X141170372Y-106572321D01*
X141321173Y-106526576D01*
X141399529Y-106518859D01*
X141438706Y-106515000D01*
X141517294Y-106515000D01*
X141556471Y-106518859D01*
X141556471Y-106518859D01*
G37*
G36*
X139016471Y-106518859D02*
G01*
X139094827Y-106526576D01*
X139245628Y-106572321D01*
X139245630Y-106572322D01*
X139384605Y-106646606D01*
X139506422Y-106746578D01*
X139537526Y-106784478D01*
X139606393Y-106868394D01*
X139680679Y-107007372D01*
X139726424Y-107158173D01*
X139741870Y-107315000D01*
X139726424Y-107471827D01*
X139680679Y-107622628D01*
X139680678Y-107622630D01*
X139606394Y-107761605D01*
X139506422Y-107883422D01*
X139384605Y-107983394D01*
X139245630Y-108057678D01*
X139245628Y-108057679D01*
X139094827Y-108103424D01*
X139016471Y-108111141D01*
X138977294Y-108115000D01*
X138898706Y-108115000D01*
X138859529Y-108111141D01*
X138781173Y-108103424D01*
X138630372Y-108057679D01*
X138630370Y-108057678D01*
X138491395Y-107983394D01*
X138369578Y-107883422D01*
X138269606Y-107761605D01*
X138195322Y-107622630D01*
X138195321Y-107622628D01*
X138149576Y-107471827D01*
X138134130Y-107315000D01*
X138149576Y-107158173D01*
X138195321Y-107007372D01*
X138269607Y-106868394D01*
X138338475Y-106784478D01*
X138369578Y-106746578D01*
X138491395Y-106646606D01*
X138630370Y-106572322D01*
X138630372Y-106572321D01*
X138781173Y-106526576D01*
X138859529Y-106518859D01*
X138898706Y-106515000D01*
X138977294Y-106515000D01*
X139016471Y-106518859D01*
X139016471Y-106518859D01*
G37*
G36*
X136476471Y-106518859D02*
G01*
X136554827Y-106526576D01*
X136705628Y-106572321D01*
X136705630Y-106572322D01*
X136844605Y-106646606D01*
X136966422Y-106746578D01*
X136997526Y-106784478D01*
X137066393Y-106868394D01*
X137140679Y-107007372D01*
X137186424Y-107158173D01*
X137201870Y-107315000D01*
X137186424Y-107471827D01*
X137140679Y-107622628D01*
X137140678Y-107622630D01*
X137066394Y-107761605D01*
X136966422Y-107883422D01*
X136844605Y-107983394D01*
X136705630Y-108057678D01*
X136705628Y-108057679D01*
X136554827Y-108103424D01*
X136476471Y-108111141D01*
X136437294Y-108115000D01*
X136358706Y-108115000D01*
X136319529Y-108111141D01*
X136241173Y-108103424D01*
X136090372Y-108057679D01*
X136090370Y-108057678D01*
X135951395Y-107983394D01*
X135829578Y-107883422D01*
X135729606Y-107761605D01*
X135655322Y-107622630D01*
X135655321Y-107622628D01*
X135609576Y-107471827D01*
X135594130Y-107315000D01*
X135609576Y-107158173D01*
X135655321Y-107007372D01*
X135729607Y-106868394D01*
X135798475Y-106784478D01*
X135829578Y-106746578D01*
X135951395Y-106646606D01*
X136090370Y-106572322D01*
X136090372Y-106572321D01*
X136241173Y-106526576D01*
X136319529Y-106518859D01*
X136358706Y-106515000D01*
X136437294Y-106515000D01*
X136476471Y-106518859D01*
X136476471Y-106518859D01*
G37*
G36*
X154256471Y-106518859D02*
G01*
X154334827Y-106526576D01*
X154485628Y-106572321D01*
X154485630Y-106572322D01*
X154624605Y-106646606D01*
X154746422Y-106746578D01*
X154777526Y-106784478D01*
X154846393Y-106868394D01*
X154920679Y-107007372D01*
X154966424Y-107158173D01*
X154981870Y-107315000D01*
X154966424Y-107471827D01*
X154920679Y-107622628D01*
X154920678Y-107622630D01*
X154846394Y-107761605D01*
X154746422Y-107883422D01*
X154624605Y-107983394D01*
X154485630Y-108057678D01*
X154485628Y-108057679D01*
X154334827Y-108103424D01*
X154256471Y-108111141D01*
X154217294Y-108115000D01*
X154138706Y-108115000D01*
X154099529Y-108111141D01*
X154021173Y-108103424D01*
X153870372Y-108057679D01*
X153870370Y-108057678D01*
X153731395Y-107983394D01*
X153609578Y-107883422D01*
X153509606Y-107761605D01*
X153435322Y-107622630D01*
X153435321Y-107622628D01*
X153389576Y-107471827D01*
X153374130Y-107315000D01*
X153389576Y-107158173D01*
X153435321Y-107007372D01*
X153509607Y-106868394D01*
X153578475Y-106784478D01*
X153609578Y-106746578D01*
X153731395Y-106646606D01*
X153870370Y-106572322D01*
X153870372Y-106572321D01*
X154021173Y-106526576D01*
X154099529Y-106518859D01*
X154138706Y-106515000D01*
X154217294Y-106515000D01*
X154256471Y-106518859D01*
X154256471Y-106518859D01*
G37*
G36*
X121714013Y-105825057D02*
G01*
X121823206Y-105870286D01*
X121921477Y-105935949D01*
X122005051Y-106019523D01*
X122070714Y-106117794D01*
X122115943Y-106226987D01*
X122139000Y-106342904D01*
X122139000Y-106461096D01*
X122115943Y-106577013D01*
X122070714Y-106686206D01*
X122005051Y-106784477D01*
X121921477Y-106868051D01*
X121823206Y-106933714D01*
X121714013Y-106978943D01*
X121598096Y-107002000D01*
X121479904Y-107002000D01*
X121363987Y-106978943D01*
X121254794Y-106933714D01*
X121156523Y-106868051D01*
X121072949Y-106784477D01*
X121007286Y-106686206D01*
X120962057Y-106577013D01*
X120939000Y-106461096D01*
X120939000Y-106342904D01*
X120962057Y-106226987D01*
X121007286Y-106117794D01*
X121072949Y-106019523D01*
X121156523Y-105935949D01*
X121254794Y-105870286D01*
X121363987Y-105825057D01*
X121479904Y-105802000D01*
X121598096Y-105802000D01*
X121714013Y-105825057D01*
X121714013Y-105825057D01*
G37*
G36*
X126794013Y-105825057D02*
G01*
X126903206Y-105870286D01*
X127001477Y-105935949D01*
X127085051Y-106019523D01*
X127150714Y-106117794D01*
X127195943Y-106226987D01*
X127219000Y-106342904D01*
X127219000Y-106461096D01*
X127195943Y-106577013D01*
X127150714Y-106686206D01*
X127085051Y-106784477D01*
X127001477Y-106868051D01*
X126903206Y-106933714D01*
X126794013Y-106978943D01*
X126678096Y-107002000D01*
X126559904Y-107002000D01*
X126443987Y-106978943D01*
X126334794Y-106933714D01*
X126236523Y-106868051D01*
X126152949Y-106784477D01*
X126087286Y-106686206D01*
X126042057Y-106577013D01*
X126019000Y-106461096D01*
X126019000Y-106342904D01*
X126042057Y-106226987D01*
X126087286Y-106117794D01*
X126152949Y-106019523D01*
X126236523Y-105935949D01*
X126334794Y-105870286D01*
X126443987Y-105825057D01*
X126559904Y-105802000D01*
X126678096Y-105802000D01*
X126794013Y-105825057D01*
X126794013Y-105825057D01*
G37*
G36*
X122139000Y-105502000D02*
G01*
X120939000Y-105502000D01*
X120939000Y-104302000D01*
X122139000Y-104302000D01*
X122139000Y-105502000D01*
X122139000Y-105502000D01*
G37*
G36*
X127219000Y-105502000D02*
G01*
X126019000Y-105502000D01*
X126019000Y-104302000D01*
X127219000Y-104302000D01*
X127219000Y-105502000D01*
X127219000Y-105502000D01*
G37*
G36*
X115853377Y-99778858D02*
G01*
X116217353Y-99929622D01*
X116217355Y-99929623D01*
X116382251Y-100039803D01*
X116544925Y-100148498D01*
X116823502Y-100427075D01*
X117042378Y-100754647D01*
X117193142Y-101118623D01*
X117270000Y-101505016D01*
X117270000Y-101898984D01*
X117193142Y-102285377D01*
X117042378Y-102649353D01*
X117042377Y-102649355D01*
X116823501Y-102976926D01*
X116544926Y-103255501D01*
X116217355Y-103474377D01*
X116217354Y-103474378D01*
X116217353Y-103474378D01*
X115853377Y-103625142D01*
X115466984Y-103702000D01*
X115073016Y-103702000D01*
X114686623Y-103625142D01*
X114322647Y-103474378D01*
X114322646Y-103474378D01*
X114322645Y-103474377D01*
X113995074Y-103255501D01*
X113716499Y-102976926D01*
X113497623Y-102649355D01*
X113497622Y-102649353D01*
X113346858Y-102285377D01*
X113270000Y-101898984D01*
X113270000Y-101505016D01*
X113346858Y-101118623D01*
X113497622Y-100754647D01*
X113716498Y-100427075D01*
X113995075Y-100148498D01*
X114157749Y-100039803D01*
X114322645Y-99929623D01*
X114322647Y-99929622D01*
X114686623Y-99778858D01*
X115073016Y-99702000D01*
X115466984Y-99702000D01*
X115853377Y-99778858D01*
X115853377Y-99778858D01*
G37*
G36*
X121010351Y-100449743D02*
G01*
X121155941Y-100510048D01*
X121286970Y-100597599D01*
X121398401Y-100709030D01*
X121485952Y-100840059D01*
X121546257Y-100985649D01*
X121577000Y-101140206D01*
X121577000Y-101297794D01*
X121546257Y-101452351D01*
X121485952Y-101597941D01*
X121398401Y-101728970D01*
X121286970Y-101840401D01*
X121155941Y-101927952D01*
X121010351Y-101988257D01*
X120855794Y-102019000D01*
X120698206Y-102019000D01*
X120543649Y-101988257D01*
X120398059Y-101927952D01*
X120267030Y-101840401D01*
X120155599Y-101728970D01*
X120068048Y-101597941D01*
X120007743Y-101452351D01*
X119977000Y-101297794D01*
X119977000Y-101140206D01*
X120007743Y-100985649D01*
X120068048Y-100840059D01*
X120155599Y-100709030D01*
X120267030Y-100597599D01*
X120398059Y-100510048D01*
X120543649Y-100449743D01*
X120698206Y-100419000D01*
X120855794Y-100419000D01*
X121010351Y-100449743D01*
X121010351Y-100449743D01*
G37*
G36*
X128355471Y-100422859D02*
G01*
X128433827Y-100430576D01*
X128584628Y-100476321D01*
X128584630Y-100476322D01*
X128723605Y-100550606D01*
X128845422Y-100650578D01*
X128945394Y-100772395D01*
X128981561Y-100840058D01*
X129019679Y-100911372D01*
X129065424Y-101062173D01*
X129080870Y-101219000D01*
X129065424Y-101375827D01*
X129019679Y-101526628D01*
X129019678Y-101526630D01*
X128945394Y-101665605D01*
X128845422Y-101787422D01*
X128723605Y-101887394D01*
X128584630Y-101961678D01*
X128584628Y-101961679D01*
X128433827Y-102007424D01*
X128355471Y-102015141D01*
X128316294Y-102019000D01*
X128237706Y-102019000D01*
X128198529Y-102015141D01*
X128120173Y-102007424D01*
X127969372Y-101961679D01*
X127969370Y-101961678D01*
X127830395Y-101887394D01*
X127708578Y-101787422D01*
X127608606Y-101665605D01*
X127534322Y-101526630D01*
X127534321Y-101526628D01*
X127488576Y-101375827D01*
X127473130Y-101219000D01*
X127488576Y-101062173D01*
X127534321Y-100911372D01*
X127572439Y-100840058D01*
X127608606Y-100772395D01*
X127708578Y-100650578D01*
X127830395Y-100550606D01*
X127969370Y-100476322D01*
X127969372Y-100476321D01*
X128120173Y-100430576D01*
X128198529Y-100422859D01*
X128237706Y-100419000D01*
X128316294Y-100419000D01*
X128355471Y-100422859D01*
X128355471Y-100422859D01*
G37*
G36*
X177331627Y-100127299D02*
G01*
X177378791Y-100141606D01*
X177491855Y-100175903D01*
X177491857Y-100175904D01*
X177639518Y-100254831D01*
X177768949Y-100361051D01*
X177875169Y-100490482D01*
X177954096Y-100638143D01*
X178002701Y-100798373D01*
X178019112Y-100965000D01*
X178002701Y-101131627D01*
X177954096Y-101291857D01*
X177875169Y-101439518D01*
X177768949Y-101568949D01*
X177639518Y-101675169D01*
X177538864Y-101728970D01*
X177491855Y-101754097D01*
X177411742Y-101778399D01*
X177331627Y-101802701D01*
X177206752Y-101815000D01*
X177123248Y-101815000D01*
X176998373Y-101802701D01*
X176918258Y-101778399D01*
X176838145Y-101754097D01*
X176791136Y-101728970D01*
X176690482Y-101675169D01*
X176561051Y-101568949D01*
X176454831Y-101439518D01*
X176375904Y-101291857D01*
X176327299Y-101131627D01*
X176310888Y-100965000D01*
X176327299Y-100798373D01*
X176375904Y-100638143D01*
X176454831Y-100490482D01*
X176561051Y-100361051D01*
X176690482Y-100254831D01*
X176838143Y-100175904D01*
X176838145Y-100175903D01*
X176951209Y-100141606D01*
X176998373Y-100127299D01*
X177123248Y-100115000D01*
X177206752Y-100115000D01*
X177331627Y-100127299D01*
X177331627Y-100127299D01*
G37*
G36*
X174791627Y-100127299D02*
G01*
X174838791Y-100141606D01*
X174951855Y-100175903D01*
X174951857Y-100175904D01*
X175099518Y-100254831D01*
X175228949Y-100361051D01*
X175335169Y-100490482D01*
X175414096Y-100638143D01*
X175462701Y-100798373D01*
X175479112Y-100965000D01*
X175462701Y-101131627D01*
X175414096Y-101291857D01*
X175335169Y-101439518D01*
X175228949Y-101568949D01*
X175099518Y-101675169D01*
X174998864Y-101728970D01*
X174951855Y-101754097D01*
X174871742Y-101778399D01*
X174791627Y-101802701D01*
X174666752Y-101815000D01*
X174583248Y-101815000D01*
X174458373Y-101802701D01*
X174378258Y-101778399D01*
X174298145Y-101754097D01*
X174251136Y-101728970D01*
X174150482Y-101675169D01*
X174021051Y-101568949D01*
X173914831Y-101439518D01*
X173835904Y-101291857D01*
X173787299Y-101131627D01*
X173770888Y-100965000D01*
X173787299Y-100798373D01*
X173835904Y-100638143D01*
X173914831Y-100490482D01*
X174021051Y-100361051D01*
X174150482Y-100254831D01*
X174298143Y-100175904D01*
X174298145Y-100175903D01*
X174411209Y-100141606D01*
X174458373Y-100127299D01*
X174583248Y-100115000D01*
X174666752Y-100115000D01*
X174791627Y-100127299D01*
X174791627Y-100127299D01*
G37*
G36*
X139016471Y-98898859D02*
G01*
X139094827Y-98906576D01*
X139245628Y-98952321D01*
X139245630Y-98952322D01*
X139384605Y-99026606D01*
X139506422Y-99126578D01*
X139606394Y-99248395D01*
X139680678Y-99387370D01*
X139680679Y-99387372D01*
X139726424Y-99538173D01*
X139741870Y-99695000D01*
X139726424Y-99851827D01*
X139680679Y-100002628D01*
X139680678Y-100002630D01*
X139606394Y-100141605D01*
X139506422Y-100263422D01*
X139384605Y-100363394D01*
X139258917Y-100430576D01*
X139245628Y-100437679D01*
X139094827Y-100483424D01*
X139023165Y-100490482D01*
X138977294Y-100495000D01*
X138898706Y-100495000D01*
X138852835Y-100490482D01*
X138781173Y-100483424D01*
X138630372Y-100437679D01*
X138617083Y-100430576D01*
X138491395Y-100363394D01*
X138369578Y-100263422D01*
X138269606Y-100141605D01*
X138195322Y-100002630D01*
X138195321Y-100002628D01*
X138149576Y-99851827D01*
X138134130Y-99695000D01*
X138149576Y-99538173D01*
X138195321Y-99387372D01*
X138195322Y-99387370D01*
X138269606Y-99248395D01*
X138369578Y-99126578D01*
X138491395Y-99026606D01*
X138630370Y-98952322D01*
X138630372Y-98952321D01*
X138781173Y-98906576D01*
X138859529Y-98898859D01*
X138898706Y-98895000D01*
X138977294Y-98895000D01*
X139016471Y-98898859D01*
X139016471Y-98898859D01*
G37*
G36*
X136476471Y-98898859D02*
G01*
X136554827Y-98906576D01*
X136705628Y-98952321D01*
X136705630Y-98952322D01*
X136844605Y-99026606D01*
X136966422Y-99126578D01*
X137066394Y-99248395D01*
X137140678Y-99387370D01*
X137140679Y-99387372D01*
X137186424Y-99538173D01*
X137201870Y-99695000D01*
X137186424Y-99851827D01*
X137140679Y-100002628D01*
X137140678Y-100002630D01*
X137066394Y-100141605D01*
X136966422Y-100263422D01*
X136844605Y-100363394D01*
X136718917Y-100430576D01*
X136705628Y-100437679D01*
X136554827Y-100483424D01*
X136483165Y-100490482D01*
X136437294Y-100495000D01*
X136358706Y-100495000D01*
X136312835Y-100490482D01*
X136241173Y-100483424D01*
X136090372Y-100437679D01*
X136077083Y-100430576D01*
X135951395Y-100363394D01*
X135829578Y-100263422D01*
X135729606Y-100141605D01*
X135655322Y-100002630D01*
X135655321Y-100002628D01*
X135609576Y-99851827D01*
X135594130Y-99695000D01*
X135609576Y-99538173D01*
X135655321Y-99387372D01*
X135655322Y-99387370D01*
X135729606Y-99248395D01*
X135829578Y-99126578D01*
X135951395Y-99026606D01*
X136090370Y-98952322D01*
X136090372Y-98952321D01*
X136241173Y-98906576D01*
X136319529Y-98898859D01*
X136358706Y-98895000D01*
X136437294Y-98895000D01*
X136476471Y-98898859D01*
X136476471Y-98898859D01*
G37*
G36*
X170218000Y-100495000D02*
G01*
X168618000Y-100495000D01*
X168618000Y-98895000D01*
X170218000Y-98895000D01*
X170218000Y-100495000D01*
X170218000Y-100495000D01*
G37*
G36*
X149176471Y-98898859D02*
G01*
X149254827Y-98906576D01*
X149405628Y-98952321D01*
X149405630Y-98952322D01*
X149544605Y-99026606D01*
X149666422Y-99126578D01*
X149766394Y-99248395D01*
X149840678Y-99387370D01*
X149840679Y-99387372D01*
X149886424Y-99538173D01*
X149901870Y-99695000D01*
X149886424Y-99851827D01*
X149840679Y-100002628D01*
X149840678Y-100002630D01*
X149766394Y-100141605D01*
X149666422Y-100263422D01*
X149544605Y-100363394D01*
X149418917Y-100430576D01*
X149405628Y-100437679D01*
X149254827Y-100483424D01*
X149183165Y-100490482D01*
X149137294Y-100495000D01*
X149058706Y-100495000D01*
X149012835Y-100490482D01*
X148941173Y-100483424D01*
X148790372Y-100437679D01*
X148777083Y-100430576D01*
X148651395Y-100363394D01*
X148529578Y-100263422D01*
X148429606Y-100141605D01*
X148355322Y-100002630D01*
X148355321Y-100002628D01*
X148309576Y-99851827D01*
X148294130Y-99695000D01*
X148309576Y-99538173D01*
X148355321Y-99387372D01*
X148355322Y-99387370D01*
X148429606Y-99248395D01*
X148529578Y-99126578D01*
X148651395Y-99026606D01*
X148790370Y-98952322D01*
X148790372Y-98952321D01*
X148941173Y-98906576D01*
X149019529Y-98898859D01*
X149058706Y-98895000D01*
X149137294Y-98895000D01*
X149176471Y-98898859D01*
X149176471Y-98898859D01*
G37*
G36*
X166956471Y-98898859D02*
G01*
X167034827Y-98906576D01*
X167185628Y-98952321D01*
X167185630Y-98952322D01*
X167324605Y-99026606D01*
X167446422Y-99126578D01*
X167546394Y-99248395D01*
X167620678Y-99387370D01*
X167620679Y-99387372D01*
X167666424Y-99538173D01*
X167681870Y-99695000D01*
X167666424Y-99851827D01*
X167620679Y-100002628D01*
X167620678Y-100002630D01*
X167546394Y-100141605D01*
X167446422Y-100263422D01*
X167324605Y-100363394D01*
X167198917Y-100430576D01*
X167185628Y-100437679D01*
X167034827Y-100483424D01*
X166963165Y-100490482D01*
X166917294Y-100495000D01*
X166838706Y-100495000D01*
X166792835Y-100490482D01*
X166721173Y-100483424D01*
X166570372Y-100437679D01*
X166557083Y-100430576D01*
X166431395Y-100363394D01*
X166309578Y-100263422D01*
X166209606Y-100141605D01*
X166135322Y-100002630D01*
X166135321Y-100002628D01*
X166089576Y-99851827D01*
X166074130Y-99695000D01*
X166089576Y-99538173D01*
X166135321Y-99387372D01*
X166135322Y-99387370D01*
X166209606Y-99248395D01*
X166309578Y-99126578D01*
X166431395Y-99026606D01*
X166570370Y-98952322D01*
X166570372Y-98952321D01*
X166721173Y-98906576D01*
X166799529Y-98898859D01*
X166838706Y-98895000D01*
X166917294Y-98895000D01*
X166956471Y-98898859D01*
X166956471Y-98898859D01*
G37*
G36*
X164416471Y-98898859D02*
G01*
X164494827Y-98906576D01*
X164645628Y-98952321D01*
X164645630Y-98952322D01*
X164784605Y-99026606D01*
X164906422Y-99126578D01*
X165006394Y-99248395D01*
X165080678Y-99387370D01*
X165080679Y-99387372D01*
X165126424Y-99538173D01*
X165141870Y-99695000D01*
X165126424Y-99851827D01*
X165080679Y-100002628D01*
X165080678Y-100002630D01*
X165006394Y-100141605D01*
X164906422Y-100263422D01*
X164784605Y-100363394D01*
X164658917Y-100430576D01*
X164645628Y-100437679D01*
X164494827Y-100483424D01*
X164423165Y-100490482D01*
X164377294Y-100495000D01*
X164298706Y-100495000D01*
X164252835Y-100490482D01*
X164181173Y-100483424D01*
X164030372Y-100437679D01*
X164017083Y-100430576D01*
X163891395Y-100363394D01*
X163769578Y-100263422D01*
X163669606Y-100141605D01*
X163595322Y-100002630D01*
X163595321Y-100002628D01*
X163549576Y-99851827D01*
X163534130Y-99695000D01*
X163549576Y-99538173D01*
X163595321Y-99387372D01*
X163595322Y-99387370D01*
X163669606Y-99248395D01*
X163769578Y-99126578D01*
X163891395Y-99026606D01*
X164030370Y-98952322D01*
X164030372Y-98952321D01*
X164181173Y-98906576D01*
X164259529Y-98898859D01*
X164298706Y-98895000D01*
X164377294Y-98895000D01*
X164416471Y-98898859D01*
X164416471Y-98898859D01*
G37*
G36*
X161876471Y-98898859D02*
G01*
X161954827Y-98906576D01*
X162105628Y-98952321D01*
X162105630Y-98952322D01*
X162244605Y-99026606D01*
X162366422Y-99126578D01*
X162466394Y-99248395D01*
X162540678Y-99387370D01*
X162540679Y-99387372D01*
X162586424Y-99538173D01*
X162601870Y-99695000D01*
X162586424Y-99851827D01*
X162540679Y-100002628D01*
X162540678Y-100002630D01*
X162466394Y-100141605D01*
X162366422Y-100263422D01*
X162244605Y-100363394D01*
X162118917Y-100430576D01*
X162105628Y-100437679D01*
X161954827Y-100483424D01*
X161883165Y-100490482D01*
X161837294Y-100495000D01*
X161758706Y-100495000D01*
X161712835Y-100490482D01*
X161641173Y-100483424D01*
X161490372Y-100437679D01*
X161477083Y-100430576D01*
X161351395Y-100363394D01*
X161229578Y-100263422D01*
X161129606Y-100141605D01*
X161055322Y-100002630D01*
X161055321Y-100002628D01*
X161009576Y-99851827D01*
X160994130Y-99695000D01*
X161009576Y-99538173D01*
X161055321Y-99387372D01*
X161055322Y-99387370D01*
X161129606Y-99248395D01*
X161229578Y-99126578D01*
X161351395Y-99026606D01*
X161490370Y-98952322D01*
X161490372Y-98952321D01*
X161641173Y-98906576D01*
X161719529Y-98898859D01*
X161758706Y-98895000D01*
X161837294Y-98895000D01*
X161876471Y-98898859D01*
X161876471Y-98898859D01*
G37*
G36*
X156796471Y-98898859D02*
G01*
X156874827Y-98906576D01*
X157025628Y-98952321D01*
X157025630Y-98952322D01*
X157164605Y-99026606D01*
X157286422Y-99126578D01*
X157386394Y-99248395D01*
X157460678Y-99387370D01*
X157460679Y-99387372D01*
X157506424Y-99538173D01*
X157521870Y-99695000D01*
X157506424Y-99851827D01*
X157460679Y-100002628D01*
X157460678Y-100002630D01*
X157386394Y-100141605D01*
X157286422Y-100263422D01*
X157164605Y-100363394D01*
X157038917Y-100430576D01*
X157025628Y-100437679D01*
X156874827Y-100483424D01*
X156803165Y-100490482D01*
X156757294Y-100495000D01*
X156678706Y-100495000D01*
X156632835Y-100490482D01*
X156561173Y-100483424D01*
X156410372Y-100437679D01*
X156397083Y-100430576D01*
X156271395Y-100363394D01*
X156149578Y-100263422D01*
X156049606Y-100141605D01*
X155975322Y-100002630D01*
X155975321Y-100002628D01*
X155929576Y-99851827D01*
X155914130Y-99695000D01*
X155929576Y-99538173D01*
X155975321Y-99387372D01*
X155975322Y-99387370D01*
X156049606Y-99248395D01*
X156149578Y-99126578D01*
X156271395Y-99026606D01*
X156410370Y-98952322D01*
X156410372Y-98952321D01*
X156561173Y-98906576D01*
X156639529Y-98898859D01*
X156678706Y-98895000D01*
X156757294Y-98895000D01*
X156796471Y-98898859D01*
X156796471Y-98898859D01*
G37*
G36*
X159336471Y-98898859D02*
G01*
X159414827Y-98906576D01*
X159565628Y-98952321D01*
X159565630Y-98952322D01*
X159704605Y-99026606D01*
X159826422Y-99126578D01*
X159926394Y-99248395D01*
X160000678Y-99387370D01*
X160000679Y-99387372D01*
X160046424Y-99538173D01*
X160061870Y-99695000D01*
X160046424Y-99851827D01*
X160000679Y-100002628D01*
X160000678Y-100002630D01*
X159926394Y-100141605D01*
X159826422Y-100263422D01*
X159704605Y-100363394D01*
X159578917Y-100430576D01*
X159565628Y-100437679D01*
X159414827Y-100483424D01*
X159343165Y-100490482D01*
X159297294Y-100495000D01*
X159218706Y-100495000D01*
X159172835Y-100490482D01*
X159101173Y-100483424D01*
X158950372Y-100437679D01*
X158937083Y-100430576D01*
X158811395Y-100363394D01*
X158689578Y-100263422D01*
X158589606Y-100141605D01*
X158515322Y-100002630D01*
X158515321Y-100002628D01*
X158469576Y-99851827D01*
X158454130Y-99695000D01*
X158469576Y-99538173D01*
X158515321Y-99387372D01*
X158515322Y-99387370D01*
X158589606Y-99248395D01*
X158689578Y-99126578D01*
X158811395Y-99026606D01*
X158950370Y-98952322D01*
X158950372Y-98952321D01*
X159101173Y-98906576D01*
X159179529Y-98898859D01*
X159218706Y-98895000D01*
X159297294Y-98895000D01*
X159336471Y-98898859D01*
X159336471Y-98898859D01*
G37*
G36*
X141556471Y-98898859D02*
G01*
X141634827Y-98906576D01*
X141785628Y-98952321D01*
X141785630Y-98952322D01*
X141924605Y-99026606D01*
X142046422Y-99126578D01*
X142146394Y-99248395D01*
X142220678Y-99387370D01*
X142220679Y-99387372D01*
X142266424Y-99538173D01*
X142281870Y-99695000D01*
X142266424Y-99851827D01*
X142220679Y-100002628D01*
X142220678Y-100002630D01*
X142146394Y-100141605D01*
X142046422Y-100263422D01*
X141924605Y-100363394D01*
X141798917Y-100430576D01*
X141785628Y-100437679D01*
X141634827Y-100483424D01*
X141563165Y-100490482D01*
X141517294Y-100495000D01*
X141438706Y-100495000D01*
X141392835Y-100490482D01*
X141321173Y-100483424D01*
X141170372Y-100437679D01*
X141157083Y-100430576D01*
X141031395Y-100363394D01*
X140909578Y-100263422D01*
X140809606Y-100141605D01*
X140735322Y-100002630D01*
X140735321Y-100002628D01*
X140689576Y-99851827D01*
X140674130Y-99695000D01*
X140689576Y-99538173D01*
X140735321Y-99387372D01*
X140735322Y-99387370D01*
X140809606Y-99248395D01*
X140909578Y-99126578D01*
X141031395Y-99026606D01*
X141170370Y-98952322D01*
X141170372Y-98952321D01*
X141321173Y-98906576D01*
X141399529Y-98898859D01*
X141438706Y-98895000D01*
X141517294Y-98895000D01*
X141556471Y-98898859D01*
X141556471Y-98898859D01*
G37*
G36*
X146636471Y-98898859D02*
G01*
X146714827Y-98906576D01*
X146865628Y-98952321D01*
X146865630Y-98952322D01*
X147004605Y-99026606D01*
X147126422Y-99126578D01*
X147226394Y-99248395D01*
X147300678Y-99387370D01*
X147300679Y-99387372D01*
X147346424Y-99538173D01*
X147361870Y-99695000D01*
X147346424Y-99851827D01*
X147300679Y-100002628D01*
X147300678Y-100002630D01*
X147226394Y-100141605D01*
X147126422Y-100263422D01*
X147004605Y-100363394D01*
X146878917Y-100430576D01*
X146865628Y-100437679D01*
X146714827Y-100483424D01*
X146643165Y-100490482D01*
X146597294Y-100495000D01*
X146518706Y-100495000D01*
X146472835Y-100490482D01*
X146401173Y-100483424D01*
X146250372Y-100437679D01*
X146237083Y-100430576D01*
X146111395Y-100363394D01*
X145989578Y-100263422D01*
X145889606Y-100141605D01*
X145815322Y-100002630D01*
X145815321Y-100002628D01*
X145769576Y-99851827D01*
X145754130Y-99695000D01*
X145769576Y-99538173D01*
X145815321Y-99387372D01*
X145815322Y-99387370D01*
X145889606Y-99248395D01*
X145989578Y-99126578D01*
X146111395Y-99026606D01*
X146250370Y-98952322D01*
X146250372Y-98952321D01*
X146401173Y-98906576D01*
X146479529Y-98898859D01*
X146518706Y-98895000D01*
X146597294Y-98895000D01*
X146636471Y-98898859D01*
X146636471Y-98898859D01*
G37*
G36*
X151716471Y-98898859D02*
G01*
X151794827Y-98906576D01*
X151945628Y-98952321D01*
X151945630Y-98952322D01*
X152084605Y-99026606D01*
X152206422Y-99126578D01*
X152306394Y-99248395D01*
X152380678Y-99387370D01*
X152380679Y-99387372D01*
X152426424Y-99538173D01*
X152441870Y-99695000D01*
X152426424Y-99851827D01*
X152380679Y-100002628D01*
X152380678Y-100002630D01*
X152306394Y-100141605D01*
X152206422Y-100263422D01*
X152084605Y-100363394D01*
X151958917Y-100430576D01*
X151945628Y-100437679D01*
X151794827Y-100483424D01*
X151723165Y-100490482D01*
X151677294Y-100495000D01*
X151598706Y-100495000D01*
X151552835Y-100490482D01*
X151481173Y-100483424D01*
X151330372Y-100437679D01*
X151317083Y-100430576D01*
X151191395Y-100363394D01*
X151069578Y-100263422D01*
X150969606Y-100141605D01*
X150895322Y-100002630D01*
X150895321Y-100002628D01*
X150849576Y-99851827D01*
X150834130Y-99695000D01*
X150849576Y-99538173D01*
X150895321Y-99387372D01*
X150895322Y-99387370D01*
X150969606Y-99248395D01*
X151069578Y-99126578D01*
X151191395Y-99026606D01*
X151330370Y-98952322D01*
X151330372Y-98952321D01*
X151481173Y-98906576D01*
X151559529Y-98898859D01*
X151598706Y-98895000D01*
X151677294Y-98895000D01*
X151716471Y-98898859D01*
X151716471Y-98898859D01*
G37*
G36*
X144096471Y-98898859D02*
G01*
X144174827Y-98906576D01*
X144325628Y-98952321D01*
X144325630Y-98952322D01*
X144464605Y-99026606D01*
X144586422Y-99126578D01*
X144686394Y-99248395D01*
X144760678Y-99387370D01*
X144760679Y-99387372D01*
X144806424Y-99538173D01*
X144821870Y-99695000D01*
X144806424Y-99851827D01*
X144760679Y-100002628D01*
X144760678Y-100002630D01*
X144686394Y-100141605D01*
X144586422Y-100263422D01*
X144464605Y-100363394D01*
X144338917Y-100430576D01*
X144325628Y-100437679D01*
X144174827Y-100483424D01*
X144103165Y-100490482D01*
X144057294Y-100495000D01*
X143978706Y-100495000D01*
X143932835Y-100490482D01*
X143861173Y-100483424D01*
X143710372Y-100437679D01*
X143697083Y-100430576D01*
X143571395Y-100363394D01*
X143449578Y-100263422D01*
X143349606Y-100141605D01*
X143275322Y-100002630D01*
X143275321Y-100002628D01*
X143229576Y-99851827D01*
X143214130Y-99695000D01*
X143229576Y-99538173D01*
X143275321Y-99387372D01*
X143275322Y-99387370D01*
X143349606Y-99248395D01*
X143449578Y-99126578D01*
X143571395Y-99026606D01*
X143710370Y-98952322D01*
X143710372Y-98952321D01*
X143861173Y-98906576D01*
X143939529Y-98898859D01*
X143978706Y-98895000D01*
X144057294Y-98895000D01*
X144096471Y-98898859D01*
X144096471Y-98898859D01*
G37*
G36*
X154256471Y-98898859D02*
G01*
X154334827Y-98906576D01*
X154485628Y-98952321D01*
X154485630Y-98952322D01*
X154624605Y-99026606D01*
X154746422Y-99126578D01*
X154846394Y-99248395D01*
X154920678Y-99387370D01*
X154920679Y-99387372D01*
X154966424Y-99538173D01*
X154981870Y-99695000D01*
X154966424Y-99851827D01*
X154920679Y-100002628D01*
X154920678Y-100002630D01*
X154846394Y-100141605D01*
X154746422Y-100263422D01*
X154624605Y-100363394D01*
X154498917Y-100430576D01*
X154485628Y-100437679D01*
X154334827Y-100483424D01*
X154263165Y-100490482D01*
X154217294Y-100495000D01*
X154138706Y-100495000D01*
X154092835Y-100490482D01*
X154021173Y-100483424D01*
X153870372Y-100437679D01*
X153857083Y-100430576D01*
X153731395Y-100363394D01*
X153609578Y-100263422D01*
X153509606Y-100141605D01*
X153435322Y-100002630D01*
X153435321Y-100002628D01*
X153389576Y-99851827D01*
X153374130Y-99695000D01*
X153389576Y-99538173D01*
X153435321Y-99387372D01*
X153435322Y-99387370D01*
X153509606Y-99248395D01*
X153609578Y-99126578D01*
X153731395Y-99026606D01*
X153870370Y-98952322D01*
X153870372Y-98952321D01*
X154021173Y-98906576D01*
X154099529Y-98898859D01*
X154138706Y-98895000D01*
X154217294Y-98895000D01*
X154256471Y-98898859D01*
X154256471Y-98898859D01*
G37*
G36*
X174791627Y-97587299D02*
G01*
X174871742Y-97611602D01*
X174951855Y-97635903D01*
X174951857Y-97635904D01*
X175099518Y-97714831D01*
X175228949Y-97821051D01*
X175335169Y-97950482D01*
X175414096Y-98098143D01*
X175462701Y-98258373D01*
X175479112Y-98425000D01*
X175462701Y-98591627D01*
X175414096Y-98751857D01*
X175335169Y-98899518D01*
X175228949Y-99028949D01*
X175099518Y-99135169D01*
X174951857Y-99214096D01*
X174951855Y-99214097D01*
X174871742Y-99238399D01*
X174791627Y-99262701D01*
X174666752Y-99275000D01*
X174583248Y-99275000D01*
X174458373Y-99262701D01*
X174378258Y-99238399D01*
X174298145Y-99214097D01*
X174298143Y-99214096D01*
X174150482Y-99135169D01*
X174021051Y-99028949D01*
X173914831Y-98899518D01*
X173835904Y-98751857D01*
X173787299Y-98591627D01*
X173770888Y-98425000D01*
X173787299Y-98258373D01*
X173835904Y-98098143D01*
X173914831Y-97950482D01*
X174021051Y-97821051D01*
X174150482Y-97714831D01*
X174298143Y-97635904D01*
X174298145Y-97635903D01*
X174378258Y-97611602D01*
X174458373Y-97587299D01*
X174583248Y-97575000D01*
X174666752Y-97575000D01*
X174791627Y-97587299D01*
X174791627Y-97587299D01*
G37*
G36*
X177331627Y-97587299D02*
G01*
X177411742Y-97611602D01*
X177491855Y-97635903D01*
X177491857Y-97635904D01*
X177639518Y-97714831D01*
X177768949Y-97821051D01*
X177875169Y-97950482D01*
X177954096Y-98098143D01*
X178002701Y-98258373D01*
X178019112Y-98425000D01*
X178002701Y-98591627D01*
X177954096Y-98751857D01*
X177875169Y-98899518D01*
X177768949Y-99028949D01*
X177639518Y-99135169D01*
X177491857Y-99214096D01*
X177491855Y-99214097D01*
X177411742Y-99238399D01*
X177331627Y-99262701D01*
X177206752Y-99275000D01*
X177123248Y-99275000D01*
X176998373Y-99262701D01*
X176918258Y-99238399D01*
X176838145Y-99214097D01*
X176838143Y-99214096D01*
X176690482Y-99135169D01*
X176561051Y-99028949D01*
X176454831Y-98899518D01*
X176375904Y-98751857D01*
X176327299Y-98591627D01*
X176310888Y-98425000D01*
X176327299Y-98258373D01*
X176375904Y-98098143D01*
X176454831Y-97950482D01*
X176561051Y-97821051D01*
X176690482Y-97714831D01*
X176838143Y-97635904D01*
X176838145Y-97635903D01*
X176918258Y-97611602D01*
X176998373Y-97587299D01*
X177123248Y-97575000D01*
X177206752Y-97575000D01*
X177331627Y-97587299D01*
X177331627Y-97587299D01*
G37*
G36*
X124392723Y-96930782D02*
G01*
X124572264Y-96985246D01*
X124572267Y-96985248D01*
X124572268Y-96985248D01*
X124737741Y-97073694D01*
X124737742Y-97073695D01*
X124737744Y-97073696D01*
X124882778Y-97192722D01*
X125001807Y-97337759D01*
X125090253Y-97503231D01*
X125144718Y-97682776D01*
X125158500Y-97822711D01*
X125158500Y-98011288D01*
X125144718Y-98151223D01*
X125090254Y-98330764D01*
X125090252Y-98330767D01*
X125090252Y-98330768D01*
X125039885Y-98425000D01*
X125001804Y-98496244D01*
X124882778Y-98641278D01*
X124737741Y-98760307D01*
X124572269Y-98848753D01*
X124392724Y-98903218D01*
X124206000Y-98921608D01*
X124019277Y-98903218D01*
X123839732Y-98848753D01*
X123674261Y-98760307D01*
X123674259Y-98760306D01*
X123529222Y-98641278D01*
X123475569Y-98575902D01*
X123410193Y-98496241D01*
X123321747Y-98330769D01*
X123267282Y-98151224D01*
X123253500Y-98011289D01*
X123253500Y-97822712D01*
X123267282Y-97682777D01*
X123321746Y-97503236D01*
X123399535Y-97357701D01*
X123410194Y-97337759D01*
X123529222Y-97192722D01*
X123529263Y-97192688D01*
X123674259Y-97073693D01*
X123839731Y-96985247D01*
X124019276Y-96930782D01*
X124206000Y-96912392D01*
X124392723Y-96930782D01*
X124392723Y-96930782D01*
G37*
G36*
X126932723Y-96930782D02*
G01*
X127112264Y-96985246D01*
X127112267Y-96985248D01*
X127112268Y-96985248D01*
X127277741Y-97073694D01*
X127277742Y-97073695D01*
X127277744Y-97073696D01*
X127422778Y-97192722D01*
X127541807Y-97337759D01*
X127630253Y-97503231D01*
X127684718Y-97682776D01*
X127698500Y-97822711D01*
X127698500Y-98011288D01*
X127684718Y-98151223D01*
X127630254Y-98330764D01*
X127630252Y-98330767D01*
X127630252Y-98330768D01*
X127579885Y-98425000D01*
X127541804Y-98496244D01*
X127422778Y-98641278D01*
X127277741Y-98760307D01*
X127112269Y-98848753D01*
X126932724Y-98903218D01*
X126746000Y-98921608D01*
X126559277Y-98903218D01*
X126379732Y-98848753D01*
X126214261Y-98760307D01*
X126214259Y-98760306D01*
X126069222Y-98641278D01*
X126015569Y-98575902D01*
X125950193Y-98496241D01*
X125861747Y-98330769D01*
X125807282Y-98151224D01*
X125793500Y-98011289D01*
X125793500Y-97822712D01*
X125807282Y-97682777D01*
X125861746Y-97503236D01*
X125939535Y-97357701D01*
X125950194Y-97337759D01*
X126069222Y-97192722D01*
X126069263Y-97192688D01*
X126214259Y-97073693D01*
X126379731Y-96985247D01*
X126559276Y-96930782D01*
X126746000Y-96912392D01*
X126932723Y-96930782D01*
X126932723Y-96930782D01*
G37*
G36*
X122618500Y-98917000D02*
G01*
X120713500Y-98917000D01*
X120713500Y-96917000D01*
X122618500Y-96917000D01*
X122618500Y-98917000D01*
X122618500Y-98917000D01*
G37*
G36*
X155981351Y-96345743D02*
G01*
X156126941Y-96406048D01*
X156257970Y-96493599D01*
X156369401Y-96605030D01*
X156456952Y-96736059D01*
X156517257Y-96881649D01*
X156548000Y-97036206D01*
X156548000Y-97193794D01*
X156517257Y-97348351D01*
X156456952Y-97493941D01*
X156369401Y-97624970D01*
X156257970Y-97736401D01*
X156126941Y-97823952D01*
X155981351Y-97884257D01*
X155826794Y-97915000D01*
X155669206Y-97915000D01*
X155514649Y-97884257D01*
X155369059Y-97823952D01*
X155238030Y-97736401D01*
X155126599Y-97624970D01*
X155039048Y-97493941D01*
X154978743Y-97348351D01*
X154948000Y-97193794D01*
X154948000Y-97036206D01*
X154978743Y-96881649D01*
X155039048Y-96736059D01*
X155126599Y-96605030D01*
X155238030Y-96493599D01*
X155369059Y-96406048D01*
X155514649Y-96345743D01*
X155669206Y-96315000D01*
X155826794Y-96315000D01*
X155981351Y-96345743D01*
X155981351Y-96345743D01*
G37*
G36*
X153481351Y-96345743D02*
G01*
X153626941Y-96406048D01*
X153757970Y-96493599D01*
X153869401Y-96605030D01*
X153956952Y-96736059D01*
X154017257Y-96881649D01*
X154048000Y-97036206D01*
X154048000Y-97193794D01*
X154017257Y-97348351D01*
X153956952Y-97493941D01*
X153869401Y-97624970D01*
X153757970Y-97736401D01*
X153626941Y-97823952D01*
X153481351Y-97884257D01*
X153326794Y-97915000D01*
X153169206Y-97915000D01*
X153014649Y-97884257D01*
X152869059Y-97823952D01*
X152738030Y-97736401D01*
X152626599Y-97624970D01*
X152539048Y-97493941D01*
X152478743Y-97348351D01*
X152448000Y-97193794D01*
X152448000Y-97036206D01*
X152478743Y-96881649D01*
X152539048Y-96736059D01*
X152626599Y-96605030D01*
X152738030Y-96493599D01*
X152869059Y-96406048D01*
X153014649Y-96345743D01*
X153169206Y-96315000D01*
X153326794Y-96315000D01*
X153481351Y-96345743D01*
X153481351Y-96345743D01*
G37*
G36*
X148481351Y-96345743D02*
G01*
X148626941Y-96406048D01*
X148757970Y-96493599D01*
X148869401Y-96605030D01*
X148956952Y-96736059D01*
X149017257Y-96881649D01*
X149048000Y-97036206D01*
X149048000Y-97193794D01*
X149017257Y-97348351D01*
X148956952Y-97493941D01*
X148869401Y-97624970D01*
X148757970Y-97736401D01*
X148626941Y-97823952D01*
X148481351Y-97884257D01*
X148326794Y-97915000D01*
X148169206Y-97915000D01*
X148014649Y-97884257D01*
X147869059Y-97823952D01*
X147738030Y-97736401D01*
X147626599Y-97624970D01*
X147539048Y-97493941D01*
X147478743Y-97348351D01*
X147448000Y-97193794D01*
X147448000Y-97036206D01*
X147478743Y-96881649D01*
X147539048Y-96736059D01*
X147626599Y-96605030D01*
X147738030Y-96493599D01*
X147869059Y-96406048D01*
X148014649Y-96345743D01*
X148169206Y-96315000D01*
X148326794Y-96315000D01*
X148481351Y-96345743D01*
X148481351Y-96345743D01*
G37*
G36*
X145981351Y-96345743D02*
G01*
X146126941Y-96406048D01*
X146257970Y-96493599D01*
X146369401Y-96605030D01*
X146456952Y-96736059D01*
X146517257Y-96881649D01*
X146548000Y-97036206D01*
X146548000Y-97193794D01*
X146517257Y-97348351D01*
X146456952Y-97493941D01*
X146369401Y-97624970D01*
X146257970Y-97736401D01*
X146126941Y-97823952D01*
X145981351Y-97884257D01*
X145826794Y-97915000D01*
X145669206Y-97915000D01*
X145514649Y-97884257D01*
X145369059Y-97823952D01*
X145238030Y-97736401D01*
X145126599Y-97624970D01*
X145039048Y-97493941D01*
X144978743Y-97348351D01*
X144948000Y-97193794D01*
X144948000Y-97036206D01*
X144978743Y-96881649D01*
X145039048Y-96736059D01*
X145126599Y-96605030D01*
X145238030Y-96493599D01*
X145369059Y-96406048D01*
X145514649Y-96345743D01*
X145669206Y-96315000D01*
X145826794Y-96315000D01*
X145981351Y-96345743D01*
X145981351Y-96345743D01*
G37*
G36*
X159335290Y-95926619D02*
G01*
X159399689Y-95939429D01*
X159581678Y-96014811D01*
X159745463Y-96124249D01*
X159884751Y-96263537D01*
X159994189Y-96427322D01*
X160069571Y-96609311D01*
X160069571Y-96609312D01*
X160108000Y-96802507D01*
X160108000Y-96999493D01*
X160093240Y-97073694D01*
X160069571Y-97192689D01*
X159994189Y-97374678D01*
X159884751Y-97538463D01*
X159745463Y-97677751D01*
X159581678Y-97787189D01*
X159399689Y-97862571D01*
X159335290Y-97875381D01*
X159206493Y-97901000D01*
X159009507Y-97901000D01*
X158880710Y-97875381D01*
X158816311Y-97862571D01*
X158634322Y-97787189D01*
X158470537Y-97677751D01*
X158331249Y-97538463D01*
X158221811Y-97374678D01*
X158146429Y-97192689D01*
X158122760Y-97073694D01*
X158108000Y-96999493D01*
X158108000Y-96802507D01*
X158146429Y-96609312D01*
X158146429Y-96609311D01*
X158221811Y-96427322D01*
X158331249Y-96263537D01*
X158470537Y-96124249D01*
X158634322Y-96014811D01*
X158816311Y-95939429D01*
X158880710Y-95926619D01*
X159009507Y-95901000D01*
X159206493Y-95901000D01*
X159335290Y-95926619D01*
X159335290Y-95926619D01*
G37*
G36*
X165835290Y-95926619D02*
G01*
X165899689Y-95939429D01*
X166081678Y-96014811D01*
X166245463Y-96124249D01*
X166384751Y-96263537D01*
X166494189Y-96427322D01*
X166569571Y-96609311D01*
X166569571Y-96609312D01*
X166608000Y-96802507D01*
X166608000Y-96999493D01*
X166593240Y-97073694D01*
X166569571Y-97192689D01*
X166494189Y-97374678D01*
X166384751Y-97538463D01*
X166245463Y-97677751D01*
X166081678Y-97787189D01*
X165899689Y-97862571D01*
X165835290Y-97875381D01*
X165706493Y-97901000D01*
X165509507Y-97901000D01*
X165380710Y-97875381D01*
X165316311Y-97862571D01*
X165134322Y-97787189D01*
X164970537Y-97677751D01*
X164831249Y-97538463D01*
X164721811Y-97374678D01*
X164646429Y-97192689D01*
X164622760Y-97073694D01*
X164608000Y-96999493D01*
X164608000Y-96802507D01*
X164646429Y-96609312D01*
X164646429Y-96609311D01*
X164721811Y-96427322D01*
X164831249Y-96263537D01*
X164970537Y-96124249D01*
X165134322Y-96014811D01*
X165316311Y-95939429D01*
X165380710Y-95926619D01*
X165509507Y-95901000D01*
X165706493Y-95901000D01*
X165835290Y-95926619D01*
X165835290Y-95926619D01*
G37*
G36*
X169330627Y-95682299D02*
G01*
X169410742Y-95706602D01*
X169490855Y-95730903D01*
X169490857Y-95730904D01*
X169638518Y-95809831D01*
X169767949Y-95916051D01*
X169874169Y-96045482D01*
X169953096Y-96193143D01*
X170001701Y-96353373D01*
X170018112Y-96520000D01*
X170001701Y-96686627D01*
X170001700Y-96686629D01*
X169966550Y-96802507D01*
X169953096Y-96846857D01*
X169874169Y-96994518D01*
X169767949Y-97123949D01*
X169638518Y-97230169D01*
X169490857Y-97309096D01*
X169490855Y-97309097D01*
X169410742Y-97333398D01*
X169330627Y-97357701D01*
X169205752Y-97370000D01*
X169122248Y-97370000D01*
X168997373Y-97357701D01*
X168917258Y-97333398D01*
X168837145Y-97309097D01*
X168837143Y-97309096D01*
X168689482Y-97230169D01*
X168560051Y-97123949D01*
X168453831Y-96994518D01*
X168374904Y-96846857D01*
X168361451Y-96802507D01*
X168326300Y-96686629D01*
X168326299Y-96686627D01*
X168309888Y-96520000D01*
X168326299Y-96353373D01*
X168374904Y-96193143D01*
X168453831Y-96045482D01*
X168560051Y-95916051D01*
X168689482Y-95809831D01*
X168837143Y-95730904D01*
X168837145Y-95730903D01*
X168917258Y-95706602D01*
X168997373Y-95682299D01*
X169122248Y-95670000D01*
X169205752Y-95670000D01*
X169330627Y-95682299D01*
X169330627Y-95682299D01*
G37*
G36*
X175475000Y-96735000D02*
G01*
X173775000Y-96735000D01*
X173775000Y-95035000D01*
X175475000Y-95035000D01*
X175475000Y-96735000D01*
X175475000Y-96735000D01*
G37*
G36*
X177331627Y-95047299D02*
G01*
X177411742Y-95071601D01*
X177491855Y-95095903D01*
X177491857Y-95095904D01*
X177639518Y-95174831D01*
X177768949Y-95281051D01*
X177875169Y-95410482D01*
X177954096Y-95558143D01*
X178002701Y-95718373D01*
X178019112Y-95885000D01*
X178002701Y-96051627D01*
X177954096Y-96211857D01*
X177875169Y-96359518D01*
X177768949Y-96488949D01*
X177639518Y-96595169D01*
X177621069Y-96605030D01*
X177491855Y-96674097D01*
X177411742Y-96698399D01*
X177331627Y-96722701D01*
X177206752Y-96735000D01*
X177123248Y-96735000D01*
X176998373Y-96722701D01*
X176918258Y-96698399D01*
X176838145Y-96674097D01*
X176708931Y-96605030D01*
X176690482Y-96595169D01*
X176561051Y-96488949D01*
X176454831Y-96359518D01*
X176375904Y-96211857D01*
X176327299Y-96051627D01*
X176310888Y-95885000D01*
X176327299Y-95718373D01*
X176375904Y-95558143D01*
X176454831Y-95410482D01*
X176561051Y-95281051D01*
X176690482Y-95174831D01*
X176838143Y-95095904D01*
X176838145Y-95095903D01*
X176918258Y-95071601D01*
X176998373Y-95047299D01*
X177123248Y-95035000D01*
X177206752Y-95035000D01*
X177331627Y-95047299D01*
X177331627Y-95047299D01*
G37*
G36*
X116370000Y-95542000D02*
G01*
X114770000Y-95542000D01*
X114770000Y-93942000D01*
X116370000Y-93942000D01*
X116370000Y-95542000D01*
X116370000Y-95542000D01*
G37*
G36*
X153466766Y-93643821D02*
G01*
X153603257Y-93700358D01*
X153726097Y-93782437D01*
X153830563Y-93886903D01*
X153912642Y-94009743D01*
X153969179Y-94146234D01*
X153998000Y-94291130D01*
X153998000Y-94438870D01*
X153969179Y-94583766D01*
X153912642Y-94720257D01*
X153830563Y-94843097D01*
X153726097Y-94947563D01*
X153603257Y-95029642D01*
X153466766Y-95086179D01*
X153321870Y-95115000D01*
X153174130Y-95115000D01*
X153029234Y-95086179D01*
X152892743Y-95029642D01*
X152769903Y-94947563D01*
X152665437Y-94843097D01*
X152583358Y-94720257D01*
X152526821Y-94583766D01*
X152498000Y-94438870D01*
X152498000Y-94291130D01*
X152526821Y-94146234D01*
X152583358Y-94009743D01*
X152665437Y-93886903D01*
X152769903Y-93782437D01*
X152892743Y-93700358D01*
X153029234Y-93643821D01*
X153174130Y-93615000D01*
X153321870Y-93615000D01*
X153466766Y-93643821D01*
X153466766Y-93643821D01*
G37*
G36*
X148566766Y-93643821D02*
G01*
X148703257Y-93700358D01*
X148826097Y-93782437D01*
X148930563Y-93886903D01*
X149012642Y-94009743D01*
X149069179Y-94146234D01*
X149098000Y-94291130D01*
X149098000Y-94438870D01*
X149069179Y-94583766D01*
X149012642Y-94720257D01*
X148930563Y-94843097D01*
X148826097Y-94947563D01*
X148703257Y-95029642D01*
X148566766Y-95086179D01*
X148421870Y-95115000D01*
X148274130Y-95115000D01*
X148129234Y-95086179D01*
X147992743Y-95029642D01*
X147869903Y-94947563D01*
X147765437Y-94843097D01*
X147683358Y-94720257D01*
X147626821Y-94583766D01*
X147598000Y-94438870D01*
X147598000Y-94291130D01*
X147626821Y-94146234D01*
X147683358Y-94009743D01*
X147765437Y-93886903D01*
X147869903Y-93782437D01*
X147992743Y-93700358D01*
X148129234Y-93643821D01*
X148274130Y-93615000D01*
X148421870Y-93615000D01*
X148566766Y-93643821D01*
X148566766Y-93643821D01*
G37*
G36*
X170014000Y-94830000D02*
G01*
X168314000Y-94830000D01*
X168314000Y-93130000D01*
X170014000Y-93130000D01*
X170014000Y-94830000D01*
X170014000Y-94830000D01*
G37*
G36*
X112963351Y-92587743D02*
G01*
X113108941Y-92648048D01*
X113239970Y-92735599D01*
X113351401Y-92847030D01*
X113438952Y-92978059D01*
X113499257Y-93123649D01*
X113530000Y-93278206D01*
X113530000Y-93435794D01*
X113499257Y-93590351D01*
X113438952Y-93735941D01*
X113351401Y-93866970D01*
X113239970Y-93978401D01*
X113108941Y-94065952D01*
X112963351Y-94126257D01*
X112808794Y-94157000D01*
X112651206Y-94157000D01*
X112496649Y-94126257D01*
X112351059Y-94065952D01*
X112220030Y-93978401D01*
X112108599Y-93866970D01*
X112021048Y-93735941D01*
X111960743Y-93590351D01*
X111930000Y-93435794D01*
X111930000Y-93278206D01*
X111960743Y-93123649D01*
X112021048Y-92978059D01*
X112108599Y-92847030D01*
X112220030Y-92735599D01*
X112351059Y-92648048D01*
X112496649Y-92587743D01*
X112651206Y-92557000D01*
X112808794Y-92557000D01*
X112963351Y-92587743D01*
X112963351Y-92587743D01*
G37*
G36*
X137732000Y-93991000D02*
G01*
X135932000Y-93991000D01*
X135932000Y-92191000D01*
X137732000Y-92191000D01*
X137732000Y-93991000D01*
X137732000Y-93991000D01*
G37*
G36*
X132831000Y-93991000D02*
G01*
X131031000Y-93991000D01*
X131031000Y-92191000D01*
X132831000Y-92191000D01*
X132831000Y-93991000D01*
X132831000Y-93991000D01*
G37*
G36*
X142632000Y-93991000D02*
G01*
X140832000Y-93991000D01*
X140832000Y-92191000D01*
X142632000Y-92191000D01*
X142632000Y-93991000D01*
X142632000Y-93991000D01*
G37*
G36*
X159335290Y-91426619D02*
G01*
X159399689Y-91439429D01*
X159581678Y-91514811D01*
X159745463Y-91624249D01*
X159884751Y-91763537D01*
X159994189Y-91927322D01*
X160069571Y-92109311D01*
X160108000Y-92302509D01*
X160108000Y-92499491D01*
X160069571Y-92692689D01*
X159994189Y-92874678D01*
X159884751Y-93038463D01*
X159745463Y-93177751D01*
X159581678Y-93287189D01*
X159399689Y-93362571D01*
X159335290Y-93375381D01*
X159206493Y-93401000D01*
X159009507Y-93401000D01*
X158880710Y-93375381D01*
X158816311Y-93362571D01*
X158634322Y-93287189D01*
X158470537Y-93177751D01*
X158331249Y-93038463D01*
X158221811Y-92874678D01*
X158146429Y-92692689D01*
X158108000Y-92499491D01*
X158108000Y-92302509D01*
X158146429Y-92109311D01*
X158221811Y-91927322D01*
X158331249Y-91763537D01*
X158470537Y-91624249D01*
X158634322Y-91514811D01*
X158816311Y-91439429D01*
X158880710Y-91426619D01*
X159009507Y-91401000D01*
X159206493Y-91401000D01*
X159335290Y-91426619D01*
X159335290Y-91426619D01*
G37*
G36*
X165835290Y-91426619D02*
G01*
X165899689Y-91439429D01*
X166081678Y-91514811D01*
X166245463Y-91624249D01*
X166384751Y-91763537D01*
X166494189Y-91927322D01*
X166569571Y-92109311D01*
X166608000Y-92302509D01*
X166608000Y-92499491D01*
X166569571Y-92692689D01*
X166494189Y-92874678D01*
X166384751Y-93038463D01*
X166245463Y-93177751D01*
X166081678Y-93287189D01*
X165899689Y-93362571D01*
X165835290Y-93375381D01*
X165706493Y-93401000D01*
X165509507Y-93401000D01*
X165380710Y-93375381D01*
X165316311Y-93362571D01*
X165134322Y-93287189D01*
X164970537Y-93177751D01*
X164831249Y-93038463D01*
X164721811Y-92874678D01*
X164646429Y-92692689D01*
X164608000Y-92499491D01*
X164608000Y-92302509D01*
X164646429Y-92109311D01*
X164721811Y-91927322D01*
X164831249Y-91763537D01*
X164970537Y-91624249D01*
X165134322Y-91514811D01*
X165316311Y-91439429D01*
X165380710Y-91426619D01*
X165509507Y-91401000D01*
X165706493Y-91401000D01*
X165835290Y-91426619D01*
X165835290Y-91426619D01*
G37*
G36*
X177630711Y-88851088D02*
G01*
X178000511Y-89004264D01*
X178000513Y-89004265D01*
X178134179Y-89093578D01*
X178333324Y-89226642D01*
X178616358Y-89509676D01*
X178663976Y-89580942D01*
X178822925Y-89818825D01*
X178838736Y-89842489D01*
X178991912Y-90212289D01*
X179070000Y-90604864D01*
X179070000Y-91005136D01*
X178991912Y-91397711D01*
X178910997Y-91593058D01*
X178838735Y-91767513D01*
X178616357Y-92100325D01*
X178333325Y-92383357D01*
X178000513Y-92605735D01*
X178000512Y-92605736D01*
X178000511Y-92605736D01*
X177630711Y-92758912D01*
X177238136Y-92837000D01*
X176837864Y-92837000D01*
X176445289Y-92758912D01*
X176075489Y-92605736D01*
X176075488Y-92605736D01*
X176075487Y-92605735D01*
X175742675Y-92383357D01*
X175459643Y-92100325D01*
X175237265Y-91767513D01*
X175165003Y-91593058D01*
X175084088Y-91397711D01*
X175006000Y-91005136D01*
X175006000Y-90604864D01*
X175084088Y-90212289D01*
X175237264Y-89842489D01*
X175253076Y-89818825D01*
X175412024Y-89580942D01*
X175459642Y-89509676D01*
X175742676Y-89226642D01*
X175941821Y-89093578D01*
X176075487Y-89004265D01*
X176075489Y-89004264D01*
X176445289Y-88851088D01*
X176837864Y-88773000D01*
X177238136Y-88773000D01*
X177630711Y-88851088D01*
X177630711Y-88851088D01*
G37*
G36*
X115803351Y-91202743D02*
G01*
X115948941Y-91263048D01*
X116079970Y-91350599D01*
X116191401Y-91462030D01*
X116278952Y-91593059D01*
X116339257Y-91738649D01*
X116370000Y-91893206D01*
X116370000Y-92050794D01*
X116339257Y-92205351D01*
X116278952Y-92350941D01*
X116191401Y-92481970D01*
X116079970Y-92593401D01*
X115948941Y-92680952D01*
X115803351Y-92741257D01*
X115648794Y-92772000D01*
X115491206Y-92772000D01*
X115336649Y-92741257D01*
X115191059Y-92680952D01*
X115060030Y-92593401D01*
X114948599Y-92481970D01*
X114861048Y-92350941D01*
X114800743Y-92205351D01*
X114770000Y-92050794D01*
X114770000Y-91893206D01*
X114800743Y-91738649D01*
X114861048Y-91593059D01*
X114948599Y-91462030D01*
X115060030Y-91350599D01*
X115191059Y-91263048D01*
X115336649Y-91202743D01*
X115491206Y-91172000D01*
X115648794Y-91172000D01*
X115803351Y-91202743D01*
X115803351Y-91202743D01*
G37*
G36*
X137094520Y-89685586D02*
G01*
X137258310Y-89753430D01*
X137405717Y-89851924D01*
X137531076Y-89977283D01*
X137618822Y-90108605D01*
X137629571Y-90124692D01*
X137697414Y-90288480D01*
X137732000Y-90462356D01*
X137732000Y-90639644D01*
X137726798Y-90665794D01*
X137697414Y-90813520D01*
X137629570Y-90977310D01*
X137531076Y-91124717D01*
X137405717Y-91250076D01*
X137258310Y-91348570D01*
X137258309Y-91348571D01*
X137258308Y-91348571D01*
X137094520Y-91416414D01*
X136920644Y-91451000D01*
X136743356Y-91451000D01*
X136569480Y-91416414D01*
X136405692Y-91348571D01*
X136405691Y-91348571D01*
X136405690Y-91348570D01*
X136258283Y-91250076D01*
X136132924Y-91124717D01*
X136034430Y-90977310D01*
X135966586Y-90813520D01*
X135937202Y-90665794D01*
X135932000Y-90639644D01*
X135932000Y-90462356D01*
X135966586Y-90288480D01*
X136034429Y-90124692D01*
X136045178Y-90108605D01*
X136132924Y-89977283D01*
X136258283Y-89851924D01*
X136405690Y-89753430D01*
X136569480Y-89685586D01*
X136743356Y-89651000D01*
X136920644Y-89651000D01*
X137094520Y-89685586D01*
X137094520Y-89685586D01*
G37*
G36*
X141994520Y-89685586D02*
G01*
X142158310Y-89753430D01*
X142305717Y-89851924D01*
X142431076Y-89977283D01*
X142518822Y-90108605D01*
X142529571Y-90124692D01*
X142597414Y-90288480D01*
X142632000Y-90462356D01*
X142632000Y-90639644D01*
X142626798Y-90665794D01*
X142597414Y-90813520D01*
X142529570Y-90977310D01*
X142431076Y-91124717D01*
X142305717Y-91250076D01*
X142158310Y-91348570D01*
X142158309Y-91348571D01*
X142158308Y-91348571D01*
X141994520Y-91416414D01*
X141820644Y-91451000D01*
X141643356Y-91451000D01*
X141469480Y-91416414D01*
X141305692Y-91348571D01*
X141305691Y-91348571D01*
X141305690Y-91348570D01*
X141158283Y-91250076D01*
X141032924Y-91124717D01*
X140934430Y-90977310D01*
X140866586Y-90813520D01*
X140837202Y-90665794D01*
X140832000Y-90639644D01*
X140832000Y-90462356D01*
X140866586Y-90288480D01*
X140934429Y-90124692D01*
X140945178Y-90108605D01*
X141032924Y-89977283D01*
X141158283Y-89851924D01*
X141305690Y-89753430D01*
X141469480Y-89685586D01*
X141643356Y-89651000D01*
X141820644Y-89651000D01*
X141994520Y-89685586D01*
X141994520Y-89685586D01*
G37*
G36*
X132193520Y-89685586D02*
G01*
X132357310Y-89753430D01*
X132504717Y-89851924D01*
X132630076Y-89977283D01*
X132717822Y-90108605D01*
X132728571Y-90124692D01*
X132796414Y-90288480D01*
X132831000Y-90462356D01*
X132831000Y-90639644D01*
X132825798Y-90665794D01*
X132796414Y-90813520D01*
X132728570Y-90977310D01*
X132630076Y-91124717D01*
X132504717Y-91250076D01*
X132357310Y-91348570D01*
X132357309Y-91348571D01*
X132357308Y-91348571D01*
X132193520Y-91416414D01*
X132019644Y-91451000D01*
X131842356Y-91451000D01*
X131668480Y-91416414D01*
X131504692Y-91348571D01*
X131504691Y-91348571D01*
X131504690Y-91348570D01*
X131357283Y-91250076D01*
X131231924Y-91124717D01*
X131133430Y-90977310D01*
X131065586Y-90813520D01*
X131036202Y-90665794D01*
X131031000Y-90639644D01*
X131031000Y-90462356D01*
X131065586Y-90288480D01*
X131133429Y-90124692D01*
X131144178Y-90108605D01*
X131231924Y-89977283D01*
X131357283Y-89851924D01*
X131504690Y-89753430D01*
X131668480Y-89685586D01*
X131842356Y-89651000D01*
X132019644Y-89651000D01*
X132193520Y-89685586D01*
X132193520Y-89685586D01*
G37*
G36*
X112963351Y-89817743D02*
G01*
X113108941Y-89878048D01*
X113239970Y-89965599D01*
X113351401Y-90077030D01*
X113438952Y-90208059D01*
X113499257Y-90353649D01*
X113530000Y-90508206D01*
X113530000Y-90665794D01*
X113499257Y-90820351D01*
X113438952Y-90965941D01*
X113351401Y-91096970D01*
X113239970Y-91208401D01*
X113108941Y-91295952D01*
X112963351Y-91356257D01*
X112808794Y-91387000D01*
X112651206Y-91387000D01*
X112496649Y-91356257D01*
X112351059Y-91295952D01*
X112220030Y-91208401D01*
X112108599Y-91096970D01*
X112021048Y-90965941D01*
X111960743Y-90820351D01*
X111930000Y-90665794D01*
X111930000Y-90508206D01*
X111960743Y-90353649D01*
X112021048Y-90208059D01*
X112108599Y-90077030D01*
X112220030Y-89965599D01*
X112351059Y-89878048D01*
X112496649Y-89817743D01*
X112651206Y-89787000D01*
X112808794Y-89787000D01*
X112963351Y-89817743D01*
X112963351Y-89817743D01*
G37*
G36*
X172544471Y-88865859D02*
G01*
X172622827Y-88873576D01*
X172773628Y-88919321D01*
X172773630Y-88919322D01*
X172912605Y-88993606D01*
X173034422Y-89093578D01*
X173134394Y-89215395D01*
X173170561Y-89283058D01*
X173208679Y-89354372D01*
X173254424Y-89505173D01*
X173269870Y-89662000D01*
X173254424Y-89818827D01*
X173226478Y-89910951D01*
X173208678Y-89969630D01*
X173134394Y-90108605D01*
X173034422Y-90230422D01*
X172912605Y-90330394D01*
X172773630Y-90404678D01*
X172773628Y-90404679D01*
X172622827Y-90450424D01*
X172544471Y-90458141D01*
X172505294Y-90462000D01*
X172426706Y-90462000D01*
X172387529Y-90458141D01*
X172309173Y-90450424D01*
X172158372Y-90404679D01*
X172158370Y-90404678D01*
X172019395Y-90330394D01*
X171897578Y-90230422D01*
X171797606Y-90108605D01*
X171723322Y-89969630D01*
X171705522Y-89910951D01*
X171677576Y-89818827D01*
X171662130Y-89662000D01*
X171677576Y-89505173D01*
X171723321Y-89354372D01*
X171761439Y-89283058D01*
X171797606Y-89215395D01*
X171897578Y-89093578D01*
X172019395Y-88993606D01*
X172158370Y-88919322D01*
X172158372Y-88919321D01*
X172309173Y-88873576D01*
X172387529Y-88865859D01*
X172426706Y-88862000D01*
X172505294Y-88862000D01*
X172544471Y-88865859D01*
X172544471Y-88865859D01*
G37*
G36*
X162785351Y-88892743D02*
G01*
X162930941Y-88953048D01*
X163061970Y-89040599D01*
X163173401Y-89152030D01*
X163260952Y-89283059D01*
X163321257Y-89428649D01*
X163352000Y-89583206D01*
X163352000Y-89740794D01*
X163321257Y-89895351D01*
X163260952Y-90040941D01*
X163173401Y-90171970D01*
X163061970Y-90283401D01*
X162930941Y-90370952D01*
X162785351Y-90431257D01*
X162630794Y-90462000D01*
X162473206Y-90462000D01*
X162318649Y-90431257D01*
X162173059Y-90370952D01*
X162042030Y-90283401D01*
X161930599Y-90171970D01*
X161843048Y-90040941D01*
X161782743Y-89895351D01*
X161752000Y-89740794D01*
X161752000Y-89583206D01*
X161782743Y-89428649D01*
X161843048Y-89283059D01*
X161930599Y-89152030D01*
X162042030Y-89040599D01*
X162173059Y-88953048D01*
X162318649Y-88892743D01*
X162473206Y-88862000D01*
X162630794Y-88862000D01*
X162785351Y-88892743D01*
X162785351Y-88892743D01*
G37*
G36*
X165935471Y-88865859D02*
G01*
X166013827Y-88873576D01*
X166164628Y-88919321D01*
X166164630Y-88919322D01*
X166303605Y-88993606D01*
X166425422Y-89093578D01*
X166525394Y-89215395D01*
X166561561Y-89283058D01*
X166599679Y-89354372D01*
X166645424Y-89505173D01*
X166660870Y-89662000D01*
X166645424Y-89818827D01*
X166617478Y-89910951D01*
X166599678Y-89969630D01*
X166525394Y-90108605D01*
X166425422Y-90230422D01*
X166303605Y-90330394D01*
X166164630Y-90404678D01*
X166164628Y-90404679D01*
X166013827Y-90450424D01*
X165935471Y-90458141D01*
X165896294Y-90462000D01*
X165817706Y-90462000D01*
X165778529Y-90458141D01*
X165700173Y-90450424D01*
X165549372Y-90404679D01*
X165549370Y-90404678D01*
X165410395Y-90330394D01*
X165288578Y-90230422D01*
X165188606Y-90108605D01*
X165114322Y-89969630D01*
X165096522Y-89910951D01*
X165068576Y-89818827D01*
X165053130Y-89662000D01*
X165068576Y-89505173D01*
X165114321Y-89354372D01*
X165152439Y-89283058D01*
X165188606Y-89215395D01*
X165288578Y-89093578D01*
X165410395Y-88993606D01*
X165549370Y-88919322D01*
X165549372Y-88919321D01*
X165700173Y-88873576D01*
X165778529Y-88865859D01*
X165817706Y-88862000D01*
X165896294Y-88862000D01*
X165935471Y-88865859D01*
X165935471Y-88865859D01*
G37*
G36*
X169240471Y-88865859D02*
G01*
X169318827Y-88873576D01*
X169469628Y-88919321D01*
X169469630Y-88919322D01*
X169608605Y-88993606D01*
X169730422Y-89093578D01*
X169830394Y-89215395D01*
X169866561Y-89283058D01*
X169904679Y-89354372D01*
X169950424Y-89505173D01*
X169965870Y-89662000D01*
X169950424Y-89818827D01*
X169922478Y-89910951D01*
X169904678Y-89969630D01*
X169830394Y-90108605D01*
X169730422Y-90230422D01*
X169608605Y-90330394D01*
X169469630Y-90404678D01*
X169469628Y-90404679D01*
X169318827Y-90450424D01*
X169240471Y-90458141D01*
X169201294Y-90462000D01*
X169122706Y-90462000D01*
X169083529Y-90458141D01*
X169005173Y-90450424D01*
X168854372Y-90404679D01*
X168854370Y-90404678D01*
X168715395Y-90330394D01*
X168593578Y-90230422D01*
X168493606Y-90108605D01*
X168419322Y-89969630D01*
X168401522Y-89910951D01*
X168373576Y-89818827D01*
X168358130Y-89662000D01*
X168373576Y-89505173D01*
X168419321Y-89354372D01*
X168457439Y-89283058D01*
X168493606Y-89215395D01*
X168593578Y-89093578D01*
X168715395Y-88993606D01*
X168854370Y-88919322D01*
X168854372Y-88919321D01*
X169005173Y-88873576D01*
X169083529Y-88865859D01*
X169122706Y-88862000D01*
X169201294Y-88862000D01*
X169240471Y-88865859D01*
X169240471Y-88865859D01*
G37*
G36*
X159481351Y-88892743D02*
G01*
X159626941Y-88953048D01*
X159757970Y-89040599D01*
X159869401Y-89152030D01*
X159956952Y-89283059D01*
X160017257Y-89428649D01*
X160048000Y-89583206D01*
X160048000Y-89740794D01*
X160017257Y-89895351D01*
X159956952Y-90040941D01*
X159869401Y-90171970D01*
X159757970Y-90283401D01*
X159626941Y-90370952D01*
X159481351Y-90431257D01*
X159326794Y-90462000D01*
X159169206Y-90462000D01*
X159014649Y-90431257D01*
X158869059Y-90370952D01*
X158738030Y-90283401D01*
X158626599Y-90171970D01*
X158539048Y-90040941D01*
X158478743Y-89895351D01*
X158448000Y-89740794D01*
X158448000Y-89583206D01*
X158478743Y-89428649D01*
X158539048Y-89283059D01*
X158626599Y-89152030D01*
X158738030Y-89040599D01*
X158869059Y-88953048D01*
X159014649Y-88892743D01*
X159169206Y-88862000D01*
X159326794Y-88862000D01*
X159481351Y-88892743D01*
X159481351Y-88892743D01*
G37*
G36*
X115803351Y-88432743D02*
G01*
X115948941Y-88493048D01*
X116079970Y-88580599D01*
X116191401Y-88692030D01*
X116278952Y-88823059D01*
X116339257Y-88968649D01*
X116370000Y-89123206D01*
X116370000Y-89280794D01*
X116339257Y-89435351D01*
X116278952Y-89580941D01*
X116191401Y-89711970D01*
X116079970Y-89823401D01*
X115948941Y-89910952D01*
X115803351Y-89971257D01*
X115648794Y-90002000D01*
X115491206Y-90002000D01*
X115336649Y-89971257D01*
X115191059Y-89910952D01*
X115060030Y-89823401D01*
X114948599Y-89711970D01*
X114861048Y-89580941D01*
X114800743Y-89435351D01*
X114770000Y-89280794D01*
X114770000Y-89123206D01*
X114800743Y-88968649D01*
X114861048Y-88823059D01*
X114948599Y-88692030D01*
X115060030Y-88580599D01*
X115191059Y-88493048D01*
X115336649Y-88432743D01*
X115491206Y-88402000D01*
X115648794Y-88402000D01*
X115803351Y-88432743D01*
X115803351Y-88432743D01*
G37*
G36*
X112963351Y-87047743D02*
G01*
X113108941Y-87108048D01*
X113239970Y-87195599D01*
X113351401Y-87307030D01*
X113438952Y-87438059D01*
X113499257Y-87583649D01*
X113530000Y-87738206D01*
X113530000Y-87895794D01*
X113499257Y-88050351D01*
X113438952Y-88195941D01*
X113351401Y-88326970D01*
X113239970Y-88438401D01*
X113108941Y-88525952D01*
X112963351Y-88586257D01*
X112808794Y-88617000D01*
X112651206Y-88617000D01*
X112496649Y-88586257D01*
X112351059Y-88525952D01*
X112220030Y-88438401D01*
X112108599Y-88326970D01*
X112021048Y-88195941D01*
X111960743Y-88050351D01*
X111930000Y-87895794D01*
X111930000Y-87738206D01*
X111960743Y-87583649D01*
X112021048Y-87438059D01*
X112108599Y-87307030D01*
X112220030Y-87195599D01*
X112351059Y-87108048D01*
X112496649Y-87047743D01*
X112651206Y-87017000D01*
X112808794Y-87017000D01*
X112963351Y-87047743D01*
X112963351Y-87047743D01*
G37*
G36*
X141810471Y-86452859D02*
G01*
X141888827Y-86460576D01*
X142039628Y-86506321D01*
X142039630Y-86506322D01*
X142178605Y-86580606D01*
X142178607Y-86580607D01*
X142178606Y-86580607D01*
X142300422Y-86680578D01*
X142400393Y-86802394D01*
X142474679Y-86941372D01*
X142520424Y-87092173D01*
X142535870Y-87249000D01*
X142520424Y-87405827D01*
X142474679Y-87556628D01*
X142474678Y-87556630D01*
X142400394Y-87695605D01*
X142300422Y-87817422D01*
X142178605Y-87917394D01*
X142039630Y-87991678D01*
X142039628Y-87991679D01*
X141888827Y-88037424D01*
X141810471Y-88045141D01*
X141771294Y-88049000D01*
X141692706Y-88049000D01*
X141653529Y-88045141D01*
X141575173Y-88037424D01*
X141424372Y-87991679D01*
X141424370Y-87991678D01*
X141285395Y-87917394D01*
X141163578Y-87817422D01*
X141063606Y-87695605D01*
X140989322Y-87556630D01*
X140989321Y-87556628D01*
X140943576Y-87405827D01*
X140928130Y-87249000D01*
X140943576Y-87092173D01*
X140989321Y-86941372D01*
X141063607Y-86802394D01*
X141163578Y-86680578D01*
X141285394Y-86580607D01*
X141285393Y-86580607D01*
X141285395Y-86580606D01*
X141424370Y-86506322D01*
X141424372Y-86506321D01*
X141575173Y-86460576D01*
X141653529Y-86452859D01*
X141692706Y-86449000D01*
X141771294Y-86449000D01*
X141810471Y-86452859D01*
X141810471Y-86452859D01*
G37*
G36*
X131805351Y-86479743D02*
G01*
X131950941Y-86540048D01*
X132081970Y-86627599D01*
X132193401Y-86739030D01*
X132280952Y-86870059D01*
X132341257Y-87015649D01*
X132372000Y-87170206D01*
X132372000Y-87327794D01*
X132341257Y-87482351D01*
X132280952Y-87627941D01*
X132193401Y-87758970D01*
X132081970Y-87870401D01*
X131950941Y-87957952D01*
X131805351Y-88018257D01*
X131650794Y-88049000D01*
X131493206Y-88049000D01*
X131338649Y-88018257D01*
X131193059Y-87957952D01*
X131062030Y-87870401D01*
X130950599Y-87758970D01*
X130863048Y-87627941D01*
X130802743Y-87482351D01*
X130772000Y-87327794D01*
X130772000Y-87170206D01*
X130802743Y-87015649D01*
X130863048Y-86870059D01*
X130950599Y-86739030D01*
X131062030Y-86627599D01*
X131193059Y-86540048D01*
X131338649Y-86479743D01*
X131493206Y-86449000D01*
X131650794Y-86449000D01*
X131805351Y-86479743D01*
X131805351Y-86479743D01*
G37*
G36*
X115803351Y-85662743D02*
G01*
X115948941Y-85723048D01*
X116079970Y-85810599D01*
X116191401Y-85922030D01*
X116278952Y-86053059D01*
X116339257Y-86198649D01*
X116370000Y-86353206D01*
X116370000Y-86510794D01*
X116339257Y-86665351D01*
X116278952Y-86810941D01*
X116191401Y-86941970D01*
X116079970Y-87053401D01*
X115948941Y-87140952D01*
X115803351Y-87201257D01*
X115648794Y-87232000D01*
X115491206Y-87232000D01*
X115336649Y-87201257D01*
X115191059Y-87140952D01*
X115060030Y-87053401D01*
X114948599Y-86941970D01*
X114861048Y-86810941D01*
X114800743Y-86665351D01*
X114770000Y-86510794D01*
X114770000Y-86353206D01*
X114800743Y-86198649D01*
X114861048Y-86053059D01*
X114948599Y-85922030D01*
X115060030Y-85810599D01*
X115191059Y-85723048D01*
X115336649Y-85662743D01*
X115491206Y-85632000D01*
X115648794Y-85632000D01*
X115803351Y-85662743D01*
X115803351Y-85662743D01*
G37*
G36*
X112963351Y-84277743D02*
G01*
X113108941Y-84338048D01*
X113239970Y-84425599D01*
X113351401Y-84537030D01*
X113438952Y-84668059D01*
X113499257Y-84813649D01*
X113530000Y-84968206D01*
X113530000Y-85125794D01*
X113499257Y-85280351D01*
X113438952Y-85425941D01*
X113351401Y-85556970D01*
X113239970Y-85668401D01*
X113108941Y-85755952D01*
X112963351Y-85816257D01*
X112808794Y-85847000D01*
X112651206Y-85847000D01*
X112496649Y-85816257D01*
X112351059Y-85755952D01*
X112220030Y-85668401D01*
X112108599Y-85556970D01*
X112021048Y-85425941D01*
X111960743Y-85280351D01*
X111930000Y-85125794D01*
X111930000Y-84968206D01*
X111960743Y-84813649D01*
X112021048Y-84668059D01*
X112108599Y-84537030D01*
X112220030Y-84425599D01*
X112351059Y-84338048D01*
X112496649Y-84277743D01*
X112651206Y-84247000D01*
X112808794Y-84247000D01*
X112963351Y-84277743D01*
X112963351Y-84277743D01*
G37*
G36*
X115803351Y-82892743D02*
G01*
X115948941Y-82953048D01*
X116079970Y-83040599D01*
X116191401Y-83152030D01*
X116278952Y-83283059D01*
X116339257Y-83428649D01*
X116370000Y-83583206D01*
X116370000Y-83740794D01*
X116339257Y-83895351D01*
X116278952Y-84040941D01*
X116191401Y-84171970D01*
X116079970Y-84283401D01*
X115948941Y-84370952D01*
X115803351Y-84431257D01*
X115648794Y-84462000D01*
X115491206Y-84462000D01*
X115336649Y-84431257D01*
X115191059Y-84370952D01*
X115060030Y-84283401D01*
X114948599Y-84171970D01*
X114861048Y-84040941D01*
X114800743Y-83895351D01*
X114770000Y-83740794D01*
X114770000Y-83583206D01*
X114800743Y-83428649D01*
X114861048Y-83283059D01*
X114948599Y-83152030D01*
X115060030Y-83040599D01*
X115191059Y-82953048D01*
X115336649Y-82892743D01*
X115491206Y-82862000D01*
X115648794Y-82862000D01*
X115803351Y-82892743D01*
X115803351Y-82892743D01*
G37*
G36*
X131805351Y-82720243D02*
G01*
X131950941Y-82780548D01*
X132081970Y-82868099D01*
X132193401Y-82979530D01*
X132280952Y-83110559D01*
X132341257Y-83256149D01*
X132372000Y-83410706D01*
X132372000Y-83568294D01*
X132341257Y-83722851D01*
X132280952Y-83868441D01*
X132193401Y-83999470D01*
X132081970Y-84110901D01*
X131950941Y-84198452D01*
X131805351Y-84258757D01*
X131650794Y-84289500D01*
X131493206Y-84289500D01*
X131338649Y-84258757D01*
X131193059Y-84198452D01*
X131062030Y-84110901D01*
X130950599Y-83999470D01*
X130863048Y-83868441D01*
X130802743Y-83722851D01*
X130772000Y-83568294D01*
X130772000Y-83410706D01*
X130802743Y-83256149D01*
X130863048Y-83110559D01*
X130950599Y-82979530D01*
X131062030Y-82868099D01*
X131193059Y-82780548D01*
X131338649Y-82720243D01*
X131493206Y-82689500D01*
X131650794Y-82689500D01*
X131805351Y-82720243D01*
X131805351Y-82720243D01*
G37*
G36*
X141810471Y-82693359D02*
G01*
X141888827Y-82701076D01*
X142039628Y-82746821D01*
X142039630Y-82746822D01*
X142178605Y-82821106D01*
X142178607Y-82821107D01*
X142178606Y-82821107D01*
X142300422Y-82921078D01*
X142400393Y-83042894D01*
X142474679Y-83181872D01*
X142520424Y-83332673D01*
X142535870Y-83489500D01*
X142520424Y-83646327D01*
X142474679Y-83797128D01*
X142474678Y-83797130D01*
X142400394Y-83936105D01*
X142300422Y-84057922D01*
X142178605Y-84157894D01*
X142039630Y-84232178D01*
X142039628Y-84232179D01*
X141888827Y-84277924D01*
X141810471Y-84285641D01*
X141771294Y-84289500D01*
X141692706Y-84289500D01*
X141653529Y-84285641D01*
X141575173Y-84277924D01*
X141424372Y-84232179D01*
X141424370Y-84232178D01*
X141285395Y-84157894D01*
X141163578Y-84057922D01*
X141063606Y-83936105D01*
X140989322Y-83797130D01*
X140989321Y-83797128D01*
X140943576Y-83646327D01*
X140928130Y-83489500D01*
X140943576Y-83332673D01*
X140989321Y-83181872D01*
X141063607Y-83042894D01*
X141163578Y-82921078D01*
X141285394Y-82821107D01*
X141285393Y-82821107D01*
X141285395Y-82821106D01*
X141424370Y-82746822D01*
X141424372Y-82746821D01*
X141575173Y-82701076D01*
X141653529Y-82693359D01*
X141692706Y-82689500D01*
X141771294Y-82689500D01*
X141810471Y-82693359D01*
X141810471Y-82693359D01*
G37*
G36*
X124377665Y-79515440D02*
G01*
X124549060Y-79532321D01*
X124878936Y-79632388D01*
X124878939Y-79632389D01*
X125182951Y-79794887D01*
X125449424Y-80013576D01*
X125668113Y-80280049D01*
X125830611Y-80584061D01*
X125830612Y-80584064D01*
X125930679Y-80913940D01*
X125964467Y-81257000D01*
X125930679Y-81600060D01*
X125830612Y-81929936D01*
X125830611Y-81929939D01*
X125668113Y-82233951D01*
X125449424Y-82500424D01*
X125182951Y-82719113D01*
X124878939Y-82881611D01*
X124878936Y-82881612D01*
X124549060Y-82981679D01*
X124377665Y-82998560D01*
X124291969Y-83007000D01*
X124120031Y-83007000D01*
X124034335Y-82998560D01*
X123862940Y-82981679D01*
X123533064Y-82881612D01*
X123533061Y-82881611D01*
X123229049Y-82719113D01*
X122962576Y-82500424D01*
X122743887Y-82233951D01*
X122581389Y-81929939D01*
X122581388Y-81929936D01*
X122481321Y-81600060D01*
X122447533Y-81257000D01*
X122481321Y-80913940D01*
X122581388Y-80584064D01*
X122581389Y-80584061D01*
X122743887Y-80280049D01*
X122962576Y-80013576D01*
X123229049Y-79794887D01*
X123533061Y-79632389D01*
X123533064Y-79632388D01*
X123862940Y-79532321D01*
X124034335Y-79515440D01*
X124120031Y-79507000D01*
X124291969Y-79507000D01*
X124377665Y-79515440D01*
X124377665Y-79515440D01*
G37*
G36*
X141807621Y-78933578D02*
G01*
X141888827Y-78941576D01*
X142039628Y-78987321D01*
X142039630Y-78987322D01*
X142178605Y-79061606D01*
X142300422Y-79161578D01*
X142327334Y-79194370D01*
X142400393Y-79283394D01*
X142474679Y-79422372D01*
X142520424Y-79573173D01*
X142535870Y-79730000D01*
X142520424Y-79886827D01*
X142482462Y-80011970D01*
X142474678Y-80037630D01*
X142400394Y-80176605D01*
X142300422Y-80298422D01*
X142178605Y-80398394D01*
X142039630Y-80472678D01*
X142039628Y-80472679D01*
X141888827Y-80518424D01*
X141810471Y-80526141D01*
X141771294Y-80530000D01*
X141692706Y-80530000D01*
X141653529Y-80526141D01*
X141575173Y-80518424D01*
X141424372Y-80472679D01*
X141424370Y-80472678D01*
X141285395Y-80398394D01*
X141163578Y-80298422D01*
X141063606Y-80176605D01*
X140989322Y-80037630D01*
X140981538Y-80011970D01*
X140943576Y-79886827D01*
X140928130Y-79730000D01*
X140943576Y-79573173D01*
X140989321Y-79422372D01*
X141063607Y-79283394D01*
X141136667Y-79194370D01*
X141163578Y-79161578D01*
X141285395Y-79061606D01*
X141424370Y-78987322D01*
X141424372Y-78987321D01*
X141575173Y-78941576D01*
X141656379Y-78933578D01*
X141692706Y-78930000D01*
X141771294Y-78930000D01*
X141807621Y-78933578D01*
X141807621Y-78933578D01*
G37*
G36*
X131805351Y-78960743D02*
G01*
X131950941Y-79021048D01*
X132081970Y-79108599D01*
X132193401Y-79220030D01*
X132280952Y-79351059D01*
X132341257Y-79496649D01*
X132372000Y-79651206D01*
X132372000Y-79808794D01*
X132341257Y-79963351D01*
X132280952Y-80108941D01*
X132193401Y-80239970D01*
X132081970Y-80351401D01*
X131950941Y-80438952D01*
X131805351Y-80499257D01*
X131650794Y-80530000D01*
X131493206Y-80530000D01*
X131338649Y-80499257D01*
X131193059Y-80438952D01*
X131062030Y-80351401D01*
X130950599Y-80239970D01*
X130863048Y-80108941D01*
X130802743Y-79963351D01*
X130772000Y-79808794D01*
X130772000Y-79651206D01*
X130802743Y-79496649D01*
X130863048Y-79351059D01*
X130950599Y-79220030D01*
X131062030Y-79108599D01*
X131193059Y-79021048D01*
X131338649Y-78960743D01*
X131493206Y-78930000D01*
X131650794Y-78930000D01*
X131805351Y-78960743D01*
X131805351Y-78960743D01*
G37*
G36*
X166090351Y-78732743D02*
G01*
X166235941Y-78793048D01*
X166366970Y-78880599D01*
X166478401Y-78992030D01*
X166565952Y-79123059D01*
X166626257Y-79268649D01*
X166657000Y-79423206D01*
X166657000Y-79580794D01*
X166626257Y-79735351D01*
X166565952Y-79880941D01*
X166478401Y-80011970D01*
X166366970Y-80123401D01*
X166235941Y-80210952D01*
X166090351Y-80271257D01*
X165935794Y-80302000D01*
X165778206Y-80302000D01*
X165623649Y-80271257D01*
X165478059Y-80210952D01*
X165347030Y-80123401D01*
X165235599Y-80011970D01*
X165148048Y-79880941D01*
X165087743Y-79735351D01*
X165057000Y-79580794D01*
X165057000Y-79423206D01*
X165087743Y-79268649D01*
X165148048Y-79123059D01*
X165235599Y-78992030D01*
X165347030Y-78880599D01*
X165478059Y-78793048D01*
X165623649Y-78732743D01*
X165778206Y-78702000D01*
X165935794Y-78702000D01*
X166090351Y-78732743D01*
X166090351Y-78732743D01*
G37*
G36*
X162630471Y-78705859D02*
G01*
X162708827Y-78713576D01*
X162859628Y-78759321D01*
X162859630Y-78759322D01*
X162998605Y-78833606D01*
X163120422Y-78933578D01*
X163220394Y-79055395D01*
X163223714Y-79061607D01*
X163294679Y-79194372D01*
X163340424Y-79345173D01*
X163355870Y-79502000D01*
X163340424Y-79658827D01*
X163299150Y-79794888D01*
X163294678Y-79809630D01*
X163220394Y-79948605D01*
X163120422Y-80070422D01*
X162998605Y-80170394D01*
X162868438Y-80239970D01*
X162859628Y-80244679D01*
X162708827Y-80290424D01*
X162630471Y-80298141D01*
X162591294Y-80302000D01*
X162512706Y-80302000D01*
X162473529Y-80298141D01*
X162395173Y-80290424D01*
X162244372Y-80244679D01*
X162235562Y-80239970D01*
X162105395Y-80170394D01*
X161983578Y-80070422D01*
X161883606Y-79948605D01*
X161809322Y-79809630D01*
X161804850Y-79794888D01*
X161763576Y-79658827D01*
X161748130Y-79502000D01*
X161763576Y-79345173D01*
X161809321Y-79194372D01*
X161880286Y-79061607D01*
X161883606Y-79055395D01*
X161983578Y-78933578D01*
X162105395Y-78833606D01*
X162244370Y-78759322D01*
X162244372Y-78759321D01*
X162395173Y-78713576D01*
X162473529Y-78705859D01*
X162512706Y-78702000D01*
X162591294Y-78702000D01*
X162630471Y-78705859D01*
X162630471Y-78705859D01*
G37*
G36*
X159326471Y-78705859D02*
G01*
X159404827Y-78713576D01*
X159555628Y-78759321D01*
X159555630Y-78759322D01*
X159694605Y-78833606D01*
X159816422Y-78933578D01*
X159916394Y-79055395D01*
X159919714Y-79061607D01*
X159990679Y-79194372D01*
X160036424Y-79345173D01*
X160051870Y-79502000D01*
X160036424Y-79658827D01*
X159995150Y-79794888D01*
X159990678Y-79809630D01*
X159916394Y-79948605D01*
X159816422Y-80070422D01*
X159694605Y-80170394D01*
X159564438Y-80239970D01*
X159555628Y-80244679D01*
X159404827Y-80290424D01*
X159326471Y-80298141D01*
X159287294Y-80302000D01*
X159208706Y-80302000D01*
X159169529Y-80298141D01*
X159091173Y-80290424D01*
X158940372Y-80244679D01*
X158931562Y-80239970D01*
X158801395Y-80170394D01*
X158679578Y-80070422D01*
X158579606Y-79948605D01*
X158505322Y-79809630D01*
X158500850Y-79794888D01*
X158459576Y-79658827D01*
X158444130Y-79502000D01*
X158459576Y-79345173D01*
X158505321Y-79194372D01*
X158576286Y-79061607D01*
X158579606Y-79055395D01*
X158679578Y-78933578D01*
X158801395Y-78833606D01*
X158940370Y-78759322D01*
X158940372Y-78759321D01*
X159091173Y-78713576D01*
X159169529Y-78705859D01*
X159208706Y-78702000D01*
X159287294Y-78702000D01*
X159326471Y-78705859D01*
X159326471Y-78705859D01*
G37*
G36*
X172699351Y-78732743D02*
G01*
X172844941Y-78793048D01*
X172975970Y-78880599D01*
X173087401Y-78992030D01*
X173174952Y-79123059D01*
X173235257Y-79268649D01*
X173266000Y-79423206D01*
X173266000Y-79580794D01*
X173235257Y-79735351D01*
X173174952Y-79880941D01*
X173087401Y-80011970D01*
X172975970Y-80123401D01*
X172844941Y-80210952D01*
X172699351Y-80271257D01*
X172544794Y-80302000D01*
X172387206Y-80302000D01*
X172232649Y-80271257D01*
X172087059Y-80210952D01*
X171956030Y-80123401D01*
X171844599Y-80011970D01*
X171757048Y-79880941D01*
X171696743Y-79735351D01*
X171666000Y-79580794D01*
X171666000Y-79423206D01*
X171696743Y-79268649D01*
X171757048Y-79123059D01*
X171844599Y-78992030D01*
X171956030Y-78880599D01*
X172087059Y-78793048D01*
X172232649Y-78732743D01*
X172387206Y-78702000D01*
X172544794Y-78702000D01*
X172699351Y-78732743D01*
X172699351Y-78732743D01*
G37*
G36*
X169395351Y-78732743D02*
G01*
X169540941Y-78793048D01*
X169671970Y-78880599D01*
X169783401Y-78992030D01*
X169870952Y-79123059D01*
X169931257Y-79268649D01*
X169962000Y-79423206D01*
X169962000Y-79580794D01*
X169931257Y-79735351D01*
X169870952Y-79880941D01*
X169783401Y-80011970D01*
X169671970Y-80123401D01*
X169540941Y-80210952D01*
X169395351Y-80271257D01*
X169240794Y-80302000D01*
X169083206Y-80302000D01*
X168928649Y-80271257D01*
X168783059Y-80210952D01*
X168652030Y-80123401D01*
X168540599Y-80011970D01*
X168453048Y-79880941D01*
X168392743Y-79735351D01*
X168362000Y-79580794D01*
X168362000Y-79423206D01*
X168392743Y-79268649D01*
X168453048Y-79123059D01*
X168540599Y-78992030D01*
X168652030Y-78880599D01*
X168783059Y-78793048D01*
X168928649Y-78732743D01*
X169083206Y-78702000D01*
X169240794Y-78702000D01*
X169395351Y-78732743D01*
X169395351Y-78732743D01*
G37*
G36*
X115853377Y-74778858D02*
G01*
X116217353Y-74929622D01*
X116217355Y-74929623D01*
X116218651Y-74930489D01*
X116544925Y-75148498D01*
X116823502Y-75427075D01*
X117042378Y-75754647D01*
X117193142Y-76118623D01*
X117270000Y-76505016D01*
X117270000Y-76898984D01*
X117193142Y-77285377D01*
X117064063Y-77597000D01*
X117042377Y-77649355D01*
X116823501Y-77976926D01*
X116544926Y-78255501D01*
X116217355Y-78474377D01*
X116217354Y-78474378D01*
X116217353Y-78474378D01*
X115853377Y-78625142D01*
X115466984Y-78702000D01*
X115073016Y-78702000D01*
X114686623Y-78625142D01*
X114322647Y-78474378D01*
X114322646Y-78474378D01*
X114322645Y-78474377D01*
X113995074Y-78255501D01*
X113716499Y-77976926D01*
X113497623Y-77649355D01*
X113475937Y-77597000D01*
X113346858Y-77285377D01*
X113270000Y-76898984D01*
X113270000Y-76505016D01*
X113346858Y-76118623D01*
X113497622Y-75754647D01*
X113716498Y-75427075D01*
X113995075Y-75148498D01*
X114321349Y-74930489D01*
X114322645Y-74929623D01*
X114322647Y-74929622D01*
X114686623Y-74778858D01*
X115073016Y-74702000D01*
X115466984Y-74702000D01*
X115853377Y-74778858D01*
X115853377Y-74778858D01*
G37*
G36*
X126830711Y-73611088D02*
G01*
X126830714Y-73611089D01*
X126830713Y-73611089D01*
X127200513Y-73764265D01*
X127533325Y-73986643D01*
X127816357Y-74269675D01*
X128011346Y-74561496D01*
X128038736Y-74602489D01*
X128191912Y-74972289D01*
X128270000Y-75364864D01*
X128270000Y-75765136D01*
X128191912Y-76157711D01*
X128174598Y-76199510D01*
X128038735Y-76527513D01*
X127816357Y-76860325D01*
X127533325Y-77143357D01*
X127200513Y-77365735D01*
X127200512Y-77365736D01*
X127200511Y-77365736D01*
X126830711Y-77518912D01*
X126438136Y-77597000D01*
X126037864Y-77597000D01*
X125645289Y-77518912D01*
X125275489Y-77365736D01*
X125275488Y-77365736D01*
X125275487Y-77365735D01*
X124942675Y-77143357D01*
X124659643Y-76860325D01*
X124437265Y-76527513D01*
X124301402Y-76199510D01*
X124284088Y-76157711D01*
X124206000Y-75765136D01*
X124206000Y-75364864D01*
X124284088Y-74972289D01*
X124437264Y-74602489D01*
X124464655Y-74561496D01*
X124659643Y-74269675D01*
X124942675Y-73986643D01*
X125275487Y-73764265D01*
X125645287Y-73611089D01*
X125645286Y-73611089D01*
X125645289Y-73611088D01*
X126037864Y-73533000D01*
X126438136Y-73533000D01*
X126830711Y-73611088D01*
X126830711Y-73611088D01*
G37*
G36*
X156887294Y-74561496D02*
G01*
X157007726Y-74598029D01*
X157050087Y-74610879D01*
X157200107Y-74691066D01*
X157200110Y-74691068D01*
X157200111Y-74691069D01*
X157331612Y-74798988D01*
X157439531Y-74930488D01*
X157439533Y-74930492D01*
X157439534Y-74930493D01*
X157519721Y-75080513D01*
X157519722Y-75080516D01*
X157569104Y-75243305D01*
X157569104Y-75243307D01*
X157581600Y-75370179D01*
X157581600Y-75759820D01*
X157581076Y-75765136D01*
X157569104Y-75886694D01*
X157532571Y-76007128D01*
X157519721Y-76049488D01*
X157482767Y-76118623D01*
X157439531Y-76199512D01*
X157331612Y-76331012D01*
X157200112Y-76438931D01*
X157200108Y-76438933D01*
X157200107Y-76438934D01*
X157050087Y-76519121D01*
X157050084Y-76519122D01*
X156887295Y-76568504D01*
X156718000Y-76585178D01*
X156548706Y-76568504D01*
X156385917Y-76519122D01*
X156385914Y-76519121D01*
X156235894Y-76438934D01*
X156235893Y-76438933D01*
X156235889Y-76438931D01*
X156104388Y-76331012D01*
X155996469Y-76199512D01*
X155953233Y-76118623D01*
X155916279Y-76049487D01*
X155916278Y-76049484D01*
X155866896Y-75886695D01*
X155858565Y-75802112D01*
X155854400Y-75759821D01*
X155854400Y-75370180D01*
X155866896Y-75243308D01*
X155866896Y-75243306D01*
X155916278Y-75080517D01*
X155916279Y-75080513D01*
X155996466Y-74930493D01*
X155997181Y-74929622D01*
X156104388Y-74798988D01*
X156235888Y-74691069D01*
X156235892Y-74691067D01*
X156235893Y-74691066D01*
X156385913Y-74610879D01*
X156413571Y-74602489D01*
X156548705Y-74561496D01*
X156718000Y-74544822D01*
X156887294Y-74561496D01*
X156887294Y-74561496D01*
G37*
G36*
X147743294Y-74561496D02*
G01*
X147863726Y-74598029D01*
X147906087Y-74610879D01*
X148056107Y-74691066D01*
X148056110Y-74691068D01*
X148056111Y-74691069D01*
X148187612Y-74798988D01*
X148295531Y-74930488D01*
X148295533Y-74930492D01*
X148295534Y-74930493D01*
X148375721Y-75080513D01*
X148375722Y-75080516D01*
X148425104Y-75243305D01*
X148425104Y-75243307D01*
X148437600Y-75370179D01*
X148437600Y-75759820D01*
X148437076Y-75765136D01*
X148425104Y-75886694D01*
X148388571Y-76007128D01*
X148375721Y-76049488D01*
X148338767Y-76118623D01*
X148295531Y-76199512D01*
X148187612Y-76331012D01*
X148056112Y-76438931D01*
X148056108Y-76438933D01*
X148056107Y-76438934D01*
X147906087Y-76519121D01*
X147906084Y-76519122D01*
X147743295Y-76568504D01*
X147574000Y-76585178D01*
X147404706Y-76568504D01*
X147241917Y-76519122D01*
X147241914Y-76519121D01*
X147091894Y-76438934D01*
X147091893Y-76438933D01*
X147091889Y-76438931D01*
X146960388Y-76331012D01*
X146852469Y-76199512D01*
X146809233Y-76118623D01*
X146772279Y-76049487D01*
X146772278Y-76049484D01*
X146722896Y-75886695D01*
X146714565Y-75802112D01*
X146710400Y-75759821D01*
X146710400Y-75370180D01*
X146722896Y-75243308D01*
X146722896Y-75243306D01*
X146772278Y-75080517D01*
X146772279Y-75080513D01*
X146852466Y-74930493D01*
X146853181Y-74929622D01*
X146960388Y-74798988D01*
X147091888Y-74691069D01*
X147091892Y-74691067D01*
X147091893Y-74691066D01*
X147241913Y-74610879D01*
X147269571Y-74602489D01*
X147404705Y-74561496D01*
X147574000Y-74544822D01*
X147743294Y-74561496D01*
X147743294Y-74561496D01*
G37*
G36*
X150283294Y-74561496D02*
G01*
X150403726Y-74598029D01*
X150446087Y-74610879D01*
X150596107Y-74691066D01*
X150596110Y-74691068D01*
X150596111Y-74691069D01*
X150727612Y-74798988D01*
X150835531Y-74930488D01*
X150835533Y-74930492D01*
X150835534Y-74930493D01*
X150915721Y-75080513D01*
X150915722Y-75080516D01*
X150965104Y-75243305D01*
X150965104Y-75243307D01*
X150977600Y-75370179D01*
X150977600Y-75759820D01*
X150977076Y-75765136D01*
X150965104Y-75886694D01*
X150928571Y-76007128D01*
X150915721Y-76049488D01*
X150878767Y-76118623D01*
X150835531Y-76199512D01*
X150727612Y-76331012D01*
X150596112Y-76438931D01*
X150596108Y-76438933D01*
X150596107Y-76438934D01*
X150446087Y-76519121D01*
X150446084Y-76519122D01*
X150283295Y-76568504D01*
X150114000Y-76585178D01*
X149944706Y-76568504D01*
X149781917Y-76519122D01*
X149781914Y-76519121D01*
X149631894Y-76438934D01*
X149631893Y-76438933D01*
X149631889Y-76438931D01*
X149500388Y-76331012D01*
X149392469Y-76199512D01*
X149349233Y-76118623D01*
X149312279Y-76049487D01*
X149312278Y-76049484D01*
X149262896Y-75886695D01*
X149254565Y-75802112D01*
X149250400Y-75759821D01*
X149250400Y-75370180D01*
X149262896Y-75243308D01*
X149262896Y-75243306D01*
X149312278Y-75080517D01*
X149312279Y-75080513D01*
X149392466Y-74930493D01*
X149393181Y-74929622D01*
X149500388Y-74798988D01*
X149631888Y-74691069D01*
X149631892Y-74691067D01*
X149631893Y-74691066D01*
X149781913Y-74610879D01*
X149809571Y-74602489D01*
X149944705Y-74561496D01*
X150114000Y-74544822D01*
X150283294Y-74561496D01*
X150283294Y-74561496D01*
G37*
G36*
X174667294Y-74561496D02*
G01*
X174787726Y-74598029D01*
X174830087Y-74610879D01*
X174980107Y-74691066D01*
X174980110Y-74691068D01*
X174980111Y-74691069D01*
X175111612Y-74798988D01*
X175219531Y-74930488D01*
X175219533Y-74930492D01*
X175219534Y-74930493D01*
X175299721Y-75080513D01*
X175299722Y-75080516D01*
X175349104Y-75243305D01*
X175349104Y-75243307D01*
X175361600Y-75370179D01*
X175361600Y-75759820D01*
X175361076Y-75765136D01*
X175349104Y-75886694D01*
X175312571Y-76007128D01*
X175299721Y-76049488D01*
X175262767Y-76118623D01*
X175219531Y-76199512D01*
X175111612Y-76331012D01*
X174980112Y-76438931D01*
X174980108Y-76438933D01*
X174980107Y-76438934D01*
X174830087Y-76519121D01*
X174830084Y-76519122D01*
X174667295Y-76568504D01*
X174498000Y-76585178D01*
X174328706Y-76568504D01*
X174165917Y-76519122D01*
X174165914Y-76519121D01*
X174015894Y-76438934D01*
X174015893Y-76438933D01*
X174015889Y-76438931D01*
X173884388Y-76331012D01*
X173776469Y-76199512D01*
X173733233Y-76118623D01*
X173696279Y-76049487D01*
X173696278Y-76049484D01*
X173646896Y-75886695D01*
X173638565Y-75802112D01*
X173634400Y-75759821D01*
X173634400Y-75370180D01*
X173646896Y-75243308D01*
X173646896Y-75243306D01*
X173696278Y-75080517D01*
X173696279Y-75080513D01*
X173776466Y-74930493D01*
X173777181Y-74929622D01*
X173884388Y-74798988D01*
X174015888Y-74691069D01*
X174015892Y-74691067D01*
X174015893Y-74691066D01*
X174165913Y-74610879D01*
X174193571Y-74602489D01*
X174328705Y-74561496D01*
X174498000Y-74544822D01*
X174667294Y-74561496D01*
X174667294Y-74561496D01*
G37*
G36*
X172127294Y-74561496D02*
G01*
X172247726Y-74598029D01*
X172290087Y-74610879D01*
X172440107Y-74691066D01*
X172440110Y-74691068D01*
X172440111Y-74691069D01*
X172571612Y-74798988D01*
X172679531Y-74930488D01*
X172679533Y-74930492D01*
X172679534Y-74930493D01*
X172759721Y-75080513D01*
X172759722Y-75080516D01*
X172809104Y-75243305D01*
X172809104Y-75243307D01*
X172821600Y-75370179D01*
X172821600Y-75759820D01*
X172821076Y-75765136D01*
X172809104Y-75886694D01*
X172772571Y-76007128D01*
X172759721Y-76049488D01*
X172722767Y-76118623D01*
X172679531Y-76199512D01*
X172571612Y-76331012D01*
X172440112Y-76438931D01*
X172440108Y-76438933D01*
X172440107Y-76438934D01*
X172290087Y-76519121D01*
X172290084Y-76519122D01*
X172127295Y-76568504D01*
X171958000Y-76585178D01*
X171788706Y-76568504D01*
X171625917Y-76519122D01*
X171625914Y-76519121D01*
X171475894Y-76438934D01*
X171475893Y-76438933D01*
X171475889Y-76438931D01*
X171344388Y-76331012D01*
X171236469Y-76199512D01*
X171193233Y-76118623D01*
X171156279Y-76049487D01*
X171156278Y-76049484D01*
X171106896Y-75886695D01*
X171098565Y-75802112D01*
X171094400Y-75759821D01*
X171094400Y-75370180D01*
X171106896Y-75243308D01*
X171106896Y-75243306D01*
X171156278Y-75080517D01*
X171156279Y-75080513D01*
X171236466Y-74930493D01*
X171237181Y-74929622D01*
X171344388Y-74798988D01*
X171475888Y-74691069D01*
X171475892Y-74691067D01*
X171475893Y-74691066D01*
X171625913Y-74610879D01*
X171653571Y-74602489D01*
X171788705Y-74561496D01*
X171958000Y-74544822D01*
X172127294Y-74561496D01*
X172127294Y-74561496D01*
G37*
G36*
X169587294Y-74561496D02*
G01*
X169707726Y-74598029D01*
X169750087Y-74610879D01*
X169900107Y-74691066D01*
X169900110Y-74691068D01*
X169900111Y-74691069D01*
X170031612Y-74798988D01*
X170139531Y-74930488D01*
X170139533Y-74930492D01*
X170139534Y-74930493D01*
X170219721Y-75080513D01*
X170219722Y-75080516D01*
X170269104Y-75243305D01*
X170269104Y-75243307D01*
X170281600Y-75370179D01*
X170281600Y-75759820D01*
X170281076Y-75765136D01*
X170269104Y-75886694D01*
X170232571Y-76007128D01*
X170219721Y-76049488D01*
X170182767Y-76118623D01*
X170139531Y-76199512D01*
X170031612Y-76331012D01*
X169900112Y-76438931D01*
X169900108Y-76438933D01*
X169900107Y-76438934D01*
X169750087Y-76519121D01*
X169750084Y-76519122D01*
X169587295Y-76568504D01*
X169418000Y-76585178D01*
X169248706Y-76568504D01*
X169085917Y-76519122D01*
X169085914Y-76519121D01*
X168935894Y-76438934D01*
X168935893Y-76438933D01*
X168935889Y-76438931D01*
X168804388Y-76331012D01*
X168696469Y-76199512D01*
X168653233Y-76118623D01*
X168616279Y-76049487D01*
X168616278Y-76049484D01*
X168566896Y-75886695D01*
X168558565Y-75802112D01*
X168554400Y-75759821D01*
X168554400Y-75370180D01*
X168566896Y-75243308D01*
X168566896Y-75243306D01*
X168616278Y-75080517D01*
X168616279Y-75080513D01*
X168696466Y-74930493D01*
X168697181Y-74929622D01*
X168804388Y-74798988D01*
X168935888Y-74691069D01*
X168935892Y-74691067D01*
X168935893Y-74691066D01*
X169085913Y-74610879D01*
X169113571Y-74602489D01*
X169248705Y-74561496D01*
X169418000Y-74544822D01*
X169587294Y-74561496D01*
X169587294Y-74561496D01*
G37*
G36*
X167047294Y-74561496D02*
G01*
X167167726Y-74598029D01*
X167210087Y-74610879D01*
X167360107Y-74691066D01*
X167360110Y-74691068D01*
X167360111Y-74691069D01*
X167491612Y-74798988D01*
X167599531Y-74930488D01*
X167599533Y-74930492D01*
X167599534Y-74930493D01*
X167679721Y-75080513D01*
X167679722Y-75080516D01*
X167729104Y-75243305D01*
X167729104Y-75243307D01*
X167741600Y-75370179D01*
X167741600Y-75759820D01*
X167741076Y-75765136D01*
X167729104Y-75886694D01*
X167692571Y-76007128D01*
X167679721Y-76049488D01*
X167642767Y-76118623D01*
X167599531Y-76199512D01*
X167491612Y-76331012D01*
X167360112Y-76438931D01*
X167360108Y-76438933D01*
X167360107Y-76438934D01*
X167210087Y-76519121D01*
X167210084Y-76519122D01*
X167047295Y-76568504D01*
X166878000Y-76585178D01*
X166708706Y-76568504D01*
X166545917Y-76519122D01*
X166545914Y-76519121D01*
X166395894Y-76438934D01*
X166395893Y-76438933D01*
X166395889Y-76438931D01*
X166264388Y-76331012D01*
X166156469Y-76199512D01*
X166113233Y-76118623D01*
X166076279Y-76049487D01*
X166076278Y-76049484D01*
X166026896Y-75886695D01*
X166018565Y-75802112D01*
X166014400Y-75759821D01*
X166014400Y-75370180D01*
X166026896Y-75243308D01*
X166026896Y-75243306D01*
X166076278Y-75080517D01*
X166076279Y-75080513D01*
X166156466Y-74930493D01*
X166157181Y-74929622D01*
X166264388Y-74798988D01*
X166395888Y-74691069D01*
X166395892Y-74691067D01*
X166395893Y-74691066D01*
X166545913Y-74610879D01*
X166573571Y-74602489D01*
X166708705Y-74561496D01*
X166878000Y-74544822D01*
X167047294Y-74561496D01*
X167047294Y-74561496D01*
G37*
G36*
X164507294Y-74561496D02*
G01*
X164627726Y-74598029D01*
X164670087Y-74610879D01*
X164820107Y-74691066D01*
X164820110Y-74691068D01*
X164820111Y-74691069D01*
X164951612Y-74798988D01*
X165059531Y-74930488D01*
X165059533Y-74930492D01*
X165059534Y-74930493D01*
X165139721Y-75080513D01*
X165139722Y-75080516D01*
X165189104Y-75243305D01*
X165189104Y-75243307D01*
X165201600Y-75370179D01*
X165201600Y-75759820D01*
X165201076Y-75765136D01*
X165189104Y-75886694D01*
X165152571Y-76007128D01*
X165139721Y-76049488D01*
X165102767Y-76118623D01*
X165059531Y-76199512D01*
X164951612Y-76331012D01*
X164820112Y-76438931D01*
X164820108Y-76438933D01*
X164820107Y-76438934D01*
X164670087Y-76519121D01*
X164670084Y-76519122D01*
X164507295Y-76568504D01*
X164338000Y-76585178D01*
X164168706Y-76568504D01*
X164005917Y-76519122D01*
X164005914Y-76519121D01*
X163855894Y-76438934D01*
X163855893Y-76438933D01*
X163855889Y-76438931D01*
X163724388Y-76331012D01*
X163616469Y-76199512D01*
X163573233Y-76118623D01*
X163536279Y-76049487D01*
X163536278Y-76049484D01*
X163486896Y-75886695D01*
X163478565Y-75802112D01*
X163474400Y-75759821D01*
X163474400Y-75370180D01*
X163486896Y-75243308D01*
X163486896Y-75243306D01*
X163536278Y-75080517D01*
X163536279Y-75080513D01*
X163616466Y-74930493D01*
X163617181Y-74929622D01*
X163724388Y-74798988D01*
X163855888Y-74691069D01*
X163855892Y-74691067D01*
X163855893Y-74691066D01*
X164005913Y-74610879D01*
X164033571Y-74602489D01*
X164168705Y-74561496D01*
X164338000Y-74544822D01*
X164507294Y-74561496D01*
X164507294Y-74561496D01*
G37*
G36*
X161967294Y-74561496D02*
G01*
X162087726Y-74598029D01*
X162130087Y-74610879D01*
X162280107Y-74691066D01*
X162280110Y-74691068D01*
X162280111Y-74691069D01*
X162411612Y-74798988D01*
X162519531Y-74930488D01*
X162519533Y-74930492D01*
X162519534Y-74930493D01*
X162599721Y-75080513D01*
X162599722Y-75080516D01*
X162649104Y-75243305D01*
X162649104Y-75243307D01*
X162661600Y-75370179D01*
X162661600Y-75759820D01*
X162661076Y-75765136D01*
X162649104Y-75886694D01*
X162612571Y-76007128D01*
X162599721Y-76049488D01*
X162562767Y-76118623D01*
X162519531Y-76199512D01*
X162411612Y-76331012D01*
X162280112Y-76438931D01*
X162280108Y-76438933D01*
X162280107Y-76438934D01*
X162130087Y-76519121D01*
X162130084Y-76519122D01*
X161967295Y-76568504D01*
X161798000Y-76585178D01*
X161628706Y-76568504D01*
X161465917Y-76519122D01*
X161465914Y-76519121D01*
X161315894Y-76438934D01*
X161315893Y-76438933D01*
X161315889Y-76438931D01*
X161184388Y-76331012D01*
X161076469Y-76199512D01*
X161033233Y-76118623D01*
X160996279Y-76049487D01*
X160996278Y-76049484D01*
X160946896Y-75886695D01*
X160938565Y-75802112D01*
X160934400Y-75759821D01*
X160934400Y-75370180D01*
X160946896Y-75243308D01*
X160946896Y-75243306D01*
X160996278Y-75080517D01*
X160996279Y-75080513D01*
X161076466Y-74930493D01*
X161077181Y-74929622D01*
X161184388Y-74798988D01*
X161315888Y-74691069D01*
X161315892Y-74691067D01*
X161315893Y-74691066D01*
X161465913Y-74610879D01*
X161493571Y-74602489D01*
X161628705Y-74561496D01*
X161798000Y-74544822D01*
X161967294Y-74561496D01*
X161967294Y-74561496D01*
G37*
G36*
X145203294Y-74561496D02*
G01*
X145323726Y-74598029D01*
X145366087Y-74610879D01*
X145516107Y-74691066D01*
X145516110Y-74691068D01*
X145516111Y-74691069D01*
X145647612Y-74798988D01*
X145755531Y-74930488D01*
X145755533Y-74930492D01*
X145755534Y-74930493D01*
X145835721Y-75080513D01*
X145835722Y-75080516D01*
X145885104Y-75243305D01*
X145885104Y-75243307D01*
X145897600Y-75370179D01*
X145897600Y-75759820D01*
X145897076Y-75765136D01*
X145885104Y-75886694D01*
X145848571Y-76007128D01*
X145835721Y-76049488D01*
X145798767Y-76118623D01*
X145755531Y-76199512D01*
X145647612Y-76331012D01*
X145516112Y-76438931D01*
X145516108Y-76438933D01*
X145516107Y-76438934D01*
X145366087Y-76519121D01*
X145366084Y-76519122D01*
X145203295Y-76568504D01*
X145034000Y-76585178D01*
X144864706Y-76568504D01*
X144701917Y-76519122D01*
X144701914Y-76519121D01*
X144551894Y-76438934D01*
X144551893Y-76438933D01*
X144551889Y-76438931D01*
X144420388Y-76331012D01*
X144312469Y-76199512D01*
X144269233Y-76118623D01*
X144232279Y-76049487D01*
X144232278Y-76049484D01*
X144182896Y-75886695D01*
X144174565Y-75802112D01*
X144170400Y-75759821D01*
X144170400Y-75370180D01*
X144182896Y-75243308D01*
X144182896Y-75243306D01*
X144232278Y-75080517D01*
X144232279Y-75080513D01*
X144312466Y-74930493D01*
X144313181Y-74929622D01*
X144420388Y-74798988D01*
X144551888Y-74691069D01*
X144551892Y-74691067D01*
X144551893Y-74691066D01*
X144701913Y-74610879D01*
X144729571Y-74602489D01*
X144864705Y-74561496D01*
X145034000Y-74544822D01*
X145203294Y-74561496D01*
X145203294Y-74561496D01*
G37*
G36*
X152823294Y-74561496D02*
G01*
X152943726Y-74598029D01*
X152986087Y-74610879D01*
X153136107Y-74691066D01*
X153136110Y-74691068D01*
X153136111Y-74691069D01*
X153267612Y-74798988D01*
X153375531Y-74930488D01*
X153375533Y-74930492D01*
X153375534Y-74930493D01*
X153455721Y-75080513D01*
X153455722Y-75080516D01*
X153505104Y-75243305D01*
X153505104Y-75243307D01*
X153517600Y-75370179D01*
X153517600Y-75759820D01*
X153517076Y-75765136D01*
X153505104Y-75886694D01*
X153468571Y-76007128D01*
X153455721Y-76049488D01*
X153418767Y-76118623D01*
X153375531Y-76199512D01*
X153267612Y-76331012D01*
X153136112Y-76438931D01*
X153136108Y-76438933D01*
X153136107Y-76438934D01*
X152986087Y-76519121D01*
X152986084Y-76519122D01*
X152823295Y-76568504D01*
X152654000Y-76585178D01*
X152484706Y-76568504D01*
X152321917Y-76519122D01*
X152321914Y-76519121D01*
X152171894Y-76438934D01*
X152171893Y-76438933D01*
X152171889Y-76438931D01*
X152040388Y-76331012D01*
X151932469Y-76199512D01*
X151889233Y-76118623D01*
X151852279Y-76049487D01*
X151852278Y-76049484D01*
X151802896Y-75886695D01*
X151794565Y-75802112D01*
X151790400Y-75759821D01*
X151790400Y-75370180D01*
X151802896Y-75243308D01*
X151802896Y-75243306D01*
X151852278Y-75080517D01*
X151852279Y-75080513D01*
X151932466Y-74930493D01*
X151933181Y-74929622D01*
X152040388Y-74798988D01*
X152171888Y-74691069D01*
X152171892Y-74691067D01*
X152171893Y-74691066D01*
X152321913Y-74610879D01*
X152349571Y-74602489D01*
X152484705Y-74561496D01*
X152654000Y-74544822D01*
X152823294Y-74561496D01*
X152823294Y-74561496D01*
G37*
G36*
X129963294Y-74561496D02*
G01*
X130083726Y-74598029D01*
X130126087Y-74610879D01*
X130276107Y-74691066D01*
X130276110Y-74691068D01*
X130276111Y-74691069D01*
X130407612Y-74798988D01*
X130515531Y-74930488D01*
X130515533Y-74930492D01*
X130515534Y-74930493D01*
X130595721Y-75080513D01*
X130595722Y-75080516D01*
X130645104Y-75243305D01*
X130645104Y-75243307D01*
X130657600Y-75370179D01*
X130657600Y-75759820D01*
X130657076Y-75765136D01*
X130645104Y-75886694D01*
X130608571Y-76007128D01*
X130595721Y-76049488D01*
X130558767Y-76118623D01*
X130515531Y-76199512D01*
X130407612Y-76331012D01*
X130276112Y-76438931D01*
X130276108Y-76438933D01*
X130276107Y-76438934D01*
X130126087Y-76519121D01*
X130126084Y-76519122D01*
X129963295Y-76568504D01*
X129794000Y-76585178D01*
X129624706Y-76568504D01*
X129461917Y-76519122D01*
X129461914Y-76519121D01*
X129311894Y-76438934D01*
X129311893Y-76438933D01*
X129311889Y-76438931D01*
X129180388Y-76331012D01*
X129072469Y-76199512D01*
X129029233Y-76118623D01*
X128992279Y-76049487D01*
X128992278Y-76049484D01*
X128942896Y-75886695D01*
X128934565Y-75802112D01*
X128930400Y-75759821D01*
X128930400Y-75370180D01*
X128942896Y-75243308D01*
X128942896Y-75243306D01*
X128992278Y-75080517D01*
X128992279Y-75080513D01*
X129072466Y-74930493D01*
X129073181Y-74929622D01*
X129180388Y-74798988D01*
X129311888Y-74691069D01*
X129311892Y-74691067D01*
X129311893Y-74691066D01*
X129461913Y-74610879D01*
X129489571Y-74602489D01*
X129624705Y-74561496D01*
X129794000Y-74544822D01*
X129963294Y-74561496D01*
X129963294Y-74561496D01*
G37*
G36*
X137583294Y-74561496D02*
G01*
X137703726Y-74598029D01*
X137746087Y-74610879D01*
X137896107Y-74691066D01*
X137896110Y-74691068D01*
X137896111Y-74691069D01*
X138027612Y-74798988D01*
X138135531Y-74930488D01*
X138135533Y-74930492D01*
X138135534Y-74930493D01*
X138215721Y-75080513D01*
X138215722Y-75080516D01*
X138265104Y-75243305D01*
X138265104Y-75243307D01*
X138277600Y-75370179D01*
X138277600Y-75759820D01*
X138277076Y-75765136D01*
X138265104Y-75886694D01*
X138228571Y-76007128D01*
X138215721Y-76049488D01*
X138178767Y-76118623D01*
X138135531Y-76199512D01*
X138027612Y-76331012D01*
X137896112Y-76438931D01*
X137896108Y-76438933D01*
X137896107Y-76438934D01*
X137746087Y-76519121D01*
X137746084Y-76519122D01*
X137583295Y-76568504D01*
X137414000Y-76585178D01*
X137244706Y-76568504D01*
X137081917Y-76519122D01*
X137081914Y-76519121D01*
X136931894Y-76438934D01*
X136931893Y-76438933D01*
X136931889Y-76438931D01*
X136800388Y-76331012D01*
X136692469Y-76199512D01*
X136649233Y-76118623D01*
X136612279Y-76049487D01*
X136612278Y-76049484D01*
X136562896Y-75886695D01*
X136554565Y-75802112D01*
X136550400Y-75759821D01*
X136550400Y-75370180D01*
X136562896Y-75243308D01*
X136562896Y-75243306D01*
X136612278Y-75080517D01*
X136612279Y-75080513D01*
X136692466Y-74930493D01*
X136693181Y-74929622D01*
X136800388Y-74798988D01*
X136931888Y-74691069D01*
X136931892Y-74691067D01*
X136931893Y-74691066D01*
X137081913Y-74610879D01*
X137109571Y-74602489D01*
X137244705Y-74561496D01*
X137414000Y-74544822D01*
X137583294Y-74561496D01*
X137583294Y-74561496D01*
G37*
G36*
X140123294Y-74561496D02*
G01*
X140243726Y-74598029D01*
X140286087Y-74610879D01*
X140436107Y-74691066D01*
X140436110Y-74691068D01*
X140436111Y-74691069D01*
X140567612Y-74798988D01*
X140675531Y-74930488D01*
X140675533Y-74930492D01*
X140675534Y-74930493D01*
X140755721Y-75080513D01*
X140755722Y-75080516D01*
X140805104Y-75243305D01*
X140805104Y-75243307D01*
X140817600Y-75370179D01*
X140817600Y-75759820D01*
X140817076Y-75765136D01*
X140805104Y-75886694D01*
X140768571Y-76007128D01*
X140755721Y-76049488D01*
X140718767Y-76118623D01*
X140675531Y-76199512D01*
X140567612Y-76331012D01*
X140436112Y-76438931D01*
X140436108Y-76438933D01*
X140436107Y-76438934D01*
X140286087Y-76519121D01*
X140286084Y-76519122D01*
X140123295Y-76568504D01*
X139954000Y-76585178D01*
X139784706Y-76568504D01*
X139621917Y-76519122D01*
X139621914Y-76519121D01*
X139471894Y-76438934D01*
X139471893Y-76438933D01*
X139471889Y-76438931D01*
X139340388Y-76331012D01*
X139232469Y-76199512D01*
X139189233Y-76118623D01*
X139152279Y-76049487D01*
X139152278Y-76049484D01*
X139102896Y-75886695D01*
X139094565Y-75802112D01*
X139090400Y-75759821D01*
X139090400Y-75370180D01*
X139102896Y-75243308D01*
X139102896Y-75243306D01*
X139152278Y-75080517D01*
X139152279Y-75080513D01*
X139232466Y-74930493D01*
X139233181Y-74929622D01*
X139340388Y-74798988D01*
X139471888Y-74691069D01*
X139471892Y-74691067D01*
X139471893Y-74691066D01*
X139621913Y-74610879D01*
X139649571Y-74602489D01*
X139784705Y-74561496D01*
X139954000Y-74544822D01*
X140123294Y-74561496D01*
X140123294Y-74561496D01*
G37*
G36*
X142663294Y-74561496D02*
G01*
X142783726Y-74598029D01*
X142826087Y-74610879D01*
X142976107Y-74691066D01*
X142976110Y-74691068D01*
X142976111Y-74691069D01*
X143107612Y-74798988D01*
X143215531Y-74930488D01*
X143215533Y-74930492D01*
X143215534Y-74930493D01*
X143295721Y-75080513D01*
X143295722Y-75080516D01*
X143345104Y-75243305D01*
X143345104Y-75243307D01*
X143357600Y-75370179D01*
X143357600Y-75759820D01*
X143357076Y-75765136D01*
X143345104Y-75886694D01*
X143308571Y-76007128D01*
X143295721Y-76049488D01*
X143258767Y-76118623D01*
X143215531Y-76199512D01*
X143107612Y-76331012D01*
X142976112Y-76438931D01*
X142976108Y-76438933D01*
X142976107Y-76438934D01*
X142826087Y-76519121D01*
X142826084Y-76519122D01*
X142663295Y-76568504D01*
X142494000Y-76585178D01*
X142324706Y-76568504D01*
X142161917Y-76519122D01*
X142161914Y-76519121D01*
X142011894Y-76438934D01*
X142011893Y-76438933D01*
X142011889Y-76438931D01*
X141880388Y-76331012D01*
X141772469Y-76199512D01*
X141729233Y-76118623D01*
X141692279Y-76049487D01*
X141692278Y-76049484D01*
X141642896Y-75886695D01*
X141634565Y-75802112D01*
X141630400Y-75759821D01*
X141630400Y-75370180D01*
X141642896Y-75243308D01*
X141642896Y-75243306D01*
X141692278Y-75080517D01*
X141692279Y-75080513D01*
X141772466Y-74930493D01*
X141773181Y-74929622D01*
X141880388Y-74798988D01*
X142011888Y-74691069D01*
X142011892Y-74691067D01*
X142011893Y-74691066D01*
X142161913Y-74610879D01*
X142189571Y-74602489D01*
X142324705Y-74561496D01*
X142494000Y-74544822D01*
X142663294Y-74561496D01*
X142663294Y-74561496D01*
G37*
G36*
X132503294Y-74561496D02*
G01*
X132623726Y-74598029D01*
X132666087Y-74610879D01*
X132816107Y-74691066D01*
X132816110Y-74691068D01*
X132816111Y-74691069D01*
X132947612Y-74798988D01*
X133055531Y-74930488D01*
X133055533Y-74930492D01*
X133055534Y-74930493D01*
X133135721Y-75080513D01*
X133135722Y-75080516D01*
X133185104Y-75243305D01*
X133185104Y-75243307D01*
X133197600Y-75370179D01*
X133197600Y-75759820D01*
X133197076Y-75765136D01*
X133185104Y-75886694D01*
X133148571Y-76007128D01*
X133135721Y-76049488D01*
X133098767Y-76118623D01*
X133055531Y-76199512D01*
X132947612Y-76331012D01*
X132816112Y-76438931D01*
X132816108Y-76438933D01*
X132816107Y-76438934D01*
X132666087Y-76519121D01*
X132666084Y-76519122D01*
X132503295Y-76568504D01*
X132334000Y-76585178D01*
X132164706Y-76568504D01*
X132001917Y-76519122D01*
X132001914Y-76519121D01*
X131851894Y-76438934D01*
X131851893Y-76438933D01*
X131851889Y-76438931D01*
X131720388Y-76331012D01*
X131612469Y-76199512D01*
X131569233Y-76118623D01*
X131532279Y-76049487D01*
X131532278Y-76049484D01*
X131482896Y-75886695D01*
X131474565Y-75802112D01*
X131470400Y-75759821D01*
X131470400Y-75370180D01*
X131482896Y-75243308D01*
X131482896Y-75243306D01*
X131532278Y-75080517D01*
X131532279Y-75080513D01*
X131612466Y-74930493D01*
X131613181Y-74929622D01*
X131720388Y-74798988D01*
X131851888Y-74691069D01*
X131851892Y-74691067D01*
X131851893Y-74691066D01*
X132001913Y-74610879D01*
X132029571Y-74602489D01*
X132164705Y-74561496D01*
X132334000Y-74544822D01*
X132503294Y-74561496D01*
X132503294Y-74561496D01*
G37*
G36*
X135043294Y-74561496D02*
G01*
X135163726Y-74598029D01*
X135206087Y-74610879D01*
X135356107Y-74691066D01*
X135356110Y-74691068D01*
X135356111Y-74691069D01*
X135487612Y-74798988D01*
X135595531Y-74930488D01*
X135595533Y-74930492D01*
X135595534Y-74930493D01*
X135675721Y-75080513D01*
X135675722Y-75080516D01*
X135725104Y-75243305D01*
X135725104Y-75243307D01*
X135737600Y-75370179D01*
X135737600Y-75759820D01*
X135737076Y-75765136D01*
X135725104Y-75886694D01*
X135688571Y-76007128D01*
X135675721Y-76049488D01*
X135638767Y-76118623D01*
X135595531Y-76199512D01*
X135487612Y-76331012D01*
X135356112Y-76438931D01*
X135356108Y-76438933D01*
X135356107Y-76438934D01*
X135206087Y-76519121D01*
X135206084Y-76519122D01*
X135043295Y-76568504D01*
X134874000Y-76585178D01*
X134704706Y-76568504D01*
X134541917Y-76519122D01*
X134541914Y-76519121D01*
X134391894Y-76438934D01*
X134391893Y-76438933D01*
X134391889Y-76438931D01*
X134260388Y-76331012D01*
X134152469Y-76199512D01*
X134109233Y-76118623D01*
X134072279Y-76049487D01*
X134072278Y-76049484D01*
X134022896Y-75886695D01*
X134014565Y-75802112D01*
X134010400Y-75759821D01*
X134010400Y-75370180D01*
X134022896Y-75243308D01*
X134022896Y-75243306D01*
X134072278Y-75080517D01*
X134072279Y-75080513D01*
X134152466Y-74930493D01*
X134153181Y-74929622D01*
X134260388Y-74798988D01*
X134391888Y-74691069D01*
X134391892Y-74691067D01*
X134391893Y-74691066D01*
X134541913Y-74610879D01*
X134569571Y-74602489D01*
X134704705Y-74561496D01*
X134874000Y-74544822D01*
X135043294Y-74561496D01*
X135043294Y-74561496D01*
G37*
G36*
X159427294Y-74561496D02*
G01*
X159547726Y-74598029D01*
X159590087Y-74610879D01*
X159740107Y-74691066D01*
X159740110Y-74691068D01*
X159740111Y-74691069D01*
X159871612Y-74798988D01*
X159979531Y-74930488D01*
X159979533Y-74930492D01*
X159979534Y-74930493D01*
X160059721Y-75080513D01*
X160059722Y-75080516D01*
X160109104Y-75243305D01*
X160109104Y-75243307D01*
X160121600Y-75370179D01*
X160121600Y-75759820D01*
X160121076Y-75765136D01*
X160109104Y-75886694D01*
X160072571Y-76007128D01*
X160059721Y-76049488D01*
X160022767Y-76118623D01*
X159979531Y-76199512D01*
X159871612Y-76331012D01*
X159740112Y-76438931D01*
X159740108Y-76438933D01*
X159740107Y-76438934D01*
X159590087Y-76519121D01*
X159590084Y-76519122D01*
X159427295Y-76568504D01*
X159258000Y-76585178D01*
X159088706Y-76568504D01*
X158925917Y-76519122D01*
X158925914Y-76519121D01*
X158775894Y-76438934D01*
X158775893Y-76438933D01*
X158775889Y-76438931D01*
X158644388Y-76331012D01*
X158536469Y-76199512D01*
X158493233Y-76118623D01*
X158456279Y-76049487D01*
X158456278Y-76049484D01*
X158406896Y-75886695D01*
X158398565Y-75802112D01*
X158394400Y-75759821D01*
X158394400Y-75370180D01*
X158406896Y-75243308D01*
X158406896Y-75243306D01*
X158456278Y-75080517D01*
X158456279Y-75080513D01*
X158536466Y-74930493D01*
X158537181Y-74929622D01*
X158644388Y-74798988D01*
X158775888Y-74691069D01*
X158775892Y-74691067D01*
X158775893Y-74691066D01*
X158925913Y-74610879D01*
X158953571Y-74602489D01*
X159088705Y-74561496D01*
X159258000Y-74544822D01*
X159427294Y-74561496D01*
X159427294Y-74561496D01*
G37*
M02*
