M48
; DRILL file {KiCad (5.1.4)-1} date 2019/10/3 星期四 22:04:08
; FORMAT={-:-/ absolute / inch / decimal}
; #@! TF.CreationDate,2019-10-03T22:04:08+08:00
; #@! TF.GenerationSoftware,Kicad,Pcbnew,(5.1.4)-1
; #@! TF.FileFunction,Plated,1,2,PTH
FMAT,2
INCH
T1C0.0157
T2C0.0236
T3C0.0295
T4C0.0315
T5C0.0335
T6C0.0354
T7C0.0394
T8C0.0400
T9C0.0433
T10C0.1200
T11C0.1260
%
G90
G05
T1
X4.72Y-3.3025
X4.72Y-3.4025
X4.72Y-3.5025
X4.72Y-3.6025
X4.7675Y-3.35
X4.7675Y-3.45
X4.7675Y-3.55
X4.7675Y-3.65
X4.82Y-3.3025
X4.82Y-3.4025
X4.82Y-3.5025
X4.82Y-3.6025
X4.8675Y-3.35
X4.8675Y-3.45
X4.8675Y-3.55
X4.8675Y-3.65
X4.92Y-3.3025
X4.92Y-3.4025
X4.92Y-3.5025
X4.92Y-3.6025
X4.9675Y-3.35
X4.9675Y-3.45
X4.9675Y-3.55
X4.9675Y-3.65
X5.02Y-3.3025
X5.02Y-3.4025
X5.02Y-3.5025
X5.02Y-3.6025
X5.0675Y-3.35
X5.0675Y-3.45
X5.0675Y-3.55
X5.0675Y-3.65
X5.2445Y-3.6044
X5.2781Y-3.6136
X5.5049Y-3.8319
X5.6383Y-3.6733
X6.2046Y-3.8132
X6.4544Y-4.0676
X6.7894Y-3.9536
T2
X4.985Y-4.13
X4.985Y-4.1891
X4.785Y-4.13
X4.785Y-4.1891
X5.1Y-4.31
X5.1591Y-4.31
T3
X4.96Y-4.515
X5.01Y-4.515
X5.06Y-4.515
X5.2Y-4.515
X5.25Y-4.515
X5.3Y-4.515
T4
X5.18Y-3.287
X5.58Y-3.287
X6.79Y-3.13
X6.79Y-3.53
X6.6599Y-3.13
X6.6599Y-3.53
X6.6008Y-4.355
X6.6008Y-4.755
X5.9692Y-4.536
X6.2645Y-4.536
X6.5298Y-3.13
X6.5298Y-3.53
X5.18Y-3.139
X5.58Y-3.139
X6.0334Y-3.8234
X6.1318Y-3.8234
X6.77Y-4.355
X6.77Y-4.755
X5.7381Y-3.8234
X5.8365Y-3.8234
X6.2696Y-3.13
X6.2696Y-3.53
X4.755Y-3.985
X5.0503Y-3.985
X5.47Y-4.7268
X5.87Y-4.7268
X6.3997Y-3.13
X6.3997Y-3.53
X5.47Y-4.5458
X5.87Y-4.5458
X5.37Y-3.925
X5.37Y-4.225
X5.47Y-3.925
X5.47Y-4.225
X5.57Y-3.925
X5.57Y-4.225
X5.67Y-3.925
X5.67Y-4.225
X5.77Y-3.925
X5.77Y-4.225
X5.87Y-3.925
X5.87Y-4.225
X5.97Y-3.925
X5.97Y-4.225
X6.07Y-3.925
X6.07Y-4.225
X6.17Y-3.925
X6.17Y-4.225
X6.27Y-3.925
X6.27Y-4.225
X6.37Y-3.925
X6.37Y-4.225
X6.47Y-3.925
X6.47Y-4.225
X6.57Y-3.925
X6.57Y-4.225
X6.67Y-3.925
X6.67Y-4.225
X5.8405Y-3.7152
X6.0334Y-3.7152
X5.18Y-3.435
X5.58Y-3.435
X5.9692Y-4.715
X6.2645Y-4.715
X5.47Y-4.355
X5.87Y-4.355
X5.9692Y-4.357
X6.2645Y-4.357
T5
X6.41Y-4.3581
X6.41Y-4.7519
T6
X5.3871Y-3.565
X5.3871Y-3.665
X5.58Y-3.565
X5.58Y-3.665
X5.1941Y-3.565
X5.1941Y-3.665
X5.1Y-4.875
X5.2Y-4.875
T7
X6.66Y-3.7
X6.66Y-3.8
X4.4382Y-3.3483
X4.4382Y-3.4574
X4.4382Y-3.5664
X4.4382Y-3.6755
X4.55Y-3.2938
X4.55Y-3.4028
X4.55Y-3.5119
X4.55Y-3.6209
X4.55Y-3.73
X6.875Y-3.775
X6.875Y-3.875
X6.875Y-3.975
X6.975Y-3.775
X6.975Y-3.875
X6.975Y-3.975
X4.465Y-4.385
X4.565Y-4.385
X4.665Y-4.385
T8
X5.47Y-4.875
X5.57Y-4.875
X5.67Y-4.875
X5.77Y-4.875
X5.87Y-4.875
X5.97Y-4.875
X6.07Y-4.875
X6.17Y-4.875
X6.37Y-4.875
X6.47Y-4.875
X6.57Y-4.875
X6.67Y-4.875
X6.77Y-4.875
X6.87Y-4.875
X5.11Y-2.975
X5.21Y-2.975
X5.31Y-2.975
X5.41Y-2.975
X5.51Y-2.975
X5.61Y-2.975
X5.71Y-2.975
X5.81Y-2.975
X5.91Y-2.975
X6.01Y-2.975
X6.17Y-2.975
X6.27Y-2.975
X6.37Y-2.975
X6.47Y-2.975
X6.57Y-2.975
X6.67Y-2.975
X6.77Y-2.975
X6.87Y-2.975
T9
X4.955Y-4.715
X5.355Y-4.715
X6.2641Y-3.6378
X6.2641Y-3.815
X6.52Y-3.6378
X6.52Y-3.815
X4.79Y-3.855
X4.89Y-3.855
X4.99Y-3.855
T10
X4.97Y-2.975
X6.97Y-4.675
X6.97Y-3.575
X4.92Y-4.875
T11
X4.5382Y-3.0198
X4.5382Y-4.004
T7
G00X4.5488Y-4.6356
M15
G01X4.5488Y-4.7144
M16
G05
G00X4.6275Y-4.86
M15
G01X4.7063Y-4.86
M16
G05
G00X4.785Y-4.6356
M15
G01X4.785Y-4.7144
M16
G05
T0
M30
