G04 #@! TF.GenerationSoftware,KiCad,Pcbnew,(5.1.4)-1*
G04 #@! TF.CreationDate,2019-10-04T17:51:03+08:00*
G04 #@! TF.ProjectId,arduino-sss,61726475-696e-46f2-9d73-73732e6b6963,rev?*
G04 #@! TF.SameCoordinates,Original*
G04 #@! TF.FileFunction,Soldermask,Top*
G04 #@! TF.FilePolarity,Negative*
%FSLAX46Y46*%
G04 Gerber Fmt 4.6, Leading zero omitted, Abs format (unit mm)*
G04 Created by KiCad (PCBNEW (5.1.4)-1) date 2019-10-04 17:51:03*
%MOMM*%
%LPD*%
G04 APERTURE LIST*
%ADD10C,0.100000*%
G04 APERTURE END LIST*
D10*
G36*
X125560711Y-121871088D02*
G01*
X125930511Y-122024264D01*
X125930513Y-122024265D01*
X126019727Y-122083876D01*
X126263324Y-122246642D01*
X126546358Y-122529676D01*
X126656792Y-122694953D01*
X126741346Y-122821496D01*
X126768736Y-122862489D01*
X126921912Y-123232289D01*
X127000000Y-123624864D01*
X127000000Y-124025136D01*
X126921912Y-124417711D01*
X126904598Y-124459510D01*
X126768735Y-124787513D01*
X126546357Y-125120325D01*
X126263325Y-125403357D01*
X125930513Y-125625735D01*
X125930512Y-125625736D01*
X125930511Y-125625736D01*
X125560711Y-125778912D01*
X125168136Y-125857000D01*
X124767864Y-125857000D01*
X124375289Y-125778912D01*
X124005489Y-125625736D01*
X124005488Y-125625736D01*
X124005487Y-125625735D01*
X123672675Y-125403357D01*
X123389643Y-125120325D01*
X123167265Y-124787513D01*
X123031402Y-124459510D01*
X123014088Y-124417711D01*
X122936000Y-124025136D01*
X122936000Y-123624864D01*
X123014088Y-123232289D01*
X123167264Y-122862489D01*
X123194655Y-122821496D01*
X123279208Y-122694953D01*
X123389642Y-122529676D01*
X123672676Y-122246642D01*
X123916273Y-122083876D01*
X124005487Y-122024265D01*
X124005489Y-122024264D01*
X124375289Y-121871088D01*
X124767864Y-121793000D01*
X125168136Y-121793000D01*
X125560711Y-121871088D01*
X125560711Y-121871088D01*
G37*
G36*
X119634891Y-121711205D02*
G01*
X119787202Y-121757408D01*
X119927565Y-121832433D01*
X120050597Y-121933403D01*
X120151567Y-122056435D01*
X120226592Y-122196798D01*
X120272795Y-122349109D01*
X120289000Y-122513640D01*
X120289000Y-124376360D01*
X120272795Y-124540891D01*
X120226592Y-124693202D01*
X120151567Y-124833565D01*
X120050597Y-124956597D01*
X119927565Y-125057567D01*
X119787202Y-125132592D01*
X119634891Y-125178795D01*
X119470360Y-125195000D01*
X117607640Y-125195000D01*
X117443109Y-125178795D01*
X117290798Y-125132592D01*
X117150435Y-125057567D01*
X117027403Y-124956597D01*
X116926433Y-124833565D01*
X116851408Y-124693202D01*
X116805205Y-124540891D01*
X116789000Y-124376360D01*
X116789000Y-122513640D01*
X116805205Y-122349109D01*
X116851408Y-122196798D01*
X116926433Y-122056435D01*
X117027403Y-121933403D01*
X117150435Y-121832433D01*
X117290798Y-121757408D01*
X117443109Y-121711205D01*
X117607640Y-121695000D01*
X119470360Y-121695000D01*
X119634891Y-121711205D01*
X119634891Y-121711205D01*
G37*
G36*
X161967294Y-122821496D02*
G01*
X162087726Y-122858029D01*
X162130087Y-122870879D01*
X162280107Y-122951066D01*
X162280110Y-122951068D01*
X162280111Y-122951069D01*
X162411612Y-123058988D01*
X162519531Y-123190488D01*
X162519533Y-123190492D01*
X162519534Y-123190493D01*
X162599721Y-123340513D01*
X162599722Y-123340516D01*
X162649104Y-123503305D01*
X162649104Y-123503307D01*
X162661600Y-123630179D01*
X162661600Y-124019820D01*
X162661076Y-124025136D01*
X162649104Y-124146694D01*
X162617369Y-124251310D01*
X162599721Y-124309488D01*
X162541874Y-124417711D01*
X162519531Y-124459512D01*
X162411612Y-124591012D01*
X162280112Y-124698931D01*
X162280108Y-124698933D01*
X162280107Y-124698934D01*
X162130087Y-124779121D01*
X162130084Y-124779122D01*
X161967295Y-124828504D01*
X161798000Y-124845178D01*
X161628706Y-124828504D01*
X161465917Y-124779122D01*
X161465914Y-124779121D01*
X161315894Y-124698934D01*
X161315893Y-124698933D01*
X161315889Y-124698931D01*
X161184388Y-124591012D01*
X161076469Y-124459512D01*
X161054126Y-124417711D01*
X160996279Y-124309487D01*
X160978631Y-124251310D01*
X160946896Y-124146695D01*
X160938565Y-124062112D01*
X160934400Y-124019821D01*
X160934400Y-123630180D01*
X160946896Y-123503308D01*
X160946896Y-123503306D01*
X160996278Y-123340517D01*
X160996279Y-123340513D01*
X161076466Y-123190493D01*
X161076470Y-123190488D01*
X161184388Y-123058988D01*
X161315888Y-122951069D01*
X161315892Y-122951067D01*
X161315893Y-122951066D01*
X161465913Y-122870879D01*
X161493571Y-122862489D01*
X161628705Y-122821496D01*
X161798000Y-122804822D01*
X161967294Y-122821496D01*
X161967294Y-122821496D01*
G37*
G36*
X144187294Y-122821496D02*
G01*
X144307726Y-122858029D01*
X144350087Y-122870879D01*
X144500107Y-122951066D01*
X144500110Y-122951068D01*
X144500111Y-122951069D01*
X144631612Y-123058988D01*
X144739531Y-123190488D01*
X144739533Y-123190492D01*
X144739534Y-123190493D01*
X144819721Y-123340513D01*
X144819722Y-123340516D01*
X144869104Y-123503305D01*
X144869104Y-123503307D01*
X144881600Y-123630179D01*
X144881600Y-124019820D01*
X144881076Y-124025136D01*
X144869104Y-124146694D01*
X144837369Y-124251310D01*
X144819721Y-124309488D01*
X144761874Y-124417711D01*
X144739531Y-124459512D01*
X144631612Y-124591012D01*
X144500112Y-124698931D01*
X144500108Y-124698933D01*
X144500107Y-124698934D01*
X144350087Y-124779121D01*
X144350084Y-124779122D01*
X144187295Y-124828504D01*
X144018000Y-124845178D01*
X143848706Y-124828504D01*
X143685917Y-124779122D01*
X143685914Y-124779121D01*
X143535894Y-124698934D01*
X143535893Y-124698933D01*
X143535889Y-124698931D01*
X143404388Y-124591012D01*
X143296469Y-124459512D01*
X143274126Y-124417711D01*
X143216279Y-124309487D01*
X143198631Y-124251310D01*
X143166896Y-124146695D01*
X143158565Y-124062112D01*
X143154400Y-124019821D01*
X143154400Y-123630180D01*
X143166896Y-123503308D01*
X143166896Y-123503306D01*
X143216278Y-123340517D01*
X143216279Y-123340513D01*
X143296466Y-123190493D01*
X143296470Y-123190488D01*
X143404388Y-123058988D01*
X143535888Y-122951069D01*
X143535892Y-122951067D01*
X143535893Y-122951066D01*
X143685913Y-122870879D01*
X143713571Y-122862489D01*
X143848705Y-122821496D01*
X144018000Y-122804822D01*
X144187294Y-122821496D01*
X144187294Y-122821496D01*
G37*
G36*
X146727294Y-122821496D02*
G01*
X146847726Y-122858029D01*
X146890087Y-122870879D01*
X147040107Y-122951066D01*
X147040110Y-122951068D01*
X147040111Y-122951069D01*
X147171612Y-123058988D01*
X147279531Y-123190488D01*
X147279533Y-123190492D01*
X147279534Y-123190493D01*
X147359721Y-123340513D01*
X147359722Y-123340516D01*
X147409104Y-123503305D01*
X147409104Y-123503307D01*
X147421600Y-123630179D01*
X147421600Y-124019820D01*
X147421076Y-124025136D01*
X147409104Y-124146694D01*
X147377369Y-124251310D01*
X147359721Y-124309488D01*
X147301874Y-124417711D01*
X147279531Y-124459512D01*
X147171612Y-124591012D01*
X147040112Y-124698931D01*
X147040108Y-124698933D01*
X147040107Y-124698934D01*
X146890087Y-124779121D01*
X146890084Y-124779122D01*
X146727295Y-124828504D01*
X146558000Y-124845178D01*
X146388706Y-124828504D01*
X146225917Y-124779122D01*
X146225914Y-124779121D01*
X146075894Y-124698934D01*
X146075893Y-124698933D01*
X146075889Y-124698931D01*
X145944388Y-124591012D01*
X145836469Y-124459512D01*
X145814126Y-124417711D01*
X145756279Y-124309487D01*
X145738631Y-124251310D01*
X145706896Y-124146695D01*
X145698565Y-124062112D01*
X145694400Y-124019821D01*
X145694400Y-123630180D01*
X145706896Y-123503308D01*
X145706896Y-123503306D01*
X145756278Y-123340517D01*
X145756279Y-123340513D01*
X145836466Y-123190493D01*
X145836470Y-123190488D01*
X145944388Y-123058988D01*
X146075888Y-122951069D01*
X146075892Y-122951067D01*
X146075893Y-122951066D01*
X146225913Y-122870879D01*
X146253571Y-122862489D01*
X146388705Y-122821496D01*
X146558000Y-122804822D01*
X146727294Y-122821496D01*
X146727294Y-122821496D01*
G37*
G36*
X149267294Y-122821496D02*
G01*
X149387726Y-122858029D01*
X149430087Y-122870879D01*
X149580107Y-122951066D01*
X149580110Y-122951068D01*
X149580111Y-122951069D01*
X149711612Y-123058988D01*
X149819531Y-123190488D01*
X149819533Y-123190492D01*
X149819534Y-123190493D01*
X149899721Y-123340513D01*
X149899722Y-123340516D01*
X149949104Y-123503305D01*
X149949104Y-123503307D01*
X149961600Y-123630179D01*
X149961600Y-124019820D01*
X149961076Y-124025136D01*
X149949104Y-124146694D01*
X149917369Y-124251310D01*
X149899721Y-124309488D01*
X149841874Y-124417711D01*
X149819531Y-124459512D01*
X149711612Y-124591012D01*
X149580112Y-124698931D01*
X149580108Y-124698933D01*
X149580107Y-124698934D01*
X149430087Y-124779121D01*
X149430084Y-124779122D01*
X149267295Y-124828504D01*
X149098000Y-124845178D01*
X148928706Y-124828504D01*
X148765917Y-124779122D01*
X148765914Y-124779121D01*
X148615894Y-124698934D01*
X148615893Y-124698933D01*
X148615889Y-124698931D01*
X148484388Y-124591012D01*
X148376469Y-124459512D01*
X148354126Y-124417711D01*
X148296279Y-124309487D01*
X148278631Y-124251310D01*
X148246896Y-124146695D01*
X148238565Y-124062112D01*
X148234400Y-124019821D01*
X148234400Y-123630180D01*
X148246896Y-123503308D01*
X148246896Y-123503306D01*
X148296278Y-123340517D01*
X148296279Y-123340513D01*
X148376466Y-123190493D01*
X148376470Y-123190488D01*
X148484388Y-123058988D01*
X148615888Y-122951069D01*
X148615892Y-122951067D01*
X148615893Y-122951066D01*
X148765913Y-122870879D01*
X148793571Y-122862489D01*
X148928705Y-122821496D01*
X149098000Y-122804822D01*
X149267294Y-122821496D01*
X149267294Y-122821496D01*
G37*
G36*
X151807294Y-122821496D02*
G01*
X151927726Y-122858029D01*
X151970087Y-122870879D01*
X152120107Y-122951066D01*
X152120110Y-122951068D01*
X152120111Y-122951069D01*
X152251612Y-123058988D01*
X152359531Y-123190488D01*
X152359533Y-123190492D01*
X152359534Y-123190493D01*
X152439721Y-123340513D01*
X152439722Y-123340516D01*
X152489104Y-123503305D01*
X152489104Y-123503307D01*
X152501600Y-123630179D01*
X152501600Y-124019820D01*
X152501076Y-124025136D01*
X152489104Y-124146694D01*
X152457369Y-124251310D01*
X152439721Y-124309488D01*
X152381874Y-124417711D01*
X152359531Y-124459512D01*
X152251612Y-124591012D01*
X152120112Y-124698931D01*
X152120108Y-124698933D01*
X152120107Y-124698934D01*
X151970087Y-124779121D01*
X151970084Y-124779122D01*
X151807295Y-124828504D01*
X151638000Y-124845178D01*
X151468706Y-124828504D01*
X151305917Y-124779122D01*
X151305914Y-124779121D01*
X151155894Y-124698934D01*
X151155893Y-124698933D01*
X151155889Y-124698931D01*
X151024388Y-124591012D01*
X150916469Y-124459512D01*
X150894126Y-124417711D01*
X150836279Y-124309487D01*
X150818631Y-124251310D01*
X150786896Y-124146695D01*
X150778565Y-124062112D01*
X150774400Y-124019821D01*
X150774400Y-123630180D01*
X150786896Y-123503308D01*
X150786896Y-123503306D01*
X150836278Y-123340517D01*
X150836279Y-123340513D01*
X150916466Y-123190493D01*
X150916470Y-123190488D01*
X151024388Y-123058988D01*
X151155888Y-122951069D01*
X151155892Y-122951067D01*
X151155893Y-122951066D01*
X151305913Y-122870879D01*
X151333571Y-122862489D01*
X151468705Y-122821496D01*
X151638000Y-122804822D01*
X151807294Y-122821496D01*
X151807294Y-122821496D01*
G37*
G36*
X154347294Y-122821496D02*
G01*
X154467726Y-122858029D01*
X154510087Y-122870879D01*
X154660107Y-122951066D01*
X154660110Y-122951068D01*
X154660111Y-122951069D01*
X154791612Y-123058988D01*
X154899531Y-123190488D01*
X154899533Y-123190492D01*
X154899534Y-123190493D01*
X154979721Y-123340513D01*
X154979722Y-123340516D01*
X155029104Y-123503305D01*
X155029104Y-123503307D01*
X155041600Y-123630179D01*
X155041600Y-124019820D01*
X155041076Y-124025136D01*
X155029104Y-124146694D01*
X154997369Y-124251310D01*
X154979721Y-124309488D01*
X154921874Y-124417711D01*
X154899531Y-124459512D01*
X154791612Y-124591012D01*
X154660112Y-124698931D01*
X154660108Y-124698933D01*
X154660107Y-124698934D01*
X154510087Y-124779121D01*
X154510084Y-124779122D01*
X154347295Y-124828504D01*
X154178000Y-124845178D01*
X154008706Y-124828504D01*
X153845917Y-124779122D01*
X153845914Y-124779121D01*
X153695894Y-124698934D01*
X153695893Y-124698933D01*
X153695889Y-124698931D01*
X153564388Y-124591012D01*
X153456469Y-124459512D01*
X153434126Y-124417711D01*
X153376279Y-124309487D01*
X153358631Y-124251310D01*
X153326896Y-124146695D01*
X153318565Y-124062112D01*
X153314400Y-124019821D01*
X153314400Y-123630180D01*
X153326896Y-123503308D01*
X153326896Y-123503306D01*
X153376278Y-123340517D01*
X153376279Y-123340513D01*
X153456466Y-123190493D01*
X153456470Y-123190488D01*
X153564388Y-123058988D01*
X153695888Y-122951069D01*
X153695892Y-122951067D01*
X153695893Y-122951066D01*
X153845913Y-122870879D01*
X153873571Y-122862489D01*
X154008705Y-122821496D01*
X154178000Y-122804822D01*
X154347294Y-122821496D01*
X154347294Y-122821496D01*
G37*
G36*
X156887294Y-122821496D02*
G01*
X157007726Y-122858029D01*
X157050087Y-122870879D01*
X157200107Y-122951066D01*
X157200110Y-122951068D01*
X157200111Y-122951069D01*
X157331612Y-123058988D01*
X157439531Y-123190488D01*
X157439533Y-123190492D01*
X157439534Y-123190493D01*
X157519721Y-123340513D01*
X157519722Y-123340516D01*
X157569104Y-123503305D01*
X157569104Y-123503307D01*
X157581600Y-123630179D01*
X157581600Y-124019820D01*
X157581076Y-124025136D01*
X157569104Y-124146694D01*
X157537369Y-124251310D01*
X157519721Y-124309488D01*
X157461874Y-124417711D01*
X157439531Y-124459512D01*
X157331612Y-124591012D01*
X157200112Y-124698931D01*
X157200108Y-124698933D01*
X157200107Y-124698934D01*
X157050087Y-124779121D01*
X157050084Y-124779122D01*
X156887295Y-124828504D01*
X156718000Y-124845178D01*
X156548706Y-124828504D01*
X156385917Y-124779122D01*
X156385914Y-124779121D01*
X156235894Y-124698934D01*
X156235893Y-124698933D01*
X156235889Y-124698931D01*
X156104388Y-124591012D01*
X155996469Y-124459512D01*
X155974126Y-124417711D01*
X155916279Y-124309487D01*
X155898631Y-124251310D01*
X155866896Y-124146695D01*
X155858565Y-124062112D01*
X155854400Y-124019821D01*
X155854400Y-123630180D01*
X155866896Y-123503308D01*
X155866896Y-123503306D01*
X155916278Y-123340517D01*
X155916279Y-123340513D01*
X155996466Y-123190493D01*
X155996470Y-123190488D01*
X156104388Y-123058988D01*
X156235888Y-122951069D01*
X156235892Y-122951067D01*
X156235893Y-122951066D01*
X156385913Y-122870879D01*
X156413571Y-122862489D01*
X156548705Y-122821496D01*
X156718000Y-122804822D01*
X156887294Y-122821496D01*
X156887294Y-122821496D01*
G37*
G36*
X164507294Y-122821496D02*
G01*
X164627726Y-122858029D01*
X164670087Y-122870879D01*
X164820107Y-122951066D01*
X164820110Y-122951068D01*
X164820111Y-122951069D01*
X164951612Y-123058988D01*
X165059531Y-123190488D01*
X165059533Y-123190492D01*
X165059534Y-123190493D01*
X165139721Y-123340513D01*
X165139722Y-123340516D01*
X165189104Y-123503305D01*
X165189104Y-123503307D01*
X165201600Y-123630179D01*
X165201600Y-124019820D01*
X165201076Y-124025136D01*
X165189104Y-124146694D01*
X165157369Y-124251310D01*
X165139721Y-124309488D01*
X165081874Y-124417711D01*
X165059531Y-124459512D01*
X164951612Y-124591012D01*
X164820112Y-124698931D01*
X164820108Y-124698933D01*
X164820107Y-124698934D01*
X164670087Y-124779121D01*
X164670084Y-124779122D01*
X164507295Y-124828504D01*
X164338000Y-124845178D01*
X164168706Y-124828504D01*
X164005917Y-124779122D01*
X164005914Y-124779121D01*
X163855894Y-124698934D01*
X163855893Y-124698933D01*
X163855889Y-124698931D01*
X163724388Y-124591012D01*
X163616469Y-124459512D01*
X163594126Y-124417711D01*
X163536279Y-124309487D01*
X163518631Y-124251310D01*
X163486896Y-124146695D01*
X163478565Y-124062112D01*
X163474400Y-124019821D01*
X163474400Y-123630180D01*
X163486896Y-123503308D01*
X163486896Y-123503306D01*
X163536278Y-123340517D01*
X163536279Y-123340513D01*
X163616466Y-123190493D01*
X163616470Y-123190488D01*
X163724388Y-123058988D01*
X163855888Y-122951069D01*
X163855892Y-122951067D01*
X163855893Y-122951066D01*
X164005913Y-122870879D01*
X164033571Y-122862489D01*
X164168705Y-122821496D01*
X164338000Y-122804822D01*
X164507294Y-122821496D01*
X164507294Y-122821496D01*
G37*
G36*
X167047294Y-122821496D02*
G01*
X167167726Y-122858029D01*
X167210087Y-122870879D01*
X167360107Y-122951066D01*
X167360110Y-122951068D01*
X167360111Y-122951069D01*
X167491612Y-123058988D01*
X167599531Y-123190488D01*
X167599533Y-123190492D01*
X167599534Y-123190493D01*
X167679721Y-123340513D01*
X167679722Y-123340516D01*
X167729104Y-123503305D01*
X167729104Y-123503307D01*
X167741600Y-123630179D01*
X167741600Y-124019820D01*
X167741076Y-124025136D01*
X167729104Y-124146694D01*
X167697369Y-124251310D01*
X167679721Y-124309488D01*
X167621874Y-124417711D01*
X167599531Y-124459512D01*
X167491612Y-124591012D01*
X167360112Y-124698931D01*
X167360108Y-124698933D01*
X167360107Y-124698934D01*
X167210087Y-124779121D01*
X167210084Y-124779122D01*
X167047295Y-124828504D01*
X166878000Y-124845178D01*
X166708706Y-124828504D01*
X166545917Y-124779122D01*
X166545914Y-124779121D01*
X166395894Y-124698934D01*
X166395893Y-124698933D01*
X166395889Y-124698931D01*
X166264388Y-124591012D01*
X166156469Y-124459512D01*
X166134126Y-124417711D01*
X166076279Y-124309487D01*
X166058631Y-124251310D01*
X166026896Y-124146695D01*
X166018565Y-124062112D01*
X166014400Y-124019821D01*
X166014400Y-123630180D01*
X166026896Y-123503308D01*
X166026896Y-123503306D01*
X166076278Y-123340517D01*
X166076279Y-123340513D01*
X166156466Y-123190493D01*
X166156470Y-123190488D01*
X166264388Y-123058988D01*
X166395888Y-122951069D01*
X166395892Y-122951067D01*
X166395893Y-122951066D01*
X166545913Y-122870879D01*
X166573571Y-122862489D01*
X166708705Y-122821496D01*
X166878000Y-122804822D01*
X167047294Y-122821496D01*
X167047294Y-122821496D01*
G37*
G36*
X169587294Y-122821496D02*
G01*
X169707726Y-122858029D01*
X169750087Y-122870879D01*
X169900107Y-122951066D01*
X169900110Y-122951068D01*
X169900111Y-122951069D01*
X170031612Y-123058988D01*
X170139531Y-123190488D01*
X170139533Y-123190492D01*
X170139534Y-123190493D01*
X170219721Y-123340513D01*
X170219722Y-123340516D01*
X170269104Y-123503305D01*
X170269104Y-123503307D01*
X170281600Y-123630179D01*
X170281600Y-124019820D01*
X170281076Y-124025136D01*
X170269104Y-124146694D01*
X170237369Y-124251310D01*
X170219721Y-124309488D01*
X170161874Y-124417711D01*
X170139531Y-124459512D01*
X170031612Y-124591012D01*
X169900112Y-124698931D01*
X169900108Y-124698933D01*
X169900107Y-124698934D01*
X169750087Y-124779121D01*
X169750084Y-124779122D01*
X169587295Y-124828504D01*
X169418000Y-124845178D01*
X169248706Y-124828504D01*
X169085917Y-124779122D01*
X169085914Y-124779121D01*
X168935894Y-124698934D01*
X168935893Y-124698933D01*
X168935889Y-124698931D01*
X168804388Y-124591012D01*
X168696469Y-124459512D01*
X168674126Y-124417711D01*
X168616279Y-124309487D01*
X168598631Y-124251310D01*
X168566896Y-124146695D01*
X168558565Y-124062112D01*
X168554400Y-124019821D01*
X168554400Y-123630180D01*
X168566896Y-123503308D01*
X168566896Y-123503306D01*
X168616278Y-123340517D01*
X168616279Y-123340513D01*
X168696466Y-123190493D01*
X168696470Y-123190488D01*
X168804388Y-123058988D01*
X168935888Y-122951069D01*
X168935892Y-122951067D01*
X168935893Y-122951066D01*
X169085913Y-122870879D01*
X169113571Y-122862489D01*
X169248705Y-122821496D01*
X169418000Y-122804822D01*
X169587294Y-122821496D01*
X169587294Y-122821496D01*
G37*
G36*
X141647294Y-122821496D02*
G01*
X141767726Y-122858029D01*
X141810087Y-122870879D01*
X141960107Y-122951066D01*
X141960110Y-122951068D01*
X141960111Y-122951069D01*
X142091612Y-123058988D01*
X142199531Y-123190488D01*
X142199533Y-123190492D01*
X142199534Y-123190493D01*
X142279721Y-123340513D01*
X142279722Y-123340516D01*
X142329104Y-123503305D01*
X142329104Y-123503307D01*
X142341600Y-123630179D01*
X142341600Y-124019820D01*
X142341076Y-124025136D01*
X142329104Y-124146694D01*
X142297369Y-124251310D01*
X142279721Y-124309488D01*
X142221874Y-124417711D01*
X142199531Y-124459512D01*
X142091612Y-124591012D01*
X141960112Y-124698931D01*
X141960108Y-124698933D01*
X141960107Y-124698934D01*
X141810087Y-124779121D01*
X141810084Y-124779122D01*
X141647295Y-124828504D01*
X141478000Y-124845178D01*
X141308706Y-124828504D01*
X141145917Y-124779122D01*
X141145914Y-124779121D01*
X140995894Y-124698934D01*
X140995893Y-124698933D01*
X140995889Y-124698931D01*
X140864388Y-124591012D01*
X140756469Y-124459512D01*
X140734126Y-124417711D01*
X140676279Y-124309487D01*
X140658631Y-124251310D01*
X140626896Y-124146695D01*
X140618565Y-124062112D01*
X140614400Y-124019821D01*
X140614400Y-123630180D01*
X140626896Y-123503308D01*
X140626896Y-123503306D01*
X140676278Y-123340517D01*
X140676279Y-123340513D01*
X140756466Y-123190493D01*
X140756470Y-123190488D01*
X140864388Y-123058988D01*
X140995888Y-122951069D01*
X140995892Y-122951067D01*
X140995893Y-122951066D01*
X141145913Y-122870879D01*
X141173571Y-122862489D01*
X141308705Y-122821496D01*
X141478000Y-122804822D01*
X141647294Y-122821496D01*
X141647294Y-122821496D01*
G37*
G36*
X172127294Y-122821496D02*
G01*
X172247726Y-122858029D01*
X172290087Y-122870879D01*
X172440107Y-122951066D01*
X172440110Y-122951068D01*
X172440111Y-122951069D01*
X172571612Y-123058988D01*
X172679531Y-123190488D01*
X172679533Y-123190492D01*
X172679534Y-123190493D01*
X172759721Y-123340513D01*
X172759722Y-123340516D01*
X172809104Y-123503305D01*
X172809104Y-123503307D01*
X172821600Y-123630179D01*
X172821600Y-124019820D01*
X172821076Y-124025136D01*
X172809104Y-124146694D01*
X172777369Y-124251310D01*
X172759721Y-124309488D01*
X172701874Y-124417711D01*
X172679531Y-124459512D01*
X172571612Y-124591012D01*
X172440112Y-124698931D01*
X172440108Y-124698933D01*
X172440107Y-124698934D01*
X172290087Y-124779121D01*
X172290084Y-124779122D01*
X172127295Y-124828504D01*
X171958000Y-124845178D01*
X171788706Y-124828504D01*
X171625917Y-124779122D01*
X171625914Y-124779121D01*
X171475894Y-124698934D01*
X171475893Y-124698933D01*
X171475889Y-124698931D01*
X171344388Y-124591012D01*
X171236469Y-124459512D01*
X171214126Y-124417711D01*
X171156279Y-124309487D01*
X171138631Y-124251310D01*
X171106896Y-124146695D01*
X171098565Y-124062112D01*
X171094400Y-124019821D01*
X171094400Y-123630180D01*
X171106896Y-123503308D01*
X171106896Y-123503306D01*
X171156278Y-123340517D01*
X171156279Y-123340513D01*
X171236466Y-123190493D01*
X171236470Y-123190488D01*
X171344388Y-123058988D01*
X171475888Y-122951069D01*
X171475892Y-122951067D01*
X171475893Y-122951066D01*
X171625913Y-122870879D01*
X171653571Y-122862489D01*
X171788705Y-122821496D01*
X171958000Y-122804822D01*
X172127294Y-122821496D01*
X172127294Y-122821496D01*
G37*
G36*
X174667294Y-122821496D02*
G01*
X174787726Y-122858029D01*
X174830087Y-122870879D01*
X174980107Y-122951066D01*
X174980110Y-122951068D01*
X174980111Y-122951069D01*
X175111612Y-123058988D01*
X175219531Y-123190488D01*
X175219533Y-123190492D01*
X175219534Y-123190493D01*
X175299721Y-123340513D01*
X175299722Y-123340516D01*
X175349104Y-123503305D01*
X175349104Y-123503307D01*
X175361600Y-123630179D01*
X175361600Y-124019820D01*
X175361076Y-124025136D01*
X175349104Y-124146694D01*
X175317369Y-124251310D01*
X175299721Y-124309488D01*
X175241874Y-124417711D01*
X175219531Y-124459512D01*
X175111612Y-124591012D01*
X174980112Y-124698931D01*
X174980108Y-124698933D01*
X174980107Y-124698934D01*
X174830087Y-124779121D01*
X174830084Y-124779122D01*
X174667295Y-124828504D01*
X174498000Y-124845178D01*
X174328706Y-124828504D01*
X174165917Y-124779122D01*
X174165914Y-124779121D01*
X174015894Y-124698934D01*
X174015893Y-124698933D01*
X174015889Y-124698931D01*
X173884388Y-124591012D01*
X173776469Y-124459512D01*
X173754126Y-124417711D01*
X173696279Y-124309487D01*
X173678631Y-124251310D01*
X173646896Y-124146695D01*
X173638565Y-124062112D01*
X173634400Y-124019821D01*
X173634400Y-123630180D01*
X173646896Y-123503308D01*
X173646896Y-123503306D01*
X173696278Y-123340517D01*
X173696279Y-123340513D01*
X173776466Y-123190493D01*
X173776470Y-123190488D01*
X173884388Y-123058988D01*
X174015888Y-122951069D01*
X174015892Y-122951067D01*
X174015893Y-122951066D01*
X174165913Y-122870879D01*
X174193571Y-122862489D01*
X174328705Y-122821496D01*
X174498000Y-122804822D01*
X174667294Y-122821496D01*
X174667294Y-122821496D01*
G37*
G36*
X139107294Y-122821496D02*
G01*
X139227726Y-122858029D01*
X139270087Y-122870879D01*
X139420107Y-122951066D01*
X139420110Y-122951068D01*
X139420111Y-122951069D01*
X139551612Y-123058988D01*
X139659531Y-123190488D01*
X139659533Y-123190492D01*
X139659534Y-123190493D01*
X139739721Y-123340513D01*
X139739722Y-123340516D01*
X139789104Y-123503305D01*
X139789104Y-123503307D01*
X139801600Y-123630179D01*
X139801600Y-124019820D01*
X139801076Y-124025136D01*
X139789104Y-124146694D01*
X139757369Y-124251310D01*
X139739721Y-124309488D01*
X139681874Y-124417711D01*
X139659531Y-124459512D01*
X139551612Y-124591012D01*
X139420112Y-124698931D01*
X139420108Y-124698933D01*
X139420107Y-124698934D01*
X139270087Y-124779121D01*
X139270084Y-124779122D01*
X139107295Y-124828504D01*
X138938000Y-124845178D01*
X138768706Y-124828504D01*
X138605917Y-124779122D01*
X138605914Y-124779121D01*
X138455894Y-124698934D01*
X138455893Y-124698933D01*
X138455889Y-124698931D01*
X138324388Y-124591012D01*
X138216469Y-124459512D01*
X138194126Y-124417711D01*
X138136279Y-124309487D01*
X138118631Y-124251310D01*
X138086896Y-124146695D01*
X138078565Y-124062112D01*
X138074400Y-124019821D01*
X138074400Y-123630180D01*
X138086896Y-123503308D01*
X138086896Y-123503306D01*
X138136278Y-123340517D01*
X138136279Y-123340513D01*
X138216466Y-123190493D01*
X138216470Y-123190488D01*
X138324388Y-123058988D01*
X138455888Y-122951069D01*
X138455892Y-122951067D01*
X138455893Y-122951066D01*
X138605913Y-122870879D01*
X138633571Y-122862489D01*
X138768705Y-122821496D01*
X138938000Y-122804822D01*
X139107294Y-122821496D01*
X139107294Y-122821496D01*
G37*
G36*
X132299702Y-122951069D02*
G01*
X132342520Y-122959586D01*
X132506310Y-123027430D01*
X132653717Y-123125924D01*
X132779076Y-123251283D01*
X132838697Y-123340513D01*
X132877571Y-123398692D01*
X132945414Y-123562480D01*
X132980000Y-123736356D01*
X132980000Y-123913644D01*
X132958880Y-124019820D01*
X132945414Y-124087520D01*
X132877570Y-124251310D01*
X132779076Y-124398717D01*
X132653717Y-124524076D01*
X132506310Y-124622570D01*
X132506309Y-124622571D01*
X132506308Y-124622571D01*
X132342520Y-124690414D01*
X132168644Y-124725000D01*
X131991356Y-124725000D01*
X131817480Y-124690414D01*
X131653692Y-124622571D01*
X131653691Y-124622571D01*
X131653690Y-124622570D01*
X131506283Y-124524076D01*
X131380924Y-124398717D01*
X131282430Y-124251310D01*
X131214586Y-124087520D01*
X131201120Y-124019820D01*
X131180000Y-123913644D01*
X131180000Y-123736356D01*
X131214586Y-123562480D01*
X131282429Y-123398692D01*
X131321303Y-123340513D01*
X131380924Y-123251283D01*
X131506283Y-123125924D01*
X131653690Y-123027430D01*
X131817480Y-122959586D01*
X131860298Y-122951069D01*
X131991356Y-122925000D01*
X132168644Y-122925000D01*
X132299702Y-122951069D01*
X132299702Y-122951069D01*
G37*
G36*
X130440000Y-124725000D02*
G01*
X128640000Y-124725000D01*
X128640000Y-122925000D01*
X130440000Y-122925000D01*
X130440000Y-124725000D01*
X130440000Y-124725000D01*
G37*
G36*
X161455000Y-121006000D02*
G01*
X159855000Y-121006000D01*
X159855000Y-119406000D01*
X161455000Y-119406000D01*
X161455000Y-121006000D01*
X161455000Y-121006000D01*
G37*
G36*
X170893471Y-119409859D02*
G01*
X170971827Y-119417576D01*
X171122628Y-119463321D01*
X171122630Y-119463322D01*
X171261605Y-119537606D01*
X171383422Y-119637578D01*
X171483394Y-119759395D01*
X171505825Y-119801360D01*
X171557679Y-119898372D01*
X171603424Y-120049173D01*
X171618870Y-120206000D01*
X171603424Y-120362827D01*
X171557679Y-120513628D01*
X171557678Y-120513630D01*
X171483394Y-120652605D01*
X171383422Y-120774422D01*
X171261605Y-120874394D01*
X171122630Y-120948678D01*
X171122628Y-120948679D01*
X170971827Y-120994424D01*
X170893471Y-121002141D01*
X170854294Y-121006000D01*
X170775706Y-121006000D01*
X170736529Y-121002141D01*
X170658173Y-120994424D01*
X170507372Y-120948679D01*
X170507370Y-120948678D01*
X170368395Y-120874394D01*
X170246578Y-120774422D01*
X170146606Y-120652605D01*
X170072322Y-120513630D01*
X170072321Y-120513628D01*
X170026576Y-120362827D01*
X170011130Y-120206000D01*
X170026576Y-120049173D01*
X170072321Y-119898372D01*
X170124175Y-119801360D01*
X170146606Y-119759395D01*
X170246578Y-119637578D01*
X170368395Y-119537606D01*
X170507370Y-119463322D01*
X170507372Y-119463321D01*
X170658173Y-119417576D01*
X170736529Y-119409859D01*
X170775706Y-119406000D01*
X170854294Y-119406000D01*
X170893471Y-119409859D01*
X170893471Y-119409859D01*
G37*
G36*
X136995000Y-120861000D02*
G01*
X134795000Y-120861000D01*
X134795000Y-118661000D01*
X136995000Y-118661000D01*
X136995000Y-120861000D01*
X136995000Y-120861000D01*
G37*
G36*
X125869837Y-118668958D02*
G01*
X125950638Y-118676916D01*
X126104034Y-118723449D01*
X126157992Y-118739817D01*
X126349084Y-118841957D01*
X126516581Y-118979419D01*
X126654043Y-119146916D01*
X126756183Y-119338008D01*
X126756184Y-119338012D01*
X126819084Y-119545362D01*
X126840322Y-119761000D01*
X126819084Y-119976638D01*
X126790651Y-120070366D01*
X126756183Y-120183992D01*
X126654043Y-120375084D01*
X126516581Y-120542581D01*
X126349084Y-120680043D01*
X126157992Y-120782183D01*
X126104034Y-120798551D01*
X125950638Y-120845084D01*
X125869837Y-120853042D01*
X125789038Y-120861000D01*
X125680962Y-120861000D01*
X125600163Y-120853042D01*
X125519362Y-120845084D01*
X125365966Y-120798551D01*
X125312008Y-120782183D01*
X125120916Y-120680043D01*
X124953419Y-120542581D01*
X124815957Y-120375084D01*
X124713817Y-120183992D01*
X124679349Y-120070366D01*
X124650916Y-119976638D01*
X124629678Y-119761000D01*
X124650916Y-119545362D01*
X124713816Y-119338012D01*
X124713817Y-119338008D01*
X124815957Y-119146916D01*
X124953419Y-118979419D01*
X125120916Y-118841957D01*
X125312008Y-118739817D01*
X125365966Y-118723449D01*
X125519362Y-118676916D01*
X125600163Y-118668958D01*
X125680962Y-118661000D01*
X125789038Y-118661000D01*
X125869837Y-118668958D01*
X125869837Y-118668958D01*
G37*
G36*
X177630711Y-116791088D02*
G01*
X177630714Y-116791089D01*
X177630713Y-116791089D01*
X178000513Y-116944265D01*
X178076443Y-116995000D01*
X178333324Y-117166642D01*
X178616358Y-117449676D01*
X178838736Y-117782489D01*
X178991912Y-118152289D01*
X179070000Y-118544864D01*
X179070000Y-118945136D01*
X178991912Y-119337711D01*
X178991911Y-119337713D01*
X178838735Y-119707513D01*
X178802996Y-119761000D01*
X178658912Y-119976638D01*
X178616357Y-120040325D01*
X178333325Y-120323357D01*
X178000513Y-120545735D01*
X178000512Y-120545736D01*
X178000511Y-120545736D01*
X177630711Y-120698912D01*
X177238136Y-120777000D01*
X176837864Y-120777000D01*
X176445289Y-120698912D01*
X176075489Y-120545736D01*
X176075488Y-120545736D01*
X176075487Y-120545735D01*
X175742675Y-120323357D01*
X175459643Y-120040325D01*
X175417089Y-119976638D01*
X175273004Y-119761000D01*
X175237265Y-119707513D01*
X175084089Y-119337713D01*
X175084088Y-119337711D01*
X175006000Y-118945136D01*
X175006000Y-118544864D01*
X175084088Y-118152289D01*
X175237264Y-117782489D01*
X175459642Y-117449676D01*
X175742676Y-117166642D01*
X175999557Y-116995000D01*
X176075487Y-116944265D01*
X176445287Y-116791089D01*
X176445286Y-116791089D01*
X176445289Y-116791088D01*
X176837864Y-116713000D01*
X177238136Y-116713000D01*
X177630711Y-116791088D01*
X177630711Y-116791088D01*
G37*
G36*
X123289000Y-120495000D02*
G01*
X119789000Y-120495000D01*
X119789000Y-116995000D01*
X123289000Y-116995000D01*
X123289000Y-120495000D01*
X123289000Y-120495000D01*
G37*
G36*
X116485505Y-117008803D02*
G01*
X116614366Y-117047893D01*
X116733117Y-117111367D01*
X116837209Y-117196791D01*
X116922633Y-117300883D01*
X116986107Y-117419634D01*
X117025197Y-117548495D01*
X117039000Y-117688640D01*
X117039000Y-119801360D01*
X117025197Y-119941505D01*
X116986107Y-120070366D01*
X116922633Y-120189117D01*
X116837209Y-120293209D01*
X116733117Y-120378633D01*
X116614366Y-120442107D01*
X116485505Y-120481197D01*
X116345360Y-120495000D01*
X114732640Y-120495000D01*
X114592495Y-120481197D01*
X114463634Y-120442107D01*
X114344883Y-120378633D01*
X114240791Y-120293209D01*
X114155367Y-120189117D01*
X114091893Y-120070366D01*
X114052803Y-119941505D01*
X114039000Y-119801360D01*
X114039000Y-117688640D01*
X114052803Y-117548495D01*
X114091893Y-117419634D01*
X114155367Y-117300883D01*
X114240791Y-117196791D01*
X114344883Y-117111367D01*
X114463634Y-117047893D01*
X114592495Y-117008803D01*
X114732640Y-116995000D01*
X116345360Y-116995000D01*
X116485505Y-117008803D01*
X116485505Y-117008803D01*
G37*
G36*
X153453290Y-118215619D02*
G01*
X153517689Y-118228429D01*
X153699678Y-118303811D01*
X153863463Y-118413249D01*
X154002751Y-118552537D01*
X154112189Y-118716322D01*
X154187571Y-118898311D01*
X154187571Y-118898312D01*
X154226000Y-119091507D01*
X154226000Y-119288493D01*
X154216151Y-119338008D01*
X154187571Y-119481689D01*
X154112189Y-119663678D01*
X154002751Y-119827463D01*
X153863463Y-119966751D01*
X153699678Y-120076189D01*
X153517689Y-120151571D01*
X153466877Y-120161678D01*
X153324493Y-120190000D01*
X153127507Y-120190000D01*
X152985123Y-120161678D01*
X152934311Y-120151571D01*
X152752322Y-120076189D01*
X152588537Y-119966751D01*
X152449249Y-119827463D01*
X152339811Y-119663678D01*
X152264429Y-119481689D01*
X152235849Y-119338008D01*
X152226000Y-119288493D01*
X152226000Y-119091507D01*
X152264429Y-118898312D01*
X152264429Y-118898311D01*
X152339811Y-118716322D01*
X152449249Y-118552537D01*
X152588537Y-118413249D01*
X152752322Y-118303811D01*
X152934311Y-118228429D01*
X152998710Y-118215619D01*
X153127507Y-118190000D01*
X153324493Y-118190000D01*
X153453290Y-118215619D01*
X153453290Y-118215619D01*
G37*
G36*
X147261290Y-118215619D02*
G01*
X147325689Y-118228429D01*
X147507678Y-118303811D01*
X147671463Y-118413249D01*
X147810751Y-118552537D01*
X147920189Y-118716322D01*
X147995571Y-118898311D01*
X147995571Y-118898312D01*
X148034000Y-119091507D01*
X148034000Y-119288493D01*
X148024151Y-119338008D01*
X147995571Y-119481689D01*
X147920189Y-119663678D01*
X147810751Y-119827463D01*
X147671463Y-119966751D01*
X147507678Y-120076189D01*
X147325689Y-120151571D01*
X147274877Y-120161678D01*
X147132493Y-120190000D01*
X146935507Y-120190000D01*
X146793123Y-120161678D01*
X146742311Y-120151571D01*
X146560322Y-120076189D01*
X146396537Y-119966751D01*
X146257249Y-119827463D01*
X146147811Y-119663678D01*
X146072429Y-119481689D01*
X146043849Y-119338008D01*
X146034000Y-119288493D01*
X146034000Y-119091507D01*
X146072429Y-118898312D01*
X146072429Y-118898311D01*
X146147811Y-118716322D01*
X146257249Y-118552537D01*
X146396537Y-118413249D01*
X146560322Y-118303811D01*
X146742311Y-118228429D01*
X146806710Y-118215619D01*
X146935507Y-118190000D01*
X147132493Y-118190000D01*
X147261290Y-118215619D01*
X147261290Y-118215619D01*
G37*
G36*
X141070290Y-118215619D02*
G01*
X141134689Y-118228429D01*
X141316678Y-118303811D01*
X141480463Y-118413249D01*
X141619751Y-118552537D01*
X141729189Y-118716322D01*
X141804571Y-118898311D01*
X141804571Y-118898312D01*
X141843000Y-119091507D01*
X141843000Y-119288493D01*
X141833151Y-119338008D01*
X141804571Y-119481689D01*
X141729189Y-119663678D01*
X141619751Y-119827463D01*
X141480463Y-119966751D01*
X141316678Y-120076189D01*
X141134689Y-120151571D01*
X141083877Y-120161678D01*
X140941493Y-120190000D01*
X140744507Y-120190000D01*
X140602123Y-120161678D01*
X140551311Y-120151571D01*
X140369322Y-120076189D01*
X140205537Y-119966751D01*
X140066249Y-119827463D01*
X139956811Y-119663678D01*
X139881429Y-119481689D01*
X139852849Y-119338008D01*
X139843000Y-119288493D01*
X139843000Y-119091507D01*
X139881429Y-118898312D01*
X139881429Y-118898311D01*
X139956811Y-118716322D01*
X140066249Y-118552537D01*
X140205537Y-118413249D01*
X140369322Y-118303811D01*
X140551311Y-118228429D01*
X140615710Y-118215619D01*
X140744507Y-118190000D01*
X140941493Y-118190000D01*
X141070290Y-118215619D01*
X141070290Y-118215619D01*
G37*
G36*
X173705026Y-114352115D02*
G01*
X173801273Y-114391982D01*
X173923413Y-114442574D01*
X174040250Y-114520642D01*
X174119955Y-114573899D01*
X174287101Y-114741045D01*
X174418427Y-114937589D01*
X174508885Y-115155974D01*
X174555000Y-115387809D01*
X174555000Y-115624191D01*
X174508885Y-115856026D01*
X174418427Y-116074411D01*
X174418426Y-116074413D01*
X174287101Y-116270955D01*
X174119955Y-116438101D01*
X173923413Y-116569426D01*
X173923412Y-116569427D01*
X173923411Y-116569427D01*
X173705026Y-116659885D01*
X173473191Y-116706000D01*
X173236809Y-116706000D01*
X173004974Y-116659885D01*
X172786589Y-116569427D01*
X172786588Y-116569427D01*
X172786587Y-116569426D01*
X172590045Y-116438101D01*
X172422899Y-116270955D01*
X172291574Y-116074413D01*
X172291573Y-116074411D01*
X172201115Y-115856026D01*
X172155000Y-115624191D01*
X172155000Y-115387809D01*
X172201115Y-115155974D01*
X172291573Y-114937589D01*
X172422899Y-114741045D01*
X172590045Y-114573899D01*
X172669750Y-114520642D01*
X172786587Y-114442574D01*
X172908727Y-114391982D01*
X173004974Y-114352115D01*
X173236809Y-114306000D01*
X173473191Y-114306000D01*
X173705026Y-114352115D01*
X173705026Y-114352115D01*
G37*
G36*
X158232714Y-114311788D02*
G01*
X158350241Y-114323363D01*
X158576442Y-114391981D01*
X158576445Y-114391982D01*
X158784910Y-114503408D01*
X158967634Y-114653366D01*
X159117592Y-114836090D01*
X159229018Y-115044555D01*
X159229019Y-115044558D01*
X159297637Y-115270759D01*
X159320806Y-115506000D01*
X159297637Y-115741241D01*
X159229019Y-115967442D01*
X159229018Y-115967445D01*
X159117592Y-116175910D01*
X158967634Y-116358634D01*
X158784910Y-116508592D01*
X158576445Y-116620018D01*
X158576442Y-116620019D01*
X158350241Y-116688637D01*
X158232714Y-116700212D01*
X158173951Y-116706000D01*
X158056049Y-116706000D01*
X157997286Y-116700212D01*
X157879759Y-116688637D01*
X157653558Y-116620019D01*
X157653555Y-116620018D01*
X157445090Y-116508592D01*
X157262366Y-116358634D01*
X157112408Y-116175910D01*
X157000982Y-115967445D01*
X157000981Y-115967442D01*
X156932363Y-115741241D01*
X156909194Y-115506000D01*
X156932363Y-115270759D01*
X157000981Y-115044558D01*
X157000982Y-115044555D01*
X157112408Y-114836090D01*
X157262366Y-114653366D01*
X157445090Y-114503408D01*
X157653555Y-114391982D01*
X157653558Y-114391981D01*
X157879759Y-114323363D01*
X157997286Y-114311788D01*
X158056049Y-114306000D01*
X158173951Y-114306000D01*
X158232714Y-114311788D01*
X158232714Y-114311788D01*
G37*
G36*
X134330766Y-113134821D02*
G01*
X134467257Y-113191358D01*
X134590097Y-113273437D01*
X134694563Y-113377903D01*
X134776642Y-113500743D01*
X134833179Y-113637234D01*
X134862000Y-113782130D01*
X134862000Y-113929870D01*
X134833179Y-114074766D01*
X134776642Y-114211257D01*
X134694563Y-114334097D01*
X134590097Y-114438563D01*
X134467257Y-114520642D01*
X134330766Y-114577179D01*
X134185870Y-114606000D01*
X134038130Y-114606000D01*
X133893234Y-114577179D01*
X133756743Y-114520642D01*
X133633903Y-114438563D01*
X133529437Y-114334097D01*
X133447358Y-114211257D01*
X133390821Y-114074766D01*
X133362000Y-113929870D01*
X133362000Y-113782130D01*
X133390821Y-113637234D01*
X133447358Y-113500743D01*
X133529437Y-113377903D01*
X133633903Y-113273437D01*
X133756743Y-113191358D01*
X133893234Y-113134821D01*
X134038130Y-113106000D01*
X134185870Y-113106000D01*
X134330766Y-113134821D01*
X134330766Y-113134821D01*
G37*
G36*
X131790766Y-113134821D02*
G01*
X131927257Y-113191358D01*
X132050097Y-113273437D01*
X132154563Y-113377903D01*
X132236642Y-113500743D01*
X132293179Y-113637234D01*
X132322000Y-113782130D01*
X132322000Y-113929870D01*
X132293179Y-114074766D01*
X132236642Y-114211257D01*
X132154563Y-114334097D01*
X132050097Y-114438563D01*
X131927257Y-114520642D01*
X131790766Y-114577179D01*
X131645870Y-114606000D01*
X131498130Y-114606000D01*
X131353234Y-114577179D01*
X131216743Y-114520642D01*
X131093903Y-114438563D01*
X130989437Y-114334097D01*
X130907358Y-114211257D01*
X130850821Y-114074766D01*
X130822000Y-113929870D01*
X130822000Y-113782130D01*
X130850821Y-113637234D01*
X130907358Y-113500743D01*
X130989437Y-113377903D01*
X131093903Y-113273437D01*
X131216743Y-113191358D01*
X131353234Y-113134821D01*
X131498130Y-113106000D01*
X131645870Y-113106000D01*
X131790766Y-113134821D01*
X131790766Y-113134821D01*
G37*
G36*
X130036000Y-114606000D02*
G01*
X128536000Y-114606000D01*
X128536000Y-113106000D01*
X130036000Y-113106000D01*
X130036000Y-114606000D01*
X130036000Y-114606000D01*
G37*
G36*
X137402000Y-114606000D02*
G01*
X135902000Y-114606000D01*
X135902000Y-113106000D01*
X137402000Y-113106000D01*
X137402000Y-114606000D01*
X137402000Y-114606000D01*
G37*
G36*
X126964766Y-113134821D02*
G01*
X127101257Y-113191358D01*
X127224097Y-113273437D01*
X127328563Y-113377903D01*
X127410642Y-113500743D01*
X127467179Y-113637234D01*
X127496000Y-113782130D01*
X127496000Y-113929870D01*
X127467179Y-114074766D01*
X127410642Y-114211257D01*
X127328563Y-114334097D01*
X127224097Y-114438563D01*
X127101257Y-114520642D01*
X126964766Y-114577179D01*
X126819870Y-114606000D01*
X126672130Y-114606000D01*
X126527234Y-114577179D01*
X126390743Y-114520642D01*
X126267903Y-114438563D01*
X126163437Y-114334097D01*
X126081358Y-114211257D01*
X126024821Y-114074766D01*
X125996000Y-113929870D01*
X125996000Y-113782130D01*
X126024821Y-113637234D01*
X126081358Y-113500743D01*
X126163437Y-113377903D01*
X126267903Y-113273437D01*
X126390743Y-113191358D01*
X126527234Y-113134821D01*
X126672130Y-113106000D01*
X126819870Y-113106000D01*
X126964766Y-113134821D01*
X126964766Y-113134821D01*
G37*
G36*
X124424766Y-113134821D02*
G01*
X124561257Y-113191358D01*
X124684097Y-113273437D01*
X124788563Y-113377903D01*
X124870642Y-113500743D01*
X124927179Y-113637234D01*
X124956000Y-113782130D01*
X124956000Y-113929870D01*
X124927179Y-114074766D01*
X124870642Y-114211257D01*
X124788563Y-114334097D01*
X124684097Y-114438563D01*
X124561257Y-114520642D01*
X124424766Y-114577179D01*
X124279870Y-114606000D01*
X124132130Y-114606000D01*
X123987234Y-114577179D01*
X123850743Y-114520642D01*
X123727903Y-114438563D01*
X123623437Y-114334097D01*
X123541358Y-114211257D01*
X123484821Y-114074766D01*
X123456000Y-113929870D01*
X123456000Y-113782130D01*
X123484821Y-113637234D01*
X123541358Y-113500743D01*
X123623437Y-113377903D01*
X123727903Y-113273437D01*
X123850743Y-113191358D01*
X123987234Y-113134821D01*
X124132130Y-113106000D01*
X124279870Y-113106000D01*
X124424766Y-113134821D01*
X124424766Y-113134821D01*
G37*
G36*
X141070290Y-110715619D02*
G01*
X141134689Y-110728429D01*
X141316678Y-110803811D01*
X141480463Y-110913249D01*
X141619751Y-111052537D01*
X141729189Y-111216322D01*
X141804571Y-111398311D01*
X141843000Y-111591509D01*
X141843000Y-111788491D01*
X141804571Y-111981689D01*
X141729189Y-112163678D01*
X141619751Y-112327463D01*
X141480463Y-112466751D01*
X141316678Y-112576189D01*
X141134689Y-112651571D01*
X141070290Y-112664381D01*
X140941493Y-112690000D01*
X140744507Y-112690000D01*
X140615710Y-112664381D01*
X140551311Y-112651571D01*
X140369322Y-112576189D01*
X140205537Y-112466751D01*
X140066249Y-112327463D01*
X139956811Y-112163678D01*
X139881429Y-111981689D01*
X139843000Y-111788491D01*
X139843000Y-111591509D01*
X139881429Y-111398311D01*
X139956811Y-111216322D01*
X140066249Y-111052537D01*
X140205537Y-110913249D01*
X140369322Y-110803811D01*
X140551311Y-110728429D01*
X140615710Y-110715619D01*
X140744507Y-110690000D01*
X140941493Y-110690000D01*
X141070290Y-110715619D01*
X141070290Y-110715619D01*
G37*
G36*
X153453290Y-110715619D02*
G01*
X153517689Y-110728429D01*
X153699678Y-110803811D01*
X153863463Y-110913249D01*
X154002751Y-111052537D01*
X154112189Y-111216322D01*
X154187571Y-111398311D01*
X154226000Y-111591509D01*
X154226000Y-111788491D01*
X154187571Y-111981689D01*
X154112189Y-112163678D01*
X154002751Y-112327463D01*
X153863463Y-112466751D01*
X153699678Y-112576189D01*
X153517689Y-112651571D01*
X153453290Y-112664381D01*
X153324493Y-112690000D01*
X153127507Y-112690000D01*
X152998710Y-112664381D01*
X152934311Y-112651571D01*
X152752322Y-112576189D01*
X152588537Y-112466751D01*
X152449249Y-112327463D01*
X152339811Y-112163678D01*
X152264429Y-111981689D01*
X152226000Y-111788491D01*
X152226000Y-111591509D01*
X152264429Y-111398311D01*
X152339811Y-111216322D01*
X152449249Y-111052537D01*
X152588537Y-110913249D01*
X152752322Y-110803811D01*
X152934311Y-110728429D01*
X152998710Y-110715619D01*
X153127507Y-110690000D01*
X153324493Y-110690000D01*
X153453290Y-110715619D01*
X153453290Y-110715619D01*
G37*
G36*
X147261290Y-110715619D02*
G01*
X147325689Y-110728429D01*
X147507678Y-110803811D01*
X147671463Y-110913249D01*
X147810751Y-111052537D01*
X147920189Y-111216322D01*
X147995571Y-111398311D01*
X148034000Y-111591509D01*
X148034000Y-111788491D01*
X147995571Y-111981689D01*
X147920189Y-112163678D01*
X147810751Y-112327463D01*
X147671463Y-112466751D01*
X147507678Y-112576189D01*
X147325689Y-112651571D01*
X147261290Y-112664381D01*
X147132493Y-112690000D01*
X146935507Y-112690000D01*
X146806710Y-112664381D01*
X146742311Y-112651571D01*
X146560322Y-112576189D01*
X146396537Y-112466751D01*
X146257249Y-112327463D01*
X146147811Y-112163678D01*
X146072429Y-111981689D01*
X146034000Y-111788491D01*
X146034000Y-111591509D01*
X146072429Y-111398311D01*
X146147811Y-111216322D01*
X146257249Y-111052537D01*
X146396537Y-110913249D01*
X146560322Y-110803811D01*
X146742311Y-110728429D01*
X146806710Y-110715619D01*
X146935507Y-110690000D01*
X147132493Y-110690000D01*
X147261290Y-110715619D01*
X147261290Y-110715619D01*
G37*
G36*
X161455000Y-111683000D02*
G01*
X159855000Y-111683000D01*
X159855000Y-110083000D01*
X161455000Y-110083000D01*
X161455000Y-111683000D01*
X161455000Y-111683000D01*
G37*
G36*
X170893471Y-110086859D02*
G01*
X170971827Y-110094576D01*
X171122628Y-110140321D01*
X171122630Y-110140322D01*
X171261605Y-110214606D01*
X171261607Y-110214607D01*
X171261606Y-110214607D01*
X171383422Y-110314578D01*
X171483393Y-110436394D01*
X171557679Y-110575372D01*
X171603424Y-110726173D01*
X171618870Y-110883000D01*
X171603424Y-111039827D01*
X171569367Y-111152097D01*
X171557678Y-111190630D01*
X171483394Y-111329605D01*
X171383422Y-111451422D01*
X171261605Y-111551394D01*
X171186559Y-111591507D01*
X171122628Y-111625679D01*
X170971827Y-111671424D01*
X170893471Y-111679141D01*
X170854294Y-111683000D01*
X170775706Y-111683000D01*
X170736529Y-111679141D01*
X170658173Y-111671424D01*
X170507372Y-111625679D01*
X170443441Y-111591507D01*
X170368395Y-111551394D01*
X170246578Y-111451422D01*
X170146606Y-111329605D01*
X170072322Y-111190630D01*
X170060633Y-111152097D01*
X170026576Y-111039827D01*
X170011130Y-110883000D01*
X170026576Y-110726173D01*
X170072321Y-110575372D01*
X170146607Y-110436394D01*
X170246578Y-110314578D01*
X170368394Y-110214607D01*
X170368393Y-110214607D01*
X170368395Y-110214606D01*
X170507370Y-110140322D01*
X170507372Y-110140321D01*
X170658173Y-110094576D01*
X170736529Y-110086859D01*
X170775706Y-110083000D01*
X170854294Y-110083000D01*
X170893471Y-110086859D01*
X170893471Y-110086859D01*
G37*
G36*
X177341627Y-109525299D02*
G01*
X177421742Y-109549602D01*
X177501855Y-109573903D01*
X177501857Y-109573904D01*
X177649518Y-109652831D01*
X177778949Y-109759051D01*
X177885169Y-109888482D01*
X177964096Y-110036143D01*
X178012701Y-110196373D01*
X178029112Y-110363000D01*
X178012701Y-110529627D01*
X177964096Y-110689857D01*
X177885169Y-110837518D01*
X177778949Y-110966949D01*
X177649518Y-111073169D01*
X177501857Y-111152096D01*
X177501855Y-111152097D01*
X177421742Y-111176399D01*
X177341627Y-111200701D01*
X177216752Y-111213000D01*
X177133248Y-111213000D01*
X177008373Y-111200701D01*
X176928258Y-111176399D01*
X176848145Y-111152097D01*
X176848143Y-111152096D01*
X176700482Y-111073169D01*
X176571051Y-110966949D01*
X176464831Y-110837518D01*
X176385904Y-110689857D01*
X176337299Y-110529627D01*
X176320888Y-110363000D01*
X176337299Y-110196373D01*
X176385904Y-110036143D01*
X176464831Y-109888482D01*
X176571051Y-109759051D01*
X176700482Y-109652831D01*
X176848143Y-109573904D01*
X176848145Y-109573903D01*
X176928258Y-109549602D01*
X177008373Y-109525299D01*
X177133248Y-109513000D01*
X177216752Y-109513000D01*
X177341627Y-109525299D01*
X177341627Y-109525299D01*
G37*
G36*
X130033013Y-109119057D02*
G01*
X130142206Y-109164286D01*
X130240477Y-109229949D01*
X130324051Y-109313523D01*
X130389714Y-109411794D01*
X130434943Y-109520987D01*
X130458000Y-109636904D01*
X130458000Y-109755096D01*
X130434943Y-109871013D01*
X130389714Y-109980206D01*
X130324051Y-110078477D01*
X130240477Y-110162051D01*
X130142206Y-110227714D01*
X130033013Y-110272943D01*
X129917096Y-110296000D01*
X129798904Y-110296000D01*
X129682987Y-110272943D01*
X129573794Y-110227714D01*
X129475523Y-110162051D01*
X129391949Y-110078477D01*
X129326286Y-109980206D01*
X129281057Y-109871013D01*
X129258000Y-109755096D01*
X129258000Y-109636904D01*
X129281057Y-109520987D01*
X129326286Y-109411794D01*
X129391949Y-109313523D01*
X129475523Y-109229949D01*
X129573794Y-109164286D01*
X129682987Y-109119057D01*
X129798904Y-109096000D01*
X129917096Y-109096000D01*
X130033013Y-109119057D01*
X130033013Y-109119057D01*
G37*
G36*
X114793013Y-109119057D02*
G01*
X114902206Y-109164286D01*
X115000477Y-109229949D01*
X115084051Y-109313523D01*
X115149714Y-109411794D01*
X115194943Y-109520987D01*
X115218000Y-109636904D01*
X115218000Y-109755096D01*
X115194943Y-109871013D01*
X115149714Y-109980206D01*
X115084051Y-110078477D01*
X115000477Y-110162051D01*
X114902206Y-110227714D01*
X114793013Y-110272943D01*
X114677096Y-110296000D01*
X114558904Y-110296000D01*
X114442987Y-110272943D01*
X114333794Y-110227714D01*
X114235523Y-110162051D01*
X114151949Y-110078477D01*
X114086286Y-109980206D01*
X114041057Y-109871013D01*
X114018000Y-109755096D01*
X114018000Y-109636904D01*
X114041057Y-109520987D01*
X114086286Y-109411794D01*
X114151949Y-109313523D01*
X114235523Y-109229949D01*
X114333794Y-109164286D01*
X114442987Y-109119057D01*
X114558904Y-109096000D01*
X114677096Y-109096000D01*
X114793013Y-109119057D01*
X114793013Y-109119057D01*
G37*
G36*
X122413013Y-108869057D02*
G01*
X122522206Y-108914286D01*
X122620477Y-108979949D01*
X122704051Y-109063523D01*
X122769714Y-109161794D01*
X122814943Y-109270987D01*
X122838000Y-109386904D01*
X122838000Y-109505096D01*
X122814943Y-109621013D01*
X122769714Y-109730206D01*
X122704051Y-109828477D01*
X122620477Y-109912051D01*
X122522206Y-109977714D01*
X122413013Y-110022943D01*
X122297096Y-110046000D01*
X122178904Y-110046000D01*
X122062987Y-110022943D01*
X121953794Y-109977714D01*
X121855523Y-109912051D01*
X121771949Y-109828477D01*
X121706286Y-109730206D01*
X121661057Y-109621013D01*
X121638000Y-109505096D01*
X121638000Y-109386904D01*
X121661057Y-109270987D01*
X121706286Y-109161794D01*
X121771949Y-109063523D01*
X121855523Y-108979949D01*
X121953794Y-108914286D01*
X122062987Y-108869057D01*
X122178904Y-108846000D01*
X122297096Y-108846000D01*
X122413013Y-108869057D01*
X122413013Y-108869057D01*
G37*
G36*
X177341627Y-106985299D02*
G01*
X177414386Y-107007370D01*
X177501855Y-107033903D01*
X177501857Y-107033904D01*
X177649518Y-107112831D01*
X177778949Y-107219051D01*
X177885169Y-107348482D01*
X177964096Y-107496143D01*
X177964097Y-107496145D01*
X177984535Y-107563522D01*
X178012701Y-107656373D01*
X178029112Y-107823000D01*
X178012701Y-107989627D01*
X177992058Y-108057678D01*
X177972846Y-108121014D01*
X177964096Y-108149857D01*
X177885169Y-108297518D01*
X177778949Y-108426949D01*
X177649518Y-108533169D01*
X177501857Y-108612096D01*
X177501855Y-108612097D01*
X177421742Y-108636399D01*
X177341627Y-108660701D01*
X177216752Y-108673000D01*
X177133248Y-108673000D01*
X177008373Y-108660701D01*
X176928258Y-108636399D01*
X176848145Y-108612097D01*
X176848143Y-108612096D01*
X176700482Y-108533169D01*
X176571051Y-108426949D01*
X176464831Y-108297518D01*
X176385904Y-108149857D01*
X176377155Y-108121014D01*
X176357942Y-108057678D01*
X176337299Y-107989627D01*
X176320888Y-107823000D01*
X176337299Y-107656373D01*
X176365465Y-107563522D01*
X176385903Y-107496145D01*
X176385904Y-107496143D01*
X176464831Y-107348482D01*
X176571051Y-107219051D01*
X176700482Y-107112831D01*
X176848143Y-107033904D01*
X176848145Y-107033903D01*
X176935614Y-107007370D01*
X177008373Y-106985299D01*
X177133248Y-106973000D01*
X177216752Y-106973000D01*
X177341627Y-106985299D01*
X177341627Y-106985299D01*
G37*
G36*
X122413013Y-107369057D02*
G01*
X122522206Y-107414286D01*
X122620477Y-107479949D01*
X122704051Y-107563523D01*
X122769714Y-107661794D01*
X122814943Y-107770987D01*
X122838000Y-107886904D01*
X122838000Y-108005096D01*
X122814943Y-108121013D01*
X122769714Y-108230206D01*
X122704051Y-108328477D01*
X122620477Y-108412051D01*
X122522206Y-108477714D01*
X122413013Y-108522943D01*
X122297096Y-108546000D01*
X122178904Y-108546000D01*
X122062987Y-108522943D01*
X121953794Y-108477714D01*
X121855523Y-108412051D01*
X121771949Y-108328477D01*
X121706286Y-108230206D01*
X121661057Y-108121013D01*
X121638000Y-108005096D01*
X121638000Y-107886904D01*
X121661057Y-107770987D01*
X121706286Y-107661794D01*
X121771949Y-107563523D01*
X121855523Y-107479949D01*
X121953794Y-107414286D01*
X122062987Y-107369057D01*
X122178904Y-107346000D01*
X122297096Y-107346000D01*
X122413013Y-107369057D01*
X122413013Y-107369057D01*
G37*
G36*
X130033013Y-107119057D02*
G01*
X130142206Y-107164286D01*
X130240477Y-107229949D01*
X130324051Y-107313523D01*
X130389714Y-107411794D01*
X130434943Y-107520987D01*
X130458000Y-107636904D01*
X130458000Y-107755096D01*
X130434943Y-107871013D01*
X130389714Y-107980206D01*
X130324051Y-108078477D01*
X130240477Y-108162051D01*
X130142206Y-108227714D01*
X130033013Y-108272943D01*
X129917096Y-108296000D01*
X129798904Y-108296000D01*
X129682987Y-108272943D01*
X129573794Y-108227714D01*
X129475523Y-108162051D01*
X129391949Y-108078477D01*
X129326286Y-107980206D01*
X129281057Y-107871013D01*
X129258000Y-107755096D01*
X129258000Y-107636904D01*
X129281057Y-107520987D01*
X129326286Y-107411794D01*
X129391949Y-107313523D01*
X129475523Y-107229949D01*
X129573794Y-107164286D01*
X129682987Y-107119057D01*
X129798904Y-107096000D01*
X129917096Y-107096000D01*
X130033013Y-107119057D01*
X130033013Y-107119057D01*
G37*
G36*
X114793013Y-107119057D02*
G01*
X114902206Y-107164286D01*
X115000477Y-107229949D01*
X115084051Y-107313523D01*
X115149714Y-107411794D01*
X115194943Y-107520987D01*
X115218000Y-107636904D01*
X115218000Y-107755096D01*
X115194943Y-107871013D01*
X115149714Y-107980206D01*
X115084051Y-108078477D01*
X115000477Y-108162051D01*
X114902206Y-108227714D01*
X114793013Y-108272943D01*
X114677096Y-108296000D01*
X114558904Y-108296000D01*
X114442987Y-108272943D01*
X114333794Y-108227714D01*
X114235523Y-108162051D01*
X114151949Y-108078477D01*
X114086286Y-107980206D01*
X114041057Y-107871013D01*
X114018000Y-107755096D01*
X114018000Y-107636904D01*
X114041057Y-107520987D01*
X114086286Y-107411794D01*
X114151949Y-107313523D01*
X114235523Y-107229949D01*
X114333794Y-107164286D01*
X114442987Y-107119057D01*
X114558904Y-107096000D01*
X114677096Y-107096000D01*
X114793013Y-107119057D01*
X114793013Y-107119057D01*
G37*
G36*
X136476471Y-106518859D02*
G01*
X136554827Y-106526576D01*
X136705628Y-106572321D01*
X136705630Y-106572322D01*
X136844605Y-106646606D01*
X136844607Y-106646607D01*
X136844606Y-106646607D01*
X136966422Y-106746578D01*
X137066393Y-106868394D01*
X137140679Y-107007372D01*
X137186424Y-107158173D01*
X137201870Y-107315000D01*
X137186424Y-107471827D01*
X137158608Y-107563523D01*
X137140678Y-107622630D01*
X137066394Y-107761605D01*
X136966422Y-107883422D01*
X136844605Y-107983394D01*
X136705630Y-108057678D01*
X136705628Y-108057679D01*
X136554827Y-108103424D01*
X136476471Y-108111141D01*
X136437294Y-108115000D01*
X136358706Y-108115000D01*
X136319529Y-108111141D01*
X136241173Y-108103424D01*
X136090372Y-108057679D01*
X136090370Y-108057678D01*
X135951395Y-107983394D01*
X135829578Y-107883422D01*
X135729606Y-107761605D01*
X135655322Y-107622630D01*
X135637392Y-107563523D01*
X135609576Y-107471827D01*
X135594130Y-107315000D01*
X135609576Y-107158173D01*
X135655321Y-107007372D01*
X135729607Y-106868394D01*
X135829578Y-106746578D01*
X135951394Y-106646607D01*
X135951393Y-106646607D01*
X135951395Y-106646606D01*
X136090370Y-106572322D01*
X136090372Y-106572321D01*
X136241173Y-106526576D01*
X136319529Y-106518859D01*
X136358706Y-106515000D01*
X136437294Y-106515000D01*
X136476471Y-106518859D01*
X136476471Y-106518859D01*
G37*
G36*
X141556471Y-106518859D02*
G01*
X141634827Y-106526576D01*
X141785628Y-106572321D01*
X141785630Y-106572322D01*
X141924605Y-106646606D01*
X141924607Y-106646607D01*
X141924606Y-106646607D01*
X142046422Y-106746578D01*
X142146393Y-106868394D01*
X142220679Y-107007372D01*
X142266424Y-107158173D01*
X142281870Y-107315000D01*
X142266424Y-107471827D01*
X142238608Y-107563523D01*
X142220678Y-107622630D01*
X142146394Y-107761605D01*
X142046422Y-107883422D01*
X141924605Y-107983394D01*
X141785630Y-108057678D01*
X141785628Y-108057679D01*
X141634827Y-108103424D01*
X141556471Y-108111141D01*
X141517294Y-108115000D01*
X141438706Y-108115000D01*
X141399529Y-108111141D01*
X141321173Y-108103424D01*
X141170372Y-108057679D01*
X141170370Y-108057678D01*
X141031395Y-107983394D01*
X140909578Y-107883422D01*
X140809606Y-107761605D01*
X140735322Y-107622630D01*
X140717392Y-107563523D01*
X140689576Y-107471827D01*
X140674130Y-107315000D01*
X140689576Y-107158173D01*
X140735321Y-107007372D01*
X140809607Y-106868394D01*
X140909578Y-106746578D01*
X141031394Y-106646607D01*
X141031393Y-106646607D01*
X141031395Y-106646606D01*
X141170370Y-106572322D01*
X141170372Y-106572321D01*
X141321173Y-106526576D01*
X141399529Y-106518859D01*
X141438706Y-106515000D01*
X141517294Y-106515000D01*
X141556471Y-106518859D01*
X141556471Y-106518859D01*
G37*
G36*
X154256471Y-106518859D02*
G01*
X154334827Y-106526576D01*
X154485628Y-106572321D01*
X154485630Y-106572322D01*
X154624605Y-106646606D01*
X154624607Y-106646607D01*
X154624606Y-106646607D01*
X154746422Y-106746578D01*
X154846393Y-106868394D01*
X154920679Y-107007372D01*
X154966424Y-107158173D01*
X154981870Y-107315000D01*
X154966424Y-107471827D01*
X154938608Y-107563523D01*
X154920678Y-107622630D01*
X154846394Y-107761605D01*
X154746422Y-107883422D01*
X154624605Y-107983394D01*
X154485630Y-108057678D01*
X154485628Y-108057679D01*
X154334827Y-108103424D01*
X154256471Y-108111141D01*
X154217294Y-108115000D01*
X154138706Y-108115000D01*
X154099529Y-108111141D01*
X154021173Y-108103424D01*
X153870372Y-108057679D01*
X153870370Y-108057678D01*
X153731395Y-107983394D01*
X153609578Y-107883422D01*
X153509606Y-107761605D01*
X153435322Y-107622630D01*
X153417392Y-107563523D01*
X153389576Y-107471827D01*
X153374130Y-107315000D01*
X153389576Y-107158173D01*
X153435321Y-107007372D01*
X153509607Y-106868394D01*
X153609578Y-106746578D01*
X153731394Y-106646607D01*
X153731393Y-106646607D01*
X153731395Y-106646606D01*
X153870370Y-106572322D01*
X153870372Y-106572321D01*
X154021173Y-106526576D01*
X154099529Y-106518859D01*
X154138706Y-106515000D01*
X154217294Y-106515000D01*
X154256471Y-106518859D01*
X154256471Y-106518859D01*
G37*
G36*
X156796471Y-106518859D02*
G01*
X156874827Y-106526576D01*
X157025628Y-106572321D01*
X157025630Y-106572322D01*
X157164605Y-106646606D01*
X157164607Y-106646607D01*
X157164606Y-106646607D01*
X157286422Y-106746578D01*
X157386393Y-106868394D01*
X157460679Y-107007372D01*
X157506424Y-107158173D01*
X157521870Y-107315000D01*
X157506424Y-107471827D01*
X157478608Y-107563523D01*
X157460678Y-107622630D01*
X157386394Y-107761605D01*
X157286422Y-107883422D01*
X157164605Y-107983394D01*
X157025630Y-108057678D01*
X157025628Y-108057679D01*
X156874827Y-108103424D01*
X156796471Y-108111141D01*
X156757294Y-108115000D01*
X156678706Y-108115000D01*
X156639529Y-108111141D01*
X156561173Y-108103424D01*
X156410372Y-108057679D01*
X156410370Y-108057678D01*
X156271395Y-107983394D01*
X156149578Y-107883422D01*
X156049606Y-107761605D01*
X155975322Y-107622630D01*
X155957392Y-107563523D01*
X155929576Y-107471827D01*
X155914130Y-107315000D01*
X155929576Y-107158173D01*
X155975321Y-107007372D01*
X156049607Y-106868394D01*
X156149578Y-106746578D01*
X156271394Y-106646607D01*
X156271393Y-106646607D01*
X156271395Y-106646606D01*
X156410370Y-106572322D01*
X156410372Y-106572321D01*
X156561173Y-106526576D01*
X156639529Y-106518859D01*
X156678706Y-106515000D01*
X156757294Y-106515000D01*
X156796471Y-106518859D01*
X156796471Y-106518859D01*
G37*
G36*
X139016471Y-106518859D02*
G01*
X139094827Y-106526576D01*
X139245628Y-106572321D01*
X139245630Y-106572322D01*
X139384605Y-106646606D01*
X139384607Y-106646607D01*
X139384606Y-106646607D01*
X139506422Y-106746578D01*
X139606393Y-106868394D01*
X139680679Y-107007372D01*
X139726424Y-107158173D01*
X139741870Y-107315000D01*
X139726424Y-107471827D01*
X139698608Y-107563523D01*
X139680678Y-107622630D01*
X139606394Y-107761605D01*
X139506422Y-107883422D01*
X139384605Y-107983394D01*
X139245630Y-108057678D01*
X139245628Y-108057679D01*
X139094827Y-108103424D01*
X139016471Y-108111141D01*
X138977294Y-108115000D01*
X138898706Y-108115000D01*
X138859529Y-108111141D01*
X138781173Y-108103424D01*
X138630372Y-108057679D01*
X138630370Y-108057678D01*
X138491395Y-107983394D01*
X138369578Y-107883422D01*
X138269606Y-107761605D01*
X138195322Y-107622630D01*
X138177392Y-107563523D01*
X138149576Y-107471827D01*
X138134130Y-107315000D01*
X138149576Y-107158173D01*
X138195321Y-107007372D01*
X138269607Y-106868394D01*
X138369578Y-106746578D01*
X138491394Y-106646607D01*
X138491393Y-106646607D01*
X138491395Y-106646606D01*
X138630370Y-106572322D01*
X138630372Y-106572321D01*
X138781173Y-106526576D01*
X138859529Y-106518859D01*
X138898706Y-106515000D01*
X138977294Y-106515000D01*
X139016471Y-106518859D01*
X139016471Y-106518859D01*
G37*
G36*
X146636471Y-106518859D02*
G01*
X146714827Y-106526576D01*
X146865628Y-106572321D01*
X146865630Y-106572322D01*
X147004605Y-106646606D01*
X147004607Y-106646607D01*
X147004606Y-106646607D01*
X147126422Y-106746578D01*
X147226393Y-106868394D01*
X147300679Y-107007372D01*
X147346424Y-107158173D01*
X147361870Y-107315000D01*
X147346424Y-107471827D01*
X147318608Y-107563523D01*
X147300678Y-107622630D01*
X147226394Y-107761605D01*
X147126422Y-107883422D01*
X147004605Y-107983394D01*
X146865630Y-108057678D01*
X146865628Y-108057679D01*
X146714827Y-108103424D01*
X146636471Y-108111141D01*
X146597294Y-108115000D01*
X146518706Y-108115000D01*
X146479529Y-108111141D01*
X146401173Y-108103424D01*
X146250372Y-108057679D01*
X146250370Y-108057678D01*
X146111395Y-107983394D01*
X145989578Y-107883422D01*
X145889606Y-107761605D01*
X145815322Y-107622630D01*
X145797392Y-107563523D01*
X145769576Y-107471827D01*
X145754130Y-107315000D01*
X145769576Y-107158173D01*
X145815321Y-107007372D01*
X145889607Y-106868394D01*
X145989578Y-106746578D01*
X146111394Y-106646607D01*
X146111393Y-106646607D01*
X146111395Y-106646606D01*
X146250370Y-106572322D01*
X146250372Y-106572321D01*
X146401173Y-106526576D01*
X146479529Y-106518859D01*
X146518706Y-106515000D01*
X146597294Y-106515000D01*
X146636471Y-106518859D01*
X146636471Y-106518859D01*
G37*
G36*
X159336471Y-106518859D02*
G01*
X159414827Y-106526576D01*
X159565628Y-106572321D01*
X159565630Y-106572322D01*
X159704605Y-106646606D01*
X159704607Y-106646607D01*
X159704606Y-106646607D01*
X159826422Y-106746578D01*
X159926393Y-106868394D01*
X160000679Y-107007372D01*
X160046424Y-107158173D01*
X160061870Y-107315000D01*
X160046424Y-107471827D01*
X160018608Y-107563523D01*
X160000678Y-107622630D01*
X159926394Y-107761605D01*
X159826422Y-107883422D01*
X159704605Y-107983394D01*
X159565630Y-108057678D01*
X159565628Y-108057679D01*
X159414827Y-108103424D01*
X159336471Y-108111141D01*
X159297294Y-108115000D01*
X159218706Y-108115000D01*
X159179529Y-108111141D01*
X159101173Y-108103424D01*
X158950372Y-108057679D01*
X158950370Y-108057678D01*
X158811395Y-107983394D01*
X158689578Y-107883422D01*
X158589606Y-107761605D01*
X158515322Y-107622630D01*
X158497392Y-107563523D01*
X158469576Y-107471827D01*
X158454130Y-107315000D01*
X158469576Y-107158173D01*
X158515321Y-107007372D01*
X158589607Y-106868394D01*
X158689578Y-106746578D01*
X158811394Y-106646607D01*
X158811393Y-106646607D01*
X158811395Y-106646606D01*
X158950370Y-106572322D01*
X158950372Y-106572321D01*
X159101173Y-106526576D01*
X159179529Y-106518859D01*
X159218706Y-106515000D01*
X159297294Y-106515000D01*
X159336471Y-106518859D01*
X159336471Y-106518859D01*
G37*
G36*
X144096471Y-106518859D02*
G01*
X144174827Y-106526576D01*
X144325628Y-106572321D01*
X144325630Y-106572322D01*
X144464605Y-106646606D01*
X144464607Y-106646607D01*
X144464606Y-106646607D01*
X144586422Y-106746578D01*
X144686393Y-106868394D01*
X144760679Y-107007372D01*
X144806424Y-107158173D01*
X144821870Y-107315000D01*
X144806424Y-107471827D01*
X144778608Y-107563523D01*
X144760678Y-107622630D01*
X144686394Y-107761605D01*
X144586422Y-107883422D01*
X144464605Y-107983394D01*
X144325630Y-108057678D01*
X144325628Y-108057679D01*
X144174827Y-108103424D01*
X144096471Y-108111141D01*
X144057294Y-108115000D01*
X143978706Y-108115000D01*
X143939529Y-108111141D01*
X143861173Y-108103424D01*
X143710372Y-108057679D01*
X143710370Y-108057678D01*
X143571395Y-107983394D01*
X143449578Y-107883422D01*
X143349606Y-107761605D01*
X143275322Y-107622630D01*
X143257392Y-107563523D01*
X143229576Y-107471827D01*
X143214130Y-107315000D01*
X143229576Y-107158173D01*
X143275321Y-107007372D01*
X143349607Y-106868394D01*
X143449578Y-106746578D01*
X143571394Y-106646607D01*
X143571393Y-106646607D01*
X143571395Y-106646606D01*
X143710370Y-106572322D01*
X143710372Y-106572321D01*
X143861173Y-106526576D01*
X143939529Y-106518859D01*
X143978706Y-106515000D01*
X144057294Y-106515000D01*
X144096471Y-106518859D01*
X144096471Y-106518859D01*
G37*
G36*
X161876471Y-106518859D02*
G01*
X161954827Y-106526576D01*
X162105628Y-106572321D01*
X162105630Y-106572322D01*
X162244605Y-106646606D01*
X162244607Y-106646607D01*
X162244606Y-106646607D01*
X162366422Y-106746578D01*
X162466393Y-106868394D01*
X162540679Y-107007372D01*
X162586424Y-107158173D01*
X162601870Y-107315000D01*
X162586424Y-107471827D01*
X162558608Y-107563523D01*
X162540678Y-107622630D01*
X162466394Y-107761605D01*
X162366422Y-107883422D01*
X162244605Y-107983394D01*
X162105630Y-108057678D01*
X162105628Y-108057679D01*
X161954827Y-108103424D01*
X161876471Y-108111141D01*
X161837294Y-108115000D01*
X161758706Y-108115000D01*
X161719529Y-108111141D01*
X161641173Y-108103424D01*
X161490372Y-108057679D01*
X161490370Y-108057678D01*
X161351395Y-107983394D01*
X161229578Y-107883422D01*
X161129606Y-107761605D01*
X161055322Y-107622630D01*
X161037392Y-107563523D01*
X161009576Y-107471827D01*
X160994130Y-107315000D01*
X161009576Y-107158173D01*
X161055321Y-107007372D01*
X161129607Y-106868394D01*
X161229578Y-106746578D01*
X161351394Y-106646607D01*
X161351393Y-106646607D01*
X161351395Y-106646606D01*
X161490370Y-106572322D01*
X161490372Y-106572321D01*
X161641173Y-106526576D01*
X161719529Y-106518859D01*
X161758706Y-106515000D01*
X161837294Y-106515000D01*
X161876471Y-106518859D01*
X161876471Y-106518859D01*
G37*
G36*
X164416471Y-106518859D02*
G01*
X164494827Y-106526576D01*
X164645628Y-106572321D01*
X164645630Y-106572322D01*
X164784605Y-106646606D01*
X164784607Y-106646607D01*
X164784606Y-106646607D01*
X164906422Y-106746578D01*
X165006393Y-106868394D01*
X165080679Y-107007372D01*
X165126424Y-107158173D01*
X165141870Y-107315000D01*
X165126424Y-107471827D01*
X165098608Y-107563523D01*
X165080678Y-107622630D01*
X165006394Y-107761605D01*
X164906422Y-107883422D01*
X164784605Y-107983394D01*
X164645630Y-108057678D01*
X164645628Y-108057679D01*
X164494827Y-108103424D01*
X164416471Y-108111141D01*
X164377294Y-108115000D01*
X164298706Y-108115000D01*
X164259529Y-108111141D01*
X164181173Y-108103424D01*
X164030372Y-108057679D01*
X164030370Y-108057678D01*
X163891395Y-107983394D01*
X163769578Y-107883422D01*
X163669606Y-107761605D01*
X163595322Y-107622630D01*
X163577392Y-107563523D01*
X163549576Y-107471827D01*
X163534130Y-107315000D01*
X163549576Y-107158173D01*
X163595321Y-107007372D01*
X163669607Y-106868394D01*
X163769578Y-106746578D01*
X163891394Y-106646607D01*
X163891393Y-106646607D01*
X163891395Y-106646606D01*
X164030370Y-106572322D01*
X164030372Y-106572321D01*
X164181173Y-106526576D01*
X164259529Y-106518859D01*
X164298706Y-106515000D01*
X164377294Y-106515000D01*
X164416471Y-106518859D01*
X164416471Y-106518859D01*
G37*
G36*
X166956471Y-106518859D02*
G01*
X167034827Y-106526576D01*
X167185628Y-106572321D01*
X167185630Y-106572322D01*
X167324605Y-106646606D01*
X167324607Y-106646607D01*
X167324606Y-106646607D01*
X167446422Y-106746578D01*
X167546393Y-106868394D01*
X167620679Y-107007372D01*
X167666424Y-107158173D01*
X167681870Y-107315000D01*
X167666424Y-107471827D01*
X167638608Y-107563523D01*
X167620678Y-107622630D01*
X167546394Y-107761605D01*
X167446422Y-107883422D01*
X167324605Y-107983394D01*
X167185630Y-108057678D01*
X167185628Y-108057679D01*
X167034827Y-108103424D01*
X166956471Y-108111141D01*
X166917294Y-108115000D01*
X166838706Y-108115000D01*
X166799529Y-108111141D01*
X166721173Y-108103424D01*
X166570372Y-108057679D01*
X166570370Y-108057678D01*
X166431395Y-107983394D01*
X166309578Y-107883422D01*
X166209606Y-107761605D01*
X166135322Y-107622630D01*
X166117392Y-107563523D01*
X166089576Y-107471827D01*
X166074130Y-107315000D01*
X166089576Y-107158173D01*
X166135321Y-107007372D01*
X166209607Y-106868394D01*
X166309578Y-106746578D01*
X166431394Y-106646607D01*
X166431393Y-106646607D01*
X166431395Y-106646606D01*
X166570370Y-106572322D01*
X166570372Y-106572321D01*
X166721173Y-106526576D01*
X166799529Y-106518859D01*
X166838706Y-106515000D01*
X166917294Y-106515000D01*
X166956471Y-106518859D01*
X166956471Y-106518859D01*
G37*
G36*
X169496471Y-106518859D02*
G01*
X169574827Y-106526576D01*
X169725628Y-106572321D01*
X169725630Y-106572322D01*
X169864605Y-106646606D01*
X169864607Y-106646607D01*
X169864606Y-106646607D01*
X169986422Y-106746578D01*
X170086393Y-106868394D01*
X170160679Y-107007372D01*
X170206424Y-107158173D01*
X170221870Y-107315000D01*
X170206424Y-107471827D01*
X170178608Y-107563523D01*
X170160678Y-107622630D01*
X170086394Y-107761605D01*
X169986422Y-107883422D01*
X169864605Y-107983394D01*
X169725630Y-108057678D01*
X169725628Y-108057679D01*
X169574827Y-108103424D01*
X169496471Y-108111141D01*
X169457294Y-108115000D01*
X169378706Y-108115000D01*
X169339529Y-108111141D01*
X169261173Y-108103424D01*
X169110372Y-108057679D01*
X169110370Y-108057678D01*
X168971395Y-107983394D01*
X168849578Y-107883422D01*
X168749606Y-107761605D01*
X168675322Y-107622630D01*
X168657392Y-107563523D01*
X168629576Y-107471827D01*
X168614130Y-107315000D01*
X168629576Y-107158173D01*
X168675321Y-107007372D01*
X168749607Y-106868394D01*
X168849578Y-106746578D01*
X168971394Y-106646607D01*
X168971393Y-106646607D01*
X168971395Y-106646606D01*
X169110370Y-106572322D01*
X169110372Y-106572321D01*
X169261173Y-106526576D01*
X169339529Y-106518859D01*
X169378706Y-106515000D01*
X169457294Y-106515000D01*
X169496471Y-106518859D01*
X169496471Y-106518859D01*
G37*
G36*
X151716471Y-106518859D02*
G01*
X151794827Y-106526576D01*
X151945628Y-106572321D01*
X151945630Y-106572322D01*
X152084605Y-106646606D01*
X152084607Y-106646607D01*
X152084606Y-106646607D01*
X152206422Y-106746578D01*
X152306393Y-106868394D01*
X152380679Y-107007372D01*
X152426424Y-107158173D01*
X152441870Y-107315000D01*
X152426424Y-107471827D01*
X152398608Y-107563523D01*
X152380678Y-107622630D01*
X152306394Y-107761605D01*
X152206422Y-107883422D01*
X152084605Y-107983394D01*
X151945630Y-108057678D01*
X151945628Y-108057679D01*
X151794827Y-108103424D01*
X151716471Y-108111141D01*
X151677294Y-108115000D01*
X151598706Y-108115000D01*
X151559529Y-108111141D01*
X151481173Y-108103424D01*
X151330372Y-108057679D01*
X151330370Y-108057678D01*
X151191395Y-107983394D01*
X151069578Y-107883422D01*
X150969606Y-107761605D01*
X150895322Y-107622630D01*
X150877392Y-107563523D01*
X150849576Y-107471827D01*
X150834130Y-107315000D01*
X150849576Y-107158173D01*
X150895321Y-107007372D01*
X150969607Y-106868394D01*
X151069578Y-106746578D01*
X151191394Y-106646607D01*
X151191393Y-106646607D01*
X151191395Y-106646606D01*
X151330370Y-106572322D01*
X151330372Y-106572321D01*
X151481173Y-106526576D01*
X151559529Y-106518859D01*
X151598706Y-106515000D01*
X151677294Y-106515000D01*
X151716471Y-106518859D01*
X151716471Y-106518859D01*
G37*
G36*
X149176471Y-106518859D02*
G01*
X149254827Y-106526576D01*
X149405628Y-106572321D01*
X149405630Y-106572322D01*
X149544605Y-106646606D01*
X149544607Y-106646607D01*
X149544606Y-106646607D01*
X149666422Y-106746578D01*
X149766393Y-106868394D01*
X149840679Y-107007372D01*
X149886424Y-107158173D01*
X149901870Y-107315000D01*
X149886424Y-107471827D01*
X149858608Y-107563523D01*
X149840678Y-107622630D01*
X149766394Y-107761605D01*
X149666422Y-107883422D01*
X149544605Y-107983394D01*
X149405630Y-108057678D01*
X149405628Y-108057679D01*
X149254827Y-108103424D01*
X149176471Y-108111141D01*
X149137294Y-108115000D01*
X149058706Y-108115000D01*
X149019529Y-108111141D01*
X148941173Y-108103424D01*
X148790372Y-108057679D01*
X148790370Y-108057678D01*
X148651395Y-107983394D01*
X148529578Y-107883422D01*
X148429606Y-107761605D01*
X148355322Y-107622630D01*
X148337392Y-107563523D01*
X148309576Y-107471827D01*
X148294130Y-107315000D01*
X148309576Y-107158173D01*
X148355321Y-107007372D01*
X148429607Y-106868394D01*
X148529578Y-106746578D01*
X148651394Y-106646607D01*
X148651393Y-106646607D01*
X148651395Y-106646606D01*
X148790370Y-106572322D01*
X148790372Y-106572321D01*
X148941173Y-106526576D01*
X149019529Y-106518859D01*
X149058706Y-106515000D01*
X149137294Y-106515000D01*
X149176471Y-106518859D01*
X149176471Y-106518859D01*
G37*
G36*
X178025000Y-106133000D02*
G01*
X176325000Y-106133000D01*
X176325000Y-104433000D01*
X178025000Y-104433000D01*
X178025000Y-106133000D01*
X178025000Y-106133000D01*
G37*
G36*
X114733377Y-99778858D02*
G01*
X115097353Y-99929622D01*
X115097355Y-99929623D01*
X115262251Y-100039803D01*
X115424925Y-100148498D01*
X115703502Y-100427075D01*
X115922378Y-100754647D01*
X116073142Y-101118623D01*
X116150000Y-101505016D01*
X116150000Y-101898984D01*
X116073142Y-102285377D01*
X116000607Y-102460491D01*
X115922377Y-102649355D01*
X115703501Y-102976926D01*
X115424926Y-103255501D01*
X115097355Y-103474377D01*
X115097354Y-103474378D01*
X115097353Y-103474378D01*
X114733377Y-103625142D01*
X114346984Y-103702000D01*
X113953016Y-103702000D01*
X113566623Y-103625142D01*
X113202647Y-103474378D01*
X113202646Y-103474378D01*
X113202645Y-103474377D01*
X112875074Y-103255501D01*
X112596499Y-102976926D01*
X112377623Y-102649355D01*
X112299393Y-102460491D01*
X112226858Y-102285377D01*
X112150000Y-101898984D01*
X112150000Y-101505016D01*
X112226858Y-101118623D01*
X112377622Y-100754647D01*
X112596498Y-100427075D01*
X112875075Y-100148498D01*
X113037749Y-100039803D01*
X113202645Y-99929623D01*
X113202647Y-99929622D01*
X113566623Y-99778858D01*
X113953016Y-99702000D01*
X114346984Y-99702000D01*
X114733377Y-99778858D01*
X114733377Y-99778858D01*
G37*
G36*
X120813290Y-101387619D02*
G01*
X120877689Y-101400429D01*
X121059678Y-101475811D01*
X121223463Y-101585249D01*
X121362751Y-101724537D01*
X121472189Y-101888322D01*
X121547571Y-102070311D01*
X121586000Y-102263509D01*
X121586000Y-102460491D01*
X121547571Y-102653689D01*
X121472189Y-102835678D01*
X121362751Y-102999463D01*
X121223463Y-103138751D01*
X121059678Y-103248189D01*
X120877689Y-103323571D01*
X120813290Y-103336381D01*
X120684493Y-103362000D01*
X120487507Y-103362000D01*
X120358710Y-103336381D01*
X120294311Y-103323571D01*
X120112322Y-103248189D01*
X119948537Y-103138751D01*
X119809249Y-102999463D01*
X119699811Y-102835678D01*
X119624429Y-102653689D01*
X119586000Y-102460491D01*
X119586000Y-102263509D01*
X119624429Y-102070311D01*
X119699811Y-101888322D01*
X119809249Y-101724537D01*
X119948537Y-101585249D01*
X120112322Y-101475811D01*
X120294311Y-101400429D01*
X120358710Y-101387619D01*
X120487507Y-101362000D01*
X120684493Y-101362000D01*
X120813290Y-101387619D01*
X120813290Y-101387619D01*
G37*
G36*
X128313290Y-101387619D02*
G01*
X128377689Y-101400429D01*
X128559678Y-101475811D01*
X128723463Y-101585249D01*
X128862751Y-101724537D01*
X128972189Y-101888322D01*
X129047571Y-102070311D01*
X129086000Y-102263509D01*
X129086000Y-102460491D01*
X129047571Y-102653689D01*
X128972189Y-102835678D01*
X128862751Y-102999463D01*
X128723463Y-103138751D01*
X128559678Y-103248189D01*
X128377689Y-103323571D01*
X128313290Y-103336381D01*
X128184493Y-103362000D01*
X127987507Y-103362000D01*
X127858710Y-103336381D01*
X127794311Y-103323571D01*
X127612322Y-103248189D01*
X127448537Y-103138751D01*
X127309249Y-102999463D01*
X127199811Y-102835678D01*
X127124429Y-102653689D01*
X127086000Y-102460491D01*
X127086000Y-102263509D01*
X127124429Y-102070311D01*
X127199811Y-101888322D01*
X127309249Y-101724537D01*
X127448537Y-101585249D01*
X127612322Y-101475811D01*
X127794311Y-101400429D01*
X127858710Y-101387619D01*
X127987507Y-101362000D01*
X128184493Y-101362000D01*
X128313290Y-101387619D01*
X128313290Y-101387619D01*
G37*
G36*
X174791627Y-100127299D02*
G01*
X174838791Y-100141606D01*
X174951855Y-100175903D01*
X174951857Y-100175904D01*
X175099518Y-100254831D01*
X175228949Y-100361051D01*
X175335169Y-100490482D01*
X175414096Y-100638143D01*
X175462701Y-100798373D01*
X175479112Y-100965000D01*
X175462701Y-101131627D01*
X175414096Y-101291857D01*
X175335169Y-101439518D01*
X175228949Y-101568949D01*
X175099518Y-101675169D01*
X174951857Y-101754096D01*
X174951855Y-101754097D01*
X174871742Y-101778399D01*
X174791627Y-101802701D01*
X174666752Y-101815000D01*
X174583248Y-101815000D01*
X174458373Y-101802701D01*
X174378258Y-101778399D01*
X174298145Y-101754097D01*
X174298143Y-101754096D01*
X174150482Y-101675169D01*
X174021051Y-101568949D01*
X173914831Y-101439518D01*
X173835904Y-101291857D01*
X173787299Y-101131627D01*
X173770888Y-100965000D01*
X173787299Y-100798373D01*
X173835904Y-100638143D01*
X173914831Y-100490482D01*
X174021051Y-100361051D01*
X174150482Y-100254831D01*
X174298143Y-100175904D01*
X174298145Y-100175903D01*
X174411209Y-100141606D01*
X174458373Y-100127299D01*
X174583248Y-100115000D01*
X174666752Y-100115000D01*
X174791627Y-100127299D01*
X174791627Y-100127299D01*
G37*
G36*
X177331627Y-100127299D02*
G01*
X177378791Y-100141606D01*
X177491855Y-100175903D01*
X177491857Y-100175904D01*
X177639518Y-100254831D01*
X177768949Y-100361051D01*
X177875169Y-100490482D01*
X177954096Y-100638143D01*
X178002701Y-100798373D01*
X178019112Y-100965000D01*
X178002701Y-101131627D01*
X177954096Y-101291857D01*
X177875169Y-101439518D01*
X177768949Y-101568949D01*
X177639518Y-101675169D01*
X177491857Y-101754096D01*
X177491855Y-101754097D01*
X177411742Y-101778399D01*
X177331627Y-101802701D01*
X177206752Y-101815000D01*
X177123248Y-101815000D01*
X176998373Y-101802701D01*
X176918258Y-101778399D01*
X176838145Y-101754097D01*
X176838143Y-101754096D01*
X176690482Y-101675169D01*
X176561051Y-101568949D01*
X176454831Y-101439518D01*
X176375904Y-101291857D01*
X176327299Y-101131627D01*
X176310888Y-100965000D01*
X176327299Y-100798373D01*
X176375904Y-100638143D01*
X176454831Y-100490482D01*
X176561051Y-100361051D01*
X176690482Y-100254831D01*
X176838143Y-100175904D01*
X176838145Y-100175903D01*
X176951209Y-100141606D01*
X176998373Y-100127299D01*
X177123248Y-100115000D01*
X177206752Y-100115000D01*
X177331627Y-100127299D01*
X177331627Y-100127299D01*
G37*
G36*
X144096471Y-98898859D02*
G01*
X144174827Y-98906576D01*
X144325628Y-98952321D01*
X144325630Y-98952322D01*
X144464605Y-99026606D01*
X144586422Y-99126578D01*
X144686394Y-99248395D01*
X144760678Y-99387370D01*
X144760679Y-99387372D01*
X144806424Y-99538173D01*
X144821870Y-99695000D01*
X144806424Y-99851827D01*
X144760679Y-100002628D01*
X144760678Y-100002630D01*
X144686394Y-100141605D01*
X144586422Y-100263422D01*
X144464605Y-100363394D01*
X144325630Y-100437678D01*
X144325628Y-100437679D01*
X144174827Y-100483424D01*
X144103165Y-100490482D01*
X144057294Y-100495000D01*
X143978706Y-100495000D01*
X143932835Y-100490482D01*
X143861173Y-100483424D01*
X143710372Y-100437679D01*
X143710370Y-100437678D01*
X143571395Y-100363394D01*
X143449578Y-100263422D01*
X143349606Y-100141605D01*
X143275322Y-100002630D01*
X143275321Y-100002628D01*
X143229576Y-99851827D01*
X143214130Y-99695000D01*
X143229576Y-99538173D01*
X143275321Y-99387372D01*
X143275322Y-99387370D01*
X143349606Y-99248395D01*
X143449578Y-99126578D01*
X143571395Y-99026606D01*
X143710370Y-98952322D01*
X143710372Y-98952321D01*
X143861173Y-98906576D01*
X143939529Y-98898859D01*
X143978706Y-98895000D01*
X144057294Y-98895000D01*
X144096471Y-98898859D01*
X144096471Y-98898859D01*
G37*
G36*
X146636471Y-98898859D02*
G01*
X146714827Y-98906576D01*
X146865628Y-98952321D01*
X146865630Y-98952322D01*
X147004605Y-99026606D01*
X147126422Y-99126578D01*
X147226394Y-99248395D01*
X147300678Y-99387370D01*
X147300679Y-99387372D01*
X147346424Y-99538173D01*
X147361870Y-99695000D01*
X147346424Y-99851827D01*
X147300679Y-100002628D01*
X147300678Y-100002630D01*
X147226394Y-100141605D01*
X147126422Y-100263422D01*
X147004605Y-100363394D01*
X146865630Y-100437678D01*
X146865628Y-100437679D01*
X146714827Y-100483424D01*
X146643165Y-100490482D01*
X146597294Y-100495000D01*
X146518706Y-100495000D01*
X146472835Y-100490482D01*
X146401173Y-100483424D01*
X146250372Y-100437679D01*
X146250370Y-100437678D01*
X146111395Y-100363394D01*
X145989578Y-100263422D01*
X145889606Y-100141605D01*
X145815322Y-100002630D01*
X145815321Y-100002628D01*
X145769576Y-99851827D01*
X145754130Y-99695000D01*
X145769576Y-99538173D01*
X145815321Y-99387372D01*
X145815322Y-99387370D01*
X145889606Y-99248395D01*
X145989578Y-99126578D01*
X146111395Y-99026606D01*
X146250370Y-98952322D01*
X146250372Y-98952321D01*
X146401173Y-98906576D01*
X146479529Y-98898859D01*
X146518706Y-98895000D01*
X146597294Y-98895000D01*
X146636471Y-98898859D01*
X146636471Y-98898859D01*
G37*
G36*
X141556471Y-98898859D02*
G01*
X141634827Y-98906576D01*
X141785628Y-98952321D01*
X141785630Y-98952322D01*
X141924605Y-99026606D01*
X142046422Y-99126578D01*
X142146394Y-99248395D01*
X142220678Y-99387370D01*
X142220679Y-99387372D01*
X142266424Y-99538173D01*
X142281870Y-99695000D01*
X142266424Y-99851827D01*
X142220679Y-100002628D01*
X142220678Y-100002630D01*
X142146394Y-100141605D01*
X142046422Y-100263422D01*
X141924605Y-100363394D01*
X141785630Y-100437678D01*
X141785628Y-100437679D01*
X141634827Y-100483424D01*
X141563165Y-100490482D01*
X141517294Y-100495000D01*
X141438706Y-100495000D01*
X141392835Y-100490482D01*
X141321173Y-100483424D01*
X141170372Y-100437679D01*
X141170370Y-100437678D01*
X141031395Y-100363394D01*
X140909578Y-100263422D01*
X140809606Y-100141605D01*
X140735322Y-100002630D01*
X140735321Y-100002628D01*
X140689576Y-99851827D01*
X140674130Y-99695000D01*
X140689576Y-99538173D01*
X140735321Y-99387372D01*
X140735322Y-99387370D01*
X140809606Y-99248395D01*
X140909578Y-99126578D01*
X141031395Y-99026606D01*
X141170370Y-98952322D01*
X141170372Y-98952321D01*
X141321173Y-98906576D01*
X141399529Y-98898859D01*
X141438706Y-98895000D01*
X141517294Y-98895000D01*
X141556471Y-98898859D01*
X141556471Y-98898859D01*
G37*
G36*
X156796471Y-98898859D02*
G01*
X156874827Y-98906576D01*
X157025628Y-98952321D01*
X157025630Y-98952322D01*
X157164605Y-99026606D01*
X157286422Y-99126578D01*
X157386394Y-99248395D01*
X157460678Y-99387370D01*
X157460679Y-99387372D01*
X157506424Y-99538173D01*
X157521870Y-99695000D01*
X157506424Y-99851827D01*
X157460679Y-100002628D01*
X157460678Y-100002630D01*
X157386394Y-100141605D01*
X157286422Y-100263422D01*
X157164605Y-100363394D01*
X157025630Y-100437678D01*
X157025628Y-100437679D01*
X156874827Y-100483424D01*
X156803165Y-100490482D01*
X156757294Y-100495000D01*
X156678706Y-100495000D01*
X156632835Y-100490482D01*
X156561173Y-100483424D01*
X156410372Y-100437679D01*
X156410370Y-100437678D01*
X156271395Y-100363394D01*
X156149578Y-100263422D01*
X156049606Y-100141605D01*
X155975322Y-100002630D01*
X155975321Y-100002628D01*
X155929576Y-99851827D01*
X155914130Y-99695000D01*
X155929576Y-99538173D01*
X155975321Y-99387372D01*
X155975322Y-99387370D01*
X156049606Y-99248395D01*
X156149578Y-99126578D01*
X156271395Y-99026606D01*
X156410370Y-98952322D01*
X156410372Y-98952321D01*
X156561173Y-98906576D01*
X156639529Y-98898859D01*
X156678706Y-98895000D01*
X156757294Y-98895000D01*
X156796471Y-98898859D01*
X156796471Y-98898859D01*
G37*
G36*
X154256471Y-98898859D02*
G01*
X154334827Y-98906576D01*
X154485628Y-98952321D01*
X154485630Y-98952322D01*
X154624605Y-99026606D01*
X154746422Y-99126578D01*
X154846394Y-99248395D01*
X154920678Y-99387370D01*
X154920679Y-99387372D01*
X154966424Y-99538173D01*
X154981870Y-99695000D01*
X154966424Y-99851827D01*
X154920679Y-100002628D01*
X154920678Y-100002630D01*
X154846394Y-100141605D01*
X154746422Y-100263422D01*
X154624605Y-100363394D01*
X154485630Y-100437678D01*
X154485628Y-100437679D01*
X154334827Y-100483424D01*
X154263165Y-100490482D01*
X154217294Y-100495000D01*
X154138706Y-100495000D01*
X154092835Y-100490482D01*
X154021173Y-100483424D01*
X153870372Y-100437679D01*
X153870370Y-100437678D01*
X153731395Y-100363394D01*
X153609578Y-100263422D01*
X153509606Y-100141605D01*
X153435322Y-100002630D01*
X153435321Y-100002628D01*
X153389576Y-99851827D01*
X153374130Y-99695000D01*
X153389576Y-99538173D01*
X153435321Y-99387372D01*
X153435322Y-99387370D01*
X153509606Y-99248395D01*
X153609578Y-99126578D01*
X153731395Y-99026606D01*
X153870370Y-98952322D01*
X153870372Y-98952321D01*
X154021173Y-98906576D01*
X154099529Y-98898859D01*
X154138706Y-98895000D01*
X154217294Y-98895000D01*
X154256471Y-98898859D01*
X154256471Y-98898859D01*
G37*
G36*
X151716471Y-98898859D02*
G01*
X151794827Y-98906576D01*
X151945628Y-98952321D01*
X151945630Y-98952322D01*
X152084605Y-99026606D01*
X152206422Y-99126578D01*
X152306394Y-99248395D01*
X152380678Y-99387370D01*
X152380679Y-99387372D01*
X152426424Y-99538173D01*
X152441870Y-99695000D01*
X152426424Y-99851827D01*
X152380679Y-100002628D01*
X152380678Y-100002630D01*
X152306394Y-100141605D01*
X152206422Y-100263422D01*
X152084605Y-100363394D01*
X151945630Y-100437678D01*
X151945628Y-100437679D01*
X151794827Y-100483424D01*
X151723165Y-100490482D01*
X151677294Y-100495000D01*
X151598706Y-100495000D01*
X151552835Y-100490482D01*
X151481173Y-100483424D01*
X151330372Y-100437679D01*
X151330370Y-100437678D01*
X151191395Y-100363394D01*
X151069578Y-100263422D01*
X150969606Y-100141605D01*
X150895322Y-100002630D01*
X150895321Y-100002628D01*
X150849576Y-99851827D01*
X150834130Y-99695000D01*
X150849576Y-99538173D01*
X150895321Y-99387372D01*
X150895322Y-99387370D01*
X150969606Y-99248395D01*
X151069578Y-99126578D01*
X151191395Y-99026606D01*
X151330370Y-98952322D01*
X151330372Y-98952321D01*
X151481173Y-98906576D01*
X151559529Y-98898859D01*
X151598706Y-98895000D01*
X151677294Y-98895000D01*
X151716471Y-98898859D01*
X151716471Y-98898859D01*
G37*
G36*
X149176471Y-98898859D02*
G01*
X149254827Y-98906576D01*
X149405628Y-98952321D01*
X149405630Y-98952322D01*
X149544605Y-99026606D01*
X149666422Y-99126578D01*
X149766394Y-99248395D01*
X149840678Y-99387370D01*
X149840679Y-99387372D01*
X149886424Y-99538173D01*
X149901870Y-99695000D01*
X149886424Y-99851827D01*
X149840679Y-100002628D01*
X149840678Y-100002630D01*
X149766394Y-100141605D01*
X149666422Y-100263422D01*
X149544605Y-100363394D01*
X149405630Y-100437678D01*
X149405628Y-100437679D01*
X149254827Y-100483424D01*
X149183165Y-100490482D01*
X149137294Y-100495000D01*
X149058706Y-100495000D01*
X149012835Y-100490482D01*
X148941173Y-100483424D01*
X148790372Y-100437679D01*
X148790370Y-100437678D01*
X148651395Y-100363394D01*
X148529578Y-100263422D01*
X148429606Y-100141605D01*
X148355322Y-100002630D01*
X148355321Y-100002628D01*
X148309576Y-99851827D01*
X148294130Y-99695000D01*
X148309576Y-99538173D01*
X148355321Y-99387372D01*
X148355322Y-99387370D01*
X148429606Y-99248395D01*
X148529578Y-99126578D01*
X148651395Y-99026606D01*
X148790370Y-98952322D01*
X148790372Y-98952321D01*
X148941173Y-98906576D01*
X149019529Y-98898859D01*
X149058706Y-98895000D01*
X149137294Y-98895000D01*
X149176471Y-98898859D01*
X149176471Y-98898859D01*
G37*
G36*
X161876471Y-98898859D02*
G01*
X161954827Y-98906576D01*
X162105628Y-98952321D01*
X162105630Y-98952322D01*
X162244605Y-99026606D01*
X162366422Y-99126578D01*
X162466394Y-99248395D01*
X162540678Y-99387370D01*
X162540679Y-99387372D01*
X162586424Y-99538173D01*
X162601870Y-99695000D01*
X162586424Y-99851827D01*
X162540679Y-100002628D01*
X162540678Y-100002630D01*
X162466394Y-100141605D01*
X162366422Y-100263422D01*
X162244605Y-100363394D01*
X162105630Y-100437678D01*
X162105628Y-100437679D01*
X161954827Y-100483424D01*
X161883165Y-100490482D01*
X161837294Y-100495000D01*
X161758706Y-100495000D01*
X161712835Y-100490482D01*
X161641173Y-100483424D01*
X161490372Y-100437679D01*
X161490370Y-100437678D01*
X161351395Y-100363394D01*
X161229578Y-100263422D01*
X161129606Y-100141605D01*
X161055322Y-100002630D01*
X161055321Y-100002628D01*
X161009576Y-99851827D01*
X160994130Y-99695000D01*
X161009576Y-99538173D01*
X161055321Y-99387372D01*
X161055322Y-99387370D01*
X161129606Y-99248395D01*
X161229578Y-99126578D01*
X161351395Y-99026606D01*
X161490370Y-98952322D01*
X161490372Y-98952321D01*
X161641173Y-98906576D01*
X161719529Y-98898859D01*
X161758706Y-98895000D01*
X161837294Y-98895000D01*
X161876471Y-98898859D01*
X161876471Y-98898859D01*
G37*
G36*
X139016471Y-98898859D02*
G01*
X139094827Y-98906576D01*
X139245628Y-98952321D01*
X139245630Y-98952322D01*
X139384605Y-99026606D01*
X139506422Y-99126578D01*
X139606394Y-99248395D01*
X139680678Y-99387370D01*
X139680679Y-99387372D01*
X139726424Y-99538173D01*
X139741870Y-99695000D01*
X139726424Y-99851827D01*
X139680679Y-100002628D01*
X139680678Y-100002630D01*
X139606394Y-100141605D01*
X139506422Y-100263422D01*
X139384605Y-100363394D01*
X139245630Y-100437678D01*
X139245628Y-100437679D01*
X139094827Y-100483424D01*
X139023165Y-100490482D01*
X138977294Y-100495000D01*
X138898706Y-100495000D01*
X138852835Y-100490482D01*
X138781173Y-100483424D01*
X138630372Y-100437679D01*
X138630370Y-100437678D01*
X138491395Y-100363394D01*
X138369578Y-100263422D01*
X138269606Y-100141605D01*
X138195322Y-100002630D01*
X138195321Y-100002628D01*
X138149576Y-99851827D01*
X138134130Y-99695000D01*
X138149576Y-99538173D01*
X138195321Y-99387372D01*
X138195322Y-99387370D01*
X138269606Y-99248395D01*
X138369578Y-99126578D01*
X138491395Y-99026606D01*
X138630370Y-98952322D01*
X138630372Y-98952321D01*
X138781173Y-98906576D01*
X138859529Y-98898859D01*
X138898706Y-98895000D01*
X138977294Y-98895000D01*
X139016471Y-98898859D01*
X139016471Y-98898859D01*
G37*
G36*
X159336471Y-98898859D02*
G01*
X159414827Y-98906576D01*
X159565628Y-98952321D01*
X159565630Y-98952322D01*
X159704605Y-99026606D01*
X159826422Y-99126578D01*
X159926394Y-99248395D01*
X160000678Y-99387370D01*
X160000679Y-99387372D01*
X160046424Y-99538173D01*
X160061870Y-99695000D01*
X160046424Y-99851827D01*
X160000679Y-100002628D01*
X160000678Y-100002630D01*
X159926394Y-100141605D01*
X159826422Y-100263422D01*
X159704605Y-100363394D01*
X159565630Y-100437678D01*
X159565628Y-100437679D01*
X159414827Y-100483424D01*
X159343165Y-100490482D01*
X159297294Y-100495000D01*
X159218706Y-100495000D01*
X159172835Y-100490482D01*
X159101173Y-100483424D01*
X158950372Y-100437679D01*
X158950370Y-100437678D01*
X158811395Y-100363394D01*
X158689578Y-100263422D01*
X158589606Y-100141605D01*
X158515322Y-100002630D01*
X158515321Y-100002628D01*
X158469576Y-99851827D01*
X158454130Y-99695000D01*
X158469576Y-99538173D01*
X158515321Y-99387372D01*
X158515322Y-99387370D01*
X158589606Y-99248395D01*
X158689578Y-99126578D01*
X158811395Y-99026606D01*
X158950370Y-98952322D01*
X158950372Y-98952321D01*
X159101173Y-98906576D01*
X159179529Y-98898859D01*
X159218706Y-98895000D01*
X159297294Y-98895000D01*
X159336471Y-98898859D01*
X159336471Y-98898859D01*
G37*
G36*
X166956471Y-98898859D02*
G01*
X167034827Y-98906576D01*
X167185628Y-98952321D01*
X167185630Y-98952322D01*
X167324605Y-99026606D01*
X167446422Y-99126578D01*
X167546394Y-99248395D01*
X167620678Y-99387370D01*
X167620679Y-99387372D01*
X167666424Y-99538173D01*
X167681870Y-99695000D01*
X167666424Y-99851827D01*
X167620679Y-100002628D01*
X167620678Y-100002630D01*
X167546394Y-100141605D01*
X167446422Y-100263422D01*
X167324605Y-100363394D01*
X167185630Y-100437678D01*
X167185628Y-100437679D01*
X167034827Y-100483424D01*
X166963165Y-100490482D01*
X166917294Y-100495000D01*
X166838706Y-100495000D01*
X166792835Y-100490482D01*
X166721173Y-100483424D01*
X166570372Y-100437679D01*
X166570370Y-100437678D01*
X166431395Y-100363394D01*
X166309578Y-100263422D01*
X166209606Y-100141605D01*
X166135322Y-100002630D01*
X166135321Y-100002628D01*
X166089576Y-99851827D01*
X166074130Y-99695000D01*
X166089576Y-99538173D01*
X166135321Y-99387372D01*
X166135322Y-99387370D01*
X166209606Y-99248395D01*
X166309578Y-99126578D01*
X166431395Y-99026606D01*
X166570370Y-98952322D01*
X166570372Y-98952321D01*
X166721173Y-98906576D01*
X166799529Y-98898859D01*
X166838706Y-98895000D01*
X166917294Y-98895000D01*
X166956471Y-98898859D01*
X166956471Y-98898859D01*
G37*
G36*
X164416471Y-98898859D02*
G01*
X164494827Y-98906576D01*
X164645628Y-98952321D01*
X164645630Y-98952322D01*
X164784605Y-99026606D01*
X164906422Y-99126578D01*
X165006394Y-99248395D01*
X165080678Y-99387370D01*
X165080679Y-99387372D01*
X165126424Y-99538173D01*
X165141870Y-99695000D01*
X165126424Y-99851827D01*
X165080679Y-100002628D01*
X165080678Y-100002630D01*
X165006394Y-100141605D01*
X164906422Y-100263422D01*
X164784605Y-100363394D01*
X164645630Y-100437678D01*
X164645628Y-100437679D01*
X164494827Y-100483424D01*
X164423165Y-100490482D01*
X164377294Y-100495000D01*
X164298706Y-100495000D01*
X164252835Y-100490482D01*
X164181173Y-100483424D01*
X164030372Y-100437679D01*
X164030370Y-100437678D01*
X163891395Y-100363394D01*
X163769578Y-100263422D01*
X163669606Y-100141605D01*
X163595322Y-100002630D01*
X163595321Y-100002628D01*
X163549576Y-99851827D01*
X163534130Y-99695000D01*
X163549576Y-99538173D01*
X163595321Y-99387372D01*
X163595322Y-99387370D01*
X163669606Y-99248395D01*
X163769578Y-99126578D01*
X163891395Y-99026606D01*
X164030370Y-98952322D01*
X164030372Y-98952321D01*
X164181173Y-98906576D01*
X164259529Y-98898859D01*
X164298706Y-98895000D01*
X164377294Y-98895000D01*
X164416471Y-98898859D01*
X164416471Y-98898859D01*
G37*
G36*
X170218000Y-100495000D02*
G01*
X168618000Y-100495000D01*
X168618000Y-98895000D01*
X170218000Y-98895000D01*
X170218000Y-100495000D01*
X170218000Y-100495000D01*
G37*
G36*
X136476471Y-98898859D02*
G01*
X136554827Y-98906576D01*
X136705628Y-98952321D01*
X136705630Y-98952322D01*
X136844605Y-99026606D01*
X136966422Y-99126578D01*
X137066394Y-99248395D01*
X137140678Y-99387370D01*
X137140679Y-99387372D01*
X137186424Y-99538173D01*
X137201870Y-99695000D01*
X137186424Y-99851827D01*
X137140679Y-100002628D01*
X137140678Y-100002630D01*
X137066394Y-100141605D01*
X136966422Y-100263422D01*
X136844605Y-100363394D01*
X136705630Y-100437678D01*
X136705628Y-100437679D01*
X136554827Y-100483424D01*
X136483165Y-100490482D01*
X136437294Y-100495000D01*
X136358706Y-100495000D01*
X136312835Y-100490482D01*
X136241173Y-100483424D01*
X136090372Y-100437679D01*
X136090370Y-100437678D01*
X135951395Y-100363394D01*
X135829578Y-100263422D01*
X135729606Y-100141605D01*
X135655322Y-100002630D01*
X135655321Y-100002628D01*
X135609576Y-99851827D01*
X135594130Y-99695000D01*
X135609576Y-99538173D01*
X135655321Y-99387372D01*
X135655322Y-99387370D01*
X135729606Y-99248395D01*
X135829578Y-99126578D01*
X135951395Y-99026606D01*
X136090370Y-98952322D01*
X136090372Y-98952321D01*
X136241173Y-98906576D01*
X136319529Y-98898859D01*
X136358706Y-98895000D01*
X136437294Y-98895000D01*
X136476471Y-98898859D01*
X136476471Y-98898859D01*
G37*
G36*
X174791627Y-97587299D02*
G01*
X174871742Y-97611602D01*
X174951855Y-97635903D01*
X174951857Y-97635904D01*
X175099518Y-97714831D01*
X175228949Y-97821051D01*
X175335169Y-97950482D01*
X175414096Y-98098143D01*
X175462701Y-98258373D01*
X175479112Y-98425000D01*
X175462701Y-98591627D01*
X175414096Y-98751857D01*
X175335169Y-98899518D01*
X175228949Y-99028949D01*
X175099518Y-99135169D01*
X174951857Y-99214096D01*
X174951855Y-99214097D01*
X174871742Y-99238399D01*
X174791627Y-99262701D01*
X174666752Y-99275000D01*
X174583248Y-99275000D01*
X174458373Y-99262701D01*
X174378258Y-99238399D01*
X174298145Y-99214097D01*
X174298143Y-99214096D01*
X174150482Y-99135169D01*
X174021051Y-99028949D01*
X173914831Y-98899518D01*
X173835904Y-98751857D01*
X173787299Y-98591627D01*
X173770888Y-98425000D01*
X173787299Y-98258373D01*
X173835904Y-98098143D01*
X173914831Y-97950482D01*
X174021051Y-97821051D01*
X174150482Y-97714831D01*
X174298143Y-97635904D01*
X174298145Y-97635903D01*
X174378258Y-97611602D01*
X174458373Y-97587299D01*
X174583248Y-97575000D01*
X174666752Y-97575000D01*
X174791627Y-97587299D01*
X174791627Y-97587299D01*
G37*
G36*
X177331627Y-97587299D02*
G01*
X177411742Y-97611602D01*
X177491855Y-97635903D01*
X177491857Y-97635904D01*
X177639518Y-97714831D01*
X177768949Y-97821051D01*
X177875169Y-97950482D01*
X177954096Y-98098143D01*
X178002701Y-98258373D01*
X178019112Y-98425000D01*
X178002701Y-98591627D01*
X177954096Y-98751857D01*
X177875169Y-98899518D01*
X177768949Y-99028949D01*
X177639518Y-99135169D01*
X177491857Y-99214096D01*
X177491855Y-99214097D01*
X177411742Y-99238399D01*
X177331627Y-99262701D01*
X177206752Y-99275000D01*
X177123248Y-99275000D01*
X176998373Y-99262701D01*
X176918258Y-99238399D01*
X176838145Y-99214097D01*
X176838143Y-99214096D01*
X176690482Y-99135169D01*
X176561051Y-99028949D01*
X176454831Y-98899518D01*
X176375904Y-98751857D01*
X176327299Y-98591627D01*
X176310888Y-98425000D01*
X176327299Y-98258373D01*
X176375904Y-98098143D01*
X176454831Y-97950482D01*
X176561051Y-97821051D01*
X176690482Y-97714831D01*
X176838143Y-97635904D01*
X176838145Y-97635903D01*
X176918258Y-97611602D01*
X176998373Y-97587299D01*
X177123248Y-97575000D01*
X177206752Y-97575000D01*
X177331627Y-97587299D01*
X177331627Y-97587299D01*
G37*
G36*
X126932723Y-96930782D02*
G01*
X127112264Y-96985246D01*
X127112267Y-96985248D01*
X127112268Y-96985248D01*
X127277741Y-97073694D01*
X127277742Y-97073695D01*
X127277744Y-97073696D01*
X127422778Y-97192722D01*
X127541807Y-97337759D01*
X127630253Y-97503231D01*
X127684718Y-97682776D01*
X127698500Y-97822711D01*
X127698500Y-98011288D01*
X127684718Y-98151223D01*
X127630254Y-98330764D01*
X127630252Y-98330767D01*
X127630252Y-98330768D01*
X127579885Y-98425000D01*
X127541804Y-98496244D01*
X127422778Y-98641278D01*
X127277741Y-98760307D01*
X127112269Y-98848753D01*
X126932724Y-98903218D01*
X126746000Y-98921608D01*
X126559277Y-98903218D01*
X126379732Y-98848753D01*
X126214261Y-98760307D01*
X126214259Y-98760306D01*
X126069222Y-98641278D01*
X126015569Y-98575902D01*
X125950193Y-98496241D01*
X125861747Y-98330769D01*
X125807282Y-98151224D01*
X125793500Y-98011289D01*
X125793500Y-97822712D01*
X125807282Y-97682777D01*
X125861746Y-97503236D01*
X125884220Y-97461189D01*
X125950194Y-97337759D01*
X126069222Y-97192722D01*
X126214259Y-97073693D01*
X126379731Y-96985247D01*
X126559276Y-96930782D01*
X126746000Y-96912392D01*
X126932723Y-96930782D01*
X126932723Y-96930782D01*
G37*
G36*
X124392723Y-96930782D02*
G01*
X124572264Y-96985246D01*
X124572267Y-96985248D01*
X124572268Y-96985248D01*
X124737741Y-97073694D01*
X124737742Y-97073695D01*
X124737744Y-97073696D01*
X124882778Y-97192722D01*
X125001807Y-97337759D01*
X125090253Y-97503231D01*
X125144718Y-97682776D01*
X125158500Y-97822711D01*
X125158500Y-98011288D01*
X125144718Y-98151223D01*
X125090254Y-98330764D01*
X125090252Y-98330767D01*
X125090252Y-98330768D01*
X125039885Y-98425000D01*
X125001804Y-98496244D01*
X124882778Y-98641278D01*
X124737741Y-98760307D01*
X124572269Y-98848753D01*
X124392724Y-98903218D01*
X124206000Y-98921608D01*
X124019277Y-98903218D01*
X123839732Y-98848753D01*
X123674261Y-98760307D01*
X123674259Y-98760306D01*
X123529222Y-98641278D01*
X123475569Y-98575902D01*
X123410193Y-98496241D01*
X123321747Y-98330769D01*
X123267282Y-98151224D01*
X123253500Y-98011289D01*
X123253500Y-97822712D01*
X123267282Y-97682777D01*
X123321746Y-97503236D01*
X123344220Y-97461189D01*
X123410194Y-97337759D01*
X123529222Y-97192722D01*
X123674259Y-97073693D01*
X123839731Y-96985247D01*
X124019276Y-96930782D01*
X124206000Y-96912392D01*
X124392723Y-96930782D01*
X124392723Y-96930782D01*
G37*
G36*
X122618500Y-98917000D02*
G01*
X120713500Y-98917000D01*
X120713500Y-96917000D01*
X122618500Y-96917000D01*
X122618500Y-98917000D01*
X122618500Y-98917000D01*
G37*
G36*
X159485290Y-95600619D02*
G01*
X159549689Y-95613429D01*
X159731678Y-95688811D01*
X159895463Y-95798249D01*
X160034751Y-95937537D01*
X160144189Y-96101322D01*
X160219571Y-96283311D01*
X160219571Y-96283312D01*
X160258000Y-96476507D01*
X160258000Y-96673493D01*
X160250247Y-96712470D01*
X160219571Y-96866689D01*
X160144189Y-97048678D01*
X160034751Y-97212463D01*
X159895463Y-97351751D01*
X159731678Y-97461189D01*
X159549689Y-97536571D01*
X159485290Y-97549381D01*
X159356493Y-97575000D01*
X159159507Y-97575000D01*
X159030710Y-97549381D01*
X158966311Y-97536571D01*
X158784322Y-97461189D01*
X158620537Y-97351751D01*
X158481249Y-97212463D01*
X158371811Y-97048678D01*
X158296429Y-96866689D01*
X158265753Y-96712470D01*
X158258000Y-96673493D01*
X158258000Y-96476507D01*
X158296429Y-96283312D01*
X158296429Y-96283311D01*
X158371811Y-96101322D01*
X158481249Y-95937537D01*
X158620537Y-95798249D01*
X158784322Y-95688811D01*
X158966311Y-95613429D01*
X159030710Y-95600619D01*
X159159507Y-95575000D01*
X159356493Y-95575000D01*
X159485290Y-95600619D01*
X159485290Y-95600619D01*
G37*
G36*
X165985290Y-95600619D02*
G01*
X166049689Y-95613429D01*
X166231678Y-95688811D01*
X166395463Y-95798249D01*
X166534751Y-95937537D01*
X166644189Y-96101322D01*
X166719571Y-96283311D01*
X166719571Y-96283312D01*
X166758000Y-96476507D01*
X166758000Y-96673493D01*
X166750247Y-96712470D01*
X166719571Y-96866689D01*
X166644189Y-97048678D01*
X166534751Y-97212463D01*
X166395463Y-97351751D01*
X166231678Y-97461189D01*
X166049689Y-97536571D01*
X165985290Y-97549381D01*
X165856493Y-97575000D01*
X165659507Y-97575000D01*
X165530710Y-97549381D01*
X165466311Y-97536571D01*
X165284322Y-97461189D01*
X165120537Y-97351751D01*
X164981249Y-97212463D01*
X164871811Y-97048678D01*
X164796429Y-96866689D01*
X164765753Y-96712470D01*
X164758000Y-96673493D01*
X164758000Y-96476507D01*
X164796429Y-96283312D01*
X164796429Y-96283311D01*
X164871811Y-96101322D01*
X164981249Y-95937537D01*
X165120537Y-95798249D01*
X165284322Y-95688811D01*
X165466311Y-95613429D01*
X165530710Y-95600619D01*
X165659507Y-95575000D01*
X165856493Y-95575000D01*
X165985290Y-95600619D01*
X165985290Y-95600619D01*
G37*
G36*
X170078000Y-97116000D02*
G01*
X168378000Y-97116000D01*
X168378000Y-95416000D01*
X170078000Y-95416000D01*
X170078000Y-97116000D01*
X170078000Y-97116000D01*
G37*
G36*
X155831351Y-95433243D02*
G01*
X155976941Y-95493548D01*
X156107970Y-95581099D01*
X156219401Y-95692530D01*
X156306952Y-95823559D01*
X156367257Y-95969149D01*
X156398000Y-96123706D01*
X156398000Y-96281294D01*
X156367257Y-96435851D01*
X156306952Y-96581441D01*
X156219401Y-96712470D01*
X156107970Y-96823901D01*
X155976941Y-96911452D01*
X155831351Y-96971757D01*
X155676794Y-97002500D01*
X155519206Y-97002500D01*
X155364649Y-96971757D01*
X155219059Y-96911452D01*
X155088030Y-96823901D01*
X154976599Y-96712470D01*
X154889048Y-96581441D01*
X154828743Y-96435851D01*
X154798000Y-96281294D01*
X154798000Y-96123706D01*
X154828743Y-95969149D01*
X154889048Y-95823559D01*
X154976599Y-95692530D01*
X155088030Y-95581099D01*
X155219059Y-95493548D01*
X155364649Y-95433243D01*
X155519206Y-95402500D01*
X155676794Y-95402500D01*
X155831351Y-95433243D01*
X155831351Y-95433243D01*
G37*
G36*
X145942351Y-95433243D02*
G01*
X146087941Y-95493548D01*
X146218970Y-95581099D01*
X146330401Y-95692530D01*
X146417952Y-95823559D01*
X146478257Y-95969149D01*
X146509000Y-96123706D01*
X146509000Y-96281294D01*
X146478257Y-96435851D01*
X146417952Y-96581441D01*
X146330401Y-96712470D01*
X146218970Y-96823901D01*
X146087941Y-96911452D01*
X145942351Y-96971757D01*
X145787794Y-97002500D01*
X145630206Y-97002500D01*
X145475649Y-96971757D01*
X145330059Y-96911452D01*
X145199030Y-96823901D01*
X145087599Y-96712470D01*
X145000048Y-96581441D01*
X144939743Y-96435851D01*
X144909000Y-96281294D01*
X144909000Y-96123706D01*
X144939743Y-95969149D01*
X145000048Y-95823559D01*
X145087599Y-95692530D01*
X145199030Y-95581099D01*
X145330059Y-95493548D01*
X145475649Y-95433243D01*
X145630206Y-95402500D01*
X145787794Y-95402500D01*
X145942351Y-95433243D01*
X145942351Y-95433243D01*
G37*
G36*
X148442351Y-95433243D02*
G01*
X148587941Y-95493548D01*
X148718970Y-95581099D01*
X148830401Y-95692530D01*
X148917952Y-95823559D01*
X148978257Y-95969149D01*
X149009000Y-96123706D01*
X149009000Y-96281294D01*
X148978257Y-96435851D01*
X148917952Y-96581441D01*
X148830401Y-96712470D01*
X148718970Y-96823901D01*
X148587941Y-96911452D01*
X148442351Y-96971757D01*
X148287794Y-97002500D01*
X148130206Y-97002500D01*
X147975649Y-96971757D01*
X147830059Y-96911452D01*
X147699030Y-96823901D01*
X147587599Y-96712470D01*
X147500048Y-96581441D01*
X147439743Y-96435851D01*
X147409000Y-96281294D01*
X147409000Y-96123706D01*
X147439743Y-95969149D01*
X147500048Y-95823559D01*
X147587599Y-95692530D01*
X147699030Y-95581099D01*
X147830059Y-95493548D01*
X147975649Y-95433243D01*
X148130206Y-95402500D01*
X148287794Y-95402500D01*
X148442351Y-95433243D01*
X148442351Y-95433243D01*
G37*
G36*
X153331351Y-95433243D02*
G01*
X153476941Y-95493548D01*
X153607970Y-95581099D01*
X153719401Y-95692530D01*
X153806952Y-95823559D01*
X153867257Y-95969149D01*
X153898000Y-96123706D01*
X153898000Y-96281294D01*
X153867257Y-96435851D01*
X153806952Y-96581441D01*
X153719401Y-96712470D01*
X153607970Y-96823901D01*
X153476941Y-96911452D01*
X153331351Y-96971757D01*
X153176794Y-97002500D01*
X153019206Y-97002500D01*
X152864649Y-96971757D01*
X152719059Y-96911452D01*
X152588030Y-96823901D01*
X152476599Y-96712470D01*
X152389048Y-96581441D01*
X152328743Y-96435851D01*
X152298000Y-96281294D01*
X152298000Y-96123706D01*
X152328743Y-95969149D01*
X152389048Y-95823559D01*
X152476599Y-95692530D01*
X152588030Y-95581099D01*
X152719059Y-95493548D01*
X152864649Y-95433243D01*
X153019206Y-95402500D01*
X153176794Y-95402500D01*
X153331351Y-95433243D01*
X153331351Y-95433243D01*
G37*
G36*
X177331627Y-95047299D02*
G01*
X177411742Y-95071601D01*
X177491855Y-95095903D01*
X177491857Y-95095904D01*
X177639518Y-95174831D01*
X177768949Y-95281051D01*
X177875169Y-95410482D01*
X177945467Y-95542000D01*
X177954097Y-95558145D01*
X177961060Y-95581099D01*
X178002701Y-95718373D01*
X178019112Y-95885000D01*
X178002701Y-96051627D01*
X177954096Y-96211857D01*
X177875169Y-96359518D01*
X177768949Y-96488949D01*
X177639518Y-96595169D01*
X177492989Y-96673491D01*
X177491855Y-96674097D01*
X177411742Y-96698399D01*
X177331627Y-96722701D01*
X177206752Y-96735000D01*
X177123248Y-96735000D01*
X176998373Y-96722701D01*
X176918258Y-96698399D01*
X176838145Y-96674097D01*
X176837011Y-96673491D01*
X176690482Y-96595169D01*
X176561051Y-96488949D01*
X176454831Y-96359518D01*
X176375904Y-96211857D01*
X176327299Y-96051627D01*
X176310888Y-95885000D01*
X176327299Y-95718373D01*
X176368940Y-95581099D01*
X176375903Y-95558145D01*
X176384533Y-95542000D01*
X176454831Y-95410482D01*
X176561051Y-95281051D01*
X176690482Y-95174831D01*
X176838143Y-95095904D01*
X176838145Y-95095903D01*
X176918258Y-95071601D01*
X176998373Y-95047299D01*
X177123248Y-95035000D01*
X177206752Y-95035000D01*
X177331627Y-95047299D01*
X177331627Y-95047299D01*
G37*
G36*
X175475000Y-96735000D02*
G01*
X173775000Y-96735000D01*
X173775000Y-95035000D01*
X175475000Y-95035000D01*
X175475000Y-96735000D01*
X175475000Y-96735000D01*
G37*
G36*
X116370000Y-95542000D02*
G01*
X114770000Y-95542000D01*
X114770000Y-93942000D01*
X116370000Y-93942000D01*
X116370000Y-95542000D01*
X116370000Y-95542000D01*
G37*
G36*
X169394627Y-92888299D02*
G01*
X169474742Y-92912601D01*
X169554855Y-92936903D01*
X169554857Y-92936904D01*
X169702518Y-93015831D01*
X169831949Y-93122051D01*
X169938169Y-93251482D01*
X170017096Y-93399143D01*
X170065701Y-93559373D01*
X170082112Y-93726000D01*
X170065701Y-93892627D01*
X170017096Y-94052857D01*
X169938169Y-94200518D01*
X169831949Y-94329949D01*
X169702518Y-94436169D01*
X169554857Y-94515096D01*
X169554855Y-94515097D01*
X169474742Y-94539399D01*
X169394627Y-94563701D01*
X169269752Y-94576000D01*
X169186248Y-94576000D01*
X169061373Y-94563701D01*
X168981258Y-94539399D01*
X168901145Y-94515097D01*
X168901143Y-94515096D01*
X168753482Y-94436169D01*
X168624051Y-94329949D01*
X168517831Y-94200518D01*
X168438904Y-94052857D01*
X168390299Y-93892627D01*
X168373888Y-93726000D01*
X168390299Y-93559373D01*
X168438904Y-93399143D01*
X168517831Y-93251482D01*
X168624051Y-93122051D01*
X168753482Y-93015831D01*
X168901143Y-92936904D01*
X168901145Y-92936903D01*
X168981258Y-92912601D01*
X169061373Y-92888299D01*
X169186248Y-92876000D01*
X169269752Y-92876000D01*
X169394627Y-92888299D01*
X169394627Y-92888299D01*
G37*
G36*
X112963351Y-92587743D02*
G01*
X113108941Y-92648048D01*
X113239970Y-92735599D01*
X113351401Y-92847030D01*
X113438952Y-92978059D01*
X113499257Y-93123649D01*
X113530000Y-93278206D01*
X113530000Y-93435794D01*
X113499257Y-93590351D01*
X113438952Y-93735941D01*
X113351401Y-93866970D01*
X113239970Y-93978401D01*
X113108941Y-94065952D01*
X112963351Y-94126257D01*
X112808794Y-94157000D01*
X112651206Y-94157000D01*
X112496649Y-94126257D01*
X112351059Y-94065952D01*
X112220030Y-93978401D01*
X112108599Y-93866970D01*
X112021048Y-93735941D01*
X111960743Y-93590351D01*
X111930000Y-93435794D01*
X111930000Y-93278206D01*
X111960743Y-93123649D01*
X112021048Y-92978059D01*
X112108599Y-92847030D01*
X112220030Y-92735599D01*
X112351059Y-92648048D01*
X112496649Y-92587743D01*
X112651206Y-92557000D01*
X112808794Y-92557000D01*
X112963351Y-92587743D01*
X112963351Y-92587743D01*
G37*
G36*
X142632000Y-93991000D02*
G01*
X140832000Y-93991000D01*
X140832000Y-92191000D01*
X142632000Y-92191000D01*
X142632000Y-93991000D01*
X142632000Y-93991000D01*
G37*
G36*
X132831000Y-93991000D02*
G01*
X131031000Y-93991000D01*
X131031000Y-92191000D01*
X132831000Y-92191000D01*
X132831000Y-93991000D01*
X132831000Y-93991000D01*
G37*
G36*
X137732000Y-93991000D02*
G01*
X135932000Y-93991000D01*
X135932000Y-92191000D01*
X137732000Y-92191000D01*
X137732000Y-93991000D01*
X137732000Y-93991000D01*
G37*
G36*
X159466943Y-91096970D02*
G01*
X159549689Y-91113429D01*
X159731678Y-91188811D01*
X159895463Y-91298249D01*
X160034751Y-91437537D01*
X160144189Y-91601322D01*
X160201071Y-91738649D01*
X160219571Y-91783312D01*
X160258000Y-91976507D01*
X160258000Y-92173493D01*
X160251663Y-92205351D01*
X160219571Y-92366689D01*
X160144189Y-92548678D01*
X160034751Y-92712463D01*
X159895463Y-92851751D01*
X159731678Y-92961189D01*
X159549689Y-93036571D01*
X159485290Y-93049381D01*
X159356493Y-93075000D01*
X159159507Y-93075000D01*
X159030710Y-93049381D01*
X158966311Y-93036571D01*
X158784322Y-92961189D01*
X158620537Y-92851751D01*
X158481249Y-92712463D01*
X158371811Y-92548678D01*
X158296429Y-92366689D01*
X158264337Y-92205351D01*
X158258000Y-92173493D01*
X158258000Y-91976507D01*
X158296429Y-91783312D01*
X158314929Y-91738649D01*
X158371811Y-91601322D01*
X158481249Y-91437537D01*
X158620537Y-91298249D01*
X158784322Y-91188811D01*
X158966311Y-91113429D01*
X159049057Y-91096970D01*
X159159507Y-91075000D01*
X159356493Y-91075000D01*
X159466943Y-91096970D01*
X159466943Y-91096970D01*
G37*
G36*
X165966943Y-91096970D02*
G01*
X166049689Y-91113429D01*
X166231678Y-91188811D01*
X166395463Y-91298249D01*
X166534751Y-91437537D01*
X166644189Y-91601322D01*
X166701071Y-91738649D01*
X166719571Y-91783312D01*
X166758000Y-91976507D01*
X166758000Y-92173493D01*
X166751663Y-92205351D01*
X166719571Y-92366689D01*
X166644189Y-92548678D01*
X166534751Y-92712463D01*
X166395463Y-92851751D01*
X166231678Y-92961189D01*
X166049689Y-93036571D01*
X165985290Y-93049381D01*
X165856493Y-93075000D01*
X165659507Y-93075000D01*
X165530710Y-93049381D01*
X165466311Y-93036571D01*
X165284322Y-92961189D01*
X165120537Y-92851751D01*
X164981249Y-92712463D01*
X164871811Y-92548678D01*
X164796429Y-92366689D01*
X164764337Y-92205351D01*
X164758000Y-92173493D01*
X164758000Y-91976507D01*
X164796429Y-91783312D01*
X164814929Y-91738649D01*
X164871811Y-91601322D01*
X164981249Y-91437537D01*
X165120537Y-91298249D01*
X165284322Y-91188811D01*
X165466311Y-91113429D01*
X165549057Y-91096970D01*
X165659507Y-91075000D01*
X165856493Y-91075000D01*
X165966943Y-91096970D01*
X165966943Y-91096970D01*
G37*
G36*
X177630711Y-88851088D02*
G01*
X178000511Y-89004264D01*
X178000513Y-89004265D01*
X178144344Y-89100370D01*
X178333324Y-89226642D01*
X178616358Y-89509676D01*
X178663976Y-89580942D01*
X178822202Y-89817743D01*
X178838736Y-89842489D01*
X178991912Y-90212289D01*
X179070000Y-90604864D01*
X179070000Y-91005136D01*
X178991912Y-91397711D01*
X178907573Y-91601324D01*
X178838735Y-91767513D01*
X178616357Y-92100325D01*
X178333325Y-92383357D01*
X178000513Y-92605735D01*
X178000512Y-92605736D01*
X178000511Y-92605736D01*
X177630711Y-92758912D01*
X177238136Y-92837000D01*
X176837864Y-92837000D01*
X176445289Y-92758912D01*
X176075489Y-92605736D01*
X176075488Y-92605736D01*
X176075487Y-92605735D01*
X175742675Y-92383357D01*
X175459643Y-92100325D01*
X175237265Y-91767513D01*
X175168427Y-91601324D01*
X175084088Y-91397711D01*
X175006000Y-91005136D01*
X175006000Y-90604864D01*
X175084088Y-90212289D01*
X175237264Y-89842489D01*
X175253799Y-89817743D01*
X175412024Y-89580942D01*
X175459642Y-89509676D01*
X175742676Y-89226642D01*
X175931656Y-89100370D01*
X176075487Y-89004265D01*
X176075489Y-89004264D01*
X176445289Y-88851088D01*
X176837864Y-88773000D01*
X177238136Y-88773000D01*
X177630711Y-88851088D01*
X177630711Y-88851088D01*
G37*
G36*
X115803351Y-91202743D02*
G01*
X115948941Y-91263048D01*
X116079970Y-91350599D01*
X116191401Y-91462030D01*
X116278952Y-91593059D01*
X116339257Y-91738649D01*
X116370000Y-91893206D01*
X116370000Y-92050794D01*
X116339257Y-92205351D01*
X116278952Y-92350941D01*
X116191401Y-92481970D01*
X116079970Y-92593401D01*
X115948941Y-92680952D01*
X115803351Y-92741257D01*
X115648794Y-92772000D01*
X115491206Y-92772000D01*
X115336649Y-92741257D01*
X115191059Y-92680952D01*
X115060030Y-92593401D01*
X114948599Y-92481970D01*
X114861048Y-92350941D01*
X114800743Y-92205351D01*
X114770000Y-92050794D01*
X114770000Y-91893206D01*
X114800743Y-91738649D01*
X114861048Y-91593059D01*
X114948599Y-91462030D01*
X115060030Y-91350599D01*
X115191059Y-91263048D01*
X115336649Y-91202743D01*
X115491206Y-91172000D01*
X115648794Y-91172000D01*
X115803351Y-91202743D01*
X115803351Y-91202743D01*
G37*
G36*
X153316766Y-90719821D02*
G01*
X153453257Y-90776358D01*
X153576097Y-90858437D01*
X153680563Y-90962903D01*
X153762642Y-91085743D01*
X153819179Y-91222234D01*
X153848000Y-91367130D01*
X153848000Y-91514870D01*
X153819179Y-91659766D01*
X153762642Y-91796257D01*
X153680563Y-91919097D01*
X153576097Y-92023563D01*
X153453257Y-92105642D01*
X153316766Y-92162179D01*
X153171870Y-92191000D01*
X153024130Y-92191000D01*
X152879234Y-92162179D01*
X152742743Y-92105642D01*
X152619903Y-92023563D01*
X152515437Y-91919097D01*
X152433358Y-91796257D01*
X152376821Y-91659766D01*
X152348000Y-91514870D01*
X152348000Y-91367130D01*
X152376821Y-91222234D01*
X152433358Y-91085743D01*
X152515437Y-90962903D01*
X152619903Y-90858437D01*
X152742743Y-90776358D01*
X152879234Y-90719821D01*
X153024130Y-90691000D01*
X153171870Y-90691000D01*
X153316766Y-90719821D01*
X153316766Y-90719821D01*
G37*
G36*
X148436766Y-90719821D02*
G01*
X148573257Y-90776358D01*
X148696097Y-90858437D01*
X148800563Y-90962903D01*
X148882642Y-91085743D01*
X148939179Y-91222234D01*
X148968000Y-91367130D01*
X148968000Y-91514870D01*
X148939179Y-91659766D01*
X148882642Y-91796257D01*
X148800563Y-91919097D01*
X148696097Y-92023563D01*
X148573257Y-92105642D01*
X148436766Y-92162179D01*
X148291870Y-92191000D01*
X148144130Y-92191000D01*
X147999234Y-92162179D01*
X147862743Y-92105642D01*
X147739903Y-92023563D01*
X147635437Y-91919097D01*
X147553358Y-91796257D01*
X147496821Y-91659766D01*
X147468000Y-91514870D01*
X147468000Y-91367130D01*
X147496821Y-91222234D01*
X147553358Y-91085743D01*
X147635437Y-90962903D01*
X147739903Y-90858437D01*
X147862743Y-90776358D01*
X147999234Y-90719821D01*
X148144130Y-90691000D01*
X148291870Y-90691000D01*
X148436766Y-90719821D01*
X148436766Y-90719821D01*
G37*
G36*
X137094520Y-89685586D02*
G01*
X137258310Y-89753430D01*
X137405717Y-89851924D01*
X137531076Y-89977283D01*
X137629570Y-90124690D01*
X137629571Y-90124692D01*
X137697414Y-90288480D01*
X137732000Y-90462356D01*
X137732000Y-90639644D01*
X137704806Y-90776358D01*
X137697414Y-90813520D01*
X137629570Y-90977310D01*
X137531076Y-91124717D01*
X137405717Y-91250076D01*
X137258310Y-91348570D01*
X137258309Y-91348571D01*
X137258308Y-91348571D01*
X137094520Y-91416414D01*
X136920644Y-91451000D01*
X136743356Y-91451000D01*
X136569480Y-91416414D01*
X136405692Y-91348571D01*
X136405691Y-91348571D01*
X136405690Y-91348570D01*
X136258283Y-91250076D01*
X136132924Y-91124717D01*
X136034430Y-90977310D01*
X135966586Y-90813520D01*
X135959194Y-90776358D01*
X135932000Y-90639644D01*
X135932000Y-90462356D01*
X135966586Y-90288480D01*
X136034429Y-90124692D01*
X136034430Y-90124690D01*
X136132924Y-89977283D01*
X136258283Y-89851924D01*
X136405690Y-89753430D01*
X136569480Y-89685586D01*
X136743356Y-89651000D01*
X136920644Y-89651000D01*
X137094520Y-89685586D01*
X137094520Y-89685586D01*
G37*
G36*
X141994520Y-89685586D02*
G01*
X142158310Y-89753430D01*
X142305717Y-89851924D01*
X142431076Y-89977283D01*
X142529570Y-90124690D01*
X142529571Y-90124692D01*
X142597414Y-90288480D01*
X142632000Y-90462356D01*
X142632000Y-90639644D01*
X142604806Y-90776358D01*
X142597414Y-90813520D01*
X142529570Y-90977310D01*
X142431076Y-91124717D01*
X142305717Y-91250076D01*
X142158310Y-91348570D01*
X142158309Y-91348571D01*
X142158308Y-91348571D01*
X141994520Y-91416414D01*
X141820644Y-91451000D01*
X141643356Y-91451000D01*
X141469480Y-91416414D01*
X141305692Y-91348571D01*
X141305691Y-91348571D01*
X141305690Y-91348570D01*
X141158283Y-91250076D01*
X141032924Y-91124717D01*
X140934430Y-90977310D01*
X140866586Y-90813520D01*
X140859194Y-90776358D01*
X140832000Y-90639644D01*
X140832000Y-90462356D01*
X140866586Y-90288480D01*
X140934429Y-90124692D01*
X140934430Y-90124690D01*
X141032924Y-89977283D01*
X141158283Y-89851924D01*
X141305690Y-89753430D01*
X141469480Y-89685586D01*
X141643356Y-89651000D01*
X141820644Y-89651000D01*
X141994520Y-89685586D01*
X141994520Y-89685586D01*
G37*
G36*
X132193520Y-89685586D02*
G01*
X132357310Y-89753430D01*
X132504717Y-89851924D01*
X132630076Y-89977283D01*
X132728570Y-90124690D01*
X132728571Y-90124692D01*
X132796414Y-90288480D01*
X132831000Y-90462356D01*
X132831000Y-90639644D01*
X132803806Y-90776358D01*
X132796414Y-90813520D01*
X132728570Y-90977310D01*
X132630076Y-91124717D01*
X132504717Y-91250076D01*
X132357310Y-91348570D01*
X132357309Y-91348571D01*
X132357308Y-91348571D01*
X132193520Y-91416414D01*
X132019644Y-91451000D01*
X131842356Y-91451000D01*
X131668480Y-91416414D01*
X131504692Y-91348571D01*
X131504691Y-91348571D01*
X131504690Y-91348570D01*
X131357283Y-91250076D01*
X131231924Y-91124717D01*
X131133430Y-90977310D01*
X131065586Y-90813520D01*
X131058194Y-90776358D01*
X131031000Y-90639644D01*
X131031000Y-90462356D01*
X131065586Y-90288480D01*
X131133429Y-90124692D01*
X131133430Y-90124690D01*
X131231924Y-89977283D01*
X131357283Y-89851924D01*
X131504690Y-89753430D01*
X131668480Y-89685586D01*
X131842356Y-89651000D01*
X132019644Y-89651000D01*
X132193520Y-89685586D01*
X132193520Y-89685586D01*
G37*
G36*
X112963351Y-89817743D02*
G01*
X113108941Y-89878048D01*
X113239970Y-89965599D01*
X113351401Y-90077030D01*
X113438952Y-90208059D01*
X113499257Y-90353649D01*
X113530000Y-90508206D01*
X113530000Y-90665794D01*
X113499257Y-90820351D01*
X113438952Y-90965941D01*
X113351401Y-91096970D01*
X113239970Y-91208401D01*
X113108941Y-91295952D01*
X112963351Y-91356257D01*
X112808794Y-91387000D01*
X112651206Y-91387000D01*
X112496649Y-91356257D01*
X112351059Y-91295952D01*
X112220030Y-91208401D01*
X112108599Y-91096970D01*
X112021048Y-90965941D01*
X111960743Y-90820351D01*
X111930000Y-90665794D01*
X111930000Y-90508206D01*
X111960743Y-90353649D01*
X112021048Y-90208059D01*
X112108599Y-90077030D01*
X112220030Y-89965599D01*
X112351059Y-89878048D01*
X112496649Y-89817743D01*
X112651206Y-89787000D01*
X112808794Y-89787000D01*
X112963351Y-89817743D01*
X112963351Y-89817743D01*
G37*
G36*
X159481351Y-88638743D02*
G01*
X159626941Y-88699048D01*
X159757970Y-88786599D01*
X159869401Y-88898030D01*
X159956952Y-89029059D01*
X160017257Y-89174649D01*
X160048000Y-89329206D01*
X160048000Y-89486794D01*
X160017257Y-89641351D01*
X159956952Y-89786941D01*
X159869401Y-89917970D01*
X159757970Y-90029401D01*
X159626941Y-90116952D01*
X159481351Y-90177257D01*
X159326794Y-90208000D01*
X159169206Y-90208000D01*
X159014649Y-90177257D01*
X158869059Y-90116952D01*
X158738030Y-90029401D01*
X158626599Y-89917970D01*
X158539048Y-89786941D01*
X158478743Y-89641351D01*
X158448000Y-89486794D01*
X158448000Y-89329206D01*
X158478743Y-89174649D01*
X158539048Y-89029059D01*
X158626599Y-88898030D01*
X158738030Y-88786599D01*
X158869059Y-88699048D01*
X159014649Y-88638743D01*
X159169206Y-88608000D01*
X159326794Y-88608000D01*
X159481351Y-88638743D01*
X159481351Y-88638743D01*
G37*
G36*
X172544471Y-88611859D02*
G01*
X172622827Y-88619576D01*
X172773628Y-88665321D01*
X172773630Y-88665322D01*
X172912605Y-88739606D01*
X173034422Y-88839578D01*
X173134394Y-88961395D01*
X173170561Y-89029058D01*
X173208679Y-89100372D01*
X173254424Y-89251173D01*
X173269870Y-89408000D01*
X173254424Y-89564827D01*
X173208679Y-89715628D01*
X173208678Y-89715630D01*
X173134394Y-89854605D01*
X173034422Y-89976422D01*
X172912605Y-90076394D01*
X172822250Y-90124690D01*
X172773628Y-90150679D01*
X172622827Y-90196424D01*
X172544471Y-90204141D01*
X172505294Y-90208000D01*
X172426706Y-90208000D01*
X172387529Y-90204141D01*
X172309173Y-90196424D01*
X172158372Y-90150679D01*
X172109750Y-90124690D01*
X172019395Y-90076394D01*
X171897578Y-89976422D01*
X171797606Y-89854605D01*
X171723322Y-89715630D01*
X171723321Y-89715628D01*
X171677576Y-89564827D01*
X171662130Y-89408000D01*
X171677576Y-89251173D01*
X171723321Y-89100372D01*
X171761439Y-89029058D01*
X171797606Y-88961395D01*
X171897578Y-88839578D01*
X172019395Y-88739606D01*
X172158370Y-88665322D01*
X172158372Y-88665321D01*
X172309173Y-88619576D01*
X172387529Y-88611859D01*
X172426706Y-88608000D01*
X172505294Y-88608000D01*
X172544471Y-88611859D01*
X172544471Y-88611859D01*
G37*
G36*
X169240471Y-88611859D02*
G01*
X169318827Y-88619576D01*
X169469628Y-88665321D01*
X169469630Y-88665322D01*
X169608605Y-88739606D01*
X169730422Y-88839578D01*
X169830394Y-88961395D01*
X169866561Y-89029058D01*
X169904679Y-89100372D01*
X169950424Y-89251173D01*
X169965870Y-89408000D01*
X169950424Y-89564827D01*
X169904679Y-89715628D01*
X169904678Y-89715630D01*
X169830394Y-89854605D01*
X169730422Y-89976422D01*
X169608605Y-90076394D01*
X169518250Y-90124690D01*
X169469628Y-90150679D01*
X169318827Y-90196424D01*
X169240471Y-90204141D01*
X169201294Y-90208000D01*
X169122706Y-90208000D01*
X169083529Y-90204141D01*
X169005173Y-90196424D01*
X168854372Y-90150679D01*
X168805750Y-90124690D01*
X168715395Y-90076394D01*
X168593578Y-89976422D01*
X168493606Y-89854605D01*
X168419322Y-89715630D01*
X168419321Y-89715628D01*
X168373576Y-89564827D01*
X168358130Y-89408000D01*
X168373576Y-89251173D01*
X168419321Y-89100372D01*
X168457439Y-89029058D01*
X168493606Y-88961395D01*
X168593578Y-88839578D01*
X168715395Y-88739606D01*
X168854370Y-88665322D01*
X168854372Y-88665321D01*
X169005173Y-88619576D01*
X169083529Y-88611859D01*
X169122706Y-88608000D01*
X169201294Y-88608000D01*
X169240471Y-88611859D01*
X169240471Y-88611859D01*
G37*
G36*
X162785351Y-88638743D02*
G01*
X162930941Y-88699048D01*
X163061970Y-88786599D01*
X163173401Y-88898030D01*
X163260952Y-89029059D01*
X163321257Y-89174649D01*
X163352000Y-89329206D01*
X163352000Y-89486794D01*
X163321257Y-89641351D01*
X163260952Y-89786941D01*
X163173401Y-89917970D01*
X163061970Y-90029401D01*
X162930941Y-90116952D01*
X162785351Y-90177257D01*
X162630794Y-90208000D01*
X162473206Y-90208000D01*
X162318649Y-90177257D01*
X162173059Y-90116952D01*
X162042030Y-90029401D01*
X161930599Y-89917970D01*
X161843048Y-89786941D01*
X161782743Y-89641351D01*
X161752000Y-89486794D01*
X161752000Y-89329206D01*
X161782743Y-89174649D01*
X161843048Y-89029059D01*
X161930599Y-88898030D01*
X162042030Y-88786599D01*
X162173059Y-88699048D01*
X162318649Y-88638743D01*
X162473206Y-88608000D01*
X162630794Y-88608000D01*
X162785351Y-88638743D01*
X162785351Y-88638743D01*
G37*
G36*
X165935471Y-88611859D02*
G01*
X166013827Y-88619576D01*
X166164628Y-88665321D01*
X166164630Y-88665322D01*
X166303605Y-88739606D01*
X166425422Y-88839578D01*
X166525394Y-88961395D01*
X166561561Y-89029058D01*
X166599679Y-89100372D01*
X166645424Y-89251173D01*
X166660870Y-89408000D01*
X166645424Y-89564827D01*
X166599679Y-89715628D01*
X166599678Y-89715630D01*
X166525394Y-89854605D01*
X166425422Y-89976422D01*
X166303605Y-90076394D01*
X166213250Y-90124690D01*
X166164628Y-90150679D01*
X166013827Y-90196424D01*
X165935471Y-90204141D01*
X165896294Y-90208000D01*
X165817706Y-90208000D01*
X165778529Y-90204141D01*
X165700173Y-90196424D01*
X165549372Y-90150679D01*
X165500750Y-90124690D01*
X165410395Y-90076394D01*
X165288578Y-89976422D01*
X165188606Y-89854605D01*
X165114322Y-89715630D01*
X165114321Y-89715628D01*
X165068576Y-89564827D01*
X165053130Y-89408000D01*
X165068576Y-89251173D01*
X165114321Y-89100372D01*
X165152439Y-89029058D01*
X165188606Y-88961395D01*
X165288578Y-88839578D01*
X165410395Y-88739606D01*
X165549370Y-88665322D01*
X165549372Y-88665321D01*
X165700173Y-88619576D01*
X165778529Y-88611859D01*
X165817706Y-88608000D01*
X165896294Y-88608000D01*
X165935471Y-88611859D01*
X165935471Y-88611859D01*
G37*
G36*
X115803351Y-88432743D02*
G01*
X115948941Y-88493048D01*
X116079970Y-88580599D01*
X116191401Y-88692030D01*
X116278952Y-88823059D01*
X116339257Y-88968649D01*
X116370000Y-89123206D01*
X116370000Y-89280794D01*
X116339257Y-89435351D01*
X116278952Y-89580941D01*
X116191401Y-89711970D01*
X116079970Y-89823401D01*
X115948941Y-89910952D01*
X115803351Y-89971257D01*
X115648794Y-90002000D01*
X115491206Y-90002000D01*
X115336649Y-89971257D01*
X115191059Y-89910952D01*
X115060030Y-89823401D01*
X114948599Y-89711970D01*
X114861048Y-89580941D01*
X114800743Y-89435351D01*
X114770000Y-89280794D01*
X114770000Y-89123206D01*
X114800743Y-88968649D01*
X114861048Y-88823059D01*
X114948599Y-88692030D01*
X115060030Y-88580599D01*
X115191059Y-88493048D01*
X115336649Y-88432743D01*
X115491206Y-88402000D01*
X115648794Y-88402000D01*
X115803351Y-88432743D01*
X115803351Y-88432743D01*
G37*
G36*
X112963351Y-87047743D02*
G01*
X113108941Y-87108048D01*
X113239970Y-87195599D01*
X113351401Y-87307030D01*
X113438952Y-87438059D01*
X113499257Y-87583649D01*
X113530000Y-87738206D01*
X113530000Y-87895794D01*
X113499257Y-88050351D01*
X113438952Y-88195941D01*
X113351401Y-88326970D01*
X113239970Y-88438401D01*
X113108941Y-88525952D01*
X112963351Y-88586257D01*
X112808794Y-88617000D01*
X112651206Y-88617000D01*
X112496649Y-88586257D01*
X112351059Y-88525952D01*
X112220030Y-88438401D01*
X112108599Y-88326970D01*
X112021048Y-88195941D01*
X111960743Y-88050351D01*
X111930000Y-87895794D01*
X111930000Y-87738206D01*
X111960743Y-87583649D01*
X112021048Y-87438059D01*
X112108599Y-87307030D01*
X112220030Y-87195599D01*
X112351059Y-87108048D01*
X112496649Y-87047743D01*
X112651206Y-87017000D01*
X112808794Y-87017000D01*
X112963351Y-87047743D01*
X112963351Y-87047743D01*
G37*
G36*
X131805351Y-85971743D02*
G01*
X131950941Y-86032048D01*
X132081970Y-86119599D01*
X132193401Y-86231030D01*
X132280952Y-86362059D01*
X132341257Y-86507649D01*
X132372000Y-86662206D01*
X132372000Y-86819794D01*
X132341257Y-86974351D01*
X132280952Y-87119941D01*
X132193401Y-87250970D01*
X132081970Y-87362401D01*
X131950941Y-87449952D01*
X131805351Y-87510257D01*
X131650794Y-87541000D01*
X131493206Y-87541000D01*
X131338649Y-87510257D01*
X131193059Y-87449952D01*
X131062030Y-87362401D01*
X130950599Y-87250970D01*
X130863048Y-87119941D01*
X130802743Y-86974351D01*
X130772000Y-86819794D01*
X130772000Y-86662206D01*
X130802743Y-86507649D01*
X130863048Y-86362059D01*
X130950599Y-86231030D01*
X131062030Y-86119599D01*
X131193059Y-86032048D01*
X131338649Y-85971743D01*
X131493206Y-85941000D01*
X131650794Y-85941000D01*
X131805351Y-85971743D01*
X131805351Y-85971743D01*
G37*
G36*
X141810471Y-85944859D02*
G01*
X141888827Y-85952576D01*
X142039628Y-85998321D01*
X142039630Y-85998322D01*
X142178605Y-86072606D01*
X142178607Y-86072607D01*
X142178606Y-86072607D01*
X142300422Y-86172578D01*
X142400393Y-86294394D01*
X142474679Y-86433372D01*
X142520424Y-86584173D01*
X142535870Y-86741000D01*
X142520424Y-86897827D01*
X142484273Y-87017000D01*
X142474678Y-87048630D01*
X142400394Y-87187605D01*
X142300422Y-87309422D01*
X142178605Y-87409394D01*
X142039630Y-87483678D01*
X142039628Y-87483679D01*
X141888827Y-87529424D01*
X141810471Y-87537141D01*
X141771294Y-87541000D01*
X141692706Y-87541000D01*
X141653529Y-87537141D01*
X141575173Y-87529424D01*
X141424372Y-87483679D01*
X141424370Y-87483678D01*
X141285395Y-87409394D01*
X141163578Y-87309422D01*
X141063606Y-87187605D01*
X140989322Y-87048630D01*
X140979727Y-87017000D01*
X140943576Y-86897827D01*
X140928130Y-86741000D01*
X140943576Y-86584173D01*
X140989321Y-86433372D01*
X141063607Y-86294394D01*
X141163578Y-86172578D01*
X141285394Y-86072607D01*
X141285393Y-86072607D01*
X141285395Y-86072606D01*
X141424370Y-85998322D01*
X141424372Y-85998321D01*
X141575173Y-85952576D01*
X141653529Y-85944859D01*
X141692706Y-85941000D01*
X141771294Y-85941000D01*
X141810471Y-85944859D01*
X141810471Y-85944859D01*
G37*
G36*
X155806471Y-85944859D02*
G01*
X155884827Y-85952576D01*
X156035628Y-85998321D01*
X156035630Y-85998322D01*
X156174605Y-86072606D01*
X156174607Y-86072607D01*
X156174606Y-86072607D01*
X156296422Y-86172578D01*
X156396393Y-86294394D01*
X156470679Y-86433372D01*
X156516424Y-86584173D01*
X156531870Y-86741000D01*
X156516424Y-86897827D01*
X156480273Y-87017000D01*
X156470678Y-87048630D01*
X156396394Y-87187605D01*
X156296422Y-87309422D01*
X156174605Y-87409394D01*
X156035630Y-87483678D01*
X156035628Y-87483679D01*
X155884827Y-87529424D01*
X155806471Y-87537141D01*
X155767294Y-87541000D01*
X155688706Y-87541000D01*
X155649529Y-87537141D01*
X155571173Y-87529424D01*
X155420372Y-87483679D01*
X155420370Y-87483678D01*
X155281395Y-87409394D01*
X155159578Y-87309422D01*
X155059606Y-87187605D01*
X154985322Y-87048630D01*
X154975727Y-87017000D01*
X154939576Y-86897827D01*
X154924130Y-86741000D01*
X154939576Y-86584173D01*
X154985321Y-86433372D01*
X155059607Y-86294394D01*
X155159578Y-86172578D01*
X155281394Y-86072607D01*
X155281393Y-86072607D01*
X155281395Y-86072606D01*
X155420370Y-85998322D01*
X155420372Y-85998321D01*
X155571173Y-85952576D01*
X155649529Y-85944859D01*
X155688706Y-85941000D01*
X155767294Y-85941000D01*
X155806471Y-85944859D01*
X155806471Y-85944859D01*
G37*
G36*
X145801351Y-85971743D02*
G01*
X145946941Y-86032048D01*
X146077970Y-86119599D01*
X146189401Y-86231030D01*
X146276952Y-86362059D01*
X146337257Y-86507649D01*
X146368000Y-86662206D01*
X146368000Y-86819794D01*
X146337257Y-86974351D01*
X146276952Y-87119941D01*
X146189401Y-87250970D01*
X146077970Y-87362401D01*
X145946941Y-87449952D01*
X145801351Y-87510257D01*
X145646794Y-87541000D01*
X145489206Y-87541000D01*
X145334649Y-87510257D01*
X145189059Y-87449952D01*
X145058030Y-87362401D01*
X144946599Y-87250970D01*
X144859048Y-87119941D01*
X144798743Y-86974351D01*
X144768000Y-86819794D01*
X144768000Y-86662206D01*
X144798743Y-86507649D01*
X144859048Y-86362059D01*
X144946599Y-86231030D01*
X145058030Y-86119599D01*
X145189059Y-86032048D01*
X145334649Y-85971743D01*
X145489206Y-85941000D01*
X145646794Y-85941000D01*
X145801351Y-85971743D01*
X145801351Y-85971743D01*
G37*
G36*
X115803351Y-85662743D02*
G01*
X115948941Y-85723048D01*
X116079970Y-85810599D01*
X116191401Y-85922030D01*
X116278952Y-86053059D01*
X116339257Y-86198649D01*
X116370000Y-86353206D01*
X116370000Y-86510794D01*
X116339257Y-86665351D01*
X116278952Y-86810941D01*
X116191401Y-86941970D01*
X116079970Y-87053401D01*
X115948941Y-87140952D01*
X115803351Y-87201257D01*
X115648794Y-87232000D01*
X115491206Y-87232000D01*
X115336649Y-87201257D01*
X115191059Y-87140952D01*
X115060030Y-87053401D01*
X114948599Y-86941970D01*
X114861048Y-86810941D01*
X114800743Y-86665351D01*
X114770000Y-86510794D01*
X114770000Y-86353206D01*
X114800743Y-86198649D01*
X114861048Y-86053059D01*
X114948599Y-85922030D01*
X115060030Y-85810599D01*
X115191059Y-85723048D01*
X115336649Y-85662743D01*
X115491206Y-85632000D01*
X115648794Y-85632000D01*
X115803351Y-85662743D01*
X115803351Y-85662743D01*
G37*
G36*
X112963351Y-84277743D02*
G01*
X113108941Y-84338048D01*
X113239970Y-84425599D01*
X113351401Y-84537030D01*
X113438952Y-84668059D01*
X113499257Y-84813649D01*
X113530000Y-84968206D01*
X113530000Y-85125794D01*
X113499257Y-85280351D01*
X113438952Y-85425941D01*
X113351401Y-85556970D01*
X113239970Y-85668401D01*
X113108941Y-85755952D01*
X112963351Y-85816257D01*
X112808794Y-85847000D01*
X112651206Y-85847000D01*
X112496649Y-85816257D01*
X112351059Y-85755952D01*
X112220030Y-85668401D01*
X112108599Y-85556970D01*
X112021048Y-85425941D01*
X111960743Y-85280351D01*
X111930000Y-85125794D01*
X111930000Y-84968206D01*
X111960743Y-84813649D01*
X112021048Y-84668059D01*
X112108599Y-84537030D01*
X112220030Y-84425599D01*
X112351059Y-84338048D01*
X112496649Y-84277743D01*
X112651206Y-84247000D01*
X112808794Y-84247000D01*
X112963351Y-84277743D01*
X112963351Y-84277743D01*
G37*
G36*
X115803351Y-82892743D02*
G01*
X115948941Y-82953048D01*
X116079970Y-83040599D01*
X116191401Y-83152030D01*
X116278952Y-83283059D01*
X116339257Y-83428649D01*
X116370000Y-83583206D01*
X116370000Y-83740794D01*
X116339257Y-83895351D01*
X116278952Y-84040941D01*
X116191401Y-84171970D01*
X116079970Y-84283401D01*
X115948941Y-84370952D01*
X115803351Y-84431257D01*
X115648794Y-84462000D01*
X115491206Y-84462000D01*
X115336649Y-84431257D01*
X115191059Y-84370952D01*
X115060030Y-84283401D01*
X114948599Y-84171970D01*
X114861048Y-84040941D01*
X114800743Y-83895351D01*
X114770000Y-83740794D01*
X114770000Y-83583206D01*
X114800743Y-83428649D01*
X114861048Y-83283059D01*
X114948599Y-83152030D01*
X115060030Y-83040599D01*
X115191059Y-82953048D01*
X115336649Y-82892743D01*
X115491206Y-82862000D01*
X115648794Y-82862000D01*
X115803351Y-82892743D01*
X115803351Y-82892743D01*
G37*
G36*
X145801351Y-82447543D02*
G01*
X145946941Y-82507848D01*
X146077970Y-82595399D01*
X146189401Y-82706830D01*
X146276952Y-82837859D01*
X146337257Y-82983449D01*
X146368000Y-83138006D01*
X146368000Y-83295594D01*
X146337257Y-83450151D01*
X146276952Y-83595741D01*
X146189401Y-83726770D01*
X146077970Y-83838201D01*
X145946941Y-83925752D01*
X145801351Y-83986057D01*
X145646794Y-84016800D01*
X145489206Y-84016800D01*
X145334649Y-83986057D01*
X145189059Y-83925752D01*
X145058030Y-83838201D01*
X144946599Y-83726770D01*
X144859048Y-83595741D01*
X144798743Y-83450151D01*
X144768000Y-83295594D01*
X144768000Y-83138006D01*
X144798743Y-82983449D01*
X144859048Y-82837859D01*
X144946599Y-82706830D01*
X145058030Y-82595399D01*
X145189059Y-82507848D01*
X145334649Y-82447543D01*
X145489206Y-82416800D01*
X145646794Y-82416800D01*
X145801351Y-82447543D01*
X145801351Y-82447543D01*
G37*
G36*
X131805351Y-82447543D02*
G01*
X131950941Y-82507848D01*
X132081970Y-82595399D01*
X132193401Y-82706830D01*
X132280952Y-82837859D01*
X132341257Y-82983449D01*
X132372000Y-83138006D01*
X132372000Y-83295594D01*
X132341257Y-83450151D01*
X132280952Y-83595741D01*
X132193401Y-83726770D01*
X132081970Y-83838201D01*
X131950941Y-83925752D01*
X131805351Y-83986057D01*
X131650794Y-84016800D01*
X131493206Y-84016800D01*
X131338649Y-83986057D01*
X131193059Y-83925752D01*
X131062030Y-83838201D01*
X130950599Y-83726770D01*
X130863048Y-83595741D01*
X130802743Y-83450151D01*
X130772000Y-83295594D01*
X130772000Y-83138006D01*
X130802743Y-82983449D01*
X130863048Y-82837859D01*
X130950599Y-82706830D01*
X131062030Y-82595399D01*
X131193059Y-82507848D01*
X131338649Y-82447543D01*
X131493206Y-82416800D01*
X131650794Y-82416800D01*
X131805351Y-82447543D01*
X131805351Y-82447543D01*
G37*
G36*
X141810471Y-82420659D02*
G01*
X141888827Y-82428376D01*
X142039628Y-82474121D01*
X142039630Y-82474122D01*
X142178605Y-82548406D01*
X142300422Y-82648378D01*
X142400394Y-82770195D01*
X142474678Y-82909170D01*
X142474679Y-82909172D01*
X142520424Y-83059973D01*
X142535870Y-83216800D01*
X142520424Y-83373627D01*
X142474679Y-83524428D01*
X142474678Y-83524430D01*
X142400394Y-83663405D01*
X142300422Y-83785222D01*
X142178605Y-83885194D01*
X142039630Y-83959478D01*
X142039628Y-83959479D01*
X141888827Y-84005224D01*
X141810471Y-84012941D01*
X141771294Y-84016800D01*
X141692706Y-84016800D01*
X141653529Y-84012941D01*
X141575173Y-84005224D01*
X141424372Y-83959479D01*
X141424370Y-83959478D01*
X141285395Y-83885194D01*
X141163578Y-83785222D01*
X141063606Y-83663405D01*
X140989322Y-83524430D01*
X140989321Y-83524428D01*
X140943576Y-83373627D01*
X140928130Y-83216800D01*
X140943576Y-83059973D01*
X140989321Y-82909172D01*
X140989322Y-82909170D01*
X141063606Y-82770195D01*
X141163578Y-82648378D01*
X141285395Y-82548406D01*
X141424370Y-82474122D01*
X141424372Y-82474121D01*
X141575173Y-82428376D01*
X141653529Y-82420659D01*
X141692706Y-82416800D01*
X141771294Y-82416800D01*
X141810471Y-82420659D01*
X141810471Y-82420659D01*
G37*
G36*
X155806471Y-82420659D02*
G01*
X155884827Y-82428376D01*
X156035628Y-82474121D01*
X156035630Y-82474122D01*
X156174605Y-82548406D01*
X156296422Y-82648378D01*
X156396394Y-82770195D01*
X156470678Y-82909170D01*
X156470679Y-82909172D01*
X156516424Y-83059973D01*
X156531870Y-83216800D01*
X156516424Y-83373627D01*
X156470679Y-83524428D01*
X156470678Y-83524430D01*
X156396394Y-83663405D01*
X156296422Y-83785222D01*
X156174605Y-83885194D01*
X156035630Y-83959478D01*
X156035628Y-83959479D01*
X155884827Y-84005224D01*
X155806471Y-84012941D01*
X155767294Y-84016800D01*
X155688706Y-84016800D01*
X155649529Y-84012941D01*
X155571173Y-84005224D01*
X155420372Y-83959479D01*
X155420370Y-83959478D01*
X155281395Y-83885194D01*
X155159578Y-83785222D01*
X155059606Y-83663405D01*
X154985322Y-83524430D01*
X154985321Y-83524428D01*
X154939576Y-83373627D01*
X154924130Y-83216800D01*
X154939576Y-83059973D01*
X154985321Y-82909172D01*
X154985322Y-82909170D01*
X155059606Y-82770195D01*
X155159578Y-82648378D01*
X155281395Y-82548406D01*
X155420370Y-82474122D01*
X155420372Y-82474121D01*
X155571173Y-82428376D01*
X155649529Y-82420659D01*
X155688706Y-82416800D01*
X155767294Y-82416800D01*
X155806471Y-82420659D01*
X155806471Y-82420659D01*
G37*
G36*
X124377665Y-79515440D02*
G01*
X124549060Y-79532321D01*
X124860983Y-79626942D01*
X124878939Y-79632389D01*
X125182951Y-79794887D01*
X125449424Y-80013576D01*
X125668113Y-80280049D01*
X125830611Y-80584061D01*
X125830612Y-80584064D01*
X125930679Y-80913940D01*
X125964467Y-81257000D01*
X125930679Y-81600060D01*
X125830612Y-81929936D01*
X125830611Y-81929939D01*
X125668113Y-82233951D01*
X125449424Y-82500424D01*
X125182951Y-82719113D01*
X124878939Y-82881611D01*
X124878936Y-82881612D01*
X124549060Y-82981679D01*
X124377665Y-82998560D01*
X124291969Y-83007000D01*
X124120031Y-83007000D01*
X124034335Y-82998560D01*
X123862940Y-82981679D01*
X123533064Y-82881612D01*
X123533061Y-82881611D01*
X123229049Y-82719113D01*
X122962576Y-82500424D01*
X122743887Y-82233951D01*
X122581389Y-81929939D01*
X122581388Y-81929936D01*
X122481321Y-81600060D01*
X122447533Y-81257000D01*
X122481321Y-80913940D01*
X122581388Y-80584064D01*
X122581389Y-80584061D01*
X122743887Y-80280049D01*
X122962576Y-80013576D01*
X123229049Y-79794887D01*
X123533061Y-79632389D01*
X123551017Y-79626942D01*
X123862940Y-79532321D01*
X124034335Y-79515440D01*
X124120031Y-79507000D01*
X124291969Y-79507000D01*
X124377665Y-79515440D01*
X124377665Y-79515440D01*
G37*
G36*
X155806471Y-78896359D02*
G01*
X155884827Y-78904076D01*
X156035628Y-78949821D01*
X156035630Y-78949822D01*
X156174605Y-79024106D01*
X156296422Y-79124078D01*
X156396394Y-79245895D01*
X156470678Y-79384870D01*
X156470679Y-79384872D01*
X156516424Y-79535673D01*
X156531870Y-79692500D01*
X156516424Y-79849327D01*
X156473545Y-79990679D01*
X156470678Y-80000130D01*
X156396394Y-80139105D01*
X156296422Y-80260922D01*
X156174605Y-80360894D01*
X156035630Y-80435178D01*
X156035628Y-80435179D01*
X155884827Y-80480924D01*
X155806471Y-80488641D01*
X155767294Y-80492500D01*
X155688706Y-80492500D01*
X155649529Y-80488641D01*
X155571173Y-80480924D01*
X155420372Y-80435179D01*
X155420370Y-80435178D01*
X155281395Y-80360894D01*
X155159578Y-80260922D01*
X155059606Y-80139105D01*
X154985322Y-80000130D01*
X154982455Y-79990679D01*
X154939576Y-79849327D01*
X154924130Y-79692500D01*
X154939576Y-79535673D01*
X154985321Y-79384872D01*
X154985322Y-79384870D01*
X155059606Y-79245895D01*
X155159578Y-79124078D01*
X155281395Y-79024106D01*
X155420370Y-78949822D01*
X155420372Y-78949821D01*
X155571173Y-78904076D01*
X155649529Y-78896359D01*
X155688706Y-78892500D01*
X155767294Y-78892500D01*
X155806471Y-78896359D01*
X155806471Y-78896359D01*
G37*
G36*
X145801351Y-78923243D02*
G01*
X145946941Y-78983548D01*
X146077970Y-79071099D01*
X146189401Y-79182530D01*
X146276952Y-79313559D01*
X146337257Y-79459149D01*
X146368000Y-79613706D01*
X146368000Y-79771294D01*
X146337257Y-79925851D01*
X146276952Y-80071441D01*
X146189401Y-80202470D01*
X146077970Y-80313901D01*
X145946941Y-80401452D01*
X145801351Y-80461757D01*
X145646794Y-80492500D01*
X145489206Y-80492500D01*
X145334649Y-80461757D01*
X145189059Y-80401452D01*
X145058030Y-80313901D01*
X144946599Y-80202470D01*
X144859048Y-80071441D01*
X144798743Y-79925851D01*
X144768000Y-79771294D01*
X144768000Y-79613706D01*
X144798743Y-79459149D01*
X144859048Y-79313559D01*
X144946599Y-79182530D01*
X145058030Y-79071099D01*
X145189059Y-78983548D01*
X145334649Y-78923243D01*
X145489206Y-78892500D01*
X145646794Y-78892500D01*
X145801351Y-78923243D01*
X145801351Y-78923243D01*
G37*
G36*
X131805351Y-78923243D02*
G01*
X131950941Y-78983548D01*
X132081970Y-79071099D01*
X132193401Y-79182530D01*
X132280952Y-79313559D01*
X132341257Y-79459149D01*
X132372000Y-79613706D01*
X132372000Y-79771294D01*
X132341257Y-79925851D01*
X132280952Y-80071441D01*
X132193401Y-80202470D01*
X132081970Y-80313901D01*
X131950941Y-80401452D01*
X131805351Y-80461757D01*
X131650794Y-80492500D01*
X131493206Y-80492500D01*
X131338649Y-80461757D01*
X131193059Y-80401452D01*
X131062030Y-80313901D01*
X130950599Y-80202470D01*
X130863048Y-80071441D01*
X130802743Y-79925851D01*
X130772000Y-79771294D01*
X130772000Y-79613706D01*
X130802743Y-79459149D01*
X130863048Y-79313559D01*
X130950599Y-79182530D01*
X131062030Y-79071099D01*
X131193059Y-78983548D01*
X131338649Y-78923243D01*
X131493206Y-78892500D01*
X131650794Y-78892500D01*
X131805351Y-78923243D01*
X131805351Y-78923243D01*
G37*
G36*
X141810471Y-78896359D02*
G01*
X141888827Y-78904076D01*
X142039628Y-78949821D01*
X142039630Y-78949822D01*
X142178605Y-79024106D01*
X142300422Y-79124078D01*
X142400394Y-79245895D01*
X142474678Y-79384870D01*
X142474679Y-79384872D01*
X142520424Y-79535673D01*
X142535870Y-79692500D01*
X142520424Y-79849327D01*
X142477545Y-79990679D01*
X142474678Y-80000130D01*
X142400394Y-80139105D01*
X142300422Y-80260922D01*
X142178605Y-80360894D01*
X142039630Y-80435178D01*
X142039628Y-80435179D01*
X141888827Y-80480924D01*
X141810471Y-80488641D01*
X141771294Y-80492500D01*
X141692706Y-80492500D01*
X141653529Y-80488641D01*
X141575173Y-80480924D01*
X141424372Y-80435179D01*
X141424370Y-80435178D01*
X141285395Y-80360894D01*
X141163578Y-80260922D01*
X141063606Y-80139105D01*
X140989322Y-80000130D01*
X140986455Y-79990679D01*
X140943576Y-79849327D01*
X140928130Y-79692500D01*
X140943576Y-79535673D01*
X140989321Y-79384872D01*
X140989322Y-79384870D01*
X141063606Y-79245895D01*
X141163578Y-79124078D01*
X141285395Y-79024106D01*
X141424370Y-78949822D01*
X141424372Y-78949821D01*
X141575173Y-78904076D01*
X141653529Y-78896359D01*
X141692706Y-78892500D01*
X141771294Y-78892500D01*
X141810471Y-78896359D01*
X141810471Y-78896359D01*
G37*
G36*
X169395351Y-78478743D02*
G01*
X169540941Y-78539048D01*
X169671970Y-78626599D01*
X169783401Y-78738030D01*
X169870952Y-78869059D01*
X169931257Y-79014649D01*
X169962000Y-79169206D01*
X169962000Y-79326794D01*
X169931257Y-79481351D01*
X169870952Y-79626941D01*
X169783401Y-79757970D01*
X169671970Y-79869401D01*
X169540941Y-79956952D01*
X169395351Y-80017257D01*
X169240794Y-80048000D01*
X169083206Y-80048000D01*
X168928649Y-80017257D01*
X168783059Y-79956952D01*
X168652030Y-79869401D01*
X168540599Y-79757970D01*
X168453048Y-79626941D01*
X168392743Y-79481351D01*
X168362000Y-79326794D01*
X168362000Y-79169206D01*
X168392743Y-79014649D01*
X168453048Y-78869059D01*
X168540599Y-78738030D01*
X168652030Y-78626599D01*
X168783059Y-78539048D01*
X168928649Y-78478743D01*
X169083206Y-78448000D01*
X169240794Y-78448000D01*
X169395351Y-78478743D01*
X169395351Y-78478743D01*
G37*
G36*
X172699351Y-78478743D02*
G01*
X172844941Y-78539048D01*
X172975970Y-78626599D01*
X173087401Y-78738030D01*
X173174952Y-78869059D01*
X173235257Y-79014649D01*
X173266000Y-79169206D01*
X173266000Y-79326794D01*
X173235257Y-79481351D01*
X173174952Y-79626941D01*
X173087401Y-79757970D01*
X172975970Y-79869401D01*
X172844941Y-79956952D01*
X172699351Y-80017257D01*
X172544794Y-80048000D01*
X172387206Y-80048000D01*
X172232649Y-80017257D01*
X172087059Y-79956952D01*
X171956030Y-79869401D01*
X171844599Y-79757970D01*
X171757048Y-79626941D01*
X171696743Y-79481351D01*
X171666000Y-79326794D01*
X171666000Y-79169206D01*
X171696743Y-79014649D01*
X171757048Y-78869059D01*
X171844599Y-78738030D01*
X171956030Y-78626599D01*
X172087059Y-78539048D01*
X172232649Y-78478743D01*
X172387206Y-78448000D01*
X172544794Y-78448000D01*
X172699351Y-78478743D01*
X172699351Y-78478743D01*
G37*
G36*
X159326471Y-78451859D02*
G01*
X159404827Y-78459576D01*
X159555628Y-78505321D01*
X159555630Y-78505322D01*
X159694605Y-78579606D01*
X159694607Y-78579607D01*
X159694606Y-78579607D01*
X159816422Y-78679578D01*
X159916393Y-78801394D01*
X159990679Y-78940372D01*
X160036424Y-79091173D01*
X160051870Y-79248000D01*
X160036424Y-79404827D01*
X159990679Y-79555628D01*
X159990678Y-79555630D01*
X159916394Y-79694605D01*
X159816422Y-79816422D01*
X159694605Y-79916394D01*
X159555630Y-79990678D01*
X159555628Y-79990679D01*
X159404827Y-80036424D01*
X159326471Y-80044141D01*
X159287294Y-80048000D01*
X159208706Y-80048000D01*
X159169529Y-80044141D01*
X159091173Y-80036424D01*
X158940372Y-79990679D01*
X158940370Y-79990678D01*
X158801395Y-79916394D01*
X158679578Y-79816422D01*
X158579606Y-79694605D01*
X158505322Y-79555630D01*
X158505321Y-79555628D01*
X158459576Y-79404827D01*
X158444130Y-79248000D01*
X158459576Y-79091173D01*
X158505321Y-78940372D01*
X158579607Y-78801394D01*
X158679578Y-78679578D01*
X158801394Y-78579607D01*
X158801393Y-78579607D01*
X158801395Y-78579606D01*
X158940370Y-78505322D01*
X158940372Y-78505321D01*
X159091173Y-78459576D01*
X159169529Y-78451859D01*
X159208706Y-78448000D01*
X159287294Y-78448000D01*
X159326471Y-78451859D01*
X159326471Y-78451859D01*
G37*
G36*
X162630471Y-78451859D02*
G01*
X162708827Y-78459576D01*
X162859628Y-78505321D01*
X162859630Y-78505322D01*
X162998605Y-78579606D01*
X162998607Y-78579607D01*
X162998606Y-78579607D01*
X163120422Y-78679578D01*
X163220393Y-78801394D01*
X163294679Y-78940372D01*
X163340424Y-79091173D01*
X163355870Y-79248000D01*
X163340424Y-79404827D01*
X163294679Y-79555628D01*
X163294678Y-79555630D01*
X163220394Y-79694605D01*
X163120422Y-79816422D01*
X162998605Y-79916394D01*
X162859630Y-79990678D01*
X162859628Y-79990679D01*
X162708827Y-80036424D01*
X162630471Y-80044141D01*
X162591294Y-80048000D01*
X162512706Y-80048000D01*
X162473529Y-80044141D01*
X162395173Y-80036424D01*
X162244372Y-79990679D01*
X162244370Y-79990678D01*
X162105395Y-79916394D01*
X161983578Y-79816422D01*
X161883606Y-79694605D01*
X161809322Y-79555630D01*
X161809321Y-79555628D01*
X161763576Y-79404827D01*
X161748130Y-79248000D01*
X161763576Y-79091173D01*
X161809321Y-78940372D01*
X161883607Y-78801394D01*
X161983578Y-78679578D01*
X162105394Y-78579607D01*
X162105393Y-78579607D01*
X162105395Y-78579606D01*
X162244370Y-78505322D01*
X162244372Y-78505321D01*
X162395173Y-78459576D01*
X162473529Y-78451859D01*
X162512706Y-78448000D01*
X162591294Y-78448000D01*
X162630471Y-78451859D01*
X162630471Y-78451859D01*
G37*
G36*
X166090351Y-78478743D02*
G01*
X166235941Y-78539048D01*
X166366970Y-78626599D01*
X166478401Y-78738030D01*
X166565952Y-78869059D01*
X166626257Y-79014649D01*
X166657000Y-79169206D01*
X166657000Y-79326794D01*
X166626257Y-79481351D01*
X166565952Y-79626941D01*
X166478401Y-79757970D01*
X166366970Y-79869401D01*
X166235941Y-79956952D01*
X166090351Y-80017257D01*
X165935794Y-80048000D01*
X165778206Y-80048000D01*
X165623649Y-80017257D01*
X165478059Y-79956952D01*
X165347030Y-79869401D01*
X165235599Y-79757970D01*
X165148048Y-79626941D01*
X165087743Y-79481351D01*
X165057000Y-79326794D01*
X165057000Y-79169206D01*
X165087743Y-79014649D01*
X165148048Y-78869059D01*
X165235599Y-78738030D01*
X165347030Y-78626599D01*
X165478059Y-78539048D01*
X165623649Y-78478743D01*
X165778206Y-78448000D01*
X165935794Y-78448000D01*
X166090351Y-78478743D01*
X166090351Y-78478743D01*
G37*
G36*
X114733377Y-74778858D02*
G01*
X115097353Y-74929622D01*
X115097355Y-74929623D01*
X115098651Y-74930489D01*
X115424925Y-75148498D01*
X115703502Y-75427075D01*
X115922378Y-75754647D01*
X116073142Y-76118623D01*
X116150000Y-76505016D01*
X116150000Y-76898984D01*
X116073142Y-77285377D01*
X115944063Y-77597000D01*
X115922377Y-77649355D01*
X115703501Y-77976926D01*
X115424926Y-78255501D01*
X115097355Y-78474377D01*
X115097354Y-78474378D01*
X115097353Y-78474378D01*
X114733377Y-78625142D01*
X114346984Y-78702000D01*
X113953016Y-78702000D01*
X113566623Y-78625142D01*
X113202647Y-78474378D01*
X113202646Y-78474378D01*
X113202645Y-78474377D01*
X112875074Y-78255501D01*
X112596499Y-77976926D01*
X112377623Y-77649355D01*
X112355937Y-77597000D01*
X112226858Y-77285377D01*
X112150000Y-76898984D01*
X112150000Y-76505016D01*
X112226858Y-76118623D01*
X112377622Y-75754647D01*
X112596498Y-75427075D01*
X112875075Y-75148498D01*
X113201349Y-74930489D01*
X113202645Y-74929623D01*
X113202647Y-74929622D01*
X113566623Y-74778858D01*
X113953016Y-74702000D01*
X114346984Y-74702000D01*
X114733377Y-74778858D01*
X114733377Y-74778858D01*
G37*
G36*
X126830711Y-73611088D02*
G01*
X126830714Y-73611089D01*
X126830713Y-73611089D01*
X127200513Y-73764265D01*
X127533325Y-73986643D01*
X127816357Y-74269675D01*
X128011346Y-74561496D01*
X128038736Y-74602489D01*
X128191912Y-74972289D01*
X128270000Y-75364864D01*
X128270000Y-75765136D01*
X128191912Y-76157711D01*
X128174598Y-76199510D01*
X128038735Y-76527513D01*
X127816357Y-76860325D01*
X127533325Y-77143357D01*
X127200513Y-77365735D01*
X127200512Y-77365736D01*
X127200511Y-77365736D01*
X126830711Y-77518912D01*
X126438136Y-77597000D01*
X126037864Y-77597000D01*
X125645289Y-77518912D01*
X125275489Y-77365736D01*
X125275488Y-77365736D01*
X125275487Y-77365735D01*
X124942675Y-77143357D01*
X124659643Y-76860325D01*
X124437265Y-76527513D01*
X124301402Y-76199510D01*
X124284088Y-76157711D01*
X124206000Y-75765136D01*
X124206000Y-75364864D01*
X124284088Y-74972289D01*
X124437264Y-74602489D01*
X124464655Y-74561496D01*
X124659643Y-74269675D01*
X124942675Y-73986643D01*
X125275487Y-73764265D01*
X125645287Y-73611089D01*
X125645286Y-73611089D01*
X125645289Y-73611088D01*
X126037864Y-73533000D01*
X126438136Y-73533000D01*
X126830711Y-73611088D01*
X126830711Y-73611088D01*
G37*
G36*
X174667294Y-74561496D02*
G01*
X174787726Y-74598029D01*
X174830087Y-74610879D01*
X174980107Y-74691066D01*
X174980110Y-74691068D01*
X174980111Y-74691069D01*
X175111612Y-74798988D01*
X175219531Y-74930488D01*
X175219533Y-74930492D01*
X175219534Y-74930493D01*
X175299721Y-75080513D01*
X175299722Y-75080516D01*
X175349104Y-75243305D01*
X175349104Y-75243307D01*
X175361600Y-75370179D01*
X175361600Y-75759820D01*
X175361076Y-75765136D01*
X175349104Y-75886694D01*
X175312571Y-76007128D01*
X175299721Y-76049488D01*
X175262767Y-76118623D01*
X175219531Y-76199512D01*
X175111612Y-76331012D01*
X174980112Y-76438931D01*
X174980108Y-76438933D01*
X174980107Y-76438934D01*
X174830087Y-76519121D01*
X174830084Y-76519122D01*
X174667295Y-76568504D01*
X174498000Y-76585178D01*
X174328706Y-76568504D01*
X174165917Y-76519122D01*
X174165914Y-76519121D01*
X174015894Y-76438934D01*
X174015893Y-76438933D01*
X174015889Y-76438931D01*
X173884388Y-76331012D01*
X173776469Y-76199512D01*
X173733233Y-76118623D01*
X173696279Y-76049487D01*
X173696278Y-76049484D01*
X173646896Y-75886695D01*
X173638565Y-75802112D01*
X173634400Y-75759821D01*
X173634400Y-75370180D01*
X173646896Y-75243308D01*
X173646896Y-75243306D01*
X173696278Y-75080517D01*
X173696279Y-75080513D01*
X173776466Y-74930493D01*
X173777181Y-74929622D01*
X173884388Y-74798988D01*
X174015888Y-74691069D01*
X174015892Y-74691067D01*
X174015893Y-74691066D01*
X174165913Y-74610879D01*
X174193571Y-74602489D01*
X174328705Y-74561496D01*
X174498000Y-74544822D01*
X174667294Y-74561496D01*
X174667294Y-74561496D01*
G37*
G36*
X172127294Y-74561496D02*
G01*
X172247726Y-74598029D01*
X172290087Y-74610879D01*
X172440107Y-74691066D01*
X172440110Y-74691068D01*
X172440111Y-74691069D01*
X172571612Y-74798988D01*
X172679531Y-74930488D01*
X172679533Y-74930492D01*
X172679534Y-74930493D01*
X172759721Y-75080513D01*
X172759722Y-75080516D01*
X172809104Y-75243305D01*
X172809104Y-75243307D01*
X172821600Y-75370179D01*
X172821600Y-75759820D01*
X172821076Y-75765136D01*
X172809104Y-75886694D01*
X172772571Y-76007128D01*
X172759721Y-76049488D01*
X172722767Y-76118623D01*
X172679531Y-76199512D01*
X172571612Y-76331012D01*
X172440112Y-76438931D01*
X172440108Y-76438933D01*
X172440107Y-76438934D01*
X172290087Y-76519121D01*
X172290084Y-76519122D01*
X172127295Y-76568504D01*
X171958000Y-76585178D01*
X171788706Y-76568504D01*
X171625917Y-76519122D01*
X171625914Y-76519121D01*
X171475894Y-76438934D01*
X171475893Y-76438933D01*
X171475889Y-76438931D01*
X171344388Y-76331012D01*
X171236469Y-76199512D01*
X171193233Y-76118623D01*
X171156279Y-76049487D01*
X171156278Y-76049484D01*
X171106896Y-75886695D01*
X171098565Y-75802112D01*
X171094400Y-75759821D01*
X171094400Y-75370180D01*
X171106896Y-75243308D01*
X171106896Y-75243306D01*
X171156278Y-75080517D01*
X171156279Y-75080513D01*
X171236466Y-74930493D01*
X171237181Y-74929622D01*
X171344388Y-74798988D01*
X171475888Y-74691069D01*
X171475892Y-74691067D01*
X171475893Y-74691066D01*
X171625913Y-74610879D01*
X171653571Y-74602489D01*
X171788705Y-74561496D01*
X171958000Y-74544822D01*
X172127294Y-74561496D01*
X172127294Y-74561496D01*
G37*
G36*
X169587294Y-74561496D02*
G01*
X169707726Y-74598029D01*
X169750087Y-74610879D01*
X169900107Y-74691066D01*
X169900110Y-74691068D01*
X169900111Y-74691069D01*
X170031612Y-74798988D01*
X170139531Y-74930488D01*
X170139533Y-74930492D01*
X170139534Y-74930493D01*
X170219721Y-75080513D01*
X170219722Y-75080516D01*
X170269104Y-75243305D01*
X170269104Y-75243307D01*
X170281600Y-75370179D01*
X170281600Y-75759820D01*
X170281076Y-75765136D01*
X170269104Y-75886694D01*
X170232571Y-76007128D01*
X170219721Y-76049488D01*
X170182767Y-76118623D01*
X170139531Y-76199512D01*
X170031612Y-76331012D01*
X169900112Y-76438931D01*
X169900108Y-76438933D01*
X169900107Y-76438934D01*
X169750087Y-76519121D01*
X169750084Y-76519122D01*
X169587295Y-76568504D01*
X169418000Y-76585178D01*
X169248706Y-76568504D01*
X169085917Y-76519122D01*
X169085914Y-76519121D01*
X168935894Y-76438934D01*
X168935893Y-76438933D01*
X168935889Y-76438931D01*
X168804388Y-76331012D01*
X168696469Y-76199512D01*
X168653233Y-76118623D01*
X168616279Y-76049487D01*
X168616278Y-76049484D01*
X168566896Y-75886695D01*
X168558565Y-75802112D01*
X168554400Y-75759821D01*
X168554400Y-75370180D01*
X168566896Y-75243308D01*
X168566896Y-75243306D01*
X168616278Y-75080517D01*
X168616279Y-75080513D01*
X168696466Y-74930493D01*
X168697181Y-74929622D01*
X168804388Y-74798988D01*
X168935888Y-74691069D01*
X168935892Y-74691067D01*
X168935893Y-74691066D01*
X169085913Y-74610879D01*
X169113571Y-74602489D01*
X169248705Y-74561496D01*
X169418000Y-74544822D01*
X169587294Y-74561496D01*
X169587294Y-74561496D01*
G37*
G36*
X164507294Y-74561496D02*
G01*
X164627726Y-74598029D01*
X164670087Y-74610879D01*
X164820107Y-74691066D01*
X164820110Y-74691068D01*
X164820111Y-74691069D01*
X164951612Y-74798988D01*
X165059531Y-74930488D01*
X165059533Y-74930492D01*
X165059534Y-74930493D01*
X165139721Y-75080513D01*
X165139722Y-75080516D01*
X165189104Y-75243305D01*
X165189104Y-75243307D01*
X165201600Y-75370179D01*
X165201600Y-75759820D01*
X165201076Y-75765136D01*
X165189104Y-75886694D01*
X165152571Y-76007128D01*
X165139721Y-76049488D01*
X165102767Y-76118623D01*
X165059531Y-76199512D01*
X164951612Y-76331012D01*
X164820112Y-76438931D01*
X164820108Y-76438933D01*
X164820107Y-76438934D01*
X164670087Y-76519121D01*
X164670084Y-76519122D01*
X164507295Y-76568504D01*
X164338000Y-76585178D01*
X164168706Y-76568504D01*
X164005917Y-76519122D01*
X164005914Y-76519121D01*
X163855894Y-76438934D01*
X163855893Y-76438933D01*
X163855889Y-76438931D01*
X163724388Y-76331012D01*
X163616469Y-76199512D01*
X163573233Y-76118623D01*
X163536279Y-76049487D01*
X163536278Y-76049484D01*
X163486896Y-75886695D01*
X163478565Y-75802112D01*
X163474400Y-75759821D01*
X163474400Y-75370180D01*
X163486896Y-75243308D01*
X163486896Y-75243306D01*
X163536278Y-75080517D01*
X163536279Y-75080513D01*
X163616466Y-74930493D01*
X163617181Y-74929622D01*
X163724388Y-74798988D01*
X163855888Y-74691069D01*
X163855892Y-74691067D01*
X163855893Y-74691066D01*
X164005913Y-74610879D01*
X164033571Y-74602489D01*
X164168705Y-74561496D01*
X164338000Y-74544822D01*
X164507294Y-74561496D01*
X164507294Y-74561496D01*
G37*
G36*
X161967294Y-74561496D02*
G01*
X162087726Y-74598029D01*
X162130087Y-74610879D01*
X162280107Y-74691066D01*
X162280110Y-74691068D01*
X162280111Y-74691069D01*
X162411612Y-74798988D01*
X162519531Y-74930488D01*
X162519533Y-74930492D01*
X162519534Y-74930493D01*
X162599721Y-75080513D01*
X162599722Y-75080516D01*
X162649104Y-75243305D01*
X162649104Y-75243307D01*
X162661600Y-75370179D01*
X162661600Y-75759820D01*
X162661076Y-75765136D01*
X162649104Y-75886694D01*
X162612571Y-76007128D01*
X162599721Y-76049488D01*
X162562767Y-76118623D01*
X162519531Y-76199512D01*
X162411612Y-76331012D01*
X162280112Y-76438931D01*
X162280108Y-76438933D01*
X162280107Y-76438934D01*
X162130087Y-76519121D01*
X162130084Y-76519122D01*
X161967295Y-76568504D01*
X161798000Y-76585178D01*
X161628706Y-76568504D01*
X161465917Y-76519122D01*
X161465914Y-76519121D01*
X161315894Y-76438934D01*
X161315893Y-76438933D01*
X161315889Y-76438931D01*
X161184388Y-76331012D01*
X161076469Y-76199512D01*
X161033233Y-76118623D01*
X160996279Y-76049487D01*
X160996278Y-76049484D01*
X160946896Y-75886695D01*
X160938565Y-75802112D01*
X160934400Y-75759821D01*
X160934400Y-75370180D01*
X160946896Y-75243308D01*
X160946896Y-75243306D01*
X160996278Y-75080517D01*
X160996279Y-75080513D01*
X161076466Y-74930493D01*
X161077181Y-74929622D01*
X161184388Y-74798988D01*
X161315888Y-74691069D01*
X161315892Y-74691067D01*
X161315893Y-74691066D01*
X161465913Y-74610879D01*
X161493571Y-74602489D01*
X161628705Y-74561496D01*
X161798000Y-74544822D01*
X161967294Y-74561496D01*
X161967294Y-74561496D01*
G37*
G36*
X159427294Y-74561496D02*
G01*
X159547726Y-74598029D01*
X159590087Y-74610879D01*
X159740107Y-74691066D01*
X159740110Y-74691068D01*
X159740111Y-74691069D01*
X159871612Y-74798988D01*
X159979531Y-74930488D01*
X159979533Y-74930492D01*
X159979534Y-74930493D01*
X160059721Y-75080513D01*
X160059722Y-75080516D01*
X160109104Y-75243305D01*
X160109104Y-75243307D01*
X160121600Y-75370179D01*
X160121600Y-75759820D01*
X160121076Y-75765136D01*
X160109104Y-75886694D01*
X160072571Y-76007128D01*
X160059721Y-76049488D01*
X160022767Y-76118623D01*
X159979531Y-76199512D01*
X159871612Y-76331012D01*
X159740112Y-76438931D01*
X159740108Y-76438933D01*
X159740107Y-76438934D01*
X159590087Y-76519121D01*
X159590084Y-76519122D01*
X159427295Y-76568504D01*
X159258000Y-76585178D01*
X159088706Y-76568504D01*
X158925917Y-76519122D01*
X158925914Y-76519121D01*
X158775894Y-76438934D01*
X158775893Y-76438933D01*
X158775889Y-76438931D01*
X158644388Y-76331012D01*
X158536469Y-76199512D01*
X158493233Y-76118623D01*
X158456279Y-76049487D01*
X158456278Y-76049484D01*
X158406896Y-75886695D01*
X158398565Y-75802112D01*
X158394400Y-75759821D01*
X158394400Y-75370180D01*
X158406896Y-75243308D01*
X158406896Y-75243306D01*
X158456278Y-75080517D01*
X158456279Y-75080513D01*
X158536466Y-74930493D01*
X158537181Y-74929622D01*
X158644388Y-74798988D01*
X158775888Y-74691069D01*
X158775892Y-74691067D01*
X158775893Y-74691066D01*
X158925913Y-74610879D01*
X158953571Y-74602489D01*
X159088705Y-74561496D01*
X159258000Y-74544822D01*
X159427294Y-74561496D01*
X159427294Y-74561496D01*
G37*
G36*
X156887294Y-74561496D02*
G01*
X157007726Y-74598029D01*
X157050087Y-74610879D01*
X157200107Y-74691066D01*
X157200110Y-74691068D01*
X157200111Y-74691069D01*
X157331612Y-74798988D01*
X157439531Y-74930488D01*
X157439533Y-74930492D01*
X157439534Y-74930493D01*
X157519721Y-75080513D01*
X157519722Y-75080516D01*
X157569104Y-75243305D01*
X157569104Y-75243307D01*
X157581600Y-75370179D01*
X157581600Y-75759820D01*
X157581076Y-75765136D01*
X157569104Y-75886694D01*
X157532571Y-76007128D01*
X157519721Y-76049488D01*
X157482767Y-76118623D01*
X157439531Y-76199512D01*
X157331612Y-76331012D01*
X157200112Y-76438931D01*
X157200108Y-76438933D01*
X157200107Y-76438934D01*
X157050087Y-76519121D01*
X157050084Y-76519122D01*
X156887295Y-76568504D01*
X156718000Y-76585178D01*
X156548706Y-76568504D01*
X156385917Y-76519122D01*
X156385914Y-76519121D01*
X156235894Y-76438934D01*
X156235893Y-76438933D01*
X156235889Y-76438931D01*
X156104388Y-76331012D01*
X155996469Y-76199512D01*
X155953233Y-76118623D01*
X155916279Y-76049487D01*
X155916278Y-76049484D01*
X155866896Y-75886695D01*
X155858565Y-75802112D01*
X155854400Y-75759821D01*
X155854400Y-75370180D01*
X155866896Y-75243308D01*
X155866896Y-75243306D01*
X155916278Y-75080517D01*
X155916279Y-75080513D01*
X155996466Y-74930493D01*
X155997181Y-74929622D01*
X156104388Y-74798988D01*
X156235888Y-74691069D01*
X156235892Y-74691067D01*
X156235893Y-74691066D01*
X156385913Y-74610879D01*
X156413571Y-74602489D01*
X156548705Y-74561496D01*
X156718000Y-74544822D01*
X156887294Y-74561496D01*
X156887294Y-74561496D01*
G37*
G36*
X152823294Y-74561496D02*
G01*
X152943726Y-74598029D01*
X152986087Y-74610879D01*
X153136107Y-74691066D01*
X153136110Y-74691068D01*
X153136111Y-74691069D01*
X153267612Y-74798988D01*
X153375531Y-74930488D01*
X153375533Y-74930492D01*
X153375534Y-74930493D01*
X153455721Y-75080513D01*
X153455722Y-75080516D01*
X153505104Y-75243305D01*
X153505104Y-75243307D01*
X153517600Y-75370179D01*
X153517600Y-75759820D01*
X153517076Y-75765136D01*
X153505104Y-75886694D01*
X153468571Y-76007128D01*
X153455721Y-76049488D01*
X153418767Y-76118623D01*
X153375531Y-76199512D01*
X153267612Y-76331012D01*
X153136112Y-76438931D01*
X153136108Y-76438933D01*
X153136107Y-76438934D01*
X152986087Y-76519121D01*
X152986084Y-76519122D01*
X152823295Y-76568504D01*
X152654000Y-76585178D01*
X152484706Y-76568504D01*
X152321917Y-76519122D01*
X152321914Y-76519121D01*
X152171894Y-76438934D01*
X152171893Y-76438933D01*
X152171889Y-76438931D01*
X152040388Y-76331012D01*
X151932469Y-76199512D01*
X151889233Y-76118623D01*
X151852279Y-76049487D01*
X151852278Y-76049484D01*
X151802896Y-75886695D01*
X151794565Y-75802112D01*
X151790400Y-75759821D01*
X151790400Y-75370180D01*
X151802896Y-75243308D01*
X151802896Y-75243306D01*
X151852278Y-75080517D01*
X151852279Y-75080513D01*
X151932466Y-74930493D01*
X151933181Y-74929622D01*
X152040388Y-74798988D01*
X152171888Y-74691069D01*
X152171892Y-74691067D01*
X152171893Y-74691066D01*
X152321913Y-74610879D01*
X152349571Y-74602489D01*
X152484705Y-74561496D01*
X152654000Y-74544822D01*
X152823294Y-74561496D01*
X152823294Y-74561496D01*
G37*
G36*
X137583294Y-74561496D02*
G01*
X137703726Y-74598029D01*
X137746087Y-74610879D01*
X137896107Y-74691066D01*
X137896110Y-74691068D01*
X137896111Y-74691069D01*
X138027612Y-74798988D01*
X138135531Y-74930488D01*
X138135533Y-74930492D01*
X138135534Y-74930493D01*
X138215721Y-75080513D01*
X138215722Y-75080516D01*
X138265104Y-75243305D01*
X138265104Y-75243307D01*
X138277600Y-75370179D01*
X138277600Y-75759820D01*
X138277076Y-75765136D01*
X138265104Y-75886694D01*
X138228571Y-76007128D01*
X138215721Y-76049488D01*
X138178767Y-76118623D01*
X138135531Y-76199512D01*
X138027612Y-76331012D01*
X137896112Y-76438931D01*
X137896108Y-76438933D01*
X137896107Y-76438934D01*
X137746087Y-76519121D01*
X137746084Y-76519122D01*
X137583295Y-76568504D01*
X137414000Y-76585178D01*
X137244706Y-76568504D01*
X137081917Y-76519122D01*
X137081914Y-76519121D01*
X136931894Y-76438934D01*
X136931893Y-76438933D01*
X136931889Y-76438931D01*
X136800388Y-76331012D01*
X136692469Y-76199512D01*
X136649233Y-76118623D01*
X136612279Y-76049487D01*
X136612278Y-76049484D01*
X136562896Y-75886695D01*
X136554565Y-75802112D01*
X136550400Y-75759821D01*
X136550400Y-75370180D01*
X136562896Y-75243308D01*
X136562896Y-75243306D01*
X136612278Y-75080517D01*
X136612279Y-75080513D01*
X136692466Y-74930493D01*
X136693181Y-74929622D01*
X136800388Y-74798988D01*
X136931888Y-74691069D01*
X136931892Y-74691067D01*
X136931893Y-74691066D01*
X137081913Y-74610879D01*
X137109571Y-74602489D01*
X137244705Y-74561496D01*
X137414000Y-74544822D01*
X137583294Y-74561496D01*
X137583294Y-74561496D01*
G37*
G36*
X135043294Y-74561496D02*
G01*
X135163726Y-74598029D01*
X135206087Y-74610879D01*
X135356107Y-74691066D01*
X135356110Y-74691068D01*
X135356111Y-74691069D01*
X135487612Y-74798988D01*
X135595531Y-74930488D01*
X135595533Y-74930492D01*
X135595534Y-74930493D01*
X135675721Y-75080513D01*
X135675722Y-75080516D01*
X135725104Y-75243305D01*
X135725104Y-75243307D01*
X135737600Y-75370179D01*
X135737600Y-75759820D01*
X135737076Y-75765136D01*
X135725104Y-75886694D01*
X135688571Y-76007128D01*
X135675721Y-76049488D01*
X135638767Y-76118623D01*
X135595531Y-76199512D01*
X135487612Y-76331012D01*
X135356112Y-76438931D01*
X135356108Y-76438933D01*
X135356107Y-76438934D01*
X135206087Y-76519121D01*
X135206084Y-76519122D01*
X135043295Y-76568504D01*
X134874000Y-76585178D01*
X134704706Y-76568504D01*
X134541917Y-76519122D01*
X134541914Y-76519121D01*
X134391894Y-76438934D01*
X134391893Y-76438933D01*
X134391889Y-76438931D01*
X134260388Y-76331012D01*
X134152469Y-76199512D01*
X134109233Y-76118623D01*
X134072279Y-76049487D01*
X134072278Y-76049484D01*
X134022896Y-75886695D01*
X134014565Y-75802112D01*
X134010400Y-75759821D01*
X134010400Y-75370180D01*
X134022896Y-75243308D01*
X134022896Y-75243306D01*
X134072278Y-75080517D01*
X134072279Y-75080513D01*
X134152466Y-74930493D01*
X134153181Y-74929622D01*
X134260388Y-74798988D01*
X134391888Y-74691069D01*
X134391892Y-74691067D01*
X134391893Y-74691066D01*
X134541913Y-74610879D01*
X134569571Y-74602489D01*
X134704705Y-74561496D01*
X134874000Y-74544822D01*
X135043294Y-74561496D01*
X135043294Y-74561496D01*
G37*
G36*
X132503294Y-74561496D02*
G01*
X132623726Y-74598029D01*
X132666087Y-74610879D01*
X132816107Y-74691066D01*
X132816110Y-74691068D01*
X132816111Y-74691069D01*
X132947612Y-74798988D01*
X133055531Y-74930488D01*
X133055533Y-74930492D01*
X133055534Y-74930493D01*
X133135721Y-75080513D01*
X133135722Y-75080516D01*
X133185104Y-75243305D01*
X133185104Y-75243307D01*
X133197600Y-75370179D01*
X133197600Y-75759820D01*
X133197076Y-75765136D01*
X133185104Y-75886694D01*
X133148571Y-76007128D01*
X133135721Y-76049488D01*
X133098767Y-76118623D01*
X133055531Y-76199512D01*
X132947612Y-76331012D01*
X132816112Y-76438931D01*
X132816108Y-76438933D01*
X132816107Y-76438934D01*
X132666087Y-76519121D01*
X132666084Y-76519122D01*
X132503295Y-76568504D01*
X132334000Y-76585178D01*
X132164706Y-76568504D01*
X132001917Y-76519122D01*
X132001914Y-76519121D01*
X131851894Y-76438934D01*
X131851893Y-76438933D01*
X131851889Y-76438931D01*
X131720388Y-76331012D01*
X131612469Y-76199512D01*
X131569233Y-76118623D01*
X131532279Y-76049487D01*
X131532278Y-76049484D01*
X131482896Y-75886695D01*
X131474565Y-75802112D01*
X131470400Y-75759821D01*
X131470400Y-75370180D01*
X131482896Y-75243308D01*
X131482896Y-75243306D01*
X131532278Y-75080517D01*
X131532279Y-75080513D01*
X131612466Y-74930493D01*
X131613181Y-74929622D01*
X131720388Y-74798988D01*
X131851888Y-74691069D01*
X131851892Y-74691067D01*
X131851893Y-74691066D01*
X132001913Y-74610879D01*
X132029571Y-74602489D01*
X132164705Y-74561496D01*
X132334000Y-74544822D01*
X132503294Y-74561496D01*
X132503294Y-74561496D01*
G37*
G36*
X129963294Y-74561496D02*
G01*
X130083726Y-74598029D01*
X130126087Y-74610879D01*
X130276107Y-74691066D01*
X130276110Y-74691068D01*
X130276111Y-74691069D01*
X130407612Y-74798988D01*
X130515531Y-74930488D01*
X130515533Y-74930492D01*
X130515534Y-74930493D01*
X130595721Y-75080513D01*
X130595722Y-75080516D01*
X130645104Y-75243305D01*
X130645104Y-75243307D01*
X130657600Y-75370179D01*
X130657600Y-75759820D01*
X130657076Y-75765136D01*
X130645104Y-75886694D01*
X130608571Y-76007128D01*
X130595721Y-76049488D01*
X130558767Y-76118623D01*
X130515531Y-76199512D01*
X130407612Y-76331012D01*
X130276112Y-76438931D01*
X130276108Y-76438933D01*
X130276107Y-76438934D01*
X130126087Y-76519121D01*
X130126084Y-76519122D01*
X129963295Y-76568504D01*
X129794000Y-76585178D01*
X129624706Y-76568504D01*
X129461917Y-76519122D01*
X129461914Y-76519121D01*
X129311894Y-76438934D01*
X129311893Y-76438933D01*
X129311889Y-76438931D01*
X129180388Y-76331012D01*
X129072469Y-76199512D01*
X129029233Y-76118623D01*
X128992279Y-76049487D01*
X128992278Y-76049484D01*
X128942896Y-75886695D01*
X128934565Y-75802112D01*
X128930400Y-75759821D01*
X128930400Y-75370180D01*
X128942896Y-75243308D01*
X128942896Y-75243306D01*
X128992278Y-75080517D01*
X128992279Y-75080513D01*
X129072466Y-74930493D01*
X129073181Y-74929622D01*
X129180388Y-74798988D01*
X129311888Y-74691069D01*
X129311892Y-74691067D01*
X129311893Y-74691066D01*
X129461913Y-74610879D01*
X129489571Y-74602489D01*
X129624705Y-74561496D01*
X129794000Y-74544822D01*
X129963294Y-74561496D01*
X129963294Y-74561496D01*
G37*
G36*
X167047294Y-74561496D02*
G01*
X167167726Y-74598029D01*
X167210087Y-74610879D01*
X167360107Y-74691066D01*
X167360110Y-74691068D01*
X167360111Y-74691069D01*
X167491612Y-74798988D01*
X167599531Y-74930488D01*
X167599533Y-74930492D01*
X167599534Y-74930493D01*
X167679721Y-75080513D01*
X167679722Y-75080516D01*
X167729104Y-75243305D01*
X167729104Y-75243307D01*
X167741600Y-75370179D01*
X167741600Y-75759820D01*
X167741076Y-75765136D01*
X167729104Y-75886694D01*
X167692571Y-76007128D01*
X167679721Y-76049488D01*
X167642767Y-76118623D01*
X167599531Y-76199512D01*
X167491612Y-76331012D01*
X167360112Y-76438931D01*
X167360108Y-76438933D01*
X167360107Y-76438934D01*
X167210087Y-76519121D01*
X167210084Y-76519122D01*
X167047295Y-76568504D01*
X166878000Y-76585178D01*
X166708706Y-76568504D01*
X166545917Y-76519122D01*
X166545914Y-76519121D01*
X166395894Y-76438934D01*
X166395893Y-76438933D01*
X166395889Y-76438931D01*
X166264388Y-76331012D01*
X166156469Y-76199512D01*
X166113233Y-76118623D01*
X166076279Y-76049487D01*
X166076278Y-76049484D01*
X166026896Y-75886695D01*
X166018565Y-75802112D01*
X166014400Y-75759821D01*
X166014400Y-75370180D01*
X166026896Y-75243308D01*
X166026896Y-75243306D01*
X166076278Y-75080517D01*
X166076279Y-75080513D01*
X166156466Y-74930493D01*
X166157181Y-74929622D01*
X166264388Y-74798988D01*
X166395888Y-74691069D01*
X166395892Y-74691067D01*
X166395893Y-74691066D01*
X166545913Y-74610879D01*
X166573571Y-74602489D01*
X166708705Y-74561496D01*
X166878000Y-74544822D01*
X167047294Y-74561496D01*
X167047294Y-74561496D01*
G37*
G36*
X142663294Y-74561496D02*
G01*
X142783726Y-74598029D01*
X142826087Y-74610879D01*
X142976107Y-74691066D01*
X142976110Y-74691068D01*
X142976111Y-74691069D01*
X143107612Y-74798988D01*
X143215531Y-74930488D01*
X143215533Y-74930492D01*
X143215534Y-74930493D01*
X143295721Y-75080513D01*
X143295722Y-75080516D01*
X143345104Y-75243305D01*
X143345104Y-75243307D01*
X143357600Y-75370179D01*
X143357600Y-75759820D01*
X143357076Y-75765136D01*
X143345104Y-75886694D01*
X143308571Y-76007128D01*
X143295721Y-76049488D01*
X143258767Y-76118623D01*
X143215531Y-76199512D01*
X143107612Y-76331012D01*
X142976112Y-76438931D01*
X142976108Y-76438933D01*
X142976107Y-76438934D01*
X142826087Y-76519121D01*
X142826084Y-76519122D01*
X142663295Y-76568504D01*
X142494000Y-76585178D01*
X142324706Y-76568504D01*
X142161917Y-76519122D01*
X142161914Y-76519121D01*
X142011894Y-76438934D01*
X142011893Y-76438933D01*
X142011889Y-76438931D01*
X141880388Y-76331012D01*
X141772469Y-76199512D01*
X141729233Y-76118623D01*
X141692279Y-76049487D01*
X141692278Y-76049484D01*
X141642896Y-75886695D01*
X141634565Y-75802112D01*
X141630400Y-75759821D01*
X141630400Y-75370180D01*
X141642896Y-75243308D01*
X141642896Y-75243306D01*
X141692278Y-75080517D01*
X141692279Y-75080513D01*
X141772466Y-74930493D01*
X141773181Y-74929622D01*
X141880388Y-74798988D01*
X142011888Y-74691069D01*
X142011892Y-74691067D01*
X142011893Y-74691066D01*
X142161913Y-74610879D01*
X142189571Y-74602489D01*
X142324705Y-74561496D01*
X142494000Y-74544822D01*
X142663294Y-74561496D01*
X142663294Y-74561496D01*
G37*
G36*
X145203294Y-74561496D02*
G01*
X145323726Y-74598029D01*
X145366087Y-74610879D01*
X145516107Y-74691066D01*
X145516110Y-74691068D01*
X145516111Y-74691069D01*
X145647612Y-74798988D01*
X145755531Y-74930488D01*
X145755533Y-74930492D01*
X145755534Y-74930493D01*
X145835721Y-75080513D01*
X145835722Y-75080516D01*
X145885104Y-75243305D01*
X145885104Y-75243307D01*
X145897600Y-75370179D01*
X145897600Y-75759820D01*
X145897076Y-75765136D01*
X145885104Y-75886694D01*
X145848571Y-76007128D01*
X145835721Y-76049488D01*
X145798767Y-76118623D01*
X145755531Y-76199512D01*
X145647612Y-76331012D01*
X145516112Y-76438931D01*
X145516108Y-76438933D01*
X145516107Y-76438934D01*
X145366087Y-76519121D01*
X145366084Y-76519122D01*
X145203295Y-76568504D01*
X145034000Y-76585178D01*
X144864706Y-76568504D01*
X144701917Y-76519122D01*
X144701914Y-76519121D01*
X144551894Y-76438934D01*
X144551893Y-76438933D01*
X144551889Y-76438931D01*
X144420388Y-76331012D01*
X144312469Y-76199512D01*
X144269233Y-76118623D01*
X144232279Y-76049487D01*
X144232278Y-76049484D01*
X144182896Y-75886695D01*
X144174565Y-75802112D01*
X144170400Y-75759821D01*
X144170400Y-75370180D01*
X144182896Y-75243308D01*
X144182896Y-75243306D01*
X144232278Y-75080517D01*
X144232279Y-75080513D01*
X144312466Y-74930493D01*
X144313181Y-74929622D01*
X144420388Y-74798988D01*
X144551888Y-74691069D01*
X144551892Y-74691067D01*
X144551893Y-74691066D01*
X144701913Y-74610879D01*
X144729571Y-74602489D01*
X144864705Y-74561496D01*
X145034000Y-74544822D01*
X145203294Y-74561496D01*
X145203294Y-74561496D01*
G37*
G36*
X140123294Y-74561496D02*
G01*
X140243726Y-74598029D01*
X140286087Y-74610879D01*
X140436107Y-74691066D01*
X140436110Y-74691068D01*
X140436111Y-74691069D01*
X140567612Y-74798988D01*
X140675531Y-74930488D01*
X140675533Y-74930492D01*
X140675534Y-74930493D01*
X140755721Y-75080513D01*
X140755722Y-75080516D01*
X140805104Y-75243305D01*
X140805104Y-75243307D01*
X140817600Y-75370179D01*
X140817600Y-75759820D01*
X140817076Y-75765136D01*
X140805104Y-75886694D01*
X140768571Y-76007128D01*
X140755721Y-76049488D01*
X140718767Y-76118623D01*
X140675531Y-76199512D01*
X140567612Y-76331012D01*
X140436112Y-76438931D01*
X140436108Y-76438933D01*
X140436107Y-76438934D01*
X140286087Y-76519121D01*
X140286084Y-76519122D01*
X140123295Y-76568504D01*
X139954000Y-76585178D01*
X139784706Y-76568504D01*
X139621917Y-76519122D01*
X139621914Y-76519121D01*
X139471894Y-76438934D01*
X139471893Y-76438933D01*
X139471889Y-76438931D01*
X139340388Y-76331012D01*
X139232469Y-76199512D01*
X139189233Y-76118623D01*
X139152279Y-76049487D01*
X139152278Y-76049484D01*
X139102896Y-75886695D01*
X139094565Y-75802112D01*
X139090400Y-75759821D01*
X139090400Y-75370180D01*
X139102896Y-75243308D01*
X139102896Y-75243306D01*
X139152278Y-75080517D01*
X139152279Y-75080513D01*
X139232466Y-74930493D01*
X139233181Y-74929622D01*
X139340388Y-74798988D01*
X139471888Y-74691069D01*
X139471892Y-74691067D01*
X139471893Y-74691066D01*
X139621913Y-74610879D01*
X139649571Y-74602489D01*
X139784705Y-74561496D01*
X139954000Y-74544822D01*
X140123294Y-74561496D01*
X140123294Y-74561496D01*
G37*
G36*
X147743294Y-74561496D02*
G01*
X147863726Y-74598029D01*
X147906087Y-74610879D01*
X148056107Y-74691066D01*
X148056110Y-74691068D01*
X148056111Y-74691069D01*
X148187612Y-74798988D01*
X148295531Y-74930488D01*
X148295533Y-74930492D01*
X148295534Y-74930493D01*
X148375721Y-75080513D01*
X148375722Y-75080516D01*
X148425104Y-75243305D01*
X148425104Y-75243307D01*
X148437600Y-75370179D01*
X148437600Y-75759820D01*
X148437076Y-75765136D01*
X148425104Y-75886694D01*
X148388571Y-76007128D01*
X148375721Y-76049488D01*
X148338767Y-76118623D01*
X148295531Y-76199512D01*
X148187612Y-76331012D01*
X148056112Y-76438931D01*
X148056108Y-76438933D01*
X148056107Y-76438934D01*
X147906087Y-76519121D01*
X147906084Y-76519122D01*
X147743295Y-76568504D01*
X147574000Y-76585178D01*
X147404706Y-76568504D01*
X147241917Y-76519122D01*
X147241914Y-76519121D01*
X147091894Y-76438934D01*
X147091893Y-76438933D01*
X147091889Y-76438931D01*
X146960388Y-76331012D01*
X146852469Y-76199512D01*
X146809233Y-76118623D01*
X146772279Y-76049487D01*
X146772278Y-76049484D01*
X146722896Y-75886695D01*
X146714565Y-75802112D01*
X146710400Y-75759821D01*
X146710400Y-75370180D01*
X146722896Y-75243308D01*
X146722896Y-75243306D01*
X146772278Y-75080517D01*
X146772279Y-75080513D01*
X146852466Y-74930493D01*
X146853181Y-74929622D01*
X146960388Y-74798988D01*
X147091888Y-74691069D01*
X147091892Y-74691067D01*
X147091893Y-74691066D01*
X147241913Y-74610879D01*
X147269571Y-74602489D01*
X147404705Y-74561496D01*
X147574000Y-74544822D01*
X147743294Y-74561496D01*
X147743294Y-74561496D01*
G37*
G36*
X150283294Y-74561496D02*
G01*
X150403726Y-74598029D01*
X150446087Y-74610879D01*
X150596107Y-74691066D01*
X150596110Y-74691068D01*
X150596111Y-74691069D01*
X150727612Y-74798988D01*
X150835531Y-74930488D01*
X150835533Y-74930492D01*
X150835534Y-74930493D01*
X150915721Y-75080513D01*
X150915722Y-75080516D01*
X150965104Y-75243305D01*
X150965104Y-75243307D01*
X150977600Y-75370179D01*
X150977600Y-75759820D01*
X150977076Y-75765136D01*
X150965104Y-75886694D01*
X150928571Y-76007128D01*
X150915721Y-76049488D01*
X150878767Y-76118623D01*
X150835531Y-76199512D01*
X150727612Y-76331012D01*
X150596112Y-76438931D01*
X150596108Y-76438933D01*
X150596107Y-76438934D01*
X150446087Y-76519121D01*
X150446084Y-76519122D01*
X150283295Y-76568504D01*
X150114000Y-76585178D01*
X149944706Y-76568504D01*
X149781917Y-76519122D01*
X149781914Y-76519121D01*
X149631894Y-76438934D01*
X149631893Y-76438933D01*
X149631889Y-76438931D01*
X149500388Y-76331012D01*
X149392469Y-76199512D01*
X149349233Y-76118623D01*
X149312279Y-76049487D01*
X149312278Y-76049484D01*
X149262896Y-75886695D01*
X149254565Y-75802112D01*
X149250400Y-75759821D01*
X149250400Y-75370180D01*
X149262896Y-75243308D01*
X149262896Y-75243306D01*
X149312278Y-75080517D01*
X149312279Y-75080513D01*
X149392466Y-74930493D01*
X149393181Y-74929622D01*
X149500388Y-74798988D01*
X149631888Y-74691069D01*
X149631892Y-74691067D01*
X149631893Y-74691066D01*
X149781913Y-74610879D01*
X149809571Y-74602489D01*
X149944705Y-74561496D01*
X150114000Y-74544822D01*
X150283294Y-74561496D01*
X150283294Y-74561496D01*
G37*
M02*
