%FSLAX45Y45*%
G04 Gerber Fmt 4.5, Leading zero omitted, Abs format (unit mm)*
G04 Created by KiCad (PCBNEW (5.1.4)-1) date 2019-10-04 17:51:20*
%MOMM*%
%LPD*%
G04 APERTURE LIST*
%ADD10C,0.150000*%
%ADD11C,0.200000*%
%ADD12C,0.300000*%
G04 APERTURE END LIST*
D10*
X17703800Y-7454900D02*
X17551400Y-7302500D01*
X17703800Y-8597900D02*
X17703800Y-7454900D01*
X17957800Y-8851900D02*
X17703800Y-8597900D01*
X17957800Y-12128500D02*
X17957800Y-8851900D01*
X17703800Y-12382500D02*
X17957800Y-12128500D01*
X17703800Y-12636500D02*
X17703800Y-12382500D01*
X11099800Y-12636500D02*
X17703800Y-12636500D01*
X11099800Y-7302500D02*
X11099800Y-12636500D01*
X17551400Y-7302500D02*
X11099800Y-7302500D01*
D11*
X11968800Y-8425500D02*
X12008800Y-8465500D01*
X12008800Y-8425500D02*
X11968800Y-8465500D01*
X11968800Y-8679500D02*
X12008800Y-8719500D01*
X12008800Y-8679500D02*
X11968800Y-8719500D01*
X11968800Y-8933500D02*
X12008800Y-8973500D01*
X12008800Y-8933500D02*
X11968800Y-8973500D01*
X11968800Y-9187500D02*
X12008800Y-9227500D01*
X12008800Y-9187500D02*
X11968800Y-9227500D01*
X12095800Y-8552500D02*
X12135800Y-8592500D01*
X12135800Y-8552500D02*
X12095800Y-8592500D01*
X12095800Y-8806500D02*
X12135800Y-8846500D01*
X12135800Y-8806500D02*
X12095800Y-8846500D01*
X12095800Y-9060500D02*
X12135800Y-9100500D01*
X12135800Y-9060500D02*
X12095800Y-9100500D01*
X12095800Y-9314500D02*
X12135800Y-9354500D01*
X12135800Y-9314500D02*
X12095800Y-9354500D01*
X12222800Y-8425500D02*
X12262800Y-8465500D01*
X12262800Y-8425500D02*
X12222800Y-8465500D01*
X12222800Y-8679500D02*
X12262800Y-8719500D01*
X12262800Y-8679500D02*
X12222800Y-8719500D01*
X12222800Y-8933500D02*
X12262800Y-8973500D01*
X12262800Y-8933500D02*
X12222800Y-8973500D01*
X12222800Y-9187500D02*
X12262800Y-9227500D01*
X12262800Y-9187500D02*
X12222800Y-9227500D01*
X12349800Y-8552500D02*
X12389800Y-8592500D01*
X12389800Y-8552500D02*
X12349800Y-8592500D01*
X12349800Y-8806500D02*
X12389800Y-8846500D01*
X12389800Y-8806500D02*
X12349800Y-8846500D01*
X12349800Y-9060500D02*
X12389800Y-9100500D01*
X12389800Y-9060500D02*
X12349800Y-9100500D01*
X12349800Y-9314500D02*
X12389800Y-9354500D01*
X12389800Y-9314500D02*
X12349800Y-9354500D01*
X12476800Y-8425500D02*
X12516800Y-8465500D01*
X12516800Y-8425500D02*
X12476800Y-8465500D01*
X12476800Y-8679500D02*
X12516800Y-8719500D01*
X12516800Y-8679500D02*
X12476800Y-8719500D01*
X12476800Y-8933500D02*
X12516800Y-8973500D01*
X12516800Y-8933500D02*
X12476800Y-8973500D01*
X12476800Y-9187500D02*
X12516800Y-9227500D01*
X12516800Y-9187500D02*
X12476800Y-9227500D01*
X12603800Y-8552500D02*
X12643800Y-8592500D01*
X12643800Y-8552500D02*
X12603800Y-8592500D01*
X12603800Y-8806500D02*
X12643800Y-8846500D01*
X12643800Y-8806500D02*
X12603800Y-8846500D01*
X12603800Y-9060500D02*
X12643800Y-9100500D01*
X12643800Y-9060500D02*
X12603800Y-9100500D01*
X12603800Y-9314500D02*
X12643800Y-9354500D01*
X12643800Y-9314500D02*
X12603800Y-9354500D01*
X12730800Y-8425500D02*
X12770800Y-8465500D01*
X12770800Y-8425500D02*
X12730800Y-8465500D01*
X12730800Y-8679500D02*
X12770800Y-8719500D01*
X12770800Y-8679500D02*
X12730800Y-8719500D01*
X12730800Y-8933500D02*
X12770800Y-8973500D01*
X12770800Y-8933500D02*
X12730800Y-8973500D01*
X12730800Y-9187500D02*
X12770800Y-9227500D01*
X12770800Y-9187500D02*
X12730800Y-9227500D01*
X12857800Y-8552500D02*
X12897800Y-8592500D01*
X12897800Y-8552500D02*
X12857800Y-8592500D01*
X12857800Y-8806500D02*
X12897800Y-8846500D01*
X12897800Y-8806500D02*
X12857800Y-8846500D01*
X12857800Y-9060500D02*
X12897800Y-9100500D01*
X12897800Y-9060500D02*
X12857800Y-9100500D01*
X12857800Y-9314500D02*
X12897800Y-9354500D01*
X12897800Y-9314500D02*
X12857800Y-9354500D01*
X13050560Y-9112290D02*
X13090560Y-9152290D01*
X13090560Y-9112290D02*
X13050560Y-9152290D01*
X13275260Y-8883290D02*
X13315260Y-8923290D01*
X13315260Y-8883290D02*
X13275260Y-8923290D01*
X13279160Y-10501710D02*
X13319160Y-10541710D01*
X13319160Y-10501710D02*
X13279160Y-10541710D01*
X13942810Y-9435070D02*
X13982810Y-9475070D01*
X13982810Y-9435070D02*
X13942810Y-9475070D01*
X14921040Y-10106140D02*
X14961040Y-10146140D01*
X14961040Y-10106140D02*
X14921040Y-10146140D01*
X15025350Y-10423250D02*
X15065350Y-10463250D01*
X15065350Y-10423250D02*
X15025350Y-10463250D01*
X16106660Y-9680120D02*
X16146660Y-9720120D01*
X16146660Y-9680120D02*
X16106660Y-9720120D01*
X16304700Y-9448550D02*
X16344700Y-9488550D01*
X16344700Y-9448550D02*
X16304700Y-9488550D01*
X16725320Y-8117050D02*
X16765320Y-8157050D01*
X16765320Y-8117050D02*
X16725320Y-8157050D01*
X17115950Y-9418400D02*
X17155950Y-9458400D01*
X17155950Y-9418400D02*
X17115950Y-9458400D01*
X17189070Y-9484680D02*
X17229070Y-9524680D01*
X17229070Y-9484680D02*
X17189070Y-9524680D01*
X17409050Y-8834050D02*
X17449050Y-8874050D01*
X17449050Y-8834050D02*
X17409050Y-8874050D01*
X11491800Y-10769600D02*
G75*
G03X11491800Y-10769600I-30000J0D01*
G01*
X11491800Y-10969600D02*
G75*
G03X11491800Y-10969600I-30000J0D01*
G01*
X12253800Y-10794600D02*
G75*
G03X12253800Y-10794600I-30000J0D01*
G01*
X12253800Y-10944600D02*
G75*
G03X12253800Y-10944600I-30000J0D01*
G01*
X13015800Y-10769600D02*
G75*
G03X13015800Y-10769600I-30000J0D01*
G01*
X13015800Y-10969600D02*
G75*
G03X13015800Y-10969600I-30000J0D01*
G01*
X14556800Y-8634100D02*
X14556800Y-8714100D01*
X14516800Y-8674100D02*
X14596800Y-8674100D01*
X15572800Y-8634100D02*
X15572800Y-8714100D01*
X15532800Y-8674100D02*
X15612800Y-8674100D01*
X12420600Y-11345600D02*
X12420600Y-11425600D01*
X12380600Y-11385600D02*
X12460600Y-11385600D01*
X12674600Y-11345600D02*
X12674600Y-11425600D01*
X12634600Y-11385600D02*
X12714600Y-11385600D01*
X12928600Y-11345600D02*
X12928600Y-11425600D01*
X12888600Y-11385600D02*
X12968600Y-11385600D01*
X13157200Y-11345600D02*
X13157200Y-11425600D01*
X13117200Y-11385600D02*
X13197200Y-11385600D01*
X13411200Y-11345600D02*
X13411200Y-11425600D01*
X13371200Y-11385600D02*
X13451200Y-11385600D01*
X13665200Y-11345600D02*
X13665200Y-11425600D01*
X13625200Y-11385600D02*
X13705200Y-11385600D01*
X13157200Y-8634100D02*
X13157200Y-8714100D01*
X13117200Y-8674100D02*
X13197200Y-8674100D01*
X14173200Y-8634100D02*
X14173200Y-8714100D01*
X14133200Y-8674100D02*
X14213200Y-8674100D01*
X13157200Y-7929250D02*
X13157200Y-8009250D01*
X13117200Y-7969250D02*
X13197200Y-7969250D01*
X14173200Y-7929250D02*
X14173200Y-8009250D01*
X14133200Y-7969250D02*
X14213200Y-7969250D01*
X17246600Y-7884800D02*
X17246600Y-7964800D01*
X17206600Y-7924800D02*
X17286600Y-7924800D01*
X17246600Y-8900800D02*
X17246600Y-8980800D01*
X17206600Y-8940800D02*
X17286600Y-8940800D01*
X16916200Y-7884800D02*
X16916200Y-7964800D01*
X16876200Y-7924800D02*
X16956200Y-7924800D01*
X16916200Y-8900800D02*
X16916200Y-8980800D01*
X16876200Y-8940800D02*
X16956200Y-8940800D01*
X13639800Y-9929500D02*
X13639800Y-10009500D01*
X13599800Y-9969500D02*
X13679800Y-9969500D01*
X13639800Y-10691500D02*
X13639800Y-10771500D01*
X13599800Y-10731500D02*
X13679800Y-10731500D01*
X13893800Y-9929500D02*
X13893800Y-10009500D01*
X13853800Y-9969500D02*
X13933800Y-9969500D01*
X13893800Y-10691500D02*
X13893800Y-10771500D01*
X13853800Y-10731500D02*
X13933800Y-10731500D01*
X14147800Y-9929500D02*
X14147800Y-10009500D01*
X14107800Y-9969500D02*
X14187800Y-9969500D01*
X14147800Y-10691500D02*
X14147800Y-10771500D01*
X14107800Y-10731500D02*
X14187800Y-10731500D01*
X14401800Y-9929500D02*
X14401800Y-10009500D01*
X14361800Y-9969500D02*
X14441800Y-9969500D01*
X14401800Y-10691500D02*
X14401800Y-10771500D01*
X14361800Y-10731500D02*
X14441800Y-10731500D01*
X14655800Y-9929500D02*
X14655800Y-10009500D01*
X14615800Y-9969500D02*
X14695800Y-9969500D01*
X14655800Y-10691500D02*
X14655800Y-10771500D01*
X14615800Y-10731500D02*
X14695800Y-10731500D01*
X14909800Y-9929500D02*
X14909800Y-10009500D01*
X14869800Y-9969500D02*
X14949800Y-9969500D01*
X14909800Y-10691500D02*
X14909800Y-10771500D01*
X14869800Y-10731500D02*
X14949800Y-10731500D01*
X15163800Y-9929500D02*
X15163800Y-10009500D01*
X15123800Y-9969500D02*
X15203800Y-9969500D01*
X15163800Y-10691500D02*
X15163800Y-10771500D01*
X15123800Y-10731500D02*
X15203800Y-10731500D01*
X15417800Y-9929500D02*
X15417800Y-10009500D01*
X15377800Y-9969500D02*
X15457800Y-9969500D01*
X15417800Y-10691500D02*
X15417800Y-10771500D01*
X15377800Y-10731500D02*
X15457800Y-10731500D01*
X15671800Y-9929500D02*
X15671800Y-10009500D01*
X15631800Y-9969500D02*
X15711800Y-9969500D01*
X15671800Y-10691500D02*
X15671800Y-10771500D01*
X15631800Y-10731500D02*
X15711800Y-10731500D01*
X15925800Y-9929500D02*
X15925800Y-10009500D01*
X15885800Y-9969500D02*
X15965800Y-9969500D01*
X15925800Y-10691500D02*
X15925800Y-10771500D01*
X15885800Y-10731500D02*
X15965800Y-10731500D01*
X16179800Y-9929500D02*
X16179800Y-10009500D01*
X16139800Y-9969500D02*
X16219800Y-9969500D01*
X16179800Y-10691500D02*
X16179800Y-10771500D01*
X16139800Y-10731500D02*
X16219800Y-10731500D01*
X16433800Y-9929500D02*
X16433800Y-10009500D01*
X16393800Y-9969500D02*
X16473800Y-9969500D01*
X16433800Y-10691500D02*
X16433800Y-10771500D01*
X16393800Y-10731500D02*
X16473800Y-10731500D01*
X16687800Y-9929500D02*
X16687800Y-10009500D01*
X16647800Y-9969500D02*
X16727800Y-9969500D01*
X16687800Y-10691500D02*
X16687800Y-10771500D01*
X16647800Y-10731500D02*
X16727800Y-10731500D01*
X16941800Y-9929500D02*
X16941800Y-10009500D01*
X16901800Y-9969500D02*
X16981800Y-9969500D01*
X16941800Y-10691500D02*
X16941800Y-10771500D01*
X16901800Y-10731500D02*
X16981800Y-10731500D01*
X14556800Y-7929250D02*
X14556800Y-8009250D01*
X14516800Y-7969250D02*
X14596800Y-7969250D01*
X15572800Y-7929250D02*
X15572800Y-8009250D01*
X15532800Y-7969250D02*
X15612800Y-7969250D01*
X16065500Y-11980600D02*
X16065500Y-12060600D01*
X16025500Y-12020600D02*
X16105500Y-12020600D01*
X17081500Y-11980600D02*
X17081500Y-12060600D01*
X17041500Y-12020600D02*
X17121500Y-12020600D01*
X14821800Y-9104100D02*
X14821800Y-9184100D01*
X14781800Y-9144100D02*
X14861800Y-9144100D01*
X15309800Y-9104100D02*
X15309800Y-9184100D01*
X15269800Y-9144100D02*
X15349800Y-9144100D01*
X13157200Y-8281680D02*
X13157200Y-8361680D01*
X13117200Y-8321680D02*
X13197200Y-8321680D01*
X14173200Y-8281680D02*
X14173200Y-8361680D01*
X14133200Y-8321680D02*
X14213200Y-8321680D01*
X16585700Y-7884800D02*
X16585700Y-7964800D01*
X16545700Y-7924800D02*
X16625700Y-7924800D01*
X16585700Y-8900800D02*
X16585700Y-8980800D01*
X16545700Y-8940800D02*
X16625700Y-8940800D01*
X15309800Y-9580250D02*
X15309800Y-9660250D01*
X15269800Y-9620250D02*
X15349800Y-9620250D01*
X15559800Y-9580250D02*
X15559800Y-9660250D01*
X15519800Y-9620250D02*
X15599800Y-9620250D01*
X14570900Y-9580250D02*
X14570900Y-9660250D01*
X14530900Y-9620250D02*
X14610900Y-9620250D01*
X14820900Y-9580250D02*
X14820900Y-9660250D01*
X14780900Y-9620250D02*
X14860900Y-9620250D01*
X16255200Y-7884800D02*
X16255200Y-7964800D01*
X16215200Y-7924800D02*
X16295200Y-7924800D01*
X16255200Y-8900800D02*
X16255200Y-8980800D01*
X16215200Y-8940800D02*
X16295200Y-8940800D01*
X16065500Y-11048300D02*
X16065500Y-11128300D01*
X16025500Y-11088300D02*
X16105500Y-11088300D01*
X17081500Y-11048300D02*
X17081500Y-11128300D01*
X17041500Y-11088300D02*
X17121500Y-11088300D01*
X15924800Y-7884800D02*
X15924800Y-7964800D01*
X15884800Y-7924800D02*
X15964800Y-7924800D01*
X15924800Y-8900800D02*
X15924800Y-8980800D01*
X15884800Y-8940800D02*
X15964800Y-8940800D01*
X14556800Y-8281680D02*
X14556800Y-8361680D01*
X14516800Y-8321680D02*
X14596800Y-8321680D01*
X15572800Y-8281680D02*
X15572800Y-8361680D01*
X15532800Y-8321680D02*
X15612800Y-8321680D01*
X13224920Y-9086920D02*
X13224920Y-9023280D01*
X13161280Y-9023280D01*
X13161280Y-9086920D01*
X13224920Y-9086920D01*
X13224920Y-9340920D02*
X13224920Y-9277280D01*
X13161280Y-9277280D01*
X13161280Y-9340920D01*
X13224920Y-9340920D01*
X13715020Y-9086920D02*
X13715020Y-9023280D01*
X13651380Y-9023280D01*
X13651380Y-9086920D01*
X13715020Y-9086920D01*
X13715020Y-9340920D02*
X13715020Y-9277280D01*
X13651380Y-9277280D01*
X13651380Y-9340920D01*
X13715020Y-9340920D01*
X12985820Y-12414320D02*
X12985820Y-12350680D01*
X12922180Y-12350680D01*
X12922180Y-12414320D01*
X12985820Y-12414320D01*
X13239820Y-12414320D02*
X13239820Y-12350680D01*
X13176180Y-12350680D01*
X13176180Y-12414320D01*
X13239820Y-12414320D01*
X14205020Y-9086920D02*
X14205020Y-9023280D01*
X14141380Y-9023280D01*
X14141380Y-9086920D01*
X14205020Y-9086920D01*
X14205020Y-9340920D02*
X14205020Y-9277280D01*
X14141380Y-9277280D01*
X14141380Y-9340920D01*
X14205020Y-9340920D01*
X11553900Y-11924500D02*
X11603900Y-11874500D01*
X11553900Y-11824500D01*
X11503900Y-11874500D01*
X11553900Y-11924500D01*
X11513900Y-11774500D02*
X11513900Y-11974500D01*
X11593900Y-11774500D02*
X11593900Y-11974500D01*
X11513900Y-11974500D02*
G75*
G03X11593900Y-11974500I40000J0D01*
G01*
X11593900Y-11774500D02*
G75*
G03X11513900Y-11774500I-40000J0D01*
G01*
X11853900Y-12394500D02*
X11903900Y-12344500D01*
X11853900Y-12294500D01*
X11803900Y-12344500D01*
X11853900Y-12394500D01*
X11753900Y-12384500D02*
X11953900Y-12384500D01*
X11753900Y-12304500D02*
X11953900Y-12304500D01*
X11953900Y-12384500D02*
G75*
G03X11953900Y-12304500I0J40000D01*
G01*
X11753900Y-12304500D02*
G75*
G03X11753900Y-12384500I0J-40000D01*
G01*
X12153900Y-11924500D02*
X12203900Y-11874500D01*
X12153900Y-11824500D01*
X12103900Y-11874500D01*
X12153900Y-11924500D01*
X12113900Y-11774500D02*
X12113900Y-11974500D01*
X12193900Y-11774500D02*
X12193900Y-11974500D01*
X12113900Y-11974500D02*
G75*
G03X12193900Y-11974500I40000J0D01*
G01*
X12193900Y-11774500D02*
G75*
G03X12113900Y-11774500I-40000J0D01*
G01*
X11273000Y-8554700D02*
X11323000Y-8504700D01*
X11273000Y-8454700D01*
X11223000Y-8504700D01*
X11273000Y-8554700D01*
X11273000Y-8831700D02*
X11323000Y-8781700D01*
X11273000Y-8731700D01*
X11223000Y-8781700D01*
X11273000Y-8831700D01*
X11273000Y-9108700D02*
X11323000Y-9058700D01*
X11273000Y-9008700D01*
X11223000Y-9058700D01*
X11273000Y-9108700D01*
X11273000Y-9385700D02*
X11323000Y-9335700D01*
X11273000Y-9285700D01*
X11223000Y-9335700D01*
X11273000Y-9385700D01*
X11557000Y-8416200D02*
X11607000Y-8366200D01*
X11557000Y-8316200D01*
X11507000Y-8366200D01*
X11557000Y-8416200D01*
X11557000Y-8693200D02*
X11607000Y-8643200D01*
X11557000Y-8593200D01*
X11507000Y-8643200D01*
X11557000Y-8693200D01*
X11557000Y-8970200D02*
X11607000Y-8920200D01*
X11557000Y-8870200D01*
X11507000Y-8920200D01*
X11557000Y-8970200D01*
X11557000Y-9247200D02*
X11607000Y-9197200D01*
X11557000Y-9147200D01*
X11507000Y-9197200D01*
X11557000Y-9247200D01*
X11557000Y-9524200D02*
X11607000Y-9474200D01*
X11557000Y-9424200D01*
X11507000Y-9474200D01*
X11557000Y-9524200D01*
X14084300Y-11219000D02*
X14134300Y-11169000D01*
X14084300Y-11119000D01*
X14034300Y-11169000D01*
X14084300Y-11219000D01*
X14084300Y-11969000D02*
X14134300Y-11919000D01*
X14084300Y-11869000D01*
X14034300Y-11919000D01*
X14084300Y-11969000D01*
X15322600Y-11219000D02*
X15372600Y-11169000D01*
X15322600Y-11119000D01*
X15272600Y-11169000D01*
X15322600Y-11219000D01*
X15322600Y-11969000D02*
X15372600Y-11919000D01*
X15322600Y-11869000D01*
X15272600Y-11919000D01*
X15322600Y-11969000D01*
X14703400Y-11219000D02*
X14753400Y-11169000D01*
X14703400Y-11119000D01*
X14653400Y-11169000D01*
X14703400Y-11219000D01*
X14703400Y-11969000D02*
X14753400Y-11919000D01*
X14703400Y-11869000D01*
X14653400Y-11919000D01*
X14703400Y-11969000D01*
X12058600Y-10286200D02*
X12108600Y-10236200D01*
X12058600Y-10186200D01*
X12008600Y-10236200D01*
X12058600Y-10286200D01*
X12808600Y-10286200D02*
X12858600Y-10236200D01*
X12808600Y-10186200D01*
X12758600Y-10236200D01*
X12808600Y-10286200D01*
X17717500Y-10578300D02*
X17767500Y-10528300D01*
X17717500Y-10478300D01*
X17667500Y-10528300D01*
X17717500Y-10578300D01*
X17717500Y-10832300D02*
X17767500Y-10782300D01*
X17717500Y-10732300D01*
X17667500Y-10782300D01*
X17717500Y-10832300D01*
X17717500Y-11086300D02*
X17767500Y-11036300D01*
X17717500Y-10986300D01*
X17667500Y-11036300D01*
X17717500Y-11086300D01*
X16922800Y-9422600D02*
X16972800Y-9372600D01*
X16922800Y-9322600D01*
X16872800Y-9372600D01*
X16922800Y-9422600D01*
X16922800Y-9676600D02*
X16972800Y-9626600D01*
X16922800Y-9576600D01*
X16872800Y-9626600D01*
X16922800Y-9676600D01*
X17462500Y-9638500D02*
X17512500Y-9588500D01*
X17462500Y-9538500D01*
X17412500Y-9588500D01*
X17462500Y-9638500D01*
X17462500Y-9892500D02*
X17512500Y-9842500D01*
X17462500Y-9792500D01*
X17412500Y-9842500D01*
X17462500Y-9892500D01*
X17462500Y-10146500D02*
X17512500Y-10096500D01*
X17462500Y-10046500D01*
X17412500Y-10096500D01*
X17462500Y-10146500D01*
X17716500Y-9638500D02*
X17766500Y-9588500D01*
X17716500Y-9538500D01*
X17666500Y-9588500D01*
X17716500Y-9638500D01*
X17716500Y-9892500D02*
X17766500Y-9842500D01*
X17716500Y-9792500D01*
X17666500Y-9842500D01*
X17716500Y-9892500D01*
X17716500Y-10146500D02*
X17766500Y-10096500D01*
X17716500Y-10046500D01*
X17666500Y-10096500D01*
X17716500Y-10146500D01*
X12928600Y-7505700D02*
X13030200Y-7607300D01*
X13030200Y-7505700D02*
X12928600Y-7607300D01*
X13030200Y-7556500D02*
G75*
G03X13030200Y-7556500I-50800J0D01*
G01*
X13182600Y-7505700D02*
X13284200Y-7607300D01*
X13284200Y-7505700D02*
X13182600Y-7607300D01*
X13284200Y-7556500D02*
G75*
G03X13284200Y-7556500I-50800J0D01*
G01*
X13436600Y-7505700D02*
X13538200Y-7607300D01*
X13538200Y-7505700D02*
X13436600Y-7607300D01*
X13538200Y-7556500D02*
G75*
G03X13538200Y-7556500I-50800J0D01*
G01*
X13690600Y-7505700D02*
X13792200Y-7607300D01*
X13792200Y-7505700D02*
X13690600Y-7607300D01*
X13792200Y-7556500D02*
G75*
G03X13792200Y-7556500I-50800J0D01*
G01*
X13944600Y-7505700D02*
X14046200Y-7607300D01*
X14046200Y-7505700D02*
X13944600Y-7607300D01*
X14046200Y-7556500D02*
G75*
G03X14046200Y-7556500I-50800J0D01*
G01*
X14198600Y-7505700D02*
X14300200Y-7607300D01*
X14300200Y-7505700D02*
X14198600Y-7607300D01*
X14300200Y-7556500D02*
G75*
G03X14300200Y-7556500I-50800J0D01*
G01*
X14452600Y-7505700D02*
X14554200Y-7607300D01*
X14554200Y-7505700D02*
X14452600Y-7607300D01*
X14554200Y-7556500D02*
G75*
G03X14554200Y-7556500I-50800J0D01*
G01*
X14706600Y-7505700D02*
X14808200Y-7607300D01*
X14808200Y-7505700D02*
X14706600Y-7607300D01*
X14808200Y-7556500D02*
G75*
G03X14808200Y-7556500I-50800J0D01*
G01*
X14960600Y-7505700D02*
X15062200Y-7607300D01*
X15062200Y-7505700D02*
X14960600Y-7607300D01*
X15062200Y-7556500D02*
G75*
G03X15062200Y-7556500I-50800J0D01*
G01*
X15214600Y-7505700D02*
X15316200Y-7607300D01*
X15316200Y-7505700D02*
X15214600Y-7607300D01*
X15316200Y-7556500D02*
G75*
G03X15316200Y-7556500I-50800J0D01*
G01*
X16129000Y-12331700D02*
X16230600Y-12433300D01*
X16230600Y-12331700D02*
X16129000Y-12433300D01*
X16230600Y-12382500D02*
G75*
G03X16230600Y-12382500I-50800J0D01*
G01*
X16383000Y-12331700D02*
X16484600Y-12433300D01*
X16484600Y-12331700D02*
X16383000Y-12433300D01*
X16484600Y-12382500D02*
G75*
G03X16484600Y-12382500I-50800J0D01*
G01*
X16637000Y-12331700D02*
X16738600Y-12433300D01*
X16738600Y-12331700D02*
X16637000Y-12433300D01*
X16738600Y-12382500D02*
G75*
G03X16738600Y-12382500I-50800J0D01*
G01*
X16891000Y-12331700D02*
X16992600Y-12433300D01*
X16992600Y-12331700D02*
X16891000Y-12433300D01*
X16992600Y-12382500D02*
G75*
G03X16992600Y-12382500I-50800J0D01*
G01*
X17145000Y-12331700D02*
X17246600Y-12433300D01*
X17246600Y-12331700D02*
X17145000Y-12433300D01*
X17246600Y-12382500D02*
G75*
G03X17246600Y-12382500I-50800J0D01*
G01*
X17399000Y-12331700D02*
X17500600Y-12433300D01*
X17500600Y-12331700D02*
X17399000Y-12433300D01*
X17500600Y-12382500D02*
G75*
G03X17500600Y-12382500I-50800J0D01*
G01*
X15621000Y-7505700D02*
X15722600Y-7607300D01*
X15722600Y-7505700D02*
X15621000Y-7607300D01*
X15722600Y-7556500D02*
G75*
G03X15722600Y-7556500I-50800J0D01*
G01*
X15875000Y-7505700D02*
X15976600Y-7607300D01*
X15976600Y-7505700D02*
X15875000Y-7607300D01*
X15976600Y-7556500D02*
G75*
G03X15976600Y-7556500I-50800J0D01*
G01*
X16129000Y-7505700D02*
X16230600Y-7607300D01*
X16230600Y-7505700D02*
X16129000Y-7607300D01*
X16230600Y-7556500D02*
G75*
G03X16230600Y-7556500I-50800J0D01*
G01*
X16383000Y-7505700D02*
X16484600Y-7607300D01*
X16484600Y-7505700D02*
X16383000Y-7607300D01*
X16484600Y-7556500D02*
G75*
G03X16484600Y-7556500I-50800J0D01*
G01*
X16637000Y-7505700D02*
X16738600Y-7607300D01*
X16738600Y-7505700D02*
X16637000Y-7607300D01*
X16738600Y-7556500D02*
G75*
G03X16738600Y-7556500I-50800J0D01*
G01*
X16891000Y-7505700D02*
X16992600Y-7607300D01*
X16992600Y-7505700D02*
X16891000Y-7607300D01*
X16992600Y-7556500D02*
G75*
G03X16992600Y-7556500I-50800J0D01*
G01*
X17145000Y-7505700D02*
X17246600Y-7607300D01*
X17246600Y-7505700D02*
X17145000Y-7607300D01*
X17246600Y-7556500D02*
G75*
G03X17246600Y-7556500I-50800J0D01*
G01*
X17399000Y-7505700D02*
X17500600Y-7607300D01*
X17500600Y-7505700D02*
X17399000Y-7607300D01*
X17500600Y-7556500D02*
G75*
G03X17500600Y-7556500I-50800J0D01*
G01*
X13843000Y-12331700D02*
X13944600Y-12433300D01*
X13944600Y-12331700D02*
X13843000Y-12433300D01*
X13944600Y-12382500D02*
G75*
G03X13944600Y-12382500I-50800J0D01*
G01*
X14097000Y-12331700D02*
X14198600Y-12433300D01*
X14198600Y-12331700D02*
X14097000Y-12433300D01*
X14198600Y-12382500D02*
G75*
G03X14198600Y-12382500I-50800J0D01*
G01*
X14351000Y-12331700D02*
X14452600Y-12433300D01*
X14452600Y-12331700D02*
X14351000Y-12433300D01*
X14452600Y-12382500D02*
G75*
G03X14452600Y-12382500I-50800J0D01*
G01*
X14605000Y-12331700D02*
X14706600Y-12433300D01*
X14706600Y-12331700D02*
X14605000Y-12433300D01*
X14706600Y-12382500D02*
G75*
G03X14706600Y-12382500I-50800J0D01*
G01*
X14859000Y-12331700D02*
X14960600Y-12433300D01*
X14960600Y-12331700D02*
X14859000Y-12433300D01*
X14960600Y-12382500D02*
G75*
G03X14960600Y-12382500I-50800J0D01*
G01*
X15113000Y-12331700D02*
X15214600Y-12433300D01*
X15214600Y-12331700D02*
X15113000Y-12433300D01*
X15214600Y-12382500D02*
G75*
G03X15214600Y-12382500I-50800J0D01*
G01*
X15367000Y-12331700D02*
X15468600Y-12433300D01*
X15468600Y-12331700D02*
X15367000Y-12433300D01*
X15468600Y-12382500D02*
G75*
G03X15468600Y-12382500I-50800J0D01*
G01*
X15621000Y-12331700D02*
X15722600Y-12433300D01*
X15722600Y-12331700D02*
X15621000Y-12433300D01*
X15722600Y-12382500D02*
G75*
G03X15722600Y-12382500I-50800J0D01*
G01*
X15870800Y-9152500D02*
X15980800Y-9262500D01*
X15980800Y-9152500D02*
X15870800Y-9262500D01*
X15925800Y-9152500D02*
X15925800Y-9262500D01*
X15870800Y-9207500D02*
X15980800Y-9207500D01*
X15870800Y-9602500D02*
X15980800Y-9712500D01*
X15980800Y-9602500D02*
X15870800Y-9712500D01*
X15925800Y-9602500D02*
X15925800Y-9712500D01*
X15870800Y-9657500D02*
X15980800Y-9657500D01*
X16520800Y-9152500D02*
X16630800Y-9262500D01*
X16630800Y-9152500D02*
X16520800Y-9262500D01*
X16575800Y-9152500D02*
X16575800Y-9262500D01*
X16520800Y-9207500D02*
X16630800Y-9207500D01*
X16520800Y-9602500D02*
X16630800Y-9712500D01*
X16630800Y-9602500D02*
X16520800Y-9712500D01*
X16575800Y-9602500D02*
X16575800Y-9712500D01*
X16520800Y-9657500D02*
X16630800Y-9657500D01*
X12518500Y-11921100D02*
X12628500Y-12031100D01*
X12628500Y-11921100D02*
X12518500Y-12031100D01*
X12573500Y-11921100D02*
X12573500Y-12031100D01*
X12518500Y-11976100D02*
X12628500Y-11976100D01*
X13534500Y-11921100D02*
X13644500Y-12031100D01*
X13644500Y-11921100D02*
X13534500Y-12031100D01*
X13589500Y-11921100D02*
X13589500Y-12031100D01*
X13534500Y-11976100D02*
X13644500Y-11976100D01*
X12111600Y-9736700D02*
X12221600Y-9846700D01*
X12221600Y-9736700D02*
X12111600Y-9846700D01*
X12166600Y-9736700D02*
X12166600Y-9846700D01*
X12111600Y-9791700D02*
X12221600Y-9791700D01*
X12365600Y-9736700D02*
X12475600Y-9846700D01*
X12475600Y-9736700D02*
X12365600Y-9846700D01*
X12420600Y-9736700D02*
X12420600Y-9846700D01*
X12365600Y-9791700D02*
X12475600Y-9791700D01*
X12619600Y-9736700D02*
X12729600Y-9846700D01*
X12729600Y-9736700D02*
X12619600Y-9846700D01*
X12674600Y-9736700D02*
X12674600Y-9846700D01*
X12619600Y-9791700D02*
X12729600Y-9791700D01*
X15751500Y-11490600D02*
X15871500Y-11610600D01*
X15871500Y-11490600D02*
X15751500Y-11610600D01*
X15853927Y-11593027D02*
X15853927Y-11508173D01*
X15769073Y-11508173D01*
X15769073Y-11593027D01*
X15853927Y-11593027D01*
X17275500Y-11490600D02*
X17395500Y-11610600D01*
X17395500Y-11490600D02*
X17275500Y-11610600D01*
X17377927Y-11593027D02*
X17377927Y-11508173D01*
X17293073Y-11508173D01*
X17293073Y-11593027D01*
X17377927Y-11593027D01*
X12471400Y-7404100D02*
X12776200Y-7708900D01*
X12776200Y-7404100D02*
X12471400Y-7708900D01*
X12623800Y-7708900D02*
X12776200Y-7556500D01*
X12623800Y-7404100D01*
X12471400Y-7556500D01*
X12623800Y-7708900D01*
X17551400Y-11722100D02*
X17856200Y-12026900D01*
X17856200Y-11722100D02*
X17551400Y-12026900D01*
X17703800Y-12026900D02*
X17856200Y-11874500D01*
X17703800Y-11722100D01*
X17551400Y-11874500D01*
X17703800Y-12026900D01*
X12344400Y-12230100D02*
X12649200Y-12534900D01*
X12649200Y-12230100D02*
X12344400Y-12534900D01*
X12496800Y-12534900D02*
X12649200Y-12382500D01*
X12496800Y-12230100D01*
X12344400Y-12382500D01*
X12496800Y-12534900D01*
X17551400Y-8928100D02*
X17856200Y-9232900D01*
X17856200Y-8928100D02*
X17551400Y-9232900D01*
X17703800Y-9232900D02*
X17856200Y-9080500D01*
X17703800Y-8928100D01*
X17551400Y-9080500D01*
X17703800Y-9232900D01*
X11415000Y-7510200D02*
X11415000Y-7830200D01*
X11255000Y-7670200D02*
X11575000Y-7670200D01*
X11575000Y-7670200D02*
G75*
G03X11575000Y-7670200I-160000J0D01*
G01*
X11415000Y-10010200D02*
X11415000Y-10330200D01*
X11255000Y-10170200D02*
X11575000Y-10170200D01*
X11575000Y-10170200D02*
G75*
G03X11575000Y-10170200I-160000J0D01*
G01*
D12*
X11378728Y-13109714D02*
X11378728Y-12809714D01*
X11450157Y-12809714D01*
X11493014Y-12824000D01*
X11521586Y-12852571D01*
X11535871Y-12881143D01*
X11550157Y-12938286D01*
X11550157Y-12981143D01*
X11535871Y-13038286D01*
X11521586Y-13066857D01*
X11493014Y-13095429D01*
X11450157Y-13109714D01*
X11378728Y-13109714D01*
X11678728Y-13109714D02*
X11678728Y-12909714D01*
X11678728Y-12966857D02*
X11693014Y-12938286D01*
X11707300Y-12924000D01*
X11735871Y-12909714D01*
X11764443Y-12909714D01*
X11864443Y-13109714D02*
X11864443Y-12909714D01*
X11864443Y-12809714D02*
X11850157Y-12824000D01*
X11864443Y-12838286D01*
X11878728Y-12824000D01*
X11864443Y-12809714D01*
X11864443Y-12838286D01*
X12050157Y-13109714D02*
X12021586Y-13095429D01*
X12007300Y-13066857D01*
X12007300Y-12809714D01*
X12207300Y-13109714D02*
X12178728Y-13095429D01*
X12164443Y-13066857D01*
X12164443Y-12809714D01*
X12550157Y-13109714D02*
X12550157Y-12809714D01*
X12650157Y-13024000D01*
X12750157Y-12809714D01*
X12750157Y-13109714D01*
X13021586Y-13109714D02*
X13021586Y-12952571D01*
X13007300Y-12924000D01*
X12978728Y-12909714D01*
X12921586Y-12909714D01*
X12893014Y-12924000D01*
X13021586Y-13095429D02*
X12993014Y-13109714D01*
X12921586Y-13109714D01*
X12893014Y-13095429D01*
X12878728Y-13066857D01*
X12878728Y-13038286D01*
X12893014Y-13009714D01*
X12921586Y-12995429D01*
X12993014Y-12995429D01*
X13021586Y-12981143D01*
X13164443Y-12909714D02*
X13164443Y-13209714D01*
X13164443Y-12924000D02*
X13193014Y-12909714D01*
X13250157Y-12909714D01*
X13278728Y-12924000D01*
X13293014Y-12938286D01*
X13307300Y-12966857D01*
X13307300Y-13052571D01*
X13293014Y-13081143D01*
X13278728Y-13095429D01*
X13250157Y-13109714D01*
X13193014Y-13109714D01*
X13164443Y-13095429D01*
X13435871Y-13081143D02*
X13450157Y-13095429D01*
X13435871Y-13109714D01*
X13421586Y-13095429D01*
X13435871Y-13081143D01*
X13435871Y-13109714D01*
X13435871Y-12924000D02*
X13450157Y-12938286D01*
X13435871Y-12952571D01*
X13421586Y-12938286D01*
X13435871Y-12924000D01*
X13435871Y-12952571D01*
X11052300Y-13584000D02*
X11092300Y-13624000D01*
X11092300Y-13584000D02*
X11052300Y-13624000D01*
X11435871Y-13439714D02*
X11464443Y-13439714D01*
X11493014Y-13454000D01*
X11507300Y-13468286D01*
X11521586Y-13496857D01*
X11535871Y-13554000D01*
X11535871Y-13625429D01*
X11521586Y-13682571D01*
X11507300Y-13711143D01*
X11493014Y-13725429D01*
X11464443Y-13739714D01*
X11435871Y-13739714D01*
X11407300Y-13725429D01*
X11393014Y-13711143D01*
X11378728Y-13682571D01*
X11364443Y-13625429D01*
X11364443Y-13554000D01*
X11378728Y-13496857D01*
X11393014Y-13468286D01*
X11407300Y-13454000D01*
X11435871Y-13439714D01*
X11664443Y-13711143D02*
X11678728Y-13725429D01*
X11664443Y-13739714D01*
X11650157Y-13725429D01*
X11664443Y-13711143D01*
X11664443Y-13739714D01*
X11935871Y-13539714D02*
X11935871Y-13739714D01*
X11864443Y-13425429D02*
X11793014Y-13639714D01*
X11978728Y-13639714D01*
X12150157Y-13439714D02*
X12178728Y-13439714D01*
X12207300Y-13454000D01*
X12221586Y-13468286D01*
X12235871Y-13496857D01*
X12250157Y-13554000D01*
X12250157Y-13625429D01*
X12235871Y-13682571D01*
X12221586Y-13711143D01*
X12207300Y-13725429D01*
X12178728Y-13739714D01*
X12150157Y-13739714D01*
X12121586Y-13725429D01*
X12107300Y-13711143D01*
X12093014Y-13682571D01*
X12078728Y-13625429D01*
X12078728Y-13554000D01*
X12093014Y-13496857D01*
X12107300Y-13468286D01*
X12121586Y-13454000D01*
X12150157Y-13439714D01*
X12378728Y-13739714D02*
X12378728Y-13539714D01*
X12378728Y-13568286D02*
X12393014Y-13554000D01*
X12421586Y-13539714D01*
X12464443Y-13539714D01*
X12493014Y-13554000D01*
X12507300Y-13582571D01*
X12507300Y-13739714D01*
X12507300Y-13582571D02*
X12521586Y-13554000D01*
X12550157Y-13539714D01*
X12593014Y-13539714D01*
X12621586Y-13554000D01*
X12635871Y-13582571D01*
X12635871Y-13739714D01*
X12778728Y-13739714D02*
X12778728Y-13539714D01*
X12778728Y-13568286D02*
X12793014Y-13554000D01*
X12821586Y-13539714D01*
X12864443Y-13539714D01*
X12893014Y-13554000D01*
X12907300Y-13582571D01*
X12907300Y-13739714D01*
X12907300Y-13582571D02*
X12921586Y-13554000D01*
X12950157Y-13539714D01*
X12993014Y-13539714D01*
X13021586Y-13554000D01*
X13035871Y-13582571D01*
X13035871Y-13739714D01*
X13621586Y-13425429D02*
X13364443Y-13811143D01*
X14007300Y-13439714D02*
X14035871Y-13439714D01*
X14064443Y-13454000D01*
X14078728Y-13468286D01*
X14093014Y-13496857D01*
X14107300Y-13554000D01*
X14107300Y-13625429D01*
X14093014Y-13682571D01*
X14078728Y-13711143D01*
X14064443Y-13725429D01*
X14035871Y-13739714D01*
X14007300Y-13739714D01*
X13978728Y-13725429D01*
X13964443Y-13711143D01*
X13950157Y-13682571D01*
X13935871Y-13625429D01*
X13935871Y-13554000D01*
X13950157Y-13496857D01*
X13964443Y-13468286D01*
X13978728Y-13454000D01*
X14007300Y-13439714D01*
X14235871Y-13711143D02*
X14250157Y-13725429D01*
X14235871Y-13739714D01*
X14221586Y-13725429D01*
X14235871Y-13711143D01*
X14235871Y-13739714D01*
X14435871Y-13439714D02*
X14464443Y-13439714D01*
X14493014Y-13454000D01*
X14507300Y-13468286D01*
X14521586Y-13496857D01*
X14535871Y-13554000D01*
X14535871Y-13625429D01*
X14521586Y-13682571D01*
X14507300Y-13711143D01*
X14493014Y-13725429D01*
X14464443Y-13739714D01*
X14435871Y-13739714D01*
X14407300Y-13725429D01*
X14393014Y-13711143D01*
X14378728Y-13682571D01*
X14364443Y-13625429D01*
X14364443Y-13554000D01*
X14378728Y-13496857D01*
X14393014Y-13468286D01*
X14407300Y-13454000D01*
X14435871Y-13439714D01*
X14821586Y-13739714D02*
X14650157Y-13739714D01*
X14735871Y-13739714D02*
X14735871Y-13439714D01*
X14707300Y-13482571D01*
X14678728Y-13511143D01*
X14650157Y-13525429D01*
X15078728Y-13439714D02*
X15021586Y-13439714D01*
X14993014Y-13454000D01*
X14978728Y-13468286D01*
X14950157Y-13511143D01*
X14935871Y-13568286D01*
X14935871Y-13682571D01*
X14950157Y-13711143D01*
X14964443Y-13725429D01*
X14993014Y-13739714D01*
X15050157Y-13739714D01*
X15078728Y-13725429D01*
X15093014Y-13711143D01*
X15107300Y-13682571D01*
X15107300Y-13611143D01*
X15093014Y-13582571D01*
X15078728Y-13568286D01*
X15050157Y-13554000D01*
X14993014Y-13554000D01*
X14964443Y-13568286D01*
X14950157Y-13582571D01*
X14935871Y-13611143D01*
X15221586Y-13439714D02*
X15221586Y-13496857D01*
X15335871Y-13439714D02*
X15335871Y-13496857D01*
X15778728Y-13854000D02*
X15764443Y-13839714D01*
X15735871Y-13796857D01*
X15721586Y-13768286D01*
X15707300Y-13725429D01*
X15693014Y-13654000D01*
X15693014Y-13596857D01*
X15707300Y-13525429D01*
X15721586Y-13482571D01*
X15735871Y-13454000D01*
X15764443Y-13411143D01*
X15778728Y-13396857D01*
X16021586Y-13539714D02*
X16021586Y-13739714D01*
X15950157Y-13425429D02*
X15878728Y-13639714D01*
X16064443Y-13639714D01*
X16307300Y-13539714D02*
X16307300Y-13739714D01*
X16235871Y-13425429D02*
X16164443Y-13639714D01*
X16350157Y-13639714D01*
X16693014Y-13739714D02*
X16693014Y-13439714D01*
X16821586Y-13739714D02*
X16821586Y-13582571D01*
X16807300Y-13554000D01*
X16778728Y-13539714D01*
X16735871Y-13539714D01*
X16707300Y-13554000D01*
X16693014Y-13568286D01*
X17007300Y-13739714D02*
X16978728Y-13725429D01*
X16964443Y-13711143D01*
X16950157Y-13682571D01*
X16950157Y-13596857D01*
X16964443Y-13568286D01*
X16978728Y-13554000D01*
X17007300Y-13539714D01*
X17050157Y-13539714D01*
X17078728Y-13554000D01*
X17093014Y-13568286D01*
X17107300Y-13596857D01*
X17107300Y-13682571D01*
X17093014Y-13711143D01*
X17078728Y-13725429D01*
X17050157Y-13739714D01*
X17007300Y-13739714D01*
X17278728Y-13739714D02*
X17250157Y-13725429D01*
X17235871Y-13696857D01*
X17235871Y-13439714D01*
X17507300Y-13725429D02*
X17478728Y-13739714D01*
X17421586Y-13739714D01*
X17393014Y-13725429D01*
X17378728Y-13696857D01*
X17378728Y-13582571D01*
X17393014Y-13554000D01*
X17421586Y-13539714D01*
X17478728Y-13539714D01*
X17507300Y-13554000D01*
X17521586Y-13582571D01*
X17521586Y-13611143D01*
X17378728Y-13639714D01*
X17635871Y-13725429D02*
X17664443Y-13739714D01*
X17721586Y-13739714D01*
X17750157Y-13725429D01*
X17764443Y-13696857D01*
X17764443Y-13682571D01*
X17750157Y-13654000D01*
X17721586Y-13639714D01*
X17678728Y-13639714D01*
X17650157Y-13625429D01*
X17635871Y-13596857D01*
X17635871Y-13582571D01*
X17650157Y-13554000D01*
X17678728Y-13539714D01*
X17721586Y-13539714D01*
X17750157Y-13554000D01*
X17864443Y-13854000D02*
X17878728Y-13839714D01*
X17907300Y-13796857D01*
X17921586Y-13768286D01*
X17935871Y-13725429D01*
X17950157Y-13654000D01*
X17950157Y-13596857D01*
X17935871Y-13525429D01*
X17921586Y-13482571D01*
X17907300Y-13454000D01*
X17878728Y-13411143D01*
X17864443Y-13396857D01*
X11092300Y-14000000D02*
G75*
G03X11092300Y-14000000I-30000J0D01*
G01*
X11435871Y-13835714D02*
X11464443Y-13835714D01*
X11493014Y-13850000D01*
X11507300Y-13864286D01*
X11521586Y-13892857D01*
X11535871Y-13950000D01*
X11535871Y-14021429D01*
X11521586Y-14078571D01*
X11507300Y-14107143D01*
X11493014Y-14121429D01*
X11464443Y-14135714D01*
X11435871Y-14135714D01*
X11407300Y-14121429D01*
X11393014Y-14107143D01*
X11378728Y-14078571D01*
X11364443Y-14021429D01*
X11364443Y-13950000D01*
X11378728Y-13892857D01*
X11393014Y-13864286D01*
X11407300Y-13850000D01*
X11435871Y-13835714D01*
X11664443Y-14107143D02*
X11678728Y-14121429D01*
X11664443Y-14135714D01*
X11650157Y-14121429D01*
X11664443Y-14107143D01*
X11664443Y-14135714D01*
X11935871Y-13835714D02*
X11878728Y-13835714D01*
X11850157Y-13850000D01*
X11835871Y-13864286D01*
X11807300Y-13907143D01*
X11793014Y-13964286D01*
X11793014Y-14078571D01*
X11807300Y-14107143D01*
X11821586Y-14121429D01*
X11850157Y-14135714D01*
X11907300Y-14135714D01*
X11935871Y-14121429D01*
X11950157Y-14107143D01*
X11964443Y-14078571D01*
X11964443Y-14007143D01*
X11950157Y-13978571D01*
X11935871Y-13964286D01*
X11907300Y-13950000D01*
X11850157Y-13950000D01*
X11821586Y-13964286D01*
X11807300Y-13978571D01*
X11793014Y-14007143D01*
X12150157Y-13835714D02*
X12178728Y-13835714D01*
X12207300Y-13850000D01*
X12221586Y-13864286D01*
X12235871Y-13892857D01*
X12250157Y-13950000D01*
X12250157Y-14021429D01*
X12235871Y-14078571D01*
X12221586Y-14107143D01*
X12207300Y-14121429D01*
X12178728Y-14135714D01*
X12150157Y-14135714D01*
X12121586Y-14121429D01*
X12107300Y-14107143D01*
X12093014Y-14078571D01*
X12078728Y-14021429D01*
X12078728Y-13950000D01*
X12093014Y-13892857D01*
X12107300Y-13864286D01*
X12121586Y-13850000D01*
X12150157Y-13835714D01*
X12378728Y-14135714D02*
X12378728Y-13935714D01*
X12378728Y-13964286D02*
X12393014Y-13950000D01*
X12421586Y-13935714D01*
X12464443Y-13935714D01*
X12493014Y-13950000D01*
X12507300Y-13978571D01*
X12507300Y-14135714D01*
X12507300Y-13978571D02*
X12521586Y-13950000D01*
X12550157Y-13935714D01*
X12593014Y-13935714D01*
X12621586Y-13950000D01*
X12635871Y-13978571D01*
X12635871Y-14135714D01*
X12778728Y-14135714D02*
X12778728Y-13935714D01*
X12778728Y-13964286D02*
X12793014Y-13950000D01*
X12821586Y-13935714D01*
X12864443Y-13935714D01*
X12893014Y-13950000D01*
X12907300Y-13978571D01*
X12907300Y-14135714D01*
X12907300Y-13978571D02*
X12921586Y-13950000D01*
X12950157Y-13935714D01*
X12993014Y-13935714D01*
X13021586Y-13950000D01*
X13035871Y-13978571D01*
X13035871Y-14135714D01*
X13621586Y-13821429D02*
X13364443Y-14207143D01*
X14007300Y-13835714D02*
X14035871Y-13835714D01*
X14064443Y-13850000D01*
X14078728Y-13864286D01*
X14093014Y-13892857D01*
X14107300Y-13950000D01*
X14107300Y-14021429D01*
X14093014Y-14078571D01*
X14078728Y-14107143D01*
X14064443Y-14121429D01*
X14035871Y-14135714D01*
X14007300Y-14135714D01*
X13978728Y-14121429D01*
X13964443Y-14107143D01*
X13950157Y-14078571D01*
X13935871Y-14021429D01*
X13935871Y-13950000D01*
X13950157Y-13892857D01*
X13964443Y-13864286D01*
X13978728Y-13850000D01*
X14007300Y-13835714D01*
X14235871Y-14107143D02*
X14250157Y-14121429D01*
X14235871Y-14135714D01*
X14221586Y-14121429D01*
X14235871Y-14107143D01*
X14235871Y-14135714D01*
X14435871Y-13835714D02*
X14464443Y-13835714D01*
X14493014Y-13850000D01*
X14507300Y-13864286D01*
X14521586Y-13892857D01*
X14535871Y-13950000D01*
X14535871Y-14021429D01*
X14521586Y-14078571D01*
X14507300Y-14107143D01*
X14493014Y-14121429D01*
X14464443Y-14135714D01*
X14435871Y-14135714D01*
X14407300Y-14121429D01*
X14393014Y-14107143D01*
X14378728Y-14078571D01*
X14364443Y-14021429D01*
X14364443Y-13950000D01*
X14378728Y-13892857D01*
X14393014Y-13864286D01*
X14407300Y-13850000D01*
X14435871Y-13835714D01*
X14650157Y-13864286D02*
X14664443Y-13850000D01*
X14693014Y-13835714D01*
X14764443Y-13835714D01*
X14793014Y-13850000D01*
X14807300Y-13864286D01*
X14821586Y-13892857D01*
X14821586Y-13921429D01*
X14807300Y-13964286D01*
X14635871Y-14135714D01*
X14821586Y-14135714D01*
X15078728Y-13935714D02*
X15078728Y-14135714D01*
X15007300Y-13821429D02*
X14935871Y-14035714D01*
X15121586Y-14035714D01*
X15221586Y-13835714D02*
X15221586Y-13892857D01*
X15335871Y-13835714D02*
X15335871Y-13892857D01*
X15778728Y-14250000D02*
X15764443Y-14235714D01*
X15735871Y-14192857D01*
X15721586Y-14164286D01*
X15707300Y-14121429D01*
X15693014Y-14050000D01*
X15693014Y-13992857D01*
X15707300Y-13921429D01*
X15721586Y-13878571D01*
X15735871Y-13850000D01*
X15764443Y-13807143D01*
X15778728Y-13792857D01*
X16021586Y-13835714D02*
X15964443Y-13835714D01*
X15935871Y-13850000D01*
X15921586Y-13864286D01*
X15893014Y-13907143D01*
X15878728Y-13964286D01*
X15878728Y-14078571D01*
X15893014Y-14107143D01*
X15907300Y-14121429D01*
X15935871Y-14135714D01*
X15993014Y-14135714D01*
X16021586Y-14121429D01*
X16035871Y-14107143D01*
X16050157Y-14078571D01*
X16050157Y-14007143D01*
X16035871Y-13978571D01*
X16021586Y-13964286D01*
X15993014Y-13950000D01*
X15935871Y-13950000D01*
X15907300Y-13964286D01*
X15893014Y-13978571D01*
X15878728Y-14007143D01*
X16407300Y-14135714D02*
X16407300Y-13835714D01*
X16535871Y-14135714D02*
X16535871Y-13978571D01*
X16521586Y-13950000D01*
X16493014Y-13935714D01*
X16450157Y-13935714D01*
X16421586Y-13950000D01*
X16407300Y-13964286D01*
X16721586Y-14135714D02*
X16693014Y-14121429D01*
X16678728Y-14107143D01*
X16664443Y-14078571D01*
X16664443Y-13992857D01*
X16678728Y-13964286D01*
X16693014Y-13950000D01*
X16721586Y-13935714D01*
X16764443Y-13935714D01*
X16793014Y-13950000D01*
X16807300Y-13964286D01*
X16821586Y-13992857D01*
X16821586Y-14078571D01*
X16807300Y-14107143D01*
X16793014Y-14121429D01*
X16764443Y-14135714D01*
X16721586Y-14135714D01*
X16993014Y-14135714D02*
X16964443Y-14121429D01*
X16950157Y-14092857D01*
X16950157Y-13835714D01*
X17221586Y-14121429D02*
X17193014Y-14135714D01*
X17135871Y-14135714D01*
X17107300Y-14121429D01*
X17093014Y-14092857D01*
X17093014Y-13978571D01*
X17107300Y-13950000D01*
X17135871Y-13935714D01*
X17193014Y-13935714D01*
X17221586Y-13950000D01*
X17235871Y-13978571D01*
X17235871Y-14007143D01*
X17093014Y-14035714D01*
X17350157Y-14121429D02*
X17378728Y-14135714D01*
X17435871Y-14135714D01*
X17464443Y-14121429D01*
X17478728Y-14092857D01*
X17478728Y-14078571D01*
X17464443Y-14050000D01*
X17435871Y-14035714D01*
X17393014Y-14035714D01*
X17364443Y-14021429D01*
X17350157Y-13992857D01*
X17350157Y-13978571D01*
X17364443Y-13950000D01*
X17393014Y-13935714D01*
X17435871Y-13935714D01*
X17464443Y-13950000D01*
X17578728Y-14250000D02*
X17593014Y-14235714D01*
X17621586Y-14192857D01*
X17635871Y-14164286D01*
X17650157Y-14121429D01*
X17664443Y-14050000D01*
X17664443Y-13992857D01*
X17650157Y-13921429D01*
X17635871Y-13878571D01*
X17621586Y-13850000D01*
X17593014Y-13807143D01*
X17578728Y-13792857D01*
X11052300Y-14356000D02*
X11052300Y-14436000D01*
X11012300Y-14396000D02*
X11092300Y-14396000D01*
X11435871Y-14231714D02*
X11464443Y-14231714D01*
X11493014Y-14246000D01*
X11507300Y-14260286D01*
X11521586Y-14288857D01*
X11535871Y-14346000D01*
X11535871Y-14417429D01*
X11521586Y-14474571D01*
X11507300Y-14503143D01*
X11493014Y-14517429D01*
X11464443Y-14531714D01*
X11435871Y-14531714D01*
X11407300Y-14517429D01*
X11393014Y-14503143D01*
X11378728Y-14474571D01*
X11364443Y-14417429D01*
X11364443Y-14346000D01*
X11378728Y-14288857D01*
X11393014Y-14260286D01*
X11407300Y-14246000D01*
X11435871Y-14231714D01*
X11664443Y-14503143D02*
X11678728Y-14517429D01*
X11664443Y-14531714D01*
X11650157Y-14517429D01*
X11664443Y-14503143D01*
X11664443Y-14531714D01*
X11850157Y-14360286D02*
X11821586Y-14346000D01*
X11807300Y-14331714D01*
X11793014Y-14303143D01*
X11793014Y-14288857D01*
X11807300Y-14260286D01*
X11821586Y-14246000D01*
X11850157Y-14231714D01*
X11907300Y-14231714D01*
X11935871Y-14246000D01*
X11950157Y-14260286D01*
X11964443Y-14288857D01*
X11964443Y-14303143D01*
X11950157Y-14331714D01*
X11935871Y-14346000D01*
X11907300Y-14360286D01*
X11850157Y-14360286D01*
X11821586Y-14374571D01*
X11807300Y-14388857D01*
X11793014Y-14417429D01*
X11793014Y-14474571D01*
X11807300Y-14503143D01*
X11821586Y-14517429D01*
X11850157Y-14531714D01*
X11907300Y-14531714D01*
X11935871Y-14517429D01*
X11950157Y-14503143D01*
X11964443Y-14474571D01*
X11964443Y-14417429D01*
X11950157Y-14388857D01*
X11935871Y-14374571D01*
X11907300Y-14360286D01*
X12150157Y-14231714D02*
X12178728Y-14231714D01*
X12207300Y-14246000D01*
X12221586Y-14260286D01*
X12235871Y-14288857D01*
X12250157Y-14346000D01*
X12250157Y-14417429D01*
X12235871Y-14474571D01*
X12221586Y-14503143D01*
X12207300Y-14517429D01*
X12178728Y-14531714D01*
X12150157Y-14531714D01*
X12121586Y-14517429D01*
X12107300Y-14503143D01*
X12093014Y-14474571D01*
X12078728Y-14417429D01*
X12078728Y-14346000D01*
X12093014Y-14288857D01*
X12107300Y-14260286D01*
X12121586Y-14246000D01*
X12150157Y-14231714D01*
X12378728Y-14531714D02*
X12378728Y-14331714D01*
X12378728Y-14360286D02*
X12393014Y-14346000D01*
X12421586Y-14331714D01*
X12464443Y-14331714D01*
X12493014Y-14346000D01*
X12507300Y-14374571D01*
X12507300Y-14531714D01*
X12507300Y-14374571D02*
X12521586Y-14346000D01*
X12550157Y-14331714D01*
X12593014Y-14331714D01*
X12621586Y-14346000D01*
X12635871Y-14374571D01*
X12635871Y-14531714D01*
X12778728Y-14531714D02*
X12778728Y-14331714D01*
X12778728Y-14360286D02*
X12793014Y-14346000D01*
X12821586Y-14331714D01*
X12864443Y-14331714D01*
X12893014Y-14346000D01*
X12907300Y-14374571D01*
X12907300Y-14531714D01*
X12907300Y-14374571D02*
X12921586Y-14346000D01*
X12950157Y-14331714D01*
X12993014Y-14331714D01*
X13021586Y-14346000D01*
X13035871Y-14374571D01*
X13035871Y-14531714D01*
X13621586Y-14217429D02*
X13364443Y-14603143D01*
X14007300Y-14231714D02*
X14035871Y-14231714D01*
X14064443Y-14246000D01*
X14078728Y-14260286D01*
X14093014Y-14288857D01*
X14107300Y-14346000D01*
X14107300Y-14417429D01*
X14093014Y-14474571D01*
X14078728Y-14503143D01*
X14064443Y-14517429D01*
X14035871Y-14531714D01*
X14007300Y-14531714D01*
X13978728Y-14517429D01*
X13964443Y-14503143D01*
X13950157Y-14474571D01*
X13935871Y-14417429D01*
X13935871Y-14346000D01*
X13950157Y-14288857D01*
X13964443Y-14260286D01*
X13978728Y-14246000D01*
X14007300Y-14231714D01*
X14235871Y-14503143D02*
X14250157Y-14517429D01*
X14235871Y-14531714D01*
X14221586Y-14517429D01*
X14235871Y-14503143D01*
X14235871Y-14531714D01*
X14435871Y-14231714D02*
X14464443Y-14231714D01*
X14493014Y-14246000D01*
X14507300Y-14260286D01*
X14521586Y-14288857D01*
X14535871Y-14346000D01*
X14535871Y-14417429D01*
X14521586Y-14474571D01*
X14507300Y-14503143D01*
X14493014Y-14517429D01*
X14464443Y-14531714D01*
X14435871Y-14531714D01*
X14407300Y-14517429D01*
X14393014Y-14503143D01*
X14378728Y-14474571D01*
X14364443Y-14417429D01*
X14364443Y-14346000D01*
X14378728Y-14288857D01*
X14393014Y-14260286D01*
X14407300Y-14246000D01*
X14435871Y-14231714D01*
X14635871Y-14231714D02*
X14821586Y-14231714D01*
X14721586Y-14346000D01*
X14764443Y-14346000D01*
X14793014Y-14360286D01*
X14807300Y-14374571D01*
X14821586Y-14403143D01*
X14821586Y-14474571D01*
X14807300Y-14503143D01*
X14793014Y-14517429D01*
X14764443Y-14531714D01*
X14678728Y-14531714D01*
X14650157Y-14517429D01*
X14635871Y-14503143D01*
X15107300Y-14531714D02*
X14935871Y-14531714D01*
X15021586Y-14531714D02*
X15021586Y-14231714D01*
X14993014Y-14274571D01*
X14964443Y-14303143D01*
X14935871Y-14317429D01*
X15221586Y-14231714D02*
X15221586Y-14288857D01*
X15335871Y-14231714D02*
X15335871Y-14288857D01*
X15778728Y-14646000D02*
X15764443Y-14631714D01*
X15735871Y-14588857D01*
X15721586Y-14560286D01*
X15707300Y-14517429D01*
X15693014Y-14446000D01*
X15693014Y-14388857D01*
X15707300Y-14317429D01*
X15721586Y-14274571D01*
X15735871Y-14246000D01*
X15764443Y-14203143D01*
X15778728Y-14188857D01*
X16021586Y-14231714D02*
X15964443Y-14231714D01*
X15935871Y-14246000D01*
X15921586Y-14260286D01*
X15893014Y-14303143D01*
X15878728Y-14360286D01*
X15878728Y-14474571D01*
X15893014Y-14503143D01*
X15907300Y-14517429D01*
X15935871Y-14531714D01*
X15993014Y-14531714D01*
X16021586Y-14517429D01*
X16035871Y-14503143D01*
X16050157Y-14474571D01*
X16050157Y-14403143D01*
X16035871Y-14374571D01*
X16021586Y-14360286D01*
X15993014Y-14346000D01*
X15935871Y-14346000D01*
X15907300Y-14360286D01*
X15893014Y-14374571D01*
X15878728Y-14403143D01*
X16307300Y-14231714D02*
X16250157Y-14231714D01*
X16221586Y-14246000D01*
X16207300Y-14260286D01*
X16178728Y-14303143D01*
X16164443Y-14360286D01*
X16164443Y-14474571D01*
X16178728Y-14503143D01*
X16193014Y-14517429D01*
X16221586Y-14531714D01*
X16278728Y-14531714D01*
X16307300Y-14517429D01*
X16321586Y-14503143D01*
X16335871Y-14474571D01*
X16335871Y-14403143D01*
X16321586Y-14374571D01*
X16307300Y-14360286D01*
X16278728Y-14346000D01*
X16221586Y-14346000D01*
X16193014Y-14360286D01*
X16178728Y-14374571D01*
X16164443Y-14403143D01*
X16693014Y-14531714D02*
X16693014Y-14231714D01*
X16821586Y-14531714D02*
X16821586Y-14374571D01*
X16807300Y-14346000D01*
X16778728Y-14331714D01*
X16735871Y-14331714D01*
X16707300Y-14346000D01*
X16693014Y-14360286D01*
X17007300Y-14531714D02*
X16978728Y-14517429D01*
X16964443Y-14503143D01*
X16950157Y-14474571D01*
X16950157Y-14388857D01*
X16964443Y-14360286D01*
X16978728Y-14346000D01*
X17007300Y-14331714D01*
X17050157Y-14331714D01*
X17078728Y-14346000D01*
X17093014Y-14360286D01*
X17107300Y-14388857D01*
X17107300Y-14474571D01*
X17093014Y-14503143D01*
X17078728Y-14517429D01*
X17050157Y-14531714D01*
X17007300Y-14531714D01*
X17278728Y-14531714D02*
X17250157Y-14517429D01*
X17235871Y-14488857D01*
X17235871Y-14231714D01*
X17507300Y-14517429D02*
X17478728Y-14531714D01*
X17421586Y-14531714D01*
X17393014Y-14517429D01*
X17378728Y-14488857D01*
X17378728Y-14374571D01*
X17393014Y-14346000D01*
X17421586Y-14331714D01*
X17478728Y-14331714D01*
X17507300Y-14346000D01*
X17521586Y-14374571D01*
X17521586Y-14403143D01*
X17378728Y-14431714D01*
X17635871Y-14517429D02*
X17664443Y-14531714D01*
X17721586Y-14531714D01*
X17750157Y-14517429D01*
X17764443Y-14488857D01*
X17764443Y-14474571D01*
X17750157Y-14446000D01*
X17721586Y-14431714D01*
X17678728Y-14431714D01*
X17650157Y-14417429D01*
X17635871Y-14388857D01*
X17635871Y-14374571D01*
X17650157Y-14346000D01*
X17678728Y-14331714D01*
X17721586Y-14331714D01*
X17750157Y-14346000D01*
X17864443Y-14646000D02*
X17878728Y-14631714D01*
X17907300Y-14588857D01*
X17921586Y-14560286D01*
X17935871Y-14517429D01*
X17950157Y-14446000D01*
X17950157Y-14388857D01*
X17935871Y-14317429D01*
X17921586Y-14274571D01*
X17907300Y-14246000D01*
X17878728Y-14203143D01*
X17864443Y-14188857D01*
X11079120Y-14823820D02*
X11079120Y-14760180D01*
X11015480Y-14760180D01*
X11015480Y-14823820D01*
X11079120Y-14823820D01*
X11435871Y-14627714D02*
X11464443Y-14627714D01*
X11493014Y-14642000D01*
X11507300Y-14656286D01*
X11521586Y-14684857D01*
X11535871Y-14742000D01*
X11535871Y-14813429D01*
X11521586Y-14870571D01*
X11507300Y-14899143D01*
X11493014Y-14913429D01*
X11464443Y-14927714D01*
X11435871Y-14927714D01*
X11407300Y-14913429D01*
X11393014Y-14899143D01*
X11378728Y-14870571D01*
X11364443Y-14813429D01*
X11364443Y-14742000D01*
X11378728Y-14684857D01*
X11393014Y-14656286D01*
X11407300Y-14642000D01*
X11435871Y-14627714D01*
X11664443Y-14899143D02*
X11678728Y-14913429D01*
X11664443Y-14927714D01*
X11650157Y-14913429D01*
X11664443Y-14899143D01*
X11664443Y-14927714D01*
X11821586Y-14927714D02*
X11878728Y-14927714D01*
X11907300Y-14913429D01*
X11921586Y-14899143D01*
X11950157Y-14856286D01*
X11964443Y-14799143D01*
X11964443Y-14684857D01*
X11950157Y-14656286D01*
X11935871Y-14642000D01*
X11907300Y-14627714D01*
X11850157Y-14627714D01*
X11821586Y-14642000D01*
X11807300Y-14656286D01*
X11793014Y-14684857D01*
X11793014Y-14756286D01*
X11807300Y-14784857D01*
X11821586Y-14799143D01*
X11850157Y-14813429D01*
X11907300Y-14813429D01*
X11935871Y-14799143D01*
X11950157Y-14784857D01*
X11964443Y-14756286D01*
X12150157Y-14627714D02*
X12178728Y-14627714D01*
X12207300Y-14642000D01*
X12221586Y-14656286D01*
X12235871Y-14684857D01*
X12250157Y-14742000D01*
X12250157Y-14813429D01*
X12235871Y-14870571D01*
X12221586Y-14899143D01*
X12207300Y-14913429D01*
X12178728Y-14927714D01*
X12150157Y-14927714D01*
X12121586Y-14913429D01*
X12107300Y-14899143D01*
X12093014Y-14870571D01*
X12078728Y-14813429D01*
X12078728Y-14742000D01*
X12093014Y-14684857D01*
X12107300Y-14656286D01*
X12121586Y-14642000D01*
X12150157Y-14627714D01*
X12378728Y-14927714D02*
X12378728Y-14727714D01*
X12378728Y-14756286D02*
X12393014Y-14742000D01*
X12421586Y-14727714D01*
X12464443Y-14727714D01*
X12493014Y-14742000D01*
X12507300Y-14770571D01*
X12507300Y-14927714D01*
X12507300Y-14770571D02*
X12521586Y-14742000D01*
X12550157Y-14727714D01*
X12593014Y-14727714D01*
X12621586Y-14742000D01*
X12635871Y-14770571D01*
X12635871Y-14927714D01*
X12778728Y-14927714D02*
X12778728Y-14727714D01*
X12778728Y-14756286D02*
X12793014Y-14742000D01*
X12821586Y-14727714D01*
X12864443Y-14727714D01*
X12893014Y-14742000D01*
X12907300Y-14770571D01*
X12907300Y-14927714D01*
X12907300Y-14770571D02*
X12921586Y-14742000D01*
X12950157Y-14727714D01*
X12993014Y-14727714D01*
X13021586Y-14742000D01*
X13035871Y-14770571D01*
X13035871Y-14927714D01*
X13621586Y-14613429D02*
X13364443Y-14999143D01*
X14007300Y-14627714D02*
X14035871Y-14627714D01*
X14064443Y-14642000D01*
X14078728Y-14656286D01*
X14093014Y-14684857D01*
X14107300Y-14742000D01*
X14107300Y-14813429D01*
X14093014Y-14870571D01*
X14078728Y-14899143D01*
X14064443Y-14913429D01*
X14035871Y-14927714D01*
X14007300Y-14927714D01*
X13978728Y-14913429D01*
X13964443Y-14899143D01*
X13950157Y-14870571D01*
X13935871Y-14813429D01*
X13935871Y-14742000D01*
X13950157Y-14684857D01*
X13964443Y-14656286D01*
X13978728Y-14642000D01*
X14007300Y-14627714D01*
X14235871Y-14899143D02*
X14250157Y-14913429D01*
X14235871Y-14927714D01*
X14221586Y-14913429D01*
X14235871Y-14899143D01*
X14235871Y-14927714D01*
X14435871Y-14627714D02*
X14464443Y-14627714D01*
X14493014Y-14642000D01*
X14507300Y-14656286D01*
X14521586Y-14684857D01*
X14535871Y-14742000D01*
X14535871Y-14813429D01*
X14521586Y-14870571D01*
X14507300Y-14899143D01*
X14493014Y-14913429D01*
X14464443Y-14927714D01*
X14435871Y-14927714D01*
X14407300Y-14913429D01*
X14393014Y-14899143D01*
X14378728Y-14870571D01*
X14364443Y-14813429D01*
X14364443Y-14742000D01*
X14378728Y-14684857D01*
X14393014Y-14656286D01*
X14407300Y-14642000D01*
X14435871Y-14627714D01*
X14635871Y-14627714D02*
X14821586Y-14627714D01*
X14721586Y-14742000D01*
X14764443Y-14742000D01*
X14793014Y-14756286D01*
X14807300Y-14770571D01*
X14821586Y-14799143D01*
X14821586Y-14870571D01*
X14807300Y-14899143D01*
X14793014Y-14913429D01*
X14764443Y-14927714D01*
X14678728Y-14927714D01*
X14650157Y-14913429D01*
X14635871Y-14899143D01*
X15093014Y-14627714D02*
X14950157Y-14627714D01*
X14935871Y-14770571D01*
X14950157Y-14756286D01*
X14978728Y-14742000D01*
X15050157Y-14742000D01*
X15078728Y-14756286D01*
X15093014Y-14770571D01*
X15107300Y-14799143D01*
X15107300Y-14870571D01*
X15093014Y-14899143D01*
X15078728Y-14913429D01*
X15050157Y-14927714D01*
X14978728Y-14927714D01*
X14950157Y-14913429D01*
X14935871Y-14899143D01*
X15221586Y-14627714D02*
X15221586Y-14684857D01*
X15335871Y-14627714D02*
X15335871Y-14684857D01*
X15778728Y-15042000D02*
X15764443Y-15027714D01*
X15735871Y-14984857D01*
X15721586Y-14956286D01*
X15707300Y-14913429D01*
X15693014Y-14842000D01*
X15693014Y-14784857D01*
X15707300Y-14713429D01*
X15721586Y-14670571D01*
X15735871Y-14642000D01*
X15764443Y-14599143D01*
X15778728Y-14584857D01*
X15935871Y-14756286D02*
X15907300Y-14742000D01*
X15893014Y-14727714D01*
X15878728Y-14699143D01*
X15878728Y-14684857D01*
X15893014Y-14656286D01*
X15907300Y-14642000D01*
X15935871Y-14627714D01*
X15993014Y-14627714D01*
X16021586Y-14642000D01*
X16035871Y-14656286D01*
X16050157Y-14684857D01*
X16050157Y-14699143D01*
X16035871Y-14727714D01*
X16021586Y-14742000D01*
X15993014Y-14756286D01*
X15935871Y-14756286D01*
X15907300Y-14770571D01*
X15893014Y-14784857D01*
X15878728Y-14813429D01*
X15878728Y-14870571D01*
X15893014Y-14899143D01*
X15907300Y-14913429D01*
X15935871Y-14927714D01*
X15993014Y-14927714D01*
X16021586Y-14913429D01*
X16035871Y-14899143D01*
X16050157Y-14870571D01*
X16050157Y-14813429D01*
X16035871Y-14784857D01*
X16021586Y-14770571D01*
X15993014Y-14756286D01*
X16407300Y-14927714D02*
X16407300Y-14627714D01*
X16535871Y-14927714D02*
X16535871Y-14770571D01*
X16521586Y-14742000D01*
X16493014Y-14727714D01*
X16450157Y-14727714D01*
X16421586Y-14742000D01*
X16407300Y-14756286D01*
X16721586Y-14927714D02*
X16693014Y-14913429D01*
X16678728Y-14899143D01*
X16664443Y-14870571D01*
X16664443Y-14784857D01*
X16678728Y-14756286D01*
X16693014Y-14742000D01*
X16721586Y-14727714D01*
X16764443Y-14727714D01*
X16793014Y-14742000D01*
X16807300Y-14756286D01*
X16821586Y-14784857D01*
X16821586Y-14870571D01*
X16807300Y-14899143D01*
X16793014Y-14913429D01*
X16764443Y-14927714D01*
X16721586Y-14927714D01*
X16993014Y-14927714D02*
X16964443Y-14913429D01*
X16950157Y-14884857D01*
X16950157Y-14627714D01*
X17221586Y-14913429D02*
X17193014Y-14927714D01*
X17135871Y-14927714D01*
X17107300Y-14913429D01*
X17093014Y-14884857D01*
X17093014Y-14770571D01*
X17107300Y-14742000D01*
X17135871Y-14727714D01*
X17193014Y-14727714D01*
X17221586Y-14742000D01*
X17235871Y-14770571D01*
X17235871Y-14799143D01*
X17093014Y-14827714D01*
X17350157Y-14913429D02*
X17378728Y-14927714D01*
X17435871Y-14927714D01*
X17464443Y-14913429D01*
X17478728Y-14884857D01*
X17478728Y-14870571D01*
X17464443Y-14842000D01*
X17435871Y-14827714D01*
X17393014Y-14827714D01*
X17364443Y-14813429D01*
X17350157Y-14784857D01*
X17350157Y-14770571D01*
X17364443Y-14742000D01*
X17393014Y-14727714D01*
X17435871Y-14727714D01*
X17464443Y-14742000D01*
X17578728Y-15042000D02*
X17593014Y-15027714D01*
X17621586Y-14984857D01*
X17635871Y-14956286D01*
X17650157Y-14913429D01*
X17664443Y-14842000D01*
X17664443Y-14784857D01*
X17650157Y-14713429D01*
X17635871Y-14670571D01*
X17621586Y-14642000D01*
X17593014Y-14599143D01*
X17578728Y-14584857D01*
X11042300Y-15238000D02*
X11092300Y-15188000D01*
X11042300Y-15138000D01*
X10992300Y-15188000D01*
X11042300Y-15238000D01*
X11535871Y-15323714D02*
X11364443Y-15323714D01*
X11450157Y-15323714D02*
X11450157Y-15023714D01*
X11421586Y-15066571D01*
X11393014Y-15095143D01*
X11364443Y-15109429D01*
X11664443Y-15295143D02*
X11678728Y-15309429D01*
X11664443Y-15323714D01*
X11650157Y-15309429D01*
X11664443Y-15295143D01*
X11664443Y-15323714D01*
X11864443Y-15023714D02*
X11893014Y-15023714D01*
X11921586Y-15038000D01*
X11935871Y-15052286D01*
X11950157Y-15080857D01*
X11964443Y-15138000D01*
X11964443Y-15209429D01*
X11950157Y-15266571D01*
X11935871Y-15295143D01*
X11921586Y-15309429D01*
X11893014Y-15323714D01*
X11864443Y-15323714D01*
X11835871Y-15309429D01*
X11821586Y-15295143D01*
X11807300Y-15266571D01*
X11793014Y-15209429D01*
X11793014Y-15138000D01*
X11807300Y-15080857D01*
X11821586Y-15052286D01*
X11835871Y-15038000D01*
X11864443Y-15023714D01*
X12150157Y-15023714D02*
X12178728Y-15023714D01*
X12207300Y-15038000D01*
X12221586Y-15052286D01*
X12235871Y-15080857D01*
X12250157Y-15138000D01*
X12250157Y-15209429D01*
X12235871Y-15266571D01*
X12221586Y-15295143D01*
X12207300Y-15309429D01*
X12178728Y-15323714D01*
X12150157Y-15323714D01*
X12121586Y-15309429D01*
X12107300Y-15295143D01*
X12093014Y-15266571D01*
X12078728Y-15209429D01*
X12078728Y-15138000D01*
X12093014Y-15080857D01*
X12107300Y-15052286D01*
X12121586Y-15038000D01*
X12150157Y-15023714D01*
X12378728Y-15323714D02*
X12378728Y-15123714D01*
X12378728Y-15152286D02*
X12393014Y-15138000D01*
X12421586Y-15123714D01*
X12464443Y-15123714D01*
X12493014Y-15138000D01*
X12507300Y-15166571D01*
X12507300Y-15323714D01*
X12507300Y-15166571D02*
X12521586Y-15138000D01*
X12550157Y-15123714D01*
X12593014Y-15123714D01*
X12621586Y-15138000D01*
X12635871Y-15166571D01*
X12635871Y-15323714D01*
X12778728Y-15323714D02*
X12778728Y-15123714D01*
X12778728Y-15152286D02*
X12793014Y-15138000D01*
X12821586Y-15123714D01*
X12864443Y-15123714D01*
X12893014Y-15138000D01*
X12907300Y-15166571D01*
X12907300Y-15323714D01*
X12907300Y-15166571D02*
X12921586Y-15138000D01*
X12950157Y-15123714D01*
X12993014Y-15123714D01*
X13021586Y-15138000D01*
X13035871Y-15166571D01*
X13035871Y-15323714D01*
X13621586Y-15009429D02*
X13364443Y-15395143D01*
X14007300Y-15023714D02*
X14035871Y-15023714D01*
X14064443Y-15038000D01*
X14078728Y-15052286D01*
X14093014Y-15080857D01*
X14107300Y-15138000D01*
X14107300Y-15209429D01*
X14093014Y-15266571D01*
X14078728Y-15295143D01*
X14064443Y-15309429D01*
X14035871Y-15323714D01*
X14007300Y-15323714D01*
X13978728Y-15309429D01*
X13964443Y-15295143D01*
X13950157Y-15266571D01*
X13935871Y-15209429D01*
X13935871Y-15138000D01*
X13950157Y-15080857D01*
X13964443Y-15052286D01*
X13978728Y-15038000D01*
X14007300Y-15023714D01*
X14235871Y-15295143D02*
X14250157Y-15309429D01*
X14235871Y-15323714D01*
X14221586Y-15309429D01*
X14235871Y-15295143D01*
X14235871Y-15323714D01*
X14435871Y-15023714D02*
X14464443Y-15023714D01*
X14493014Y-15038000D01*
X14507300Y-15052286D01*
X14521586Y-15080857D01*
X14535871Y-15138000D01*
X14535871Y-15209429D01*
X14521586Y-15266571D01*
X14507300Y-15295143D01*
X14493014Y-15309429D01*
X14464443Y-15323714D01*
X14435871Y-15323714D01*
X14407300Y-15309429D01*
X14393014Y-15295143D01*
X14378728Y-15266571D01*
X14364443Y-15209429D01*
X14364443Y-15138000D01*
X14378728Y-15080857D01*
X14393014Y-15052286D01*
X14407300Y-15038000D01*
X14435871Y-15023714D01*
X14635871Y-15023714D02*
X14821586Y-15023714D01*
X14721586Y-15138000D01*
X14764443Y-15138000D01*
X14793014Y-15152286D01*
X14807300Y-15166571D01*
X14821586Y-15195143D01*
X14821586Y-15266571D01*
X14807300Y-15295143D01*
X14793014Y-15309429D01*
X14764443Y-15323714D01*
X14678728Y-15323714D01*
X14650157Y-15309429D01*
X14635871Y-15295143D01*
X14964443Y-15323714D02*
X15021586Y-15323714D01*
X15050157Y-15309429D01*
X15064443Y-15295143D01*
X15093014Y-15252286D01*
X15107300Y-15195143D01*
X15107300Y-15080857D01*
X15093014Y-15052286D01*
X15078728Y-15038000D01*
X15050157Y-15023714D01*
X14993014Y-15023714D01*
X14964443Y-15038000D01*
X14950157Y-15052286D01*
X14935871Y-15080857D01*
X14935871Y-15152286D01*
X14950157Y-15180857D01*
X14964443Y-15195143D01*
X14993014Y-15209429D01*
X15050157Y-15209429D01*
X15078728Y-15195143D01*
X15093014Y-15180857D01*
X15107300Y-15152286D01*
X15221586Y-15023714D02*
X15221586Y-15080857D01*
X15335871Y-15023714D02*
X15335871Y-15080857D01*
X15778728Y-15438000D02*
X15764443Y-15423714D01*
X15735871Y-15380857D01*
X15721586Y-15352286D01*
X15707300Y-15309429D01*
X15693014Y-15238000D01*
X15693014Y-15180857D01*
X15707300Y-15109429D01*
X15721586Y-15066571D01*
X15735871Y-15038000D01*
X15764443Y-14995143D01*
X15778728Y-14980857D01*
X15878728Y-15052286D02*
X15893014Y-15038000D01*
X15921586Y-15023714D01*
X15993014Y-15023714D01*
X16021586Y-15038000D01*
X16035871Y-15052286D01*
X16050157Y-15080857D01*
X16050157Y-15109429D01*
X16035871Y-15152286D01*
X15864443Y-15323714D01*
X16050157Y-15323714D01*
X16221586Y-15152286D02*
X16193014Y-15138000D01*
X16178728Y-15123714D01*
X16164443Y-15095143D01*
X16164443Y-15080857D01*
X16178728Y-15052286D01*
X16193014Y-15038000D01*
X16221586Y-15023714D01*
X16278728Y-15023714D01*
X16307300Y-15038000D01*
X16321586Y-15052286D01*
X16335871Y-15080857D01*
X16335871Y-15095143D01*
X16321586Y-15123714D01*
X16307300Y-15138000D01*
X16278728Y-15152286D01*
X16221586Y-15152286D01*
X16193014Y-15166571D01*
X16178728Y-15180857D01*
X16164443Y-15209429D01*
X16164443Y-15266571D01*
X16178728Y-15295143D01*
X16193014Y-15309429D01*
X16221586Y-15323714D01*
X16278728Y-15323714D01*
X16307300Y-15309429D01*
X16321586Y-15295143D01*
X16335871Y-15266571D01*
X16335871Y-15209429D01*
X16321586Y-15180857D01*
X16307300Y-15166571D01*
X16278728Y-15152286D01*
X16693014Y-15323714D02*
X16693014Y-15023714D01*
X16821586Y-15323714D02*
X16821586Y-15166571D01*
X16807300Y-15138000D01*
X16778728Y-15123714D01*
X16735871Y-15123714D01*
X16707300Y-15138000D01*
X16693014Y-15152286D01*
X17007300Y-15323714D02*
X16978728Y-15309429D01*
X16964443Y-15295143D01*
X16950157Y-15266571D01*
X16950157Y-15180857D01*
X16964443Y-15152286D01*
X16978728Y-15138000D01*
X17007300Y-15123714D01*
X17050157Y-15123714D01*
X17078728Y-15138000D01*
X17093014Y-15152286D01*
X17107300Y-15180857D01*
X17107300Y-15266571D01*
X17093014Y-15295143D01*
X17078728Y-15309429D01*
X17050157Y-15323714D01*
X17007300Y-15323714D01*
X17278728Y-15323714D02*
X17250157Y-15309429D01*
X17235871Y-15280857D01*
X17235871Y-15023714D01*
X17507300Y-15309429D02*
X17478728Y-15323714D01*
X17421586Y-15323714D01*
X17393014Y-15309429D01*
X17378728Y-15280857D01*
X17378728Y-15166571D01*
X17393014Y-15138000D01*
X17421586Y-15123714D01*
X17478728Y-15123714D01*
X17507300Y-15138000D01*
X17521586Y-15166571D01*
X17521586Y-15195143D01*
X17378728Y-15223714D01*
X17635871Y-15309429D02*
X17664443Y-15323714D01*
X17721586Y-15323714D01*
X17750157Y-15309429D01*
X17764443Y-15280857D01*
X17764443Y-15266571D01*
X17750157Y-15238000D01*
X17721586Y-15223714D01*
X17678728Y-15223714D01*
X17650157Y-15209429D01*
X17635871Y-15180857D01*
X17635871Y-15166571D01*
X17650157Y-15138000D01*
X17678728Y-15123714D01*
X17721586Y-15123714D01*
X17750157Y-15138000D01*
X18121586Y-15209429D02*
X18350157Y-15209429D01*
X18235871Y-15323714D02*
X18235871Y-15095143D01*
X18693014Y-15023714D02*
X18878728Y-15023714D01*
X18778728Y-15138000D01*
X18821586Y-15138000D01*
X18850157Y-15152286D01*
X18864443Y-15166571D01*
X18878728Y-15195143D01*
X18878728Y-15266571D01*
X18864443Y-15295143D01*
X18850157Y-15309429D01*
X18821586Y-15323714D01*
X18735871Y-15323714D01*
X18707300Y-15309429D01*
X18693014Y-15295143D01*
X19221586Y-15309429D02*
X19250157Y-15323714D01*
X19307300Y-15323714D01*
X19335871Y-15309429D01*
X19350157Y-15280857D01*
X19350157Y-15266571D01*
X19335871Y-15238000D01*
X19307300Y-15223714D01*
X19264443Y-15223714D01*
X19235871Y-15209429D01*
X19221586Y-15180857D01*
X19221586Y-15166571D01*
X19235871Y-15138000D01*
X19264443Y-15123714D01*
X19307300Y-15123714D01*
X19335871Y-15138000D01*
X19521586Y-15323714D02*
X19493014Y-15309429D01*
X19478728Y-15280857D01*
X19478728Y-15023714D01*
X19678728Y-15323714D02*
X19650157Y-15309429D01*
X19635871Y-15295143D01*
X19621586Y-15266571D01*
X19621586Y-15180857D01*
X19635871Y-15152286D01*
X19650157Y-15138000D01*
X19678728Y-15123714D01*
X19721586Y-15123714D01*
X19750157Y-15138000D01*
X19764443Y-15152286D01*
X19778728Y-15180857D01*
X19778728Y-15266571D01*
X19764443Y-15295143D01*
X19750157Y-15309429D01*
X19721586Y-15323714D01*
X19678728Y-15323714D01*
X19864443Y-15123714D02*
X19978728Y-15123714D01*
X19907300Y-15023714D02*
X19907300Y-15280857D01*
X19921586Y-15309429D01*
X19950157Y-15323714D01*
X19978728Y-15323714D01*
X20064443Y-15309429D02*
X20093014Y-15323714D01*
X20150157Y-15323714D01*
X20178728Y-15309429D01*
X20193014Y-15280857D01*
X20193014Y-15266571D01*
X20178728Y-15238000D01*
X20150157Y-15223714D01*
X20107300Y-15223714D01*
X20078728Y-15209429D01*
X20064443Y-15180857D01*
X20064443Y-15166571D01*
X20078728Y-15138000D01*
X20107300Y-15123714D01*
X20150157Y-15123714D01*
X20178728Y-15138000D01*
X20293014Y-15438000D02*
X20307300Y-15423714D01*
X20335871Y-15380857D01*
X20350157Y-15352286D01*
X20364443Y-15309429D01*
X20378728Y-15238000D01*
X20378728Y-15180857D01*
X20364443Y-15109429D01*
X20350157Y-15066571D01*
X20335871Y-15038000D01*
X20307300Y-14995143D01*
X20293014Y-14980857D01*
X10990700Y-15533200D02*
X11092300Y-15634800D01*
X11092300Y-15533200D02*
X10990700Y-15634800D01*
X11092300Y-15584000D02*
G75*
G03X11092300Y-15584000I-50800J0D01*
G01*
X11535871Y-15719714D02*
X11364443Y-15719714D01*
X11450157Y-15719714D02*
X11450157Y-15419714D01*
X11421586Y-15462571D01*
X11393014Y-15491143D01*
X11364443Y-15505429D01*
X11664443Y-15691143D02*
X11678728Y-15705429D01*
X11664443Y-15719714D01*
X11650157Y-15705429D01*
X11664443Y-15691143D01*
X11664443Y-15719714D01*
X11864443Y-15419714D02*
X11893014Y-15419714D01*
X11921586Y-15434000D01*
X11935871Y-15448286D01*
X11950157Y-15476857D01*
X11964443Y-15534000D01*
X11964443Y-15605429D01*
X11950157Y-15662571D01*
X11935871Y-15691143D01*
X11921586Y-15705429D01*
X11893014Y-15719714D01*
X11864443Y-15719714D01*
X11835871Y-15705429D01*
X11821586Y-15691143D01*
X11807300Y-15662571D01*
X11793014Y-15605429D01*
X11793014Y-15534000D01*
X11807300Y-15476857D01*
X11821586Y-15448286D01*
X11835871Y-15434000D01*
X11864443Y-15419714D01*
X12078728Y-15448286D02*
X12093014Y-15434000D01*
X12121586Y-15419714D01*
X12193014Y-15419714D01*
X12221586Y-15434000D01*
X12235871Y-15448286D01*
X12250157Y-15476857D01*
X12250157Y-15505429D01*
X12235871Y-15548286D01*
X12064443Y-15719714D01*
X12250157Y-15719714D01*
X12378728Y-15719714D02*
X12378728Y-15519714D01*
X12378728Y-15548286D02*
X12393014Y-15534000D01*
X12421586Y-15519714D01*
X12464443Y-15519714D01*
X12493014Y-15534000D01*
X12507300Y-15562571D01*
X12507300Y-15719714D01*
X12507300Y-15562571D02*
X12521586Y-15534000D01*
X12550157Y-15519714D01*
X12593014Y-15519714D01*
X12621586Y-15534000D01*
X12635871Y-15562571D01*
X12635871Y-15719714D01*
X12778728Y-15719714D02*
X12778728Y-15519714D01*
X12778728Y-15548286D02*
X12793014Y-15534000D01*
X12821586Y-15519714D01*
X12864443Y-15519714D01*
X12893014Y-15534000D01*
X12907300Y-15562571D01*
X12907300Y-15719714D01*
X12907300Y-15562571D02*
X12921586Y-15534000D01*
X12950157Y-15519714D01*
X12993014Y-15519714D01*
X13021586Y-15534000D01*
X13035871Y-15562571D01*
X13035871Y-15719714D01*
X13621586Y-15405429D02*
X13364443Y-15791143D01*
X14007300Y-15419714D02*
X14035871Y-15419714D01*
X14064443Y-15434000D01*
X14078728Y-15448286D01*
X14093014Y-15476857D01*
X14107300Y-15534000D01*
X14107300Y-15605429D01*
X14093014Y-15662571D01*
X14078728Y-15691143D01*
X14064443Y-15705429D01*
X14035871Y-15719714D01*
X14007300Y-15719714D01*
X13978728Y-15705429D01*
X13964443Y-15691143D01*
X13950157Y-15662571D01*
X13935871Y-15605429D01*
X13935871Y-15534000D01*
X13950157Y-15476857D01*
X13964443Y-15448286D01*
X13978728Y-15434000D01*
X14007300Y-15419714D01*
X14235871Y-15691143D02*
X14250157Y-15705429D01*
X14235871Y-15719714D01*
X14221586Y-15705429D01*
X14235871Y-15691143D01*
X14235871Y-15719714D01*
X14435871Y-15419714D02*
X14464443Y-15419714D01*
X14493014Y-15434000D01*
X14507300Y-15448286D01*
X14521586Y-15476857D01*
X14535871Y-15534000D01*
X14535871Y-15605429D01*
X14521586Y-15662571D01*
X14507300Y-15691143D01*
X14493014Y-15705429D01*
X14464443Y-15719714D01*
X14435871Y-15719714D01*
X14407300Y-15705429D01*
X14393014Y-15691143D01*
X14378728Y-15662571D01*
X14364443Y-15605429D01*
X14364443Y-15534000D01*
X14378728Y-15476857D01*
X14393014Y-15448286D01*
X14407300Y-15434000D01*
X14435871Y-15419714D01*
X14793014Y-15519714D02*
X14793014Y-15719714D01*
X14721586Y-15405429D02*
X14650157Y-15619714D01*
X14835871Y-15619714D01*
X15007300Y-15419714D02*
X15035871Y-15419714D01*
X15064443Y-15434000D01*
X15078728Y-15448286D01*
X15093014Y-15476857D01*
X15107300Y-15534000D01*
X15107300Y-15605429D01*
X15093014Y-15662571D01*
X15078728Y-15691143D01*
X15064443Y-15705429D01*
X15035871Y-15719714D01*
X15007300Y-15719714D01*
X14978728Y-15705429D01*
X14964443Y-15691143D01*
X14950157Y-15662571D01*
X14935871Y-15605429D01*
X14935871Y-15534000D01*
X14950157Y-15476857D01*
X14964443Y-15448286D01*
X14978728Y-15434000D01*
X15007300Y-15419714D01*
X15221586Y-15419714D02*
X15221586Y-15476857D01*
X15335871Y-15419714D02*
X15335871Y-15476857D01*
X15778728Y-15834000D02*
X15764443Y-15819714D01*
X15735871Y-15776857D01*
X15721586Y-15748286D01*
X15707300Y-15705429D01*
X15693014Y-15634000D01*
X15693014Y-15576857D01*
X15707300Y-15505429D01*
X15721586Y-15462571D01*
X15735871Y-15434000D01*
X15764443Y-15391143D01*
X15778728Y-15376857D01*
X15864443Y-15419714D02*
X16050157Y-15419714D01*
X15950157Y-15534000D01*
X15993014Y-15534000D01*
X16021586Y-15548286D01*
X16035871Y-15562571D01*
X16050157Y-15591143D01*
X16050157Y-15662571D01*
X16035871Y-15691143D01*
X16021586Y-15705429D01*
X15993014Y-15719714D01*
X15907300Y-15719714D01*
X15878728Y-15705429D01*
X15864443Y-15691143D01*
X16164443Y-15448286D02*
X16178728Y-15434000D01*
X16207300Y-15419714D01*
X16278728Y-15419714D01*
X16307300Y-15434000D01*
X16321586Y-15448286D01*
X16335871Y-15476857D01*
X16335871Y-15505429D01*
X16321586Y-15548286D01*
X16150157Y-15719714D01*
X16335871Y-15719714D01*
X16693014Y-15719714D02*
X16693014Y-15419714D01*
X16821586Y-15719714D02*
X16821586Y-15562571D01*
X16807300Y-15534000D01*
X16778728Y-15519714D01*
X16735871Y-15519714D01*
X16707300Y-15534000D01*
X16693014Y-15548286D01*
X17007300Y-15719714D02*
X16978728Y-15705429D01*
X16964443Y-15691143D01*
X16950157Y-15662571D01*
X16950157Y-15576857D01*
X16964443Y-15548286D01*
X16978728Y-15534000D01*
X17007300Y-15519714D01*
X17050157Y-15519714D01*
X17078728Y-15534000D01*
X17093014Y-15548286D01*
X17107300Y-15576857D01*
X17107300Y-15662571D01*
X17093014Y-15691143D01*
X17078728Y-15705429D01*
X17050157Y-15719714D01*
X17007300Y-15719714D01*
X17278728Y-15719714D02*
X17250157Y-15705429D01*
X17235871Y-15676857D01*
X17235871Y-15419714D01*
X17507300Y-15705429D02*
X17478728Y-15719714D01*
X17421586Y-15719714D01*
X17393014Y-15705429D01*
X17378728Y-15676857D01*
X17378728Y-15562571D01*
X17393014Y-15534000D01*
X17421586Y-15519714D01*
X17478728Y-15519714D01*
X17507300Y-15534000D01*
X17521586Y-15562571D01*
X17521586Y-15591143D01*
X17378728Y-15619714D01*
X17635871Y-15705429D02*
X17664443Y-15719714D01*
X17721586Y-15719714D01*
X17750157Y-15705429D01*
X17764443Y-15676857D01*
X17764443Y-15662571D01*
X17750157Y-15634000D01*
X17721586Y-15619714D01*
X17678728Y-15619714D01*
X17650157Y-15605429D01*
X17635871Y-15576857D01*
X17635871Y-15562571D01*
X17650157Y-15534000D01*
X17678728Y-15519714D01*
X17721586Y-15519714D01*
X17750157Y-15534000D01*
X17864443Y-15834000D02*
X17878728Y-15819714D01*
X17907300Y-15776857D01*
X17921586Y-15748286D01*
X17935871Y-15705429D01*
X17950157Y-15634000D01*
X17950157Y-15576857D01*
X17935871Y-15505429D01*
X17921586Y-15462571D01*
X17907300Y-15434000D01*
X17878728Y-15391143D01*
X17864443Y-15376857D01*
X10982300Y-15925000D02*
X11092300Y-16035000D01*
X11092300Y-15925000D02*
X10982300Y-16035000D01*
X11037300Y-15925000D02*
X11037300Y-16035000D01*
X10982300Y-15980000D02*
X11092300Y-15980000D01*
X11535871Y-16115714D02*
X11364443Y-16115714D01*
X11450157Y-16115714D02*
X11450157Y-15815714D01*
X11421586Y-15858571D01*
X11393014Y-15887143D01*
X11364443Y-15901429D01*
X11664443Y-16087143D02*
X11678728Y-16101429D01*
X11664443Y-16115714D01*
X11650157Y-16101429D01*
X11664443Y-16087143D01*
X11664443Y-16115714D01*
X11964443Y-16115714D02*
X11793014Y-16115714D01*
X11878728Y-16115714D02*
X11878728Y-15815714D01*
X11850157Y-15858571D01*
X11821586Y-15887143D01*
X11793014Y-15901429D01*
X12150157Y-15815714D02*
X12178728Y-15815714D01*
X12207300Y-15830000D01*
X12221586Y-15844286D01*
X12235871Y-15872857D01*
X12250157Y-15930000D01*
X12250157Y-16001429D01*
X12235871Y-16058571D01*
X12221586Y-16087143D01*
X12207300Y-16101429D01*
X12178728Y-16115714D01*
X12150157Y-16115714D01*
X12121586Y-16101429D01*
X12107300Y-16087143D01*
X12093014Y-16058571D01*
X12078728Y-16001429D01*
X12078728Y-15930000D01*
X12093014Y-15872857D01*
X12107300Y-15844286D01*
X12121586Y-15830000D01*
X12150157Y-15815714D01*
X12378728Y-16115714D02*
X12378728Y-15915714D01*
X12378728Y-15944286D02*
X12393014Y-15930000D01*
X12421586Y-15915714D01*
X12464443Y-15915714D01*
X12493014Y-15930000D01*
X12507300Y-15958571D01*
X12507300Y-16115714D01*
X12507300Y-15958571D02*
X12521586Y-15930000D01*
X12550157Y-15915714D01*
X12593014Y-15915714D01*
X12621586Y-15930000D01*
X12635871Y-15958571D01*
X12635871Y-16115714D01*
X12778728Y-16115714D02*
X12778728Y-15915714D01*
X12778728Y-15944286D02*
X12793014Y-15930000D01*
X12821586Y-15915714D01*
X12864443Y-15915714D01*
X12893014Y-15930000D01*
X12907300Y-15958571D01*
X12907300Y-16115714D01*
X12907300Y-15958571D02*
X12921586Y-15930000D01*
X12950157Y-15915714D01*
X12993014Y-15915714D01*
X13021586Y-15930000D01*
X13035871Y-15958571D01*
X13035871Y-16115714D01*
X13621586Y-15801429D02*
X13364443Y-16187143D01*
X14007300Y-15815714D02*
X14035871Y-15815714D01*
X14064443Y-15830000D01*
X14078728Y-15844286D01*
X14093014Y-15872857D01*
X14107300Y-15930000D01*
X14107300Y-16001429D01*
X14093014Y-16058571D01*
X14078728Y-16087143D01*
X14064443Y-16101429D01*
X14035871Y-16115714D01*
X14007300Y-16115714D01*
X13978728Y-16101429D01*
X13964443Y-16087143D01*
X13950157Y-16058571D01*
X13935871Y-16001429D01*
X13935871Y-15930000D01*
X13950157Y-15872857D01*
X13964443Y-15844286D01*
X13978728Y-15830000D01*
X14007300Y-15815714D01*
X14235871Y-16087143D02*
X14250157Y-16101429D01*
X14235871Y-16115714D01*
X14221586Y-16101429D01*
X14235871Y-16087143D01*
X14235871Y-16115714D01*
X14435871Y-15815714D02*
X14464443Y-15815714D01*
X14493014Y-15830000D01*
X14507300Y-15844286D01*
X14521586Y-15872857D01*
X14535871Y-15930000D01*
X14535871Y-16001429D01*
X14521586Y-16058571D01*
X14507300Y-16087143D01*
X14493014Y-16101429D01*
X14464443Y-16115714D01*
X14435871Y-16115714D01*
X14407300Y-16101429D01*
X14393014Y-16087143D01*
X14378728Y-16058571D01*
X14364443Y-16001429D01*
X14364443Y-15930000D01*
X14378728Y-15872857D01*
X14393014Y-15844286D01*
X14407300Y-15830000D01*
X14435871Y-15815714D01*
X14793014Y-15915714D02*
X14793014Y-16115714D01*
X14721586Y-15801429D02*
X14650157Y-16015714D01*
X14835871Y-16015714D01*
X14921586Y-15815714D02*
X15107300Y-15815714D01*
X15007300Y-15930000D01*
X15050157Y-15930000D01*
X15078728Y-15944286D01*
X15093014Y-15958571D01*
X15107300Y-15987143D01*
X15107300Y-16058571D01*
X15093014Y-16087143D01*
X15078728Y-16101429D01*
X15050157Y-16115714D01*
X14964443Y-16115714D01*
X14935871Y-16101429D01*
X14921586Y-16087143D01*
X15221586Y-15815714D02*
X15221586Y-15872857D01*
X15335871Y-15815714D02*
X15335871Y-15872857D01*
X15778728Y-16230000D02*
X15764443Y-16215714D01*
X15735871Y-16172857D01*
X15721586Y-16144286D01*
X15707300Y-16101429D01*
X15693014Y-16030000D01*
X15693014Y-15972857D01*
X15707300Y-15901429D01*
X15721586Y-15858571D01*
X15735871Y-15830000D01*
X15764443Y-15787143D01*
X15778728Y-15772857D01*
X15907300Y-16115714D02*
X15964443Y-16115714D01*
X15993014Y-16101429D01*
X16007300Y-16087143D01*
X16035871Y-16044286D01*
X16050157Y-15987143D01*
X16050157Y-15872857D01*
X16035871Y-15844286D01*
X16021586Y-15830000D01*
X15993014Y-15815714D01*
X15935871Y-15815714D01*
X15907300Y-15830000D01*
X15893014Y-15844286D01*
X15878728Y-15872857D01*
X15878728Y-15944286D01*
X15893014Y-15972857D01*
X15907300Y-15987143D01*
X15935871Y-16001429D01*
X15993014Y-16001429D01*
X16021586Y-15987143D01*
X16035871Y-15972857D01*
X16050157Y-15944286D01*
X16407300Y-16115714D02*
X16407300Y-15815714D01*
X16535871Y-16115714D02*
X16535871Y-15958571D01*
X16521586Y-15930000D01*
X16493014Y-15915714D01*
X16450157Y-15915714D01*
X16421586Y-15930000D01*
X16407300Y-15944286D01*
X16721586Y-16115714D02*
X16693014Y-16101429D01*
X16678728Y-16087143D01*
X16664443Y-16058571D01*
X16664443Y-15972857D01*
X16678728Y-15944286D01*
X16693014Y-15930000D01*
X16721586Y-15915714D01*
X16764443Y-15915714D01*
X16793014Y-15930000D01*
X16807300Y-15944286D01*
X16821586Y-15972857D01*
X16821586Y-16058571D01*
X16807300Y-16087143D01*
X16793014Y-16101429D01*
X16764443Y-16115714D01*
X16721586Y-16115714D01*
X16993014Y-16115714D02*
X16964443Y-16101429D01*
X16950157Y-16072857D01*
X16950157Y-15815714D01*
X17221586Y-16101429D02*
X17193014Y-16115714D01*
X17135871Y-16115714D01*
X17107300Y-16101429D01*
X17093014Y-16072857D01*
X17093014Y-15958571D01*
X17107300Y-15930000D01*
X17135871Y-15915714D01*
X17193014Y-15915714D01*
X17221586Y-15930000D01*
X17235871Y-15958571D01*
X17235871Y-15987143D01*
X17093014Y-16015714D01*
X17350157Y-16101429D02*
X17378728Y-16115714D01*
X17435871Y-16115714D01*
X17464443Y-16101429D01*
X17478728Y-16072857D01*
X17478728Y-16058571D01*
X17464443Y-16030000D01*
X17435871Y-16015714D01*
X17393014Y-16015714D01*
X17364443Y-16001429D01*
X17350157Y-15972857D01*
X17350157Y-15958571D01*
X17364443Y-15930000D01*
X17393014Y-15915714D01*
X17435871Y-15915714D01*
X17464443Y-15930000D01*
X17578728Y-16230000D02*
X17593014Y-16215714D01*
X17621586Y-16172857D01*
X17635871Y-16144286D01*
X17650157Y-16101429D01*
X17664443Y-16030000D01*
X17664443Y-15972857D01*
X17650157Y-15901429D01*
X17635871Y-15858571D01*
X17621586Y-15830000D01*
X17593014Y-15787143D01*
X17578728Y-15772857D01*
X10972300Y-16316000D02*
X11092300Y-16436000D01*
X11092300Y-16316000D02*
X10972300Y-16436000D01*
X11074727Y-16418427D02*
X11074727Y-16333573D01*
X10989873Y-16333573D01*
X10989873Y-16418427D01*
X11074727Y-16418427D01*
X11535871Y-16511714D02*
X11364443Y-16511714D01*
X11450157Y-16511714D02*
X11450157Y-16211714D01*
X11421586Y-16254571D01*
X11393014Y-16283143D01*
X11364443Y-16297429D01*
X11664443Y-16483143D02*
X11678728Y-16497429D01*
X11664443Y-16511714D01*
X11650157Y-16497429D01*
X11664443Y-16483143D01*
X11664443Y-16511714D01*
X11793014Y-16240286D02*
X11807300Y-16226000D01*
X11835871Y-16211714D01*
X11907300Y-16211714D01*
X11935871Y-16226000D01*
X11950157Y-16240286D01*
X11964443Y-16268857D01*
X11964443Y-16297429D01*
X11950157Y-16340286D01*
X11778728Y-16511714D01*
X11964443Y-16511714D01*
X12150157Y-16211714D02*
X12178728Y-16211714D01*
X12207300Y-16226000D01*
X12221586Y-16240286D01*
X12235871Y-16268857D01*
X12250157Y-16326000D01*
X12250157Y-16397429D01*
X12235871Y-16454571D01*
X12221586Y-16483143D01*
X12207300Y-16497429D01*
X12178728Y-16511714D01*
X12150157Y-16511714D01*
X12121586Y-16497429D01*
X12107300Y-16483143D01*
X12093014Y-16454571D01*
X12078728Y-16397429D01*
X12078728Y-16326000D01*
X12093014Y-16268857D01*
X12107300Y-16240286D01*
X12121586Y-16226000D01*
X12150157Y-16211714D01*
X12378728Y-16511714D02*
X12378728Y-16311714D01*
X12378728Y-16340286D02*
X12393014Y-16326000D01*
X12421586Y-16311714D01*
X12464443Y-16311714D01*
X12493014Y-16326000D01*
X12507300Y-16354571D01*
X12507300Y-16511714D01*
X12507300Y-16354571D02*
X12521586Y-16326000D01*
X12550157Y-16311714D01*
X12593014Y-16311714D01*
X12621586Y-16326000D01*
X12635871Y-16354571D01*
X12635871Y-16511714D01*
X12778728Y-16511714D02*
X12778728Y-16311714D01*
X12778728Y-16340286D02*
X12793014Y-16326000D01*
X12821586Y-16311714D01*
X12864443Y-16311714D01*
X12893014Y-16326000D01*
X12907300Y-16354571D01*
X12907300Y-16511714D01*
X12907300Y-16354571D02*
X12921586Y-16326000D01*
X12950157Y-16311714D01*
X12993014Y-16311714D01*
X13021586Y-16326000D01*
X13035871Y-16354571D01*
X13035871Y-16511714D01*
X13621586Y-16197429D02*
X13364443Y-16583143D01*
X14007300Y-16211714D02*
X14035871Y-16211714D01*
X14064443Y-16226000D01*
X14078728Y-16240286D01*
X14093014Y-16268857D01*
X14107300Y-16326000D01*
X14107300Y-16397429D01*
X14093014Y-16454571D01*
X14078728Y-16483143D01*
X14064443Y-16497429D01*
X14035871Y-16511714D01*
X14007300Y-16511714D01*
X13978728Y-16497429D01*
X13964443Y-16483143D01*
X13950157Y-16454571D01*
X13935871Y-16397429D01*
X13935871Y-16326000D01*
X13950157Y-16268857D01*
X13964443Y-16240286D01*
X13978728Y-16226000D01*
X14007300Y-16211714D01*
X14235871Y-16483143D02*
X14250157Y-16497429D01*
X14235871Y-16511714D01*
X14221586Y-16497429D01*
X14235871Y-16483143D01*
X14235871Y-16511714D01*
X14435871Y-16211714D02*
X14464443Y-16211714D01*
X14493014Y-16226000D01*
X14507300Y-16240286D01*
X14521586Y-16268857D01*
X14535871Y-16326000D01*
X14535871Y-16397429D01*
X14521586Y-16454571D01*
X14507300Y-16483143D01*
X14493014Y-16497429D01*
X14464443Y-16511714D01*
X14435871Y-16511714D01*
X14407300Y-16497429D01*
X14393014Y-16483143D01*
X14378728Y-16454571D01*
X14364443Y-16397429D01*
X14364443Y-16326000D01*
X14378728Y-16268857D01*
X14393014Y-16240286D01*
X14407300Y-16226000D01*
X14435871Y-16211714D01*
X14793014Y-16311714D02*
X14793014Y-16511714D01*
X14721586Y-16197429D02*
X14650157Y-16411714D01*
X14835871Y-16411714D01*
X14921586Y-16211714D02*
X15121586Y-16211714D01*
X14993014Y-16511714D01*
X15221586Y-16211714D02*
X15221586Y-16268857D01*
X15335871Y-16211714D02*
X15335871Y-16268857D01*
X15778728Y-16626000D02*
X15764443Y-16611714D01*
X15735871Y-16568857D01*
X15721586Y-16540286D01*
X15707300Y-16497429D01*
X15693014Y-16426000D01*
X15693014Y-16368857D01*
X15707300Y-16297429D01*
X15721586Y-16254571D01*
X15735871Y-16226000D01*
X15764443Y-16183143D01*
X15778728Y-16168857D01*
X15878728Y-16240286D02*
X15893014Y-16226000D01*
X15921586Y-16211714D01*
X15993014Y-16211714D01*
X16021586Y-16226000D01*
X16035871Y-16240286D01*
X16050157Y-16268857D01*
X16050157Y-16297429D01*
X16035871Y-16340286D01*
X15864443Y-16511714D01*
X16050157Y-16511714D01*
X16407300Y-16511714D02*
X16407300Y-16211714D01*
X16535871Y-16511714D02*
X16535871Y-16354571D01*
X16521586Y-16326000D01*
X16493014Y-16311714D01*
X16450157Y-16311714D01*
X16421586Y-16326000D01*
X16407300Y-16340286D01*
X16721586Y-16511714D02*
X16693014Y-16497429D01*
X16678728Y-16483143D01*
X16664443Y-16454571D01*
X16664443Y-16368857D01*
X16678728Y-16340286D01*
X16693014Y-16326000D01*
X16721586Y-16311714D01*
X16764443Y-16311714D01*
X16793014Y-16326000D01*
X16807300Y-16340286D01*
X16821586Y-16368857D01*
X16821586Y-16454571D01*
X16807300Y-16483143D01*
X16793014Y-16497429D01*
X16764443Y-16511714D01*
X16721586Y-16511714D01*
X16993014Y-16511714D02*
X16964443Y-16497429D01*
X16950157Y-16468857D01*
X16950157Y-16211714D01*
X17221586Y-16497429D02*
X17193014Y-16511714D01*
X17135871Y-16511714D01*
X17107300Y-16497429D01*
X17093014Y-16468857D01*
X17093014Y-16354571D01*
X17107300Y-16326000D01*
X17135871Y-16311714D01*
X17193014Y-16311714D01*
X17221586Y-16326000D01*
X17235871Y-16354571D01*
X17235871Y-16383143D01*
X17093014Y-16411714D01*
X17350157Y-16497429D02*
X17378728Y-16511714D01*
X17435871Y-16511714D01*
X17464443Y-16497429D01*
X17478728Y-16468857D01*
X17478728Y-16454571D01*
X17464443Y-16426000D01*
X17435871Y-16411714D01*
X17393014Y-16411714D01*
X17364443Y-16397429D01*
X17350157Y-16368857D01*
X17350157Y-16354571D01*
X17364443Y-16326000D01*
X17393014Y-16311714D01*
X17435871Y-16311714D01*
X17464443Y-16326000D01*
X17578728Y-16626000D02*
X17593014Y-16611714D01*
X17621586Y-16568857D01*
X17635871Y-16540286D01*
X17650157Y-16497429D01*
X17664443Y-16426000D01*
X17664443Y-16368857D01*
X17650157Y-16297429D01*
X17635871Y-16254571D01*
X17621586Y-16226000D01*
X17593014Y-16183143D01*
X17578728Y-16168857D01*
X10787500Y-16619600D02*
X11092300Y-16924400D01*
X11092300Y-16619600D02*
X10787500Y-16924400D01*
X10939900Y-16924400D02*
X11092300Y-16772000D01*
X10939900Y-16619600D01*
X10787500Y-16772000D01*
X10939900Y-16924400D01*
X11350157Y-16607714D02*
X11535871Y-16607714D01*
X11435871Y-16722000D01*
X11478728Y-16722000D01*
X11507300Y-16736286D01*
X11521586Y-16750571D01*
X11535871Y-16779143D01*
X11535871Y-16850572D01*
X11521586Y-16879143D01*
X11507300Y-16893429D01*
X11478728Y-16907714D01*
X11393014Y-16907714D01*
X11364443Y-16893429D01*
X11350157Y-16879143D01*
X11664443Y-16879143D02*
X11678728Y-16893429D01*
X11664443Y-16907714D01*
X11650157Y-16893429D01*
X11664443Y-16879143D01*
X11664443Y-16907714D01*
X11864443Y-16607714D02*
X11893014Y-16607714D01*
X11921586Y-16622000D01*
X11935871Y-16636286D01*
X11950157Y-16664857D01*
X11964443Y-16722000D01*
X11964443Y-16793429D01*
X11950157Y-16850572D01*
X11935871Y-16879143D01*
X11921586Y-16893429D01*
X11893014Y-16907714D01*
X11864443Y-16907714D01*
X11835871Y-16893429D01*
X11821586Y-16879143D01*
X11807300Y-16850572D01*
X11793014Y-16793429D01*
X11793014Y-16722000D01*
X11807300Y-16664857D01*
X11821586Y-16636286D01*
X11835871Y-16622000D01*
X11864443Y-16607714D01*
X12235871Y-16607714D02*
X12093014Y-16607714D01*
X12078728Y-16750571D01*
X12093014Y-16736286D01*
X12121586Y-16722000D01*
X12193014Y-16722000D01*
X12221586Y-16736286D01*
X12235871Y-16750571D01*
X12250157Y-16779143D01*
X12250157Y-16850572D01*
X12235871Y-16879143D01*
X12221586Y-16893429D01*
X12193014Y-16907714D01*
X12121586Y-16907714D01*
X12093014Y-16893429D01*
X12078728Y-16879143D01*
X12378728Y-16907714D02*
X12378728Y-16707714D01*
X12378728Y-16736286D02*
X12393014Y-16722000D01*
X12421586Y-16707714D01*
X12464443Y-16707714D01*
X12493014Y-16722000D01*
X12507300Y-16750571D01*
X12507300Y-16907714D01*
X12507300Y-16750571D02*
X12521586Y-16722000D01*
X12550157Y-16707714D01*
X12593014Y-16707714D01*
X12621586Y-16722000D01*
X12635871Y-16750571D01*
X12635871Y-16907714D01*
X12778728Y-16907714D02*
X12778728Y-16707714D01*
X12778728Y-16736286D02*
X12793014Y-16722000D01*
X12821586Y-16707714D01*
X12864443Y-16707714D01*
X12893014Y-16722000D01*
X12907300Y-16750571D01*
X12907300Y-16907714D01*
X12907300Y-16750571D02*
X12921586Y-16722000D01*
X12950157Y-16707714D01*
X12993014Y-16707714D01*
X13021586Y-16722000D01*
X13035871Y-16750571D01*
X13035871Y-16907714D01*
X13621586Y-16593429D02*
X13364443Y-16979143D01*
X14007300Y-16607714D02*
X14035871Y-16607714D01*
X14064443Y-16622000D01*
X14078728Y-16636286D01*
X14093014Y-16664857D01*
X14107300Y-16722000D01*
X14107300Y-16793429D01*
X14093014Y-16850572D01*
X14078728Y-16879143D01*
X14064443Y-16893429D01*
X14035871Y-16907714D01*
X14007300Y-16907714D01*
X13978728Y-16893429D01*
X13964443Y-16879143D01*
X13950157Y-16850572D01*
X13935871Y-16793429D01*
X13935871Y-16722000D01*
X13950157Y-16664857D01*
X13964443Y-16636286D01*
X13978728Y-16622000D01*
X14007300Y-16607714D01*
X14235871Y-16879143D02*
X14250157Y-16893429D01*
X14235871Y-16907714D01*
X14221586Y-16893429D01*
X14235871Y-16879143D01*
X14235871Y-16907714D01*
X14535871Y-16907714D02*
X14364443Y-16907714D01*
X14450157Y-16907714D02*
X14450157Y-16607714D01*
X14421586Y-16650571D01*
X14393014Y-16679143D01*
X14364443Y-16693429D01*
X14650157Y-16636286D02*
X14664443Y-16622000D01*
X14693014Y-16607714D01*
X14764443Y-16607714D01*
X14793014Y-16622000D01*
X14807300Y-16636286D01*
X14821586Y-16664857D01*
X14821586Y-16693429D01*
X14807300Y-16736286D01*
X14635871Y-16907714D01*
X14821586Y-16907714D01*
X15007300Y-16607714D02*
X15035871Y-16607714D01*
X15064443Y-16622000D01*
X15078728Y-16636286D01*
X15093014Y-16664857D01*
X15107300Y-16722000D01*
X15107300Y-16793429D01*
X15093014Y-16850572D01*
X15078728Y-16879143D01*
X15064443Y-16893429D01*
X15035871Y-16907714D01*
X15007300Y-16907714D01*
X14978728Y-16893429D01*
X14964443Y-16879143D01*
X14950157Y-16850572D01*
X14935871Y-16793429D01*
X14935871Y-16722000D01*
X14950157Y-16664857D01*
X14964443Y-16636286D01*
X14978728Y-16622000D01*
X15007300Y-16607714D01*
X15221586Y-16607714D02*
X15221586Y-16664857D01*
X15335871Y-16607714D02*
X15335871Y-16664857D01*
X15778728Y-17022000D02*
X15764443Y-17007714D01*
X15735871Y-16964857D01*
X15721586Y-16936286D01*
X15707300Y-16893429D01*
X15693014Y-16822000D01*
X15693014Y-16764857D01*
X15707300Y-16693429D01*
X15721586Y-16650571D01*
X15735871Y-16622000D01*
X15764443Y-16579143D01*
X15778728Y-16564857D01*
X16021586Y-16707714D02*
X16021586Y-16907714D01*
X15950157Y-16593429D02*
X15878728Y-16807714D01*
X16064443Y-16807714D01*
X16407300Y-16907714D02*
X16407300Y-16607714D01*
X16535871Y-16907714D02*
X16535871Y-16750571D01*
X16521586Y-16722000D01*
X16493014Y-16707714D01*
X16450157Y-16707714D01*
X16421586Y-16722000D01*
X16407300Y-16736286D01*
X16721586Y-16907714D02*
X16693014Y-16893429D01*
X16678728Y-16879143D01*
X16664443Y-16850572D01*
X16664443Y-16764857D01*
X16678728Y-16736286D01*
X16693014Y-16722000D01*
X16721586Y-16707714D01*
X16764443Y-16707714D01*
X16793014Y-16722000D01*
X16807300Y-16736286D01*
X16821586Y-16764857D01*
X16821586Y-16850572D01*
X16807300Y-16879143D01*
X16793014Y-16893429D01*
X16764443Y-16907714D01*
X16721586Y-16907714D01*
X16993014Y-16907714D02*
X16964443Y-16893429D01*
X16950157Y-16864857D01*
X16950157Y-16607714D01*
X17221586Y-16893429D02*
X17193014Y-16907714D01*
X17135871Y-16907714D01*
X17107300Y-16893429D01*
X17093014Y-16864857D01*
X17093014Y-16750571D01*
X17107300Y-16722000D01*
X17135871Y-16707714D01*
X17193014Y-16707714D01*
X17221586Y-16722000D01*
X17235871Y-16750571D01*
X17235871Y-16779143D01*
X17093014Y-16807714D01*
X17350157Y-16893429D02*
X17378728Y-16907714D01*
X17435871Y-16907714D01*
X17464443Y-16893429D01*
X17478728Y-16864857D01*
X17478728Y-16850572D01*
X17464443Y-16822000D01*
X17435871Y-16807714D01*
X17393014Y-16807714D01*
X17364443Y-16793429D01*
X17350157Y-16764857D01*
X17350157Y-16750571D01*
X17364443Y-16722000D01*
X17393014Y-16707714D01*
X17435871Y-16707714D01*
X17464443Y-16722000D01*
X17578728Y-17022000D02*
X17593014Y-17007714D01*
X17621586Y-16964857D01*
X17635871Y-16936286D01*
X17650157Y-16893429D01*
X17664443Y-16822000D01*
X17664443Y-16764857D01*
X17650157Y-16693429D01*
X17635871Y-16650571D01*
X17621586Y-16622000D01*
X17593014Y-16579143D01*
X17578728Y-16564857D01*
X10932300Y-17046800D02*
X10932300Y-17366800D01*
X10772300Y-17206800D02*
X11092300Y-17206800D01*
X11092300Y-17206800D02*
G75*
G03X11092300Y-17206800I-160000J0D01*
G01*
X11350157Y-17042514D02*
X11535871Y-17042514D01*
X11435871Y-17156800D01*
X11478728Y-17156800D01*
X11507300Y-17171086D01*
X11521586Y-17185372D01*
X11535871Y-17213943D01*
X11535871Y-17285372D01*
X11521586Y-17313943D01*
X11507300Y-17328229D01*
X11478728Y-17342514D01*
X11393014Y-17342514D01*
X11364443Y-17328229D01*
X11350157Y-17313943D01*
X11664443Y-17313943D02*
X11678728Y-17328229D01*
X11664443Y-17342514D01*
X11650157Y-17328229D01*
X11664443Y-17313943D01*
X11664443Y-17342514D01*
X11793014Y-17071086D02*
X11807300Y-17056800D01*
X11835871Y-17042514D01*
X11907300Y-17042514D01*
X11935871Y-17056800D01*
X11950157Y-17071086D01*
X11964443Y-17099657D01*
X11964443Y-17128229D01*
X11950157Y-17171086D01*
X11778728Y-17342514D01*
X11964443Y-17342514D01*
X12150157Y-17042514D02*
X12178728Y-17042514D01*
X12207300Y-17056800D01*
X12221586Y-17071086D01*
X12235871Y-17099657D01*
X12250157Y-17156800D01*
X12250157Y-17228229D01*
X12235871Y-17285372D01*
X12221586Y-17313943D01*
X12207300Y-17328229D01*
X12178728Y-17342514D01*
X12150157Y-17342514D01*
X12121586Y-17328229D01*
X12107300Y-17313943D01*
X12093014Y-17285372D01*
X12078728Y-17228229D01*
X12078728Y-17156800D01*
X12093014Y-17099657D01*
X12107300Y-17071086D01*
X12121586Y-17056800D01*
X12150157Y-17042514D01*
X12378728Y-17342514D02*
X12378728Y-17142514D01*
X12378728Y-17171086D02*
X12393014Y-17156800D01*
X12421586Y-17142514D01*
X12464443Y-17142514D01*
X12493014Y-17156800D01*
X12507300Y-17185372D01*
X12507300Y-17342514D01*
X12507300Y-17185372D02*
X12521586Y-17156800D01*
X12550157Y-17142514D01*
X12593014Y-17142514D01*
X12621586Y-17156800D01*
X12635871Y-17185372D01*
X12635871Y-17342514D01*
X12778728Y-17342514D02*
X12778728Y-17142514D01*
X12778728Y-17171086D02*
X12793014Y-17156800D01*
X12821586Y-17142514D01*
X12864443Y-17142514D01*
X12893014Y-17156800D01*
X12907300Y-17185372D01*
X12907300Y-17342514D01*
X12907300Y-17185372D02*
X12921586Y-17156800D01*
X12950157Y-17142514D01*
X12993014Y-17142514D01*
X13021586Y-17156800D01*
X13035871Y-17185372D01*
X13035871Y-17342514D01*
X13621586Y-17028229D02*
X13364443Y-17413943D01*
X14007300Y-17042514D02*
X14035871Y-17042514D01*
X14064443Y-17056800D01*
X14078728Y-17071086D01*
X14093014Y-17099657D01*
X14107300Y-17156800D01*
X14107300Y-17228229D01*
X14093014Y-17285372D01*
X14078728Y-17313943D01*
X14064443Y-17328229D01*
X14035871Y-17342514D01*
X14007300Y-17342514D01*
X13978728Y-17328229D01*
X13964443Y-17313943D01*
X13950157Y-17285372D01*
X13935871Y-17228229D01*
X13935871Y-17156800D01*
X13950157Y-17099657D01*
X13964443Y-17071086D01*
X13978728Y-17056800D01*
X14007300Y-17042514D01*
X14235871Y-17313943D02*
X14250157Y-17328229D01*
X14235871Y-17342514D01*
X14221586Y-17328229D01*
X14235871Y-17313943D01*
X14235871Y-17342514D01*
X14535871Y-17342514D02*
X14364443Y-17342514D01*
X14450157Y-17342514D02*
X14450157Y-17042514D01*
X14421586Y-17085372D01*
X14393014Y-17113943D01*
X14364443Y-17128229D01*
X14650157Y-17071086D02*
X14664443Y-17056800D01*
X14693014Y-17042514D01*
X14764443Y-17042514D01*
X14793014Y-17056800D01*
X14807300Y-17071086D01*
X14821586Y-17099657D01*
X14821586Y-17128229D01*
X14807300Y-17171086D01*
X14635871Y-17342514D01*
X14821586Y-17342514D01*
X15078728Y-17042514D02*
X15021586Y-17042514D01*
X14993014Y-17056800D01*
X14978728Y-17071086D01*
X14950157Y-17113943D01*
X14935871Y-17171086D01*
X14935871Y-17285372D01*
X14950157Y-17313943D01*
X14964443Y-17328229D01*
X14993014Y-17342514D01*
X15050157Y-17342514D01*
X15078728Y-17328229D01*
X15093014Y-17313943D01*
X15107300Y-17285372D01*
X15107300Y-17213943D01*
X15093014Y-17185372D01*
X15078728Y-17171086D01*
X15050157Y-17156800D01*
X14993014Y-17156800D01*
X14964443Y-17171086D01*
X14950157Y-17185372D01*
X14935871Y-17213943D01*
X15221586Y-17042514D02*
X15221586Y-17099657D01*
X15335871Y-17042514D02*
X15335871Y-17099657D01*
X15778728Y-17456800D02*
X15764443Y-17442514D01*
X15735871Y-17399657D01*
X15721586Y-17371086D01*
X15707300Y-17328229D01*
X15693014Y-17256800D01*
X15693014Y-17199657D01*
X15707300Y-17128229D01*
X15721586Y-17085372D01*
X15735871Y-17056800D01*
X15764443Y-17013943D01*
X15778728Y-16999657D01*
X15878728Y-17071086D02*
X15893014Y-17056800D01*
X15921586Y-17042514D01*
X15993014Y-17042514D01*
X16021586Y-17056800D01*
X16035871Y-17071086D01*
X16050157Y-17099657D01*
X16050157Y-17128229D01*
X16035871Y-17171086D01*
X15864443Y-17342514D01*
X16050157Y-17342514D01*
X16407300Y-17342514D02*
X16407300Y-17042514D01*
X16535871Y-17342514D02*
X16535871Y-17185372D01*
X16521586Y-17156800D01*
X16493014Y-17142514D01*
X16450157Y-17142514D01*
X16421586Y-17156800D01*
X16407300Y-17171086D01*
X16721586Y-17342514D02*
X16693014Y-17328229D01*
X16678728Y-17313943D01*
X16664443Y-17285372D01*
X16664443Y-17199657D01*
X16678728Y-17171086D01*
X16693014Y-17156800D01*
X16721586Y-17142514D01*
X16764443Y-17142514D01*
X16793014Y-17156800D01*
X16807300Y-17171086D01*
X16821586Y-17199657D01*
X16821586Y-17285372D01*
X16807300Y-17313943D01*
X16793014Y-17328229D01*
X16764443Y-17342514D01*
X16721586Y-17342514D01*
X16993014Y-17342514D02*
X16964443Y-17328229D01*
X16950157Y-17299657D01*
X16950157Y-17042514D01*
X17221586Y-17328229D02*
X17193014Y-17342514D01*
X17135871Y-17342514D01*
X17107300Y-17328229D01*
X17093014Y-17299657D01*
X17093014Y-17185372D01*
X17107300Y-17156800D01*
X17135871Y-17142514D01*
X17193014Y-17142514D01*
X17221586Y-17156800D01*
X17235871Y-17185372D01*
X17235871Y-17213943D01*
X17093014Y-17242514D01*
X17350157Y-17328229D02*
X17378728Y-17342514D01*
X17435871Y-17342514D01*
X17464443Y-17328229D01*
X17478728Y-17299657D01*
X17478728Y-17285372D01*
X17464443Y-17256800D01*
X17435871Y-17242514D01*
X17393014Y-17242514D01*
X17364443Y-17228229D01*
X17350157Y-17199657D01*
X17350157Y-17185372D01*
X17364443Y-17156800D01*
X17393014Y-17142514D01*
X17435871Y-17142514D01*
X17464443Y-17156800D01*
X17578728Y-17456800D02*
X17593014Y-17442514D01*
X17621586Y-17399657D01*
X17635871Y-17371086D01*
X17650157Y-17328229D01*
X17664443Y-17256800D01*
X17664443Y-17199657D01*
X17650157Y-17128229D01*
X17635871Y-17085372D01*
X17621586Y-17056800D01*
X17593014Y-17013943D01*
X17578728Y-16999657D01*
M02*
