G04 #@! TF.GenerationSoftware,KiCad,Pcbnew,(5.1.4)-1*
G04 #@! TF.CreationDate,2019-10-03T21:02:00+08:00*
G04 #@! TF.ProjectId,arduino-sss,61726475-696e-46f2-9d73-73732e6b6963,rev?*
G04 #@! TF.SameCoordinates,Original*
G04 #@! TF.FileFunction,Other,User*
%FSLAX46Y46*%
G04 Gerber Fmt 4.6, Leading zero omitted, Abs format (unit mm)*
G04 Created by KiCad (PCBNEW (5.1.4)-1) date 2019-10-03 21:02:00*
%MOMM*%
%LPD*%
G04 APERTURE LIST*
%ADD10C,0.050000*%
G04 APERTURE END LIST*
D10*
X118820000Y-105142000D02*
X118820000Y-73242000D01*
X100720000Y-105142000D02*
X118820000Y-105142000D01*
X100720000Y-73242000D02*
X100720000Y-105142000D01*
X118820000Y-73242000D02*
X100720000Y-73242000D01*
X132540000Y-109474000D02*
G75*
G03X132540000Y-109474000I-2250000J0D01*
G01*
X164864000Y-109647000D02*
X160764000Y-109647000D01*
X160764000Y-109647000D02*
X160764000Y-121747000D01*
X160764000Y-121747000D02*
X164864000Y-121747000D01*
X164864000Y-121747000D02*
X164864000Y-109647000D01*
X137188000Y-122075000D02*
X137188000Y-125575000D01*
X158488000Y-122075000D02*
X158488000Y-125575000D01*
X137188000Y-122075000D02*
X158488000Y-122075000D01*
X137188000Y-125575000D02*
X158488000Y-125575000D01*
X160048000Y-122075000D02*
X160048000Y-125575000D01*
X176248000Y-122075000D02*
X176248000Y-125575000D01*
X160048000Y-122075000D02*
X176248000Y-122075000D01*
X160048000Y-125575000D02*
X176248000Y-125575000D01*
X128044000Y-73815000D02*
X128044000Y-77315000D01*
X154444000Y-73815000D02*
X154444000Y-77315000D01*
X128044000Y-73815000D02*
X154444000Y-73815000D01*
X128044000Y-77315000D02*
X154444000Y-77315000D01*
X154968000Y-73815000D02*
X154968000Y-77315000D01*
X176268000Y-73815000D02*
X176268000Y-77315000D01*
X154968000Y-73815000D02*
X176268000Y-73815000D01*
X154968000Y-77315000D02*
X176268000Y-77315000D01*
X123789000Y-105652000D02*
G75*
G03X123789000Y-105652000I-2250000J0D01*
G01*
X129327000Y-99669000D02*
X119727000Y-99669000D01*
X129327000Y-102769000D02*
X129327000Y-99669000D01*
X119727000Y-102769000D02*
X129327000Y-102769000D01*
X119727000Y-99669000D02*
X119727000Y-102769000D01*
X128869000Y-105652000D02*
G75*
G03X128869000Y-105652000I-2250000J0D01*
G01*
X160168000Y-116764000D02*
X160168000Y-113664000D01*
X160168000Y-113664000D02*
X150568000Y-113664000D01*
X150568000Y-113664000D02*
X150568000Y-116764000D01*
X150568000Y-116764000D02*
X160168000Y-116764000D01*
X152198000Y-96065000D02*
X152198000Y-98165000D01*
X152198000Y-98165000D02*
X156798000Y-98165000D01*
X156798000Y-98165000D02*
X156798000Y-96065000D01*
X156798000Y-96065000D02*
X152198000Y-96065000D01*
X144698000Y-98165000D02*
X149298000Y-98165000D01*
X144698000Y-96065000D02*
X144698000Y-98165000D01*
X149298000Y-96065000D02*
X144698000Y-96065000D01*
X149298000Y-98165000D02*
X149298000Y-96065000D01*
X160168000Y-109117000D02*
X150568000Y-109117000D01*
X160168000Y-112217000D02*
X160168000Y-109117000D01*
X150568000Y-112217000D02*
X160168000Y-112217000D01*
X150568000Y-109117000D02*
X150568000Y-112217000D01*
X150568000Y-118211000D02*
X150568000Y-121311000D01*
X150568000Y-121311000D02*
X160168000Y-121311000D01*
X160168000Y-121311000D02*
X160168000Y-118211000D01*
X160168000Y-118211000D02*
X150568000Y-118211000D01*
X124507000Y-121361000D02*
X137367000Y-121361000D01*
X124507000Y-118161000D02*
X124507000Y-121361000D01*
X137367000Y-118161000D02*
X124507000Y-118161000D01*
X137367000Y-121361000D02*
X137367000Y-118161000D01*
X150148000Y-118811000D02*
X137888000Y-118811000D01*
X150148000Y-121311000D02*
X150148000Y-118811000D01*
X137888000Y-121311000D02*
X150148000Y-121311000D01*
X137888000Y-118811000D02*
X137888000Y-121311000D01*
X137888000Y-114214000D02*
X137888000Y-116714000D01*
X137888000Y-116714000D02*
X150148000Y-116714000D01*
X150148000Y-116714000D02*
X150148000Y-114214000D01*
X150148000Y-114214000D02*
X137888000Y-114214000D01*
X134582000Y-89391000D02*
X134582000Y-94241000D01*
X139082000Y-89391000D02*
X134582000Y-89391000D01*
X139082000Y-94241000D02*
X139082000Y-89391000D01*
X134582000Y-94241000D02*
X139082000Y-94241000D01*
X129681000Y-89391000D02*
X129681000Y-94241000D01*
X134181000Y-89391000D02*
X129681000Y-89391000D01*
X134181000Y-94241000D02*
X134181000Y-89391000D01*
X129681000Y-94241000D02*
X134181000Y-94241000D01*
X128390000Y-121575000D02*
X128390000Y-126075000D01*
X128390000Y-126075000D02*
X133240000Y-126075000D01*
X133240000Y-126075000D02*
X133240000Y-121575000D01*
X133240000Y-121575000D02*
X128390000Y-121575000D01*
X139482000Y-94241000D02*
X143982000Y-94241000D01*
X143982000Y-94241000D02*
X143982000Y-89391000D01*
X143982000Y-89391000D02*
X139482000Y-89391000D01*
X139482000Y-89391000D02*
X139482000Y-94241000D01*
X111611000Y-113179000D02*
X120261000Y-113179000D01*
X120261000Y-113179000D02*
X120261000Y-109579000D01*
X120261000Y-109579000D02*
X111611000Y-109579000D01*
X111611000Y-109579000D02*
X111611000Y-113179000D01*
X122539000Y-114245000D02*
X122539000Y-113995000D01*
X122539000Y-113995000D02*
X107539000Y-113995000D01*
X122539000Y-114245000D02*
X122539000Y-116745000D01*
X122539000Y-116745000D02*
X123539000Y-116745000D01*
X123539000Y-116745000D02*
X123539000Y-120745000D01*
X123539000Y-120745000D02*
X122539000Y-120745000D01*
X122539000Y-120745000D02*
X122539000Y-123495000D01*
X122539000Y-123495000D02*
X120539000Y-123495000D01*
X120539000Y-123495000D02*
X120539000Y-125495000D01*
X120539000Y-125495000D02*
X116539000Y-125495000D01*
X116539000Y-125495000D02*
X116539000Y-123495000D01*
X116539000Y-123495000D02*
X107539000Y-123495000D01*
X107539000Y-123495000D02*
X107539000Y-113995000D01*
X167364000Y-92180000D02*
X167364000Y-98330000D01*
X167364000Y-98330000D02*
X170964000Y-98330000D01*
X170964000Y-98330000D02*
X170964000Y-92180000D01*
X170964000Y-92180000D02*
X167364000Y-92180000D01*
X172825000Y-94085000D02*
X172825000Y-102735000D01*
X172825000Y-102735000D02*
X178975000Y-102735000D01*
X178975000Y-102735000D02*
X178975000Y-94085000D01*
X178975000Y-94085000D02*
X172825000Y-94085000D01*
X130620000Y-112671000D02*
X136080000Y-112671000D01*
X130620000Y-112671000D02*
X130620000Y-117411000D01*
X136080000Y-117411000D02*
X136080000Y-112671000D01*
X136080000Y-117411000D02*
X130620000Y-117411000D01*
X129984000Y-117411000D02*
X124524000Y-117411000D01*
X129984000Y-117411000D02*
X129984000Y-112671000D01*
X124524000Y-112671000D02*
X124524000Y-117411000D01*
X124524000Y-112671000D02*
X129984000Y-112671000D01*
X157748000Y-90712000D02*
X160748000Y-90712000D01*
X160748000Y-90712000D02*
X160748000Y-78452000D01*
X160748000Y-78452000D02*
X157748000Y-78452000D01*
X157748000Y-78452000D02*
X157748000Y-90712000D01*
X137888000Y-109117000D02*
X137888000Y-112117000D01*
X137888000Y-112117000D02*
X150148000Y-112117000D01*
X150148000Y-112117000D02*
X150148000Y-109117000D01*
X150148000Y-109117000D02*
X137888000Y-109117000D01*
X161052000Y-90712000D02*
X164052000Y-90712000D01*
X164052000Y-90712000D02*
X164052000Y-78452000D01*
X164052000Y-78452000D02*
X161052000Y-78452000D01*
X161052000Y-78452000D02*
X161052000Y-90712000D01*
X167357000Y-90712000D02*
X167357000Y-78452000D01*
X164357000Y-90712000D02*
X167357000Y-90712000D01*
X164357000Y-78452000D02*
X164357000Y-90712000D01*
X167357000Y-78452000D02*
X164357000Y-78452000D01*
X142782000Y-81989500D02*
X130522000Y-81989500D01*
X142782000Y-84989500D02*
X142782000Y-81989500D01*
X130522000Y-84989500D02*
X142782000Y-84989500D01*
X130522000Y-81989500D02*
X130522000Y-84989500D01*
X170662000Y-90712000D02*
X170662000Y-78452000D01*
X167662000Y-90712000D02*
X170662000Y-90712000D01*
X167662000Y-78452000D02*
X167662000Y-90712000D01*
X170662000Y-78452000D02*
X167662000Y-78452000D01*
X130522000Y-85749000D02*
X130522000Y-88749000D01*
X130522000Y-88749000D02*
X142782000Y-88749000D01*
X142782000Y-88749000D02*
X142782000Y-85749000D01*
X142782000Y-85749000D02*
X130522000Y-85749000D01*
X142782000Y-78230000D02*
X130522000Y-78230000D01*
X142782000Y-81230000D02*
X142782000Y-78230000D01*
X130522000Y-81230000D02*
X142782000Y-81230000D01*
X130522000Y-78230000D02*
X130522000Y-81230000D01*
X169161000Y-109567000D02*
X166161000Y-109567000D01*
X166161000Y-109567000D02*
X166161000Y-121827000D01*
X166161000Y-121827000D02*
X169161000Y-121827000D01*
X169161000Y-121827000D02*
X169161000Y-109567000D01*
X173966000Y-78452000D02*
X170966000Y-78452000D01*
X170966000Y-78452000D02*
X170966000Y-90712000D01*
X170966000Y-90712000D02*
X173966000Y-90712000D01*
X173966000Y-90712000D02*
X173966000Y-78452000D01*
X173458000Y-121827000D02*
X173458000Y-109567000D01*
X170458000Y-121827000D02*
X173458000Y-121827000D01*
X170458000Y-109567000D02*
X170458000Y-121827000D01*
X173458000Y-109567000D02*
X170458000Y-109567000D01*
X157858000Y-90901000D02*
X157608000Y-90901000D01*
X157608000Y-90901000D02*
X157608000Y-91151000D01*
X157858000Y-98401000D02*
X157608000Y-98401000D01*
X157608000Y-98401000D02*
X157608000Y-98151000D01*
X167108000Y-98151000D02*
X167108000Y-98401000D01*
X167108000Y-98401000D02*
X166858000Y-98401000D01*
X167108000Y-91151000D02*
X167108000Y-90901000D01*
X167108000Y-90901000D02*
X166858000Y-90901000D01*
X166858000Y-98401000D02*
X157858000Y-98401000D01*
X167108000Y-91151000D02*
X167108000Y-98151000D01*
X157858000Y-90901000D02*
X166858000Y-90901000D01*
X157608000Y-98151000D02*
X157608000Y-91151000D01*
X118956000Y-78207000D02*
X118956000Y-99167000D01*
X118956000Y-99167000D02*
X129456000Y-99167000D01*
X129456000Y-99167000D02*
X129456000Y-78207000D01*
X129456000Y-78207000D02*
X118956000Y-78207000D01*
X170968000Y-98595000D02*
X134868000Y-98595000D01*
X134868000Y-98595000D02*
X134868000Y-108395000D01*
X134868000Y-108395000D02*
X170968000Y-108395000D01*
X170968000Y-108395000D02*
X170968000Y-98595000D01*
X157348000Y-95365000D02*
X157348000Y-78065000D01*
X157348000Y-78065000D02*
X144248000Y-78065000D01*
X144248000Y-78065000D02*
X144248000Y-95365000D01*
X144248000Y-95365000D02*
X157348000Y-95365000D01*
M02*
