G04 #@! TF.GenerationSoftware,KiCad,Pcbnew,(5.1.4)-1*
G04 #@! TF.CreationDate,2019-10-04T17:51:03+08:00*
G04 #@! TF.ProjectId,arduino-sss,61726475-696e-46f2-9d73-73732e6b6963,rev?*
G04 #@! TF.SameCoordinates,Original*
G04 #@! TF.FileFunction,Legend,Top*
G04 #@! TF.FilePolarity,Positive*
%FSLAX46Y46*%
G04 Gerber Fmt 4.6, Leading zero omitted, Abs format (unit mm)*
G04 Created by KiCad (PCBNEW (5.1.4)-1) date 2019-10-04 17:51:03*
%MOMM*%
%LPD*%
G04 APERTURE LIST*
%ADD10C,0.150000*%
%ADD11C,0.120000*%
G04 APERTURE END LIST*
D10*
X136983714Y-124317380D02*
X136412285Y-124317380D01*
X136698000Y-124317380D02*
X136698000Y-123317380D01*
X136602761Y-123460238D01*
X136507523Y-123555476D01*
X136412285Y-123603095D01*
D11*
X159555000Y-115506000D02*
X159615000Y-115506000D01*
X171915000Y-115506000D02*
X171855000Y-115506000D01*
X159615000Y-118126000D02*
X171855000Y-118126000D01*
X159615000Y-112886000D02*
X159615000Y-118126000D01*
X171855000Y-112886000D02*
X159615000Y-112886000D01*
X171855000Y-118126000D02*
X171855000Y-112886000D01*
X147458000Y-88916000D02*
G75*
G03X147458000Y-93966000I0J-2525000D01*
G01*
X153858000Y-88916000D02*
G75*
G02X153858000Y-93966000I0J-2525000D01*
G01*
X153858000Y-88916000D02*
X147458000Y-88916000D01*
X153858000Y-93966000D02*
X147458000Y-93966000D01*
X170808000Y-108645000D02*
X170808000Y-98365000D01*
X135008000Y-108645000D02*
X170808000Y-108645000D01*
X135008000Y-98365000D02*
X135008000Y-108645000D01*
X170808000Y-98365000D02*
X135008000Y-98365000D01*
X170748000Y-106155000D02*
X170748000Y-104505000D01*
X135068000Y-106155000D02*
X170748000Y-106155000D01*
X135068000Y-100855000D02*
X135068000Y-106155000D01*
X170748000Y-100855000D02*
X135068000Y-100855000D01*
X170748000Y-102505000D02*
X170748000Y-100855000D01*
X170748000Y-104505000D02*
G75*
G02X170748000Y-102505000I0J1000000D01*
G01*
X124421816Y-112733205D02*
G75*
G02X124946000Y-112006000I2324184J-1122795D01*
G01*
X124389600Y-114954807D02*
G75*
G03X126746000Y-116456000I2356400J1098807D01*
G01*
X129102400Y-114954807D02*
G75*
G02X126746000Y-116456000I-2356400J1098807D01*
G01*
X129070184Y-112733205D02*
G75*
G03X128546000Y-112006000I-2324184J-1122795D01*
G01*
X128546000Y-112006000D02*
X124946000Y-112006000D01*
X131787816Y-112733205D02*
G75*
G02X132312000Y-112006000I2324184J-1122795D01*
G01*
X131755600Y-114954807D02*
G75*
G03X134112000Y-116456000I2356400J1098807D01*
G01*
X136468400Y-114954807D02*
G75*
G02X134112000Y-116456000I-2356400J1098807D01*
G01*
X136436184Y-112733205D02*
G75*
G03X135912000Y-112006000I-2324184J-1122795D01*
G01*
X135912000Y-112006000D02*
X132312000Y-112006000D01*
X117891325Y-94742000D02*
X118324338Y-94492000D01*
X118324338Y-94992000D02*
X117891325Y-94742000D01*
X118324338Y-94492000D02*
X118324338Y-94992000D01*
X117430000Y-104687000D02*
X105090000Y-104687000D01*
X117430000Y-73717000D02*
X117430000Y-104687000D01*
X105090000Y-73717000D02*
X117430000Y-73717000D01*
X148290000Y-111320000D02*
X149654000Y-111320000D01*
X144414000Y-111320000D02*
X145778000Y-111320000D01*
X148290000Y-119560000D02*
X149654000Y-119560000D01*
X144414000Y-119560000D02*
X145778000Y-119560000D01*
X149654000Y-119560000D02*
X149654000Y-111320000D01*
X144414000Y-119560000D02*
X144414000Y-111320000D01*
X151970000Y-119560000D02*
X150606000Y-119560000D01*
X155846000Y-119560000D02*
X154482000Y-119560000D01*
X151970000Y-111320000D02*
X150606000Y-111320000D01*
X155846000Y-111320000D02*
X154482000Y-111320000D01*
X150606000Y-111320000D02*
X150606000Y-119560000D01*
X155846000Y-111320000D02*
X155846000Y-119560000D01*
X144339000Y-97572500D02*
X144339000Y-94832500D01*
X149579000Y-97572500D02*
X149579000Y-94832500D01*
X149579000Y-94832500D02*
X144339000Y-94832500D01*
X149579000Y-97572500D02*
X144339000Y-97572500D01*
X156968000Y-94832500D02*
X156968000Y-97572500D01*
X151728000Y-94832500D02*
X151728000Y-97572500D01*
X151728000Y-97572500D02*
X156968000Y-97572500D01*
X151728000Y-94832500D02*
X156968000Y-94832500D01*
X142099000Y-111320000D02*
X143463000Y-111320000D01*
X138223000Y-111320000D02*
X139587000Y-111320000D01*
X142099000Y-119560000D02*
X143463000Y-119560000D01*
X138223000Y-119560000D02*
X139587000Y-119560000D01*
X143463000Y-119560000D02*
X143463000Y-111320000D01*
X138223000Y-119560000D02*
X138223000Y-111320000D01*
X132478000Y-108696000D02*
G75*
G03X132478000Y-108696000I-2620000J0D01*
G01*
X124358000Y-108696000D02*
G75*
G03X124358000Y-108696000I-2120000J0D01*
G01*
X128456000Y-103618000D02*
X128456000Y-104982000D01*
X128456000Y-99742000D02*
X128456000Y-101106000D01*
X120216000Y-103618000D02*
X120216000Y-104982000D01*
X120216000Y-99742000D02*
X120216000Y-101106000D01*
X120216000Y-104982000D02*
X128456000Y-104982000D01*
X120216000Y-99742000D02*
X128456000Y-99742000D01*
X117238000Y-108696000D02*
G75*
G03X117238000Y-108696000I-2620000J0D01*
G01*
D10*
X140208000Y-125095000D02*
X157988000Y-125095000D01*
X157988000Y-125095000D02*
X157988000Y-122555000D01*
X157988000Y-122555000D02*
X140208000Y-122555000D01*
X137388000Y-125375000D02*
X138938000Y-125375000D01*
X140208000Y-125095000D02*
X140208000Y-122555000D01*
X138938000Y-122275000D02*
X137388000Y-122275000D01*
X137388000Y-122275000D02*
X137388000Y-125375000D01*
X163068000Y-125095000D02*
X175768000Y-125095000D01*
X175768000Y-125095000D02*
X175768000Y-122555000D01*
X175768000Y-122555000D02*
X163068000Y-122555000D01*
X160248000Y-125375000D02*
X161798000Y-125375000D01*
X163068000Y-125095000D02*
X163068000Y-122555000D01*
X161798000Y-122275000D02*
X160248000Y-122275000D01*
X160248000Y-122275000D02*
X160248000Y-125375000D01*
X131064000Y-76835000D02*
X153924000Y-76835000D01*
X153924000Y-76835000D02*
X153924000Y-74295000D01*
X153924000Y-74295000D02*
X131064000Y-74295000D01*
X128244000Y-77115000D02*
X129794000Y-77115000D01*
X131064000Y-76835000D02*
X131064000Y-74295000D01*
X129794000Y-74015000D02*
X128244000Y-74015000D01*
X128244000Y-74015000D02*
X128244000Y-77115000D01*
X157988000Y-76835000D02*
X175768000Y-76835000D01*
X175768000Y-76835000D02*
X175768000Y-74295000D01*
X175768000Y-74295000D02*
X157988000Y-74295000D01*
X155168000Y-77115000D02*
X156718000Y-77115000D01*
X157988000Y-76835000D02*
X157988000Y-74295000D01*
X156718000Y-74015000D02*
X155168000Y-74015000D01*
X155168000Y-74015000D02*
X155168000Y-77115000D01*
X127254000Y-123825000D02*
G75*
G03X127254000Y-123825000I-2286000J0D01*
G01*
X179324000Y-118745000D02*
G75*
G03X179324000Y-118745000I-2286000J0D01*
G01*
X128524000Y-75565000D02*
G75*
G03X128524000Y-75565000I-2286000J0D01*
G01*
X179324000Y-90805000D02*
G75*
G03X179324000Y-90805000I-2286000J0D01*
G01*
D11*
X132755000Y-121231000D02*
X132755000Y-118291000D01*
X132515000Y-121231000D02*
X132515000Y-118291000D01*
X132635000Y-121231000D02*
X132635000Y-118291000D01*
X127075000Y-119761000D02*
X128095000Y-119761000D01*
X134555000Y-119761000D02*
X133535000Y-119761000D01*
X128095000Y-121231000D02*
X133535000Y-121231000D01*
X128095000Y-118291000D02*
X128095000Y-121231000D01*
X133535000Y-118291000D02*
X128095000Y-118291000D01*
X133535000Y-121231000D02*
X133535000Y-118291000D01*
X164215000Y-119086000D02*
X164215000Y-121326000D01*
X164455000Y-119086000D02*
X164455000Y-121326000D01*
X164335000Y-119086000D02*
X164335000Y-121326000D01*
X169775000Y-120206000D02*
X167855000Y-120206000D01*
X161695000Y-120206000D02*
X163615000Y-120206000D01*
X167855000Y-119086000D02*
X163615000Y-119086000D01*
X167855000Y-121326000D02*
X167855000Y-119086000D01*
X163615000Y-121326000D02*
X167855000Y-121326000D01*
X163615000Y-119086000D02*
X163615000Y-121326000D01*
X163615000Y-109763000D02*
X163615000Y-112003000D01*
X163615000Y-112003000D02*
X167855000Y-112003000D01*
X167855000Y-112003000D02*
X167855000Y-109763000D01*
X167855000Y-109763000D02*
X163615000Y-109763000D01*
X161695000Y-110883000D02*
X163615000Y-110883000D01*
X169775000Y-110883000D02*
X167855000Y-110883000D01*
X164335000Y-109763000D02*
X164335000Y-112003000D01*
X164455000Y-109763000D02*
X164455000Y-112003000D01*
X164215000Y-109763000D02*
X164215000Y-112003000D01*
X137911837Y-90779870D02*
G75*
G02X137912000Y-92861961I-1079837J-1041130D01*
G01*
X135752163Y-90779870D02*
G75*
G03X135752000Y-92861961I1079837J-1041130D01*
G01*
X137910608Y-90148665D02*
G75*
G02X138067516Y-93381000I-1078608J-1672335D01*
G01*
X135753392Y-90148665D02*
G75*
G03X135596484Y-93381000I1078608J-1672335D01*
G01*
X137912000Y-93381000D02*
X138068000Y-93381000D01*
X135596000Y-93381000D02*
X135752000Y-93381000D01*
X133010837Y-90779870D02*
G75*
G02X133011000Y-92861961I-1079837J-1041130D01*
G01*
X130851163Y-90779870D02*
G75*
G03X130851000Y-92861961I1079837J-1041130D01*
G01*
X133009608Y-90148665D02*
G75*
G02X133166516Y-93381000I-1078608J-1672335D01*
G01*
X130852392Y-90148665D02*
G75*
G03X130695484Y-93381000I1078608J-1672335D01*
G01*
X133011000Y-93381000D02*
X133167000Y-93381000D01*
X130695000Y-93381000D02*
X130851000Y-93381000D01*
X129250000Y-122589000D02*
X129250000Y-122745000D01*
X129250000Y-124905000D02*
X129250000Y-125061000D01*
X132482335Y-122746392D02*
G75*
G03X129250000Y-122589484I-1672335J-1078608D01*
G01*
X132482335Y-124903608D02*
G75*
G02X129250000Y-125060516I-1672335J1078608D01*
G01*
X131851130Y-122745163D02*
G75*
G03X129769039Y-122745000I-1041130J-1079837D01*
G01*
X131851130Y-124904837D02*
G75*
G02X129769039Y-124905000I-1041130J1079837D01*
G01*
X140496000Y-93381000D02*
X140652000Y-93381000D01*
X142812000Y-93381000D02*
X142968000Y-93381000D01*
X140653392Y-90148665D02*
G75*
G03X140496484Y-93381000I1078608J-1672335D01*
G01*
X142810608Y-90148665D02*
G75*
G02X142967516Y-93381000I-1078608J-1672335D01*
G01*
X140652163Y-90779870D02*
G75*
G03X140652000Y-92861961I1079837J-1041130D01*
G01*
X142811837Y-90779870D02*
G75*
G02X142812000Y-92861961I-1079837J-1041130D01*
G01*
X175845000Y-111693000D02*
X178505000Y-111693000D01*
X175845000Y-106553000D02*
X175845000Y-111693000D01*
X178505000Y-106553000D02*
X178505000Y-111693000D01*
X175845000Y-106553000D02*
X178505000Y-106553000D01*
X175845000Y-105283000D02*
X175845000Y-103953000D01*
X175845000Y-103953000D02*
X177175000Y-103953000D01*
X122639000Y-114995000D02*
X122639000Y-113945000D01*
X121589000Y-113945000D02*
X122639000Y-113945000D01*
X116539000Y-123345000D02*
X107739000Y-123345000D01*
X107739000Y-123345000D02*
X107739000Y-114145000D01*
X122439000Y-120645000D02*
X122439000Y-123345000D01*
X122439000Y-123345000D02*
X120539000Y-123345000D01*
X107739000Y-114145000D02*
X122439000Y-114145000D01*
X122439000Y-114145000D02*
X122439000Y-116745000D01*
X170558000Y-92396000D02*
X167898000Y-92396000D01*
X170558000Y-94996000D02*
X170558000Y-92396000D01*
X167898000Y-94996000D02*
X167898000Y-92396000D01*
X170558000Y-94996000D02*
X167898000Y-94996000D01*
X170558000Y-96266000D02*
X170558000Y-97596000D01*
X170558000Y-97596000D02*
X169228000Y-97596000D01*
X173295000Y-102295000D02*
X178495000Y-102295000D01*
X173295000Y-97155000D02*
X173295000Y-102295000D01*
X178495000Y-94555000D02*
X178495000Y-102295000D01*
X173295000Y-97155000D02*
X175895000Y-97155000D01*
X175895000Y-97155000D02*
X175895000Y-94555000D01*
X175895000Y-94555000D02*
X178495000Y-94555000D01*
X173295000Y-95885000D02*
X173295000Y-94555000D01*
X173295000Y-94555000D02*
X174625000Y-94555000D01*
X157878000Y-87598000D02*
X160618000Y-87598000D01*
X160618000Y-87598000D02*
X160618000Y-81058000D01*
X160618000Y-81058000D02*
X157878000Y-81058000D01*
X157878000Y-81058000D02*
X157878000Y-87598000D01*
X159248000Y-88368000D02*
X159248000Y-87598000D01*
X159248000Y-80288000D02*
X159248000Y-81058000D01*
X147378000Y-78322500D02*
X147378000Y-81062500D01*
X147378000Y-81062500D02*
X153918000Y-81062500D01*
X153918000Y-81062500D02*
X153918000Y-78322500D01*
X153918000Y-78322500D02*
X147378000Y-78322500D01*
X146608000Y-79692500D02*
X147378000Y-79692500D01*
X154688000Y-79692500D02*
X153918000Y-79692500D01*
X161182000Y-87598000D02*
X163922000Y-87598000D01*
X163922000Y-87598000D02*
X163922000Y-81058000D01*
X163922000Y-81058000D02*
X161182000Y-81058000D01*
X161182000Y-81058000D02*
X161182000Y-87598000D01*
X162552000Y-88368000D02*
X162552000Y-87598000D01*
X162552000Y-80288000D02*
X162552000Y-81058000D01*
X165857000Y-88368000D02*
X165857000Y-87598000D01*
X165857000Y-80288000D02*
X165857000Y-81058000D01*
X167227000Y-87598000D02*
X167227000Y-81058000D01*
X164487000Y-87598000D02*
X167227000Y-87598000D01*
X164487000Y-81058000D02*
X164487000Y-87598000D01*
X167227000Y-81058000D02*
X164487000Y-81058000D01*
X140692000Y-83216800D02*
X139922000Y-83216800D01*
X132612000Y-83216800D02*
X133382000Y-83216800D01*
X139922000Y-81846800D02*
X133382000Y-81846800D01*
X139922000Y-84586800D02*
X139922000Y-81846800D01*
X133382000Y-84586800D02*
X139922000Y-84586800D01*
X133382000Y-81846800D02*
X133382000Y-84586800D01*
X169162000Y-88368000D02*
X169162000Y-87598000D01*
X169162000Y-80288000D02*
X169162000Y-81058000D01*
X170532000Y-87598000D02*
X170532000Y-81058000D01*
X167792000Y-87598000D02*
X170532000Y-87598000D01*
X167792000Y-81058000D02*
X167792000Y-87598000D01*
X170532000Y-81058000D02*
X167792000Y-81058000D01*
X133382000Y-85371000D02*
X133382000Y-88111000D01*
X133382000Y-88111000D02*
X139922000Y-88111000D01*
X139922000Y-88111000D02*
X139922000Y-85371000D01*
X139922000Y-85371000D02*
X133382000Y-85371000D01*
X132612000Y-86741000D02*
X133382000Y-86741000D01*
X140692000Y-86741000D02*
X139922000Y-86741000D01*
X140692000Y-79692500D02*
X139922000Y-79692500D01*
X132612000Y-79692500D02*
X133382000Y-79692500D01*
X139922000Y-78322500D02*
X133382000Y-78322500D01*
X139922000Y-81062500D02*
X139922000Y-78322500D01*
X133382000Y-81062500D02*
X139922000Y-81062500D01*
X133382000Y-78322500D02*
X133382000Y-81062500D01*
X147378000Y-81846800D02*
X147378000Y-84586800D01*
X147378000Y-84586800D02*
X153918000Y-84586800D01*
X153918000Y-84586800D02*
X153918000Y-81846800D01*
X153918000Y-81846800D02*
X147378000Y-81846800D01*
X146608000Y-83216800D02*
X147378000Y-83216800D01*
X154688000Y-83216800D02*
X153918000Y-83216800D01*
X173836000Y-81058000D02*
X171096000Y-81058000D01*
X171096000Y-81058000D02*
X171096000Y-87598000D01*
X171096000Y-87598000D02*
X173836000Y-87598000D01*
X173836000Y-87598000D02*
X173836000Y-81058000D01*
X172466000Y-80288000D02*
X172466000Y-81058000D01*
X172466000Y-88368000D02*
X172466000Y-87598000D01*
X154688000Y-86741000D02*
X153918000Y-86741000D01*
X146608000Y-86741000D02*
X147378000Y-86741000D01*
X153918000Y-85371000D02*
X147378000Y-85371000D01*
X153918000Y-88111000D02*
X153918000Y-85371000D01*
X147378000Y-88111000D02*
X153918000Y-88111000D01*
X147378000Y-85371000D02*
X147378000Y-88111000D01*
X160258000Y-97575000D02*
X164758000Y-97575000D01*
X159008000Y-93575000D02*
X159008000Y-95075000D01*
X164758000Y-91075000D02*
X160258000Y-91075000D01*
X166008000Y-95075000D02*
X166008000Y-93575000D01*
X119086000Y-94227000D02*
X129326000Y-94227000D01*
X119086000Y-78337000D02*
X129326000Y-78337000D01*
X119086000Y-78337000D02*
X119086000Y-94227000D01*
X129326000Y-78337000D02*
X129326000Y-94227000D01*
X121666000Y-94227000D02*
X121666000Y-96767000D01*
X124206000Y-94227000D02*
X124206000Y-96767000D01*
X126746000Y-94227000D02*
X126746000Y-96767000D01*
D10*
X165377833Y-115767880D02*
X164901642Y-115767880D01*
X164901642Y-114767880D01*
X166234976Y-115767880D02*
X165663547Y-115767880D01*
X165949261Y-115767880D02*
X165949261Y-114767880D01*
X165854023Y-114910738D01*
X165758785Y-115005976D01*
X165663547Y-115053595D01*
X150208809Y-91671190D02*
X150208809Y-92147380D01*
X149875476Y-91147380D02*
X150208809Y-91671190D01*
X150542142Y-91147380D01*
X151399285Y-92147380D02*
X150827857Y-92147380D01*
X151113571Y-92147380D02*
X151113571Y-91147380D01*
X151018333Y-91290238D01*
X150923095Y-91385476D01*
X150827857Y-91433095D01*
X168108380Y-104203404D02*
X168917904Y-104203404D01*
X169013142Y-104155785D01*
X169060761Y-104108166D01*
X169108380Y-104012928D01*
X169108380Y-103822452D01*
X169060761Y-103727214D01*
X169013142Y-103679595D01*
X168917904Y-103631976D01*
X168108380Y-103631976D01*
X168203619Y-103203404D02*
X168156000Y-103155785D01*
X168108380Y-103060547D01*
X168108380Y-102822452D01*
X168156000Y-102727214D01*
X168203619Y-102679595D01*
X168298857Y-102631976D01*
X168394095Y-102631976D01*
X168536952Y-102679595D01*
X169108380Y-103251023D01*
X169108380Y-102631976D01*
X126650761Y-117963619D02*
X126555523Y-117916000D01*
X126460285Y-117820761D01*
X126317428Y-117677904D01*
X126222190Y-117630285D01*
X126126952Y-117630285D01*
X126174571Y-117868380D02*
X126079333Y-117820761D01*
X125984095Y-117725523D01*
X125936476Y-117535047D01*
X125936476Y-117201714D01*
X125984095Y-117011238D01*
X126079333Y-116916000D01*
X126174571Y-116868380D01*
X126365047Y-116868380D01*
X126460285Y-116916000D01*
X126555523Y-117011238D01*
X126603142Y-117201714D01*
X126603142Y-117535047D01*
X126555523Y-117725523D01*
X126460285Y-117820761D01*
X126365047Y-117868380D01*
X126174571Y-117868380D01*
X126984095Y-116963619D02*
X127031714Y-116916000D01*
X127126952Y-116868380D01*
X127365047Y-116868380D01*
X127460285Y-116916000D01*
X127507904Y-116963619D01*
X127555523Y-117058857D01*
X127555523Y-117154095D01*
X127507904Y-117296952D01*
X126936476Y-117868380D01*
X127555523Y-117868380D01*
X134016761Y-117963619D02*
X133921523Y-117916000D01*
X133826285Y-117820761D01*
X133683428Y-117677904D01*
X133588190Y-117630285D01*
X133492952Y-117630285D01*
X133540571Y-117868380D02*
X133445333Y-117820761D01*
X133350095Y-117725523D01*
X133302476Y-117535047D01*
X133302476Y-117201714D01*
X133350095Y-117011238D01*
X133445333Y-116916000D01*
X133540571Y-116868380D01*
X133731047Y-116868380D01*
X133826285Y-116916000D01*
X133921523Y-117011238D01*
X133969142Y-117201714D01*
X133969142Y-117535047D01*
X133921523Y-117725523D01*
X133826285Y-117820761D01*
X133731047Y-117868380D01*
X133540571Y-117868380D01*
X134921523Y-117868380D02*
X134350095Y-117868380D01*
X134635809Y-117868380D02*
X134635809Y-116868380D01*
X134540571Y-117011238D01*
X134445333Y-117106476D01*
X134350095Y-117154095D01*
X112863380Y-97551833D02*
X113577666Y-97551833D01*
X113720523Y-97599452D01*
X113815761Y-97694690D01*
X113863380Y-97837547D01*
X113863380Y-97932785D01*
X112863380Y-97170880D02*
X112863380Y-96551833D01*
X113244333Y-96885166D01*
X113244333Y-96742309D01*
X113291952Y-96647071D01*
X113339571Y-96599452D01*
X113434809Y-96551833D01*
X113672904Y-96551833D01*
X113768142Y-96599452D01*
X113815761Y-96647071D01*
X113863380Y-96742309D01*
X113863380Y-97028023D01*
X113815761Y-97123261D01*
X113768142Y-97170880D01*
X147295892Y-116118166D02*
X147343511Y-116165785D01*
X147391130Y-116308642D01*
X147391130Y-116403880D01*
X147343511Y-116546738D01*
X147248273Y-116641976D01*
X147153035Y-116689595D01*
X146962559Y-116737214D01*
X146819702Y-116737214D01*
X146629226Y-116689595D01*
X146533988Y-116641976D01*
X146438750Y-116546738D01*
X146391130Y-116403880D01*
X146391130Y-116308642D01*
X146438750Y-116165785D01*
X146486369Y-116118166D01*
X147391130Y-115641976D02*
X147391130Y-115451500D01*
X147343511Y-115356261D01*
X147295892Y-115308642D01*
X147153035Y-115213404D01*
X146962559Y-115165785D01*
X146581607Y-115165785D01*
X146486369Y-115213404D01*
X146438750Y-115261023D01*
X146391130Y-115356261D01*
X146391130Y-115546738D01*
X146438750Y-115641976D01*
X146486369Y-115689595D01*
X146581607Y-115737214D01*
X146819702Y-115737214D01*
X146914940Y-115689595D01*
X146962559Y-115641976D01*
X147010178Y-115546738D01*
X147010178Y-115356261D01*
X146962559Y-115261023D01*
X146914940Y-115213404D01*
X146819702Y-115165785D01*
X153456142Y-115800666D02*
X153503761Y-115848285D01*
X153551380Y-115991142D01*
X153551380Y-116086380D01*
X153503761Y-116229238D01*
X153408523Y-116324476D01*
X153313285Y-116372095D01*
X153122809Y-116419714D01*
X152979952Y-116419714D01*
X152789476Y-116372095D01*
X152694238Y-116324476D01*
X152599000Y-116229238D01*
X152551380Y-116086380D01*
X152551380Y-115991142D01*
X152599000Y-115848285D01*
X152646619Y-115800666D01*
X152979952Y-115229238D02*
X152932333Y-115324476D01*
X152884714Y-115372095D01*
X152789476Y-115419714D01*
X152741857Y-115419714D01*
X152646619Y-115372095D01*
X152599000Y-115324476D01*
X152551380Y-115229238D01*
X152551380Y-115038761D01*
X152599000Y-114943523D01*
X152646619Y-114895904D01*
X152741857Y-114848285D01*
X152789476Y-114848285D01*
X152884714Y-114895904D01*
X152932333Y-114943523D01*
X152979952Y-115038761D01*
X152979952Y-115229238D01*
X153027571Y-115324476D01*
X153075190Y-115372095D01*
X153170428Y-115419714D01*
X153360904Y-115419714D01*
X153456142Y-115372095D01*
X153503761Y-115324476D01*
X153551380Y-115229238D01*
X153551380Y-115038761D01*
X153503761Y-114943523D01*
X153456142Y-114895904D01*
X153360904Y-114848285D01*
X153170428Y-114848285D01*
X153075190Y-114895904D01*
X153027571Y-114943523D01*
X152979952Y-115038761D01*
X143025833Y-97575642D02*
X142978214Y-97623261D01*
X142835357Y-97670880D01*
X142740119Y-97670880D01*
X142597261Y-97623261D01*
X142502023Y-97528023D01*
X142454404Y-97432785D01*
X142406785Y-97242309D01*
X142406785Y-97099452D01*
X142454404Y-96908976D01*
X142502023Y-96813738D01*
X142597261Y-96718500D01*
X142740119Y-96670880D01*
X142835357Y-96670880D01*
X142978214Y-96718500D01*
X143025833Y-96766119D01*
X143359166Y-96670880D02*
X144025833Y-96670880D01*
X143597261Y-97670880D01*
X150518333Y-97575642D02*
X150470714Y-97623261D01*
X150327857Y-97670880D01*
X150232619Y-97670880D01*
X150089761Y-97623261D01*
X149994523Y-97528023D01*
X149946904Y-97432785D01*
X149899285Y-97242309D01*
X149899285Y-97099452D01*
X149946904Y-96908976D01*
X149994523Y-96813738D01*
X150089761Y-96718500D01*
X150232619Y-96670880D01*
X150327857Y-96670880D01*
X150470714Y-96718500D01*
X150518333Y-96766119D01*
X151375476Y-96670880D02*
X151185000Y-96670880D01*
X151089761Y-96718500D01*
X151042142Y-96766119D01*
X150946904Y-96908976D01*
X150899285Y-97099452D01*
X150899285Y-97480404D01*
X150946904Y-97575642D01*
X150994523Y-97623261D01*
X151089761Y-97670880D01*
X151280238Y-97670880D01*
X151375476Y-97623261D01*
X151423095Y-97575642D01*
X151470714Y-97480404D01*
X151470714Y-97242309D01*
X151423095Y-97147071D01*
X151375476Y-97099452D01*
X151280238Y-97051833D01*
X151089761Y-97051833D01*
X150994523Y-97099452D01*
X150946904Y-97147071D01*
X150899285Y-97242309D01*
X141327142Y-115737166D02*
X141374761Y-115784785D01*
X141422380Y-115927642D01*
X141422380Y-116022880D01*
X141374761Y-116165738D01*
X141279523Y-116260976D01*
X141184285Y-116308595D01*
X140993809Y-116356214D01*
X140850952Y-116356214D01*
X140660476Y-116308595D01*
X140565238Y-116260976D01*
X140470000Y-116165738D01*
X140422380Y-116022880D01*
X140422380Y-115927642D01*
X140470000Y-115784785D01*
X140517619Y-115737166D01*
X140422380Y-114832404D02*
X140422380Y-115308595D01*
X140898571Y-115356214D01*
X140850952Y-115308595D01*
X140803333Y-115213357D01*
X140803333Y-114975261D01*
X140850952Y-114880023D01*
X140898571Y-114832404D01*
X140993809Y-114784785D01*
X141231904Y-114784785D01*
X141327142Y-114832404D01*
X141374761Y-114880023D01*
X141422380Y-114975261D01*
X141422380Y-115213357D01*
X141374761Y-115308595D01*
X141327142Y-115356214D01*
X133965142Y-108862666D02*
X134012761Y-108910285D01*
X134060380Y-109053142D01*
X134060380Y-109148380D01*
X134012761Y-109291238D01*
X133917523Y-109386476D01*
X133822285Y-109434095D01*
X133631809Y-109481714D01*
X133488952Y-109481714D01*
X133298476Y-109434095D01*
X133203238Y-109386476D01*
X133108000Y-109291238D01*
X133060380Y-109148380D01*
X133060380Y-109053142D01*
X133108000Y-108910285D01*
X133155619Y-108862666D01*
X133393714Y-108005523D02*
X134060380Y-108005523D01*
X133012761Y-108243619D02*
X133727047Y-108481714D01*
X133727047Y-107862666D01*
X125897142Y-109168166D02*
X125944761Y-109215785D01*
X125992380Y-109358642D01*
X125992380Y-109453880D01*
X125944761Y-109596738D01*
X125849523Y-109691976D01*
X125754285Y-109739595D01*
X125563809Y-109787214D01*
X125420952Y-109787214D01*
X125230476Y-109739595D01*
X125135238Y-109691976D01*
X125040000Y-109596738D01*
X124992380Y-109453880D01*
X124992380Y-109358642D01*
X125040000Y-109215785D01*
X125087619Y-109168166D01*
X124992380Y-108834833D02*
X124992380Y-108215785D01*
X125373333Y-108549119D01*
X125373333Y-108406261D01*
X125420952Y-108311023D01*
X125468571Y-108263404D01*
X125563809Y-108215785D01*
X125801904Y-108215785D01*
X125897142Y-108263404D01*
X125944761Y-108311023D01*
X125992380Y-108406261D01*
X125992380Y-108691976D01*
X125944761Y-108787214D01*
X125897142Y-108834833D01*
X124165833Y-102655642D02*
X124118214Y-102703261D01*
X123975357Y-102750880D01*
X123880119Y-102750880D01*
X123737261Y-102703261D01*
X123642023Y-102608023D01*
X123594404Y-102512785D01*
X123546785Y-102322309D01*
X123546785Y-102179452D01*
X123594404Y-101988976D01*
X123642023Y-101893738D01*
X123737261Y-101798500D01*
X123880119Y-101750880D01*
X123975357Y-101750880D01*
X124118214Y-101798500D01*
X124165833Y-101846119D01*
X124546785Y-101846119D02*
X124594404Y-101798500D01*
X124689642Y-101750880D01*
X124927738Y-101750880D01*
X125022976Y-101798500D01*
X125070595Y-101846119D01*
X125118214Y-101941357D01*
X125118214Y-102036595D01*
X125070595Y-102179452D01*
X124499166Y-102750880D01*
X125118214Y-102750880D01*
X118725142Y-108862666D02*
X118772761Y-108910285D01*
X118820380Y-109053142D01*
X118820380Y-109148380D01*
X118772761Y-109291238D01*
X118677523Y-109386476D01*
X118582285Y-109434095D01*
X118391809Y-109481714D01*
X118248952Y-109481714D01*
X118058476Y-109434095D01*
X117963238Y-109386476D01*
X117868000Y-109291238D01*
X117820380Y-109148380D01*
X117820380Y-109053142D01*
X117868000Y-108910285D01*
X117915619Y-108862666D01*
X118820380Y-107910285D02*
X118820380Y-108481714D01*
X118820380Y-108196000D02*
X117820380Y-108196000D01*
X117963238Y-108291238D01*
X118058476Y-108386476D01*
X118106095Y-108481714D01*
X129456904Y-120363380D02*
X129456904Y-119363380D01*
X129695000Y-119363380D01*
X129837857Y-119411000D01*
X129933095Y-119506238D01*
X129980714Y-119601476D01*
X130028333Y-119791952D01*
X130028333Y-119934809D01*
X129980714Y-120125285D01*
X129933095Y-120220523D01*
X129837857Y-120315761D01*
X129695000Y-120363380D01*
X129456904Y-120363380D01*
X130980714Y-120363380D02*
X130409285Y-120363380D01*
X130695000Y-120363380D02*
X130695000Y-119363380D01*
X130599761Y-119506238D01*
X130504523Y-119601476D01*
X130409285Y-119649095D01*
X165416904Y-120558380D02*
X165416904Y-119558380D01*
X165655000Y-119558380D01*
X165797857Y-119606000D01*
X165893095Y-119701238D01*
X165940714Y-119796476D01*
X165988333Y-119986952D01*
X165988333Y-120129809D01*
X165940714Y-120320285D01*
X165893095Y-120415523D01*
X165797857Y-120510761D01*
X165655000Y-120558380D01*
X165416904Y-120558380D01*
X166369285Y-119653619D02*
X166416904Y-119606000D01*
X166512142Y-119558380D01*
X166750238Y-119558380D01*
X166845476Y-119606000D01*
X166893095Y-119653619D01*
X166940714Y-119748857D01*
X166940714Y-119844095D01*
X166893095Y-119986952D01*
X166321666Y-120558380D01*
X166940714Y-120558380D01*
X165416904Y-111135380D02*
X165416904Y-110135380D01*
X165655000Y-110135380D01*
X165797857Y-110183000D01*
X165893095Y-110278238D01*
X165940714Y-110373476D01*
X165988333Y-110563952D01*
X165988333Y-110706809D01*
X165940714Y-110897285D01*
X165893095Y-110992523D01*
X165797857Y-111087761D01*
X165655000Y-111135380D01*
X165416904Y-111135380D01*
X166321666Y-110135380D02*
X166940714Y-110135380D01*
X166607380Y-110516333D01*
X166750238Y-110516333D01*
X166845476Y-110563952D01*
X166893095Y-110611571D01*
X166940714Y-110706809D01*
X166940714Y-110944904D01*
X166893095Y-111040142D01*
X166845476Y-111087761D01*
X166750238Y-111135380D01*
X166464523Y-111135380D01*
X166369285Y-111087761D01*
X166321666Y-111040142D01*
X136112809Y-94638880D02*
X136684237Y-94638880D01*
X136398523Y-95638880D02*
X136398523Y-94638880D01*
X136922333Y-94638880D02*
X137588999Y-95638880D01*
X137588999Y-94638880D02*
X136922333Y-95638880D01*
X132040333Y-95638880D02*
X131707000Y-95162690D01*
X131468904Y-95638880D02*
X131468904Y-94638880D01*
X131849857Y-94638880D01*
X131945095Y-94686500D01*
X131992714Y-94734119D01*
X132040333Y-94829357D01*
X132040333Y-94972214D01*
X131992714Y-95067452D01*
X131945095Y-95115071D01*
X131849857Y-95162690D01*
X131468904Y-95162690D01*
X132373666Y-94638880D02*
X133040333Y-95638880D01*
X133040333Y-94638880D02*
X132373666Y-95638880D01*
X133810452Y-123531380D02*
X134000928Y-123531380D01*
X134096166Y-123579000D01*
X134191404Y-123674238D01*
X134239023Y-123864714D01*
X134239023Y-124198047D01*
X134191404Y-124388523D01*
X134096166Y-124483761D01*
X134000928Y-124531380D01*
X133810452Y-124531380D01*
X133715214Y-124483761D01*
X133619976Y-124388523D01*
X133572357Y-124198047D01*
X133572357Y-123864714D01*
X133619976Y-123674238D01*
X133715214Y-123579000D01*
X133810452Y-123531380D01*
X134667595Y-124531380D02*
X134667595Y-123531380D01*
X135239023Y-124531380D01*
X135239023Y-123531380D01*
X141279523Y-95638880D02*
X140803333Y-95638880D01*
X140803333Y-94638880D01*
X174569380Y-111402380D02*
X174569380Y-111973809D01*
X174569380Y-111688095D02*
X173569380Y-111688095D01*
X173712238Y-111783333D01*
X173807476Y-111878571D01*
X173855095Y-111973809D01*
X174521761Y-110259523D02*
X174569380Y-110116666D01*
X174569380Y-109878571D01*
X174521761Y-109783333D01*
X174474142Y-109735714D01*
X174378904Y-109688095D01*
X174283666Y-109688095D01*
X174188428Y-109735714D01*
X174140809Y-109783333D01*
X174093190Y-109878571D01*
X174045571Y-110069047D01*
X173997952Y-110164285D01*
X173950333Y-110211904D01*
X173855095Y-110259523D01*
X173759857Y-110259523D01*
X173664619Y-110211904D01*
X173617000Y-110164285D01*
X173569380Y-110069047D01*
X173569380Y-109830952D01*
X173617000Y-109688095D01*
X174045571Y-109259523D02*
X174045571Y-108926190D01*
X174569380Y-108783333D02*
X174569380Y-109259523D01*
X173569380Y-109259523D01*
X173569380Y-108783333D01*
X174569380Y-107783333D02*
X174093190Y-108116666D01*
X174569380Y-108354761D02*
X173569380Y-108354761D01*
X173569380Y-107973809D01*
X173617000Y-107878571D01*
X173664619Y-107830952D01*
X173759857Y-107783333D01*
X173902714Y-107783333D01*
X173997952Y-107830952D01*
X174045571Y-107878571D01*
X174093190Y-107973809D01*
X174093190Y-108354761D01*
X174569380Y-107354761D02*
X173569380Y-107354761D01*
X174283666Y-106926190D02*
X174283666Y-106450000D01*
X174569380Y-107021428D02*
X173569380Y-106688095D01*
X174569380Y-106354761D01*
X174569380Y-105545238D02*
X174569380Y-106021428D01*
X173569380Y-106021428D01*
X173569380Y-104259523D02*
X173569380Y-104164285D01*
X173617000Y-104069047D01*
X173664619Y-104021428D01*
X173759857Y-103973809D01*
X173950333Y-103926190D01*
X174188428Y-103926190D01*
X174378904Y-103973809D01*
X174474142Y-104021428D01*
X174521761Y-104069047D01*
X174569380Y-104164285D01*
X174569380Y-104259523D01*
X174521761Y-104354761D01*
X174474142Y-104402380D01*
X174378904Y-104450000D01*
X174188428Y-104497619D01*
X173950333Y-104497619D01*
X173759857Y-104450000D01*
X173664619Y-104402380D01*
X173617000Y-104354761D01*
X173569380Y-104259523D01*
X112405666Y-121397380D02*
X112405666Y-122111666D01*
X112358047Y-122254523D01*
X112262809Y-122349761D01*
X112119952Y-122397380D01*
X112024714Y-122397380D01*
X112834238Y-121492619D02*
X112881857Y-121445000D01*
X112977095Y-121397380D01*
X113215190Y-121397380D01*
X113310428Y-121445000D01*
X113358047Y-121492619D01*
X113405666Y-121587857D01*
X113405666Y-121683095D01*
X113358047Y-121825952D01*
X112786619Y-122397380D01*
X113405666Y-122397380D01*
X171934666Y-99432523D02*
X171934666Y-98956333D01*
X172220380Y-99527761D02*
X171220380Y-99194428D01*
X172220380Y-98861095D01*
X171220380Y-98527761D02*
X172029904Y-98527761D01*
X172125142Y-98480142D01*
X172172761Y-98432523D01*
X172220380Y-98337285D01*
X172220380Y-98146809D01*
X172172761Y-98051571D01*
X172125142Y-98003952D01*
X172029904Y-97956333D01*
X171220380Y-97956333D01*
X171220380Y-97623000D02*
X171220380Y-97051571D01*
X172220380Y-97337285D02*
X171220380Y-97337285D01*
X171220380Y-96527761D02*
X171220380Y-96337285D01*
X171268000Y-96242047D01*
X171363238Y-96146809D01*
X171553714Y-96099190D01*
X171887047Y-96099190D01*
X172077523Y-96146809D01*
X172172761Y-96242047D01*
X172220380Y-96337285D01*
X172220380Y-96527761D01*
X172172761Y-96623000D01*
X172077523Y-96718238D01*
X171887047Y-96765857D01*
X171553714Y-96765857D01*
X171363238Y-96718238D01*
X171268000Y-96623000D01*
X171220380Y-96527761D01*
X172220380Y-94337285D02*
X171744190Y-94670619D01*
X172220380Y-94908714D02*
X171220380Y-94908714D01*
X171220380Y-94527761D01*
X171268000Y-94432523D01*
X171315619Y-94384904D01*
X171410857Y-94337285D01*
X171553714Y-94337285D01*
X171648952Y-94384904D01*
X171696571Y-94432523D01*
X171744190Y-94527761D01*
X171744190Y-94908714D01*
X171696571Y-93908714D02*
X171696571Y-93575380D01*
X172220380Y-93432523D02*
X172220380Y-93908714D01*
X171220380Y-93908714D01*
X171220380Y-93432523D01*
X172172761Y-93051571D02*
X172220380Y-92908714D01*
X172220380Y-92670619D01*
X172172761Y-92575380D01*
X172125142Y-92527761D01*
X172029904Y-92480142D01*
X171934666Y-92480142D01*
X171839428Y-92527761D01*
X171791809Y-92575380D01*
X171744190Y-92670619D01*
X171696571Y-92861095D01*
X171648952Y-92956333D01*
X171601333Y-93003952D01*
X171506095Y-93051571D01*
X171410857Y-93051571D01*
X171315619Y-93003952D01*
X171268000Y-92956333D01*
X171220380Y-92861095D01*
X171220380Y-92623000D01*
X171268000Y-92480142D01*
X171696571Y-92051571D02*
X171696571Y-91718238D01*
X172220380Y-91575380D02*
X172220380Y-92051571D01*
X171220380Y-92051571D01*
X171220380Y-91575380D01*
X171220380Y-91289666D02*
X171220380Y-90718238D01*
X172220380Y-91003952D02*
X171220380Y-91003952D01*
X172894809Y-93924380D02*
X172894809Y-92924380D01*
X173942428Y-93829142D02*
X173894809Y-93876761D01*
X173751952Y-93924380D01*
X173656714Y-93924380D01*
X173513857Y-93876761D01*
X173418619Y-93781523D01*
X173371000Y-93686285D01*
X173323380Y-93495809D01*
X173323380Y-93352952D01*
X173371000Y-93162476D01*
X173418619Y-93067238D01*
X173513857Y-92972000D01*
X173656714Y-92924380D01*
X173751952Y-92924380D01*
X173894809Y-92972000D01*
X173942428Y-93019619D01*
X174323380Y-93876761D02*
X174466238Y-93924380D01*
X174704333Y-93924380D01*
X174799571Y-93876761D01*
X174847190Y-93829142D01*
X174894809Y-93733904D01*
X174894809Y-93638666D01*
X174847190Y-93543428D01*
X174799571Y-93495809D01*
X174704333Y-93448190D01*
X174513857Y-93400571D01*
X174418619Y-93352952D01*
X174371000Y-93305333D01*
X174323380Y-93210095D01*
X174323380Y-93114857D01*
X174371000Y-93019619D01*
X174418619Y-92972000D01*
X174513857Y-92924380D01*
X174751952Y-92924380D01*
X174894809Y-92972000D01*
X175323380Y-93924380D02*
X175323380Y-92924380D01*
X175704333Y-92924380D01*
X175799571Y-92972000D01*
X175847190Y-93019619D01*
X175894809Y-93114857D01*
X175894809Y-93257714D01*
X175847190Y-93352952D01*
X175799571Y-93400571D01*
X175704333Y-93448190D01*
X175323380Y-93448190D01*
X159650380Y-84674666D02*
X159174190Y-85008000D01*
X159650380Y-85246095D02*
X158650380Y-85246095D01*
X158650380Y-84865142D01*
X158698000Y-84769904D01*
X158745619Y-84722285D01*
X158840857Y-84674666D01*
X158983714Y-84674666D01*
X159078952Y-84722285D01*
X159126571Y-84769904D01*
X159174190Y-84865142D01*
X159174190Y-85246095D01*
X159650380Y-83722285D02*
X159650380Y-84293714D01*
X159650380Y-84008000D02*
X158650380Y-84008000D01*
X158793238Y-84103238D01*
X158888476Y-84198476D01*
X158936095Y-84293714D01*
X150501333Y-80044880D02*
X150168000Y-79568690D01*
X149929904Y-80044880D02*
X149929904Y-79044880D01*
X150310857Y-79044880D01*
X150406095Y-79092500D01*
X150453714Y-79140119D01*
X150501333Y-79235357D01*
X150501333Y-79378214D01*
X150453714Y-79473452D01*
X150406095Y-79521071D01*
X150310857Y-79568690D01*
X149929904Y-79568690D01*
X150882285Y-79140119D02*
X150929904Y-79092500D01*
X151025142Y-79044880D01*
X151263238Y-79044880D01*
X151358476Y-79092500D01*
X151406095Y-79140119D01*
X151453714Y-79235357D01*
X151453714Y-79330595D01*
X151406095Y-79473452D01*
X150834666Y-80044880D01*
X151453714Y-80044880D01*
X163004380Y-84774666D02*
X162528190Y-85108000D01*
X163004380Y-85346095D02*
X162004380Y-85346095D01*
X162004380Y-84965142D01*
X162052000Y-84869904D01*
X162099619Y-84822285D01*
X162194857Y-84774666D01*
X162337714Y-84774666D01*
X162432952Y-84822285D01*
X162480571Y-84869904D01*
X162528190Y-84965142D01*
X162528190Y-85346095D01*
X162004380Y-84441333D02*
X162004380Y-83822285D01*
X162385333Y-84155619D01*
X162385333Y-84012761D01*
X162432952Y-83917523D01*
X162480571Y-83869904D01*
X162575809Y-83822285D01*
X162813904Y-83822285D01*
X162909142Y-83869904D01*
X162956761Y-83917523D01*
X163004380Y-84012761D01*
X163004380Y-84298476D01*
X162956761Y-84393714D01*
X162909142Y-84441333D01*
X166259380Y-84764666D02*
X165783190Y-85098000D01*
X166259380Y-85336095D02*
X165259380Y-85336095D01*
X165259380Y-84955142D01*
X165307000Y-84859904D01*
X165354619Y-84812285D01*
X165449857Y-84764666D01*
X165592714Y-84764666D01*
X165687952Y-84812285D01*
X165735571Y-84859904D01*
X165783190Y-84955142D01*
X165783190Y-85336095D01*
X165592714Y-83907523D02*
X166259380Y-83907523D01*
X165211761Y-84145619D02*
X165926047Y-84383714D01*
X165926047Y-83764666D01*
X136605333Y-83869180D02*
X136272000Y-83392990D01*
X136033904Y-83869180D02*
X136033904Y-82869180D01*
X136414857Y-82869180D01*
X136510095Y-82916800D01*
X136557714Y-82964419D01*
X136605333Y-83059657D01*
X136605333Y-83202514D01*
X136557714Y-83297752D01*
X136510095Y-83345371D01*
X136414857Y-83392990D01*
X136033904Y-83392990D01*
X137510095Y-82869180D02*
X137033904Y-82869180D01*
X136986285Y-83345371D01*
X137033904Y-83297752D01*
X137129142Y-83250133D01*
X137367238Y-83250133D01*
X137462476Y-83297752D01*
X137510095Y-83345371D01*
X137557714Y-83440609D01*
X137557714Y-83678704D01*
X137510095Y-83773942D01*
X137462476Y-83821561D01*
X137367238Y-83869180D01*
X137129142Y-83869180D01*
X137033904Y-83821561D01*
X136986285Y-83773942D01*
X169414380Y-84764666D02*
X168938190Y-85098000D01*
X169414380Y-85336095D02*
X168414380Y-85336095D01*
X168414380Y-84955142D01*
X168462000Y-84859904D01*
X168509619Y-84812285D01*
X168604857Y-84764666D01*
X168747714Y-84764666D01*
X168842952Y-84812285D01*
X168890571Y-84859904D01*
X168938190Y-84955142D01*
X168938190Y-85336095D01*
X168414380Y-83907523D02*
X168414380Y-84098000D01*
X168462000Y-84193238D01*
X168509619Y-84240857D01*
X168652476Y-84336095D01*
X168842952Y-84383714D01*
X169223904Y-84383714D01*
X169319142Y-84336095D01*
X169366761Y-84288476D01*
X169414380Y-84193238D01*
X169414380Y-84002761D01*
X169366761Y-83907523D01*
X169319142Y-83859904D01*
X169223904Y-83812285D01*
X168985809Y-83812285D01*
X168890571Y-83859904D01*
X168842952Y-83907523D01*
X168795333Y-84002761D01*
X168795333Y-84193238D01*
X168842952Y-84288476D01*
X168890571Y-84336095D01*
X168985809Y-84383714D01*
X136605333Y-86993380D02*
X136272000Y-86517190D01*
X136033904Y-86993380D02*
X136033904Y-85993380D01*
X136414857Y-85993380D01*
X136510095Y-86041000D01*
X136557714Y-86088619D01*
X136605333Y-86183857D01*
X136605333Y-86326714D01*
X136557714Y-86421952D01*
X136510095Y-86469571D01*
X136414857Y-86517190D01*
X136033904Y-86517190D01*
X136938666Y-85993380D02*
X137605333Y-85993380D01*
X137176761Y-86993380D01*
X136405333Y-80044880D02*
X136072000Y-79568690D01*
X135833904Y-80044880D02*
X135833904Y-79044880D01*
X136214857Y-79044880D01*
X136310095Y-79092500D01*
X136357714Y-79140119D01*
X136405333Y-79235357D01*
X136405333Y-79378214D01*
X136357714Y-79473452D01*
X136310095Y-79521071D01*
X136214857Y-79568690D01*
X135833904Y-79568690D01*
X136976761Y-79473452D02*
X136881523Y-79425833D01*
X136833904Y-79378214D01*
X136786285Y-79282976D01*
X136786285Y-79235357D01*
X136833904Y-79140119D01*
X136881523Y-79092500D01*
X136976761Y-79044880D01*
X137167238Y-79044880D01*
X137262476Y-79092500D01*
X137310095Y-79140119D01*
X137357714Y-79235357D01*
X137357714Y-79282976D01*
X137310095Y-79378214D01*
X137262476Y-79425833D01*
X137167238Y-79473452D01*
X136976761Y-79473452D01*
X136881523Y-79521071D01*
X136833904Y-79568690D01*
X136786285Y-79663928D01*
X136786285Y-79854404D01*
X136833904Y-79949642D01*
X136881523Y-79997261D01*
X136976761Y-80044880D01*
X137167238Y-80044880D01*
X137262476Y-79997261D01*
X137310095Y-79949642D01*
X137357714Y-79854404D01*
X137357714Y-79663928D01*
X137310095Y-79568690D01*
X137262476Y-79521071D01*
X137167238Y-79473452D01*
X150511333Y-83719180D02*
X150178000Y-83242990D01*
X149939904Y-83719180D02*
X149939904Y-82719180D01*
X150320857Y-82719180D01*
X150416095Y-82766800D01*
X150463714Y-82814419D01*
X150511333Y-82909657D01*
X150511333Y-83052514D01*
X150463714Y-83147752D01*
X150416095Y-83195371D01*
X150320857Y-83242990D01*
X149939904Y-83242990D01*
X150987523Y-83719180D02*
X151178000Y-83719180D01*
X151273238Y-83671561D01*
X151320857Y-83623942D01*
X151416095Y-83481085D01*
X151463714Y-83290609D01*
X151463714Y-82909657D01*
X151416095Y-82814419D01*
X151368476Y-82766800D01*
X151273238Y-82719180D01*
X151082761Y-82719180D01*
X150987523Y-82766800D01*
X150939904Y-82814419D01*
X150892285Y-82909657D01*
X150892285Y-83147752D01*
X150939904Y-83242990D01*
X150987523Y-83290609D01*
X151082761Y-83338228D01*
X151273238Y-83338228D01*
X151368476Y-83290609D01*
X151416095Y-83242990D01*
X151463714Y-83147752D01*
X173018380Y-84990857D02*
X172542190Y-85324190D01*
X173018380Y-85562285D02*
X172018380Y-85562285D01*
X172018380Y-85181333D01*
X172066000Y-85086095D01*
X172113619Y-85038476D01*
X172208857Y-84990857D01*
X172351714Y-84990857D01*
X172446952Y-85038476D01*
X172494571Y-85086095D01*
X172542190Y-85181333D01*
X172542190Y-85562285D01*
X173018380Y-84038476D02*
X173018380Y-84609904D01*
X173018380Y-84324190D02*
X172018380Y-84324190D01*
X172161238Y-84419428D01*
X172256476Y-84514666D01*
X172304095Y-84609904D01*
X172018380Y-83419428D02*
X172018380Y-83324190D01*
X172066000Y-83228952D01*
X172113619Y-83181333D01*
X172208857Y-83133714D01*
X172399333Y-83086095D01*
X172637428Y-83086095D01*
X172827904Y-83133714D01*
X172923142Y-83181333D01*
X172970761Y-83228952D01*
X173018380Y-83324190D01*
X173018380Y-83419428D01*
X172970761Y-83514666D01*
X172923142Y-83562285D01*
X172827904Y-83609904D01*
X172637428Y-83657523D01*
X172399333Y-83657523D01*
X172208857Y-83609904D01*
X172113619Y-83562285D01*
X172066000Y-83514666D01*
X172018380Y-83419428D01*
X149675142Y-87093380D02*
X149341809Y-86617190D01*
X149103714Y-87093380D02*
X149103714Y-86093380D01*
X149484666Y-86093380D01*
X149579904Y-86141000D01*
X149627523Y-86188619D01*
X149675142Y-86283857D01*
X149675142Y-86426714D01*
X149627523Y-86521952D01*
X149579904Y-86569571D01*
X149484666Y-86617190D01*
X149103714Y-86617190D01*
X150627523Y-87093380D02*
X150056095Y-87093380D01*
X150341809Y-87093380D02*
X150341809Y-86093380D01*
X150246571Y-86236238D01*
X150151333Y-86331476D01*
X150056095Y-86379095D01*
X151579904Y-87093380D02*
X151008476Y-87093380D01*
X151294190Y-87093380D02*
X151294190Y-86093380D01*
X151198952Y-86236238D01*
X151103714Y-86331476D01*
X151008476Y-86379095D01*
X161124666Y-94679761D02*
X161267523Y-94727380D01*
X161505619Y-94727380D01*
X161600857Y-94679761D01*
X161648476Y-94632142D01*
X161696095Y-94536904D01*
X161696095Y-94441666D01*
X161648476Y-94346428D01*
X161600857Y-94298809D01*
X161505619Y-94251190D01*
X161315142Y-94203571D01*
X161219904Y-94155952D01*
X161172285Y-94108333D01*
X161124666Y-94013095D01*
X161124666Y-93917857D01*
X161172285Y-93822619D01*
X161219904Y-93775000D01*
X161315142Y-93727380D01*
X161553238Y-93727380D01*
X161696095Y-93775000D01*
X162029428Y-93727380D02*
X162267523Y-94727380D01*
X162458000Y-94013095D01*
X162648476Y-94727380D01*
X162886571Y-93727380D01*
X163791333Y-94727380D02*
X163219904Y-94727380D01*
X163505619Y-94727380D02*
X163505619Y-93727380D01*
X163410380Y-93870238D01*
X163315142Y-93965476D01*
X163219904Y-94013095D01*
X119951595Y-80922880D02*
X119951595Y-81732404D01*
X119999214Y-81827642D01*
X120046833Y-81875261D01*
X120142071Y-81922880D01*
X120332547Y-81922880D01*
X120427785Y-81875261D01*
X120475404Y-81827642D01*
X120523023Y-81732404D01*
X120523023Y-80922880D01*
X121523023Y-81922880D02*
X120951595Y-81922880D01*
X121237309Y-81922880D02*
X121237309Y-80922880D01*
X121142071Y-81065738D01*
X121046833Y-81160976D01*
X120951595Y-81208595D01*
M02*
