G04 #@! TF.GenerationSoftware,KiCad,Pcbnew,(5.1.4)-1*
G04 #@! TF.CreationDate,2019-10-04T17:51:03+08:00*
G04 #@! TF.ProjectId,arduino-sss,61726475-696e-46f2-9d73-73732e6b6963,rev?*
G04 #@! TF.SameCoordinates,Original*
G04 #@! TF.FileFunction,Legend,Bot*
G04 #@! TF.FilePolarity,Positive*
%FSLAX46Y46*%
G04 Gerber Fmt 4.6, Leading zero omitted, Abs format (unit mm)*
G04 Created by KiCad (PCBNEW (5.1.4)-1) date 2019-10-04 17:51:03*
%MOMM*%
%LPD*%
G04 APERTURE LIST*
%ADD10C,0.150000*%
%ADD11C,0.010000*%
%ADD12C,0.125000*%
G04 APERTURE END LIST*
D10*
X166351976Y-101958142D02*
X166399595Y-102005761D01*
X166542452Y-102053380D01*
X166637690Y-102053380D01*
X166780547Y-102005761D01*
X166875785Y-101910523D01*
X166923404Y-101815285D01*
X166971023Y-101624809D01*
X166971023Y-101481952D01*
X166923404Y-101291476D01*
X166875785Y-101196238D01*
X166780547Y-101101000D01*
X166637690Y-101053380D01*
X166542452Y-101053380D01*
X166399595Y-101101000D01*
X166351976Y-101148619D01*
X165923404Y-102053380D02*
X165923404Y-101386714D01*
X165923404Y-101577190D02*
X165875785Y-101481952D01*
X165828166Y-101434333D01*
X165732928Y-101386714D01*
X165637690Y-101386714D01*
X164923404Y-102005761D02*
X165018642Y-102053380D01*
X165209119Y-102053380D01*
X165304357Y-102005761D01*
X165351976Y-101910523D01*
X165351976Y-101529571D01*
X165304357Y-101434333D01*
X165209119Y-101386714D01*
X165018642Y-101386714D01*
X164923404Y-101434333D01*
X164875785Y-101529571D01*
X164875785Y-101624809D01*
X165351976Y-101720047D01*
X164018642Y-102053380D02*
X164018642Y-101529571D01*
X164066261Y-101434333D01*
X164161500Y-101386714D01*
X164351976Y-101386714D01*
X164447214Y-101434333D01*
X164018642Y-102005761D02*
X164113880Y-102053380D01*
X164351976Y-102053380D01*
X164447214Y-102005761D01*
X164494833Y-101910523D01*
X164494833Y-101815285D01*
X164447214Y-101720047D01*
X164351976Y-101672428D01*
X164113880Y-101672428D01*
X164018642Y-101624809D01*
X163685309Y-101386714D02*
X163304357Y-101386714D01*
X163542452Y-101053380D02*
X163542452Y-101910523D01*
X163494833Y-102005761D01*
X163399595Y-102053380D01*
X163304357Y-102053380D01*
X162590071Y-102005761D02*
X162685309Y-102053380D01*
X162875785Y-102053380D01*
X162971023Y-102005761D01*
X163018642Y-101910523D01*
X163018642Y-101529571D01*
X162971023Y-101434333D01*
X162875785Y-101386714D01*
X162685309Y-101386714D01*
X162590071Y-101434333D01*
X162542452Y-101529571D01*
X162542452Y-101624809D01*
X163018642Y-101720047D01*
X161685309Y-102053380D02*
X161685309Y-101053380D01*
X161685309Y-102005761D02*
X161780547Y-102053380D01*
X161971023Y-102053380D01*
X162066261Y-102005761D01*
X162113880Y-101958142D01*
X162161500Y-101862904D01*
X162161500Y-101577190D01*
X162113880Y-101481952D01*
X162066261Y-101434333D01*
X161971023Y-101386714D01*
X161780547Y-101386714D01*
X161685309Y-101434333D01*
X160447214Y-102053380D02*
X160447214Y-101053380D01*
X160447214Y-101434333D02*
X160351976Y-101386714D01*
X160161500Y-101386714D01*
X160066261Y-101434333D01*
X160018642Y-101481952D01*
X159971023Y-101577190D01*
X159971023Y-101862904D01*
X160018642Y-101958142D01*
X160066261Y-102005761D01*
X160161500Y-102053380D01*
X160351976Y-102053380D01*
X160447214Y-102005761D01*
X159637690Y-101386714D02*
X159399595Y-102053380D01*
X159161500Y-101386714D02*
X159399595Y-102053380D01*
X159494833Y-102291476D01*
X159542452Y-102339095D01*
X159637690Y-102386714D01*
X157828166Y-101577190D02*
X157828166Y-102053380D01*
X158161500Y-101053380D02*
X157828166Y-101577190D01*
X157494833Y-101053380D01*
X156732928Y-102053380D02*
X156732928Y-101529571D01*
X156780547Y-101434333D01*
X156875785Y-101386714D01*
X157066261Y-101386714D01*
X157161500Y-101434333D01*
X156732928Y-102005761D02*
X156828166Y-102053380D01*
X157066261Y-102053380D01*
X157161500Y-102005761D01*
X157209119Y-101910523D01*
X157209119Y-101815285D01*
X157161500Y-101720047D01*
X157066261Y-101672428D01*
X156828166Y-101672428D01*
X156732928Y-101624809D01*
X156256738Y-101386714D02*
X156256738Y-102053380D01*
X156256738Y-101481952D02*
X156209119Y-101434333D01*
X156113880Y-101386714D01*
X155971023Y-101386714D01*
X155875785Y-101434333D01*
X155828166Y-101529571D01*
X155828166Y-102053380D01*
X154923404Y-101386714D02*
X154923404Y-102196238D01*
X154971023Y-102291476D01*
X155018642Y-102339095D01*
X155113880Y-102386714D01*
X155256738Y-102386714D01*
X155351976Y-102339095D01*
X154923404Y-102005761D02*
X155018642Y-102053380D01*
X155209119Y-102053380D01*
X155304357Y-102005761D01*
X155351976Y-101958142D01*
X155399595Y-101862904D01*
X155399595Y-101577190D01*
X155351976Y-101481952D01*
X155304357Y-101434333D01*
X155209119Y-101386714D01*
X155018642Y-101386714D01*
X154923404Y-101434333D01*
X153209119Y-102053380D02*
X153685309Y-102053380D01*
X153685309Y-101053380D01*
X152494833Y-102005761D02*
X152590071Y-102053380D01*
X152780547Y-102053380D01*
X152875785Y-102005761D01*
X152923404Y-101910523D01*
X152923404Y-101529571D01*
X152875785Y-101434333D01*
X152780547Y-101386714D01*
X152590071Y-101386714D01*
X152494833Y-101434333D01*
X152447214Y-101529571D01*
X152447214Y-101624809D01*
X152923404Y-101720047D01*
X166590071Y-103179571D02*
X166447214Y-103227190D01*
X166399595Y-103274809D01*
X166351976Y-103370047D01*
X166351976Y-103512904D01*
X166399595Y-103608142D01*
X166447214Y-103655761D01*
X166542452Y-103703380D01*
X166923404Y-103703380D01*
X166923404Y-102703380D01*
X166590071Y-102703380D01*
X166494833Y-102751000D01*
X166447214Y-102798619D01*
X166399595Y-102893857D01*
X166399595Y-102989095D01*
X166447214Y-103084333D01*
X166494833Y-103131952D01*
X166590071Y-103179571D01*
X166923404Y-103179571D01*
X165494833Y-103703380D02*
X165494833Y-103179571D01*
X165542452Y-103084333D01*
X165637690Y-103036714D01*
X165828166Y-103036714D01*
X165923404Y-103084333D01*
X165494833Y-103655761D02*
X165590071Y-103703380D01*
X165828166Y-103703380D01*
X165923404Y-103655761D01*
X165971023Y-103560523D01*
X165971023Y-103465285D01*
X165923404Y-103370047D01*
X165828166Y-103322428D01*
X165590071Y-103322428D01*
X165494833Y-103274809D01*
X165066261Y-103655761D02*
X164971023Y-103703380D01*
X164780547Y-103703380D01*
X164685309Y-103655761D01*
X164637690Y-103560523D01*
X164637690Y-103512904D01*
X164685309Y-103417666D01*
X164780547Y-103370047D01*
X164923404Y-103370047D01*
X165018642Y-103322428D01*
X165066261Y-103227190D01*
X165066261Y-103179571D01*
X165018642Y-103084333D01*
X164923404Y-103036714D01*
X164780547Y-103036714D01*
X164685309Y-103084333D01*
X163828166Y-103655761D02*
X163923404Y-103703380D01*
X164113880Y-103703380D01*
X164209119Y-103655761D01*
X164256738Y-103560523D01*
X164256738Y-103179571D01*
X164209119Y-103084333D01*
X164113880Y-103036714D01*
X163923404Y-103036714D01*
X163828166Y-103084333D01*
X163780547Y-103179571D01*
X163780547Y-103274809D01*
X164256738Y-103370047D01*
X162923404Y-103703380D02*
X162923404Y-102703380D01*
X162923404Y-103655761D02*
X163018642Y-103703380D01*
X163209119Y-103703380D01*
X163304357Y-103655761D01*
X163351976Y-103608142D01*
X163399595Y-103512904D01*
X163399595Y-103227190D01*
X163351976Y-103131952D01*
X163304357Y-103084333D01*
X163209119Y-103036714D01*
X163018642Y-103036714D01*
X162923404Y-103084333D01*
X161542452Y-103703380D02*
X161637690Y-103655761D01*
X161685309Y-103608142D01*
X161732928Y-103512904D01*
X161732928Y-103227190D01*
X161685309Y-103131952D01*
X161637690Y-103084333D01*
X161542452Y-103036714D01*
X161399595Y-103036714D01*
X161304357Y-103084333D01*
X161256738Y-103131952D01*
X161209119Y-103227190D01*
X161209119Y-103512904D01*
X161256738Y-103608142D01*
X161304357Y-103655761D01*
X161399595Y-103703380D01*
X161542452Y-103703380D01*
X160780547Y-103036714D02*
X160780547Y-103703380D01*
X160780547Y-103131952D02*
X160732928Y-103084333D01*
X160637690Y-103036714D01*
X160494833Y-103036714D01*
X160399595Y-103084333D01*
X160351976Y-103179571D01*
X160351976Y-103703380D01*
X159161500Y-103417666D02*
X158685309Y-103417666D01*
X159256738Y-103703380D02*
X158923404Y-102703380D01*
X158590071Y-103703380D01*
X158256738Y-103703380D02*
X158256738Y-103036714D01*
X158256738Y-103227190D02*
X158209119Y-103131952D01*
X158161500Y-103084333D01*
X158066261Y-103036714D01*
X157971023Y-103036714D01*
X157209119Y-103703380D02*
X157209119Y-102703380D01*
X157209119Y-103655761D02*
X157304357Y-103703380D01*
X157494833Y-103703380D01*
X157590071Y-103655761D01*
X157637690Y-103608142D01*
X157685309Y-103512904D01*
X157685309Y-103227190D01*
X157637690Y-103131952D01*
X157590071Y-103084333D01*
X157494833Y-103036714D01*
X157304357Y-103036714D01*
X157209119Y-103084333D01*
X156304357Y-103036714D02*
X156304357Y-103703380D01*
X156732928Y-103036714D02*
X156732928Y-103560523D01*
X156685309Y-103655761D01*
X156590071Y-103703380D01*
X156447214Y-103703380D01*
X156351976Y-103655761D01*
X156304357Y-103608142D01*
X155828166Y-103703380D02*
X155828166Y-103036714D01*
X155828166Y-102703380D02*
X155875785Y-102751000D01*
X155828166Y-102798619D01*
X155780547Y-102751000D01*
X155828166Y-102703380D01*
X155828166Y-102798619D01*
X155351976Y-103036714D02*
X155351976Y-103703380D01*
X155351976Y-103131952D02*
X155304357Y-103084333D01*
X155209119Y-103036714D01*
X155066261Y-103036714D01*
X154971023Y-103084333D01*
X154923404Y-103179571D01*
X154923404Y-103703380D01*
X154304357Y-103703380D02*
X154399595Y-103655761D01*
X154447214Y-103608142D01*
X154494833Y-103512904D01*
X154494833Y-103227190D01*
X154447214Y-103131952D01*
X154399595Y-103084333D01*
X154304357Y-103036714D01*
X154161500Y-103036714D01*
X154066261Y-103084333D01*
X154018642Y-103131952D01*
X153971023Y-103227190D01*
X153971023Y-103512904D01*
X154018642Y-103608142D01*
X154066261Y-103655761D01*
X154161500Y-103703380D01*
X154304357Y-103703380D01*
X152828166Y-103655761D02*
X152685309Y-103703380D01*
X152447214Y-103703380D01*
X152351976Y-103655761D01*
X152304357Y-103608142D01*
X152256738Y-103512904D01*
X152256738Y-103417666D01*
X152304357Y-103322428D01*
X152351976Y-103274809D01*
X152447214Y-103227190D01*
X152637690Y-103179571D01*
X152732928Y-103131952D01*
X152780547Y-103084333D01*
X152828166Y-102989095D01*
X152828166Y-102893857D01*
X152780547Y-102798619D01*
X152732928Y-102751000D01*
X152637690Y-102703380D01*
X152399595Y-102703380D01*
X152256738Y-102751000D01*
X151923404Y-102703380D02*
X151304357Y-102703380D01*
X151637690Y-103084333D01*
X151494833Y-103084333D01*
X151399595Y-103131952D01*
X151351976Y-103179571D01*
X151304357Y-103274809D01*
X151304357Y-103512904D01*
X151351976Y-103608142D01*
X151399595Y-103655761D01*
X151494833Y-103703380D01*
X151780547Y-103703380D01*
X151875785Y-103655761D01*
X151923404Y-103608142D01*
X150971023Y-103036714D02*
X150732928Y-103703380D01*
X150494833Y-103036714D01*
X150209119Y-102703380D02*
X149590071Y-102703380D01*
X149923404Y-103084333D01*
X149780547Y-103084333D01*
X149685309Y-103131952D01*
X149637690Y-103179571D01*
X149590071Y-103274809D01*
X149590071Y-103512904D01*
X149637690Y-103608142D01*
X149685309Y-103655761D01*
X149780547Y-103703380D01*
X150066261Y-103703380D01*
X150161500Y-103655761D01*
X150209119Y-103608142D01*
X147828166Y-103703380D02*
X148161500Y-103227190D01*
X148399595Y-103703380D02*
X148399595Y-102703380D01*
X148018642Y-102703380D01*
X147923404Y-102751000D01*
X147875785Y-102798619D01*
X147828166Y-102893857D01*
X147828166Y-103036714D01*
X147875785Y-103131952D01*
X147923404Y-103179571D01*
X148018642Y-103227190D01*
X148399595Y-103227190D01*
X147447214Y-102798619D02*
X147399595Y-102751000D01*
X147304357Y-102703380D01*
X147066261Y-102703380D01*
X146971023Y-102751000D01*
X146923404Y-102798619D01*
X146875785Y-102893857D01*
X146875785Y-102989095D01*
X146923404Y-103131952D01*
X147494833Y-103703380D01*
X146875785Y-103703380D01*
X166399595Y-105353380D02*
X166971023Y-105353380D01*
X166685309Y-105353380D02*
X166685309Y-104353380D01*
X166780547Y-104496238D01*
X166875785Y-104591476D01*
X166971023Y-104639095D01*
X165780547Y-104353380D02*
X165685309Y-104353380D01*
X165590071Y-104401000D01*
X165542452Y-104448619D01*
X165494833Y-104543857D01*
X165447214Y-104734333D01*
X165447214Y-104972428D01*
X165494833Y-105162904D01*
X165542452Y-105258142D01*
X165590071Y-105305761D01*
X165685309Y-105353380D01*
X165780547Y-105353380D01*
X165875785Y-105305761D01*
X165923404Y-105258142D01*
X165971023Y-105162904D01*
X166018642Y-104972428D01*
X166018642Y-104734333D01*
X165971023Y-104543857D01*
X165923404Y-104448619D01*
X165875785Y-104401000D01*
X165780547Y-104353380D01*
X164304357Y-104305761D02*
X165161500Y-105591476D01*
X164018642Y-104448619D02*
X163971023Y-104401000D01*
X163875785Y-104353380D01*
X163637690Y-104353380D01*
X163542452Y-104401000D01*
X163494833Y-104448619D01*
X163447214Y-104543857D01*
X163447214Y-104639095D01*
X163494833Y-104781952D01*
X164066261Y-105353380D01*
X163447214Y-105353380D01*
X162828166Y-104353380D02*
X162732928Y-104353380D01*
X162637690Y-104401000D01*
X162590071Y-104448619D01*
X162542452Y-104543857D01*
X162494833Y-104734333D01*
X162494833Y-104972428D01*
X162542452Y-105162904D01*
X162590071Y-105258142D01*
X162637690Y-105305761D01*
X162732928Y-105353380D01*
X162828166Y-105353380D01*
X162923404Y-105305761D01*
X162971023Y-105258142D01*
X163018642Y-105162904D01*
X163066261Y-104972428D01*
X163066261Y-104734333D01*
X163018642Y-104543857D01*
X162971023Y-104448619D01*
X162923404Y-104401000D01*
X162828166Y-104353380D01*
X161542452Y-105353380D02*
X162113880Y-105353380D01*
X161828166Y-105353380D02*
X161828166Y-104353380D01*
X161923404Y-104496238D01*
X162018642Y-104591476D01*
X162113880Y-104639095D01*
X161066261Y-105353380D02*
X160875785Y-105353380D01*
X160780547Y-105305761D01*
X160732928Y-105258142D01*
X160637690Y-105115285D01*
X160590071Y-104924809D01*
X160590071Y-104543857D01*
X160637690Y-104448619D01*
X160685309Y-104401000D01*
X160780547Y-104353380D01*
X160971023Y-104353380D01*
X161066261Y-104401000D01*
X161113880Y-104448619D01*
X161161500Y-104543857D01*
X161161500Y-104781952D01*
X161113880Y-104877190D01*
X161066261Y-104924809D01*
X160971023Y-104972428D01*
X160780547Y-104972428D01*
X160685309Y-104924809D01*
X160637690Y-104877190D01*
X160590071Y-104781952D01*
X159542452Y-104353380D02*
X159209119Y-105353380D01*
X158875785Y-104353380D01*
X158161500Y-105305761D02*
X158256738Y-105353380D01*
X158447214Y-105353380D01*
X158542452Y-105305761D01*
X158590071Y-105210523D01*
X158590071Y-104829571D01*
X158542452Y-104734333D01*
X158447214Y-104686714D01*
X158256738Y-104686714D01*
X158161500Y-104734333D01*
X158113880Y-104829571D01*
X158113880Y-104924809D01*
X158590071Y-105020047D01*
X157685309Y-105353380D02*
X157685309Y-104686714D01*
X157685309Y-104877190D02*
X157637690Y-104781952D01*
X157590071Y-104734333D01*
X157494833Y-104686714D01*
X157399595Y-104686714D01*
X156113880Y-104353380D02*
X156018642Y-104353380D01*
X155923404Y-104401000D01*
X155875785Y-104448619D01*
X155828166Y-104543857D01*
X155780547Y-104734333D01*
X155780547Y-104972428D01*
X155828166Y-105162904D01*
X155875785Y-105258142D01*
X155923404Y-105305761D01*
X156018642Y-105353380D01*
X156113880Y-105353380D01*
X156209119Y-105305761D01*
X156256738Y-105258142D01*
X156304357Y-105162904D01*
X156351976Y-104972428D01*
X156351976Y-104734333D01*
X156304357Y-104543857D01*
X156256738Y-104448619D01*
X156209119Y-104401000D01*
X156113880Y-104353380D01*
X155351976Y-105258142D02*
X155304357Y-105305761D01*
X155351976Y-105353380D01*
X155399595Y-105305761D01*
X155351976Y-105258142D01*
X155351976Y-105353380D01*
X154399595Y-104353380D02*
X154875785Y-104353380D01*
X154923404Y-104829571D01*
X154875785Y-104781952D01*
X154780547Y-104734333D01*
X154542452Y-104734333D01*
X154447214Y-104781952D01*
X154399595Y-104829571D01*
X154351976Y-104924809D01*
X154351976Y-105162904D01*
X154399595Y-105258142D01*
X154447214Y-105305761D01*
X154542452Y-105353380D01*
X154780547Y-105353380D01*
X154875785Y-105305761D01*
X154923404Y-105258142D01*
D11*
G36*
X164203540Y-87273669D02*
G01*
X164197115Y-87517384D01*
X164189117Y-87690408D01*
X164177569Y-87806719D01*
X164160493Y-87880293D01*
X164135909Y-87925105D01*
X164107659Y-87951003D01*
X163977568Y-88006771D01*
X163858061Y-87980949D01*
X163811858Y-87944476D01*
X163784775Y-87902741D01*
X163765896Y-87831874D01*
X163753910Y-87718518D01*
X163747505Y-87549315D01*
X163745367Y-87310907D01*
X163745334Y-87267143D01*
X163745334Y-86656333D01*
X163279667Y-86656333D01*
X163279733Y-87280750D01*
X163283565Y-87575130D01*
X163297351Y-87798909D01*
X163324630Y-87965908D01*
X163368942Y-88089947D01*
X163433824Y-88184849D01*
X163522817Y-88264436D01*
X163533667Y-88272440D01*
X163651486Y-88324343D01*
X163820974Y-88359600D01*
X164010204Y-88374984D01*
X164187247Y-88367267D01*
X164281574Y-88348055D01*
X164399274Y-88287005D01*
X164511931Y-88191567D01*
X164524990Y-88176784D01*
X164565431Y-88126112D01*
X164594425Y-88075750D01*
X164613876Y-88011329D01*
X164625689Y-87918481D01*
X164631767Y-87782837D01*
X164634014Y-87590029D01*
X164634334Y-87351585D01*
X164634334Y-86656333D01*
X164217247Y-86656333D01*
X164203540Y-87273669D01*
X164203540Y-87273669D01*
G37*
X164203540Y-87273669D02*
X164197115Y-87517384D01*
X164189117Y-87690408D01*
X164177569Y-87806719D01*
X164160493Y-87880293D01*
X164135909Y-87925105D01*
X164107659Y-87951003D01*
X163977568Y-88006771D01*
X163858061Y-87980949D01*
X163811858Y-87944476D01*
X163784775Y-87902741D01*
X163765896Y-87831874D01*
X163753910Y-87718518D01*
X163747505Y-87549315D01*
X163745367Y-87310907D01*
X163745334Y-87267143D01*
X163745334Y-86656333D01*
X163279667Y-86656333D01*
X163279733Y-87280750D01*
X163283565Y-87575130D01*
X163297351Y-87798909D01*
X163324630Y-87965908D01*
X163368942Y-88089947D01*
X163433824Y-88184849D01*
X163522817Y-88264436D01*
X163533667Y-88272440D01*
X163651486Y-88324343D01*
X163820974Y-88359600D01*
X164010204Y-88374984D01*
X164187247Y-88367267D01*
X164281574Y-88348055D01*
X164399274Y-88287005D01*
X164511931Y-88191567D01*
X164524990Y-88176784D01*
X164565431Y-88126112D01*
X164594425Y-88075750D01*
X164613876Y-88011329D01*
X164625689Y-87918481D01*
X164631767Y-87782837D01*
X164634014Y-87590029D01*
X164634334Y-87351585D01*
X164634334Y-86656333D01*
X164217247Y-86656333D01*
X164203540Y-87273669D01*
G36*
X158659206Y-86654813D02*
G01*
X158556289Y-86694226D01*
X158417763Y-86778927D01*
X158320483Y-86895622D01*
X158258964Y-87057537D01*
X158227719Y-87277897D01*
X158220834Y-87503000D01*
X158231313Y-87762458D01*
X158267126Y-87957497D01*
X158334840Y-88106257D01*
X158441021Y-88226879D01*
X158500103Y-88274585D01*
X158609593Y-88323848D01*
X158770370Y-88360210D01*
X158949500Y-88379454D01*
X159114048Y-88377366D01*
X159194500Y-88363454D01*
X159368028Y-88275532D01*
X159514740Y-88127515D01*
X159575918Y-88025308D01*
X159620032Y-87877289D01*
X159645708Y-87677448D01*
X159650731Y-87503000D01*
X159173334Y-87503000D01*
X159159723Y-87736737D01*
X159117221Y-87895584D01*
X159043327Y-87985099D01*
X158944661Y-88011000D01*
X158839101Y-87980290D01*
X158782291Y-87936917D01*
X158727301Y-87829817D01*
X158694417Y-87674429D01*
X158683171Y-87494994D01*
X158693094Y-87315751D01*
X158723716Y-87160940D01*
X158774569Y-87054801D01*
X158799801Y-87031822D01*
X158924025Y-86996453D01*
X159045325Y-87030712D01*
X159107433Y-87089086D01*
X159149105Y-87193872D01*
X159170043Y-87364937D01*
X159173334Y-87503000D01*
X159650731Y-87503000D01*
X159652062Y-87456790D01*
X159638212Y-87246319D01*
X159603274Y-87077041D01*
X159602950Y-87076066D01*
X159496159Y-86878841D01*
X159333132Y-86732537D01*
X159129125Y-86642721D01*
X158899398Y-86614957D01*
X158659206Y-86654813D01*
X158659206Y-86654813D01*
G37*
X158659206Y-86654813D02*
X158556289Y-86694226D01*
X158417763Y-86778927D01*
X158320483Y-86895622D01*
X158258964Y-87057537D01*
X158227719Y-87277897D01*
X158220834Y-87503000D01*
X158231313Y-87762458D01*
X158267126Y-87957497D01*
X158334840Y-88106257D01*
X158441021Y-88226879D01*
X158500103Y-88274585D01*
X158609593Y-88323848D01*
X158770370Y-88360210D01*
X158949500Y-88379454D01*
X159114048Y-88377366D01*
X159194500Y-88363454D01*
X159368028Y-88275532D01*
X159514740Y-88127515D01*
X159575918Y-88025308D01*
X159620032Y-87877289D01*
X159645708Y-87677448D01*
X159650731Y-87503000D01*
X159173334Y-87503000D01*
X159159723Y-87736737D01*
X159117221Y-87895584D01*
X159043327Y-87985099D01*
X158944661Y-88011000D01*
X158839101Y-87980290D01*
X158782291Y-87936917D01*
X158727301Y-87829817D01*
X158694417Y-87674429D01*
X158683171Y-87494994D01*
X158693094Y-87315751D01*
X158723716Y-87160940D01*
X158774569Y-87054801D01*
X158799801Y-87031822D01*
X158924025Y-86996453D01*
X159045325Y-87030712D01*
X159107433Y-87089086D01*
X159149105Y-87193872D01*
X159170043Y-87364937D01*
X159173334Y-87503000D01*
X159650731Y-87503000D01*
X159652062Y-87456790D01*
X159638212Y-87246319D01*
X159603274Y-87077041D01*
X159602950Y-87076066D01*
X159496159Y-86878841D01*
X159333132Y-86732537D01*
X159129125Y-86642721D01*
X158899398Y-86614957D01*
X158659206Y-86654813D01*
G36*
X168520196Y-87407750D02*
G01*
X168443180Y-87652417D01*
X168373417Y-87874607D01*
X168315536Y-88059532D01*
X168274164Y-88192406D01*
X168254465Y-88256635D01*
X168242868Y-88310836D01*
X168261250Y-88338549D01*
X168327317Y-88346649D01*
X168458774Y-88342011D01*
X168472527Y-88341302D01*
X168611143Y-88331969D01*
X168688612Y-88312964D01*
X168728342Y-88270256D01*
X168753738Y-88189815D01*
X168758717Y-88169750D01*
X168785285Y-88077258D01*
X168822339Y-88030212D01*
X168895080Y-88013248D01*
X169019095Y-88011000D01*
X169148554Y-88013624D01*
X169218360Y-88031734D01*
X169253525Y-88080692D01*
X169277628Y-88169750D01*
X169314999Y-88328500D01*
X169562401Y-88341357D01*
X169702263Y-88344879D01*
X169773235Y-88334698D01*
X169790433Y-88307652D01*
X169786860Y-88294423D01*
X169767651Y-88236838D01*
X169727745Y-88111880D01*
X169671404Y-87933079D01*
X169602889Y-87713968D01*
X169571147Y-87611839D01*
X169149845Y-87611839D01*
X169143319Y-87655180D01*
X169070084Y-87671630D01*
X169036940Y-87672333D01*
X168945139Y-87665734D01*
X168917008Y-87631770D01*
X168928624Y-87561561D01*
X168959021Y-87431398D01*
X168980701Y-87329415D01*
X169009957Y-87243306D01*
X169043855Y-87238940D01*
X169078269Y-87313849D01*
X169098184Y-87399705D01*
X169123576Y-87518295D01*
X169147690Y-87605923D01*
X169149845Y-87611839D01*
X169571147Y-87611839D01*
X169526464Y-87468076D01*
X169519463Y-87445482D01*
X169275011Y-86656333D01*
X168757015Y-86656333D01*
X168520196Y-87407750D01*
X168520196Y-87407750D01*
G37*
X168520196Y-87407750D02*
X168443180Y-87652417D01*
X168373417Y-87874607D01*
X168315536Y-88059532D01*
X168274164Y-88192406D01*
X168254465Y-88256635D01*
X168242868Y-88310836D01*
X168261250Y-88338549D01*
X168327317Y-88346649D01*
X168458774Y-88342011D01*
X168472527Y-88341302D01*
X168611143Y-88331969D01*
X168688612Y-88312964D01*
X168728342Y-88270256D01*
X168753738Y-88189815D01*
X168758717Y-88169750D01*
X168785285Y-88077258D01*
X168822339Y-88030212D01*
X168895080Y-88013248D01*
X169019095Y-88011000D01*
X169148554Y-88013624D01*
X169218360Y-88031734D01*
X169253525Y-88080692D01*
X169277628Y-88169750D01*
X169314999Y-88328500D01*
X169562401Y-88341357D01*
X169702263Y-88344879D01*
X169773235Y-88334698D01*
X169790433Y-88307652D01*
X169786860Y-88294423D01*
X169767651Y-88236838D01*
X169727745Y-88111880D01*
X169671404Y-87933079D01*
X169602889Y-87713968D01*
X169571147Y-87611839D01*
X169149845Y-87611839D01*
X169143319Y-87655180D01*
X169070084Y-87671630D01*
X169036940Y-87672333D01*
X168945139Y-87665734D01*
X168917008Y-87631770D01*
X168928624Y-87561561D01*
X168959021Y-87431398D01*
X168980701Y-87329415D01*
X169009957Y-87243306D01*
X169043855Y-87238940D01*
X169078269Y-87313849D01*
X169098184Y-87399705D01*
X169123576Y-87518295D01*
X169147690Y-87605923D01*
X169149845Y-87611839D01*
X169571147Y-87611839D01*
X169526464Y-87468076D01*
X169519463Y-87445482D01*
X169275011Y-86656333D01*
X168757015Y-86656333D01*
X168520196Y-87407750D01*
G36*
X167450344Y-86663464D02*
G01*
X167229096Y-86670267D01*
X167075589Y-86679012D01*
X166972907Y-86692980D01*
X166904135Y-86715457D01*
X166852357Y-86749725D01*
X166812328Y-86787311D01*
X166706601Y-86947542D01*
X166655158Y-87144642D01*
X166658612Y-87351646D01*
X166717574Y-87541591D01*
X166792720Y-87650513D01*
X166883844Y-87747510D01*
X166732223Y-88048588D01*
X166580603Y-88349667D01*
X167116433Y-88349667D01*
X167237834Y-88095667D01*
X167312558Y-87952493D01*
X167373132Y-87873685D01*
X167433080Y-87843590D01*
X167457284Y-87841667D01*
X167511711Y-87848159D01*
X167541103Y-87880824D01*
X167553098Y-87959443D01*
X167555334Y-88095667D01*
X167555334Y-88349667D01*
X167978667Y-88349667D01*
X167978667Y-87037333D01*
X167555334Y-87037333D01*
X167555334Y-87460667D01*
X167410191Y-87460667D01*
X167290707Y-87441922D01*
X167201048Y-87396571D01*
X167198524Y-87394143D01*
X167142143Y-87290280D01*
X167139703Y-87171418D01*
X167182800Y-87088133D01*
X167256257Y-87054694D01*
X167371654Y-87037824D01*
X167394467Y-87037333D01*
X167555334Y-87037333D01*
X167978667Y-87037333D01*
X167978667Y-86649428D01*
X167450344Y-86663464D01*
X167450344Y-86663464D01*
G37*
X167450344Y-86663464D02*
X167229096Y-86670267D01*
X167075589Y-86679012D01*
X166972907Y-86692980D01*
X166904135Y-86715457D01*
X166852357Y-86749725D01*
X166812328Y-86787311D01*
X166706601Y-86947542D01*
X166655158Y-87144642D01*
X166658612Y-87351646D01*
X166717574Y-87541591D01*
X166792720Y-87650513D01*
X166883844Y-87747510D01*
X166732223Y-88048588D01*
X166580603Y-88349667D01*
X167116433Y-88349667D01*
X167237834Y-88095667D01*
X167312558Y-87952493D01*
X167373132Y-87873685D01*
X167433080Y-87843590D01*
X167457284Y-87841667D01*
X167511711Y-87848159D01*
X167541103Y-87880824D01*
X167553098Y-87959443D01*
X167555334Y-88095667D01*
X167555334Y-88349667D01*
X167978667Y-88349667D01*
X167978667Y-87037333D01*
X167555334Y-87037333D01*
X167555334Y-87460667D01*
X167410191Y-87460667D01*
X167290707Y-87441922D01*
X167201048Y-87396571D01*
X167198524Y-87394143D01*
X167142143Y-87290280D01*
X167139703Y-87171418D01*
X167182800Y-87088133D01*
X167256257Y-87054694D01*
X167371654Y-87037824D01*
X167394467Y-87037333D01*
X167555334Y-87037333D01*
X167978667Y-87037333D01*
X167978667Y-86649428D01*
X167450344Y-86663464D01*
G36*
X165893750Y-86657263D02*
G01*
X165578063Y-86672691D01*
X165334890Y-86721854D01*
X165156545Y-86811353D01*
X165035344Y-86947787D01*
X164963600Y-87137756D01*
X164933627Y-87387858D01*
X164931597Y-87483447D01*
X164955737Y-87768156D01*
X165032345Y-87990663D01*
X165164722Y-88157692D01*
X165310054Y-88254417D01*
X165417564Y-88301211D01*
X165530315Y-88330041D01*
X165673279Y-88344850D01*
X165871425Y-88349581D01*
X165913304Y-88349667D01*
X166327667Y-88349667D01*
X166327667Y-87037333D01*
X165904334Y-87037333D01*
X165904334Y-87968667D01*
X165760857Y-87968667D01*
X165628647Y-87944386D01*
X165517440Y-87887740D01*
X165463717Y-87833942D01*
X165433450Y-87765847D01*
X165420199Y-87659196D01*
X165417500Y-87511185D01*
X165430712Y-87298031D01*
X165475197Y-87155433D01*
X165558230Y-87072754D01*
X165687087Y-87039354D01*
X165741562Y-87037333D01*
X165904334Y-87037333D01*
X166327667Y-87037333D01*
X166327667Y-86656333D01*
X165893750Y-86657263D01*
X165893750Y-86657263D01*
G37*
X165893750Y-86657263D02*
X165578063Y-86672691D01*
X165334890Y-86721854D01*
X165156545Y-86811353D01*
X165035344Y-86947787D01*
X164963600Y-87137756D01*
X164933627Y-87387858D01*
X164931597Y-87483447D01*
X164955737Y-87768156D01*
X165032345Y-87990663D01*
X165164722Y-88157692D01*
X165310054Y-88254417D01*
X165417564Y-88301211D01*
X165530315Y-88330041D01*
X165673279Y-88344850D01*
X165871425Y-88349581D01*
X165913304Y-88349667D01*
X166327667Y-88349667D01*
X166327667Y-87037333D01*
X165904334Y-87037333D01*
X165904334Y-87968667D01*
X165760857Y-87968667D01*
X165628647Y-87944386D01*
X165517440Y-87887740D01*
X165463717Y-87833942D01*
X165433450Y-87765847D01*
X165420199Y-87659196D01*
X165417500Y-87511185D01*
X165430712Y-87298031D01*
X165475197Y-87155433D01*
X165558230Y-87072754D01*
X165687087Y-87039354D01*
X165741562Y-87037333D01*
X165904334Y-87037333D01*
X166327667Y-87037333D01*
X166327667Y-86656333D01*
X165893750Y-86657263D01*
G36*
X161628667Y-87037333D02*
G01*
X162052000Y-87037333D01*
X162052000Y-87968667D01*
X161628667Y-87968667D01*
X161628667Y-88349667D01*
X162941000Y-88349667D01*
X162941000Y-87968667D01*
X162517667Y-87968667D01*
X162517667Y-87037333D01*
X162941000Y-87037333D01*
X162941000Y-86656333D01*
X161628667Y-86656333D01*
X161628667Y-87037333D01*
X161628667Y-87037333D01*
G37*
X161628667Y-87037333D02*
X162052000Y-87037333D01*
X162052000Y-87968667D01*
X161628667Y-87968667D01*
X161628667Y-88349667D01*
X162941000Y-88349667D01*
X162941000Y-87968667D01*
X162517667Y-87968667D01*
X162517667Y-87037333D01*
X162941000Y-87037333D01*
X162941000Y-86656333D01*
X161628667Y-86656333D01*
X161628667Y-87037333D01*
G36*
X160583173Y-87107349D02*
G01*
X160337500Y-87558365D01*
X160325485Y-87107349D01*
X160313469Y-86656333D01*
X159893000Y-86656333D01*
X159893000Y-88353892D01*
X160379834Y-88328500D01*
X160633834Y-87853963D01*
X160887834Y-87379427D01*
X160899761Y-87864547D01*
X160911687Y-88349667D01*
X161332334Y-88349667D01*
X161332334Y-86656333D01*
X160828845Y-86656333D01*
X160583173Y-87107349D01*
X160583173Y-87107349D01*
G37*
X160583173Y-87107349D02*
X160337500Y-87558365D01*
X160325485Y-87107349D01*
X160313469Y-86656333D01*
X159893000Y-86656333D01*
X159893000Y-88353892D01*
X160379834Y-88328500D01*
X160633834Y-87853963D01*
X160887834Y-87379427D01*
X160899761Y-87864547D01*
X160911687Y-88349667D01*
X161332334Y-88349667D01*
X161332334Y-86656333D01*
X160828845Y-86656333D01*
X160583173Y-87107349D01*
G36*
X166584953Y-80019714D02*
G01*
X166102408Y-80135613D01*
X165630235Y-80326362D01*
X165176108Y-80592260D01*
X165011400Y-80711891D01*
X164868814Y-80831622D01*
X164701722Y-80987628D01*
X164526615Y-81162735D01*
X164359982Y-81339768D01*
X164218313Y-81501550D01*
X164118099Y-81630906D01*
X164095659Y-81665696D01*
X164040756Y-81748021D01*
X164003022Y-81785986D01*
X164000790Y-81786297D01*
X163966563Y-81753930D01*
X163896682Y-81669884D01*
X163805101Y-81551092D01*
X163787667Y-81527701D01*
X163444646Y-81125417D01*
X163054979Y-80775042D01*
X162628849Y-80481654D01*
X162176438Y-80250335D01*
X161707930Y-80086164D01*
X161233506Y-79994223D01*
X160763350Y-79979591D01*
X160694240Y-79984344D01*
X160356823Y-80026342D01*
X160049554Y-80098829D01*
X159739172Y-80211319D01*
X159470587Y-80334389D01*
X159259054Y-80445122D01*
X159086859Y-80555119D01*
X158924115Y-80686086D01*
X158740938Y-80859729D01*
X158723873Y-80876746D01*
X158550038Y-81057819D01*
X158420882Y-81214066D01*
X158315612Y-81374347D01*
X158213436Y-81567523D01*
X158187285Y-81621523D01*
X158000998Y-82089733D01*
X157897030Y-82548410D01*
X157874833Y-83005392D01*
X157933862Y-83468517D01*
X158033138Y-83830704D01*
X158206630Y-84225482D01*
X158451777Y-84601263D01*
X158755695Y-84943703D01*
X159105501Y-85238456D01*
X159488310Y-85471178D01*
X159520809Y-85487087D01*
X159900561Y-85647963D01*
X160258555Y-85749326D01*
X160626199Y-85797556D01*
X161034902Y-85799032D01*
X161052793Y-85798196D01*
X161576004Y-85735218D01*
X162065575Y-85596617D01*
X162531351Y-85379074D01*
X162808450Y-85205875D01*
X162999122Y-85059202D01*
X163216855Y-84866572D01*
X163438651Y-84650308D01*
X163641510Y-84432734D01*
X163788982Y-84254119D01*
X163989468Y-83989739D01*
X164172829Y-84232953D01*
X164479075Y-84593097D01*
X164829635Y-84926379D01*
X165205737Y-85217630D01*
X165588607Y-85451680D01*
X165812594Y-85557854D01*
X166210223Y-85689833D01*
X166642983Y-85773669D01*
X167084003Y-85806743D01*
X167506412Y-85786438D01*
X167745834Y-85746195D01*
X168190042Y-85618416D01*
X168580647Y-85440905D01*
X168938647Y-85202051D01*
X169274490Y-84900895D01*
X169597771Y-84518768D01*
X169845060Y-84100122D01*
X170015487Y-83646481D01*
X170035786Y-83569868D01*
X170080612Y-83295813D01*
X170095891Y-82974123D01*
X170087706Y-82757490D01*
X169029290Y-82757490D01*
X169021818Y-83111958D01*
X168943609Y-83449589D01*
X168801609Y-83763252D01*
X168602765Y-84045812D01*
X168354023Y-84290138D01*
X168062327Y-84489097D01*
X167734624Y-84635555D01*
X167377859Y-84722380D01*
X166998979Y-84742440D01*
X166703862Y-84709263D01*
X166558935Y-84670237D01*
X166372997Y-84603231D01*
X166179453Y-84520650D01*
X166121161Y-84492859D01*
X165802498Y-84301534D01*
X165482538Y-84045512D01*
X165180520Y-83742236D01*
X164915684Y-83409149D01*
X164898520Y-83384418D01*
X164768679Y-83195963D01*
X164681905Y-83060429D01*
X164636340Y-82958971D01*
X164631804Y-82896029D01*
X163401354Y-82896029D01*
X163268944Y-83114598D01*
X162968829Y-83551837D01*
X162635970Y-83930549D01*
X162278806Y-84242414D01*
X161905775Y-84479110D01*
X161863625Y-84500452D01*
X161499152Y-84652175D01*
X161156162Y-84732355D01*
X160815216Y-84743569D01*
X160456876Y-84688396D01*
X160453106Y-84687510D01*
X160063332Y-84554959D01*
X159720571Y-84354225D01*
X159430406Y-84089686D01*
X159198422Y-83765719D01*
X159141972Y-83659553D01*
X159070532Y-83510779D01*
X159024464Y-83394483D01*
X158998215Y-83283799D01*
X158986230Y-83151865D01*
X158982952Y-82971815D01*
X158982834Y-82889972D01*
X158984569Y-82684040D01*
X158993139Y-82536595D01*
X159013588Y-82421477D01*
X159050962Y-82312525D01*
X159110306Y-82183578D01*
X159124750Y-82154114D01*
X159336584Y-81818375D01*
X159615559Y-81531637D01*
X159956352Y-81299110D01*
X160045965Y-81252337D01*
X160201198Y-81178394D01*
X160325607Y-81130217D01*
X160447297Y-81101385D01*
X160594371Y-81085474D01*
X160794934Y-81076063D01*
X160821301Y-81075154D01*
X161046620Y-81070891D01*
X161216010Y-81077935D01*
X161357804Y-81099310D01*
X161500334Y-81138042D01*
X161544000Y-81152332D01*
X161951678Y-81332673D01*
X162340285Y-81591557D01*
X162704045Y-81923910D01*
X163037179Y-82324660D01*
X163257201Y-82656639D01*
X163401354Y-82896029D01*
X164631804Y-82896029D01*
X164630126Y-82872745D01*
X164661404Y-82782907D01*
X164728316Y-82670614D01*
X164815088Y-82538424D01*
X165118210Y-82125881D01*
X165448817Y-81771975D01*
X165798867Y-81483503D01*
X166160315Y-81267260D01*
X166459817Y-81148531D01*
X166755504Y-81087249D01*
X167080055Y-81067634D01*
X167404785Y-81088455D01*
X167701013Y-81148485D01*
X167866623Y-81208823D01*
X168237635Y-81417759D01*
X168541146Y-81675601D01*
X168775448Y-81980495D01*
X168938831Y-82330592D01*
X168959081Y-82393318D01*
X169029290Y-82757490D01*
X170087706Y-82757490D01*
X170083081Y-82635108D01*
X170043640Y-82309073D01*
X169979026Y-82026327D01*
X169958530Y-81964335D01*
X169802031Y-81595174D01*
X169608810Y-81274984D01*
X169359332Y-80973053D01*
X169268413Y-80879254D01*
X168884746Y-80552394D01*
X168465419Y-80298574D01*
X168018104Y-80118094D01*
X167550474Y-80011256D01*
X167070199Y-79978362D01*
X166584953Y-80019714D01*
X166584953Y-80019714D01*
G37*
X166584953Y-80019714D02*
X166102408Y-80135613D01*
X165630235Y-80326362D01*
X165176108Y-80592260D01*
X165011400Y-80711891D01*
X164868814Y-80831622D01*
X164701722Y-80987628D01*
X164526615Y-81162735D01*
X164359982Y-81339768D01*
X164218313Y-81501550D01*
X164118099Y-81630906D01*
X164095659Y-81665696D01*
X164040756Y-81748021D01*
X164003022Y-81785986D01*
X164000790Y-81786297D01*
X163966563Y-81753930D01*
X163896682Y-81669884D01*
X163805101Y-81551092D01*
X163787667Y-81527701D01*
X163444646Y-81125417D01*
X163054979Y-80775042D01*
X162628849Y-80481654D01*
X162176438Y-80250335D01*
X161707930Y-80086164D01*
X161233506Y-79994223D01*
X160763350Y-79979591D01*
X160694240Y-79984344D01*
X160356823Y-80026342D01*
X160049554Y-80098829D01*
X159739172Y-80211319D01*
X159470587Y-80334389D01*
X159259054Y-80445122D01*
X159086859Y-80555119D01*
X158924115Y-80686086D01*
X158740938Y-80859729D01*
X158723873Y-80876746D01*
X158550038Y-81057819D01*
X158420882Y-81214066D01*
X158315612Y-81374347D01*
X158213436Y-81567523D01*
X158187285Y-81621523D01*
X158000998Y-82089733D01*
X157897030Y-82548410D01*
X157874833Y-83005392D01*
X157933862Y-83468517D01*
X158033138Y-83830704D01*
X158206630Y-84225482D01*
X158451777Y-84601263D01*
X158755695Y-84943703D01*
X159105501Y-85238456D01*
X159488310Y-85471178D01*
X159520809Y-85487087D01*
X159900561Y-85647963D01*
X160258555Y-85749326D01*
X160626199Y-85797556D01*
X161034902Y-85799032D01*
X161052793Y-85798196D01*
X161576004Y-85735218D01*
X162065575Y-85596617D01*
X162531351Y-85379074D01*
X162808450Y-85205875D01*
X162999122Y-85059202D01*
X163216855Y-84866572D01*
X163438651Y-84650308D01*
X163641510Y-84432734D01*
X163788982Y-84254119D01*
X163989468Y-83989739D01*
X164172829Y-84232953D01*
X164479075Y-84593097D01*
X164829635Y-84926379D01*
X165205737Y-85217630D01*
X165588607Y-85451680D01*
X165812594Y-85557854D01*
X166210223Y-85689833D01*
X166642983Y-85773669D01*
X167084003Y-85806743D01*
X167506412Y-85786438D01*
X167745834Y-85746195D01*
X168190042Y-85618416D01*
X168580647Y-85440905D01*
X168938647Y-85202051D01*
X169274490Y-84900895D01*
X169597771Y-84518768D01*
X169845060Y-84100122D01*
X170015487Y-83646481D01*
X170035786Y-83569868D01*
X170080612Y-83295813D01*
X170095891Y-82974123D01*
X170087706Y-82757490D01*
X169029290Y-82757490D01*
X169021818Y-83111958D01*
X168943609Y-83449589D01*
X168801609Y-83763252D01*
X168602765Y-84045812D01*
X168354023Y-84290138D01*
X168062327Y-84489097D01*
X167734624Y-84635555D01*
X167377859Y-84722380D01*
X166998979Y-84742440D01*
X166703862Y-84709263D01*
X166558935Y-84670237D01*
X166372997Y-84603231D01*
X166179453Y-84520650D01*
X166121161Y-84492859D01*
X165802498Y-84301534D01*
X165482538Y-84045512D01*
X165180520Y-83742236D01*
X164915684Y-83409149D01*
X164898520Y-83384418D01*
X164768679Y-83195963D01*
X164681905Y-83060429D01*
X164636340Y-82958971D01*
X164631804Y-82896029D01*
X163401354Y-82896029D01*
X163268944Y-83114598D01*
X162968829Y-83551837D01*
X162635970Y-83930549D01*
X162278806Y-84242414D01*
X161905775Y-84479110D01*
X161863625Y-84500452D01*
X161499152Y-84652175D01*
X161156162Y-84732355D01*
X160815216Y-84743569D01*
X160456876Y-84688396D01*
X160453106Y-84687510D01*
X160063332Y-84554959D01*
X159720571Y-84354225D01*
X159430406Y-84089686D01*
X159198422Y-83765719D01*
X159141972Y-83659553D01*
X159070532Y-83510779D01*
X159024464Y-83394483D01*
X158998215Y-83283799D01*
X158986230Y-83151865D01*
X158982952Y-82971815D01*
X158982834Y-82889972D01*
X158984569Y-82684040D01*
X158993139Y-82536595D01*
X159013588Y-82421477D01*
X159050962Y-82312525D01*
X159110306Y-82183578D01*
X159124750Y-82154114D01*
X159336584Y-81818375D01*
X159615559Y-81531637D01*
X159956352Y-81299110D01*
X160045965Y-81252337D01*
X160201198Y-81178394D01*
X160325607Y-81130217D01*
X160447297Y-81101385D01*
X160594371Y-81085474D01*
X160794934Y-81076063D01*
X160821301Y-81075154D01*
X161046620Y-81070891D01*
X161216010Y-81077935D01*
X161357804Y-81099310D01*
X161500334Y-81138042D01*
X161544000Y-81152332D01*
X161951678Y-81332673D01*
X162340285Y-81591557D01*
X162704045Y-81923910D01*
X163037179Y-82324660D01*
X163257201Y-82656639D01*
X163401354Y-82896029D01*
X164631804Y-82896029D01*
X164630126Y-82872745D01*
X164661404Y-82782907D01*
X164728316Y-82670614D01*
X164815088Y-82538424D01*
X165118210Y-82125881D01*
X165448817Y-81771975D01*
X165798867Y-81483503D01*
X166160315Y-81267260D01*
X166459817Y-81148531D01*
X166755504Y-81087249D01*
X167080055Y-81067634D01*
X167404785Y-81088455D01*
X167701013Y-81148485D01*
X167866623Y-81208823D01*
X168237635Y-81417759D01*
X168541146Y-81675601D01*
X168775448Y-81980495D01*
X168938831Y-82330592D01*
X168959081Y-82393318D01*
X169029290Y-82757490D01*
X170087706Y-82757490D01*
X170083081Y-82635108D01*
X170043640Y-82309073D01*
X169979026Y-82026327D01*
X169958530Y-81964335D01*
X169802031Y-81595174D01*
X169608810Y-81274984D01*
X169359332Y-80973053D01*
X169268413Y-80879254D01*
X168884746Y-80552394D01*
X168465419Y-80298574D01*
X168018104Y-80118094D01*
X167550474Y-80011256D01*
X167070199Y-79978362D01*
X166584953Y-80019714D01*
G36*
X166116000Y-83227333D02*
G01*
X167936334Y-83227333D01*
X167936334Y-82592333D01*
X166116000Y-82592333D01*
X166116000Y-83227333D01*
X166116000Y-83227333D01*
G37*
X166116000Y-83227333D02*
X167936334Y-83227333D01*
X167936334Y-82592333D01*
X166116000Y-82592333D01*
X166116000Y-83227333D01*
G36*
X160697334Y-82592333D02*
G01*
X160062334Y-82592333D01*
X160062334Y-83227333D01*
X160697334Y-83227333D01*
X160697334Y-83820000D01*
X161290000Y-83820000D01*
X161290000Y-83227333D01*
X161925000Y-83227333D01*
X161925000Y-82592333D01*
X161290000Y-82592333D01*
X161290000Y-81999667D01*
X160697334Y-81999667D01*
X160697334Y-82592333D01*
X160697334Y-82592333D01*
G37*
X160697334Y-82592333D02*
X160062334Y-82592333D01*
X160062334Y-83227333D01*
X160697334Y-83227333D01*
X160697334Y-83820000D01*
X161290000Y-83820000D01*
X161290000Y-83227333D01*
X161925000Y-83227333D01*
X161925000Y-82592333D01*
X161290000Y-82592333D01*
X161290000Y-81999667D01*
X160697334Y-81999667D01*
X160697334Y-82592333D01*
G36*
X159442677Y-117781033D02*
G01*
X159411298Y-117803276D01*
X159383589Y-117830985D01*
X159383589Y-118140420D01*
X159383662Y-118232299D01*
X159384005Y-118304340D01*
X159384808Y-118359280D01*
X159386259Y-118399860D01*
X159388548Y-118428817D01*
X159391864Y-118448891D01*
X159396395Y-118462821D01*
X159402331Y-118473345D01*
X159406986Y-118479600D01*
X159437717Y-118504173D01*
X159473004Y-118506841D01*
X159505255Y-118491771D01*
X159515912Y-118482874D01*
X159523036Y-118471057D01*
X159527333Y-118452026D01*
X159529509Y-118421492D01*
X159530272Y-118375162D01*
X159530345Y-118339371D01*
X159530345Y-118204545D01*
X160027056Y-118204545D01*
X160027056Y-118327200D01*
X160027569Y-118383287D01*
X160029624Y-118421833D01*
X160033992Y-118447861D01*
X160041444Y-118466397D01*
X160050453Y-118479600D01*
X160081356Y-118504104D01*
X160116304Y-118507006D01*
X160149762Y-118489589D01*
X160158896Y-118480459D01*
X160165348Y-118468355D01*
X160169603Y-118449501D01*
X160172148Y-118420120D01*
X160173471Y-118376437D01*
X160174057Y-118314675D01*
X160174125Y-118300500D01*
X160174609Y-118184131D01*
X160174859Y-118088227D01*
X160174777Y-118010677D01*
X160174269Y-117949369D01*
X160173238Y-117902190D01*
X160171587Y-117867030D01*
X160169221Y-117841776D01*
X160166043Y-117824317D01*
X160161956Y-117812541D01*
X160156866Y-117804335D01*
X160151234Y-117798145D01*
X160119372Y-117778344D01*
X160086143Y-117781033D01*
X160054765Y-117803276D01*
X160042067Y-117817626D01*
X160033974Y-117833478D01*
X160029458Y-117856054D01*
X160027494Y-117890578D01*
X160027056Y-117942276D01*
X160027056Y-118057789D01*
X159530345Y-118057789D01*
X159530345Y-117939256D01*
X159529838Y-117884648D01*
X159527802Y-117847775D01*
X159523465Y-117823807D01*
X159516053Y-117807915D01*
X159507767Y-117798145D01*
X159475906Y-117778344D01*
X159442677Y-117781033D01*
X159442677Y-117781033D01*
G37*
X159442677Y-117781033D02*
X159411298Y-117803276D01*
X159383589Y-117830985D01*
X159383589Y-118140420D01*
X159383662Y-118232299D01*
X159384005Y-118304340D01*
X159384808Y-118359280D01*
X159386259Y-118399860D01*
X159388548Y-118428817D01*
X159391864Y-118448891D01*
X159396395Y-118462821D01*
X159402331Y-118473345D01*
X159406986Y-118479600D01*
X159437717Y-118504173D01*
X159473004Y-118506841D01*
X159505255Y-118491771D01*
X159515912Y-118482874D01*
X159523036Y-118471057D01*
X159527333Y-118452026D01*
X159529509Y-118421492D01*
X159530272Y-118375162D01*
X159530345Y-118339371D01*
X159530345Y-118204545D01*
X160027056Y-118204545D01*
X160027056Y-118327200D01*
X160027569Y-118383287D01*
X160029624Y-118421833D01*
X160033992Y-118447861D01*
X160041444Y-118466397D01*
X160050453Y-118479600D01*
X160081356Y-118504104D01*
X160116304Y-118507006D01*
X160149762Y-118489589D01*
X160158896Y-118480459D01*
X160165348Y-118468355D01*
X160169603Y-118449501D01*
X160172148Y-118420120D01*
X160173471Y-118376437D01*
X160174057Y-118314675D01*
X160174125Y-118300500D01*
X160174609Y-118184131D01*
X160174859Y-118088227D01*
X160174777Y-118010677D01*
X160174269Y-117949369D01*
X160173238Y-117902190D01*
X160171587Y-117867030D01*
X160169221Y-117841776D01*
X160166043Y-117824317D01*
X160161956Y-117812541D01*
X160156866Y-117804335D01*
X160151234Y-117798145D01*
X160119372Y-117778344D01*
X160086143Y-117781033D01*
X160054765Y-117803276D01*
X160042067Y-117817626D01*
X160033974Y-117833478D01*
X160029458Y-117856054D01*
X160027494Y-117890578D01*
X160027056Y-117942276D01*
X160027056Y-118057789D01*
X159530345Y-118057789D01*
X159530345Y-117939256D01*
X159529838Y-117884648D01*
X159527802Y-117847775D01*
X159523465Y-117823807D01*
X159516053Y-117807915D01*
X159507767Y-117798145D01*
X159475906Y-117778344D01*
X159442677Y-117781033D01*
G36*
X160708435Y-117775663D02*
G01*
X160629728Y-117776042D01*
X160568637Y-117776833D01*
X160522683Y-117778170D01*
X160489386Y-117780183D01*
X160466264Y-117783006D01*
X160450838Y-117786769D01*
X160440629Y-117791605D01*
X160435687Y-117795322D01*
X160410043Y-117827858D01*
X160406941Y-117861638D01*
X160422789Y-117892326D01*
X160433152Y-117904589D01*
X160444304Y-117912950D01*
X160460465Y-117918157D01*
X160485858Y-117920957D01*
X160524702Y-117922096D01*
X160581220Y-117922321D01*
X160592320Y-117922322D01*
X160738256Y-117922322D01*
X160738256Y-118193256D01*
X160738352Y-118278654D01*
X160738789Y-118344364D01*
X160739788Y-118393274D01*
X160741572Y-118428273D01*
X160744363Y-118452249D01*
X160748383Y-118468093D01*
X160753855Y-118478691D01*
X160760834Y-118486767D01*
X160793766Y-118506612D01*
X160828146Y-118505048D01*
X160859324Y-118482406D01*
X160861614Y-118479600D01*
X160869071Y-118468992D01*
X160874753Y-118456581D01*
X160878899Y-118439350D01*
X160881750Y-118414284D01*
X160883546Y-118378367D01*
X160884528Y-118328583D01*
X160884936Y-118261917D01*
X160885011Y-118186089D01*
X160885011Y-117922322D01*
X161024373Y-117922322D01*
X161084178Y-117921918D01*
X161125582Y-117920340D01*
X161152752Y-117917047D01*
X161169854Y-117911492D01*
X161181057Y-117903131D01*
X161182417Y-117901678D01*
X161198775Y-117868439D01*
X161197328Y-117830862D01*
X161178522Y-117798145D01*
X161171250Y-117791798D01*
X161161873Y-117786766D01*
X161147891Y-117782896D01*
X161126804Y-117780037D01*
X161096111Y-117778035D01*
X161053311Y-117776739D01*
X160995905Y-117775998D01*
X160921390Y-117775658D01*
X160827267Y-117775568D01*
X160807240Y-117775567D01*
X160708435Y-117775663D01*
X160708435Y-117775663D01*
G37*
X160708435Y-117775663D02*
X160629728Y-117776042D01*
X160568637Y-117776833D01*
X160522683Y-117778170D01*
X160489386Y-117780183D01*
X160466264Y-117783006D01*
X160450838Y-117786769D01*
X160440629Y-117791605D01*
X160435687Y-117795322D01*
X160410043Y-117827858D01*
X160406941Y-117861638D01*
X160422789Y-117892326D01*
X160433152Y-117904589D01*
X160444304Y-117912950D01*
X160460465Y-117918157D01*
X160485858Y-117920957D01*
X160524702Y-117922096D01*
X160581220Y-117922321D01*
X160592320Y-117922322D01*
X160738256Y-117922322D01*
X160738256Y-118193256D01*
X160738352Y-118278654D01*
X160738789Y-118344364D01*
X160739788Y-118393274D01*
X160741572Y-118428273D01*
X160744363Y-118452249D01*
X160748383Y-118468093D01*
X160753855Y-118478691D01*
X160760834Y-118486767D01*
X160793766Y-118506612D01*
X160828146Y-118505048D01*
X160859324Y-118482406D01*
X160861614Y-118479600D01*
X160869071Y-118468992D01*
X160874753Y-118456581D01*
X160878899Y-118439350D01*
X160881750Y-118414284D01*
X160883546Y-118378367D01*
X160884528Y-118328583D01*
X160884936Y-118261917D01*
X160885011Y-118186089D01*
X160885011Y-117922322D01*
X161024373Y-117922322D01*
X161084178Y-117921918D01*
X161125582Y-117920340D01*
X161152752Y-117917047D01*
X161169854Y-117911492D01*
X161181057Y-117903131D01*
X161182417Y-117901678D01*
X161198775Y-117868439D01*
X161197328Y-117830862D01*
X161178522Y-117798145D01*
X161171250Y-117791798D01*
X161161873Y-117786766D01*
X161147891Y-117782896D01*
X161126804Y-117780037D01*
X161096111Y-117778035D01*
X161053311Y-117776739D01*
X160995905Y-117775998D01*
X160921390Y-117775658D01*
X160827267Y-117775568D01*
X160807240Y-117775567D01*
X160708435Y-117775663D01*
G36*
X161482886Y-117782377D02*
G01*
X161459173Y-117797147D01*
X161432522Y-117818727D01*
X161432522Y-118140273D01*
X161432607Y-118234330D01*
X161432971Y-118308432D01*
X161433776Y-118365204D01*
X161435187Y-118407268D01*
X161437367Y-118437248D01*
X161440479Y-118457767D01*
X161444686Y-118471449D01*
X161450152Y-118480916D01*
X161454028Y-118485582D01*
X161485466Y-118506075D01*
X161521267Y-118505239D01*
X161552627Y-118487764D01*
X161579278Y-118466184D01*
X161579278Y-117818727D01*
X161552627Y-117797147D01*
X161526906Y-117781449D01*
X161505900Y-117775567D01*
X161482886Y-117782377D01*
X161482886Y-117782377D01*
G37*
X161482886Y-117782377D02*
X161459173Y-117797147D01*
X161432522Y-117818727D01*
X161432522Y-118140273D01*
X161432607Y-118234330D01*
X161432971Y-118308432D01*
X161433776Y-118365204D01*
X161435187Y-118407268D01*
X161437367Y-118437248D01*
X161440479Y-118457767D01*
X161444686Y-118471449D01*
X161450152Y-118480916D01*
X161454028Y-118485582D01*
X161485466Y-118506075D01*
X161521267Y-118505239D01*
X161552627Y-118487764D01*
X161579278Y-118466184D01*
X161579278Y-117818727D01*
X161552627Y-117797147D01*
X161526906Y-117781449D01*
X161505900Y-117775567D01*
X161482886Y-117782377D01*
G36*
X161926835Y-117777534D02*
G01*
X161907245Y-117784535D01*
X161906490Y-117784877D01*
X161879887Y-117805178D01*
X161865230Y-117826061D01*
X161862362Y-117835852D01*
X161862504Y-117848861D01*
X161866539Y-117867395D01*
X161875354Y-117893757D01*
X161889831Y-117930252D01*
X161910855Y-117979187D01*
X161939312Y-118042865D01*
X161976085Y-118123593D01*
X161996325Y-118167716D01*
X162032875Y-118246485D01*
X162067185Y-118318923D01*
X162097948Y-118382380D01*
X162123852Y-118434208D01*
X162143590Y-118471759D01*
X162155850Y-118492384D01*
X162158276Y-118495233D01*
X162189317Y-118507802D01*
X162224379Y-118506119D01*
X162252500Y-118490832D01*
X162253646Y-118489589D01*
X162264832Y-118472654D01*
X162283596Y-118439670D01*
X162307625Y-118394880D01*
X162334603Y-118342532D01*
X162344299Y-118323242D01*
X162417486Y-118176650D01*
X162497260Y-118335893D01*
X162525733Y-118390915D01*
X162552150Y-118438632D01*
X162574352Y-118475393D01*
X162590181Y-118497544D01*
X162595546Y-118502241D01*
X162637243Y-118508602D01*
X162671651Y-118495233D01*
X162681772Y-118480946D01*
X162699286Y-118449192D01*
X162722765Y-118403097D01*
X162750780Y-118345785D01*
X162781901Y-118280380D01*
X162814701Y-118210007D01*
X162847750Y-118137791D01*
X162879619Y-118066855D01*
X162908881Y-118000325D01*
X162934105Y-117941326D01*
X162953864Y-117892981D01*
X162966728Y-117858415D01*
X162971269Y-117840753D01*
X162971223Y-117840113D01*
X162960174Y-117817888D01*
X162938090Y-117795253D01*
X162936790Y-117794268D01*
X162909647Y-117778925D01*
X162884542Y-117779074D01*
X162875132Y-117781966D01*
X162863666Y-117788218D01*
X162851490Y-117800514D01*
X162837143Y-117821408D01*
X162819164Y-117853449D01*
X162796093Y-117899188D01*
X162766470Y-117961177D01*
X162739755Y-118018398D01*
X162709020Y-118084726D01*
X162681479Y-118144374D01*
X162658562Y-118194225D01*
X162641702Y-118231164D01*
X162632327Y-118252073D01*
X162630960Y-118255345D01*
X162624811Y-118249997D01*
X162610678Y-118227609D01*
X162590443Y-118191446D01*
X162565985Y-118144777D01*
X162556252Y-118125522D01*
X162523283Y-118060504D01*
X162497857Y-118013154D01*
X162477888Y-117980719D01*
X162461290Y-117960446D01*
X162445976Y-117949582D01*
X162429860Y-117945375D01*
X162419357Y-117944900D01*
X162400830Y-117946542D01*
X162384596Y-117953331D01*
X162368465Y-117968066D01*
X162350249Y-117993544D01*
X162327761Y-118032561D01*
X162298811Y-118087914D01*
X162282838Y-118119403D01*
X162256930Y-118169587D01*
X162234333Y-118211204D01*
X162217042Y-118240742D01*
X162207050Y-118254689D01*
X162205691Y-118255270D01*
X162199239Y-118244293D01*
X162184792Y-118215790D01*
X162163797Y-118172744D01*
X162137703Y-118118138D01*
X162107954Y-118054954D01*
X162093320Y-118023571D01*
X162055250Y-117942578D01*
X162024595Y-117880256D01*
X161999763Y-117834571D01*
X161979163Y-117803489D01*
X161961202Y-117784978D01*
X161944290Y-117777004D01*
X161926835Y-117777534D01*
X161926835Y-117777534D01*
G37*
X161926835Y-117777534D02*
X161907245Y-117784535D01*
X161906490Y-117784877D01*
X161879887Y-117805178D01*
X161865230Y-117826061D01*
X161862362Y-117835852D01*
X161862504Y-117848861D01*
X161866539Y-117867395D01*
X161875354Y-117893757D01*
X161889831Y-117930252D01*
X161910855Y-117979187D01*
X161939312Y-118042865D01*
X161976085Y-118123593D01*
X161996325Y-118167716D01*
X162032875Y-118246485D01*
X162067185Y-118318923D01*
X162097948Y-118382380D01*
X162123852Y-118434208D01*
X162143590Y-118471759D01*
X162155850Y-118492384D01*
X162158276Y-118495233D01*
X162189317Y-118507802D01*
X162224379Y-118506119D01*
X162252500Y-118490832D01*
X162253646Y-118489589D01*
X162264832Y-118472654D01*
X162283596Y-118439670D01*
X162307625Y-118394880D01*
X162334603Y-118342532D01*
X162344299Y-118323242D01*
X162417486Y-118176650D01*
X162497260Y-118335893D01*
X162525733Y-118390915D01*
X162552150Y-118438632D01*
X162574352Y-118475393D01*
X162590181Y-118497544D01*
X162595546Y-118502241D01*
X162637243Y-118508602D01*
X162671651Y-118495233D01*
X162681772Y-118480946D01*
X162699286Y-118449192D01*
X162722765Y-118403097D01*
X162750780Y-118345785D01*
X162781901Y-118280380D01*
X162814701Y-118210007D01*
X162847750Y-118137791D01*
X162879619Y-118066855D01*
X162908881Y-118000325D01*
X162934105Y-117941326D01*
X162953864Y-117892981D01*
X162966728Y-117858415D01*
X162971269Y-117840753D01*
X162971223Y-117840113D01*
X162960174Y-117817888D01*
X162938090Y-117795253D01*
X162936790Y-117794268D01*
X162909647Y-117778925D01*
X162884542Y-117779074D01*
X162875132Y-117781966D01*
X162863666Y-117788218D01*
X162851490Y-117800514D01*
X162837143Y-117821408D01*
X162819164Y-117853449D01*
X162796093Y-117899188D01*
X162766470Y-117961177D01*
X162739755Y-118018398D01*
X162709020Y-118084726D01*
X162681479Y-118144374D01*
X162658562Y-118194225D01*
X162641702Y-118231164D01*
X162632327Y-118252073D01*
X162630960Y-118255345D01*
X162624811Y-118249997D01*
X162610678Y-118227609D01*
X162590443Y-118191446D01*
X162565985Y-118144777D01*
X162556252Y-118125522D01*
X162523283Y-118060504D01*
X162497857Y-118013154D01*
X162477888Y-117980719D01*
X162461290Y-117960446D01*
X162445976Y-117949582D01*
X162429860Y-117945375D01*
X162419357Y-117944900D01*
X162400830Y-117946542D01*
X162384596Y-117953331D01*
X162368465Y-117968066D01*
X162350249Y-117993544D01*
X162327761Y-118032561D01*
X162298811Y-118087914D01*
X162282838Y-118119403D01*
X162256930Y-118169587D01*
X162234333Y-118211204D01*
X162217042Y-118240742D01*
X162207050Y-118254689D01*
X162205691Y-118255270D01*
X162199239Y-118244293D01*
X162184792Y-118215790D01*
X162163797Y-118172744D01*
X162137703Y-118118138D01*
X162107954Y-118054954D01*
X162093320Y-118023571D01*
X162055250Y-117942578D01*
X162024595Y-117880256D01*
X161999763Y-117834571D01*
X161979163Y-117803489D01*
X161961202Y-117784978D01*
X161944290Y-117777004D01*
X161926835Y-117777534D01*
G36*
X164653191Y-117775775D02*
G01*
X164524212Y-117780136D01*
X164414509Y-117793361D01*
X164322274Y-117816241D01*
X164245698Y-117849570D01*
X164182973Y-117894138D01*
X164132288Y-117950736D01*
X164091837Y-118020158D01*
X164091041Y-118021851D01*
X164066899Y-118083983D01*
X164058297Y-118139009D01*
X164065269Y-118194387D01*
X164087846Y-118257573D01*
X164092128Y-118267189D01*
X164121328Y-118323466D01*
X164154144Y-118366951D01*
X164196498Y-118403917D01*
X164254310Y-118440635D01*
X164257669Y-118442552D01*
X164307996Y-118466727D01*
X164364879Y-118484782D01*
X164431973Y-118497339D01*
X164512935Y-118505022D01*
X164611418Y-118508453D01*
X164646214Y-118508751D01*
X164811906Y-118509345D01*
X164835303Y-118479600D01*
X164842243Y-118469819D01*
X164847658Y-118458397D01*
X164851735Y-118442595D01*
X164854663Y-118419675D01*
X164856633Y-118386896D01*
X164857275Y-118362589D01*
X164700656Y-118362589D01*
X164606774Y-118362589D01*
X164551836Y-118360983D01*
X164495440Y-118356755D01*
X164449155Y-118350792D01*
X164446361Y-118350290D01*
X164364152Y-118328236D01*
X164300386Y-118295100D01*
X164253048Y-118249347D01*
X164220118Y-118189439D01*
X164214392Y-118173561D01*
X164208779Y-118148833D01*
X164211209Y-118124402D01*
X164223033Y-118091900D01*
X164230160Y-118075934D01*
X164253500Y-118033506D01*
X164281620Y-118003740D01*
X164312560Y-117983011D01*
X164374534Y-117956037D01*
X164453849Y-117936498D01*
X164546247Y-117925246D01*
X164613167Y-117922770D01*
X164700656Y-117922322D01*
X164700656Y-118362589D01*
X164857275Y-118362589D01*
X164857832Y-118341521D01*
X164858450Y-118280811D01*
X164858675Y-118202026D01*
X164858700Y-118140420D01*
X164858700Y-117830985D01*
X164830991Y-117803276D01*
X164818694Y-117792044D01*
X164805397Y-117784353D01*
X164786828Y-117779540D01*
X164758714Y-117776946D01*
X164716783Y-117775910D01*
X164656763Y-117775770D01*
X164653191Y-117775775D01*
X164653191Y-117775775D01*
G37*
X164653191Y-117775775D02*
X164524212Y-117780136D01*
X164414509Y-117793361D01*
X164322274Y-117816241D01*
X164245698Y-117849570D01*
X164182973Y-117894138D01*
X164132288Y-117950736D01*
X164091837Y-118020158D01*
X164091041Y-118021851D01*
X164066899Y-118083983D01*
X164058297Y-118139009D01*
X164065269Y-118194387D01*
X164087846Y-118257573D01*
X164092128Y-118267189D01*
X164121328Y-118323466D01*
X164154144Y-118366951D01*
X164196498Y-118403917D01*
X164254310Y-118440635D01*
X164257669Y-118442552D01*
X164307996Y-118466727D01*
X164364879Y-118484782D01*
X164431973Y-118497339D01*
X164512935Y-118505022D01*
X164611418Y-118508453D01*
X164646214Y-118508751D01*
X164811906Y-118509345D01*
X164835303Y-118479600D01*
X164842243Y-118469819D01*
X164847658Y-118458397D01*
X164851735Y-118442595D01*
X164854663Y-118419675D01*
X164856633Y-118386896D01*
X164857275Y-118362589D01*
X164700656Y-118362589D01*
X164606774Y-118362589D01*
X164551836Y-118360983D01*
X164495440Y-118356755D01*
X164449155Y-118350792D01*
X164446361Y-118350290D01*
X164364152Y-118328236D01*
X164300386Y-118295100D01*
X164253048Y-118249347D01*
X164220118Y-118189439D01*
X164214392Y-118173561D01*
X164208779Y-118148833D01*
X164211209Y-118124402D01*
X164223033Y-118091900D01*
X164230160Y-118075934D01*
X164253500Y-118033506D01*
X164281620Y-118003740D01*
X164312560Y-117983011D01*
X164374534Y-117956037D01*
X164453849Y-117936498D01*
X164546247Y-117925246D01*
X164613167Y-117922770D01*
X164700656Y-117922322D01*
X164700656Y-118362589D01*
X164857275Y-118362589D01*
X164857832Y-118341521D01*
X164858450Y-118280811D01*
X164858675Y-118202026D01*
X164858700Y-118140420D01*
X164858700Y-117830985D01*
X164830991Y-117803276D01*
X164818694Y-117792044D01*
X164805397Y-117784353D01*
X164786828Y-117779540D01*
X164758714Y-117776946D01*
X164716783Y-117775910D01*
X164656763Y-117775770D01*
X164653191Y-117775775D01*
G36*
X165441157Y-117775760D02*
G01*
X165364799Y-117776674D01*
X165306283Y-117778811D01*
X165263245Y-117782675D01*
X165233317Y-117788767D01*
X165214132Y-117797590D01*
X165203324Y-117809646D01*
X165198527Y-117825439D01*
X165197373Y-117845470D01*
X165197367Y-117847835D01*
X165198369Y-117870492D01*
X165203104Y-117888003D01*
X165214167Y-117901074D01*
X165234152Y-117910413D01*
X165265654Y-117916727D01*
X165311268Y-117920722D01*
X165373587Y-117923106D01*
X165455207Y-117924586D01*
X165480223Y-117924914D01*
X165722300Y-117927967D01*
X165725686Y-117992878D01*
X165729071Y-118057789D01*
X165560924Y-118057789D01*
X165495234Y-118058031D01*
X165448328Y-118059056D01*
X165416417Y-118061311D01*
X165395709Y-118065242D01*
X165382416Y-118071298D01*
X165372745Y-118079924D01*
X165372683Y-118079993D01*
X165355144Y-118113612D01*
X165355778Y-118149948D01*
X165374186Y-118180923D01*
X165377829Y-118184107D01*
X165390759Y-118192312D01*
X165408476Y-118198021D01*
X165434930Y-118201662D01*
X165474068Y-118203667D01*
X165529838Y-118204464D01*
X165565506Y-118204545D01*
X165727945Y-118204545D01*
X165727945Y-118362589D01*
X165481339Y-118362589D01*
X165399920Y-118362731D01*
X165338090Y-118363314D01*
X165292863Y-118364568D01*
X165261252Y-118366727D01*
X165240269Y-118370023D01*
X165226927Y-118374689D01*
X165218239Y-118380957D01*
X165216050Y-118383233D01*
X165199886Y-118414780D01*
X165198703Y-118450668D01*
X165211964Y-118481785D01*
X165222457Y-118491771D01*
X165233371Y-118497269D01*
X165250283Y-118501522D01*
X165275867Y-118504680D01*
X165312799Y-118506892D01*
X165363754Y-118508306D01*
X165431406Y-118509072D01*
X165518431Y-118509338D01*
X165538106Y-118509345D01*
X165626589Y-118509287D01*
X165695273Y-118508967D01*
X165746936Y-118508167D01*
X165784355Y-118506667D01*
X165810310Y-118504249D01*
X165827578Y-118500694D01*
X165838938Y-118495782D01*
X165847168Y-118489295D01*
X165851683Y-118484638D01*
X165858479Y-118476389D01*
X165863788Y-118466169D01*
X165867794Y-118451300D01*
X165870679Y-118429102D01*
X165872626Y-118396893D01*
X165873819Y-118351996D01*
X165874439Y-118291728D01*
X165874671Y-118213411D01*
X165874700Y-118147494D01*
X165874629Y-118055128D01*
X165874292Y-117982617D01*
X165873502Y-117927237D01*
X165872074Y-117886265D01*
X165869821Y-117856978D01*
X165866557Y-117836653D01*
X165862096Y-117822566D01*
X165856252Y-117811995D01*
X165851303Y-117805311D01*
X165827906Y-117775567D01*
X165537726Y-117775567D01*
X165441157Y-117775760D01*
X165441157Y-117775760D01*
G37*
X165441157Y-117775760D02*
X165364799Y-117776674D01*
X165306283Y-117778811D01*
X165263245Y-117782675D01*
X165233317Y-117788767D01*
X165214132Y-117797590D01*
X165203324Y-117809646D01*
X165198527Y-117825439D01*
X165197373Y-117845470D01*
X165197367Y-117847835D01*
X165198369Y-117870492D01*
X165203104Y-117888003D01*
X165214167Y-117901074D01*
X165234152Y-117910413D01*
X165265654Y-117916727D01*
X165311268Y-117920722D01*
X165373587Y-117923106D01*
X165455207Y-117924586D01*
X165480223Y-117924914D01*
X165722300Y-117927967D01*
X165725686Y-117992878D01*
X165729071Y-118057789D01*
X165560924Y-118057789D01*
X165495234Y-118058031D01*
X165448328Y-118059056D01*
X165416417Y-118061311D01*
X165395709Y-118065242D01*
X165382416Y-118071298D01*
X165372745Y-118079924D01*
X165372683Y-118079993D01*
X165355144Y-118113612D01*
X165355778Y-118149948D01*
X165374186Y-118180923D01*
X165377829Y-118184107D01*
X165390759Y-118192312D01*
X165408476Y-118198021D01*
X165434930Y-118201662D01*
X165474068Y-118203667D01*
X165529838Y-118204464D01*
X165565506Y-118204545D01*
X165727945Y-118204545D01*
X165727945Y-118362589D01*
X165481339Y-118362589D01*
X165399920Y-118362731D01*
X165338090Y-118363314D01*
X165292863Y-118364568D01*
X165261252Y-118366727D01*
X165240269Y-118370023D01*
X165226927Y-118374689D01*
X165218239Y-118380957D01*
X165216050Y-118383233D01*
X165199886Y-118414780D01*
X165198703Y-118450668D01*
X165211964Y-118481785D01*
X165222457Y-118491771D01*
X165233371Y-118497269D01*
X165250283Y-118501522D01*
X165275867Y-118504680D01*
X165312799Y-118506892D01*
X165363754Y-118508306D01*
X165431406Y-118509072D01*
X165518431Y-118509338D01*
X165538106Y-118509345D01*
X165626589Y-118509287D01*
X165695273Y-118508967D01*
X165746936Y-118508167D01*
X165784355Y-118506667D01*
X165810310Y-118504249D01*
X165827578Y-118500694D01*
X165838938Y-118495782D01*
X165847168Y-118489295D01*
X165851683Y-118484638D01*
X165858479Y-118476389D01*
X165863788Y-118466169D01*
X165867794Y-118451300D01*
X165870679Y-118429102D01*
X165872626Y-118396893D01*
X165873819Y-118351996D01*
X165874439Y-118291728D01*
X165874671Y-118213411D01*
X165874700Y-118147494D01*
X165874629Y-118055128D01*
X165874292Y-117982617D01*
X165873502Y-117927237D01*
X165872074Y-117886265D01*
X165869821Y-117856978D01*
X165866557Y-117836653D01*
X165862096Y-117822566D01*
X165856252Y-117811995D01*
X165851303Y-117805311D01*
X165827906Y-117775567D01*
X165537726Y-117775567D01*
X165441157Y-117775760D01*
G36*
X166971614Y-117779948D02*
G01*
X166948048Y-117793773D01*
X166917235Y-117816381D01*
X166877578Y-117848838D01*
X166827480Y-117892208D01*
X166765343Y-117947558D01*
X166689572Y-118015951D01*
X166602834Y-118094584D01*
X166422211Y-118258378D01*
X166416567Y-118038529D01*
X166414529Y-117962851D01*
X166412563Y-117906494D01*
X166410234Y-117866206D01*
X166407106Y-117838735D01*
X166402745Y-117820829D01*
X166396716Y-117809237D01*
X166388584Y-117800708D01*
X166384272Y-117797123D01*
X166349741Y-117778170D01*
X166316883Y-117780941D01*
X166290818Y-117797133D01*
X166264167Y-117818699D01*
X166260852Y-118133651D01*
X166259935Y-118226279D01*
X166259468Y-118299044D01*
X166259613Y-118354661D01*
X166260532Y-118395842D01*
X166262387Y-118425303D01*
X166265339Y-118445755D01*
X166269550Y-118459913D01*
X166275182Y-118470491D01*
X166281427Y-118478974D01*
X166294939Y-118494707D01*
X166308383Y-118505136D01*
X166323624Y-118509139D01*
X166342526Y-118505594D01*
X166366955Y-118493379D01*
X166398773Y-118471371D01*
X166439848Y-118438449D01*
X166492042Y-118393491D01*
X166557222Y-118335375D01*
X166631056Y-118268599D01*
X166896345Y-118027958D01*
X166901989Y-118247089D01*
X166904031Y-118322628D01*
X166906002Y-118378854D01*
X166908339Y-118419024D01*
X166911481Y-118446396D01*
X166915864Y-118464228D01*
X166921924Y-118475779D01*
X166930100Y-118484307D01*
X166934284Y-118487782D01*
X166971265Y-118506872D01*
X167006208Y-118503993D01*
X167036636Y-118479600D01*
X167043597Y-118469786D01*
X167049023Y-118458326D01*
X167053103Y-118442468D01*
X167056029Y-118419463D01*
X167057992Y-118386562D01*
X167059183Y-118341016D01*
X167059792Y-118280073D01*
X167060011Y-118200986D01*
X167060034Y-118142456D01*
X167059960Y-118050907D01*
X167059613Y-117979187D01*
X167058801Y-117924545D01*
X167057333Y-117884232D01*
X167055019Y-117855498D01*
X167051667Y-117835593D01*
X167047088Y-117821768D01*
X167041089Y-117811272D01*
X167036636Y-117805311D01*
X167025350Y-117791191D01*
X167014801Y-117780529D01*
X167003393Y-117774392D01*
X166989530Y-117773843D01*
X166971614Y-117779948D01*
X166971614Y-117779948D01*
G37*
X166971614Y-117779948D02*
X166948048Y-117793773D01*
X166917235Y-117816381D01*
X166877578Y-117848838D01*
X166827480Y-117892208D01*
X166765343Y-117947558D01*
X166689572Y-118015951D01*
X166602834Y-118094584D01*
X166422211Y-118258378D01*
X166416567Y-118038529D01*
X166414529Y-117962851D01*
X166412563Y-117906494D01*
X166410234Y-117866206D01*
X166407106Y-117838735D01*
X166402745Y-117820829D01*
X166396716Y-117809237D01*
X166388584Y-117800708D01*
X166384272Y-117797123D01*
X166349741Y-117778170D01*
X166316883Y-117780941D01*
X166290818Y-117797133D01*
X166264167Y-117818699D01*
X166260852Y-118133651D01*
X166259935Y-118226279D01*
X166259468Y-118299044D01*
X166259613Y-118354661D01*
X166260532Y-118395842D01*
X166262387Y-118425303D01*
X166265339Y-118445755D01*
X166269550Y-118459913D01*
X166275182Y-118470491D01*
X166281427Y-118478974D01*
X166294939Y-118494707D01*
X166308383Y-118505136D01*
X166323624Y-118509139D01*
X166342526Y-118505594D01*
X166366955Y-118493379D01*
X166398773Y-118471371D01*
X166439848Y-118438449D01*
X166492042Y-118393491D01*
X166557222Y-118335375D01*
X166631056Y-118268599D01*
X166896345Y-118027958D01*
X166901989Y-118247089D01*
X166904031Y-118322628D01*
X166906002Y-118378854D01*
X166908339Y-118419024D01*
X166911481Y-118446396D01*
X166915864Y-118464228D01*
X166921924Y-118475779D01*
X166930100Y-118484307D01*
X166934284Y-118487782D01*
X166971265Y-118506872D01*
X167006208Y-118503993D01*
X167036636Y-118479600D01*
X167043597Y-118469786D01*
X167049023Y-118458326D01*
X167053103Y-118442468D01*
X167056029Y-118419463D01*
X167057992Y-118386562D01*
X167059183Y-118341016D01*
X167059792Y-118280073D01*
X167060011Y-118200986D01*
X167060034Y-118142456D01*
X167059960Y-118050907D01*
X167059613Y-117979187D01*
X167058801Y-117924545D01*
X167057333Y-117884232D01*
X167055019Y-117855498D01*
X167051667Y-117835593D01*
X167047088Y-117821768D01*
X167041089Y-117811272D01*
X167036636Y-117805311D01*
X167025350Y-117791191D01*
X167014801Y-117780529D01*
X167003393Y-117774392D01*
X166989530Y-117773843D01*
X166971614Y-117779948D01*
G36*
X167621581Y-117781099D02*
G01*
X167553065Y-117792595D01*
X167500443Y-117810467D01*
X167466208Y-117833999D01*
X167456879Y-117847424D01*
X167447393Y-117878648D01*
X167453777Y-117906895D01*
X167473930Y-117933682D01*
X167505245Y-117946213D01*
X167550683Y-117945196D01*
X167585826Y-117938406D01*
X167663919Y-117925471D01*
X167743726Y-117924242D01*
X167833055Y-117934741D01*
X167857729Y-117939190D01*
X167940791Y-117962608D01*
X168005773Y-117997445D01*
X168051961Y-118043104D01*
X168078645Y-118098994D01*
X168084163Y-118127888D01*
X168080551Y-118186512D01*
X168057229Y-118238379D01*
X168016324Y-118282478D01*
X167959959Y-118317799D01*
X167890260Y-118343329D01*
X167809352Y-118358059D01*
X167719360Y-118360978D01*
X167622410Y-118351075D01*
X167616936Y-118350141D01*
X167578375Y-118342959D01*
X167556994Y-118336021D01*
X167547727Y-118325727D01*
X167545506Y-118308476D01*
X167545456Y-118299341D01*
X167545456Y-118260989D01*
X167613931Y-118260989D01*
X167674400Y-118256847D01*
X167715665Y-118243647D01*
X167739675Y-118220230D01*
X167748377Y-118185436D01*
X167748483Y-118180894D01*
X167743392Y-118151154D01*
X167725933Y-118129919D01*
X167693439Y-118115866D01*
X167643243Y-118107673D01*
X167594623Y-118104661D01*
X167523956Y-118102933D01*
X167472698Y-118105570D01*
X167437739Y-118115300D01*
X167415970Y-118134853D01*
X167404280Y-118166956D01*
X167399560Y-118214338D01*
X167398700Y-118276571D01*
X167400109Y-118346035D01*
X167404348Y-118393286D01*
X167411436Y-118418512D01*
X167412811Y-118420488D01*
X167451728Y-118452008D01*
X167508786Y-118476970D01*
X167580369Y-118494840D01*
X167662858Y-118505086D01*
X167752639Y-118507173D01*
X167846092Y-118500568D01*
X167901056Y-118492456D01*
X167987266Y-118468054D01*
X168067392Y-118428162D01*
X168134477Y-118376387D01*
X168144673Y-118366039D01*
X168177802Y-118322535D01*
X168207694Y-118268618D01*
X168230857Y-118212092D01*
X168243798Y-118160759D01*
X168245358Y-118141044D01*
X168238718Y-118099919D01*
X168221068Y-118048752D01*
X168195797Y-117994894D01*
X168166289Y-117945695D01*
X168140219Y-117912834D01*
X168079265Y-117863952D01*
X168000469Y-117825045D01*
X167906657Y-117796994D01*
X167800650Y-117780679D01*
X167703500Y-117776692D01*
X167621581Y-117781099D01*
X167621581Y-117781099D01*
G37*
X167621581Y-117781099D02*
X167553065Y-117792595D01*
X167500443Y-117810467D01*
X167466208Y-117833999D01*
X167456879Y-117847424D01*
X167447393Y-117878648D01*
X167453777Y-117906895D01*
X167473930Y-117933682D01*
X167505245Y-117946213D01*
X167550683Y-117945196D01*
X167585826Y-117938406D01*
X167663919Y-117925471D01*
X167743726Y-117924242D01*
X167833055Y-117934741D01*
X167857729Y-117939190D01*
X167940791Y-117962608D01*
X168005773Y-117997445D01*
X168051961Y-118043104D01*
X168078645Y-118098994D01*
X168084163Y-118127888D01*
X168080551Y-118186512D01*
X168057229Y-118238379D01*
X168016324Y-118282478D01*
X167959959Y-118317799D01*
X167890260Y-118343329D01*
X167809352Y-118358059D01*
X167719360Y-118360978D01*
X167622410Y-118351075D01*
X167616936Y-118350141D01*
X167578375Y-118342959D01*
X167556994Y-118336021D01*
X167547727Y-118325727D01*
X167545506Y-118308476D01*
X167545456Y-118299341D01*
X167545456Y-118260989D01*
X167613931Y-118260989D01*
X167674400Y-118256847D01*
X167715665Y-118243647D01*
X167739675Y-118220230D01*
X167748377Y-118185436D01*
X167748483Y-118180894D01*
X167743392Y-118151154D01*
X167725933Y-118129919D01*
X167693439Y-118115866D01*
X167643243Y-118107673D01*
X167594623Y-118104661D01*
X167523956Y-118102933D01*
X167472698Y-118105570D01*
X167437739Y-118115300D01*
X167415970Y-118134853D01*
X167404280Y-118166956D01*
X167399560Y-118214338D01*
X167398700Y-118276571D01*
X167400109Y-118346035D01*
X167404348Y-118393286D01*
X167411436Y-118418512D01*
X167412811Y-118420488D01*
X167451728Y-118452008D01*
X167508786Y-118476970D01*
X167580369Y-118494840D01*
X167662858Y-118505086D01*
X167752639Y-118507173D01*
X167846092Y-118500568D01*
X167901056Y-118492456D01*
X167987266Y-118468054D01*
X168067392Y-118428162D01*
X168134477Y-118376387D01*
X168144673Y-118366039D01*
X168177802Y-118322535D01*
X168207694Y-118268618D01*
X168230857Y-118212092D01*
X168243798Y-118160759D01*
X168245358Y-118141044D01*
X168238718Y-118099919D01*
X168221068Y-118048752D01*
X168195797Y-117994894D01*
X168166289Y-117945695D01*
X168140219Y-117912834D01*
X168079265Y-117863952D01*
X168000469Y-117825045D01*
X167906657Y-117796994D01*
X167800650Y-117780679D01*
X167703500Y-117776692D01*
X167621581Y-117781099D01*
G36*
X168595322Y-117798145D02*
G01*
X168588742Y-117805718D01*
X168583579Y-117815487D01*
X168579664Y-117830071D01*
X168576824Y-117852085D01*
X168574887Y-117884148D01*
X168573683Y-117928875D01*
X168573039Y-117988885D01*
X168572784Y-118066794D01*
X168572745Y-118142456D01*
X168572814Y-118236302D01*
X168573138Y-118310189D01*
X168573886Y-118366732D01*
X168575232Y-118408549D01*
X168577346Y-118438257D01*
X168580400Y-118458473D01*
X168584566Y-118471814D01*
X168590016Y-118480898D01*
X168595322Y-118486767D01*
X168628326Y-118506447D01*
X168663491Y-118504681D01*
X168694955Y-118483217D01*
X168702184Y-118474837D01*
X168707834Y-118465114D01*
X168712099Y-118451361D01*
X168715173Y-118430889D01*
X168717252Y-118401012D01*
X168718530Y-118359041D01*
X168719201Y-118302289D01*
X168719459Y-118228067D01*
X168719500Y-118144037D01*
X168719500Y-117830985D01*
X168691791Y-117803276D01*
X168657637Y-117779963D01*
X168624506Y-117779123D01*
X168595322Y-117798145D01*
X168595322Y-117798145D01*
G37*
X168595322Y-117798145D02*
X168588742Y-117805718D01*
X168583579Y-117815487D01*
X168579664Y-117830071D01*
X168576824Y-117852085D01*
X168574887Y-117884148D01*
X168573683Y-117928875D01*
X168573039Y-117988885D01*
X168572784Y-118066794D01*
X168572745Y-118142456D01*
X168572814Y-118236302D01*
X168573138Y-118310189D01*
X168573886Y-118366732D01*
X168575232Y-118408549D01*
X168577346Y-118438257D01*
X168580400Y-118458473D01*
X168584566Y-118471814D01*
X168590016Y-118480898D01*
X168595322Y-118486767D01*
X168628326Y-118506447D01*
X168663491Y-118504681D01*
X168694955Y-118483217D01*
X168702184Y-118474837D01*
X168707834Y-118465114D01*
X168712099Y-118451361D01*
X168715173Y-118430889D01*
X168717252Y-118401012D01*
X168718530Y-118359041D01*
X168719201Y-118302289D01*
X168719459Y-118228067D01*
X168719500Y-118144037D01*
X168719500Y-117830985D01*
X168691791Y-117803276D01*
X168657637Y-117779963D01*
X168624506Y-117779123D01*
X168595322Y-117798145D01*
G36*
X169363203Y-117776851D02*
G01*
X169288388Y-117782081D01*
X169218806Y-117790250D01*
X169158502Y-117801050D01*
X169111520Y-117814173D01*
X169081906Y-117829313D01*
X169077360Y-117833769D01*
X169061554Y-117868350D01*
X169066347Y-117903851D01*
X169090864Y-117934225D01*
X169092034Y-117935096D01*
X169106454Y-117944454D01*
X169121508Y-117949376D01*
X169142505Y-117949973D01*
X169174757Y-117946361D01*
X169223573Y-117938654D01*
X169227500Y-117938005D01*
X169300239Y-117929069D01*
X169378717Y-117924661D01*
X169457427Y-117924619D01*
X169530861Y-117928779D01*
X169593511Y-117936979D01*
X169639870Y-117949057D01*
X169642916Y-117950271D01*
X169676548Y-117969115D01*
X169688364Y-117988185D01*
X169679114Y-118006939D01*
X169649547Y-118024837D01*
X169600411Y-118041337D01*
X169532457Y-118055896D01*
X169487145Y-118062906D01*
X169392956Y-118076389D01*
X169318044Y-118088714D01*
X169259217Y-118100949D01*
X169213285Y-118114161D01*
X169177055Y-118129417D01*
X169147338Y-118147785D01*
X169120942Y-118170331D01*
X169099730Y-118192471D01*
X169074565Y-118223319D01*
X169062181Y-118249845D01*
X169058308Y-118282526D01*
X169058167Y-118294495D01*
X169061076Y-118334212D01*
X169072702Y-118363759D01*
X169092823Y-118389986D01*
X169133716Y-118430076D01*
X169179317Y-118460649D01*
X169233013Y-118482703D01*
X169298192Y-118497235D01*
X169378244Y-118505241D01*
X169476557Y-118507718D01*
X169492789Y-118507677D01*
X169558349Y-118506318D01*
X169623366Y-118503230D01*
X169680752Y-118498856D01*
X169723422Y-118493640D01*
X169726872Y-118493041D01*
X169769296Y-118482991D01*
X169805280Y-118470296D01*
X169825650Y-118458690D01*
X169844607Y-118428072D01*
X169845927Y-118392418D01*
X169829585Y-118360644D01*
X169825929Y-118357051D01*
X169810815Y-118346376D01*
X169791915Y-118341776D01*
X169762662Y-118342559D01*
X169727151Y-118346627D01*
X169687470Y-118350262D01*
X169631845Y-118353328D01*
X169566906Y-118355553D01*
X169499285Y-118356664D01*
X169481500Y-118356737D01*
X169413628Y-118356464D01*
X169363954Y-118355146D01*
X169328110Y-118352327D01*
X169301724Y-118347550D01*
X169280426Y-118340357D01*
X169267626Y-118334367D01*
X169239500Y-118317733D01*
X169221568Y-118302668D01*
X169218947Y-118298397D01*
X169224476Y-118280763D01*
X169250760Y-118263692D01*
X169295978Y-118247958D01*
X169358308Y-118234338D01*
X169376671Y-118231304D01*
X169472590Y-118216238D01*
X169549141Y-118203646D01*
X169609280Y-118192611D01*
X169655960Y-118182220D01*
X169692137Y-118171556D01*
X169720765Y-118159705D01*
X169744798Y-118145751D01*
X169767192Y-118128781D01*
X169790902Y-118107878D01*
X169798880Y-118100549D01*
X169826853Y-118073199D01*
X169841660Y-118051529D01*
X169847452Y-118026732D01*
X169848389Y-117995483D01*
X169838075Y-117934205D01*
X169807252Y-117882140D01*
X169756095Y-117839458D01*
X169684783Y-117806325D01*
X169633900Y-117791464D01*
X169578600Y-117781866D01*
X169512353Y-117776436D01*
X169439206Y-117774867D01*
X169363203Y-117776851D01*
X169363203Y-117776851D01*
G37*
X169363203Y-117776851D02*
X169288388Y-117782081D01*
X169218806Y-117790250D01*
X169158502Y-117801050D01*
X169111520Y-117814173D01*
X169081906Y-117829313D01*
X169077360Y-117833769D01*
X169061554Y-117868350D01*
X169066347Y-117903851D01*
X169090864Y-117934225D01*
X169092034Y-117935096D01*
X169106454Y-117944454D01*
X169121508Y-117949376D01*
X169142505Y-117949973D01*
X169174757Y-117946361D01*
X169223573Y-117938654D01*
X169227500Y-117938005D01*
X169300239Y-117929069D01*
X169378717Y-117924661D01*
X169457427Y-117924619D01*
X169530861Y-117928779D01*
X169593511Y-117936979D01*
X169639870Y-117949057D01*
X169642916Y-117950271D01*
X169676548Y-117969115D01*
X169688364Y-117988185D01*
X169679114Y-118006939D01*
X169649547Y-118024837D01*
X169600411Y-118041337D01*
X169532457Y-118055896D01*
X169487145Y-118062906D01*
X169392956Y-118076389D01*
X169318044Y-118088714D01*
X169259217Y-118100949D01*
X169213285Y-118114161D01*
X169177055Y-118129417D01*
X169147338Y-118147785D01*
X169120942Y-118170331D01*
X169099730Y-118192471D01*
X169074565Y-118223319D01*
X169062181Y-118249845D01*
X169058308Y-118282526D01*
X169058167Y-118294495D01*
X169061076Y-118334212D01*
X169072702Y-118363759D01*
X169092823Y-118389986D01*
X169133716Y-118430076D01*
X169179317Y-118460649D01*
X169233013Y-118482703D01*
X169298192Y-118497235D01*
X169378244Y-118505241D01*
X169476557Y-118507718D01*
X169492789Y-118507677D01*
X169558349Y-118506318D01*
X169623366Y-118503230D01*
X169680752Y-118498856D01*
X169723422Y-118493640D01*
X169726872Y-118493041D01*
X169769296Y-118482991D01*
X169805280Y-118470296D01*
X169825650Y-118458690D01*
X169844607Y-118428072D01*
X169845927Y-118392418D01*
X169829585Y-118360644D01*
X169825929Y-118357051D01*
X169810815Y-118346376D01*
X169791915Y-118341776D01*
X169762662Y-118342559D01*
X169727151Y-118346627D01*
X169687470Y-118350262D01*
X169631845Y-118353328D01*
X169566906Y-118355553D01*
X169499285Y-118356664D01*
X169481500Y-118356737D01*
X169413628Y-118356464D01*
X169363954Y-118355146D01*
X169328110Y-118352327D01*
X169301724Y-118347550D01*
X169280426Y-118340357D01*
X169267626Y-118334367D01*
X169239500Y-118317733D01*
X169221568Y-118302668D01*
X169218947Y-118298397D01*
X169224476Y-118280763D01*
X169250760Y-118263692D01*
X169295978Y-118247958D01*
X169358308Y-118234338D01*
X169376671Y-118231304D01*
X169472590Y-118216238D01*
X169549141Y-118203646D01*
X169609280Y-118192611D01*
X169655960Y-118182220D01*
X169692137Y-118171556D01*
X169720765Y-118159705D01*
X169744798Y-118145751D01*
X169767192Y-118128781D01*
X169790902Y-118107878D01*
X169798880Y-118100549D01*
X169826853Y-118073199D01*
X169841660Y-118051529D01*
X169847452Y-118026732D01*
X169848389Y-117995483D01*
X169838075Y-117934205D01*
X169807252Y-117882140D01*
X169756095Y-117839458D01*
X169684783Y-117806325D01*
X169633900Y-117791464D01*
X169578600Y-117781866D01*
X169512353Y-117776436D01*
X169439206Y-117774867D01*
X169363203Y-117776851D01*
G36*
X170384294Y-117775646D02*
G01*
X170314886Y-117776018D01*
X170262497Y-117776885D01*
X170224347Y-117778446D01*
X170197659Y-117780903D01*
X170179653Y-117784457D01*
X170167549Y-117789310D01*
X170158569Y-117795661D01*
X170155318Y-117798584D01*
X170135543Y-117829642D01*
X170131982Y-117865328D01*
X170144991Y-117897010D01*
X170151006Y-117903413D01*
X170160735Y-117909621D01*
X170176401Y-117914410D01*
X170200908Y-117918014D01*
X170237161Y-117920664D01*
X170288065Y-117922595D01*
X170356526Y-117924039D01*
X170419117Y-117924918D01*
X170666834Y-117927967D01*
X170670219Y-117992878D01*
X170673605Y-118057789D01*
X170505458Y-118057789D01*
X170432459Y-118058419D01*
X170379017Y-118061053D01*
X170342128Y-118066809D01*
X170318788Y-118076804D01*
X170305994Y-118092156D01*
X170300742Y-118113982D01*
X170299945Y-118134238D01*
X170302423Y-118159092D01*
X170311777Y-118177406D01*
X170330883Y-118190137D01*
X170362618Y-118198241D01*
X170409859Y-118202676D01*
X170475483Y-118204399D01*
X170511301Y-118204545D01*
X170672478Y-118204545D01*
X170672478Y-118362589D01*
X170424122Y-118362589D01*
X170342713Y-118362702D01*
X170280842Y-118363212D01*
X170235468Y-118364370D01*
X170203554Y-118366430D01*
X170182059Y-118369646D01*
X170167943Y-118374272D01*
X170158168Y-118380559D01*
X170153189Y-118385167D01*
X170136110Y-118412060D01*
X170130611Y-118435967D01*
X170138463Y-118465167D01*
X170153189Y-118486767D01*
X170161046Y-118493566D01*
X170171188Y-118498846D01*
X170186344Y-118502798D01*
X170209241Y-118505613D01*
X170242609Y-118507482D01*
X170289175Y-118508598D01*
X170351667Y-118509151D01*
X170432814Y-118509333D01*
X170474922Y-118509345D01*
X170565098Y-118509265D01*
X170635424Y-118508898D01*
X170688629Y-118508052D01*
X170727440Y-118506536D01*
X170754587Y-118504159D01*
X170772798Y-118500729D01*
X170784800Y-118496054D01*
X170793322Y-118489944D01*
X170796656Y-118486767D01*
X170803255Y-118479170D01*
X170808427Y-118469370D01*
X170812346Y-118454739D01*
X170815184Y-118432652D01*
X170817115Y-118400482D01*
X170818312Y-118355603D01*
X170818948Y-118295389D01*
X170819197Y-118217213D01*
X170819234Y-118144423D01*
X170819200Y-118051207D01*
X170818965Y-117977931D01*
X170818330Y-117921958D01*
X170817094Y-117880651D01*
X170815056Y-117851372D01*
X170812017Y-117831484D01*
X170807777Y-117818350D01*
X170802135Y-117809332D01*
X170794891Y-117801793D01*
X170793106Y-117800112D01*
X170784445Y-117792672D01*
X170774382Y-117786909D01*
X170760125Y-117782612D01*
X170738883Y-117779564D01*
X170707864Y-117777551D01*
X170664277Y-117776360D01*
X170605331Y-117775775D01*
X170528234Y-117775583D01*
X170473501Y-117775567D01*
X170384294Y-117775646D01*
X170384294Y-117775646D01*
G37*
X170384294Y-117775646D02*
X170314886Y-117776018D01*
X170262497Y-117776885D01*
X170224347Y-117778446D01*
X170197659Y-117780903D01*
X170179653Y-117784457D01*
X170167549Y-117789310D01*
X170158569Y-117795661D01*
X170155318Y-117798584D01*
X170135543Y-117829642D01*
X170131982Y-117865328D01*
X170144991Y-117897010D01*
X170151006Y-117903413D01*
X170160735Y-117909621D01*
X170176401Y-117914410D01*
X170200908Y-117918014D01*
X170237161Y-117920664D01*
X170288065Y-117922595D01*
X170356526Y-117924039D01*
X170419117Y-117924918D01*
X170666834Y-117927967D01*
X170670219Y-117992878D01*
X170673605Y-118057789D01*
X170505458Y-118057789D01*
X170432459Y-118058419D01*
X170379017Y-118061053D01*
X170342128Y-118066809D01*
X170318788Y-118076804D01*
X170305994Y-118092156D01*
X170300742Y-118113982D01*
X170299945Y-118134238D01*
X170302423Y-118159092D01*
X170311777Y-118177406D01*
X170330883Y-118190137D01*
X170362618Y-118198241D01*
X170409859Y-118202676D01*
X170475483Y-118204399D01*
X170511301Y-118204545D01*
X170672478Y-118204545D01*
X170672478Y-118362589D01*
X170424122Y-118362589D01*
X170342713Y-118362702D01*
X170280842Y-118363212D01*
X170235468Y-118364370D01*
X170203554Y-118366430D01*
X170182059Y-118369646D01*
X170167943Y-118374272D01*
X170158168Y-118380559D01*
X170153189Y-118385167D01*
X170136110Y-118412060D01*
X170130611Y-118435967D01*
X170138463Y-118465167D01*
X170153189Y-118486767D01*
X170161046Y-118493566D01*
X170171188Y-118498846D01*
X170186344Y-118502798D01*
X170209241Y-118505613D01*
X170242609Y-118507482D01*
X170289175Y-118508598D01*
X170351667Y-118509151D01*
X170432814Y-118509333D01*
X170474922Y-118509345D01*
X170565098Y-118509265D01*
X170635424Y-118508898D01*
X170688629Y-118508052D01*
X170727440Y-118506536D01*
X170754587Y-118504159D01*
X170772798Y-118500729D01*
X170784800Y-118496054D01*
X170793322Y-118489944D01*
X170796656Y-118486767D01*
X170803255Y-118479170D01*
X170808427Y-118469370D01*
X170812346Y-118454739D01*
X170815184Y-118432652D01*
X170817115Y-118400482D01*
X170818312Y-118355603D01*
X170818948Y-118295389D01*
X170819197Y-118217213D01*
X170819234Y-118144423D01*
X170819200Y-118051207D01*
X170818965Y-117977931D01*
X170818330Y-117921958D01*
X170817094Y-117880651D01*
X170815056Y-117851372D01*
X170812017Y-117831484D01*
X170807777Y-117818350D01*
X170802135Y-117809332D01*
X170794891Y-117801793D01*
X170793106Y-117800112D01*
X170784445Y-117792672D01*
X170774382Y-117786909D01*
X170760125Y-117782612D01*
X170738883Y-117779564D01*
X170707864Y-117777551D01*
X170664277Y-117776360D01*
X170605331Y-117775775D01*
X170528234Y-117775583D01*
X170473501Y-117775567D01*
X170384294Y-117775646D01*
G36*
X171792871Y-117775566D02*
G01*
X171753389Y-117775967D01*
X171637700Y-117778759D01*
X171540811Y-117787050D01*
X171459419Y-117801732D01*
X171390223Y-117823693D01*
X171329920Y-117853822D01*
X171275208Y-117893010D01*
X171255667Y-117910032D01*
X171223250Y-117949863D01*
X171194020Y-118003913D01*
X171171491Y-118063823D01*
X171159179Y-118121239D01*
X171157900Y-118142456D01*
X171165917Y-118201269D01*
X171187399Y-118265513D01*
X171218499Y-118326321D01*
X171255366Y-118374830D01*
X171261354Y-118380682D01*
X171312079Y-118421821D01*
X171367625Y-118453935D01*
X171431196Y-118477865D01*
X171505994Y-118494453D01*
X171595222Y-118504541D01*
X171702082Y-118508969D01*
X171751028Y-118509345D01*
X171813262Y-118509045D01*
X171857028Y-118507792D01*
X171886431Y-118505054D01*
X171905579Y-118500301D01*
X171918577Y-118493001D01*
X171925545Y-118486767D01*
X171932126Y-118479194D01*
X171937288Y-118469424D01*
X171941203Y-118454840D01*
X171944043Y-118432826D01*
X171945980Y-118400764D01*
X171947184Y-118356036D01*
X171947828Y-118296026D01*
X171948083Y-118218117D01*
X171948122Y-118142456D01*
X171948370Y-118041541D01*
X171948317Y-117960927D01*
X171947357Y-117922322D01*
X171801367Y-117922322D01*
X171801367Y-118362589D01*
X171708234Y-118362504D01*
X171652193Y-118360896D01*
X171593499Y-118356756D01*
X171544528Y-118350964D01*
X171543038Y-118350726D01*
X171463892Y-118331590D01*
X171402502Y-118301787D01*
X171355805Y-118259378D01*
X171326135Y-118213461D01*
X171307853Y-118162526D01*
X171309271Y-118114700D01*
X171330488Y-118063433D01*
X171371989Y-118010399D01*
X171429498Y-117971100D01*
X171504250Y-117944831D01*
X171554208Y-117935535D01*
X171610916Y-117929007D01*
X171671019Y-117924282D01*
X171722139Y-117922317D01*
X171725167Y-117922308D01*
X171801367Y-117922322D01*
X171947357Y-117922322D01*
X171946760Y-117898351D01*
X171942498Y-117851555D01*
X171934330Y-117818278D01*
X171921056Y-117796259D01*
X171901474Y-117783239D01*
X171874383Y-117776957D01*
X171838582Y-117775153D01*
X171792871Y-117775566D01*
X171792871Y-117775566D01*
G37*
X171792871Y-117775566D02*
X171753389Y-117775967D01*
X171637700Y-117778759D01*
X171540811Y-117787050D01*
X171459419Y-117801732D01*
X171390223Y-117823693D01*
X171329920Y-117853822D01*
X171275208Y-117893010D01*
X171255667Y-117910032D01*
X171223250Y-117949863D01*
X171194020Y-118003913D01*
X171171491Y-118063823D01*
X171159179Y-118121239D01*
X171157900Y-118142456D01*
X171165917Y-118201269D01*
X171187399Y-118265513D01*
X171218499Y-118326321D01*
X171255366Y-118374830D01*
X171261354Y-118380682D01*
X171312079Y-118421821D01*
X171367625Y-118453935D01*
X171431196Y-118477865D01*
X171505994Y-118494453D01*
X171595222Y-118504541D01*
X171702082Y-118508969D01*
X171751028Y-118509345D01*
X171813262Y-118509045D01*
X171857028Y-118507792D01*
X171886431Y-118505054D01*
X171905579Y-118500301D01*
X171918577Y-118493001D01*
X171925545Y-118486767D01*
X171932126Y-118479194D01*
X171937288Y-118469424D01*
X171941203Y-118454840D01*
X171944043Y-118432826D01*
X171945980Y-118400764D01*
X171947184Y-118356036D01*
X171947828Y-118296026D01*
X171948083Y-118218117D01*
X171948122Y-118142456D01*
X171948370Y-118041541D01*
X171948317Y-117960927D01*
X171947357Y-117922322D01*
X171801367Y-117922322D01*
X171801367Y-118362589D01*
X171708234Y-118362504D01*
X171652193Y-118360896D01*
X171593499Y-118356756D01*
X171544528Y-118350964D01*
X171543038Y-118350726D01*
X171463892Y-118331590D01*
X171402502Y-118301787D01*
X171355805Y-118259378D01*
X171326135Y-118213461D01*
X171307853Y-118162526D01*
X171309271Y-118114700D01*
X171330488Y-118063433D01*
X171371989Y-118010399D01*
X171429498Y-117971100D01*
X171504250Y-117944831D01*
X171554208Y-117935535D01*
X171610916Y-117929007D01*
X171671019Y-117924282D01*
X171722139Y-117922317D01*
X171725167Y-117922308D01*
X171801367Y-117922322D01*
X171947357Y-117922322D01*
X171946760Y-117898351D01*
X171942498Y-117851555D01*
X171934330Y-117818278D01*
X171921056Y-117796259D01*
X171901474Y-117783239D01*
X171874383Y-117776957D01*
X171838582Y-117775153D01*
X171792871Y-117775566D01*
G36*
X167944543Y-112533071D02*
G01*
X167848268Y-112557309D01*
X167761684Y-112600141D01*
X167686873Y-112659919D01*
X167625918Y-112734994D01*
X167580899Y-112823720D01*
X167554636Y-112920030D01*
X167548786Y-113017295D01*
X167563640Y-113111154D01*
X167597340Y-113199011D01*
X167648028Y-113278270D01*
X167713845Y-113346336D01*
X167792934Y-113400612D01*
X167883434Y-113438502D01*
X167934700Y-113450926D01*
X167979198Y-113458447D01*
X168013499Y-113461419D01*
X168046460Y-113459594D01*
X168086934Y-113452725D01*
X168120031Y-113445750D01*
X168213447Y-113414241D01*
X168297119Y-113363117D01*
X168369165Y-113293929D01*
X168427700Y-113208228D01*
X168441648Y-113180989D01*
X168458086Y-113144622D01*
X168468394Y-113114082D01*
X168473960Y-113081950D01*
X168476169Y-113040807D01*
X168476448Y-112994722D01*
X168472361Y-112910365D01*
X168458946Y-112841086D01*
X168433756Y-112780461D01*
X168394346Y-112722067D01*
X168355798Y-112677802D01*
X168283906Y-112611984D01*
X168208813Y-112566553D01*
X168126062Y-112539350D01*
X168048428Y-112529076D01*
X167944543Y-112533071D01*
X167944543Y-112533071D01*
G37*
X167944543Y-112533071D02*
X167848268Y-112557309D01*
X167761684Y-112600141D01*
X167686873Y-112659919D01*
X167625918Y-112734994D01*
X167580899Y-112823720D01*
X167554636Y-112920030D01*
X167548786Y-113017295D01*
X167563640Y-113111154D01*
X167597340Y-113199011D01*
X167648028Y-113278270D01*
X167713845Y-113346336D01*
X167792934Y-113400612D01*
X167883434Y-113438502D01*
X167934700Y-113450926D01*
X167979198Y-113458447D01*
X168013499Y-113461419D01*
X168046460Y-113459594D01*
X168086934Y-113452725D01*
X168120031Y-113445750D01*
X168213447Y-113414241D01*
X168297119Y-113363117D01*
X168369165Y-113293929D01*
X168427700Y-113208228D01*
X168441648Y-113180989D01*
X168458086Y-113144622D01*
X168468394Y-113114082D01*
X168473960Y-113081950D01*
X168476169Y-113040807D01*
X168476448Y-112994722D01*
X168472361Y-112910365D01*
X168458946Y-112841086D01*
X168433756Y-112780461D01*
X168394346Y-112722067D01*
X168355798Y-112677802D01*
X168283906Y-112611984D01*
X168208813Y-112566553D01*
X168126062Y-112539350D01*
X168048428Y-112529076D01*
X167944543Y-112533071D01*
G36*
X159484993Y-114978745D02*
G01*
X159484974Y-115213162D01*
X159484948Y-115426103D01*
X159484875Y-115618668D01*
X159484718Y-115791959D01*
X159484436Y-115947076D01*
X159483991Y-116085120D01*
X159483344Y-116207192D01*
X159482455Y-116314394D01*
X159481287Y-116407826D01*
X159479799Y-116488590D01*
X159477954Y-116557786D01*
X159475711Y-116616515D01*
X159473031Y-116665879D01*
X159469877Y-116706978D01*
X159466208Y-116740913D01*
X159461987Y-116768786D01*
X159457173Y-116791698D01*
X159451727Y-116810749D01*
X159445612Y-116827040D01*
X159438788Y-116841673D01*
X159431215Y-116855749D01*
X159422855Y-116870368D01*
X159417661Y-116879474D01*
X159383396Y-116940189D01*
X160241545Y-116940189D01*
X160241545Y-116844233D01*
X160242276Y-116800870D01*
X160244228Y-116767705D01*
X160247037Y-116749924D01*
X160248279Y-116748278D01*
X160259701Y-116755162D01*
X160282416Y-116773005D01*
X160305115Y-116792379D01*
X160359700Y-116833114D01*
X160429179Y-116874117D01*
X160506230Y-116911623D01*
X160583535Y-116941864D01*
X160614387Y-116951512D01*
X160682884Y-116966078D01*
X160765736Y-116976039D01*
X160855129Y-116981083D01*
X160943252Y-116980896D01*
X161022293Y-116975166D01*
X161059989Y-116969358D01*
X161198086Y-116931297D01*
X161325387Y-116873573D01*
X161441208Y-116796711D01*
X161544863Y-116701239D01*
X161635667Y-116587679D01*
X161702469Y-116476881D01*
X161757336Y-116360125D01*
X161799337Y-116240776D01*
X161829333Y-116114783D01*
X161848189Y-115978094D01*
X161856768Y-115826658D01*
X161857494Y-115749211D01*
X161855400Y-115692434D01*
X161026283Y-115692434D01*
X161026076Y-115785502D01*
X161023163Y-115873192D01*
X161017500Y-115950272D01*
X161009045Y-116011509D01*
X161006462Y-116023850D01*
X160974660Y-116131133D01*
X160933002Y-116218158D01*
X160881137Y-116285142D01*
X160818719Y-116332305D01*
X160745400Y-116359865D01*
X160660831Y-116368041D01*
X160564665Y-116357051D01*
X160501189Y-116341329D01*
X160452046Y-116323139D01*
X160397917Y-116297291D01*
X160357256Y-116273589D01*
X160286700Y-116227221D01*
X160286700Y-115077030D01*
X160354108Y-115033462D01*
X160432633Y-114992540D01*
X160516819Y-114965889D01*
X160601943Y-114953965D01*
X160683284Y-114957222D01*
X160756120Y-114976115D01*
X160788074Y-114991684D01*
X160845999Y-115034681D01*
X160894956Y-115091453D01*
X160936110Y-115164075D01*
X160970626Y-115254621D01*
X160999667Y-115365166D01*
X161000948Y-115371033D01*
X161011119Y-115433288D01*
X161018761Y-115511094D01*
X161023830Y-115599220D01*
X161026283Y-115692434D01*
X161855400Y-115692434D01*
X161849643Y-115536395D01*
X161827698Y-115340559D01*
X161791714Y-115161832D01*
X161741741Y-115000345D01*
X161677832Y-114856226D01*
X161600038Y-114729606D01*
X161508411Y-114620615D01*
X161403003Y-114529383D01*
X161357838Y-114498432D01*
X161256889Y-114442285D01*
X161153599Y-114402674D01*
X161043511Y-114378514D01*
X160922170Y-114368719D01*
X160829664Y-114369765D01*
X160700010Y-114380731D01*
X160587416Y-114402546D01*
X160488625Y-114436214D01*
X160400379Y-114482736D01*
X160351514Y-114516948D01*
X160322147Y-114538862D01*
X160300457Y-114553833D01*
X160292247Y-114558233D01*
X160290632Y-114547404D01*
X160289341Y-114516751D01*
X160288362Y-114469026D01*
X160287683Y-114406979D01*
X160287290Y-114333362D01*
X160287170Y-114250927D01*
X160287312Y-114162425D01*
X160287703Y-114070607D01*
X160288329Y-113978224D01*
X160289180Y-113888028D01*
X160290240Y-113802771D01*
X160291499Y-113725203D01*
X160292944Y-113658076D01*
X160294562Y-113604141D01*
X160296339Y-113566150D01*
X160296831Y-113559167D01*
X160304408Y-113488751D01*
X160315969Y-113433602D01*
X160333708Y-113386481D01*
X160359818Y-113340147D01*
X160366085Y-113330567D01*
X160390517Y-113293878D01*
X159485189Y-113293878D01*
X159484993Y-114978745D01*
X159484993Y-114978745D01*
G37*
X159484993Y-114978745D02*
X159484974Y-115213162D01*
X159484948Y-115426103D01*
X159484875Y-115618668D01*
X159484718Y-115791959D01*
X159484436Y-115947076D01*
X159483991Y-116085120D01*
X159483344Y-116207192D01*
X159482455Y-116314394D01*
X159481287Y-116407826D01*
X159479799Y-116488590D01*
X159477954Y-116557786D01*
X159475711Y-116616515D01*
X159473031Y-116665879D01*
X159469877Y-116706978D01*
X159466208Y-116740913D01*
X159461987Y-116768786D01*
X159457173Y-116791698D01*
X159451727Y-116810749D01*
X159445612Y-116827040D01*
X159438788Y-116841673D01*
X159431215Y-116855749D01*
X159422855Y-116870368D01*
X159417661Y-116879474D01*
X159383396Y-116940189D01*
X160241545Y-116940189D01*
X160241545Y-116844233D01*
X160242276Y-116800870D01*
X160244228Y-116767705D01*
X160247037Y-116749924D01*
X160248279Y-116748278D01*
X160259701Y-116755162D01*
X160282416Y-116773005D01*
X160305115Y-116792379D01*
X160359700Y-116833114D01*
X160429179Y-116874117D01*
X160506230Y-116911623D01*
X160583535Y-116941864D01*
X160614387Y-116951512D01*
X160682884Y-116966078D01*
X160765736Y-116976039D01*
X160855129Y-116981083D01*
X160943252Y-116980896D01*
X161022293Y-116975166D01*
X161059989Y-116969358D01*
X161198086Y-116931297D01*
X161325387Y-116873573D01*
X161441208Y-116796711D01*
X161544863Y-116701239D01*
X161635667Y-116587679D01*
X161702469Y-116476881D01*
X161757336Y-116360125D01*
X161799337Y-116240776D01*
X161829333Y-116114783D01*
X161848189Y-115978094D01*
X161856768Y-115826658D01*
X161857494Y-115749211D01*
X161855400Y-115692434D01*
X161026283Y-115692434D01*
X161026076Y-115785502D01*
X161023163Y-115873192D01*
X161017500Y-115950272D01*
X161009045Y-116011509D01*
X161006462Y-116023850D01*
X160974660Y-116131133D01*
X160933002Y-116218158D01*
X160881137Y-116285142D01*
X160818719Y-116332305D01*
X160745400Y-116359865D01*
X160660831Y-116368041D01*
X160564665Y-116357051D01*
X160501189Y-116341329D01*
X160452046Y-116323139D01*
X160397917Y-116297291D01*
X160357256Y-116273589D01*
X160286700Y-116227221D01*
X160286700Y-115077030D01*
X160354108Y-115033462D01*
X160432633Y-114992540D01*
X160516819Y-114965889D01*
X160601943Y-114953965D01*
X160683284Y-114957222D01*
X160756120Y-114976115D01*
X160788074Y-114991684D01*
X160845999Y-115034681D01*
X160894956Y-115091453D01*
X160936110Y-115164075D01*
X160970626Y-115254621D01*
X160999667Y-115365166D01*
X161000948Y-115371033D01*
X161011119Y-115433288D01*
X161018761Y-115511094D01*
X161023830Y-115599220D01*
X161026283Y-115692434D01*
X161855400Y-115692434D01*
X161849643Y-115536395D01*
X161827698Y-115340559D01*
X161791714Y-115161832D01*
X161741741Y-115000345D01*
X161677832Y-114856226D01*
X161600038Y-114729606D01*
X161508411Y-114620615D01*
X161403003Y-114529383D01*
X161357838Y-114498432D01*
X161256889Y-114442285D01*
X161153599Y-114402674D01*
X161043511Y-114378514D01*
X160922170Y-114368719D01*
X160829664Y-114369765D01*
X160700010Y-114380731D01*
X160587416Y-114402546D01*
X160488625Y-114436214D01*
X160400379Y-114482736D01*
X160351514Y-114516948D01*
X160322147Y-114538862D01*
X160300457Y-114553833D01*
X160292247Y-114558233D01*
X160290632Y-114547404D01*
X160289341Y-114516751D01*
X160288362Y-114469026D01*
X160287683Y-114406979D01*
X160287290Y-114333362D01*
X160287170Y-114250927D01*
X160287312Y-114162425D01*
X160287703Y-114070607D01*
X160288329Y-113978224D01*
X160289180Y-113888028D01*
X160290240Y-113802771D01*
X160291499Y-113725203D01*
X160292944Y-113658076D01*
X160294562Y-113604141D01*
X160296339Y-113566150D01*
X160296831Y-113559167D01*
X160304408Y-113488751D01*
X160315969Y-113433602D01*
X160333708Y-113386481D01*
X160359818Y-113340147D01*
X160366085Y-113330567D01*
X160390517Y-113293878D01*
X159485189Y-113293878D01*
X159484993Y-114978745D01*
G36*
X162997926Y-114373052D02*
G01*
X162846008Y-114393067D01*
X162710744Y-114426702D01*
X162591261Y-114474225D01*
X162486685Y-114535905D01*
X162409076Y-114599465D01*
X162340235Y-114673599D01*
X162286494Y-114753371D01*
X162243590Y-114845591D01*
X162228116Y-114888661D01*
X162215256Y-114927642D01*
X162204054Y-114963789D01*
X162194380Y-114998934D01*
X162186104Y-115034910D01*
X162179097Y-115073550D01*
X162173228Y-115116685D01*
X162168369Y-115166149D01*
X162164390Y-115223773D01*
X162161160Y-115291391D01*
X162158551Y-115370834D01*
X162156433Y-115463936D01*
X162154676Y-115572527D01*
X162153151Y-115698442D01*
X162151728Y-115843512D01*
X162150475Y-115986278D01*
X162149149Y-116142468D01*
X162147944Y-116277739D01*
X162146734Y-116393746D01*
X162145394Y-116492145D01*
X162143800Y-116574593D01*
X162141825Y-116642746D01*
X162139344Y-116698260D01*
X162136231Y-116742792D01*
X162132362Y-116777998D01*
X162127611Y-116805534D01*
X162121852Y-116827056D01*
X162114961Y-116844222D01*
X162106811Y-116858686D01*
X162097277Y-116872106D01*
X162086234Y-116886138D01*
X162081934Y-116891571D01*
X162066114Y-116914410D01*
X162059078Y-116929963D01*
X162059056Y-116930422D01*
X162069933Y-116932621D01*
X162100918Y-116934647D01*
X162149543Y-116936442D01*
X162213337Y-116937951D01*
X162289831Y-116939116D01*
X162376556Y-116939880D01*
X162471043Y-116940186D01*
X162481950Y-116940189D01*
X162904843Y-116940189D01*
X162908105Y-116844122D01*
X162911367Y-116748056D01*
X162973456Y-116799043D01*
X163070786Y-116866557D01*
X163180687Y-116921249D01*
X163267151Y-116951478D01*
X163336222Y-116966166D01*
X163419575Y-116976159D01*
X163509341Y-116981146D01*
X163597655Y-116980813D01*
X163676649Y-116974851D01*
X163712878Y-116969138D01*
X163852897Y-116931276D01*
X163979322Y-116876432D01*
X164091240Y-116805424D01*
X164187738Y-116719068D01*
X164267900Y-116618179D01*
X164330813Y-116503576D01*
X164375188Y-116377484D01*
X164387522Y-116320901D01*
X164395132Y-116258702D01*
X164398761Y-116183863D01*
X164399255Y-116149967D01*
X164399190Y-116146782D01*
X163639252Y-116146782D01*
X163629959Y-116221833D01*
X163601772Y-116285660D01*
X163553303Y-116341298D01*
X163548246Y-116345711D01*
X163499952Y-116380537D01*
X163448243Y-116403120D01*
X163387511Y-116415040D01*
X163312148Y-116417883D01*
X163294041Y-116417478D01*
X163240222Y-116414825D01*
X163200192Y-116409409D01*
X163165176Y-116399245D01*
X163126397Y-116382350D01*
X163115755Y-116377172D01*
X163055104Y-116341344D01*
X163008285Y-116298712D01*
X162995548Y-116283473D01*
X162950878Y-116226962D01*
X162950878Y-116031086D01*
X162951414Y-115952439D01*
X162953104Y-115894488D01*
X162956072Y-115855375D01*
X162960443Y-115833241D01*
X162964528Y-115826774D01*
X162980453Y-115823611D01*
X163014236Y-115820988D01*
X163061160Y-115819155D01*
X163116507Y-115818357D01*
X163125394Y-115818342D01*
X163246170Y-115823596D01*
X163348840Y-115839763D01*
X163435394Y-115867461D01*
X163507819Y-115907308D01*
X163562749Y-115954258D01*
X163607296Y-116012145D01*
X163632020Y-116075193D01*
X163639252Y-116146782D01*
X164399190Y-116146782D01*
X164397322Y-116056212D01*
X164388978Y-115977312D01*
X164372732Y-115906090D01*
X164347095Y-115835364D01*
X164323099Y-115782993D01*
X164264480Y-115687696D01*
X164186383Y-115599670D01*
X164091185Y-115520517D01*
X163981262Y-115451840D01*
X163858990Y-115395241D01*
X163726745Y-115352321D01*
X163662078Y-115337382D01*
X163525896Y-115315277D01*
X163377451Y-115300694D01*
X163225995Y-115294313D01*
X163099436Y-115295945D01*
X162937550Y-115302724D01*
X162944970Y-115243745D01*
X162964262Y-115144592D01*
X162995396Y-115063872D01*
X163039231Y-115000966D01*
X163096629Y-114955256D01*
X163168452Y-114926122D01*
X163255559Y-114912947D01*
X163358814Y-114915111D01*
X163396789Y-114919112D01*
X163537980Y-114944280D01*
X163674793Y-114985314D01*
X163769322Y-115023315D01*
X163814482Y-115042690D01*
X163852915Y-115058260D01*
X163879266Y-115067905D01*
X163886954Y-115069952D01*
X163896698Y-115060874D01*
X163913417Y-115031905D01*
X163937268Y-114982717D01*
X163968407Y-114912984D01*
X164006993Y-114822379D01*
X164013590Y-114806589D01*
X164043647Y-114734272D01*
X164070626Y-114668925D01*
X164093364Y-114613406D01*
X164110694Y-114570572D01*
X164121452Y-114543281D01*
X164124559Y-114534442D01*
X164114560Y-114529687D01*
X164088283Y-114524410D01*
X164060011Y-114520731D01*
X164029854Y-114515974D01*
X163982067Y-114506528D01*
X163920888Y-114493320D01*
X163850554Y-114477276D01*
X163775306Y-114459320D01*
X163746745Y-114452297D01*
X163641684Y-114426709D01*
X163554020Y-114406647D01*
X163479432Y-114391469D01*
X163413597Y-114380535D01*
X163352193Y-114373204D01*
X163290898Y-114368835D01*
X163225390Y-114366787D01*
X163167372Y-114366389D01*
X162997926Y-114373052D01*
X162997926Y-114373052D01*
G37*
X162997926Y-114373052D02*
X162846008Y-114393067D01*
X162710744Y-114426702D01*
X162591261Y-114474225D01*
X162486685Y-114535905D01*
X162409076Y-114599465D01*
X162340235Y-114673599D01*
X162286494Y-114753371D01*
X162243590Y-114845591D01*
X162228116Y-114888661D01*
X162215256Y-114927642D01*
X162204054Y-114963789D01*
X162194380Y-114998934D01*
X162186104Y-115034910D01*
X162179097Y-115073550D01*
X162173228Y-115116685D01*
X162168369Y-115166149D01*
X162164390Y-115223773D01*
X162161160Y-115291391D01*
X162158551Y-115370834D01*
X162156433Y-115463936D01*
X162154676Y-115572527D01*
X162153151Y-115698442D01*
X162151728Y-115843512D01*
X162150475Y-115986278D01*
X162149149Y-116142468D01*
X162147944Y-116277739D01*
X162146734Y-116393746D01*
X162145394Y-116492145D01*
X162143800Y-116574593D01*
X162141825Y-116642746D01*
X162139344Y-116698260D01*
X162136231Y-116742792D01*
X162132362Y-116777998D01*
X162127611Y-116805534D01*
X162121852Y-116827056D01*
X162114961Y-116844222D01*
X162106811Y-116858686D01*
X162097277Y-116872106D01*
X162086234Y-116886138D01*
X162081934Y-116891571D01*
X162066114Y-116914410D01*
X162059078Y-116929963D01*
X162059056Y-116930422D01*
X162069933Y-116932621D01*
X162100918Y-116934647D01*
X162149543Y-116936442D01*
X162213337Y-116937951D01*
X162289831Y-116939116D01*
X162376556Y-116939880D01*
X162471043Y-116940186D01*
X162481950Y-116940189D01*
X162904843Y-116940189D01*
X162908105Y-116844122D01*
X162911367Y-116748056D01*
X162973456Y-116799043D01*
X163070786Y-116866557D01*
X163180687Y-116921249D01*
X163267151Y-116951478D01*
X163336222Y-116966166D01*
X163419575Y-116976159D01*
X163509341Y-116981146D01*
X163597655Y-116980813D01*
X163676649Y-116974851D01*
X163712878Y-116969138D01*
X163852897Y-116931276D01*
X163979322Y-116876432D01*
X164091240Y-116805424D01*
X164187738Y-116719068D01*
X164267900Y-116618179D01*
X164330813Y-116503576D01*
X164375188Y-116377484D01*
X164387522Y-116320901D01*
X164395132Y-116258702D01*
X164398761Y-116183863D01*
X164399255Y-116149967D01*
X164399190Y-116146782D01*
X163639252Y-116146782D01*
X163629959Y-116221833D01*
X163601772Y-116285660D01*
X163553303Y-116341298D01*
X163548246Y-116345711D01*
X163499952Y-116380537D01*
X163448243Y-116403120D01*
X163387511Y-116415040D01*
X163312148Y-116417883D01*
X163294041Y-116417478D01*
X163240222Y-116414825D01*
X163200192Y-116409409D01*
X163165176Y-116399245D01*
X163126397Y-116382350D01*
X163115755Y-116377172D01*
X163055104Y-116341344D01*
X163008285Y-116298712D01*
X162995548Y-116283473D01*
X162950878Y-116226962D01*
X162950878Y-116031086D01*
X162951414Y-115952439D01*
X162953104Y-115894488D01*
X162956072Y-115855375D01*
X162960443Y-115833241D01*
X162964528Y-115826774D01*
X162980453Y-115823611D01*
X163014236Y-115820988D01*
X163061160Y-115819155D01*
X163116507Y-115818357D01*
X163125394Y-115818342D01*
X163246170Y-115823596D01*
X163348840Y-115839763D01*
X163435394Y-115867461D01*
X163507819Y-115907308D01*
X163562749Y-115954258D01*
X163607296Y-116012145D01*
X163632020Y-116075193D01*
X163639252Y-116146782D01*
X164399190Y-116146782D01*
X164397322Y-116056212D01*
X164388978Y-115977312D01*
X164372732Y-115906090D01*
X164347095Y-115835364D01*
X164323099Y-115782993D01*
X164264480Y-115687696D01*
X164186383Y-115599670D01*
X164091185Y-115520517D01*
X163981262Y-115451840D01*
X163858990Y-115395241D01*
X163726745Y-115352321D01*
X163662078Y-115337382D01*
X163525896Y-115315277D01*
X163377451Y-115300694D01*
X163225995Y-115294313D01*
X163099436Y-115295945D01*
X162937550Y-115302724D01*
X162944970Y-115243745D01*
X162964262Y-115144592D01*
X162995396Y-115063872D01*
X163039231Y-115000966D01*
X163096629Y-114955256D01*
X163168452Y-114926122D01*
X163255559Y-114912947D01*
X163358814Y-114915111D01*
X163396789Y-114919112D01*
X163537980Y-114944280D01*
X163674793Y-114985314D01*
X163769322Y-115023315D01*
X163814482Y-115042690D01*
X163852915Y-115058260D01*
X163879266Y-115067905D01*
X163886954Y-115069952D01*
X163896698Y-115060874D01*
X163913417Y-115031905D01*
X163937268Y-114982717D01*
X163968407Y-114912984D01*
X164006993Y-114822379D01*
X164013590Y-114806589D01*
X164043647Y-114734272D01*
X164070626Y-114668925D01*
X164093364Y-114613406D01*
X164110694Y-114570572D01*
X164121452Y-114543281D01*
X164124559Y-114534442D01*
X164114560Y-114529687D01*
X164088283Y-114524410D01*
X164060011Y-114520731D01*
X164029854Y-114515974D01*
X163982067Y-114506528D01*
X163920888Y-114493320D01*
X163850554Y-114477276D01*
X163775306Y-114459320D01*
X163746745Y-114452297D01*
X163641684Y-114426709D01*
X163554020Y-114406647D01*
X163479432Y-114391469D01*
X163413597Y-114380535D01*
X163352193Y-114373204D01*
X163290898Y-114368835D01*
X163225390Y-114366787D01*
X163167372Y-114366389D01*
X162997926Y-114373052D01*
G36*
X165343071Y-113455571D02*
G01*
X165182930Y-113476745D01*
X165018990Y-113516885D01*
X164849187Y-113576389D01*
X164671457Y-113655654D01*
X164660190Y-113661199D01*
X164602495Y-113689225D01*
X164550948Y-113713302D01*
X164509309Y-113731749D01*
X164481338Y-113742886D01*
X164471767Y-113745433D01*
X164452550Y-113750441D01*
X164447939Y-113754647D01*
X164453042Y-113765080D01*
X164469082Y-113791368D01*
X164494212Y-113830757D01*
X164526586Y-113880491D01*
X164564357Y-113937815D01*
X164605678Y-113999976D01*
X164648702Y-114064218D01*
X164691583Y-114127785D01*
X164732474Y-114187925D01*
X164769529Y-114241880D01*
X164800900Y-114286897D01*
X164824741Y-114320221D01*
X164839206Y-114339097D01*
X164841191Y-114341287D01*
X164851309Y-114336638D01*
X164873650Y-114319462D01*
X164904220Y-114292940D01*
X164919964Y-114278464D01*
X165016453Y-114203182D01*
X165123164Y-114147741D01*
X165238668Y-114112641D01*
X165361538Y-114098380D01*
X165430939Y-114099551D01*
X165552077Y-114116712D01*
X165661295Y-114152594D01*
X165758918Y-114207459D01*
X165845272Y-114281570D01*
X165920685Y-114375188D01*
X165985482Y-114488576D01*
X166022899Y-114575167D01*
X166066752Y-114710866D01*
X166099072Y-114858350D01*
X166119943Y-115013814D01*
X166129449Y-115173456D01*
X166127673Y-115333473D01*
X166114697Y-115490061D01*
X166090606Y-115639418D01*
X166055482Y-115777740D01*
X166009408Y-115901224D01*
X165993127Y-115935478D01*
X165924880Y-116049564D01*
X165844421Y-116146057D01*
X165752930Y-116224170D01*
X165651589Y-116283117D01*
X165541580Y-116322112D01*
X165424085Y-116340368D01*
X165382617Y-116341711D01*
X165261059Y-116330790D01*
X165140622Y-116297974D01*
X165022834Y-116243939D01*
X164909223Y-116169365D01*
X164817815Y-116091039D01*
X164771285Y-116046508D01*
X164590017Y-116343771D01*
X164544920Y-116417933D01*
X164503681Y-116486146D01*
X164467765Y-116545959D01*
X164438634Y-116594920D01*
X164417750Y-116630579D01*
X164406576Y-116650484D01*
X164405125Y-116653579D01*
X164413354Y-116663218D01*
X164438933Y-116680499D01*
X164478627Y-116703783D01*
X164529203Y-116731434D01*
X164587426Y-116761815D01*
X164650063Y-116793290D01*
X164713879Y-116824222D01*
X164775640Y-116852973D01*
X164832112Y-116877908D01*
X164880062Y-116897389D01*
X164903514Y-116905818D01*
X165037279Y-116943633D01*
X165175173Y-116968636D01*
X165322878Y-116981640D01*
X165449667Y-116983968D01*
X165517622Y-116982873D01*
X165583223Y-116980775D01*
X165640653Y-116977934D01*
X165684097Y-116974606D01*
X165698202Y-116972922D01*
X165837216Y-116944087D01*
X165978743Y-116898968D01*
X166116225Y-116840250D01*
X166243106Y-116770620D01*
X166320611Y-116717941D01*
X166448019Y-116609739D01*
X166566322Y-116483171D01*
X166673328Y-116341366D01*
X166766848Y-116187451D01*
X166844690Y-116024553D01*
X166888544Y-115907256D01*
X166938792Y-115723628D01*
X166972291Y-115529081D01*
X166989051Y-115327825D01*
X166989084Y-115124068D01*
X166972399Y-114922021D01*
X166939007Y-114725892D01*
X166888920Y-114539891D01*
X166885103Y-114528303D01*
X166822219Y-114366250D01*
X166745472Y-114218332D01*
X166652258Y-114080365D01*
X166539973Y-113948161D01*
X166496108Y-113902899D01*
X166359966Y-113778957D01*
X166220009Y-113676415D01*
X166074089Y-113594156D01*
X165920058Y-113531064D01*
X165755768Y-113486023D01*
X165660211Y-113468533D01*
X165501477Y-113452966D01*
X165343071Y-113455571D01*
X165343071Y-113455571D01*
G37*
X165343071Y-113455571D02*
X165182930Y-113476745D01*
X165018990Y-113516885D01*
X164849187Y-113576389D01*
X164671457Y-113655654D01*
X164660190Y-113661199D01*
X164602495Y-113689225D01*
X164550948Y-113713302D01*
X164509309Y-113731749D01*
X164481338Y-113742886D01*
X164471767Y-113745433D01*
X164452550Y-113750441D01*
X164447939Y-113754647D01*
X164453042Y-113765080D01*
X164469082Y-113791368D01*
X164494212Y-113830757D01*
X164526586Y-113880491D01*
X164564357Y-113937815D01*
X164605678Y-113999976D01*
X164648702Y-114064218D01*
X164691583Y-114127785D01*
X164732474Y-114187925D01*
X164769529Y-114241880D01*
X164800900Y-114286897D01*
X164824741Y-114320221D01*
X164839206Y-114339097D01*
X164841191Y-114341287D01*
X164851309Y-114336638D01*
X164873650Y-114319462D01*
X164904220Y-114292940D01*
X164919964Y-114278464D01*
X165016453Y-114203182D01*
X165123164Y-114147741D01*
X165238668Y-114112641D01*
X165361538Y-114098380D01*
X165430939Y-114099551D01*
X165552077Y-114116712D01*
X165661295Y-114152594D01*
X165758918Y-114207459D01*
X165845272Y-114281570D01*
X165920685Y-114375188D01*
X165985482Y-114488576D01*
X166022899Y-114575167D01*
X166066752Y-114710866D01*
X166099072Y-114858350D01*
X166119943Y-115013814D01*
X166129449Y-115173456D01*
X166127673Y-115333473D01*
X166114697Y-115490061D01*
X166090606Y-115639418D01*
X166055482Y-115777740D01*
X166009408Y-115901224D01*
X165993127Y-115935478D01*
X165924880Y-116049564D01*
X165844421Y-116146057D01*
X165752930Y-116224170D01*
X165651589Y-116283117D01*
X165541580Y-116322112D01*
X165424085Y-116340368D01*
X165382617Y-116341711D01*
X165261059Y-116330790D01*
X165140622Y-116297974D01*
X165022834Y-116243939D01*
X164909223Y-116169365D01*
X164817815Y-116091039D01*
X164771285Y-116046508D01*
X164590017Y-116343771D01*
X164544920Y-116417933D01*
X164503681Y-116486146D01*
X164467765Y-116545959D01*
X164438634Y-116594920D01*
X164417750Y-116630579D01*
X164406576Y-116650484D01*
X164405125Y-116653579D01*
X164413354Y-116663218D01*
X164438933Y-116680499D01*
X164478627Y-116703783D01*
X164529203Y-116731434D01*
X164587426Y-116761815D01*
X164650063Y-116793290D01*
X164713879Y-116824222D01*
X164775640Y-116852973D01*
X164832112Y-116877908D01*
X164880062Y-116897389D01*
X164903514Y-116905818D01*
X165037279Y-116943633D01*
X165175173Y-116968636D01*
X165322878Y-116981640D01*
X165449667Y-116983968D01*
X165517622Y-116982873D01*
X165583223Y-116980775D01*
X165640653Y-116977934D01*
X165684097Y-116974606D01*
X165698202Y-116972922D01*
X165837216Y-116944087D01*
X165978743Y-116898968D01*
X166116225Y-116840250D01*
X166243106Y-116770620D01*
X166320611Y-116717941D01*
X166448019Y-116609739D01*
X166566322Y-116483171D01*
X166673328Y-116341366D01*
X166766848Y-116187451D01*
X166844690Y-116024553D01*
X166888544Y-115907256D01*
X166938792Y-115723628D01*
X166972291Y-115529081D01*
X166989051Y-115327825D01*
X166989084Y-115124068D01*
X166972399Y-114922021D01*
X166939007Y-114725892D01*
X166888920Y-114539891D01*
X166885103Y-114528303D01*
X166822219Y-114366250D01*
X166745472Y-114218332D01*
X166652258Y-114080365D01*
X166539973Y-113948161D01*
X166496108Y-113902899D01*
X166359966Y-113778957D01*
X166220009Y-113676415D01*
X166074089Y-113594156D01*
X165920058Y-113531064D01*
X165755768Y-113486023D01*
X165660211Y-113468533D01*
X165501477Y-113452966D01*
X165343071Y-113455571D01*
G36*
X168617900Y-112995554D02*
G01*
X168607035Y-113109493D01*
X168575418Y-113217116D01*
X168524515Y-113316115D01*
X168455793Y-113404184D01*
X168370719Y-113479016D01*
X168273732Y-113536884D01*
X168167464Y-113576505D01*
X168060450Y-113595073D01*
X167954800Y-113593934D01*
X167852625Y-113574430D01*
X167756034Y-113537906D01*
X167667138Y-113485705D01*
X167588046Y-113419173D01*
X167520869Y-113339652D01*
X167467717Y-113248487D01*
X167430699Y-113147023D01*
X167411927Y-113036602D01*
X167409989Y-112986706D01*
X167409989Y-112898767D01*
X167358060Y-112898767D01*
X167321753Y-112901611D01*
X167294855Y-112913411D01*
X167267749Y-112937149D01*
X167229367Y-112975531D01*
X167229367Y-115167102D01*
X167229376Y-115429239D01*
X167229408Y-115669741D01*
X167229472Y-115889548D01*
X167229576Y-116089601D01*
X167229727Y-116270844D01*
X167229934Y-116434216D01*
X167230206Y-116580660D01*
X167230550Y-116711117D01*
X167230974Y-116826529D01*
X167231487Y-116927838D01*
X167232097Y-117015984D01*
X167232812Y-117091910D01*
X167233640Y-117156557D01*
X167234589Y-117210867D01*
X167235667Y-117255780D01*
X167236883Y-117292240D01*
X167238245Y-117321187D01*
X167239761Y-117343563D01*
X167241438Y-117360309D01*
X167243286Y-117372368D01*
X167245313Y-117380680D01*
X167247525Y-117386187D01*
X167248608Y-117388037D01*
X167252771Y-117395049D01*
X167256305Y-117401496D01*
X167260135Y-117407400D01*
X167265182Y-117412786D01*
X167272371Y-117417678D01*
X167282623Y-117422098D01*
X167296864Y-117426072D01*
X167316014Y-117429621D01*
X167340999Y-117432770D01*
X167372740Y-117435542D01*
X167412162Y-117437961D01*
X167460186Y-117440051D01*
X167517737Y-117441835D01*
X167585737Y-117443337D01*
X167665110Y-117444580D01*
X167756779Y-117445589D01*
X167861666Y-117446385D01*
X167980696Y-117446994D01*
X168114790Y-117447439D01*
X168264873Y-117447743D01*
X168431867Y-117447930D01*
X168616696Y-117448024D01*
X168820283Y-117448048D01*
X169043550Y-117448025D01*
X169287422Y-117447980D01*
X169552821Y-117447937D01*
X169591204Y-117447932D01*
X169858182Y-117447889D01*
X170103502Y-117447818D01*
X170328083Y-117447713D01*
X170532845Y-117447566D01*
X170718706Y-117447369D01*
X170886588Y-117447116D01*
X171037408Y-117446800D01*
X171172087Y-117446413D01*
X171291544Y-117445947D01*
X171396699Y-117445397D01*
X171488471Y-117444753D01*
X171567779Y-117444011D01*
X171635543Y-117443161D01*
X171692682Y-117442197D01*
X171740117Y-117441111D01*
X171778766Y-117439897D01*
X171809549Y-117438547D01*
X171833385Y-117437055D01*
X171851194Y-117435411D01*
X171863895Y-117433611D01*
X171872408Y-117431645D01*
X171876766Y-117429977D01*
X171885228Y-117426406D01*
X171892997Y-117423770D01*
X171900102Y-117421134D01*
X171906573Y-117417562D01*
X171912439Y-117412121D01*
X171917729Y-117403875D01*
X171922474Y-117391890D01*
X171926702Y-117375231D01*
X171930443Y-117352963D01*
X171933727Y-117324152D01*
X171936583Y-117287863D01*
X171939040Y-117243161D01*
X171941129Y-117189111D01*
X171942878Y-117124779D01*
X171944317Y-117049230D01*
X171945476Y-116961530D01*
X171946383Y-116860743D01*
X171947069Y-116745934D01*
X171947563Y-116616170D01*
X171947895Y-116470515D01*
X171948093Y-116308035D01*
X171948187Y-116127795D01*
X171948208Y-115928860D01*
X171948185Y-115710296D01*
X171948146Y-115471168D01*
X171948122Y-115210540D01*
X171948122Y-115168389D01*
X171948136Y-114905492D01*
X171948161Y-114664232D01*
X171948171Y-114443665D01*
X171948142Y-114242852D01*
X171948048Y-114060849D01*
X171947862Y-113896716D01*
X171947559Y-113749511D01*
X171947114Y-113618292D01*
X171946534Y-113508367D01*
X171643697Y-113508367D01*
X171603907Y-113566211D01*
X171592736Y-113581979D01*
X171582666Y-113595941D01*
X171573638Y-113609284D01*
X171565597Y-113623193D01*
X171558486Y-113638856D01*
X171552247Y-113657458D01*
X171546825Y-113680186D01*
X171542162Y-113708227D01*
X171538201Y-113742767D01*
X171534885Y-113784992D01*
X171532159Y-113836089D01*
X171529964Y-113897244D01*
X171528245Y-113969644D01*
X171526944Y-114054475D01*
X171526005Y-114152922D01*
X171525370Y-114266174D01*
X171524984Y-114395416D01*
X171524788Y-114541834D01*
X171524727Y-114706616D01*
X171524743Y-114890947D01*
X171524780Y-115096013D01*
X171524789Y-115218633D01*
X171524765Y-115435582D01*
X171524731Y-115631142D01*
X171524743Y-115806499D01*
X171524858Y-115962841D01*
X171525130Y-116101357D01*
X171525618Y-116223234D01*
X171526376Y-116329660D01*
X171527462Y-116421822D01*
X171528931Y-116500909D01*
X171530840Y-116568108D01*
X171533244Y-116624607D01*
X171536201Y-116671593D01*
X171539766Y-116710255D01*
X171543995Y-116741780D01*
X171548946Y-116767355D01*
X171554673Y-116788170D01*
X171561233Y-116805411D01*
X171568683Y-116820265D01*
X171577079Y-116833922D01*
X171586476Y-116847569D01*
X171596932Y-116862393D01*
X171603023Y-116871283D01*
X171641796Y-116928900D01*
X171110232Y-116928900D01*
X170986983Y-116928865D01*
X170884487Y-116928715D01*
X170800920Y-116928378D01*
X170734456Y-116927786D01*
X170683271Y-116926867D01*
X170645541Y-116925551D01*
X170619440Y-116923769D01*
X170603144Y-116921451D01*
X170594828Y-116918526D01*
X170592668Y-116914924D01*
X170594839Y-116910575D01*
X170596035Y-116909145D01*
X170621185Y-116872073D01*
X170647083Y-116819272D01*
X170670692Y-116757270D01*
X170678961Y-116730857D01*
X170683578Y-116712916D01*
X170687479Y-116691855D01*
X170690748Y-116665589D01*
X170693466Y-116632032D01*
X170695715Y-116589099D01*
X170697577Y-116534704D01*
X170699136Y-116466762D01*
X170700472Y-116383188D01*
X170701669Y-116281895D01*
X170702808Y-116160800D01*
X170703185Y-116116100D01*
X170704202Y-115990949D01*
X170704960Y-115886582D01*
X170705403Y-115801207D01*
X170705470Y-115733033D01*
X170705105Y-115680265D01*
X170704248Y-115641114D01*
X170702841Y-115613785D01*
X170700825Y-115596486D01*
X170698143Y-115587426D01*
X170694736Y-115584812D01*
X170690544Y-115586851D01*
X170686071Y-115591167D01*
X170675716Y-115604102D01*
X170653658Y-115633176D01*
X170621457Y-115676259D01*
X170580674Y-115731218D01*
X170532870Y-115795923D01*
X170479605Y-115868242D01*
X170422440Y-115946044D01*
X170362937Y-116027198D01*
X170302655Y-116109572D01*
X170243155Y-116191036D01*
X170185998Y-116269457D01*
X170132745Y-116342704D01*
X170084957Y-116408647D01*
X170044193Y-116465154D01*
X170012016Y-116510093D01*
X169989985Y-116541334D01*
X169985417Y-116547966D01*
X169962496Y-116584869D01*
X169935688Y-116632859D01*
X169910289Y-116682397D01*
X169907068Y-116689077D01*
X169885390Y-116737272D01*
X169872804Y-116774834D01*
X169867074Y-116810660D01*
X169865956Y-116852700D01*
X169866590Y-116928900D01*
X168712151Y-116928900D01*
X168803315Y-116835169D01*
X168850112Y-116785275D01*
X168900399Y-116728795D01*
X168946444Y-116674526D01*
X168966869Y-116649173D01*
X168997307Y-116609628D01*
X169037362Y-116556416D01*
X169085861Y-116491167D01*
X169141635Y-116415511D01*
X169203511Y-116331077D01*
X169270319Y-116239494D01*
X169340887Y-116142392D01*
X169414045Y-116041401D01*
X169488621Y-115938150D01*
X169563444Y-115834268D01*
X169637343Y-115731385D01*
X169709146Y-115631131D01*
X169777684Y-115535136D01*
X169841784Y-115445027D01*
X169900275Y-115362436D01*
X169951986Y-115288992D01*
X169995747Y-115226324D01*
X170030385Y-115176061D01*
X170054730Y-115139834D01*
X170067611Y-115119271D01*
X170069369Y-115115168D01*
X170061410Y-115103842D01*
X170040615Y-115076662D01*
X170008347Y-115035329D01*
X169965970Y-114981544D01*
X169914847Y-114917006D01*
X169856341Y-114843418D01*
X169791814Y-114762478D01*
X169722631Y-114675888D01*
X169650153Y-114585348D01*
X169575746Y-114492560D01*
X169516017Y-114418202D01*
X168505011Y-114418202D01*
X168499102Y-114431159D01*
X168484772Y-114453408D01*
X168483725Y-114454891D01*
X168464938Y-114485044D01*
X168445291Y-114521875D01*
X168441392Y-114530011D01*
X168437856Y-114538440D01*
X168434730Y-114548559D01*
X168431986Y-114561760D01*
X168429592Y-114579438D01*
X168427519Y-114602984D01*
X168425735Y-114633793D01*
X168424212Y-114673257D01*
X168422919Y-114722769D01*
X168421826Y-114783723D01*
X168420903Y-114857511D01*
X168420119Y-114945528D01*
X168419445Y-115049165D01*
X168418850Y-115169816D01*
X168418305Y-115308874D01*
X168417779Y-115467732D01*
X168417245Y-115646589D01*
X168416706Y-115831707D01*
X168416272Y-115995645D01*
X168416009Y-116139803D01*
X168415984Y-116265579D01*
X168416265Y-116374371D01*
X168416919Y-116467577D01*
X168418014Y-116546597D01*
X168419618Y-116612828D01*
X168421797Y-116667670D01*
X168424619Y-116712521D01*
X168428151Y-116748778D01*
X168432461Y-116777841D01*
X168437617Y-116801109D01*
X168443685Y-116819979D01*
X168450733Y-116835851D01*
X168458829Y-116850122D01*
X168468040Y-116864191D01*
X168476540Y-116876658D01*
X168493676Y-116902952D01*
X168503822Y-116920537D01*
X168505011Y-116923757D01*
X168494104Y-116924834D01*
X168462911Y-116925835D01*
X168413723Y-116926735D01*
X168348833Y-116927510D01*
X168270530Y-116928137D01*
X168181107Y-116928591D01*
X168082856Y-116928849D01*
X168013945Y-116928900D01*
X167908952Y-116928680D01*
X167812110Y-116928048D01*
X167725607Y-116927049D01*
X167651632Y-116925727D01*
X167592374Y-116924126D01*
X167550020Y-116922291D01*
X167526760Y-116920265D01*
X167522878Y-116918993D01*
X167530576Y-116904091D01*
X167538574Y-116896060D01*
X167551746Y-116878934D01*
X167568985Y-116848683D01*
X167580907Y-116824122D01*
X167607545Y-116765211D01*
X167610620Y-115588345D01*
X167613695Y-114411478D01*
X168059353Y-114411478D01*
X168157170Y-114411642D01*
X168247564Y-114412111D01*
X168328130Y-114412847D01*
X168396462Y-114413816D01*
X168450156Y-114414980D01*
X168486805Y-114416303D01*
X168504004Y-114417749D01*
X168505011Y-114418202D01*
X169516017Y-114418202D01*
X169500770Y-114399222D01*
X169426590Y-114307037D01*
X169354569Y-114217704D01*
X169286069Y-114132924D01*
X169222455Y-114054398D01*
X169165088Y-113983826D01*
X169115333Y-113922909D01*
X169074552Y-113873347D01*
X169057388Y-113852678D01*
X168971096Y-113752016D01*
X168894497Y-113668759D01*
X168825683Y-113600938D01*
X168762748Y-113546589D01*
X168753367Y-113539222D01*
X168713856Y-113508617D01*
X169845616Y-113508367D01*
X169840327Y-113556344D01*
X169843630Y-113613688D01*
X169865161Y-113681963D01*
X169905135Y-113761712D01*
X169950443Y-113833995D01*
X169966661Y-113856640D01*
X169994714Y-113894196D01*
X170032930Y-113944521D01*
X170079637Y-114005473D01*
X170133161Y-114074911D01*
X170191831Y-114150694D01*
X170253975Y-114230680D01*
X170317921Y-114312728D01*
X170381995Y-114394696D01*
X170444527Y-114474443D01*
X170503843Y-114549827D01*
X170558271Y-114618707D01*
X170606139Y-114678942D01*
X170645775Y-114728389D01*
X170675506Y-114764908D01*
X170693661Y-114786358D01*
X170696720Y-114789656D01*
X170699579Y-114781649D01*
X170701793Y-114751355D01*
X170703357Y-114699056D01*
X170704267Y-114625031D01*
X170704520Y-114529563D01*
X170704113Y-114412934D01*
X170703204Y-114292945D01*
X170701882Y-114160833D01*
X170700357Y-114049094D01*
X170698381Y-113955525D01*
X170695706Y-113877919D01*
X170692082Y-113814074D01*
X170687261Y-113761783D01*
X170680994Y-113718844D01*
X170673032Y-113683051D01*
X170663127Y-113652200D01*
X170651031Y-113624086D01*
X170636493Y-113596505D01*
X170621811Y-113571466D01*
X170583814Y-113508367D01*
X171643697Y-113508367D01*
X171946534Y-113508367D01*
X171946501Y-113502117D01*
X171945695Y-113400044D01*
X171944670Y-113311133D01*
X171943400Y-113234441D01*
X171941860Y-113169027D01*
X171940024Y-113113949D01*
X171937867Y-113068265D01*
X171935363Y-113031034D01*
X171932487Y-113001313D01*
X171929213Y-112978162D01*
X171925515Y-112960639D01*
X171921369Y-112947801D01*
X171916747Y-112938708D01*
X171911626Y-112932418D01*
X171905978Y-112927988D01*
X171899779Y-112924478D01*
X171893004Y-112920945D01*
X171887008Y-112917376D01*
X171881775Y-112914800D01*
X171873599Y-112912472D01*
X171861386Y-112910378D01*
X171844041Y-112908507D01*
X171820469Y-112906847D01*
X171789577Y-112905384D01*
X171750268Y-112904108D01*
X171701450Y-112903004D01*
X171642027Y-112902061D01*
X171570904Y-112901267D01*
X171486988Y-112900609D01*
X171389183Y-112900075D01*
X171276394Y-112899653D01*
X171147529Y-112899329D01*
X171001491Y-112899092D01*
X170837186Y-112898930D01*
X170653520Y-112898830D01*
X170449397Y-112898780D01*
X170238253Y-112898767D01*
X168617900Y-112898767D01*
X168617900Y-112995554D01*
X168617900Y-112995554D01*
G37*
X168617900Y-112995554D02*
X168607035Y-113109493D01*
X168575418Y-113217116D01*
X168524515Y-113316115D01*
X168455793Y-113404184D01*
X168370719Y-113479016D01*
X168273732Y-113536884D01*
X168167464Y-113576505D01*
X168060450Y-113595073D01*
X167954800Y-113593934D01*
X167852625Y-113574430D01*
X167756034Y-113537906D01*
X167667138Y-113485705D01*
X167588046Y-113419173D01*
X167520869Y-113339652D01*
X167467717Y-113248487D01*
X167430699Y-113147023D01*
X167411927Y-113036602D01*
X167409989Y-112986706D01*
X167409989Y-112898767D01*
X167358060Y-112898767D01*
X167321753Y-112901611D01*
X167294855Y-112913411D01*
X167267749Y-112937149D01*
X167229367Y-112975531D01*
X167229367Y-115167102D01*
X167229376Y-115429239D01*
X167229408Y-115669741D01*
X167229472Y-115889548D01*
X167229576Y-116089601D01*
X167229727Y-116270844D01*
X167229934Y-116434216D01*
X167230206Y-116580660D01*
X167230550Y-116711117D01*
X167230974Y-116826529D01*
X167231487Y-116927838D01*
X167232097Y-117015984D01*
X167232812Y-117091910D01*
X167233640Y-117156557D01*
X167234589Y-117210867D01*
X167235667Y-117255780D01*
X167236883Y-117292240D01*
X167238245Y-117321187D01*
X167239761Y-117343563D01*
X167241438Y-117360309D01*
X167243286Y-117372368D01*
X167245313Y-117380680D01*
X167247525Y-117386187D01*
X167248608Y-117388037D01*
X167252771Y-117395049D01*
X167256305Y-117401496D01*
X167260135Y-117407400D01*
X167265182Y-117412786D01*
X167272371Y-117417678D01*
X167282623Y-117422098D01*
X167296864Y-117426072D01*
X167316014Y-117429621D01*
X167340999Y-117432770D01*
X167372740Y-117435542D01*
X167412162Y-117437961D01*
X167460186Y-117440051D01*
X167517737Y-117441835D01*
X167585737Y-117443337D01*
X167665110Y-117444580D01*
X167756779Y-117445589D01*
X167861666Y-117446385D01*
X167980696Y-117446994D01*
X168114790Y-117447439D01*
X168264873Y-117447743D01*
X168431867Y-117447930D01*
X168616696Y-117448024D01*
X168820283Y-117448048D01*
X169043550Y-117448025D01*
X169287422Y-117447980D01*
X169552821Y-117447937D01*
X169591204Y-117447932D01*
X169858182Y-117447889D01*
X170103502Y-117447818D01*
X170328083Y-117447713D01*
X170532845Y-117447566D01*
X170718706Y-117447369D01*
X170886588Y-117447116D01*
X171037408Y-117446800D01*
X171172087Y-117446413D01*
X171291544Y-117445947D01*
X171396699Y-117445397D01*
X171488471Y-117444753D01*
X171567779Y-117444011D01*
X171635543Y-117443161D01*
X171692682Y-117442197D01*
X171740117Y-117441111D01*
X171778766Y-117439897D01*
X171809549Y-117438547D01*
X171833385Y-117437055D01*
X171851194Y-117435411D01*
X171863895Y-117433611D01*
X171872408Y-117431645D01*
X171876766Y-117429977D01*
X171885228Y-117426406D01*
X171892997Y-117423770D01*
X171900102Y-117421134D01*
X171906573Y-117417562D01*
X171912439Y-117412121D01*
X171917729Y-117403875D01*
X171922474Y-117391890D01*
X171926702Y-117375231D01*
X171930443Y-117352963D01*
X171933727Y-117324152D01*
X171936583Y-117287863D01*
X171939040Y-117243161D01*
X171941129Y-117189111D01*
X171942878Y-117124779D01*
X171944317Y-117049230D01*
X171945476Y-116961530D01*
X171946383Y-116860743D01*
X171947069Y-116745934D01*
X171947563Y-116616170D01*
X171947895Y-116470515D01*
X171948093Y-116308035D01*
X171948187Y-116127795D01*
X171948208Y-115928860D01*
X171948185Y-115710296D01*
X171948146Y-115471168D01*
X171948122Y-115210540D01*
X171948122Y-115168389D01*
X171948136Y-114905492D01*
X171948161Y-114664232D01*
X171948171Y-114443665D01*
X171948142Y-114242852D01*
X171948048Y-114060849D01*
X171947862Y-113896716D01*
X171947559Y-113749511D01*
X171947114Y-113618292D01*
X171946534Y-113508367D01*
X171643697Y-113508367D01*
X171603907Y-113566211D01*
X171592736Y-113581979D01*
X171582666Y-113595941D01*
X171573638Y-113609284D01*
X171565597Y-113623193D01*
X171558486Y-113638856D01*
X171552247Y-113657458D01*
X171546825Y-113680186D01*
X171542162Y-113708227D01*
X171538201Y-113742767D01*
X171534885Y-113784992D01*
X171532159Y-113836089D01*
X171529964Y-113897244D01*
X171528245Y-113969644D01*
X171526944Y-114054475D01*
X171526005Y-114152922D01*
X171525370Y-114266174D01*
X171524984Y-114395416D01*
X171524788Y-114541834D01*
X171524727Y-114706616D01*
X171524743Y-114890947D01*
X171524780Y-115096013D01*
X171524789Y-115218633D01*
X171524765Y-115435582D01*
X171524731Y-115631142D01*
X171524743Y-115806499D01*
X171524858Y-115962841D01*
X171525130Y-116101357D01*
X171525618Y-116223234D01*
X171526376Y-116329660D01*
X171527462Y-116421822D01*
X171528931Y-116500909D01*
X171530840Y-116568108D01*
X171533244Y-116624607D01*
X171536201Y-116671593D01*
X171539766Y-116710255D01*
X171543995Y-116741780D01*
X171548946Y-116767355D01*
X171554673Y-116788170D01*
X171561233Y-116805411D01*
X171568683Y-116820265D01*
X171577079Y-116833922D01*
X171586476Y-116847569D01*
X171596932Y-116862393D01*
X171603023Y-116871283D01*
X171641796Y-116928900D01*
X171110232Y-116928900D01*
X170986983Y-116928865D01*
X170884487Y-116928715D01*
X170800920Y-116928378D01*
X170734456Y-116927786D01*
X170683271Y-116926867D01*
X170645541Y-116925551D01*
X170619440Y-116923769D01*
X170603144Y-116921451D01*
X170594828Y-116918526D01*
X170592668Y-116914924D01*
X170594839Y-116910575D01*
X170596035Y-116909145D01*
X170621185Y-116872073D01*
X170647083Y-116819272D01*
X170670692Y-116757270D01*
X170678961Y-116730857D01*
X170683578Y-116712916D01*
X170687479Y-116691855D01*
X170690748Y-116665589D01*
X170693466Y-116632032D01*
X170695715Y-116589099D01*
X170697577Y-116534704D01*
X170699136Y-116466762D01*
X170700472Y-116383188D01*
X170701669Y-116281895D01*
X170702808Y-116160800D01*
X170703185Y-116116100D01*
X170704202Y-115990949D01*
X170704960Y-115886582D01*
X170705403Y-115801207D01*
X170705470Y-115733033D01*
X170705105Y-115680265D01*
X170704248Y-115641114D01*
X170702841Y-115613785D01*
X170700825Y-115596486D01*
X170698143Y-115587426D01*
X170694736Y-115584812D01*
X170690544Y-115586851D01*
X170686071Y-115591167D01*
X170675716Y-115604102D01*
X170653658Y-115633176D01*
X170621457Y-115676259D01*
X170580674Y-115731218D01*
X170532870Y-115795923D01*
X170479605Y-115868242D01*
X170422440Y-115946044D01*
X170362937Y-116027198D01*
X170302655Y-116109572D01*
X170243155Y-116191036D01*
X170185998Y-116269457D01*
X170132745Y-116342704D01*
X170084957Y-116408647D01*
X170044193Y-116465154D01*
X170012016Y-116510093D01*
X169989985Y-116541334D01*
X169985417Y-116547966D01*
X169962496Y-116584869D01*
X169935688Y-116632859D01*
X169910289Y-116682397D01*
X169907068Y-116689077D01*
X169885390Y-116737272D01*
X169872804Y-116774834D01*
X169867074Y-116810660D01*
X169865956Y-116852700D01*
X169866590Y-116928900D01*
X168712151Y-116928900D01*
X168803315Y-116835169D01*
X168850112Y-116785275D01*
X168900399Y-116728795D01*
X168946444Y-116674526D01*
X168966869Y-116649173D01*
X168997307Y-116609628D01*
X169037362Y-116556416D01*
X169085861Y-116491167D01*
X169141635Y-116415511D01*
X169203511Y-116331077D01*
X169270319Y-116239494D01*
X169340887Y-116142392D01*
X169414045Y-116041401D01*
X169488621Y-115938150D01*
X169563444Y-115834268D01*
X169637343Y-115731385D01*
X169709146Y-115631131D01*
X169777684Y-115535136D01*
X169841784Y-115445027D01*
X169900275Y-115362436D01*
X169951986Y-115288992D01*
X169995747Y-115226324D01*
X170030385Y-115176061D01*
X170054730Y-115139834D01*
X170067611Y-115119271D01*
X170069369Y-115115168D01*
X170061410Y-115103842D01*
X170040615Y-115076662D01*
X170008347Y-115035329D01*
X169965970Y-114981544D01*
X169914847Y-114917006D01*
X169856341Y-114843418D01*
X169791814Y-114762478D01*
X169722631Y-114675888D01*
X169650153Y-114585348D01*
X169575746Y-114492560D01*
X169516017Y-114418202D01*
X168505011Y-114418202D01*
X168499102Y-114431159D01*
X168484772Y-114453408D01*
X168483725Y-114454891D01*
X168464938Y-114485044D01*
X168445291Y-114521875D01*
X168441392Y-114530011D01*
X168437856Y-114538440D01*
X168434730Y-114548559D01*
X168431986Y-114561760D01*
X168429592Y-114579438D01*
X168427519Y-114602984D01*
X168425735Y-114633793D01*
X168424212Y-114673257D01*
X168422919Y-114722769D01*
X168421826Y-114783723D01*
X168420903Y-114857511D01*
X168420119Y-114945528D01*
X168419445Y-115049165D01*
X168418850Y-115169816D01*
X168418305Y-115308874D01*
X168417779Y-115467732D01*
X168417245Y-115646589D01*
X168416706Y-115831707D01*
X168416272Y-115995645D01*
X168416009Y-116139803D01*
X168415984Y-116265579D01*
X168416265Y-116374371D01*
X168416919Y-116467577D01*
X168418014Y-116546597D01*
X168419618Y-116612828D01*
X168421797Y-116667670D01*
X168424619Y-116712521D01*
X168428151Y-116748778D01*
X168432461Y-116777841D01*
X168437617Y-116801109D01*
X168443685Y-116819979D01*
X168450733Y-116835851D01*
X168458829Y-116850122D01*
X168468040Y-116864191D01*
X168476540Y-116876658D01*
X168493676Y-116902952D01*
X168503822Y-116920537D01*
X168505011Y-116923757D01*
X168494104Y-116924834D01*
X168462911Y-116925835D01*
X168413723Y-116926735D01*
X168348833Y-116927510D01*
X168270530Y-116928137D01*
X168181107Y-116928591D01*
X168082856Y-116928849D01*
X168013945Y-116928900D01*
X167908952Y-116928680D01*
X167812110Y-116928048D01*
X167725607Y-116927049D01*
X167651632Y-116925727D01*
X167592374Y-116924126D01*
X167550020Y-116922291D01*
X167526760Y-116920265D01*
X167522878Y-116918993D01*
X167530576Y-116904091D01*
X167538574Y-116896060D01*
X167551746Y-116878934D01*
X167568985Y-116848683D01*
X167580907Y-116824122D01*
X167607545Y-116765211D01*
X167610620Y-115588345D01*
X167613695Y-114411478D01*
X168059353Y-114411478D01*
X168157170Y-114411642D01*
X168247564Y-114412111D01*
X168328130Y-114412847D01*
X168396462Y-114413816D01*
X168450156Y-114414980D01*
X168486805Y-114416303D01*
X168504004Y-114417749D01*
X168505011Y-114418202D01*
X169516017Y-114418202D01*
X169500770Y-114399222D01*
X169426590Y-114307037D01*
X169354569Y-114217704D01*
X169286069Y-114132924D01*
X169222455Y-114054398D01*
X169165088Y-113983826D01*
X169115333Y-113922909D01*
X169074552Y-113873347D01*
X169057388Y-113852678D01*
X168971096Y-113752016D01*
X168894497Y-113668759D01*
X168825683Y-113600938D01*
X168762748Y-113546589D01*
X168753367Y-113539222D01*
X168713856Y-113508617D01*
X169845616Y-113508367D01*
X169840327Y-113556344D01*
X169843630Y-113613688D01*
X169865161Y-113681963D01*
X169905135Y-113761712D01*
X169950443Y-113833995D01*
X169966661Y-113856640D01*
X169994714Y-113894196D01*
X170032930Y-113944521D01*
X170079637Y-114005473D01*
X170133161Y-114074911D01*
X170191831Y-114150694D01*
X170253975Y-114230680D01*
X170317921Y-114312728D01*
X170381995Y-114394696D01*
X170444527Y-114474443D01*
X170503843Y-114549827D01*
X170558271Y-114618707D01*
X170606139Y-114678942D01*
X170645775Y-114728389D01*
X170675506Y-114764908D01*
X170693661Y-114786358D01*
X170696720Y-114789656D01*
X170699579Y-114781649D01*
X170701793Y-114751355D01*
X170703357Y-114699056D01*
X170704267Y-114625031D01*
X170704520Y-114529563D01*
X170704113Y-114412934D01*
X170703204Y-114292945D01*
X170701882Y-114160833D01*
X170700357Y-114049094D01*
X170698381Y-113955525D01*
X170695706Y-113877919D01*
X170692082Y-113814074D01*
X170687261Y-113761783D01*
X170680994Y-113718844D01*
X170673032Y-113683051D01*
X170663127Y-113652200D01*
X170651031Y-113624086D01*
X170636493Y-113596505D01*
X170621811Y-113571466D01*
X170583814Y-113508367D01*
X171643697Y-113508367D01*
X171946534Y-113508367D01*
X171946501Y-113502117D01*
X171945695Y-113400044D01*
X171944670Y-113311133D01*
X171943400Y-113234441D01*
X171941860Y-113169027D01*
X171940024Y-113113949D01*
X171937867Y-113068265D01*
X171935363Y-113031034D01*
X171932487Y-113001313D01*
X171929213Y-112978162D01*
X171925515Y-112960639D01*
X171921369Y-112947801D01*
X171916747Y-112938708D01*
X171911626Y-112932418D01*
X171905978Y-112927988D01*
X171899779Y-112924478D01*
X171893004Y-112920945D01*
X171887008Y-112917376D01*
X171881775Y-112914800D01*
X171873599Y-112912472D01*
X171861386Y-112910378D01*
X171844041Y-112908507D01*
X171820469Y-112906847D01*
X171789577Y-112905384D01*
X171750268Y-112904108D01*
X171701450Y-112903004D01*
X171642027Y-112902061D01*
X171570904Y-112901267D01*
X171486988Y-112900609D01*
X171389183Y-112900075D01*
X171276394Y-112899653D01*
X171147529Y-112899329D01*
X171001491Y-112899092D01*
X170837186Y-112898930D01*
X170653520Y-112898830D01*
X170449397Y-112898780D01*
X170238253Y-112898767D01*
X168617900Y-112898767D01*
X168617900Y-112995554D01*
D12*
X158642349Y-80187745D02*
X158356635Y-80187745D01*
X158499492Y-80687745D02*
X158499492Y-80187745D01*
X158189968Y-80687745D02*
X158189968Y-80187745D01*
X158023301Y-80544888D01*
X157856635Y-80187745D01*
X157856635Y-80687745D01*
M02*
