G04 #@! TF.GenerationSoftware,KiCad,Pcbnew,(5.1.4)-1*
G04 #@! TF.CreationDate,2019-10-03T22:04:04+08:00*
G04 #@! TF.ProjectId,arduino-sss,61726475-696e-46f2-9d73-73732e6b6963,rev?*
G04 #@! TF.SameCoordinates,Original*
G04 #@! TF.FileFunction,Legend,Bot*
G04 #@! TF.FilePolarity,Positive*
%FSLAX46Y46*%
G04 Gerber Fmt 4.6, Leading zero omitted, Abs format (unit mm)*
G04 Created by KiCad (PCBNEW (5.1.4)-1) date 2019-10-03 22:04:04*
%MOMM*%
%LPD*%
G04 APERTURE LIST*
%ADD10C,0.150000*%
%ADD11C,0.010000*%
%ADD12C,0.125000*%
G04 APERTURE END LIST*
D10*
X166351976Y-101958142D02*
X166399595Y-102005761D01*
X166542452Y-102053380D01*
X166637690Y-102053380D01*
X166780547Y-102005761D01*
X166875785Y-101910523D01*
X166923404Y-101815285D01*
X166971023Y-101624809D01*
X166971023Y-101481952D01*
X166923404Y-101291476D01*
X166875785Y-101196238D01*
X166780547Y-101101000D01*
X166637690Y-101053380D01*
X166542452Y-101053380D01*
X166399595Y-101101000D01*
X166351976Y-101148619D01*
X165923404Y-102053380D02*
X165923404Y-101386714D01*
X165923404Y-101577190D02*
X165875785Y-101481952D01*
X165828166Y-101434333D01*
X165732928Y-101386714D01*
X165637690Y-101386714D01*
X164923404Y-102005761D02*
X165018642Y-102053380D01*
X165209119Y-102053380D01*
X165304357Y-102005761D01*
X165351976Y-101910523D01*
X165351976Y-101529571D01*
X165304357Y-101434333D01*
X165209119Y-101386714D01*
X165018642Y-101386714D01*
X164923404Y-101434333D01*
X164875785Y-101529571D01*
X164875785Y-101624809D01*
X165351976Y-101720047D01*
X164018642Y-102053380D02*
X164018642Y-101529571D01*
X164066261Y-101434333D01*
X164161500Y-101386714D01*
X164351976Y-101386714D01*
X164447214Y-101434333D01*
X164018642Y-102005761D02*
X164113880Y-102053380D01*
X164351976Y-102053380D01*
X164447214Y-102005761D01*
X164494833Y-101910523D01*
X164494833Y-101815285D01*
X164447214Y-101720047D01*
X164351976Y-101672428D01*
X164113880Y-101672428D01*
X164018642Y-101624809D01*
X163685309Y-101386714D02*
X163304357Y-101386714D01*
X163542452Y-101053380D02*
X163542452Y-101910523D01*
X163494833Y-102005761D01*
X163399595Y-102053380D01*
X163304357Y-102053380D01*
X162590071Y-102005761D02*
X162685309Y-102053380D01*
X162875785Y-102053380D01*
X162971023Y-102005761D01*
X163018642Y-101910523D01*
X163018642Y-101529571D01*
X162971023Y-101434333D01*
X162875785Y-101386714D01*
X162685309Y-101386714D01*
X162590071Y-101434333D01*
X162542452Y-101529571D01*
X162542452Y-101624809D01*
X163018642Y-101720047D01*
X161685309Y-102053380D02*
X161685309Y-101053380D01*
X161685309Y-102005761D02*
X161780547Y-102053380D01*
X161971023Y-102053380D01*
X162066261Y-102005761D01*
X162113880Y-101958142D01*
X162161500Y-101862904D01*
X162161500Y-101577190D01*
X162113880Y-101481952D01*
X162066261Y-101434333D01*
X161971023Y-101386714D01*
X161780547Y-101386714D01*
X161685309Y-101434333D01*
X160447214Y-102053380D02*
X160447214Y-101053380D01*
X160447214Y-101434333D02*
X160351976Y-101386714D01*
X160161500Y-101386714D01*
X160066261Y-101434333D01*
X160018642Y-101481952D01*
X159971023Y-101577190D01*
X159971023Y-101862904D01*
X160018642Y-101958142D01*
X160066261Y-102005761D01*
X160161500Y-102053380D01*
X160351976Y-102053380D01*
X160447214Y-102005761D01*
X159637690Y-101386714D02*
X159399595Y-102053380D01*
X159161500Y-101386714D02*
X159399595Y-102053380D01*
X159494833Y-102291476D01*
X159542452Y-102339095D01*
X159637690Y-102386714D01*
X157828166Y-101577190D02*
X157828166Y-102053380D01*
X158161500Y-101053380D02*
X157828166Y-101577190D01*
X157494833Y-101053380D01*
X156732928Y-102053380D02*
X156732928Y-101529571D01*
X156780547Y-101434333D01*
X156875785Y-101386714D01*
X157066261Y-101386714D01*
X157161500Y-101434333D01*
X156732928Y-102005761D02*
X156828166Y-102053380D01*
X157066261Y-102053380D01*
X157161500Y-102005761D01*
X157209119Y-101910523D01*
X157209119Y-101815285D01*
X157161500Y-101720047D01*
X157066261Y-101672428D01*
X156828166Y-101672428D01*
X156732928Y-101624809D01*
X156256738Y-101386714D02*
X156256738Y-102053380D01*
X156256738Y-101481952D02*
X156209119Y-101434333D01*
X156113880Y-101386714D01*
X155971023Y-101386714D01*
X155875785Y-101434333D01*
X155828166Y-101529571D01*
X155828166Y-102053380D01*
X154923404Y-101386714D02*
X154923404Y-102196238D01*
X154971023Y-102291476D01*
X155018642Y-102339095D01*
X155113880Y-102386714D01*
X155256738Y-102386714D01*
X155351976Y-102339095D01*
X154923404Y-102005761D02*
X155018642Y-102053380D01*
X155209119Y-102053380D01*
X155304357Y-102005761D01*
X155351976Y-101958142D01*
X155399595Y-101862904D01*
X155399595Y-101577190D01*
X155351976Y-101481952D01*
X155304357Y-101434333D01*
X155209119Y-101386714D01*
X155018642Y-101386714D01*
X154923404Y-101434333D01*
X153209119Y-102053380D02*
X153685309Y-102053380D01*
X153685309Y-101053380D01*
X152494833Y-102005761D02*
X152590071Y-102053380D01*
X152780547Y-102053380D01*
X152875785Y-102005761D01*
X152923404Y-101910523D01*
X152923404Y-101529571D01*
X152875785Y-101434333D01*
X152780547Y-101386714D01*
X152590071Y-101386714D01*
X152494833Y-101434333D01*
X152447214Y-101529571D01*
X152447214Y-101624809D01*
X152923404Y-101720047D01*
X166590071Y-103179571D02*
X166447214Y-103227190D01*
X166399595Y-103274809D01*
X166351976Y-103370047D01*
X166351976Y-103512904D01*
X166399595Y-103608142D01*
X166447214Y-103655761D01*
X166542452Y-103703380D01*
X166923404Y-103703380D01*
X166923404Y-102703380D01*
X166590071Y-102703380D01*
X166494833Y-102751000D01*
X166447214Y-102798619D01*
X166399595Y-102893857D01*
X166399595Y-102989095D01*
X166447214Y-103084333D01*
X166494833Y-103131952D01*
X166590071Y-103179571D01*
X166923404Y-103179571D01*
X165494833Y-103703380D02*
X165494833Y-103179571D01*
X165542452Y-103084333D01*
X165637690Y-103036714D01*
X165828166Y-103036714D01*
X165923404Y-103084333D01*
X165494833Y-103655761D02*
X165590071Y-103703380D01*
X165828166Y-103703380D01*
X165923404Y-103655761D01*
X165971023Y-103560523D01*
X165971023Y-103465285D01*
X165923404Y-103370047D01*
X165828166Y-103322428D01*
X165590071Y-103322428D01*
X165494833Y-103274809D01*
X165066261Y-103655761D02*
X164971023Y-103703380D01*
X164780547Y-103703380D01*
X164685309Y-103655761D01*
X164637690Y-103560523D01*
X164637690Y-103512904D01*
X164685309Y-103417666D01*
X164780547Y-103370047D01*
X164923404Y-103370047D01*
X165018642Y-103322428D01*
X165066261Y-103227190D01*
X165066261Y-103179571D01*
X165018642Y-103084333D01*
X164923404Y-103036714D01*
X164780547Y-103036714D01*
X164685309Y-103084333D01*
X163828166Y-103655761D02*
X163923404Y-103703380D01*
X164113880Y-103703380D01*
X164209119Y-103655761D01*
X164256738Y-103560523D01*
X164256738Y-103179571D01*
X164209119Y-103084333D01*
X164113880Y-103036714D01*
X163923404Y-103036714D01*
X163828166Y-103084333D01*
X163780547Y-103179571D01*
X163780547Y-103274809D01*
X164256738Y-103370047D01*
X162923404Y-103703380D02*
X162923404Y-102703380D01*
X162923404Y-103655761D02*
X163018642Y-103703380D01*
X163209119Y-103703380D01*
X163304357Y-103655761D01*
X163351976Y-103608142D01*
X163399595Y-103512904D01*
X163399595Y-103227190D01*
X163351976Y-103131952D01*
X163304357Y-103084333D01*
X163209119Y-103036714D01*
X163018642Y-103036714D01*
X162923404Y-103084333D01*
X161542452Y-103703380D02*
X161637690Y-103655761D01*
X161685309Y-103608142D01*
X161732928Y-103512904D01*
X161732928Y-103227190D01*
X161685309Y-103131952D01*
X161637690Y-103084333D01*
X161542452Y-103036714D01*
X161399595Y-103036714D01*
X161304357Y-103084333D01*
X161256738Y-103131952D01*
X161209119Y-103227190D01*
X161209119Y-103512904D01*
X161256738Y-103608142D01*
X161304357Y-103655761D01*
X161399595Y-103703380D01*
X161542452Y-103703380D01*
X160780547Y-103036714D02*
X160780547Y-103703380D01*
X160780547Y-103131952D02*
X160732928Y-103084333D01*
X160637690Y-103036714D01*
X160494833Y-103036714D01*
X160399595Y-103084333D01*
X160351976Y-103179571D01*
X160351976Y-103703380D01*
X159161500Y-103417666D02*
X158685309Y-103417666D01*
X159256738Y-103703380D02*
X158923404Y-102703380D01*
X158590071Y-103703380D01*
X158256738Y-103703380D02*
X158256738Y-103036714D01*
X158256738Y-103227190D02*
X158209119Y-103131952D01*
X158161500Y-103084333D01*
X158066261Y-103036714D01*
X157971023Y-103036714D01*
X157209119Y-103703380D02*
X157209119Y-102703380D01*
X157209119Y-103655761D02*
X157304357Y-103703380D01*
X157494833Y-103703380D01*
X157590071Y-103655761D01*
X157637690Y-103608142D01*
X157685309Y-103512904D01*
X157685309Y-103227190D01*
X157637690Y-103131952D01*
X157590071Y-103084333D01*
X157494833Y-103036714D01*
X157304357Y-103036714D01*
X157209119Y-103084333D01*
X156304357Y-103036714D02*
X156304357Y-103703380D01*
X156732928Y-103036714D02*
X156732928Y-103560523D01*
X156685309Y-103655761D01*
X156590071Y-103703380D01*
X156447214Y-103703380D01*
X156351976Y-103655761D01*
X156304357Y-103608142D01*
X155828166Y-103703380D02*
X155828166Y-103036714D01*
X155828166Y-102703380D02*
X155875785Y-102751000D01*
X155828166Y-102798619D01*
X155780547Y-102751000D01*
X155828166Y-102703380D01*
X155828166Y-102798619D01*
X155351976Y-103036714D02*
X155351976Y-103703380D01*
X155351976Y-103131952D02*
X155304357Y-103084333D01*
X155209119Y-103036714D01*
X155066261Y-103036714D01*
X154971023Y-103084333D01*
X154923404Y-103179571D01*
X154923404Y-103703380D01*
X154304357Y-103703380D02*
X154399595Y-103655761D01*
X154447214Y-103608142D01*
X154494833Y-103512904D01*
X154494833Y-103227190D01*
X154447214Y-103131952D01*
X154399595Y-103084333D01*
X154304357Y-103036714D01*
X154161500Y-103036714D01*
X154066261Y-103084333D01*
X154018642Y-103131952D01*
X153971023Y-103227190D01*
X153971023Y-103512904D01*
X154018642Y-103608142D01*
X154066261Y-103655761D01*
X154161500Y-103703380D01*
X154304357Y-103703380D01*
X152828166Y-103655761D02*
X152685309Y-103703380D01*
X152447214Y-103703380D01*
X152351976Y-103655761D01*
X152304357Y-103608142D01*
X152256738Y-103512904D01*
X152256738Y-103417666D01*
X152304357Y-103322428D01*
X152351976Y-103274809D01*
X152447214Y-103227190D01*
X152637690Y-103179571D01*
X152732928Y-103131952D01*
X152780547Y-103084333D01*
X152828166Y-102989095D01*
X152828166Y-102893857D01*
X152780547Y-102798619D01*
X152732928Y-102751000D01*
X152637690Y-102703380D01*
X152399595Y-102703380D01*
X152256738Y-102751000D01*
X151923404Y-102703380D02*
X151304357Y-102703380D01*
X151637690Y-103084333D01*
X151494833Y-103084333D01*
X151399595Y-103131952D01*
X151351976Y-103179571D01*
X151304357Y-103274809D01*
X151304357Y-103512904D01*
X151351976Y-103608142D01*
X151399595Y-103655761D01*
X151494833Y-103703380D01*
X151780547Y-103703380D01*
X151875785Y-103655761D01*
X151923404Y-103608142D01*
X150971023Y-103036714D02*
X150732928Y-103703380D01*
X150494833Y-103036714D01*
X150209119Y-102703380D02*
X149590071Y-102703380D01*
X149923404Y-103084333D01*
X149780547Y-103084333D01*
X149685309Y-103131952D01*
X149637690Y-103179571D01*
X149590071Y-103274809D01*
X149590071Y-103512904D01*
X149637690Y-103608142D01*
X149685309Y-103655761D01*
X149780547Y-103703380D01*
X150066261Y-103703380D01*
X150161500Y-103655761D01*
X150209119Y-103608142D01*
X147828166Y-103703380D02*
X148161500Y-103227190D01*
X148399595Y-103703380D02*
X148399595Y-102703380D01*
X148018642Y-102703380D01*
X147923404Y-102751000D01*
X147875785Y-102798619D01*
X147828166Y-102893857D01*
X147828166Y-103036714D01*
X147875785Y-103131952D01*
X147923404Y-103179571D01*
X148018642Y-103227190D01*
X148399595Y-103227190D01*
X147447214Y-102798619D02*
X147399595Y-102751000D01*
X147304357Y-102703380D01*
X147066261Y-102703380D01*
X146971023Y-102751000D01*
X146923404Y-102798619D01*
X146875785Y-102893857D01*
X146875785Y-102989095D01*
X146923404Y-103131952D01*
X147494833Y-103703380D01*
X146875785Y-103703380D01*
X166399595Y-105353380D02*
X166971023Y-105353380D01*
X166685309Y-105353380D02*
X166685309Y-104353380D01*
X166780547Y-104496238D01*
X166875785Y-104591476D01*
X166971023Y-104639095D01*
X165780547Y-104353380D02*
X165685309Y-104353380D01*
X165590071Y-104401000D01*
X165542452Y-104448619D01*
X165494833Y-104543857D01*
X165447214Y-104734333D01*
X165447214Y-104972428D01*
X165494833Y-105162904D01*
X165542452Y-105258142D01*
X165590071Y-105305761D01*
X165685309Y-105353380D01*
X165780547Y-105353380D01*
X165875785Y-105305761D01*
X165923404Y-105258142D01*
X165971023Y-105162904D01*
X166018642Y-104972428D01*
X166018642Y-104734333D01*
X165971023Y-104543857D01*
X165923404Y-104448619D01*
X165875785Y-104401000D01*
X165780547Y-104353380D01*
X164304357Y-104305761D02*
X165161500Y-105591476D01*
X164018642Y-104448619D02*
X163971023Y-104401000D01*
X163875785Y-104353380D01*
X163637690Y-104353380D01*
X163542452Y-104401000D01*
X163494833Y-104448619D01*
X163447214Y-104543857D01*
X163447214Y-104639095D01*
X163494833Y-104781952D01*
X164066261Y-105353380D01*
X163447214Y-105353380D01*
X162828166Y-104353380D02*
X162732928Y-104353380D01*
X162637690Y-104401000D01*
X162590071Y-104448619D01*
X162542452Y-104543857D01*
X162494833Y-104734333D01*
X162494833Y-104972428D01*
X162542452Y-105162904D01*
X162590071Y-105258142D01*
X162637690Y-105305761D01*
X162732928Y-105353380D01*
X162828166Y-105353380D01*
X162923404Y-105305761D01*
X162971023Y-105258142D01*
X163018642Y-105162904D01*
X163066261Y-104972428D01*
X163066261Y-104734333D01*
X163018642Y-104543857D01*
X162971023Y-104448619D01*
X162923404Y-104401000D01*
X162828166Y-104353380D01*
X161542452Y-105353380D02*
X162113880Y-105353380D01*
X161828166Y-105353380D02*
X161828166Y-104353380D01*
X161923404Y-104496238D01*
X162018642Y-104591476D01*
X162113880Y-104639095D01*
X161066261Y-105353380D02*
X160875785Y-105353380D01*
X160780547Y-105305761D01*
X160732928Y-105258142D01*
X160637690Y-105115285D01*
X160590071Y-104924809D01*
X160590071Y-104543857D01*
X160637690Y-104448619D01*
X160685309Y-104401000D01*
X160780547Y-104353380D01*
X160971023Y-104353380D01*
X161066261Y-104401000D01*
X161113880Y-104448619D01*
X161161500Y-104543857D01*
X161161500Y-104781952D01*
X161113880Y-104877190D01*
X161066261Y-104924809D01*
X160971023Y-104972428D01*
X160780547Y-104972428D01*
X160685309Y-104924809D01*
X160637690Y-104877190D01*
X160590071Y-104781952D01*
X159542452Y-104353380D02*
X159209119Y-105353380D01*
X158875785Y-104353380D01*
X158161500Y-105305761D02*
X158256738Y-105353380D01*
X158447214Y-105353380D01*
X158542452Y-105305761D01*
X158590071Y-105210523D01*
X158590071Y-104829571D01*
X158542452Y-104734333D01*
X158447214Y-104686714D01*
X158256738Y-104686714D01*
X158161500Y-104734333D01*
X158113880Y-104829571D01*
X158113880Y-104924809D01*
X158590071Y-105020047D01*
X157685309Y-105353380D02*
X157685309Y-104686714D01*
X157685309Y-104877190D02*
X157637690Y-104781952D01*
X157590071Y-104734333D01*
X157494833Y-104686714D01*
X157399595Y-104686714D01*
X156113880Y-104353380D02*
X156018642Y-104353380D01*
X155923404Y-104401000D01*
X155875785Y-104448619D01*
X155828166Y-104543857D01*
X155780547Y-104734333D01*
X155780547Y-104972428D01*
X155828166Y-105162904D01*
X155875785Y-105258142D01*
X155923404Y-105305761D01*
X156018642Y-105353380D01*
X156113880Y-105353380D01*
X156209119Y-105305761D01*
X156256738Y-105258142D01*
X156304357Y-105162904D01*
X156351976Y-104972428D01*
X156351976Y-104734333D01*
X156304357Y-104543857D01*
X156256738Y-104448619D01*
X156209119Y-104401000D01*
X156113880Y-104353380D01*
X155351976Y-105258142D02*
X155304357Y-105305761D01*
X155351976Y-105353380D01*
X155399595Y-105305761D01*
X155351976Y-105258142D01*
X155351976Y-105353380D01*
X154399595Y-104353380D02*
X154875785Y-104353380D01*
X154923404Y-104829571D01*
X154875785Y-104781952D01*
X154780547Y-104734333D01*
X154542452Y-104734333D01*
X154447214Y-104781952D01*
X154399595Y-104829571D01*
X154351976Y-104924809D01*
X154351976Y-105162904D01*
X154399595Y-105258142D01*
X154447214Y-105305761D01*
X154542452Y-105353380D01*
X154780547Y-105353380D01*
X154875785Y-105305761D01*
X154923404Y-105258142D01*
D11*
G36*
X150614540Y-87654669D02*
G01*
X150608115Y-87898384D01*
X150600117Y-88071408D01*
X150588569Y-88187719D01*
X150571493Y-88261293D01*
X150546909Y-88306105D01*
X150518659Y-88332003D01*
X150388568Y-88387771D01*
X150269061Y-88361949D01*
X150222858Y-88325476D01*
X150195775Y-88283741D01*
X150176896Y-88212874D01*
X150164910Y-88099518D01*
X150158505Y-87930315D01*
X150156367Y-87691907D01*
X150156334Y-87648143D01*
X150156334Y-87037333D01*
X149690667Y-87037333D01*
X149690733Y-87661750D01*
X149694565Y-87956130D01*
X149708351Y-88179909D01*
X149735630Y-88346908D01*
X149779942Y-88470947D01*
X149844824Y-88565849D01*
X149933817Y-88645436D01*
X149944667Y-88653440D01*
X150062486Y-88705343D01*
X150231974Y-88740600D01*
X150421204Y-88755984D01*
X150598247Y-88748267D01*
X150692574Y-88729055D01*
X150810274Y-88668005D01*
X150922931Y-88572567D01*
X150935990Y-88557784D01*
X150976431Y-88507112D01*
X151005425Y-88456750D01*
X151024876Y-88392329D01*
X151036689Y-88299481D01*
X151042767Y-88163837D01*
X151045014Y-87971029D01*
X151045334Y-87732585D01*
X151045334Y-87037333D01*
X150628247Y-87037333D01*
X150614540Y-87654669D01*
X150614540Y-87654669D01*
G37*
X150614540Y-87654669D02*
X150608115Y-87898384D01*
X150600117Y-88071408D01*
X150588569Y-88187719D01*
X150571493Y-88261293D01*
X150546909Y-88306105D01*
X150518659Y-88332003D01*
X150388568Y-88387771D01*
X150269061Y-88361949D01*
X150222858Y-88325476D01*
X150195775Y-88283741D01*
X150176896Y-88212874D01*
X150164910Y-88099518D01*
X150158505Y-87930315D01*
X150156367Y-87691907D01*
X150156334Y-87648143D01*
X150156334Y-87037333D01*
X149690667Y-87037333D01*
X149690733Y-87661750D01*
X149694565Y-87956130D01*
X149708351Y-88179909D01*
X149735630Y-88346908D01*
X149779942Y-88470947D01*
X149844824Y-88565849D01*
X149933817Y-88645436D01*
X149944667Y-88653440D01*
X150062486Y-88705343D01*
X150231974Y-88740600D01*
X150421204Y-88755984D01*
X150598247Y-88748267D01*
X150692574Y-88729055D01*
X150810274Y-88668005D01*
X150922931Y-88572567D01*
X150935990Y-88557784D01*
X150976431Y-88507112D01*
X151005425Y-88456750D01*
X151024876Y-88392329D01*
X151036689Y-88299481D01*
X151042767Y-88163837D01*
X151045014Y-87971029D01*
X151045334Y-87732585D01*
X151045334Y-87037333D01*
X150628247Y-87037333D01*
X150614540Y-87654669D01*
G36*
X145070206Y-87035813D02*
G01*
X144967289Y-87075226D01*
X144828763Y-87159927D01*
X144731483Y-87276622D01*
X144669964Y-87438537D01*
X144638719Y-87658897D01*
X144631834Y-87884000D01*
X144642313Y-88143458D01*
X144678126Y-88338497D01*
X144745840Y-88487257D01*
X144852021Y-88607879D01*
X144911103Y-88655585D01*
X145020593Y-88704848D01*
X145181370Y-88741210D01*
X145360500Y-88760454D01*
X145525048Y-88758366D01*
X145605500Y-88744454D01*
X145779028Y-88656532D01*
X145925740Y-88508515D01*
X145986918Y-88406308D01*
X146031032Y-88258289D01*
X146056708Y-88058448D01*
X146061731Y-87884000D01*
X145584334Y-87884000D01*
X145570723Y-88117737D01*
X145528221Y-88276584D01*
X145454327Y-88366099D01*
X145355661Y-88392000D01*
X145250101Y-88361290D01*
X145193291Y-88317917D01*
X145138301Y-88210817D01*
X145105417Y-88055429D01*
X145094171Y-87875994D01*
X145104094Y-87696751D01*
X145134716Y-87541940D01*
X145185569Y-87435801D01*
X145210801Y-87412822D01*
X145335025Y-87377453D01*
X145456325Y-87411712D01*
X145518433Y-87470086D01*
X145560105Y-87574872D01*
X145581043Y-87745937D01*
X145584334Y-87884000D01*
X146061731Y-87884000D01*
X146063062Y-87837790D01*
X146049212Y-87627319D01*
X146014274Y-87458041D01*
X146013950Y-87457066D01*
X145907159Y-87259841D01*
X145744132Y-87113537D01*
X145540125Y-87023721D01*
X145310398Y-86995957D01*
X145070206Y-87035813D01*
X145070206Y-87035813D01*
G37*
X145070206Y-87035813D02*
X144967289Y-87075226D01*
X144828763Y-87159927D01*
X144731483Y-87276622D01*
X144669964Y-87438537D01*
X144638719Y-87658897D01*
X144631834Y-87884000D01*
X144642313Y-88143458D01*
X144678126Y-88338497D01*
X144745840Y-88487257D01*
X144852021Y-88607879D01*
X144911103Y-88655585D01*
X145020593Y-88704848D01*
X145181370Y-88741210D01*
X145360500Y-88760454D01*
X145525048Y-88758366D01*
X145605500Y-88744454D01*
X145779028Y-88656532D01*
X145925740Y-88508515D01*
X145986918Y-88406308D01*
X146031032Y-88258289D01*
X146056708Y-88058448D01*
X146061731Y-87884000D01*
X145584334Y-87884000D01*
X145570723Y-88117737D01*
X145528221Y-88276584D01*
X145454327Y-88366099D01*
X145355661Y-88392000D01*
X145250101Y-88361290D01*
X145193291Y-88317917D01*
X145138301Y-88210817D01*
X145105417Y-88055429D01*
X145094171Y-87875994D01*
X145104094Y-87696751D01*
X145134716Y-87541940D01*
X145185569Y-87435801D01*
X145210801Y-87412822D01*
X145335025Y-87377453D01*
X145456325Y-87411712D01*
X145518433Y-87470086D01*
X145560105Y-87574872D01*
X145581043Y-87745937D01*
X145584334Y-87884000D01*
X146061731Y-87884000D01*
X146063062Y-87837790D01*
X146049212Y-87627319D01*
X146014274Y-87458041D01*
X146013950Y-87457066D01*
X145907159Y-87259841D01*
X145744132Y-87113537D01*
X145540125Y-87023721D01*
X145310398Y-86995957D01*
X145070206Y-87035813D01*
G36*
X154931196Y-87788750D02*
G01*
X154854180Y-88033417D01*
X154784417Y-88255607D01*
X154726536Y-88440532D01*
X154685164Y-88573406D01*
X154665465Y-88637635D01*
X154653868Y-88691836D01*
X154672250Y-88719549D01*
X154738317Y-88727649D01*
X154869774Y-88723011D01*
X154883527Y-88722302D01*
X155022143Y-88712969D01*
X155099612Y-88693964D01*
X155139342Y-88651256D01*
X155164738Y-88570815D01*
X155169717Y-88550750D01*
X155196285Y-88458258D01*
X155233339Y-88411212D01*
X155306080Y-88394248D01*
X155430095Y-88392000D01*
X155559554Y-88394624D01*
X155629360Y-88412734D01*
X155664525Y-88461692D01*
X155688628Y-88550750D01*
X155725999Y-88709500D01*
X155973401Y-88722357D01*
X156113263Y-88725879D01*
X156184235Y-88715698D01*
X156201433Y-88688652D01*
X156197860Y-88675423D01*
X156178651Y-88617838D01*
X156138745Y-88492880D01*
X156082404Y-88314079D01*
X156013889Y-88094968D01*
X155982147Y-87992839D01*
X155560845Y-87992839D01*
X155554319Y-88036180D01*
X155481084Y-88052630D01*
X155447940Y-88053333D01*
X155356139Y-88046734D01*
X155328008Y-88012770D01*
X155339624Y-87942561D01*
X155370021Y-87812398D01*
X155391701Y-87710415D01*
X155420957Y-87624306D01*
X155454855Y-87619940D01*
X155489269Y-87694849D01*
X155509184Y-87780705D01*
X155534576Y-87899295D01*
X155558690Y-87986923D01*
X155560845Y-87992839D01*
X155982147Y-87992839D01*
X155937464Y-87849076D01*
X155930463Y-87826482D01*
X155686011Y-87037333D01*
X155168015Y-87037333D01*
X154931196Y-87788750D01*
X154931196Y-87788750D01*
G37*
X154931196Y-87788750D02*
X154854180Y-88033417D01*
X154784417Y-88255607D01*
X154726536Y-88440532D01*
X154685164Y-88573406D01*
X154665465Y-88637635D01*
X154653868Y-88691836D01*
X154672250Y-88719549D01*
X154738317Y-88727649D01*
X154869774Y-88723011D01*
X154883527Y-88722302D01*
X155022143Y-88712969D01*
X155099612Y-88693964D01*
X155139342Y-88651256D01*
X155164738Y-88570815D01*
X155169717Y-88550750D01*
X155196285Y-88458258D01*
X155233339Y-88411212D01*
X155306080Y-88394248D01*
X155430095Y-88392000D01*
X155559554Y-88394624D01*
X155629360Y-88412734D01*
X155664525Y-88461692D01*
X155688628Y-88550750D01*
X155725999Y-88709500D01*
X155973401Y-88722357D01*
X156113263Y-88725879D01*
X156184235Y-88715698D01*
X156201433Y-88688652D01*
X156197860Y-88675423D01*
X156178651Y-88617838D01*
X156138745Y-88492880D01*
X156082404Y-88314079D01*
X156013889Y-88094968D01*
X155982147Y-87992839D01*
X155560845Y-87992839D01*
X155554319Y-88036180D01*
X155481084Y-88052630D01*
X155447940Y-88053333D01*
X155356139Y-88046734D01*
X155328008Y-88012770D01*
X155339624Y-87942561D01*
X155370021Y-87812398D01*
X155391701Y-87710415D01*
X155420957Y-87624306D01*
X155454855Y-87619940D01*
X155489269Y-87694849D01*
X155509184Y-87780705D01*
X155534576Y-87899295D01*
X155558690Y-87986923D01*
X155560845Y-87992839D01*
X155982147Y-87992839D01*
X155937464Y-87849076D01*
X155930463Y-87826482D01*
X155686011Y-87037333D01*
X155168015Y-87037333D01*
X154931196Y-87788750D01*
G36*
X153861344Y-87044464D02*
G01*
X153640096Y-87051267D01*
X153486589Y-87060012D01*
X153383907Y-87073980D01*
X153315135Y-87096457D01*
X153263357Y-87130725D01*
X153223328Y-87168311D01*
X153117601Y-87328542D01*
X153066158Y-87525642D01*
X153069612Y-87732646D01*
X153128574Y-87922591D01*
X153203720Y-88031513D01*
X153294844Y-88128510D01*
X153143223Y-88429588D01*
X152991603Y-88730667D01*
X153527433Y-88730667D01*
X153648834Y-88476667D01*
X153723558Y-88333493D01*
X153784132Y-88254685D01*
X153844080Y-88224590D01*
X153868284Y-88222667D01*
X153922711Y-88229159D01*
X153952103Y-88261824D01*
X153964098Y-88340443D01*
X153966334Y-88476667D01*
X153966334Y-88730667D01*
X154389667Y-88730667D01*
X154389667Y-87418333D01*
X153966334Y-87418333D01*
X153966334Y-87841667D01*
X153821191Y-87841667D01*
X153701707Y-87822922D01*
X153612048Y-87777571D01*
X153609524Y-87775143D01*
X153553143Y-87671280D01*
X153550703Y-87552418D01*
X153593800Y-87469133D01*
X153667257Y-87435694D01*
X153782654Y-87418824D01*
X153805467Y-87418333D01*
X153966334Y-87418333D01*
X154389667Y-87418333D01*
X154389667Y-87030428D01*
X153861344Y-87044464D01*
X153861344Y-87044464D01*
G37*
X153861344Y-87044464D02*
X153640096Y-87051267D01*
X153486589Y-87060012D01*
X153383907Y-87073980D01*
X153315135Y-87096457D01*
X153263357Y-87130725D01*
X153223328Y-87168311D01*
X153117601Y-87328542D01*
X153066158Y-87525642D01*
X153069612Y-87732646D01*
X153128574Y-87922591D01*
X153203720Y-88031513D01*
X153294844Y-88128510D01*
X153143223Y-88429588D01*
X152991603Y-88730667D01*
X153527433Y-88730667D01*
X153648834Y-88476667D01*
X153723558Y-88333493D01*
X153784132Y-88254685D01*
X153844080Y-88224590D01*
X153868284Y-88222667D01*
X153922711Y-88229159D01*
X153952103Y-88261824D01*
X153964098Y-88340443D01*
X153966334Y-88476667D01*
X153966334Y-88730667D01*
X154389667Y-88730667D01*
X154389667Y-87418333D01*
X153966334Y-87418333D01*
X153966334Y-87841667D01*
X153821191Y-87841667D01*
X153701707Y-87822922D01*
X153612048Y-87777571D01*
X153609524Y-87775143D01*
X153553143Y-87671280D01*
X153550703Y-87552418D01*
X153593800Y-87469133D01*
X153667257Y-87435694D01*
X153782654Y-87418824D01*
X153805467Y-87418333D01*
X153966334Y-87418333D01*
X154389667Y-87418333D01*
X154389667Y-87030428D01*
X153861344Y-87044464D01*
G36*
X152304750Y-87038263D02*
G01*
X151989063Y-87053691D01*
X151745890Y-87102854D01*
X151567545Y-87192353D01*
X151446344Y-87328787D01*
X151374600Y-87518756D01*
X151344627Y-87768858D01*
X151342597Y-87864447D01*
X151366737Y-88149156D01*
X151443345Y-88371663D01*
X151575722Y-88538692D01*
X151721054Y-88635417D01*
X151828564Y-88682211D01*
X151941315Y-88711041D01*
X152084279Y-88725850D01*
X152282425Y-88730581D01*
X152324304Y-88730667D01*
X152738667Y-88730667D01*
X152738667Y-87418333D01*
X152315334Y-87418333D01*
X152315334Y-88349667D01*
X152171857Y-88349667D01*
X152039647Y-88325386D01*
X151928440Y-88268740D01*
X151874717Y-88214942D01*
X151844450Y-88146847D01*
X151831199Y-88040196D01*
X151828500Y-87892185D01*
X151841712Y-87679031D01*
X151886197Y-87536433D01*
X151969230Y-87453754D01*
X152098087Y-87420354D01*
X152152562Y-87418333D01*
X152315334Y-87418333D01*
X152738667Y-87418333D01*
X152738667Y-87037333D01*
X152304750Y-87038263D01*
X152304750Y-87038263D01*
G37*
X152304750Y-87038263D02*
X151989063Y-87053691D01*
X151745890Y-87102854D01*
X151567545Y-87192353D01*
X151446344Y-87328787D01*
X151374600Y-87518756D01*
X151344627Y-87768858D01*
X151342597Y-87864447D01*
X151366737Y-88149156D01*
X151443345Y-88371663D01*
X151575722Y-88538692D01*
X151721054Y-88635417D01*
X151828564Y-88682211D01*
X151941315Y-88711041D01*
X152084279Y-88725850D01*
X152282425Y-88730581D01*
X152324304Y-88730667D01*
X152738667Y-88730667D01*
X152738667Y-87418333D01*
X152315334Y-87418333D01*
X152315334Y-88349667D01*
X152171857Y-88349667D01*
X152039647Y-88325386D01*
X151928440Y-88268740D01*
X151874717Y-88214942D01*
X151844450Y-88146847D01*
X151831199Y-88040196D01*
X151828500Y-87892185D01*
X151841712Y-87679031D01*
X151886197Y-87536433D01*
X151969230Y-87453754D01*
X152098087Y-87420354D01*
X152152562Y-87418333D01*
X152315334Y-87418333D01*
X152738667Y-87418333D01*
X152738667Y-87037333D01*
X152304750Y-87038263D01*
G36*
X148039667Y-87418333D02*
G01*
X148463000Y-87418333D01*
X148463000Y-88349667D01*
X148039667Y-88349667D01*
X148039667Y-88730667D01*
X149352000Y-88730667D01*
X149352000Y-88349667D01*
X148928667Y-88349667D01*
X148928667Y-87418333D01*
X149352000Y-87418333D01*
X149352000Y-87037333D01*
X148039667Y-87037333D01*
X148039667Y-87418333D01*
X148039667Y-87418333D01*
G37*
X148039667Y-87418333D02*
X148463000Y-87418333D01*
X148463000Y-88349667D01*
X148039667Y-88349667D01*
X148039667Y-88730667D01*
X149352000Y-88730667D01*
X149352000Y-88349667D01*
X148928667Y-88349667D01*
X148928667Y-87418333D01*
X149352000Y-87418333D01*
X149352000Y-87037333D01*
X148039667Y-87037333D01*
X148039667Y-87418333D01*
G36*
X146994173Y-87488349D02*
G01*
X146748500Y-87939365D01*
X146736485Y-87488349D01*
X146724469Y-87037333D01*
X146304000Y-87037333D01*
X146304000Y-88734892D01*
X146790834Y-88709500D01*
X147044834Y-88234963D01*
X147298834Y-87760427D01*
X147310761Y-88245547D01*
X147322687Y-88730667D01*
X147743334Y-88730667D01*
X147743334Y-87037333D01*
X147239845Y-87037333D01*
X146994173Y-87488349D01*
X146994173Y-87488349D01*
G37*
X146994173Y-87488349D02*
X146748500Y-87939365D01*
X146736485Y-87488349D01*
X146724469Y-87037333D01*
X146304000Y-87037333D01*
X146304000Y-88734892D01*
X146790834Y-88709500D01*
X147044834Y-88234963D01*
X147298834Y-87760427D01*
X147310761Y-88245547D01*
X147322687Y-88730667D01*
X147743334Y-88730667D01*
X147743334Y-87037333D01*
X147239845Y-87037333D01*
X146994173Y-87488349D01*
G36*
X152995953Y-80400714D02*
G01*
X152513408Y-80516613D01*
X152041235Y-80707362D01*
X151587108Y-80973260D01*
X151422400Y-81092891D01*
X151279814Y-81212622D01*
X151112722Y-81368628D01*
X150937615Y-81543735D01*
X150770982Y-81720768D01*
X150629313Y-81882550D01*
X150529099Y-82011906D01*
X150506659Y-82046696D01*
X150451756Y-82129021D01*
X150414022Y-82166986D01*
X150411790Y-82167297D01*
X150377563Y-82134930D01*
X150307682Y-82050884D01*
X150216101Y-81932092D01*
X150198667Y-81908701D01*
X149855646Y-81506417D01*
X149465979Y-81156042D01*
X149039849Y-80862654D01*
X148587438Y-80631335D01*
X148118930Y-80467164D01*
X147644506Y-80375223D01*
X147174350Y-80360591D01*
X147105240Y-80365344D01*
X146767823Y-80407342D01*
X146460554Y-80479829D01*
X146150172Y-80592319D01*
X145881587Y-80715389D01*
X145670054Y-80826122D01*
X145497859Y-80936119D01*
X145335115Y-81067086D01*
X145151938Y-81240729D01*
X145134873Y-81257746D01*
X144961038Y-81438819D01*
X144831882Y-81595066D01*
X144726612Y-81755347D01*
X144624436Y-81948523D01*
X144598285Y-82002523D01*
X144411998Y-82470733D01*
X144308030Y-82929410D01*
X144285833Y-83386392D01*
X144344862Y-83849517D01*
X144444138Y-84211704D01*
X144617630Y-84606482D01*
X144862777Y-84982263D01*
X145166695Y-85324703D01*
X145516501Y-85619456D01*
X145899310Y-85852178D01*
X145931809Y-85868087D01*
X146311561Y-86028963D01*
X146669555Y-86130326D01*
X147037199Y-86178556D01*
X147445902Y-86180032D01*
X147463793Y-86179196D01*
X147987004Y-86116218D01*
X148476575Y-85977617D01*
X148942351Y-85760074D01*
X149219450Y-85586875D01*
X149410122Y-85440202D01*
X149627855Y-85247572D01*
X149849651Y-85031308D01*
X150052510Y-84813734D01*
X150199982Y-84635119D01*
X150400468Y-84370739D01*
X150583829Y-84613953D01*
X150890075Y-84974097D01*
X151240635Y-85307379D01*
X151616737Y-85598630D01*
X151999607Y-85832680D01*
X152223594Y-85938854D01*
X152621223Y-86070833D01*
X153053983Y-86154669D01*
X153495003Y-86187743D01*
X153917412Y-86167438D01*
X154156834Y-86127195D01*
X154601042Y-85999416D01*
X154991647Y-85821905D01*
X155349647Y-85583051D01*
X155685490Y-85281895D01*
X156008771Y-84899768D01*
X156256060Y-84481122D01*
X156426487Y-84027481D01*
X156446786Y-83950868D01*
X156491612Y-83676813D01*
X156506891Y-83355123D01*
X156498706Y-83138490D01*
X155440290Y-83138490D01*
X155432818Y-83492958D01*
X155354609Y-83830589D01*
X155212609Y-84144252D01*
X155013765Y-84426812D01*
X154765023Y-84671138D01*
X154473327Y-84870097D01*
X154145624Y-85016555D01*
X153788859Y-85103380D01*
X153409979Y-85123440D01*
X153114862Y-85090263D01*
X152969935Y-85051237D01*
X152783997Y-84984231D01*
X152590453Y-84901650D01*
X152532161Y-84873859D01*
X152213498Y-84682534D01*
X151893538Y-84426512D01*
X151591520Y-84123236D01*
X151326684Y-83790149D01*
X151309520Y-83765418D01*
X151179679Y-83576963D01*
X151092905Y-83441429D01*
X151047340Y-83339971D01*
X151042804Y-83277029D01*
X149812354Y-83277029D01*
X149679944Y-83495598D01*
X149379829Y-83932837D01*
X149046970Y-84311549D01*
X148689806Y-84623414D01*
X148316775Y-84860110D01*
X148274625Y-84881452D01*
X147910152Y-85033175D01*
X147567162Y-85113355D01*
X147226216Y-85124569D01*
X146867876Y-85069396D01*
X146864106Y-85068510D01*
X146474332Y-84935959D01*
X146131571Y-84735225D01*
X145841406Y-84470686D01*
X145609422Y-84146719D01*
X145552972Y-84040553D01*
X145481532Y-83891779D01*
X145435464Y-83775483D01*
X145409215Y-83664799D01*
X145397230Y-83532865D01*
X145393952Y-83352815D01*
X145393834Y-83270972D01*
X145395569Y-83065040D01*
X145404139Y-82917595D01*
X145424588Y-82802477D01*
X145461962Y-82693525D01*
X145521306Y-82564578D01*
X145535750Y-82535114D01*
X145747584Y-82199375D01*
X146026559Y-81912637D01*
X146367352Y-81680110D01*
X146456965Y-81633337D01*
X146612198Y-81559394D01*
X146736607Y-81511217D01*
X146858297Y-81482385D01*
X147005371Y-81466474D01*
X147205934Y-81457063D01*
X147232301Y-81456154D01*
X147457620Y-81451891D01*
X147627010Y-81458935D01*
X147768804Y-81480310D01*
X147911334Y-81519042D01*
X147955000Y-81533332D01*
X148362678Y-81713673D01*
X148751285Y-81972557D01*
X149115045Y-82304910D01*
X149448179Y-82705660D01*
X149668201Y-83037639D01*
X149812354Y-83277029D01*
X151042804Y-83277029D01*
X151041126Y-83253745D01*
X151072404Y-83163907D01*
X151139316Y-83051614D01*
X151226088Y-82919424D01*
X151529210Y-82506881D01*
X151859817Y-82152975D01*
X152209867Y-81864503D01*
X152571315Y-81648260D01*
X152870817Y-81529531D01*
X153166504Y-81468249D01*
X153491055Y-81448634D01*
X153815785Y-81469455D01*
X154112013Y-81529485D01*
X154277623Y-81589823D01*
X154648635Y-81798759D01*
X154952146Y-82056601D01*
X155186448Y-82361495D01*
X155349831Y-82711592D01*
X155370081Y-82774318D01*
X155440290Y-83138490D01*
X156498706Y-83138490D01*
X156494081Y-83016108D01*
X156454640Y-82690073D01*
X156390026Y-82407327D01*
X156369530Y-82345335D01*
X156213031Y-81976174D01*
X156019810Y-81655984D01*
X155770332Y-81354053D01*
X155679413Y-81260254D01*
X155295746Y-80933394D01*
X154876419Y-80679574D01*
X154429104Y-80499094D01*
X153961474Y-80392256D01*
X153481199Y-80359362D01*
X152995953Y-80400714D01*
X152995953Y-80400714D01*
G37*
X152995953Y-80400714D02*
X152513408Y-80516613D01*
X152041235Y-80707362D01*
X151587108Y-80973260D01*
X151422400Y-81092891D01*
X151279814Y-81212622D01*
X151112722Y-81368628D01*
X150937615Y-81543735D01*
X150770982Y-81720768D01*
X150629313Y-81882550D01*
X150529099Y-82011906D01*
X150506659Y-82046696D01*
X150451756Y-82129021D01*
X150414022Y-82166986D01*
X150411790Y-82167297D01*
X150377563Y-82134930D01*
X150307682Y-82050884D01*
X150216101Y-81932092D01*
X150198667Y-81908701D01*
X149855646Y-81506417D01*
X149465979Y-81156042D01*
X149039849Y-80862654D01*
X148587438Y-80631335D01*
X148118930Y-80467164D01*
X147644506Y-80375223D01*
X147174350Y-80360591D01*
X147105240Y-80365344D01*
X146767823Y-80407342D01*
X146460554Y-80479829D01*
X146150172Y-80592319D01*
X145881587Y-80715389D01*
X145670054Y-80826122D01*
X145497859Y-80936119D01*
X145335115Y-81067086D01*
X145151938Y-81240729D01*
X145134873Y-81257746D01*
X144961038Y-81438819D01*
X144831882Y-81595066D01*
X144726612Y-81755347D01*
X144624436Y-81948523D01*
X144598285Y-82002523D01*
X144411998Y-82470733D01*
X144308030Y-82929410D01*
X144285833Y-83386392D01*
X144344862Y-83849517D01*
X144444138Y-84211704D01*
X144617630Y-84606482D01*
X144862777Y-84982263D01*
X145166695Y-85324703D01*
X145516501Y-85619456D01*
X145899310Y-85852178D01*
X145931809Y-85868087D01*
X146311561Y-86028963D01*
X146669555Y-86130326D01*
X147037199Y-86178556D01*
X147445902Y-86180032D01*
X147463793Y-86179196D01*
X147987004Y-86116218D01*
X148476575Y-85977617D01*
X148942351Y-85760074D01*
X149219450Y-85586875D01*
X149410122Y-85440202D01*
X149627855Y-85247572D01*
X149849651Y-85031308D01*
X150052510Y-84813734D01*
X150199982Y-84635119D01*
X150400468Y-84370739D01*
X150583829Y-84613953D01*
X150890075Y-84974097D01*
X151240635Y-85307379D01*
X151616737Y-85598630D01*
X151999607Y-85832680D01*
X152223594Y-85938854D01*
X152621223Y-86070833D01*
X153053983Y-86154669D01*
X153495003Y-86187743D01*
X153917412Y-86167438D01*
X154156834Y-86127195D01*
X154601042Y-85999416D01*
X154991647Y-85821905D01*
X155349647Y-85583051D01*
X155685490Y-85281895D01*
X156008771Y-84899768D01*
X156256060Y-84481122D01*
X156426487Y-84027481D01*
X156446786Y-83950868D01*
X156491612Y-83676813D01*
X156506891Y-83355123D01*
X156498706Y-83138490D01*
X155440290Y-83138490D01*
X155432818Y-83492958D01*
X155354609Y-83830589D01*
X155212609Y-84144252D01*
X155013765Y-84426812D01*
X154765023Y-84671138D01*
X154473327Y-84870097D01*
X154145624Y-85016555D01*
X153788859Y-85103380D01*
X153409979Y-85123440D01*
X153114862Y-85090263D01*
X152969935Y-85051237D01*
X152783997Y-84984231D01*
X152590453Y-84901650D01*
X152532161Y-84873859D01*
X152213498Y-84682534D01*
X151893538Y-84426512D01*
X151591520Y-84123236D01*
X151326684Y-83790149D01*
X151309520Y-83765418D01*
X151179679Y-83576963D01*
X151092905Y-83441429D01*
X151047340Y-83339971D01*
X151042804Y-83277029D01*
X149812354Y-83277029D01*
X149679944Y-83495598D01*
X149379829Y-83932837D01*
X149046970Y-84311549D01*
X148689806Y-84623414D01*
X148316775Y-84860110D01*
X148274625Y-84881452D01*
X147910152Y-85033175D01*
X147567162Y-85113355D01*
X147226216Y-85124569D01*
X146867876Y-85069396D01*
X146864106Y-85068510D01*
X146474332Y-84935959D01*
X146131571Y-84735225D01*
X145841406Y-84470686D01*
X145609422Y-84146719D01*
X145552972Y-84040553D01*
X145481532Y-83891779D01*
X145435464Y-83775483D01*
X145409215Y-83664799D01*
X145397230Y-83532865D01*
X145393952Y-83352815D01*
X145393834Y-83270972D01*
X145395569Y-83065040D01*
X145404139Y-82917595D01*
X145424588Y-82802477D01*
X145461962Y-82693525D01*
X145521306Y-82564578D01*
X145535750Y-82535114D01*
X145747584Y-82199375D01*
X146026559Y-81912637D01*
X146367352Y-81680110D01*
X146456965Y-81633337D01*
X146612198Y-81559394D01*
X146736607Y-81511217D01*
X146858297Y-81482385D01*
X147005371Y-81466474D01*
X147205934Y-81457063D01*
X147232301Y-81456154D01*
X147457620Y-81451891D01*
X147627010Y-81458935D01*
X147768804Y-81480310D01*
X147911334Y-81519042D01*
X147955000Y-81533332D01*
X148362678Y-81713673D01*
X148751285Y-81972557D01*
X149115045Y-82304910D01*
X149448179Y-82705660D01*
X149668201Y-83037639D01*
X149812354Y-83277029D01*
X151042804Y-83277029D01*
X151041126Y-83253745D01*
X151072404Y-83163907D01*
X151139316Y-83051614D01*
X151226088Y-82919424D01*
X151529210Y-82506881D01*
X151859817Y-82152975D01*
X152209867Y-81864503D01*
X152571315Y-81648260D01*
X152870817Y-81529531D01*
X153166504Y-81468249D01*
X153491055Y-81448634D01*
X153815785Y-81469455D01*
X154112013Y-81529485D01*
X154277623Y-81589823D01*
X154648635Y-81798759D01*
X154952146Y-82056601D01*
X155186448Y-82361495D01*
X155349831Y-82711592D01*
X155370081Y-82774318D01*
X155440290Y-83138490D01*
X156498706Y-83138490D01*
X156494081Y-83016108D01*
X156454640Y-82690073D01*
X156390026Y-82407327D01*
X156369530Y-82345335D01*
X156213031Y-81976174D01*
X156019810Y-81655984D01*
X155770332Y-81354053D01*
X155679413Y-81260254D01*
X155295746Y-80933394D01*
X154876419Y-80679574D01*
X154429104Y-80499094D01*
X153961474Y-80392256D01*
X153481199Y-80359362D01*
X152995953Y-80400714D01*
G36*
X152527000Y-83608333D02*
G01*
X154347334Y-83608333D01*
X154347334Y-82973333D01*
X152527000Y-82973333D01*
X152527000Y-83608333D01*
X152527000Y-83608333D01*
G37*
X152527000Y-83608333D02*
X154347334Y-83608333D01*
X154347334Y-82973333D01*
X152527000Y-82973333D01*
X152527000Y-83608333D01*
G36*
X147108334Y-82973333D02*
G01*
X146473334Y-82973333D01*
X146473334Y-83608333D01*
X147108334Y-83608333D01*
X147108334Y-84201000D01*
X147701000Y-84201000D01*
X147701000Y-83608333D01*
X148336000Y-83608333D01*
X148336000Y-82973333D01*
X147701000Y-82973333D01*
X147701000Y-82380667D01*
X147108334Y-82380667D01*
X147108334Y-82973333D01*
X147108334Y-82973333D01*
G37*
X147108334Y-82973333D02*
X146473334Y-82973333D01*
X146473334Y-83608333D01*
X147108334Y-83608333D01*
X147108334Y-84201000D01*
X147701000Y-84201000D01*
X147701000Y-83608333D01*
X148336000Y-83608333D01*
X148336000Y-82973333D01*
X147701000Y-82973333D01*
X147701000Y-82380667D01*
X147108334Y-82380667D01*
X147108334Y-82973333D01*
G36*
X161601677Y-117654033D02*
G01*
X161570298Y-117676276D01*
X161542589Y-117703985D01*
X161542589Y-118013420D01*
X161542662Y-118105299D01*
X161543005Y-118177340D01*
X161543808Y-118232280D01*
X161545259Y-118272860D01*
X161547548Y-118301817D01*
X161550864Y-118321891D01*
X161555395Y-118335821D01*
X161561331Y-118346345D01*
X161565986Y-118352600D01*
X161596717Y-118377173D01*
X161632004Y-118379841D01*
X161664255Y-118364771D01*
X161674912Y-118355874D01*
X161682036Y-118344057D01*
X161686333Y-118325026D01*
X161688509Y-118294492D01*
X161689272Y-118248162D01*
X161689345Y-118212371D01*
X161689345Y-118077545D01*
X162186056Y-118077545D01*
X162186056Y-118200200D01*
X162186569Y-118256287D01*
X162188624Y-118294833D01*
X162192992Y-118320861D01*
X162200444Y-118339397D01*
X162209453Y-118352600D01*
X162240356Y-118377104D01*
X162275304Y-118380006D01*
X162308762Y-118362589D01*
X162317896Y-118353459D01*
X162324348Y-118341355D01*
X162328603Y-118322501D01*
X162331148Y-118293120D01*
X162332471Y-118249437D01*
X162333057Y-118187675D01*
X162333125Y-118173500D01*
X162333609Y-118057131D01*
X162333859Y-117961227D01*
X162333777Y-117883677D01*
X162333269Y-117822369D01*
X162332238Y-117775190D01*
X162330587Y-117740030D01*
X162328221Y-117714776D01*
X162325043Y-117697317D01*
X162320956Y-117685541D01*
X162315866Y-117677335D01*
X162310234Y-117671145D01*
X162278372Y-117651344D01*
X162245143Y-117654033D01*
X162213765Y-117676276D01*
X162201067Y-117690626D01*
X162192974Y-117706478D01*
X162188458Y-117729054D01*
X162186494Y-117763578D01*
X162186056Y-117815276D01*
X162186056Y-117930789D01*
X161689345Y-117930789D01*
X161689345Y-117812256D01*
X161688838Y-117757648D01*
X161686802Y-117720775D01*
X161682465Y-117696807D01*
X161675053Y-117680915D01*
X161666767Y-117671145D01*
X161634906Y-117651344D01*
X161601677Y-117654033D01*
X161601677Y-117654033D01*
G37*
X161601677Y-117654033D02*
X161570298Y-117676276D01*
X161542589Y-117703985D01*
X161542589Y-118013420D01*
X161542662Y-118105299D01*
X161543005Y-118177340D01*
X161543808Y-118232280D01*
X161545259Y-118272860D01*
X161547548Y-118301817D01*
X161550864Y-118321891D01*
X161555395Y-118335821D01*
X161561331Y-118346345D01*
X161565986Y-118352600D01*
X161596717Y-118377173D01*
X161632004Y-118379841D01*
X161664255Y-118364771D01*
X161674912Y-118355874D01*
X161682036Y-118344057D01*
X161686333Y-118325026D01*
X161688509Y-118294492D01*
X161689272Y-118248162D01*
X161689345Y-118212371D01*
X161689345Y-118077545D01*
X162186056Y-118077545D01*
X162186056Y-118200200D01*
X162186569Y-118256287D01*
X162188624Y-118294833D01*
X162192992Y-118320861D01*
X162200444Y-118339397D01*
X162209453Y-118352600D01*
X162240356Y-118377104D01*
X162275304Y-118380006D01*
X162308762Y-118362589D01*
X162317896Y-118353459D01*
X162324348Y-118341355D01*
X162328603Y-118322501D01*
X162331148Y-118293120D01*
X162332471Y-118249437D01*
X162333057Y-118187675D01*
X162333125Y-118173500D01*
X162333609Y-118057131D01*
X162333859Y-117961227D01*
X162333777Y-117883677D01*
X162333269Y-117822369D01*
X162332238Y-117775190D01*
X162330587Y-117740030D01*
X162328221Y-117714776D01*
X162325043Y-117697317D01*
X162320956Y-117685541D01*
X162315866Y-117677335D01*
X162310234Y-117671145D01*
X162278372Y-117651344D01*
X162245143Y-117654033D01*
X162213765Y-117676276D01*
X162201067Y-117690626D01*
X162192974Y-117706478D01*
X162188458Y-117729054D01*
X162186494Y-117763578D01*
X162186056Y-117815276D01*
X162186056Y-117930789D01*
X161689345Y-117930789D01*
X161689345Y-117812256D01*
X161688838Y-117757648D01*
X161686802Y-117720775D01*
X161682465Y-117696807D01*
X161675053Y-117680915D01*
X161666767Y-117671145D01*
X161634906Y-117651344D01*
X161601677Y-117654033D01*
G36*
X162867435Y-117648663D02*
G01*
X162788728Y-117649042D01*
X162727637Y-117649833D01*
X162681683Y-117651170D01*
X162648386Y-117653183D01*
X162625264Y-117656006D01*
X162609838Y-117659769D01*
X162599629Y-117664605D01*
X162594687Y-117668322D01*
X162569043Y-117700858D01*
X162565941Y-117734638D01*
X162581789Y-117765326D01*
X162592152Y-117777589D01*
X162603304Y-117785950D01*
X162619465Y-117791157D01*
X162644858Y-117793957D01*
X162683702Y-117795096D01*
X162740220Y-117795321D01*
X162751320Y-117795322D01*
X162897256Y-117795322D01*
X162897256Y-118066256D01*
X162897352Y-118151654D01*
X162897789Y-118217364D01*
X162898788Y-118266274D01*
X162900572Y-118301273D01*
X162903363Y-118325249D01*
X162907383Y-118341093D01*
X162912855Y-118351691D01*
X162919834Y-118359767D01*
X162952766Y-118379612D01*
X162987146Y-118378048D01*
X163018324Y-118355406D01*
X163020614Y-118352600D01*
X163028071Y-118341992D01*
X163033753Y-118329581D01*
X163037899Y-118312350D01*
X163040750Y-118287284D01*
X163042546Y-118251367D01*
X163043528Y-118201583D01*
X163043936Y-118134917D01*
X163044011Y-118059089D01*
X163044011Y-117795322D01*
X163183373Y-117795322D01*
X163243178Y-117794918D01*
X163284582Y-117793340D01*
X163311752Y-117790047D01*
X163328854Y-117784492D01*
X163340057Y-117776131D01*
X163341417Y-117774678D01*
X163357775Y-117741439D01*
X163356328Y-117703862D01*
X163337522Y-117671145D01*
X163330250Y-117664798D01*
X163320873Y-117659766D01*
X163306891Y-117655896D01*
X163285804Y-117653037D01*
X163255111Y-117651035D01*
X163212311Y-117649739D01*
X163154905Y-117648998D01*
X163080390Y-117648658D01*
X162986267Y-117648568D01*
X162966240Y-117648567D01*
X162867435Y-117648663D01*
X162867435Y-117648663D01*
G37*
X162867435Y-117648663D02*
X162788728Y-117649042D01*
X162727637Y-117649833D01*
X162681683Y-117651170D01*
X162648386Y-117653183D01*
X162625264Y-117656006D01*
X162609838Y-117659769D01*
X162599629Y-117664605D01*
X162594687Y-117668322D01*
X162569043Y-117700858D01*
X162565941Y-117734638D01*
X162581789Y-117765326D01*
X162592152Y-117777589D01*
X162603304Y-117785950D01*
X162619465Y-117791157D01*
X162644858Y-117793957D01*
X162683702Y-117795096D01*
X162740220Y-117795321D01*
X162751320Y-117795322D01*
X162897256Y-117795322D01*
X162897256Y-118066256D01*
X162897352Y-118151654D01*
X162897789Y-118217364D01*
X162898788Y-118266274D01*
X162900572Y-118301273D01*
X162903363Y-118325249D01*
X162907383Y-118341093D01*
X162912855Y-118351691D01*
X162919834Y-118359767D01*
X162952766Y-118379612D01*
X162987146Y-118378048D01*
X163018324Y-118355406D01*
X163020614Y-118352600D01*
X163028071Y-118341992D01*
X163033753Y-118329581D01*
X163037899Y-118312350D01*
X163040750Y-118287284D01*
X163042546Y-118251367D01*
X163043528Y-118201583D01*
X163043936Y-118134917D01*
X163044011Y-118059089D01*
X163044011Y-117795322D01*
X163183373Y-117795322D01*
X163243178Y-117794918D01*
X163284582Y-117793340D01*
X163311752Y-117790047D01*
X163328854Y-117784492D01*
X163340057Y-117776131D01*
X163341417Y-117774678D01*
X163357775Y-117741439D01*
X163356328Y-117703862D01*
X163337522Y-117671145D01*
X163330250Y-117664798D01*
X163320873Y-117659766D01*
X163306891Y-117655896D01*
X163285804Y-117653037D01*
X163255111Y-117651035D01*
X163212311Y-117649739D01*
X163154905Y-117648998D01*
X163080390Y-117648658D01*
X162986267Y-117648568D01*
X162966240Y-117648567D01*
X162867435Y-117648663D01*
G36*
X163641886Y-117655377D02*
G01*
X163618173Y-117670147D01*
X163591522Y-117691727D01*
X163591522Y-118013273D01*
X163591607Y-118107330D01*
X163591971Y-118181432D01*
X163592776Y-118238204D01*
X163594187Y-118280268D01*
X163596367Y-118310248D01*
X163599479Y-118330767D01*
X163603686Y-118344449D01*
X163609152Y-118353916D01*
X163613028Y-118358582D01*
X163644466Y-118379075D01*
X163680267Y-118378239D01*
X163711627Y-118360764D01*
X163738278Y-118339184D01*
X163738278Y-117691727D01*
X163711627Y-117670147D01*
X163685906Y-117654449D01*
X163664900Y-117648567D01*
X163641886Y-117655377D01*
X163641886Y-117655377D01*
G37*
X163641886Y-117655377D02*
X163618173Y-117670147D01*
X163591522Y-117691727D01*
X163591522Y-118013273D01*
X163591607Y-118107330D01*
X163591971Y-118181432D01*
X163592776Y-118238204D01*
X163594187Y-118280268D01*
X163596367Y-118310248D01*
X163599479Y-118330767D01*
X163603686Y-118344449D01*
X163609152Y-118353916D01*
X163613028Y-118358582D01*
X163644466Y-118379075D01*
X163680267Y-118378239D01*
X163711627Y-118360764D01*
X163738278Y-118339184D01*
X163738278Y-117691727D01*
X163711627Y-117670147D01*
X163685906Y-117654449D01*
X163664900Y-117648567D01*
X163641886Y-117655377D01*
G36*
X164085835Y-117650534D02*
G01*
X164066245Y-117657535D01*
X164065490Y-117657877D01*
X164038887Y-117678178D01*
X164024230Y-117699061D01*
X164021362Y-117708852D01*
X164021504Y-117721861D01*
X164025539Y-117740395D01*
X164034354Y-117766757D01*
X164048831Y-117803252D01*
X164069855Y-117852187D01*
X164098312Y-117915865D01*
X164135085Y-117996593D01*
X164155325Y-118040716D01*
X164191875Y-118119485D01*
X164226185Y-118191923D01*
X164256948Y-118255380D01*
X164282852Y-118307208D01*
X164302590Y-118344759D01*
X164314850Y-118365384D01*
X164317276Y-118368233D01*
X164348317Y-118380802D01*
X164383379Y-118379119D01*
X164411500Y-118363832D01*
X164412646Y-118362589D01*
X164423832Y-118345654D01*
X164442596Y-118312670D01*
X164466625Y-118267880D01*
X164493603Y-118215532D01*
X164503299Y-118196242D01*
X164576486Y-118049650D01*
X164656260Y-118208893D01*
X164684733Y-118263915D01*
X164711150Y-118311632D01*
X164733352Y-118348393D01*
X164749181Y-118370544D01*
X164754546Y-118375241D01*
X164796243Y-118381602D01*
X164830651Y-118368233D01*
X164840772Y-118353946D01*
X164858286Y-118322192D01*
X164881765Y-118276097D01*
X164909780Y-118218785D01*
X164940901Y-118153380D01*
X164973701Y-118083007D01*
X165006750Y-118010791D01*
X165038619Y-117939855D01*
X165067881Y-117873325D01*
X165093105Y-117814326D01*
X165112864Y-117765981D01*
X165125728Y-117731415D01*
X165130269Y-117713753D01*
X165130223Y-117713113D01*
X165119174Y-117690888D01*
X165097090Y-117668253D01*
X165095790Y-117667268D01*
X165068647Y-117651925D01*
X165043542Y-117652074D01*
X165034132Y-117654966D01*
X165022666Y-117661218D01*
X165010490Y-117673514D01*
X164996143Y-117694408D01*
X164978164Y-117726449D01*
X164955093Y-117772188D01*
X164925470Y-117834177D01*
X164898755Y-117891398D01*
X164868020Y-117957726D01*
X164840479Y-118017374D01*
X164817562Y-118067225D01*
X164800702Y-118104164D01*
X164791327Y-118125073D01*
X164789960Y-118128345D01*
X164783811Y-118122997D01*
X164769678Y-118100609D01*
X164749443Y-118064446D01*
X164724985Y-118017777D01*
X164715252Y-117998522D01*
X164682283Y-117933504D01*
X164656857Y-117886154D01*
X164636888Y-117853719D01*
X164620290Y-117833446D01*
X164604976Y-117822582D01*
X164588860Y-117818375D01*
X164578357Y-117817900D01*
X164559830Y-117819542D01*
X164543596Y-117826331D01*
X164527465Y-117841066D01*
X164509249Y-117866544D01*
X164486761Y-117905561D01*
X164457811Y-117960914D01*
X164441838Y-117992403D01*
X164415930Y-118042587D01*
X164393333Y-118084204D01*
X164376042Y-118113742D01*
X164366050Y-118127689D01*
X164364691Y-118128270D01*
X164358239Y-118117293D01*
X164343792Y-118088790D01*
X164322797Y-118045744D01*
X164296703Y-117991138D01*
X164266954Y-117927954D01*
X164252320Y-117896571D01*
X164214250Y-117815578D01*
X164183595Y-117753256D01*
X164158763Y-117707571D01*
X164138163Y-117676489D01*
X164120202Y-117657978D01*
X164103290Y-117650004D01*
X164085835Y-117650534D01*
X164085835Y-117650534D01*
G37*
X164085835Y-117650534D02*
X164066245Y-117657535D01*
X164065490Y-117657877D01*
X164038887Y-117678178D01*
X164024230Y-117699061D01*
X164021362Y-117708852D01*
X164021504Y-117721861D01*
X164025539Y-117740395D01*
X164034354Y-117766757D01*
X164048831Y-117803252D01*
X164069855Y-117852187D01*
X164098312Y-117915865D01*
X164135085Y-117996593D01*
X164155325Y-118040716D01*
X164191875Y-118119485D01*
X164226185Y-118191923D01*
X164256948Y-118255380D01*
X164282852Y-118307208D01*
X164302590Y-118344759D01*
X164314850Y-118365384D01*
X164317276Y-118368233D01*
X164348317Y-118380802D01*
X164383379Y-118379119D01*
X164411500Y-118363832D01*
X164412646Y-118362589D01*
X164423832Y-118345654D01*
X164442596Y-118312670D01*
X164466625Y-118267880D01*
X164493603Y-118215532D01*
X164503299Y-118196242D01*
X164576486Y-118049650D01*
X164656260Y-118208893D01*
X164684733Y-118263915D01*
X164711150Y-118311632D01*
X164733352Y-118348393D01*
X164749181Y-118370544D01*
X164754546Y-118375241D01*
X164796243Y-118381602D01*
X164830651Y-118368233D01*
X164840772Y-118353946D01*
X164858286Y-118322192D01*
X164881765Y-118276097D01*
X164909780Y-118218785D01*
X164940901Y-118153380D01*
X164973701Y-118083007D01*
X165006750Y-118010791D01*
X165038619Y-117939855D01*
X165067881Y-117873325D01*
X165093105Y-117814326D01*
X165112864Y-117765981D01*
X165125728Y-117731415D01*
X165130269Y-117713753D01*
X165130223Y-117713113D01*
X165119174Y-117690888D01*
X165097090Y-117668253D01*
X165095790Y-117667268D01*
X165068647Y-117651925D01*
X165043542Y-117652074D01*
X165034132Y-117654966D01*
X165022666Y-117661218D01*
X165010490Y-117673514D01*
X164996143Y-117694408D01*
X164978164Y-117726449D01*
X164955093Y-117772188D01*
X164925470Y-117834177D01*
X164898755Y-117891398D01*
X164868020Y-117957726D01*
X164840479Y-118017374D01*
X164817562Y-118067225D01*
X164800702Y-118104164D01*
X164791327Y-118125073D01*
X164789960Y-118128345D01*
X164783811Y-118122997D01*
X164769678Y-118100609D01*
X164749443Y-118064446D01*
X164724985Y-118017777D01*
X164715252Y-117998522D01*
X164682283Y-117933504D01*
X164656857Y-117886154D01*
X164636888Y-117853719D01*
X164620290Y-117833446D01*
X164604976Y-117822582D01*
X164588860Y-117818375D01*
X164578357Y-117817900D01*
X164559830Y-117819542D01*
X164543596Y-117826331D01*
X164527465Y-117841066D01*
X164509249Y-117866544D01*
X164486761Y-117905561D01*
X164457811Y-117960914D01*
X164441838Y-117992403D01*
X164415930Y-118042587D01*
X164393333Y-118084204D01*
X164376042Y-118113742D01*
X164366050Y-118127689D01*
X164364691Y-118128270D01*
X164358239Y-118117293D01*
X164343792Y-118088790D01*
X164322797Y-118045744D01*
X164296703Y-117991138D01*
X164266954Y-117927954D01*
X164252320Y-117896571D01*
X164214250Y-117815578D01*
X164183595Y-117753256D01*
X164158763Y-117707571D01*
X164138163Y-117676489D01*
X164120202Y-117657978D01*
X164103290Y-117650004D01*
X164085835Y-117650534D01*
G36*
X166812191Y-117648775D02*
G01*
X166683212Y-117653136D01*
X166573509Y-117666361D01*
X166481274Y-117689241D01*
X166404698Y-117722570D01*
X166341973Y-117767138D01*
X166291288Y-117823736D01*
X166250837Y-117893158D01*
X166250041Y-117894851D01*
X166225899Y-117956983D01*
X166217297Y-118012009D01*
X166224269Y-118067387D01*
X166246846Y-118130573D01*
X166251128Y-118140189D01*
X166280328Y-118196466D01*
X166313144Y-118239951D01*
X166355498Y-118276917D01*
X166413310Y-118313635D01*
X166416669Y-118315552D01*
X166466996Y-118339727D01*
X166523879Y-118357782D01*
X166590973Y-118370339D01*
X166671935Y-118378022D01*
X166770418Y-118381453D01*
X166805214Y-118381751D01*
X166970906Y-118382345D01*
X166994303Y-118352600D01*
X167001243Y-118342819D01*
X167006658Y-118331397D01*
X167010735Y-118315595D01*
X167013663Y-118292675D01*
X167015633Y-118259896D01*
X167016275Y-118235589D01*
X166859656Y-118235589D01*
X166765774Y-118235589D01*
X166710836Y-118233983D01*
X166654440Y-118229755D01*
X166608155Y-118223792D01*
X166605361Y-118223290D01*
X166523152Y-118201236D01*
X166459386Y-118168100D01*
X166412048Y-118122347D01*
X166379118Y-118062439D01*
X166373392Y-118046561D01*
X166367779Y-118021833D01*
X166370209Y-117997402D01*
X166382033Y-117964900D01*
X166389160Y-117948934D01*
X166412500Y-117906506D01*
X166440620Y-117876740D01*
X166471560Y-117856011D01*
X166533534Y-117829037D01*
X166612849Y-117809498D01*
X166705247Y-117798246D01*
X166772167Y-117795770D01*
X166859656Y-117795322D01*
X166859656Y-118235589D01*
X167016275Y-118235589D01*
X167016832Y-118214521D01*
X167017450Y-118153811D01*
X167017675Y-118075026D01*
X167017700Y-118013420D01*
X167017700Y-117703985D01*
X166989991Y-117676276D01*
X166977694Y-117665044D01*
X166964397Y-117657353D01*
X166945828Y-117652540D01*
X166917714Y-117649946D01*
X166875783Y-117648910D01*
X166815763Y-117648770D01*
X166812191Y-117648775D01*
X166812191Y-117648775D01*
G37*
X166812191Y-117648775D02*
X166683212Y-117653136D01*
X166573509Y-117666361D01*
X166481274Y-117689241D01*
X166404698Y-117722570D01*
X166341973Y-117767138D01*
X166291288Y-117823736D01*
X166250837Y-117893158D01*
X166250041Y-117894851D01*
X166225899Y-117956983D01*
X166217297Y-118012009D01*
X166224269Y-118067387D01*
X166246846Y-118130573D01*
X166251128Y-118140189D01*
X166280328Y-118196466D01*
X166313144Y-118239951D01*
X166355498Y-118276917D01*
X166413310Y-118313635D01*
X166416669Y-118315552D01*
X166466996Y-118339727D01*
X166523879Y-118357782D01*
X166590973Y-118370339D01*
X166671935Y-118378022D01*
X166770418Y-118381453D01*
X166805214Y-118381751D01*
X166970906Y-118382345D01*
X166994303Y-118352600D01*
X167001243Y-118342819D01*
X167006658Y-118331397D01*
X167010735Y-118315595D01*
X167013663Y-118292675D01*
X167015633Y-118259896D01*
X167016275Y-118235589D01*
X166859656Y-118235589D01*
X166765774Y-118235589D01*
X166710836Y-118233983D01*
X166654440Y-118229755D01*
X166608155Y-118223792D01*
X166605361Y-118223290D01*
X166523152Y-118201236D01*
X166459386Y-118168100D01*
X166412048Y-118122347D01*
X166379118Y-118062439D01*
X166373392Y-118046561D01*
X166367779Y-118021833D01*
X166370209Y-117997402D01*
X166382033Y-117964900D01*
X166389160Y-117948934D01*
X166412500Y-117906506D01*
X166440620Y-117876740D01*
X166471560Y-117856011D01*
X166533534Y-117829037D01*
X166612849Y-117809498D01*
X166705247Y-117798246D01*
X166772167Y-117795770D01*
X166859656Y-117795322D01*
X166859656Y-118235589D01*
X167016275Y-118235589D01*
X167016832Y-118214521D01*
X167017450Y-118153811D01*
X167017675Y-118075026D01*
X167017700Y-118013420D01*
X167017700Y-117703985D01*
X166989991Y-117676276D01*
X166977694Y-117665044D01*
X166964397Y-117657353D01*
X166945828Y-117652540D01*
X166917714Y-117649946D01*
X166875783Y-117648910D01*
X166815763Y-117648770D01*
X166812191Y-117648775D01*
G36*
X167600157Y-117648760D02*
G01*
X167523799Y-117649674D01*
X167465283Y-117651811D01*
X167422245Y-117655675D01*
X167392317Y-117661767D01*
X167373132Y-117670590D01*
X167362324Y-117682646D01*
X167357527Y-117698439D01*
X167356373Y-117718470D01*
X167356367Y-117720835D01*
X167357369Y-117743492D01*
X167362104Y-117761003D01*
X167373167Y-117774074D01*
X167393152Y-117783413D01*
X167424654Y-117789727D01*
X167470268Y-117793722D01*
X167532587Y-117796106D01*
X167614207Y-117797586D01*
X167639223Y-117797914D01*
X167881300Y-117800967D01*
X167884686Y-117865878D01*
X167888071Y-117930789D01*
X167719924Y-117930789D01*
X167654234Y-117931031D01*
X167607328Y-117932056D01*
X167575417Y-117934311D01*
X167554709Y-117938242D01*
X167541416Y-117944298D01*
X167531745Y-117952924D01*
X167531683Y-117952993D01*
X167514144Y-117986612D01*
X167514778Y-118022948D01*
X167533186Y-118053923D01*
X167536829Y-118057107D01*
X167549759Y-118065312D01*
X167567476Y-118071021D01*
X167593930Y-118074662D01*
X167633068Y-118076667D01*
X167688838Y-118077464D01*
X167724506Y-118077545D01*
X167886945Y-118077545D01*
X167886945Y-118235589D01*
X167640339Y-118235589D01*
X167558920Y-118235731D01*
X167497090Y-118236314D01*
X167451863Y-118237568D01*
X167420252Y-118239727D01*
X167399269Y-118243023D01*
X167385927Y-118247689D01*
X167377239Y-118253957D01*
X167375050Y-118256233D01*
X167358886Y-118287780D01*
X167357703Y-118323668D01*
X167370964Y-118354785D01*
X167381457Y-118364771D01*
X167392371Y-118370269D01*
X167409283Y-118374522D01*
X167434867Y-118377680D01*
X167471799Y-118379892D01*
X167522754Y-118381306D01*
X167590406Y-118382072D01*
X167677431Y-118382338D01*
X167697106Y-118382345D01*
X167785589Y-118382287D01*
X167854273Y-118381967D01*
X167905936Y-118381167D01*
X167943355Y-118379667D01*
X167969310Y-118377249D01*
X167986578Y-118373694D01*
X167997938Y-118368782D01*
X168006168Y-118362295D01*
X168010683Y-118357638D01*
X168017479Y-118349389D01*
X168022788Y-118339169D01*
X168026794Y-118324300D01*
X168029679Y-118302102D01*
X168031626Y-118269893D01*
X168032819Y-118224996D01*
X168033439Y-118164728D01*
X168033671Y-118086411D01*
X168033700Y-118020494D01*
X168033629Y-117928128D01*
X168033292Y-117855617D01*
X168032502Y-117800237D01*
X168031074Y-117759265D01*
X168028821Y-117729978D01*
X168025557Y-117709653D01*
X168021096Y-117695566D01*
X168015252Y-117684995D01*
X168010303Y-117678311D01*
X167986906Y-117648567D01*
X167696726Y-117648567D01*
X167600157Y-117648760D01*
X167600157Y-117648760D01*
G37*
X167600157Y-117648760D02*
X167523799Y-117649674D01*
X167465283Y-117651811D01*
X167422245Y-117655675D01*
X167392317Y-117661767D01*
X167373132Y-117670590D01*
X167362324Y-117682646D01*
X167357527Y-117698439D01*
X167356373Y-117718470D01*
X167356367Y-117720835D01*
X167357369Y-117743492D01*
X167362104Y-117761003D01*
X167373167Y-117774074D01*
X167393152Y-117783413D01*
X167424654Y-117789727D01*
X167470268Y-117793722D01*
X167532587Y-117796106D01*
X167614207Y-117797586D01*
X167639223Y-117797914D01*
X167881300Y-117800967D01*
X167884686Y-117865878D01*
X167888071Y-117930789D01*
X167719924Y-117930789D01*
X167654234Y-117931031D01*
X167607328Y-117932056D01*
X167575417Y-117934311D01*
X167554709Y-117938242D01*
X167541416Y-117944298D01*
X167531745Y-117952924D01*
X167531683Y-117952993D01*
X167514144Y-117986612D01*
X167514778Y-118022948D01*
X167533186Y-118053923D01*
X167536829Y-118057107D01*
X167549759Y-118065312D01*
X167567476Y-118071021D01*
X167593930Y-118074662D01*
X167633068Y-118076667D01*
X167688838Y-118077464D01*
X167724506Y-118077545D01*
X167886945Y-118077545D01*
X167886945Y-118235589D01*
X167640339Y-118235589D01*
X167558920Y-118235731D01*
X167497090Y-118236314D01*
X167451863Y-118237568D01*
X167420252Y-118239727D01*
X167399269Y-118243023D01*
X167385927Y-118247689D01*
X167377239Y-118253957D01*
X167375050Y-118256233D01*
X167358886Y-118287780D01*
X167357703Y-118323668D01*
X167370964Y-118354785D01*
X167381457Y-118364771D01*
X167392371Y-118370269D01*
X167409283Y-118374522D01*
X167434867Y-118377680D01*
X167471799Y-118379892D01*
X167522754Y-118381306D01*
X167590406Y-118382072D01*
X167677431Y-118382338D01*
X167697106Y-118382345D01*
X167785589Y-118382287D01*
X167854273Y-118381967D01*
X167905936Y-118381167D01*
X167943355Y-118379667D01*
X167969310Y-118377249D01*
X167986578Y-118373694D01*
X167997938Y-118368782D01*
X168006168Y-118362295D01*
X168010683Y-118357638D01*
X168017479Y-118349389D01*
X168022788Y-118339169D01*
X168026794Y-118324300D01*
X168029679Y-118302102D01*
X168031626Y-118269893D01*
X168032819Y-118224996D01*
X168033439Y-118164728D01*
X168033671Y-118086411D01*
X168033700Y-118020494D01*
X168033629Y-117928128D01*
X168033292Y-117855617D01*
X168032502Y-117800237D01*
X168031074Y-117759265D01*
X168028821Y-117729978D01*
X168025557Y-117709653D01*
X168021096Y-117695566D01*
X168015252Y-117684995D01*
X168010303Y-117678311D01*
X167986906Y-117648567D01*
X167696726Y-117648567D01*
X167600157Y-117648760D01*
G36*
X169130614Y-117652948D02*
G01*
X169107048Y-117666773D01*
X169076235Y-117689381D01*
X169036578Y-117721838D01*
X168986480Y-117765208D01*
X168924343Y-117820558D01*
X168848572Y-117888951D01*
X168761834Y-117967584D01*
X168581211Y-118131378D01*
X168575567Y-117911529D01*
X168573529Y-117835851D01*
X168571563Y-117779494D01*
X168569234Y-117739206D01*
X168566106Y-117711735D01*
X168561745Y-117693829D01*
X168555716Y-117682237D01*
X168547584Y-117673708D01*
X168543272Y-117670123D01*
X168508741Y-117651170D01*
X168475883Y-117653941D01*
X168449818Y-117670133D01*
X168423167Y-117691699D01*
X168419852Y-118006651D01*
X168418935Y-118099279D01*
X168418468Y-118172044D01*
X168418613Y-118227661D01*
X168419532Y-118268842D01*
X168421387Y-118298303D01*
X168424339Y-118318755D01*
X168428550Y-118332913D01*
X168434182Y-118343491D01*
X168440427Y-118351974D01*
X168453939Y-118367707D01*
X168467383Y-118378136D01*
X168482624Y-118382139D01*
X168501526Y-118378594D01*
X168525955Y-118366379D01*
X168557773Y-118344371D01*
X168598848Y-118311449D01*
X168651042Y-118266491D01*
X168716222Y-118208375D01*
X168790056Y-118141599D01*
X169055345Y-117900958D01*
X169060989Y-118120089D01*
X169063031Y-118195628D01*
X169065002Y-118251854D01*
X169067339Y-118292024D01*
X169070481Y-118319396D01*
X169074864Y-118337228D01*
X169080924Y-118348779D01*
X169089100Y-118357307D01*
X169093284Y-118360782D01*
X169130265Y-118379872D01*
X169165208Y-118376993D01*
X169195636Y-118352600D01*
X169202597Y-118342786D01*
X169208023Y-118331326D01*
X169212103Y-118315468D01*
X169215029Y-118292463D01*
X169216992Y-118259562D01*
X169218183Y-118214016D01*
X169218792Y-118153073D01*
X169219011Y-118073986D01*
X169219034Y-118015456D01*
X169218960Y-117923907D01*
X169218613Y-117852187D01*
X169217801Y-117797545D01*
X169216333Y-117757232D01*
X169214019Y-117728498D01*
X169210667Y-117708593D01*
X169206088Y-117694768D01*
X169200089Y-117684272D01*
X169195636Y-117678311D01*
X169184350Y-117664191D01*
X169173801Y-117653529D01*
X169162393Y-117647392D01*
X169148530Y-117646843D01*
X169130614Y-117652948D01*
X169130614Y-117652948D01*
G37*
X169130614Y-117652948D02*
X169107048Y-117666773D01*
X169076235Y-117689381D01*
X169036578Y-117721838D01*
X168986480Y-117765208D01*
X168924343Y-117820558D01*
X168848572Y-117888951D01*
X168761834Y-117967584D01*
X168581211Y-118131378D01*
X168575567Y-117911529D01*
X168573529Y-117835851D01*
X168571563Y-117779494D01*
X168569234Y-117739206D01*
X168566106Y-117711735D01*
X168561745Y-117693829D01*
X168555716Y-117682237D01*
X168547584Y-117673708D01*
X168543272Y-117670123D01*
X168508741Y-117651170D01*
X168475883Y-117653941D01*
X168449818Y-117670133D01*
X168423167Y-117691699D01*
X168419852Y-118006651D01*
X168418935Y-118099279D01*
X168418468Y-118172044D01*
X168418613Y-118227661D01*
X168419532Y-118268842D01*
X168421387Y-118298303D01*
X168424339Y-118318755D01*
X168428550Y-118332913D01*
X168434182Y-118343491D01*
X168440427Y-118351974D01*
X168453939Y-118367707D01*
X168467383Y-118378136D01*
X168482624Y-118382139D01*
X168501526Y-118378594D01*
X168525955Y-118366379D01*
X168557773Y-118344371D01*
X168598848Y-118311449D01*
X168651042Y-118266491D01*
X168716222Y-118208375D01*
X168790056Y-118141599D01*
X169055345Y-117900958D01*
X169060989Y-118120089D01*
X169063031Y-118195628D01*
X169065002Y-118251854D01*
X169067339Y-118292024D01*
X169070481Y-118319396D01*
X169074864Y-118337228D01*
X169080924Y-118348779D01*
X169089100Y-118357307D01*
X169093284Y-118360782D01*
X169130265Y-118379872D01*
X169165208Y-118376993D01*
X169195636Y-118352600D01*
X169202597Y-118342786D01*
X169208023Y-118331326D01*
X169212103Y-118315468D01*
X169215029Y-118292463D01*
X169216992Y-118259562D01*
X169218183Y-118214016D01*
X169218792Y-118153073D01*
X169219011Y-118073986D01*
X169219034Y-118015456D01*
X169218960Y-117923907D01*
X169218613Y-117852187D01*
X169217801Y-117797545D01*
X169216333Y-117757232D01*
X169214019Y-117728498D01*
X169210667Y-117708593D01*
X169206088Y-117694768D01*
X169200089Y-117684272D01*
X169195636Y-117678311D01*
X169184350Y-117664191D01*
X169173801Y-117653529D01*
X169162393Y-117647392D01*
X169148530Y-117646843D01*
X169130614Y-117652948D01*
G36*
X169780581Y-117654099D02*
G01*
X169712065Y-117665595D01*
X169659443Y-117683467D01*
X169625208Y-117706999D01*
X169615879Y-117720424D01*
X169606393Y-117751648D01*
X169612777Y-117779895D01*
X169632930Y-117806682D01*
X169664245Y-117819213D01*
X169709683Y-117818196D01*
X169744826Y-117811406D01*
X169822919Y-117798471D01*
X169902726Y-117797242D01*
X169992055Y-117807741D01*
X170016729Y-117812190D01*
X170099791Y-117835608D01*
X170164773Y-117870445D01*
X170210961Y-117916104D01*
X170237645Y-117971994D01*
X170243163Y-118000888D01*
X170239551Y-118059512D01*
X170216229Y-118111379D01*
X170175324Y-118155478D01*
X170118959Y-118190799D01*
X170049260Y-118216329D01*
X169968352Y-118231059D01*
X169878360Y-118233978D01*
X169781410Y-118224075D01*
X169775936Y-118223141D01*
X169737375Y-118215959D01*
X169715994Y-118209021D01*
X169706727Y-118198727D01*
X169704506Y-118181476D01*
X169704456Y-118172341D01*
X169704456Y-118133989D01*
X169772931Y-118133989D01*
X169833400Y-118129847D01*
X169874665Y-118116647D01*
X169898675Y-118093230D01*
X169907377Y-118058436D01*
X169907483Y-118053894D01*
X169902392Y-118024154D01*
X169884933Y-118002919D01*
X169852439Y-117988866D01*
X169802243Y-117980673D01*
X169753623Y-117977661D01*
X169682956Y-117975933D01*
X169631698Y-117978570D01*
X169596739Y-117988300D01*
X169574970Y-118007853D01*
X169563280Y-118039956D01*
X169558560Y-118087338D01*
X169557700Y-118149571D01*
X169559109Y-118219035D01*
X169563348Y-118266286D01*
X169570436Y-118291512D01*
X169571811Y-118293488D01*
X169610728Y-118325008D01*
X169667786Y-118349970D01*
X169739369Y-118367840D01*
X169821858Y-118378086D01*
X169911639Y-118380173D01*
X170005092Y-118373568D01*
X170060056Y-118365456D01*
X170146266Y-118341054D01*
X170226392Y-118301162D01*
X170293477Y-118249387D01*
X170303673Y-118239039D01*
X170336802Y-118195535D01*
X170366694Y-118141618D01*
X170389857Y-118085092D01*
X170402798Y-118033759D01*
X170404358Y-118014044D01*
X170397718Y-117972919D01*
X170380068Y-117921752D01*
X170354797Y-117867894D01*
X170325289Y-117818695D01*
X170299219Y-117785834D01*
X170238265Y-117736952D01*
X170159469Y-117698045D01*
X170065657Y-117669994D01*
X169959650Y-117653679D01*
X169862500Y-117649692D01*
X169780581Y-117654099D01*
X169780581Y-117654099D01*
G37*
X169780581Y-117654099D02*
X169712065Y-117665595D01*
X169659443Y-117683467D01*
X169625208Y-117706999D01*
X169615879Y-117720424D01*
X169606393Y-117751648D01*
X169612777Y-117779895D01*
X169632930Y-117806682D01*
X169664245Y-117819213D01*
X169709683Y-117818196D01*
X169744826Y-117811406D01*
X169822919Y-117798471D01*
X169902726Y-117797242D01*
X169992055Y-117807741D01*
X170016729Y-117812190D01*
X170099791Y-117835608D01*
X170164773Y-117870445D01*
X170210961Y-117916104D01*
X170237645Y-117971994D01*
X170243163Y-118000888D01*
X170239551Y-118059512D01*
X170216229Y-118111379D01*
X170175324Y-118155478D01*
X170118959Y-118190799D01*
X170049260Y-118216329D01*
X169968352Y-118231059D01*
X169878360Y-118233978D01*
X169781410Y-118224075D01*
X169775936Y-118223141D01*
X169737375Y-118215959D01*
X169715994Y-118209021D01*
X169706727Y-118198727D01*
X169704506Y-118181476D01*
X169704456Y-118172341D01*
X169704456Y-118133989D01*
X169772931Y-118133989D01*
X169833400Y-118129847D01*
X169874665Y-118116647D01*
X169898675Y-118093230D01*
X169907377Y-118058436D01*
X169907483Y-118053894D01*
X169902392Y-118024154D01*
X169884933Y-118002919D01*
X169852439Y-117988866D01*
X169802243Y-117980673D01*
X169753623Y-117977661D01*
X169682956Y-117975933D01*
X169631698Y-117978570D01*
X169596739Y-117988300D01*
X169574970Y-118007853D01*
X169563280Y-118039956D01*
X169558560Y-118087338D01*
X169557700Y-118149571D01*
X169559109Y-118219035D01*
X169563348Y-118266286D01*
X169570436Y-118291512D01*
X169571811Y-118293488D01*
X169610728Y-118325008D01*
X169667786Y-118349970D01*
X169739369Y-118367840D01*
X169821858Y-118378086D01*
X169911639Y-118380173D01*
X170005092Y-118373568D01*
X170060056Y-118365456D01*
X170146266Y-118341054D01*
X170226392Y-118301162D01*
X170293477Y-118249387D01*
X170303673Y-118239039D01*
X170336802Y-118195535D01*
X170366694Y-118141618D01*
X170389857Y-118085092D01*
X170402798Y-118033759D01*
X170404358Y-118014044D01*
X170397718Y-117972919D01*
X170380068Y-117921752D01*
X170354797Y-117867894D01*
X170325289Y-117818695D01*
X170299219Y-117785834D01*
X170238265Y-117736952D01*
X170159469Y-117698045D01*
X170065657Y-117669994D01*
X169959650Y-117653679D01*
X169862500Y-117649692D01*
X169780581Y-117654099D01*
G36*
X170754322Y-117671145D02*
G01*
X170747742Y-117678718D01*
X170742579Y-117688487D01*
X170738664Y-117703071D01*
X170735824Y-117725085D01*
X170733887Y-117757148D01*
X170732683Y-117801875D01*
X170732039Y-117861885D01*
X170731784Y-117939794D01*
X170731745Y-118015456D01*
X170731814Y-118109302D01*
X170732138Y-118183189D01*
X170732886Y-118239732D01*
X170734232Y-118281549D01*
X170736346Y-118311257D01*
X170739400Y-118331473D01*
X170743566Y-118344814D01*
X170749016Y-118353898D01*
X170754322Y-118359767D01*
X170787326Y-118379447D01*
X170822491Y-118377681D01*
X170853955Y-118356217D01*
X170861184Y-118347837D01*
X170866834Y-118338114D01*
X170871099Y-118324361D01*
X170874173Y-118303889D01*
X170876252Y-118274012D01*
X170877530Y-118232041D01*
X170878201Y-118175289D01*
X170878459Y-118101067D01*
X170878500Y-118017037D01*
X170878500Y-117703985D01*
X170850791Y-117676276D01*
X170816637Y-117652963D01*
X170783506Y-117652123D01*
X170754322Y-117671145D01*
X170754322Y-117671145D01*
G37*
X170754322Y-117671145D02*
X170747742Y-117678718D01*
X170742579Y-117688487D01*
X170738664Y-117703071D01*
X170735824Y-117725085D01*
X170733887Y-117757148D01*
X170732683Y-117801875D01*
X170732039Y-117861885D01*
X170731784Y-117939794D01*
X170731745Y-118015456D01*
X170731814Y-118109302D01*
X170732138Y-118183189D01*
X170732886Y-118239732D01*
X170734232Y-118281549D01*
X170736346Y-118311257D01*
X170739400Y-118331473D01*
X170743566Y-118344814D01*
X170749016Y-118353898D01*
X170754322Y-118359767D01*
X170787326Y-118379447D01*
X170822491Y-118377681D01*
X170853955Y-118356217D01*
X170861184Y-118347837D01*
X170866834Y-118338114D01*
X170871099Y-118324361D01*
X170874173Y-118303889D01*
X170876252Y-118274012D01*
X170877530Y-118232041D01*
X170878201Y-118175289D01*
X170878459Y-118101067D01*
X170878500Y-118017037D01*
X170878500Y-117703985D01*
X170850791Y-117676276D01*
X170816637Y-117652963D01*
X170783506Y-117652123D01*
X170754322Y-117671145D01*
G36*
X171522203Y-117649851D02*
G01*
X171447388Y-117655081D01*
X171377806Y-117663250D01*
X171317502Y-117674050D01*
X171270520Y-117687173D01*
X171240906Y-117702313D01*
X171236360Y-117706769D01*
X171220554Y-117741350D01*
X171225347Y-117776851D01*
X171249864Y-117807225D01*
X171251034Y-117808096D01*
X171265454Y-117817454D01*
X171280508Y-117822376D01*
X171301505Y-117822973D01*
X171333757Y-117819361D01*
X171382573Y-117811654D01*
X171386500Y-117811005D01*
X171459239Y-117802069D01*
X171537717Y-117797661D01*
X171616427Y-117797619D01*
X171689861Y-117801779D01*
X171752511Y-117809979D01*
X171798870Y-117822057D01*
X171801916Y-117823271D01*
X171835548Y-117842115D01*
X171847364Y-117861185D01*
X171838114Y-117879939D01*
X171808547Y-117897837D01*
X171759411Y-117914337D01*
X171691457Y-117928896D01*
X171646145Y-117935906D01*
X171551956Y-117949389D01*
X171477044Y-117961714D01*
X171418217Y-117973949D01*
X171372285Y-117987161D01*
X171336055Y-118002417D01*
X171306338Y-118020785D01*
X171279942Y-118043331D01*
X171258730Y-118065471D01*
X171233565Y-118096319D01*
X171221181Y-118122845D01*
X171217308Y-118155526D01*
X171217167Y-118167495D01*
X171220076Y-118207212D01*
X171231702Y-118236759D01*
X171251823Y-118262986D01*
X171292716Y-118303076D01*
X171338317Y-118333649D01*
X171392013Y-118355703D01*
X171457192Y-118370235D01*
X171537244Y-118378241D01*
X171635557Y-118380718D01*
X171651789Y-118380677D01*
X171717349Y-118379318D01*
X171782366Y-118376230D01*
X171839752Y-118371856D01*
X171882422Y-118366640D01*
X171885872Y-118366041D01*
X171928296Y-118355991D01*
X171964280Y-118343296D01*
X171984650Y-118331690D01*
X172003607Y-118301072D01*
X172004927Y-118265418D01*
X171988585Y-118233644D01*
X171984929Y-118230051D01*
X171969815Y-118219376D01*
X171950915Y-118214776D01*
X171921662Y-118215559D01*
X171886151Y-118219627D01*
X171846470Y-118223262D01*
X171790845Y-118226328D01*
X171725906Y-118228553D01*
X171658285Y-118229664D01*
X171640500Y-118229737D01*
X171572628Y-118229464D01*
X171522954Y-118228146D01*
X171487110Y-118225327D01*
X171460724Y-118220550D01*
X171439426Y-118213357D01*
X171426626Y-118207367D01*
X171398500Y-118190733D01*
X171380568Y-118175668D01*
X171377947Y-118171397D01*
X171383476Y-118153763D01*
X171409760Y-118136692D01*
X171454978Y-118120958D01*
X171517308Y-118107338D01*
X171535671Y-118104304D01*
X171631590Y-118089238D01*
X171708141Y-118076646D01*
X171768280Y-118065611D01*
X171814960Y-118055220D01*
X171851137Y-118044556D01*
X171879765Y-118032705D01*
X171903798Y-118018751D01*
X171926192Y-118001781D01*
X171949902Y-117980878D01*
X171957880Y-117973549D01*
X171985853Y-117946199D01*
X172000660Y-117924529D01*
X172006452Y-117899732D01*
X172007389Y-117868483D01*
X171997075Y-117807205D01*
X171966252Y-117755140D01*
X171915095Y-117712458D01*
X171843783Y-117679325D01*
X171792900Y-117664464D01*
X171737600Y-117654866D01*
X171671353Y-117649436D01*
X171598206Y-117647867D01*
X171522203Y-117649851D01*
X171522203Y-117649851D01*
G37*
X171522203Y-117649851D02*
X171447388Y-117655081D01*
X171377806Y-117663250D01*
X171317502Y-117674050D01*
X171270520Y-117687173D01*
X171240906Y-117702313D01*
X171236360Y-117706769D01*
X171220554Y-117741350D01*
X171225347Y-117776851D01*
X171249864Y-117807225D01*
X171251034Y-117808096D01*
X171265454Y-117817454D01*
X171280508Y-117822376D01*
X171301505Y-117822973D01*
X171333757Y-117819361D01*
X171382573Y-117811654D01*
X171386500Y-117811005D01*
X171459239Y-117802069D01*
X171537717Y-117797661D01*
X171616427Y-117797619D01*
X171689861Y-117801779D01*
X171752511Y-117809979D01*
X171798870Y-117822057D01*
X171801916Y-117823271D01*
X171835548Y-117842115D01*
X171847364Y-117861185D01*
X171838114Y-117879939D01*
X171808547Y-117897837D01*
X171759411Y-117914337D01*
X171691457Y-117928896D01*
X171646145Y-117935906D01*
X171551956Y-117949389D01*
X171477044Y-117961714D01*
X171418217Y-117973949D01*
X171372285Y-117987161D01*
X171336055Y-118002417D01*
X171306338Y-118020785D01*
X171279942Y-118043331D01*
X171258730Y-118065471D01*
X171233565Y-118096319D01*
X171221181Y-118122845D01*
X171217308Y-118155526D01*
X171217167Y-118167495D01*
X171220076Y-118207212D01*
X171231702Y-118236759D01*
X171251823Y-118262986D01*
X171292716Y-118303076D01*
X171338317Y-118333649D01*
X171392013Y-118355703D01*
X171457192Y-118370235D01*
X171537244Y-118378241D01*
X171635557Y-118380718D01*
X171651789Y-118380677D01*
X171717349Y-118379318D01*
X171782366Y-118376230D01*
X171839752Y-118371856D01*
X171882422Y-118366640D01*
X171885872Y-118366041D01*
X171928296Y-118355991D01*
X171964280Y-118343296D01*
X171984650Y-118331690D01*
X172003607Y-118301072D01*
X172004927Y-118265418D01*
X171988585Y-118233644D01*
X171984929Y-118230051D01*
X171969815Y-118219376D01*
X171950915Y-118214776D01*
X171921662Y-118215559D01*
X171886151Y-118219627D01*
X171846470Y-118223262D01*
X171790845Y-118226328D01*
X171725906Y-118228553D01*
X171658285Y-118229664D01*
X171640500Y-118229737D01*
X171572628Y-118229464D01*
X171522954Y-118228146D01*
X171487110Y-118225327D01*
X171460724Y-118220550D01*
X171439426Y-118213357D01*
X171426626Y-118207367D01*
X171398500Y-118190733D01*
X171380568Y-118175668D01*
X171377947Y-118171397D01*
X171383476Y-118153763D01*
X171409760Y-118136692D01*
X171454978Y-118120958D01*
X171517308Y-118107338D01*
X171535671Y-118104304D01*
X171631590Y-118089238D01*
X171708141Y-118076646D01*
X171768280Y-118065611D01*
X171814960Y-118055220D01*
X171851137Y-118044556D01*
X171879765Y-118032705D01*
X171903798Y-118018751D01*
X171926192Y-118001781D01*
X171949902Y-117980878D01*
X171957880Y-117973549D01*
X171985853Y-117946199D01*
X172000660Y-117924529D01*
X172006452Y-117899732D01*
X172007389Y-117868483D01*
X171997075Y-117807205D01*
X171966252Y-117755140D01*
X171915095Y-117712458D01*
X171843783Y-117679325D01*
X171792900Y-117664464D01*
X171737600Y-117654866D01*
X171671353Y-117649436D01*
X171598206Y-117647867D01*
X171522203Y-117649851D01*
G36*
X172543294Y-117648646D02*
G01*
X172473886Y-117649018D01*
X172421497Y-117649885D01*
X172383347Y-117651446D01*
X172356659Y-117653903D01*
X172338653Y-117657457D01*
X172326549Y-117662310D01*
X172317569Y-117668661D01*
X172314318Y-117671584D01*
X172294543Y-117702642D01*
X172290982Y-117738328D01*
X172303991Y-117770010D01*
X172310006Y-117776413D01*
X172319735Y-117782621D01*
X172335401Y-117787410D01*
X172359908Y-117791014D01*
X172396161Y-117793664D01*
X172447065Y-117795595D01*
X172515526Y-117797039D01*
X172578117Y-117797918D01*
X172825834Y-117800967D01*
X172829219Y-117865878D01*
X172832605Y-117930789D01*
X172664458Y-117930789D01*
X172591459Y-117931419D01*
X172538017Y-117934053D01*
X172501128Y-117939809D01*
X172477788Y-117949804D01*
X172464994Y-117965156D01*
X172459742Y-117986982D01*
X172458945Y-118007238D01*
X172461423Y-118032092D01*
X172470777Y-118050406D01*
X172489883Y-118063137D01*
X172521618Y-118071241D01*
X172568859Y-118075676D01*
X172634483Y-118077399D01*
X172670301Y-118077545D01*
X172831478Y-118077545D01*
X172831478Y-118235589D01*
X172583122Y-118235589D01*
X172501713Y-118235702D01*
X172439842Y-118236212D01*
X172394468Y-118237370D01*
X172362554Y-118239430D01*
X172341059Y-118242646D01*
X172326943Y-118247272D01*
X172317168Y-118253559D01*
X172312189Y-118258167D01*
X172295110Y-118285060D01*
X172289611Y-118308967D01*
X172297463Y-118338167D01*
X172312189Y-118359767D01*
X172320046Y-118366566D01*
X172330188Y-118371846D01*
X172345344Y-118375798D01*
X172368241Y-118378613D01*
X172401609Y-118380482D01*
X172448175Y-118381598D01*
X172510667Y-118382151D01*
X172591814Y-118382333D01*
X172633922Y-118382345D01*
X172724098Y-118382265D01*
X172794424Y-118381898D01*
X172847629Y-118381052D01*
X172886440Y-118379536D01*
X172913587Y-118377159D01*
X172931798Y-118373729D01*
X172943800Y-118369054D01*
X172952322Y-118362944D01*
X172955656Y-118359767D01*
X172962255Y-118352170D01*
X172967427Y-118342370D01*
X172971346Y-118327739D01*
X172974184Y-118305652D01*
X172976115Y-118273482D01*
X172977312Y-118228603D01*
X172977948Y-118168389D01*
X172978197Y-118090213D01*
X172978234Y-118017423D01*
X172978200Y-117924207D01*
X172977965Y-117850931D01*
X172977330Y-117794958D01*
X172976094Y-117753651D01*
X172974056Y-117724372D01*
X172971017Y-117704484D01*
X172966777Y-117691350D01*
X172961135Y-117682332D01*
X172953891Y-117674793D01*
X172952106Y-117673112D01*
X172943445Y-117665672D01*
X172933382Y-117659909D01*
X172919125Y-117655612D01*
X172897883Y-117652564D01*
X172866864Y-117650551D01*
X172823277Y-117649360D01*
X172764331Y-117648775D01*
X172687234Y-117648583D01*
X172632501Y-117648567D01*
X172543294Y-117648646D01*
X172543294Y-117648646D01*
G37*
X172543294Y-117648646D02*
X172473886Y-117649018D01*
X172421497Y-117649885D01*
X172383347Y-117651446D01*
X172356659Y-117653903D01*
X172338653Y-117657457D01*
X172326549Y-117662310D01*
X172317569Y-117668661D01*
X172314318Y-117671584D01*
X172294543Y-117702642D01*
X172290982Y-117738328D01*
X172303991Y-117770010D01*
X172310006Y-117776413D01*
X172319735Y-117782621D01*
X172335401Y-117787410D01*
X172359908Y-117791014D01*
X172396161Y-117793664D01*
X172447065Y-117795595D01*
X172515526Y-117797039D01*
X172578117Y-117797918D01*
X172825834Y-117800967D01*
X172829219Y-117865878D01*
X172832605Y-117930789D01*
X172664458Y-117930789D01*
X172591459Y-117931419D01*
X172538017Y-117934053D01*
X172501128Y-117939809D01*
X172477788Y-117949804D01*
X172464994Y-117965156D01*
X172459742Y-117986982D01*
X172458945Y-118007238D01*
X172461423Y-118032092D01*
X172470777Y-118050406D01*
X172489883Y-118063137D01*
X172521618Y-118071241D01*
X172568859Y-118075676D01*
X172634483Y-118077399D01*
X172670301Y-118077545D01*
X172831478Y-118077545D01*
X172831478Y-118235589D01*
X172583122Y-118235589D01*
X172501713Y-118235702D01*
X172439842Y-118236212D01*
X172394468Y-118237370D01*
X172362554Y-118239430D01*
X172341059Y-118242646D01*
X172326943Y-118247272D01*
X172317168Y-118253559D01*
X172312189Y-118258167D01*
X172295110Y-118285060D01*
X172289611Y-118308967D01*
X172297463Y-118338167D01*
X172312189Y-118359767D01*
X172320046Y-118366566D01*
X172330188Y-118371846D01*
X172345344Y-118375798D01*
X172368241Y-118378613D01*
X172401609Y-118380482D01*
X172448175Y-118381598D01*
X172510667Y-118382151D01*
X172591814Y-118382333D01*
X172633922Y-118382345D01*
X172724098Y-118382265D01*
X172794424Y-118381898D01*
X172847629Y-118381052D01*
X172886440Y-118379536D01*
X172913587Y-118377159D01*
X172931798Y-118373729D01*
X172943800Y-118369054D01*
X172952322Y-118362944D01*
X172955656Y-118359767D01*
X172962255Y-118352170D01*
X172967427Y-118342370D01*
X172971346Y-118327739D01*
X172974184Y-118305652D01*
X172976115Y-118273482D01*
X172977312Y-118228603D01*
X172977948Y-118168389D01*
X172978197Y-118090213D01*
X172978234Y-118017423D01*
X172978200Y-117924207D01*
X172977965Y-117850931D01*
X172977330Y-117794958D01*
X172976094Y-117753651D01*
X172974056Y-117724372D01*
X172971017Y-117704484D01*
X172966777Y-117691350D01*
X172961135Y-117682332D01*
X172953891Y-117674793D01*
X172952106Y-117673112D01*
X172943445Y-117665672D01*
X172933382Y-117659909D01*
X172919125Y-117655612D01*
X172897883Y-117652564D01*
X172866864Y-117650551D01*
X172823277Y-117649360D01*
X172764331Y-117648775D01*
X172687234Y-117648583D01*
X172632501Y-117648567D01*
X172543294Y-117648646D01*
G36*
X173951871Y-117648566D02*
G01*
X173912389Y-117648967D01*
X173796700Y-117651759D01*
X173699811Y-117660050D01*
X173618419Y-117674732D01*
X173549223Y-117696693D01*
X173488920Y-117726822D01*
X173434208Y-117766010D01*
X173414667Y-117783032D01*
X173382250Y-117822863D01*
X173353020Y-117876913D01*
X173330491Y-117936823D01*
X173318179Y-117994239D01*
X173316900Y-118015456D01*
X173324917Y-118074269D01*
X173346399Y-118138513D01*
X173377499Y-118199321D01*
X173414366Y-118247830D01*
X173420354Y-118253682D01*
X173471079Y-118294821D01*
X173526625Y-118326935D01*
X173590196Y-118350865D01*
X173664994Y-118367453D01*
X173754222Y-118377541D01*
X173861082Y-118381969D01*
X173910028Y-118382345D01*
X173972262Y-118382045D01*
X174016028Y-118380792D01*
X174045431Y-118378054D01*
X174064579Y-118373301D01*
X174077577Y-118366001D01*
X174084545Y-118359767D01*
X174091126Y-118352194D01*
X174096288Y-118342424D01*
X174100203Y-118327840D01*
X174103043Y-118305826D01*
X174104980Y-118273764D01*
X174106184Y-118229036D01*
X174106828Y-118169026D01*
X174107083Y-118091117D01*
X174107122Y-118015456D01*
X174107370Y-117914541D01*
X174107317Y-117833927D01*
X174106357Y-117795322D01*
X173960367Y-117795322D01*
X173960367Y-118235589D01*
X173867234Y-118235504D01*
X173811193Y-118233896D01*
X173752499Y-118229756D01*
X173703528Y-118223964D01*
X173702038Y-118223726D01*
X173622892Y-118204590D01*
X173561502Y-118174787D01*
X173514805Y-118132378D01*
X173485135Y-118086461D01*
X173466853Y-118035526D01*
X173468271Y-117987700D01*
X173489488Y-117936433D01*
X173530989Y-117883399D01*
X173588498Y-117844100D01*
X173663250Y-117817831D01*
X173713208Y-117808535D01*
X173769916Y-117802007D01*
X173830019Y-117797282D01*
X173881139Y-117795317D01*
X173884167Y-117795308D01*
X173960367Y-117795322D01*
X174106357Y-117795322D01*
X174105760Y-117771351D01*
X174101498Y-117724555D01*
X174093330Y-117691278D01*
X174080056Y-117669259D01*
X174060474Y-117656239D01*
X174033383Y-117649957D01*
X173997582Y-117648153D01*
X173951871Y-117648566D01*
X173951871Y-117648566D01*
G37*
X173951871Y-117648566D02*
X173912389Y-117648967D01*
X173796700Y-117651759D01*
X173699811Y-117660050D01*
X173618419Y-117674732D01*
X173549223Y-117696693D01*
X173488920Y-117726822D01*
X173434208Y-117766010D01*
X173414667Y-117783032D01*
X173382250Y-117822863D01*
X173353020Y-117876913D01*
X173330491Y-117936823D01*
X173318179Y-117994239D01*
X173316900Y-118015456D01*
X173324917Y-118074269D01*
X173346399Y-118138513D01*
X173377499Y-118199321D01*
X173414366Y-118247830D01*
X173420354Y-118253682D01*
X173471079Y-118294821D01*
X173526625Y-118326935D01*
X173590196Y-118350865D01*
X173664994Y-118367453D01*
X173754222Y-118377541D01*
X173861082Y-118381969D01*
X173910028Y-118382345D01*
X173972262Y-118382045D01*
X174016028Y-118380792D01*
X174045431Y-118378054D01*
X174064579Y-118373301D01*
X174077577Y-118366001D01*
X174084545Y-118359767D01*
X174091126Y-118352194D01*
X174096288Y-118342424D01*
X174100203Y-118327840D01*
X174103043Y-118305826D01*
X174104980Y-118273764D01*
X174106184Y-118229036D01*
X174106828Y-118169026D01*
X174107083Y-118091117D01*
X174107122Y-118015456D01*
X174107370Y-117914541D01*
X174107317Y-117833927D01*
X174106357Y-117795322D01*
X173960367Y-117795322D01*
X173960367Y-118235589D01*
X173867234Y-118235504D01*
X173811193Y-118233896D01*
X173752499Y-118229756D01*
X173703528Y-118223964D01*
X173702038Y-118223726D01*
X173622892Y-118204590D01*
X173561502Y-118174787D01*
X173514805Y-118132378D01*
X173485135Y-118086461D01*
X173466853Y-118035526D01*
X173468271Y-117987700D01*
X173489488Y-117936433D01*
X173530989Y-117883399D01*
X173588498Y-117844100D01*
X173663250Y-117817831D01*
X173713208Y-117808535D01*
X173769916Y-117802007D01*
X173830019Y-117797282D01*
X173881139Y-117795317D01*
X173884167Y-117795308D01*
X173960367Y-117795322D01*
X174106357Y-117795322D01*
X174105760Y-117771351D01*
X174101498Y-117724555D01*
X174093330Y-117691278D01*
X174080056Y-117669259D01*
X174060474Y-117656239D01*
X174033383Y-117649957D01*
X173997582Y-117648153D01*
X173951871Y-117648566D01*
G36*
X170103543Y-112406071D02*
G01*
X170007268Y-112430309D01*
X169920684Y-112473141D01*
X169845873Y-112532919D01*
X169784918Y-112607994D01*
X169739899Y-112696720D01*
X169713636Y-112793030D01*
X169707786Y-112890295D01*
X169722640Y-112984154D01*
X169756340Y-113072011D01*
X169807028Y-113151270D01*
X169872845Y-113219336D01*
X169951934Y-113273612D01*
X170042434Y-113311502D01*
X170093700Y-113323926D01*
X170138198Y-113331447D01*
X170172499Y-113334419D01*
X170205460Y-113332594D01*
X170245934Y-113325725D01*
X170279031Y-113318750D01*
X170372447Y-113287241D01*
X170456119Y-113236117D01*
X170528165Y-113166929D01*
X170586700Y-113081228D01*
X170600648Y-113053989D01*
X170617086Y-113017622D01*
X170627394Y-112987082D01*
X170632960Y-112954950D01*
X170635169Y-112913807D01*
X170635448Y-112867722D01*
X170631361Y-112783365D01*
X170617946Y-112714086D01*
X170592756Y-112653461D01*
X170553346Y-112595067D01*
X170514798Y-112550802D01*
X170442906Y-112484984D01*
X170367813Y-112439553D01*
X170285062Y-112412350D01*
X170207428Y-112402076D01*
X170103543Y-112406071D01*
X170103543Y-112406071D01*
G37*
X170103543Y-112406071D02*
X170007268Y-112430309D01*
X169920684Y-112473141D01*
X169845873Y-112532919D01*
X169784918Y-112607994D01*
X169739899Y-112696720D01*
X169713636Y-112793030D01*
X169707786Y-112890295D01*
X169722640Y-112984154D01*
X169756340Y-113072011D01*
X169807028Y-113151270D01*
X169872845Y-113219336D01*
X169951934Y-113273612D01*
X170042434Y-113311502D01*
X170093700Y-113323926D01*
X170138198Y-113331447D01*
X170172499Y-113334419D01*
X170205460Y-113332594D01*
X170245934Y-113325725D01*
X170279031Y-113318750D01*
X170372447Y-113287241D01*
X170456119Y-113236117D01*
X170528165Y-113166929D01*
X170586700Y-113081228D01*
X170600648Y-113053989D01*
X170617086Y-113017622D01*
X170627394Y-112987082D01*
X170632960Y-112954950D01*
X170635169Y-112913807D01*
X170635448Y-112867722D01*
X170631361Y-112783365D01*
X170617946Y-112714086D01*
X170592756Y-112653461D01*
X170553346Y-112595067D01*
X170514798Y-112550802D01*
X170442906Y-112484984D01*
X170367813Y-112439553D01*
X170285062Y-112412350D01*
X170207428Y-112402076D01*
X170103543Y-112406071D01*
G36*
X161643993Y-114851745D02*
G01*
X161643974Y-115086162D01*
X161643948Y-115299103D01*
X161643875Y-115491668D01*
X161643718Y-115664959D01*
X161643436Y-115820076D01*
X161642991Y-115958120D01*
X161642344Y-116080192D01*
X161641455Y-116187394D01*
X161640287Y-116280826D01*
X161638799Y-116361590D01*
X161636954Y-116430786D01*
X161634711Y-116489515D01*
X161632031Y-116538879D01*
X161628877Y-116579978D01*
X161625208Y-116613913D01*
X161620987Y-116641786D01*
X161616173Y-116664698D01*
X161610727Y-116683749D01*
X161604612Y-116700040D01*
X161597788Y-116714673D01*
X161590215Y-116728749D01*
X161581855Y-116743368D01*
X161576661Y-116752474D01*
X161542396Y-116813189D01*
X162400545Y-116813189D01*
X162400545Y-116717233D01*
X162401276Y-116673870D01*
X162403228Y-116640705D01*
X162406037Y-116622924D01*
X162407279Y-116621278D01*
X162418701Y-116628162D01*
X162441416Y-116646005D01*
X162464115Y-116665379D01*
X162518700Y-116706114D01*
X162588179Y-116747117D01*
X162665230Y-116784623D01*
X162742535Y-116814864D01*
X162773387Y-116824512D01*
X162841884Y-116839078D01*
X162924736Y-116849039D01*
X163014129Y-116854083D01*
X163102252Y-116853896D01*
X163181293Y-116848166D01*
X163218989Y-116842358D01*
X163357086Y-116804297D01*
X163484387Y-116746573D01*
X163600208Y-116669711D01*
X163703863Y-116574239D01*
X163794667Y-116460679D01*
X163861469Y-116349881D01*
X163916336Y-116233125D01*
X163958337Y-116113776D01*
X163988333Y-115987783D01*
X164007189Y-115851094D01*
X164015768Y-115699658D01*
X164016494Y-115622211D01*
X164014400Y-115565434D01*
X163185283Y-115565434D01*
X163185076Y-115658502D01*
X163182163Y-115746192D01*
X163176500Y-115823272D01*
X163168045Y-115884509D01*
X163165462Y-115896850D01*
X163133660Y-116004133D01*
X163092002Y-116091158D01*
X163040137Y-116158142D01*
X162977719Y-116205305D01*
X162904400Y-116232865D01*
X162819831Y-116241041D01*
X162723665Y-116230051D01*
X162660189Y-116214329D01*
X162611046Y-116196139D01*
X162556917Y-116170291D01*
X162516256Y-116146589D01*
X162445700Y-116100221D01*
X162445700Y-114950030D01*
X162513108Y-114906462D01*
X162591633Y-114865540D01*
X162675819Y-114838889D01*
X162760943Y-114826965D01*
X162842284Y-114830222D01*
X162915120Y-114849115D01*
X162947074Y-114864684D01*
X163004999Y-114907681D01*
X163053956Y-114964453D01*
X163095110Y-115037075D01*
X163129626Y-115127621D01*
X163158667Y-115238166D01*
X163159948Y-115244033D01*
X163170119Y-115306288D01*
X163177761Y-115384094D01*
X163182830Y-115472220D01*
X163185283Y-115565434D01*
X164014400Y-115565434D01*
X164008643Y-115409395D01*
X163986698Y-115213559D01*
X163950714Y-115034832D01*
X163900741Y-114873345D01*
X163836832Y-114729226D01*
X163759038Y-114602606D01*
X163667411Y-114493615D01*
X163562003Y-114402383D01*
X163516838Y-114371432D01*
X163415889Y-114315285D01*
X163312599Y-114275674D01*
X163202511Y-114251514D01*
X163081170Y-114241719D01*
X162988664Y-114242765D01*
X162859010Y-114253731D01*
X162746416Y-114275546D01*
X162647625Y-114309214D01*
X162559379Y-114355736D01*
X162510514Y-114389948D01*
X162481147Y-114411862D01*
X162459457Y-114426833D01*
X162451247Y-114431233D01*
X162449632Y-114420404D01*
X162448341Y-114389751D01*
X162447362Y-114342026D01*
X162446683Y-114279979D01*
X162446290Y-114206362D01*
X162446170Y-114123927D01*
X162446312Y-114035425D01*
X162446703Y-113943607D01*
X162447329Y-113851224D01*
X162448180Y-113761028D01*
X162449240Y-113675771D01*
X162450499Y-113598203D01*
X162451944Y-113531076D01*
X162453562Y-113477141D01*
X162455339Y-113439150D01*
X162455831Y-113432167D01*
X162463408Y-113361751D01*
X162474969Y-113306602D01*
X162492708Y-113259481D01*
X162518818Y-113213147D01*
X162525085Y-113203567D01*
X162549517Y-113166878D01*
X161644189Y-113166878D01*
X161643993Y-114851745D01*
X161643993Y-114851745D01*
G37*
X161643993Y-114851745D02*
X161643974Y-115086162D01*
X161643948Y-115299103D01*
X161643875Y-115491668D01*
X161643718Y-115664959D01*
X161643436Y-115820076D01*
X161642991Y-115958120D01*
X161642344Y-116080192D01*
X161641455Y-116187394D01*
X161640287Y-116280826D01*
X161638799Y-116361590D01*
X161636954Y-116430786D01*
X161634711Y-116489515D01*
X161632031Y-116538879D01*
X161628877Y-116579978D01*
X161625208Y-116613913D01*
X161620987Y-116641786D01*
X161616173Y-116664698D01*
X161610727Y-116683749D01*
X161604612Y-116700040D01*
X161597788Y-116714673D01*
X161590215Y-116728749D01*
X161581855Y-116743368D01*
X161576661Y-116752474D01*
X161542396Y-116813189D01*
X162400545Y-116813189D01*
X162400545Y-116717233D01*
X162401276Y-116673870D01*
X162403228Y-116640705D01*
X162406037Y-116622924D01*
X162407279Y-116621278D01*
X162418701Y-116628162D01*
X162441416Y-116646005D01*
X162464115Y-116665379D01*
X162518700Y-116706114D01*
X162588179Y-116747117D01*
X162665230Y-116784623D01*
X162742535Y-116814864D01*
X162773387Y-116824512D01*
X162841884Y-116839078D01*
X162924736Y-116849039D01*
X163014129Y-116854083D01*
X163102252Y-116853896D01*
X163181293Y-116848166D01*
X163218989Y-116842358D01*
X163357086Y-116804297D01*
X163484387Y-116746573D01*
X163600208Y-116669711D01*
X163703863Y-116574239D01*
X163794667Y-116460679D01*
X163861469Y-116349881D01*
X163916336Y-116233125D01*
X163958337Y-116113776D01*
X163988333Y-115987783D01*
X164007189Y-115851094D01*
X164015768Y-115699658D01*
X164016494Y-115622211D01*
X164014400Y-115565434D01*
X163185283Y-115565434D01*
X163185076Y-115658502D01*
X163182163Y-115746192D01*
X163176500Y-115823272D01*
X163168045Y-115884509D01*
X163165462Y-115896850D01*
X163133660Y-116004133D01*
X163092002Y-116091158D01*
X163040137Y-116158142D01*
X162977719Y-116205305D01*
X162904400Y-116232865D01*
X162819831Y-116241041D01*
X162723665Y-116230051D01*
X162660189Y-116214329D01*
X162611046Y-116196139D01*
X162556917Y-116170291D01*
X162516256Y-116146589D01*
X162445700Y-116100221D01*
X162445700Y-114950030D01*
X162513108Y-114906462D01*
X162591633Y-114865540D01*
X162675819Y-114838889D01*
X162760943Y-114826965D01*
X162842284Y-114830222D01*
X162915120Y-114849115D01*
X162947074Y-114864684D01*
X163004999Y-114907681D01*
X163053956Y-114964453D01*
X163095110Y-115037075D01*
X163129626Y-115127621D01*
X163158667Y-115238166D01*
X163159948Y-115244033D01*
X163170119Y-115306288D01*
X163177761Y-115384094D01*
X163182830Y-115472220D01*
X163185283Y-115565434D01*
X164014400Y-115565434D01*
X164008643Y-115409395D01*
X163986698Y-115213559D01*
X163950714Y-115034832D01*
X163900741Y-114873345D01*
X163836832Y-114729226D01*
X163759038Y-114602606D01*
X163667411Y-114493615D01*
X163562003Y-114402383D01*
X163516838Y-114371432D01*
X163415889Y-114315285D01*
X163312599Y-114275674D01*
X163202511Y-114251514D01*
X163081170Y-114241719D01*
X162988664Y-114242765D01*
X162859010Y-114253731D01*
X162746416Y-114275546D01*
X162647625Y-114309214D01*
X162559379Y-114355736D01*
X162510514Y-114389948D01*
X162481147Y-114411862D01*
X162459457Y-114426833D01*
X162451247Y-114431233D01*
X162449632Y-114420404D01*
X162448341Y-114389751D01*
X162447362Y-114342026D01*
X162446683Y-114279979D01*
X162446290Y-114206362D01*
X162446170Y-114123927D01*
X162446312Y-114035425D01*
X162446703Y-113943607D01*
X162447329Y-113851224D01*
X162448180Y-113761028D01*
X162449240Y-113675771D01*
X162450499Y-113598203D01*
X162451944Y-113531076D01*
X162453562Y-113477141D01*
X162455339Y-113439150D01*
X162455831Y-113432167D01*
X162463408Y-113361751D01*
X162474969Y-113306602D01*
X162492708Y-113259481D01*
X162518818Y-113213147D01*
X162525085Y-113203567D01*
X162549517Y-113166878D01*
X161644189Y-113166878D01*
X161643993Y-114851745D01*
G36*
X165156926Y-114246052D02*
G01*
X165005008Y-114266067D01*
X164869744Y-114299702D01*
X164750261Y-114347225D01*
X164645685Y-114408905D01*
X164568076Y-114472465D01*
X164499235Y-114546599D01*
X164445494Y-114626371D01*
X164402590Y-114718591D01*
X164387116Y-114761661D01*
X164374256Y-114800642D01*
X164363054Y-114836789D01*
X164353380Y-114871934D01*
X164345104Y-114907910D01*
X164338097Y-114946550D01*
X164332228Y-114989685D01*
X164327369Y-115039149D01*
X164323390Y-115096773D01*
X164320160Y-115164391D01*
X164317551Y-115243834D01*
X164315433Y-115336936D01*
X164313676Y-115445527D01*
X164312151Y-115571442D01*
X164310728Y-115716512D01*
X164309475Y-115859278D01*
X164308149Y-116015468D01*
X164306944Y-116150739D01*
X164305734Y-116266746D01*
X164304394Y-116365145D01*
X164302800Y-116447593D01*
X164300825Y-116515746D01*
X164298344Y-116571260D01*
X164295231Y-116615792D01*
X164291362Y-116650998D01*
X164286611Y-116678534D01*
X164280852Y-116700056D01*
X164273961Y-116717222D01*
X164265811Y-116731686D01*
X164256277Y-116745106D01*
X164245234Y-116759138D01*
X164240934Y-116764571D01*
X164225114Y-116787410D01*
X164218078Y-116802963D01*
X164218056Y-116803422D01*
X164228933Y-116805621D01*
X164259918Y-116807647D01*
X164308543Y-116809442D01*
X164372337Y-116810951D01*
X164448831Y-116812116D01*
X164535556Y-116812880D01*
X164630043Y-116813186D01*
X164640950Y-116813189D01*
X165063843Y-116813189D01*
X165067105Y-116717122D01*
X165070367Y-116621056D01*
X165132456Y-116672043D01*
X165229786Y-116739557D01*
X165339687Y-116794249D01*
X165426151Y-116824478D01*
X165495222Y-116839166D01*
X165578575Y-116849159D01*
X165668341Y-116854146D01*
X165756655Y-116853813D01*
X165835649Y-116847851D01*
X165871878Y-116842138D01*
X166011897Y-116804276D01*
X166138322Y-116749432D01*
X166250240Y-116678424D01*
X166346738Y-116592068D01*
X166426900Y-116491179D01*
X166489813Y-116376576D01*
X166534188Y-116250484D01*
X166546522Y-116193901D01*
X166554132Y-116131702D01*
X166557761Y-116056863D01*
X166558255Y-116022967D01*
X166558190Y-116019782D01*
X165798252Y-116019782D01*
X165788959Y-116094833D01*
X165760772Y-116158660D01*
X165712303Y-116214298D01*
X165707246Y-116218711D01*
X165658952Y-116253537D01*
X165607243Y-116276120D01*
X165546511Y-116288040D01*
X165471148Y-116290883D01*
X165453041Y-116290478D01*
X165399222Y-116287825D01*
X165359192Y-116282409D01*
X165324176Y-116272245D01*
X165285397Y-116255350D01*
X165274755Y-116250172D01*
X165214104Y-116214344D01*
X165167285Y-116171712D01*
X165154548Y-116156473D01*
X165109878Y-116099962D01*
X165109878Y-115904086D01*
X165110414Y-115825439D01*
X165112104Y-115767488D01*
X165115072Y-115728375D01*
X165119443Y-115706241D01*
X165123528Y-115699774D01*
X165139453Y-115696611D01*
X165173236Y-115693988D01*
X165220160Y-115692155D01*
X165275507Y-115691357D01*
X165284394Y-115691342D01*
X165405170Y-115696596D01*
X165507840Y-115712763D01*
X165594394Y-115740461D01*
X165666819Y-115780308D01*
X165721749Y-115827258D01*
X165766296Y-115885145D01*
X165791020Y-115948193D01*
X165798252Y-116019782D01*
X166558190Y-116019782D01*
X166556322Y-115929212D01*
X166547978Y-115850312D01*
X166531732Y-115779090D01*
X166506095Y-115708364D01*
X166482099Y-115655993D01*
X166423480Y-115560696D01*
X166345383Y-115472670D01*
X166250185Y-115393517D01*
X166140262Y-115324840D01*
X166017990Y-115268241D01*
X165885745Y-115225321D01*
X165821078Y-115210382D01*
X165684896Y-115188277D01*
X165536451Y-115173694D01*
X165384995Y-115167313D01*
X165258436Y-115168945D01*
X165096550Y-115175724D01*
X165103970Y-115116745D01*
X165123262Y-115017592D01*
X165154396Y-114936872D01*
X165198231Y-114873966D01*
X165255629Y-114828256D01*
X165327452Y-114799122D01*
X165414559Y-114785947D01*
X165517814Y-114788111D01*
X165555789Y-114792112D01*
X165696980Y-114817280D01*
X165833793Y-114858314D01*
X165928322Y-114896315D01*
X165973482Y-114915690D01*
X166011915Y-114931260D01*
X166038266Y-114940905D01*
X166045954Y-114942952D01*
X166055698Y-114933874D01*
X166072417Y-114904905D01*
X166096268Y-114855717D01*
X166127407Y-114785984D01*
X166165993Y-114695379D01*
X166172590Y-114679589D01*
X166202647Y-114607272D01*
X166229626Y-114541925D01*
X166252364Y-114486406D01*
X166269694Y-114443572D01*
X166280452Y-114416281D01*
X166283559Y-114407442D01*
X166273560Y-114402687D01*
X166247283Y-114397410D01*
X166219011Y-114393731D01*
X166188854Y-114388974D01*
X166141067Y-114379528D01*
X166079888Y-114366320D01*
X166009554Y-114350276D01*
X165934306Y-114332320D01*
X165905745Y-114325297D01*
X165800684Y-114299709D01*
X165713020Y-114279647D01*
X165638432Y-114264469D01*
X165572597Y-114253535D01*
X165511193Y-114246204D01*
X165449898Y-114241835D01*
X165384390Y-114239787D01*
X165326372Y-114239389D01*
X165156926Y-114246052D01*
X165156926Y-114246052D01*
G37*
X165156926Y-114246052D02*
X165005008Y-114266067D01*
X164869744Y-114299702D01*
X164750261Y-114347225D01*
X164645685Y-114408905D01*
X164568076Y-114472465D01*
X164499235Y-114546599D01*
X164445494Y-114626371D01*
X164402590Y-114718591D01*
X164387116Y-114761661D01*
X164374256Y-114800642D01*
X164363054Y-114836789D01*
X164353380Y-114871934D01*
X164345104Y-114907910D01*
X164338097Y-114946550D01*
X164332228Y-114989685D01*
X164327369Y-115039149D01*
X164323390Y-115096773D01*
X164320160Y-115164391D01*
X164317551Y-115243834D01*
X164315433Y-115336936D01*
X164313676Y-115445527D01*
X164312151Y-115571442D01*
X164310728Y-115716512D01*
X164309475Y-115859278D01*
X164308149Y-116015468D01*
X164306944Y-116150739D01*
X164305734Y-116266746D01*
X164304394Y-116365145D01*
X164302800Y-116447593D01*
X164300825Y-116515746D01*
X164298344Y-116571260D01*
X164295231Y-116615792D01*
X164291362Y-116650998D01*
X164286611Y-116678534D01*
X164280852Y-116700056D01*
X164273961Y-116717222D01*
X164265811Y-116731686D01*
X164256277Y-116745106D01*
X164245234Y-116759138D01*
X164240934Y-116764571D01*
X164225114Y-116787410D01*
X164218078Y-116802963D01*
X164218056Y-116803422D01*
X164228933Y-116805621D01*
X164259918Y-116807647D01*
X164308543Y-116809442D01*
X164372337Y-116810951D01*
X164448831Y-116812116D01*
X164535556Y-116812880D01*
X164630043Y-116813186D01*
X164640950Y-116813189D01*
X165063843Y-116813189D01*
X165067105Y-116717122D01*
X165070367Y-116621056D01*
X165132456Y-116672043D01*
X165229786Y-116739557D01*
X165339687Y-116794249D01*
X165426151Y-116824478D01*
X165495222Y-116839166D01*
X165578575Y-116849159D01*
X165668341Y-116854146D01*
X165756655Y-116853813D01*
X165835649Y-116847851D01*
X165871878Y-116842138D01*
X166011897Y-116804276D01*
X166138322Y-116749432D01*
X166250240Y-116678424D01*
X166346738Y-116592068D01*
X166426900Y-116491179D01*
X166489813Y-116376576D01*
X166534188Y-116250484D01*
X166546522Y-116193901D01*
X166554132Y-116131702D01*
X166557761Y-116056863D01*
X166558255Y-116022967D01*
X166558190Y-116019782D01*
X165798252Y-116019782D01*
X165788959Y-116094833D01*
X165760772Y-116158660D01*
X165712303Y-116214298D01*
X165707246Y-116218711D01*
X165658952Y-116253537D01*
X165607243Y-116276120D01*
X165546511Y-116288040D01*
X165471148Y-116290883D01*
X165453041Y-116290478D01*
X165399222Y-116287825D01*
X165359192Y-116282409D01*
X165324176Y-116272245D01*
X165285397Y-116255350D01*
X165274755Y-116250172D01*
X165214104Y-116214344D01*
X165167285Y-116171712D01*
X165154548Y-116156473D01*
X165109878Y-116099962D01*
X165109878Y-115904086D01*
X165110414Y-115825439D01*
X165112104Y-115767488D01*
X165115072Y-115728375D01*
X165119443Y-115706241D01*
X165123528Y-115699774D01*
X165139453Y-115696611D01*
X165173236Y-115693988D01*
X165220160Y-115692155D01*
X165275507Y-115691357D01*
X165284394Y-115691342D01*
X165405170Y-115696596D01*
X165507840Y-115712763D01*
X165594394Y-115740461D01*
X165666819Y-115780308D01*
X165721749Y-115827258D01*
X165766296Y-115885145D01*
X165791020Y-115948193D01*
X165798252Y-116019782D01*
X166558190Y-116019782D01*
X166556322Y-115929212D01*
X166547978Y-115850312D01*
X166531732Y-115779090D01*
X166506095Y-115708364D01*
X166482099Y-115655993D01*
X166423480Y-115560696D01*
X166345383Y-115472670D01*
X166250185Y-115393517D01*
X166140262Y-115324840D01*
X166017990Y-115268241D01*
X165885745Y-115225321D01*
X165821078Y-115210382D01*
X165684896Y-115188277D01*
X165536451Y-115173694D01*
X165384995Y-115167313D01*
X165258436Y-115168945D01*
X165096550Y-115175724D01*
X165103970Y-115116745D01*
X165123262Y-115017592D01*
X165154396Y-114936872D01*
X165198231Y-114873966D01*
X165255629Y-114828256D01*
X165327452Y-114799122D01*
X165414559Y-114785947D01*
X165517814Y-114788111D01*
X165555789Y-114792112D01*
X165696980Y-114817280D01*
X165833793Y-114858314D01*
X165928322Y-114896315D01*
X165973482Y-114915690D01*
X166011915Y-114931260D01*
X166038266Y-114940905D01*
X166045954Y-114942952D01*
X166055698Y-114933874D01*
X166072417Y-114904905D01*
X166096268Y-114855717D01*
X166127407Y-114785984D01*
X166165993Y-114695379D01*
X166172590Y-114679589D01*
X166202647Y-114607272D01*
X166229626Y-114541925D01*
X166252364Y-114486406D01*
X166269694Y-114443572D01*
X166280452Y-114416281D01*
X166283559Y-114407442D01*
X166273560Y-114402687D01*
X166247283Y-114397410D01*
X166219011Y-114393731D01*
X166188854Y-114388974D01*
X166141067Y-114379528D01*
X166079888Y-114366320D01*
X166009554Y-114350276D01*
X165934306Y-114332320D01*
X165905745Y-114325297D01*
X165800684Y-114299709D01*
X165713020Y-114279647D01*
X165638432Y-114264469D01*
X165572597Y-114253535D01*
X165511193Y-114246204D01*
X165449898Y-114241835D01*
X165384390Y-114239787D01*
X165326372Y-114239389D01*
X165156926Y-114246052D01*
G36*
X167502071Y-113328571D02*
G01*
X167341930Y-113349745D01*
X167177990Y-113389885D01*
X167008187Y-113449389D01*
X166830457Y-113528654D01*
X166819190Y-113534199D01*
X166761495Y-113562225D01*
X166709948Y-113586302D01*
X166668309Y-113604749D01*
X166640338Y-113615886D01*
X166630767Y-113618433D01*
X166611550Y-113623441D01*
X166606939Y-113627647D01*
X166612042Y-113638080D01*
X166628082Y-113664368D01*
X166653212Y-113703757D01*
X166685586Y-113753491D01*
X166723357Y-113810815D01*
X166764678Y-113872976D01*
X166807702Y-113937218D01*
X166850583Y-114000785D01*
X166891474Y-114060925D01*
X166928529Y-114114880D01*
X166959900Y-114159897D01*
X166983741Y-114193221D01*
X166998206Y-114212097D01*
X167000191Y-114214287D01*
X167010309Y-114209638D01*
X167032650Y-114192462D01*
X167063220Y-114165940D01*
X167078964Y-114151464D01*
X167175453Y-114076182D01*
X167282164Y-114020741D01*
X167397668Y-113985641D01*
X167520538Y-113971380D01*
X167589939Y-113972551D01*
X167711077Y-113989712D01*
X167820295Y-114025594D01*
X167917918Y-114080459D01*
X168004272Y-114154570D01*
X168079685Y-114248188D01*
X168144482Y-114361576D01*
X168181899Y-114448167D01*
X168225752Y-114583866D01*
X168258072Y-114731350D01*
X168278943Y-114886814D01*
X168288449Y-115046456D01*
X168286673Y-115206473D01*
X168273697Y-115363061D01*
X168249606Y-115512418D01*
X168214482Y-115650740D01*
X168168408Y-115774224D01*
X168152127Y-115808478D01*
X168083880Y-115922564D01*
X168003421Y-116019057D01*
X167911930Y-116097170D01*
X167810589Y-116156117D01*
X167700580Y-116195112D01*
X167583085Y-116213368D01*
X167541617Y-116214711D01*
X167420059Y-116203790D01*
X167299622Y-116170974D01*
X167181834Y-116116939D01*
X167068223Y-116042365D01*
X166976815Y-115964039D01*
X166930285Y-115919508D01*
X166749017Y-116216771D01*
X166703920Y-116290933D01*
X166662681Y-116359146D01*
X166626765Y-116418959D01*
X166597634Y-116467920D01*
X166576750Y-116503579D01*
X166565576Y-116523484D01*
X166564125Y-116526579D01*
X166572354Y-116536218D01*
X166597933Y-116553499D01*
X166637627Y-116576783D01*
X166688203Y-116604434D01*
X166746426Y-116634815D01*
X166809063Y-116666290D01*
X166872879Y-116697222D01*
X166934640Y-116725973D01*
X166991112Y-116750908D01*
X167039062Y-116770389D01*
X167062514Y-116778818D01*
X167196279Y-116816633D01*
X167334173Y-116841636D01*
X167481878Y-116854640D01*
X167608667Y-116856968D01*
X167676622Y-116855873D01*
X167742223Y-116853775D01*
X167799653Y-116850934D01*
X167843097Y-116847606D01*
X167857202Y-116845922D01*
X167996216Y-116817087D01*
X168137743Y-116771968D01*
X168275225Y-116713250D01*
X168402106Y-116643620D01*
X168479611Y-116590941D01*
X168607019Y-116482739D01*
X168725322Y-116356171D01*
X168832328Y-116214366D01*
X168925848Y-116060451D01*
X169003690Y-115897553D01*
X169047544Y-115780256D01*
X169097792Y-115596628D01*
X169131291Y-115402081D01*
X169148051Y-115200825D01*
X169148084Y-114997068D01*
X169131399Y-114795021D01*
X169098007Y-114598892D01*
X169047920Y-114412891D01*
X169044103Y-114401303D01*
X168981219Y-114239250D01*
X168904472Y-114091332D01*
X168811258Y-113953365D01*
X168698973Y-113821161D01*
X168655108Y-113775899D01*
X168518966Y-113651957D01*
X168379009Y-113549415D01*
X168233089Y-113467156D01*
X168079058Y-113404064D01*
X167914768Y-113359023D01*
X167819211Y-113341533D01*
X167660477Y-113325966D01*
X167502071Y-113328571D01*
X167502071Y-113328571D01*
G37*
X167502071Y-113328571D02*
X167341930Y-113349745D01*
X167177990Y-113389885D01*
X167008187Y-113449389D01*
X166830457Y-113528654D01*
X166819190Y-113534199D01*
X166761495Y-113562225D01*
X166709948Y-113586302D01*
X166668309Y-113604749D01*
X166640338Y-113615886D01*
X166630767Y-113618433D01*
X166611550Y-113623441D01*
X166606939Y-113627647D01*
X166612042Y-113638080D01*
X166628082Y-113664368D01*
X166653212Y-113703757D01*
X166685586Y-113753491D01*
X166723357Y-113810815D01*
X166764678Y-113872976D01*
X166807702Y-113937218D01*
X166850583Y-114000785D01*
X166891474Y-114060925D01*
X166928529Y-114114880D01*
X166959900Y-114159897D01*
X166983741Y-114193221D01*
X166998206Y-114212097D01*
X167000191Y-114214287D01*
X167010309Y-114209638D01*
X167032650Y-114192462D01*
X167063220Y-114165940D01*
X167078964Y-114151464D01*
X167175453Y-114076182D01*
X167282164Y-114020741D01*
X167397668Y-113985641D01*
X167520538Y-113971380D01*
X167589939Y-113972551D01*
X167711077Y-113989712D01*
X167820295Y-114025594D01*
X167917918Y-114080459D01*
X168004272Y-114154570D01*
X168079685Y-114248188D01*
X168144482Y-114361576D01*
X168181899Y-114448167D01*
X168225752Y-114583866D01*
X168258072Y-114731350D01*
X168278943Y-114886814D01*
X168288449Y-115046456D01*
X168286673Y-115206473D01*
X168273697Y-115363061D01*
X168249606Y-115512418D01*
X168214482Y-115650740D01*
X168168408Y-115774224D01*
X168152127Y-115808478D01*
X168083880Y-115922564D01*
X168003421Y-116019057D01*
X167911930Y-116097170D01*
X167810589Y-116156117D01*
X167700580Y-116195112D01*
X167583085Y-116213368D01*
X167541617Y-116214711D01*
X167420059Y-116203790D01*
X167299622Y-116170974D01*
X167181834Y-116116939D01*
X167068223Y-116042365D01*
X166976815Y-115964039D01*
X166930285Y-115919508D01*
X166749017Y-116216771D01*
X166703920Y-116290933D01*
X166662681Y-116359146D01*
X166626765Y-116418959D01*
X166597634Y-116467920D01*
X166576750Y-116503579D01*
X166565576Y-116523484D01*
X166564125Y-116526579D01*
X166572354Y-116536218D01*
X166597933Y-116553499D01*
X166637627Y-116576783D01*
X166688203Y-116604434D01*
X166746426Y-116634815D01*
X166809063Y-116666290D01*
X166872879Y-116697222D01*
X166934640Y-116725973D01*
X166991112Y-116750908D01*
X167039062Y-116770389D01*
X167062514Y-116778818D01*
X167196279Y-116816633D01*
X167334173Y-116841636D01*
X167481878Y-116854640D01*
X167608667Y-116856968D01*
X167676622Y-116855873D01*
X167742223Y-116853775D01*
X167799653Y-116850934D01*
X167843097Y-116847606D01*
X167857202Y-116845922D01*
X167996216Y-116817087D01*
X168137743Y-116771968D01*
X168275225Y-116713250D01*
X168402106Y-116643620D01*
X168479611Y-116590941D01*
X168607019Y-116482739D01*
X168725322Y-116356171D01*
X168832328Y-116214366D01*
X168925848Y-116060451D01*
X169003690Y-115897553D01*
X169047544Y-115780256D01*
X169097792Y-115596628D01*
X169131291Y-115402081D01*
X169148051Y-115200825D01*
X169148084Y-114997068D01*
X169131399Y-114795021D01*
X169098007Y-114598892D01*
X169047920Y-114412891D01*
X169044103Y-114401303D01*
X168981219Y-114239250D01*
X168904472Y-114091332D01*
X168811258Y-113953365D01*
X168698973Y-113821161D01*
X168655108Y-113775899D01*
X168518966Y-113651957D01*
X168379009Y-113549415D01*
X168233089Y-113467156D01*
X168079058Y-113404064D01*
X167914768Y-113359023D01*
X167819211Y-113341533D01*
X167660477Y-113325966D01*
X167502071Y-113328571D01*
G36*
X170776900Y-112868554D02*
G01*
X170766035Y-112982493D01*
X170734418Y-113090116D01*
X170683515Y-113189115D01*
X170614793Y-113277184D01*
X170529719Y-113352016D01*
X170432732Y-113409884D01*
X170326464Y-113449505D01*
X170219450Y-113468073D01*
X170113800Y-113466934D01*
X170011625Y-113447430D01*
X169915034Y-113410906D01*
X169826138Y-113358705D01*
X169747046Y-113292173D01*
X169679869Y-113212652D01*
X169626717Y-113121487D01*
X169589699Y-113020023D01*
X169570927Y-112909602D01*
X169568989Y-112859706D01*
X169568989Y-112771767D01*
X169517060Y-112771767D01*
X169480753Y-112774611D01*
X169453855Y-112786411D01*
X169426749Y-112810149D01*
X169388367Y-112848531D01*
X169388367Y-115040102D01*
X169388376Y-115302239D01*
X169388408Y-115542741D01*
X169388472Y-115762548D01*
X169388576Y-115962601D01*
X169388727Y-116143844D01*
X169388934Y-116307216D01*
X169389206Y-116453660D01*
X169389550Y-116584117D01*
X169389974Y-116699529D01*
X169390487Y-116800838D01*
X169391097Y-116888984D01*
X169391812Y-116964910D01*
X169392640Y-117029557D01*
X169393589Y-117083867D01*
X169394667Y-117128780D01*
X169395883Y-117165240D01*
X169397245Y-117194187D01*
X169398761Y-117216563D01*
X169400438Y-117233309D01*
X169402286Y-117245368D01*
X169404313Y-117253680D01*
X169406525Y-117259187D01*
X169407608Y-117261037D01*
X169411771Y-117268049D01*
X169415305Y-117274496D01*
X169419135Y-117280400D01*
X169424182Y-117285786D01*
X169431371Y-117290678D01*
X169441623Y-117295098D01*
X169455864Y-117299072D01*
X169475014Y-117302621D01*
X169499999Y-117305770D01*
X169531740Y-117308542D01*
X169571162Y-117310961D01*
X169619186Y-117313051D01*
X169676737Y-117314835D01*
X169744737Y-117316337D01*
X169824110Y-117317580D01*
X169915779Y-117318589D01*
X170020666Y-117319385D01*
X170139696Y-117319994D01*
X170273790Y-117320439D01*
X170423873Y-117320743D01*
X170590867Y-117320930D01*
X170775696Y-117321024D01*
X170979283Y-117321048D01*
X171202550Y-117321025D01*
X171446422Y-117320980D01*
X171711821Y-117320937D01*
X171750204Y-117320932D01*
X172017182Y-117320889D01*
X172262502Y-117320818D01*
X172487083Y-117320713D01*
X172691845Y-117320566D01*
X172877706Y-117320369D01*
X173045588Y-117320116D01*
X173196408Y-117319800D01*
X173331087Y-117319413D01*
X173450544Y-117318947D01*
X173555699Y-117318397D01*
X173647471Y-117317753D01*
X173726779Y-117317011D01*
X173794543Y-117316161D01*
X173851682Y-117315197D01*
X173899117Y-117314111D01*
X173937766Y-117312897D01*
X173968549Y-117311547D01*
X173992385Y-117310055D01*
X174010194Y-117308411D01*
X174022895Y-117306611D01*
X174031408Y-117304645D01*
X174035766Y-117302977D01*
X174044228Y-117299406D01*
X174051997Y-117296770D01*
X174059102Y-117294134D01*
X174065573Y-117290562D01*
X174071439Y-117285121D01*
X174076729Y-117276875D01*
X174081474Y-117264890D01*
X174085702Y-117248231D01*
X174089443Y-117225963D01*
X174092727Y-117197152D01*
X174095583Y-117160863D01*
X174098040Y-117116161D01*
X174100129Y-117062111D01*
X174101878Y-116997779D01*
X174103317Y-116922230D01*
X174104476Y-116834530D01*
X174105383Y-116733743D01*
X174106069Y-116618934D01*
X174106563Y-116489170D01*
X174106895Y-116343515D01*
X174107093Y-116181035D01*
X174107187Y-116000795D01*
X174107208Y-115801860D01*
X174107185Y-115583296D01*
X174107146Y-115344168D01*
X174107122Y-115083540D01*
X174107122Y-115041389D01*
X174107136Y-114778492D01*
X174107161Y-114537232D01*
X174107171Y-114316665D01*
X174107142Y-114115852D01*
X174107048Y-113933849D01*
X174106862Y-113769716D01*
X174106559Y-113622511D01*
X174106114Y-113491292D01*
X174105534Y-113381367D01*
X173802697Y-113381367D01*
X173762907Y-113439211D01*
X173751736Y-113454979D01*
X173741666Y-113468941D01*
X173732638Y-113482284D01*
X173724597Y-113496193D01*
X173717486Y-113511856D01*
X173711247Y-113530458D01*
X173705825Y-113553186D01*
X173701162Y-113581227D01*
X173697201Y-113615767D01*
X173693885Y-113657992D01*
X173691159Y-113709089D01*
X173688964Y-113770244D01*
X173687245Y-113842644D01*
X173685944Y-113927475D01*
X173685005Y-114025922D01*
X173684370Y-114139174D01*
X173683984Y-114268416D01*
X173683788Y-114414834D01*
X173683727Y-114579616D01*
X173683743Y-114763947D01*
X173683780Y-114969013D01*
X173683789Y-115091633D01*
X173683765Y-115308582D01*
X173683731Y-115504142D01*
X173683743Y-115679499D01*
X173683858Y-115835841D01*
X173684130Y-115974357D01*
X173684618Y-116096234D01*
X173685376Y-116202660D01*
X173686462Y-116294822D01*
X173687931Y-116373909D01*
X173689840Y-116441108D01*
X173692244Y-116497607D01*
X173695201Y-116544593D01*
X173698766Y-116583255D01*
X173702995Y-116614780D01*
X173707946Y-116640355D01*
X173713673Y-116661170D01*
X173720233Y-116678411D01*
X173727683Y-116693265D01*
X173736079Y-116706922D01*
X173745476Y-116720569D01*
X173755932Y-116735393D01*
X173762023Y-116744283D01*
X173800796Y-116801900D01*
X173269232Y-116801900D01*
X173145983Y-116801865D01*
X173043487Y-116801715D01*
X172959920Y-116801378D01*
X172893456Y-116800786D01*
X172842271Y-116799867D01*
X172804541Y-116798551D01*
X172778440Y-116796769D01*
X172762144Y-116794451D01*
X172753828Y-116791526D01*
X172751668Y-116787924D01*
X172753839Y-116783575D01*
X172755035Y-116782145D01*
X172780185Y-116745073D01*
X172806083Y-116692272D01*
X172829692Y-116630270D01*
X172837961Y-116603857D01*
X172842578Y-116585916D01*
X172846479Y-116564855D01*
X172849748Y-116538589D01*
X172852466Y-116505032D01*
X172854715Y-116462099D01*
X172856577Y-116407704D01*
X172858136Y-116339762D01*
X172859472Y-116256188D01*
X172860669Y-116154895D01*
X172861808Y-116033800D01*
X172862185Y-115989100D01*
X172863202Y-115863949D01*
X172863960Y-115759582D01*
X172864403Y-115674207D01*
X172864470Y-115606033D01*
X172864105Y-115553265D01*
X172863248Y-115514114D01*
X172861841Y-115486785D01*
X172859825Y-115469486D01*
X172857143Y-115460426D01*
X172853736Y-115457812D01*
X172849544Y-115459851D01*
X172845071Y-115464167D01*
X172834716Y-115477102D01*
X172812658Y-115506176D01*
X172780457Y-115549259D01*
X172739674Y-115604218D01*
X172691870Y-115668923D01*
X172638605Y-115741242D01*
X172581440Y-115819044D01*
X172521937Y-115900198D01*
X172461655Y-115982572D01*
X172402155Y-116064036D01*
X172344998Y-116142457D01*
X172291745Y-116215704D01*
X172243957Y-116281647D01*
X172203193Y-116338154D01*
X172171016Y-116383093D01*
X172148985Y-116414334D01*
X172144417Y-116420966D01*
X172121496Y-116457869D01*
X172094688Y-116505859D01*
X172069289Y-116555397D01*
X172066068Y-116562077D01*
X172044390Y-116610272D01*
X172031804Y-116647834D01*
X172026074Y-116683660D01*
X172024956Y-116725700D01*
X172025590Y-116801900D01*
X170871151Y-116801900D01*
X170962315Y-116708169D01*
X171009112Y-116658275D01*
X171059399Y-116601795D01*
X171105444Y-116547526D01*
X171125869Y-116522173D01*
X171156307Y-116482628D01*
X171196362Y-116429416D01*
X171244861Y-116364167D01*
X171300635Y-116288511D01*
X171362511Y-116204077D01*
X171429319Y-116112494D01*
X171499887Y-116015392D01*
X171573045Y-115914401D01*
X171647621Y-115811150D01*
X171722444Y-115707268D01*
X171796343Y-115604385D01*
X171868146Y-115504131D01*
X171936684Y-115408136D01*
X172000784Y-115318027D01*
X172059275Y-115235436D01*
X172110986Y-115161992D01*
X172154747Y-115099324D01*
X172189385Y-115049061D01*
X172213730Y-115012834D01*
X172226611Y-114992271D01*
X172228369Y-114988168D01*
X172220410Y-114976842D01*
X172199615Y-114949662D01*
X172167347Y-114908329D01*
X172124970Y-114854544D01*
X172073847Y-114790006D01*
X172015341Y-114716418D01*
X171950814Y-114635478D01*
X171881631Y-114548888D01*
X171809153Y-114458348D01*
X171734746Y-114365560D01*
X171675017Y-114291202D01*
X170664011Y-114291202D01*
X170658102Y-114304159D01*
X170643772Y-114326408D01*
X170642725Y-114327891D01*
X170623938Y-114358044D01*
X170604291Y-114394875D01*
X170600392Y-114403011D01*
X170596856Y-114411440D01*
X170593730Y-114421559D01*
X170590986Y-114434760D01*
X170588592Y-114452438D01*
X170586519Y-114475984D01*
X170584735Y-114506793D01*
X170583212Y-114546257D01*
X170581919Y-114595769D01*
X170580826Y-114656723D01*
X170579903Y-114730511D01*
X170579119Y-114818528D01*
X170578445Y-114922165D01*
X170577850Y-115042816D01*
X170577305Y-115181874D01*
X170576779Y-115340732D01*
X170576245Y-115519589D01*
X170575706Y-115704707D01*
X170575272Y-115868645D01*
X170575009Y-116012803D01*
X170574984Y-116138579D01*
X170575265Y-116247371D01*
X170575919Y-116340577D01*
X170577014Y-116419597D01*
X170578618Y-116485828D01*
X170580797Y-116540670D01*
X170583619Y-116585521D01*
X170587151Y-116621778D01*
X170591461Y-116650841D01*
X170596617Y-116674109D01*
X170602685Y-116692979D01*
X170609733Y-116708851D01*
X170617829Y-116723122D01*
X170627040Y-116737191D01*
X170635540Y-116749658D01*
X170652676Y-116775952D01*
X170662822Y-116793537D01*
X170664011Y-116796757D01*
X170653104Y-116797834D01*
X170621911Y-116798835D01*
X170572723Y-116799735D01*
X170507833Y-116800510D01*
X170429530Y-116801137D01*
X170340107Y-116801591D01*
X170241856Y-116801849D01*
X170172945Y-116801900D01*
X170067952Y-116801680D01*
X169971110Y-116801048D01*
X169884607Y-116800049D01*
X169810632Y-116798727D01*
X169751374Y-116797126D01*
X169709020Y-116795291D01*
X169685760Y-116793265D01*
X169681878Y-116791993D01*
X169689576Y-116777091D01*
X169697574Y-116769060D01*
X169710746Y-116751934D01*
X169727985Y-116721683D01*
X169739907Y-116697122D01*
X169766545Y-116638211D01*
X169769620Y-115461345D01*
X169772695Y-114284478D01*
X170218353Y-114284478D01*
X170316170Y-114284642D01*
X170406564Y-114285111D01*
X170487130Y-114285847D01*
X170555462Y-114286816D01*
X170609156Y-114287980D01*
X170645805Y-114289303D01*
X170663004Y-114290749D01*
X170664011Y-114291202D01*
X171675017Y-114291202D01*
X171659770Y-114272222D01*
X171585590Y-114180037D01*
X171513569Y-114090704D01*
X171445069Y-114005924D01*
X171381455Y-113927398D01*
X171324088Y-113856826D01*
X171274333Y-113795909D01*
X171233552Y-113746347D01*
X171216388Y-113725678D01*
X171130096Y-113625016D01*
X171053497Y-113541759D01*
X170984683Y-113473938D01*
X170921748Y-113419589D01*
X170912367Y-113412222D01*
X170872856Y-113381617D01*
X172004616Y-113381367D01*
X171999327Y-113429344D01*
X172002630Y-113486688D01*
X172024161Y-113554963D01*
X172064135Y-113634712D01*
X172109443Y-113706995D01*
X172125661Y-113729640D01*
X172153714Y-113767196D01*
X172191930Y-113817521D01*
X172238637Y-113878473D01*
X172292161Y-113947911D01*
X172350831Y-114023694D01*
X172412975Y-114103680D01*
X172476921Y-114185728D01*
X172540995Y-114267696D01*
X172603527Y-114347443D01*
X172662843Y-114422827D01*
X172717271Y-114491707D01*
X172765139Y-114551942D01*
X172804775Y-114601389D01*
X172834506Y-114637908D01*
X172852661Y-114659358D01*
X172855720Y-114662656D01*
X172858579Y-114654649D01*
X172860793Y-114624355D01*
X172862357Y-114572056D01*
X172863267Y-114498031D01*
X172863520Y-114402563D01*
X172863113Y-114285934D01*
X172862204Y-114165945D01*
X172860882Y-114033833D01*
X172859357Y-113922094D01*
X172857381Y-113828525D01*
X172854706Y-113750919D01*
X172851082Y-113687074D01*
X172846261Y-113634783D01*
X172839994Y-113591844D01*
X172832032Y-113556051D01*
X172822127Y-113525200D01*
X172810031Y-113497086D01*
X172795493Y-113469505D01*
X172780811Y-113444466D01*
X172742814Y-113381367D01*
X173802697Y-113381367D01*
X174105534Y-113381367D01*
X174105501Y-113375117D01*
X174104695Y-113273044D01*
X174103670Y-113184133D01*
X174102400Y-113107441D01*
X174100860Y-113042027D01*
X174099024Y-112986949D01*
X174096867Y-112941265D01*
X174094363Y-112904034D01*
X174091487Y-112874313D01*
X174088213Y-112851162D01*
X174084515Y-112833639D01*
X174080369Y-112820801D01*
X174075747Y-112811708D01*
X174070626Y-112805418D01*
X174064978Y-112800988D01*
X174058779Y-112797478D01*
X174052004Y-112793945D01*
X174046008Y-112790376D01*
X174040775Y-112787800D01*
X174032599Y-112785472D01*
X174020386Y-112783378D01*
X174003041Y-112781507D01*
X173979469Y-112779847D01*
X173948577Y-112778384D01*
X173909268Y-112777108D01*
X173860450Y-112776004D01*
X173801027Y-112775061D01*
X173729904Y-112774267D01*
X173645988Y-112773609D01*
X173548183Y-112773075D01*
X173435394Y-112772653D01*
X173306529Y-112772329D01*
X173160491Y-112772092D01*
X172996186Y-112771930D01*
X172812520Y-112771830D01*
X172608397Y-112771780D01*
X172397253Y-112771767D01*
X170776900Y-112771767D01*
X170776900Y-112868554D01*
X170776900Y-112868554D01*
G37*
X170776900Y-112868554D02*
X170766035Y-112982493D01*
X170734418Y-113090116D01*
X170683515Y-113189115D01*
X170614793Y-113277184D01*
X170529719Y-113352016D01*
X170432732Y-113409884D01*
X170326464Y-113449505D01*
X170219450Y-113468073D01*
X170113800Y-113466934D01*
X170011625Y-113447430D01*
X169915034Y-113410906D01*
X169826138Y-113358705D01*
X169747046Y-113292173D01*
X169679869Y-113212652D01*
X169626717Y-113121487D01*
X169589699Y-113020023D01*
X169570927Y-112909602D01*
X169568989Y-112859706D01*
X169568989Y-112771767D01*
X169517060Y-112771767D01*
X169480753Y-112774611D01*
X169453855Y-112786411D01*
X169426749Y-112810149D01*
X169388367Y-112848531D01*
X169388367Y-115040102D01*
X169388376Y-115302239D01*
X169388408Y-115542741D01*
X169388472Y-115762548D01*
X169388576Y-115962601D01*
X169388727Y-116143844D01*
X169388934Y-116307216D01*
X169389206Y-116453660D01*
X169389550Y-116584117D01*
X169389974Y-116699529D01*
X169390487Y-116800838D01*
X169391097Y-116888984D01*
X169391812Y-116964910D01*
X169392640Y-117029557D01*
X169393589Y-117083867D01*
X169394667Y-117128780D01*
X169395883Y-117165240D01*
X169397245Y-117194187D01*
X169398761Y-117216563D01*
X169400438Y-117233309D01*
X169402286Y-117245368D01*
X169404313Y-117253680D01*
X169406525Y-117259187D01*
X169407608Y-117261037D01*
X169411771Y-117268049D01*
X169415305Y-117274496D01*
X169419135Y-117280400D01*
X169424182Y-117285786D01*
X169431371Y-117290678D01*
X169441623Y-117295098D01*
X169455864Y-117299072D01*
X169475014Y-117302621D01*
X169499999Y-117305770D01*
X169531740Y-117308542D01*
X169571162Y-117310961D01*
X169619186Y-117313051D01*
X169676737Y-117314835D01*
X169744737Y-117316337D01*
X169824110Y-117317580D01*
X169915779Y-117318589D01*
X170020666Y-117319385D01*
X170139696Y-117319994D01*
X170273790Y-117320439D01*
X170423873Y-117320743D01*
X170590867Y-117320930D01*
X170775696Y-117321024D01*
X170979283Y-117321048D01*
X171202550Y-117321025D01*
X171446422Y-117320980D01*
X171711821Y-117320937D01*
X171750204Y-117320932D01*
X172017182Y-117320889D01*
X172262502Y-117320818D01*
X172487083Y-117320713D01*
X172691845Y-117320566D01*
X172877706Y-117320369D01*
X173045588Y-117320116D01*
X173196408Y-117319800D01*
X173331087Y-117319413D01*
X173450544Y-117318947D01*
X173555699Y-117318397D01*
X173647471Y-117317753D01*
X173726779Y-117317011D01*
X173794543Y-117316161D01*
X173851682Y-117315197D01*
X173899117Y-117314111D01*
X173937766Y-117312897D01*
X173968549Y-117311547D01*
X173992385Y-117310055D01*
X174010194Y-117308411D01*
X174022895Y-117306611D01*
X174031408Y-117304645D01*
X174035766Y-117302977D01*
X174044228Y-117299406D01*
X174051997Y-117296770D01*
X174059102Y-117294134D01*
X174065573Y-117290562D01*
X174071439Y-117285121D01*
X174076729Y-117276875D01*
X174081474Y-117264890D01*
X174085702Y-117248231D01*
X174089443Y-117225963D01*
X174092727Y-117197152D01*
X174095583Y-117160863D01*
X174098040Y-117116161D01*
X174100129Y-117062111D01*
X174101878Y-116997779D01*
X174103317Y-116922230D01*
X174104476Y-116834530D01*
X174105383Y-116733743D01*
X174106069Y-116618934D01*
X174106563Y-116489170D01*
X174106895Y-116343515D01*
X174107093Y-116181035D01*
X174107187Y-116000795D01*
X174107208Y-115801860D01*
X174107185Y-115583296D01*
X174107146Y-115344168D01*
X174107122Y-115083540D01*
X174107122Y-115041389D01*
X174107136Y-114778492D01*
X174107161Y-114537232D01*
X174107171Y-114316665D01*
X174107142Y-114115852D01*
X174107048Y-113933849D01*
X174106862Y-113769716D01*
X174106559Y-113622511D01*
X174106114Y-113491292D01*
X174105534Y-113381367D01*
X173802697Y-113381367D01*
X173762907Y-113439211D01*
X173751736Y-113454979D01*
X173741666Y-113468941D01*
X173732638Y-113482284D01*
X173724597Y-113496193D01*
X173717486Y-113511856D01*
X173711247Y-113530458D01*
X173705825Y-113553186D01*
X173701162Y-113581227D01*
X173697201Y-113615767D01*
X173693885Y-113657992D01*
X173691159Y-113709089D01*
X173688964Y-113770244D01*
X173687245Y-113842644D01*
X173685944Y-113927475D01*
X173685005Y-114025922D01*
X173684370Y-114139174D01*
X173683984Y-114268416D01*
X173683788Y-114414834D01*
X173683727Y-114579616D01*
X173683743Y-114763947D01*
X173683780Y-114969013D01*
X173683789Y-115091633D01*
X173683765Y-115308582D01*
X173683731Y-115504142D01*
X173683743Y-115679499D01*
X173683858Y-115835841D01*
X173684130Y-115974357D01*
X173684618Y-116096234D01*
X173685376Y-116202660D01*
X173686462Y-116294822D01*
X173687931Y-116373909D01*
X173689840Y-116441108D01*
X173692244Y-116497607D01*
X173695201Y-116544593D01*
X173698766Y-116583255D01*
X173702995Y-116614780D01*
X173707946Y-116640355D01*
X173713673Y-116661170D01*
X173720233Y-116678411D01*
X173727683Y-116693265D01*
X173736079Y-116706922D01*
X173745476Y-116720569D01*
X173755932Y-116735393D01*
X173762023Y-116744283D01*
X173800796Y-116801900D01*
X173269232Y-116801900D01*
X173145983Y-116801865D01*
X173043487Y-116801715D01*
X172959920Y-116801378D01*
X172893456Y-116800786D01*
X172842271Y-116799867D01*
X172804541Y-116798551D01*
X172778440Y-116796769D01*
X172762144Y-116794451D01*
X172753828Y-116791526D01*
X172751668Y-116787924D01*
X172753839Y-116783575D01*
X172755035Y-116782145D01*
X172780185Y-116745073D01*
X172806083Y-116692272D01*
X172829692Y-116630270D01*
X172837961Y-116603857D01*
X172842578Y-116585916D01*
X172846479Y-116564855D01*
X172849748Y-116538589D01*
X172852466Y-116505032D01*
X172854715Y-116462099D01*
X172856577Y-116407704D01*
X172858136Y-116339762D01*
X172859472Y-116256188D01*
X172860669Y-116154895D01*
X172861808Y-116033800D01*
X172862185Y-115989100D01*
X172863202Y-115863949D01*
X172863960Y-115759582D01*
X172864403Y-115674207D01*
X172864470Y-115606033D01*
X172864105Y-115553265D01*
X172863248Y-115514114D01*
X172861841Y-115486785D01*
X172859825Y-115469486D01*
X172857143Y-115460426D01*
X172853736Y-115457812D01*
X172849544Y-115459851D01*
X172845071Y-115464167D01*
X172834716Y-115477102D01*
X172812658Y-115506176D01*
X172780457Y-115549259D01*
X172739674Y-115604218D01*
X172691870Y-115668923D01*
X172638605Y-115741242D01*
X172581440Y-115819044D01*
X172521937Y-115900198D01*
X172461655Y-115982572D01*
X172402155Y-116064036D01*
X172344998Y-116142457D01*
X172291745Y-116215704D01*
X172243957Y-116281647D01*
X172203193Y-116338154D01*
X172171016Y-116383093D01*
X172148985Y-116414334D01*
X172144417Y-116420966D01*
X172121496Y-116457869D01*
X172094688Y-116505859D01*
X172069289Y-116555397D01*
X172066068Y-116562077D01*
X172044390Y-116610272D01*
X172031804Y-116647834D01*
X172026074Y-116683660D01*
X172024956Y-116725700D01*
X172025590Y-116801900D01*
X170871151Y-116801900D01*
X170962315Y-116708169D01*
X171009112Y-116658275D01*
X171059399Y-116601795D01*
X171105444Y-116547526D01*
X171125869Y-116522173D01*
X171156307Y-116482628D01*
X171196362Y-116429416D01*
X171244861Y-116364167D01*
X171300635Y-116288511D01*
X171362511Y-116204077D01*
X171429319Y-116112494D01*
X171499887Y-116015392D01*
X171573045Y-115914401D01*
X171647621Y-115811150D01*
X171722444Y-115707268D01*
X171796343Y-115604385D01*
X171868146Y-115504131D01*
X171936684Y-115408136D01*
X172000784Y-115318027D01*
X172059275Y-115235436D01*
X172110986Y-115161992D01*
X172154747Y-115099324D01*
X172189385Y-115049061D01*
X172213730Y-115012834D01*
X172226611Y-114992271D01*
X172228369Y-114988168D01*
X172220410Y-114976842D01*
X172199615Y-114949662D01*
X172167347Y-114908329D01*
X172124970Y-114854544D01*
X172073847Y-114790006D01*
X172015341Y-114716418D01*
X171950814Y-114635478D01*
X171881631Y-114548888D01*
X171809153Y-114458348D01*
X171734746Y-114365560D01*
X171675017Y-114291202D01*
X170664011Y-114291202D01*
X170658102Y-114304159D01*
X170643772Y-114326408D01*
X170642725Y-114327891D01*
X170623938Y-114358044D01*
X170604291Y-114394875D01*
X170600392Y-114403011D01*
X170596856Y-114411440D01*
X170593730Y-114421559D01*
X170590986Y-114434760D01*
X170588592Y-114452438D01*
X170586519Y-114475984D01*
X170584735Y-114506793D01*
X170583212Y-114546257D01*
X170581919Y-114595769D01*
X170580826Y-114656723D01*
X170579903Y-114730511D01*
X170579119Y-114818528D01*
X170578445Y-114922165D01*
X170577850Y-115042816D01*
X170577305Y-115181874D01*
X170576779Y-115340732D01*
X170576245Y-115519589D01*
X170575706Y-115704707D01*
X170575272Y-115868645D01*
X170575009Y-116012803D01*
X170574984Y-116138579D01*
X170575265Y-116247371D01*
X170575919Y-116340577D01*
X170577014Y-116419597D01*
X170578618Y-116485828D01*
X170580797Y-116540670D01*
X170583619Y-116585521D01*
X170587151Y-116621778D01*
X170591461Y-116650841D01*
X170596617Y-116674109D01*
X170602685Y-116692979D01*
X170609733Y-116708851D01*
X170617829Y-116723122D01*
X170627040Y-116737191D01*
X170635540Y-116749658D01*
X170652676Y-116775952D01*
X170662822Y-116793537D01*
X170664011Y-116796757D01*
X170653104Y-116797834D01*
X170621911Y-116798835D01*
X170572723Y-116799735D01*
X170507833Y-116800510D01*
X170429530Y-116801137D01*
X170340107Y-116801591D01*
X170241856Y-116801849D01*
X170172945Y-116801900D01*
X170067952Y-116801680D01*
X169971110Y-116801048D01*
X169884607Y-116800049D01*
X169810632Y-116798727D01*
X169751374Y-116797126D01*
X169709020Y-116795291D01*
X169685760Y-116793265D01*
X169681878Y-116791993D01*
X169689576Y-116777091D01*
X169697574Y-116769060D01*
X169710746Y-116751934D01*
X169727985Y-116721683D01*
X169739907Y-116697122D01*
X169766545Y-116638211D01*
X169769620Y-115461345D01*
X169772695Y-114284478D01*
X170218353Y-114284478D01*
X170316170Y-114284642D01*
X170406564Y-114285111D01*
X170487130Y-114285847D01*
X170555462Y-114286816D01*
X170609156Y-114287980D01*
X170645805Y-114289303D01*
X170663004Y-114290749D01*
X170664011Y-114291202D01*
X171675017Y-114291202D01*
X171659770Y-114272222D01*
X171585590Y-114180037D01*
X171513569Y-114090704D01*
X171445069Y-114005924D01*
X171381455Y-113927398D01*
X171324088Y-113856826D01*
X171274333Y-113795909D01*
X171233552Y-113746347D01*
X171216388Y-113725678D01*
X171130096Y-113625016D01*
X171053497Y-113541759D01*
X170984683Y-113473938D01*
X170921748Y-113419589D01*
X170912367Y-113412222D01*
X170872856Y-113381617D01*
X172004616Y-113381367D01*
X171999327Y-113429344D01*
X172002630Y-113486688D01*
X172024161Y-113554963D01*
X172064135Y-113634712D01*
X172109443Y-113706995D01*
X172125661Y-113729640D01*
X172153714Y-113767196D01*
X172191930Y-113817521D01*
X172238637Y-113878473D01*
X172292161Y-113947911D01*
X172350831Y-114023694D01*
X172412975Y-114103680D01*
X172476921Y-114185728D01*
X172540995Y-114267696D01*
X172603527Y-114347443D01*
X172662843Y-114422827D01*
X172717271Y-114491707D01*
X172765139Y-114551942D01*
X172804775Y-114601389D01*
X172834506Y-114637908D01*
X172852661Y-114659358D01*
X172855720Y-114662656D01*
X172858579Y-114654649D01*
X172860793Y-114624355D01*
X172862357Y-114572056D01*
X172863267Y-114498031D01*
X172863520Y-114402563D01*
X172863113Y-114285934D01*
X172862204Y-114165945D01*
X172860882Y-114033833D01*
X172859357Y-113922094D01*
X172857381Y-113828525D01*
X172854706Y-113750919D01*
X172851082Y-113687074D01*
X172846261Y-113634783D01*
X172839994Y-113591844D01*
X172832032Y-113556051D01*
X172822127Y-113525200D01*
X172810031Y-113497086D01*
X172795493Y-113469505D01*
X172780811Y-113444466D01*
X172742814Y-113381367D01*
X173802697Y-113381367D01*
X174105534Y-113381367D01*
X174105501Y-113375117D01*
X174104695Y-113273044D01*
X174103670Y-113184133D01*
X174102400Y-113107441D01*
X174100860Y-113042027D01*
X174099024Y-112986949D01*
X174096867Y-112941265D01*
X174094363Y-112904034D01*
X174091487Y-112874313D01*
X174088213Y-112851162D01*
X174084515Y-112833639D01*
X174080369Y-112820801D01*
X174075747Y-112811708D01*
X174070626Y-112805418D01*
X174064978Y-112800988D01*
X174058779Y-112797478D01*
X174052004Y-112793945D01*
X174046008Y-112790376D01*
X174040775Y-112787800D01*
X174032599Y-112785472D01*
X174020386Y-112783378D01*
X174003041Y-112781507D01*
X173979469Y-112779847D01*
X173948577Y-112778384D01*
X173909268Y-112777108D01*
X173860450Y-112776004D01*
X173801027Y-112775061D01*
X173729904Y-112774267D01*
X173645988Y-112773609D01*
X173548183Y-112773075D01*
X173435394Y-112772653D01*
X173306529Y-112772329D01*
X173160491Y-112772092D01*
X172996186Y-112771930D01*
X172812520Y-112771830D01*
X172608397Y-112771780D01*
X172397253Y-112771767D01*
X170776900Y-112771767D01*
X170776900Y-112868554D01*
D12*
X145053349Y-80568745D02*
X144767635Y-80568745D01*
X144910492Y-81068745D02*
X144910492Y-80568745D01*
X144600968Y-81068745D02*
X144600968Y-80568745D01*
X144434301Y-80925888D01*
X144267635Y-80568745D01*
X144267635Y-81068745D01*
M02*
